<?xml version="1.0" encoding="UTF-8"?>
<svg id="Layer_1" xmlns="http://www.w3.org/2000/svg" version="1.1" viewBox="0 0 1500 233.93">
  <!-- Generator: Adobe Illustrator 30.0.0, SVG Export Plug-In . SVG Version: 2.1.1 Build 123)  -->
  <path d="M548.22,130.46c-.34,7.65,1.21,9.34,7.85,9.6,6.69.26,12.81-2.06,18.89-4.29,5.47-2.01,10.74-4.59,16.96-7.29-1.69-.63-2.67-1.13-3.72-1.36-3.38-.77-6.77-1.55-10.18-2.13-2.34-.4-4.94-1.16-7.08-.56-7.81,2.19-15.33-1.08-23.82.04,1.37-4.15,2.44-7.38,3.43-10.37,5.63-3.96,11.63-3.84,17.27-2.49,20.3,4.87,40.85,7.73,61.65,8.96,1.02.06,2.02.56,3.76,1.06-1.76,3.51-3.35,6.69-5.07,10.14-1.6-.15-3.06-.27-4.51-.44-9.82-1.16-18.93,1.43-27.75,5.39-6.53,2.93-13.05,5.88-19.5,8.97-7.1,3.4-14.47,5.77-23.13,6.48-3,4.8-6.45,9.79-9.31,15.09-2.62,4.85-3.31,10.27-3.03,15.79.42,8.25,6.77,12.88,14.37,9.51,5.25-2.33,10.08-5.91,14.6-9.55,5.91-4.75,11.46-9.97,16.94-15.23,8.32-7.99,18.34-13.01,28.87-17.21,3.82-1.53,7.81-2.7,11.51-4.46,4.26-2.03,8.28-4.54,12.78-7.05-1.23-8.21-2.2-15.92-3.58-23.56-3.2-17.68-6.54-35.34-9.95-52.99-.65-3.35-1.92-6.58-3.07-10.43.68-2.52,1.53-5.64,2.54-9.36,4.15,3.76,5.24,8.72,7.47,12.9,2.24,4.22,5.34,8.31,5.03,14.28-1.87-1.46-3.19-2.49-4.8-3.75,0,1.12-.14,1.98.02,2.78,2.74,13.15,5.71,26.25,8.2,39.44,1.16,6.15,1.42,12.48,2.06,18.73.66,6.45-1.33,12.48-3.23,18.46-1.06,3.35-3.31,6.1-6.53,7.83-1.91,1.03-3.78,2.16-5.77,3-7.57,3.2-15.18,6.3-23.15,9.59-5.07,9.48-9.55,19.21-8.51,30.6.88,9.69,8.09,15.29,17.58,13.24,8.16-1.76,15.71-5.21,22.27-10.31,9.24-7.19,18.49-14.45,27.04-22.41,14.63-13.62,29.99-26.3,46.74-38.26-3.46-4.4-7.85-7.4-12.23-10.4-1.43-.98-2.91-1.89-4.44-2.71-5.17-2.76-6.55-7.24-5.69-12.66.86-5.45,3.97-9.2,9.27-10.63,3.32-.9,6.82-1.34,10.26-1.51,16.55-.79,32.9.97,49.1,4.36,4.03.84,8.1,1.47,12.08,2.49,2.65.68,5.17,1.87,8.24,3.02-1.11,3.81-2.06,7.07-2.96,10.16-15.96,6.03-32,10.69-46.76,19.32,3.92,5.53,6.04,11.23,5.84,17.87-4.41.98-7.04-2.48-10.89-3.34-6.87,8.05-10.8,17.42-10.71,28.27.08,9.85,7,16.95,16.85,16.84,4.47-.05,9.22-.68,13.32-2.34,10.88-4.38,21.3-9.77,30.29-17.5,1.45-1.25,2.73-2.7,4.02-3.99-.65-7.4-4.93-12.76-8.32-18.8.51-3.24,1.04-6.63,1.64-10.46,3.82,1.61,4.57,5.37,7.08,8.07,5.46,2.9,10.47,1.27,15.8-2.83-.45-4.06-.69-8.36-1.43-12.57-4.44-25.18-8.98-50.35-13.51-75.51-.95-5.28-1.98-10.55-4.06-15.8,1.05-3.63,2.09-7.26,3.14-10.9.48,0,.95-.02,1.43-.03,3.54,9.17,10.08,17.14,11,28.09-1.78-.78-2.75-1.2-4.13-1.81,0,1.21-.16,2.24.03,3.2,1.47,7.66,3.24,15.27,4.49,22.96,2.61,16.04,5.39,32.06,7.27,48.19,1.33,11.42-.43,17.39-5.25,26.49-3.15,1.32-6.9,2.9-10.99,4.61-.22,1.61-.65,3.5-.69,5.39-.14,7.44-3.22,13.32-8.96,17.99-9.17,7.46-19.57,12.82-30.24,17.64-2.88,1.3-6.3,1.61-9.51,1.93-15.29,1.52-21.97-9.93-23.21-20.13-1.48-12.2,2.53-23.09,8.53-33.42.98-1.68,2.1-3.28,3.38-5.28-.91-1.7-1.91-3.55-3.04-5.66-9.08,3.65-16.26,9.92-23.46,15.97-11.12,9.36-21.66,19.39-32.72,28.82-8.41,7.17-17.07,14.08-25.96,20.65-5.58,4.12-11.9,6.97-18.88,8.34-13.21,2.59-19.12-4.81-21.43-13.59-2.62-10-1.18-19.8,2.23-29.39,1-2.81,2.08-5.59,2.31-9.04-3.9,3.26-7.91,6.39-11.66,9.81-5.61,5.12-10.9,10.6-16.58,15.64-3.06,2.71-6.44,5.21-10.04,7.12-9.15,4.87-14.91.76-18.31-6.1-3.42-6.89-4.84-14.29-2.93-22.08,1.68-6.87,5.04-12.88,8.75-18.76.68-1.08,1.49-2.08,2.06-2.87-2.59-3.54-4.97-6.79-7.99-10.91-2.72.44-6.29.96-9.84,1.6-18.12,3.25-36.2,6.77-54.37,9.72-19.67,3.2-39.37,6.21-59.14,8.66-16.77,2.08-33.65,3.25-50.48,4.79-1.73.16-3.47.11-5.2.2-14.95.76-29.89,1.65-44.84,2.25-9.52.39-19.05.4-28.58.5-18.22.2-36.45.78-54.66.39-20.79-.44-41.61-1.2-62.34-2.83-21.58-1.7-43.1-4.3-64.05-10.26-.81-.23-1.69-.2-3.25-.37-.25,4.35-.49,8.53-.73,12.76-8.61-1.63-13.51-8.28-14.98-20.04-5.43-2.45-11.09-2.48-16.83-.64-8.93,2.86-15.83,8.79-22.54,15-6.05,5.6-12.05,11.25-18.17,16.77-1.92,1.73-4.04,3.34-6.3,4.58-7.62,4.17-15.19,1.37-18.66-6.77-3.45-8.08-2.99-16.21.68-23.96,2.95-6.24,6.68-12.12,10.23-18.45-4.38-7.27-4.88-15.43-3.3-24.1,2.12-11.59,5.69-22.68,10.17-33.51.48-1.17,1.34-2.19,2.84-2.98-1.1,3.35-1.95,6.81-3.36,10.02-3.53,8.05-5.21,16.56-6.2,25.17-.69,6.11.19,12.08,5.32,16.24,6.59.1,6.05-5.39,7.75-9.42,2.65,10.2-2.31,19.89-10.97,21.47-5.59,7.39-10.85,15.25-12.24,25.07-.15,1.07-.42,2.15-.37,3.21.35,7.15,5.11,10.7,11.94,8.47,3.24-1.06,6.42-2.8,9.12-4.88,4.45-3.44,8.46-7.44,12.72-11.13,5.9-5.11,11.59-10.52,17.86-15.14,8.4-6.19,17.8-9.87,28.59-8.6,1.43.17,2.93-.2,4.91-.35,3.88,4.55,9.66,6.95,15.71,8.78,13.52,4.09,27.37,6.73,41.37,8.32,16.79,1.91,33.61,3.54,50.44,5.03,6.26.55,12.58.26,18.87.56,31.44,1.48,62.9,1.42,94.34.37,23.17-.77,46.34-1.95,69.47-3.53,17.71-1.21,35.42-2.85,53.02-5.16,17.38-2.28,34.63-5.58,51.92-8.51,18.58-3.15,37.13-6.4,55.71-9.56,1.43-.24,2.91-.21,4.86-.35ZM755.05,117.02c-15.98-5.94-49.5-7.11-59.24-2.24,7.29,6.13,14.69,12.34,22.32,18.76,11.98-5.36,24.37-10.9,36.92-16.51Z"/>
  <path d="M1461.21,148.92c-5.59,12.74-7.03,13.69-16.56,11.2-1.14-1.84-2.47-4-3.93-6.37-1.18,2.02-2.18,3.85-3.29,5.61-2.06,3.26-4.98,5.44-8.71,6.38-4.71,1.19-8.55-.57-10.85-4.9-.6-1.13-1.05-2.35-1.76-3.96-2.12.15-4.28.1-6.35.49-21.29,3.97-42.54,8.2-63.86,11.97-24.53,4.34-49.12,8.45-74.01,10.19-18.6,1.31-37.22,2.33-55.8,3.94-25.76,2.22-51.57,2.28-77.39,2.6-14.53.18-29.08,1.06-43.59.58-28.37-.95-56.8-1.82-84.84-6.95-9.57-1.75-19.11-3.74-28.67-5.58-.79-.15-1.64-.02-2.57-.02-1.52,4.23.63,8.89-2.07,13.02-9.3-3.96-13.89-10.87-14.31-20.78-7.13-2.46-13.77-2.01-20.38,1.04-7.42,3.43-13.4,8.72-19.24,14.25-5.83,5.52-11.68,11.02-17.65,16.38-2.08,1.86-4.42,3.57-6.9,4.83-7.09,3.6-13.98,1.25-17.51-5.86-3.79-7.64-3.66-15.5-.77-23.38.89-2.42,2.05-4.74,2.99-6.87-2.53-4.5-4.95-8.79-7.67-13.61-.39,1.31-.84,2.36-1.02,3.45-.71,4.4-2.55,8.3-5.34,11.71-8.45,10.37-22.01,5.84-25.86-2.98-1.53-3.51-2.75-7.42-2.91-11.2-.29-6.89.32-13.81.57-21.24-3.65,5.17-4.34,11.04-5.52,16.68-1.06,5.09-1.67,10.27-2.65,15.38-.88,4.62-2.92,8.6-7.12,11.37-4.43,1.19-7.65-1.22-9.89-4.47-2.29-3.33-4.18-7.1-5.43-10.95-3.3-10.2-3.33-19.18-.69-29.08,2.48,1.07,1.56,3.13,1.62,4.83.2,5.6-.2,11.31.78,16.77.98,5.48,2.85,11.06,9.33,13.35,4.23-.8,6.62-3.71,7.57-7.76,1.34-5.68,2.12-11.51,3.6-17.15,1.64-6.25,3.57-12.45,5.81-18.51,1.02-2.76,2.95-5.24,6.19-6.77,2.62,3.28,2.56,6.92,2.21,10.53-.36,3.67-.73,7.37-1.57,10.94-1.21,5.11-.27,10.01,1.19,14.75,1.54,5,4.7,8.91,10.47,9.37,5.7.45,9.44-2.75,12.02-7.38,3.56-6.4,3.48-13.36,2.25-20.31-.76-4.26-2.06-8.42-3.08-12.63-1.2-4.96-.78-7.47,2.41-13.59,1.03,2.04,1.93,3.63,2.64,5.29,3.79,8.88,5.06,18.36,6.45,27.8.82,5.57,2.98,10.43,7.35,14.09,5.28,4.41,11.55,4.13,16.59-1.25-2.77-6.36-5.81-13.01-8.57-19.77-2.7-6.61-5.11-13.35-7.88-20.66.54-2.51,1.21-5.61,2.18-10.06,5.18,6.32,8.75,12.11,12.27,18.39-.84,1.17-1.66,2.31-2.64,3.67,1.8,3.82,3.58,7.76,5.5,11.63,4.11,8.3,3.79,16.8,1.13,25.35-2.06,6.63-7.51,9.41-14.3,7.52-1.86-.52-3.65-1.32-5.68-2.07-2.52,4.94-4.31,10.01-4.49,15.48-.27,8.04,4.53,11.87,12.15,9.32,3.61-1.21,7.07-3.37,10.09-5.75,4.42-3.48,8.44-7.48,12.52-11.37,6.92-6.59,13.9-13.07,22.38-17.73,7.03-3.86,14.35-6.04,22.45-5.13,1.42.16,2.88-.13,5.16-.26,5.77,6.26,14.44,8.63,23.1,10.46,12.49,2.63,25.09,4.82,37.73,6.64,20.19,2.9,40.55,3.79,60.94,4.57,41.87,1.6,83.72,1.05,125.55-.83,20.55-.92,41.09-2.76,61.56-4.88,19.17-1.99,38.39-3.65,57.39-7.32,26.36-5.09,52.86-9.49,79.3-14.16,3.34-.59,6.71-.98,10.65-1.55-.16,2.65-.27,4.48-.38,6.21,5.15,4.3,12.68,2.98,16.84-2.88,1-1.41,1.63-3.07,2.6-4.5,1.03-1.51,2.26-2.89,3.86-4.91.38,1.49.67,2.05.63,2.59-.31,4.9.94,7.3,4.3,8.11,3.2.77,6.8-1.07,8.46-4.57.92-1.95,1.42-4.09,2.2-6.11.45-1.18,1.09-2.28,2.05-4.24,2.23,4.96,4.48,8.95,9.68,10.07,2.76.59,5.05.23,7.89-1.55-2.77-8.68-8.32-16-11.96-24.21-3.69-8.3-7.35-16.62-11.29-25.52.55-2.44,1.25-5.53,2.21-9.73,5.62,6.47,10.03,12.33,13.71,19.45-1.16,0-1.71.1-2.2-.03-.55-.14-1.05-.49-2.93-1.41,3.41,6.39,6.46,11.56,8.98,16.98,2.55,5.47,4.91,11.07,6.74,16.81,1.64,5.13.19,10.36-1.28,15.36-1.1,3.72-3.92,5.55-7.92,5.51-5.62-.06-10.03-2.42-12.96-8.17Z"/>
  <path d="M822.91,121.2c2.45,24.06,1.89,35.66-2.53,41.58-1.46-13.55-2.61-26.31-4.26-39.01-1.64-12.66-3.72-25.27-5.71-37.89-2.03-12.81-4.19-25.6-7.08-38.42.83-3,1.67-6.01,2.63-9.5,5.43,6.48,11.63,21.32,11.78,28.13-1.59-1.19-2.84-2.12-4.13-3.07,2.99,18.19,6,36.53,9.1,55.4,10.13-6.74,20.05-13.35,28.46-22.6-1.24-1.42-2.31-2.64-3.64-4.16,1.35-3.62-1.52-7.85,1.37-11.49,9.05,1.43,13.66,8.55,10.68,16.92-1.74-.29-3.56-.59-5.87-.97-7.45,11.36-19.33,17.88-30.79,25.07Z"/>
  <path d="M916.55,162.95c-1.85-20.36-5.31-39.02-9.4-57.6-4.04-18.35-7.44-36.84-12.17-55.22.91-3.26,1.81-6.51,3.06-10.97,5.36,8.58,8.64,16.78,12.46,24.68.5,1.04.27,2.44.46,4.58-1.99-1.47-3.27-2.41-4.95-3.65-.07,1.05-.3,1.82-.15,2.51,2.32,10.78,4.68,21.56,7.04,32.33,3.76,17.12,7.83,34.21,7.2,51.92-.11,2.99-.86,5.96-1.42,8.91-.09.49-.72.88-2.14,2.51Z"/>
  <path d="M669.53,166.68c-2.16-38.8-10.71-76.57-17.9-115.83.52-1.86,1.39-4.94,2.59-9.22,3.4,5.02,5.27,9.48,7.2,13.84,1.95,4.41,4.91,8.61,4.24,14.52-1.69-1.5-2.94-2.6-4.5-3.98.06,1.2,0,2.06.17,2.86,4.23,19.93,8.28,39.9,10.51,60.17,1.14,10.31,3.03,20.63.74,31.03-.5,2.29-1.03,4.58-1.54,6.87-.5-.09-1-.17-1.5-.26Z"/>
  <path d="M669.27,69.33c.18-4.31,4.05-4.98,6.81-6.63,2.95-1.77,6.05-3.29,8.92-4.84,2.83-12.1-5.46-18.59-12.26-25.75.28-.78.41-1.41.72-1.94.19-.34.64-.53,1.39-1.1,8.84,6.68,13.55,15.28,11.92,27.75,9.15-3.3,16.97-7.26,25.06-10.53,8.23-3.32,16.38-6.87,24.68-10,8.26-3.11,16.66-5.82,24.81-8.64,1.82,2.05,1.06,3.37-.38,4.14-1.5.81-3.24,1.19-4.88,1.73-27.19,8.96-53.43,20.23-79.14,32.78-2.3,1.12-4.59,2.28-6.9,3.39-.11.05-.36-.17-.75-.37Z"/>
  <path d="M613.24,35.5c.34,4.14-2.37,4.51-4.45,5.35-19.3,7.72-38.72,15.16-57.9,23.17-11.18,4.67-22.03,10.15-32.94,15.46-2.6,1.26-4.81,3.31-7.72,5.36,2.35,1.93,3.98,3.27,5.82,4.79v3.25c-3.21-.14-4.64-2.24-6.09-3.89-.8-7.38.07-9.59,6.51-12.77,11.25-5.57,22.57-11.06,34.09-16.05,19.48-8.42,38.85-17.14,59.12-23.61,1-.32,2.01-.6,3.57-1.06Z"/>
  <path d="M768.5,50.33c.99,2.83-.3,4.03-2.27,4.8-3.23,1.26-6.52,2.37-9.74,3.66-21.1,8.49-42.23,16.92-63.26,25.58-5.4,2.22-10.5,5.17-15.69,7.87-1.11.58-2.03,1.51-3.43,2.59,1.8,1.62,3.33,2.99,5.04,4.53-.19.95-.39,1.94-.79,3.92-2.38-1.76-4.18-3.08-5.45-4.02-1.64-5.89.57-9.22,5.05-11.29,12.78-5.91,25.45-12.09,38.43-17.55,15.37-6.46,31.01-12.29,46.55-18.35,1.74-.68,3.58-1.12,5.56-1.73Z"/>
  <path d="M865.99,59.62c8.28-3.93,15.68-7.45,23.21-11.03,1.68,2.63.3,3.8-1.56,4.73-4.26,2.15-8.57,4.18-12.8,6.4-14.02,7.34-28.03,14.68-41.98,22.16-2.81,1.5-5.3,3.59-8.51,5.8,2.21,1.92,3.91,3.4,5.8,5.04-.14.92-.29,1.92-.45,2.95q-5.41-1.27-7.24-7.05c.44-4.89,3.85-7.58,7.71-9.73,9.66-5.37,19.41-10.61,29.12-15.88,1.32-.72,2.68-1.37,4.04-2.07,1.79-6.45-.24-11.66-4.37-16.26-1.3-1.45-2.88-2.64-4.25-4.03-1.36-1.38-1.85-2.89,0-4.83,8.84,5.11,11.41,13.3,11.28,23.79Z"/>
  <path d="M46.03,78.34c4.88-5.13,11.09-5.49,16.16-10.3-6.01.5-10.68.89-15.92,1.33.22-3.6,2.32-6.41,4.41-9.45,6.73-2.85,13.73-2.44,20.77-1.83.21,12.66-6.56,18.27-25.42,20.25Z"/>
  <path d="M509.12,157.64c4.54,2.04,8.05,3.62,12.1,5.43-.82,3.32-1.63,6.58-2.49,10.04,3.24,1.65,6.3,3.21,9.99,5.09-.95,3.37-1.9,6.73-3,10.65-4.27-1.96-7.75-3.55-11.67-5.34.77-3.34,1.48-6.42,2.32-10.09-3.47-1.68-6.89-3.34-10.78-5.22,1.14-3.42,2.21-6.61,3.52-10.56Z"/>
  <path d="M932.42,80.86c-1.06-2.08-2.43-4.75-3.61-7.04-2.27-1.34-4.11-2.42-6.4-3.77.5-1.62.95-3.09,1.41-4.62,4.84.8,5.75,4.97,8.47,7.74,2.26-3.84.26-9.06,4.26-12.29,2.88.53,4.66,1.86,4.07,5.58-1.39-.18-2.72-.35-4.69-.61-.42,5-.84,9.84-1.19,14.02,2.23,2.5,4.33,4.63,6.12,7,.5.66.08,2.02.08,2.95-3.22,1.13-6.19,2.17-9.7,3.41,2.92,9.92,6.99,19.06,6.46,29.16-2.58-8.24-5.19-16.46-7.73-24.71-.31-1.01-.58-2.17-.4-3.18.8-4.33,1.78-8.64,2.85-13.64Z"/>
  <path d="M845.06,178.01c.46,3.18-1.51,4.07-3.52,4.98-14.21,6.41-28.42,12.84-42.63,19.25-2.35,1.06-4.72,2.07-8.21,3.59.88-2.15,1.16-3.51,1.93-4.51.61-.79,1.76-1.21,2.74-1.66,15.97-7.26,31.94-14.5,47.93-21.72.35-.16.84.02,1.77.07Z"/>
  <path d="M654.26,206.35c.11-1.62.18-2.62.29-4.25,16.79-7.21,33.62-14.45,51.56-22.15-.59,2.13-.55,3.52-1.22,4.11-1.26,1.11-2.87,1.88-4.44,2.57-13.86,6.09-27.73,12.13-41.62,18.16-1.31.57-2.71.94-4.58,1.57Z"/>
  <path d="M493.66,175.78c.09,3.52-2.17,4.14-4.09,5.01-11.38,5.2-22.76,10.41-34.18,15.54-4.11,1.85-8.32,3.48-13.73,5.73.93-2.19,1.19-3.56,1.99-4.43.83-.9,2.15-1.41,3.33-1.92,14.81-6.53,29.64-13.04,44.47-19.53.54-.24,1.19-.22,2.23-.4Z"/>
  <path d="M1440.74,184.22c1.15-1.8,2.38-3.72,3.54-5.52.96.72,1.92,1.44,3.3,2.48.59-1.78.99-3,1.43-4.35.6.38,1.18.57,1.18.78.07,1.91.04,3.82.04,6.17-2.12.46-3.94.85-6.33,1.37-.99.85-2.43,2.09-3.66,3.14-1.01,0-1.78.24-2.28-.04-4.49-2.46-8.47-.92-12.08,1.75-3.65,2.69-7.11,5.66-10.51,8.68-5.27,4.69-11.4,7.4-18.51,8.9.3-.57.34-.83.48-.91,9.72-5.35,18.16-12.42,26.79-19.3,6.36-5.07,8.59-5.19,16.58-3.14Z"/>
  <path d="M74.89,190.95c-.53-4.62,2.46-5.15,4.75-6.01,11.92-4.51,23.88-8.91,35.85-13.3,2.13-.78,4.34-1.35,6.65-2.06.98,3.7-1.18,4.25-3.22,5-10.15,3.69-20.29,7.4-30.42,11.15-4.41,1.63-8.77,3.37-13.61,5.24Z"/>
  <path d="M948.8,208.9v-3.86c15.36-6.58,31.22-11.9,46.79-17.78.45.84.87,1.24.8,1.55-.18.82-.56,1.59-.96,2.64-15.4,5.77-30.86,11.55-46.63,17.46Z"/>
  <path d="M1447.7,205.35c-.11-1.3-.18-2.1-.28-3.34,15.73-7.12,31.26-14.59,47.82-20.29,1.11,3.4-1.16,4.08-3.07,4.85-4.62,1.85-9.35,3.45-13.91,5.43-8.55,3.7-17.02,7.6-25.53,11.39-1.51.67-3.08,1.21-5.04,1.96Z"/>
  <path d="M21.77,152.96c6.11-3.35,11.23-6.09,16.28-8.95,2.63-1.5,5.45-2.89,7.62-4.93,2.45-2.3,4.5-5.14,6.3-8.01,1.36-2.16,1.84-4.91,5.6-5.86,1.3,1.78,2.75,3.77,4.21,5.78-.72,1.51-1.26,2.63-1.94,4.05-2.29-.32-4.38-.62-6.9-.98-3.13,8.42-11.13,11.86-18.36,16.05-3.48,2.02-7.43,3.18-12.82,2.84Z"/>
  <path d="M733.96,183.03c-1.85-5.6,1.57-9.62,5.86-14.76-2.59.71-3.6.86-4.48,1.28-.84.4-1.53,1.09-2.7,1.95,1.52-7.01,3.82-8.41,10.56-6.85.86,6.42-5.59,9.13-7.73,14.68,8.7,2.14,13.77-3.63,19.5-8.15-1.09,8.43-12.98,15.04-21,11.87Z"/>
  <path d="M618.78,183.13c1.64-3.99,2.91-7.1,4.34-10.58,4.19,2.01,7.82,3.75,11.54,5.54.31,4.17-1.8,7.18-3.3,11.25-4.29-2.12-8.05-3.98-12.58-6.21Z"/>
  <path d="M1473.78,181.68c-3.42-1.83-6.75-3.61-10.57-5.66,1.25-3.48,2.37-6.6,3.78-10.53,3.98,2,7.31,3.67,10.89,5.46-.26,4.05-.82,7.67-4.11,10.72Z"/>
  <path d="M61.95,173.48c1.48,7.97,5.34,14.57,3.99,22.22-1.81-6.07-3.64-12.13-5.4-18.2-.24-.81-.43-1.8-.19-2.56,1.31-4.2,2.76-8.36,4.14-12.46,6.49,1.63,7.57,2.96,7.13,8.23-2.98.86-6.03,1.73-9.66,2.78Z"/>
  <path d="M935.45,191.89c1.89,8.09,4.97,14.78,4.16,22.34-1.81-6.34-4.1-12.6-5.27-19.05-.94-5.17,1.86-9.82,3.84-14.38,6.5,1.62,7.51,2.78,7.25,8.03-3.13.96-6.32,1.94-9.99,3.06Z"/>
  <path d="M835.88,51.82c.7-3.92,1.44-8.01,2.13-11.86,5.68-.65,5.86-.49,5.92,4.94-1.41-.38-2.75-.74-4.26-1.15-3.46,5.03-.07,10.81-2.26,16.15-3.49-1.65-3.58-5.83-6.23-7.86-2.06-1.12-4.11-2.24-6.51-3.55.34-1.67.66-3.23,1-4.87,1.08.05,1.93-.17,2.26.15,2.73,2.65,5.36,5.4,7.95,8.04Z"/>
  <path d="M583.71,80.09c-1.58-.45-2.9-.83-4.36-1.24-2.95,5.37.71,11.21-1.71,17.39-2.37-3.28-4.3-5.96-6.1-8.46-2.49-1.3-4.74-2.47-7.3-3.81.46-1.65.84-2.98,1.34-4.76,5.96,1.52,7.57,7.08,11.55,10.71-.68-5.81-1.99-11.47,3.04-16.12,2.49,1.39,4.48,2.71,3.54,6.29Z"/>
  <path d="M730.73,75.08q4.65.36,5.5,5.58c-1.68-.59-3.12-1.09-4.75-1.66-3.43,5.03-.24,10.74-2.06,16.83-2.14-3.19-3.85-5.72-5.35-7.94-2.57-1.31-4.8-2.45-7.42-3.79.59-2.01,1.04-3.52,1.54-5.22,5.31,1.46,7.16,5.79,9.95,9.91.74-5.07-.86-9.92,2.58-13.71Z"/>
  <path d="M545.49,46.02c2.62-4.23.46-9.21,3.73-12.58q4.36.98,4.53,5.37c-1.41-.47-2.7-.9-4.27-1.43-2.35,5.37.12,10.91-1.6,17.12-2.55-3.26-4.66-5.96-6.57-8.41-2.23-1.06-4.12-1.97-6.29-3,.28-1.64.5-3,.77-4.59,5.14.33,6.63,4.83,9.7,7.53Z"/>
  <path d="M1428.51,80.95c-3.62-4.22-6.65-8.18-12.87-8.71.2-2.01.37-3.72.51-5.07,2.74-1,5.26.85,10.93,7.24.88-5.01-2.24-10.54,2.17-14.95,3.15.13,5.05,1.17,4.46,5.06-1.52-.22-2.86-.42-4.41-.65-1.79,5.66.49,11.43-.79,17.07Z"/>
  <path d="M857.13,203.28c-1.79-2.9-3.14-5.09-4.53-7.36-2.15-1.25-4.33-2.51-6.89-3.99.78-1.82,1.38-3.25,2.08-4.88,4.44,1.58,6.01,5.41,9.01,8.76,1.07-4.58-.75-9.6,3.63-12.76,3.14.91,4.98,2.36,3.57,6.24-1.31-.56-2.4-1.03-3.67-1.57-3.53,4.39.12,10.21-3.18,15.57Z"/>
  <path d="M61.69,101.54c-1.69-.69-2.82-1.15-4.26-1.73-1.91,2.64-.9,5.5-1.13,8.15-.23,2.68.71,5.51-1.2,8.88-2.18-3.22-4.03-5.96-5.78-8.55-2.44-1.13-4.71-2.18-7.24-3.36.6-1.9,1.02-3.24,1.45-4.62,5.99.56,7.16,6.12,10.81,9.34,1.54-4.56-.88-9.67,2.57-13.54q4.05.49,4.78,5.44Z"/>
  <path d="M688.43,193.07c3.49,2.78,5.57,4.45,7.46,5.95-1.08,5.73-6.68,3-9.14,6.3-.1,5.56,4.04,11.05,2.18,17.5-1.43-4.89-2.74-9.5-4.13-14.09-1.67-5.51,1.09-9.72,3.63-15.66Z"/>
  <path d="M519.43,116.28c1.3-4.87-1.06-10.06,3.07-14.07,2.9.3,4.81,1.32,4.52,5.21-1.82-.27-3.32-.49-5.7-.84v16.11l-1.19.3c-2.01-2.68-4.01-5.36-5.91-7.89-1.97-.88-3.73-1.66-5.76-2.57v-4.99c5.85.27,7.19,5.46,10.96,8.73Z"/>
  <path d="M643.47,167.98c-2.3-1.32-4.15-2.38-6.26-3.6.23-1.49.44-2.86.71-4.66,5.07,1.5,6.66,5.72,9.46,9.68.81-5.29-1.06-10.86,3.48-14.58,3.21.46,3.96,2.52,3.9,5.57-1.4-.25-2.73-.48-4.21-.74-3.28,4.74-.21,10.33-2.57,15.97-1.71-2.9-3.06-5.19-4.5-7.64Z"/>
  <path d="M553.89,173.34c9.22,4.85,15.77-1.57,23.4-4.62-4.44,7.73-13.86,11.62-22.56,9.39-.23-1.3-.5-2.84-.84-4.77Z"/>
  <path d="M881.5,73.34c.92.39,1.07,1.06,1.25,1.67.33,1.1.54,2.25.91,3.34.48,1.43,1.02,2.85,1.63,4.23.25.57.73,1.06,1.18,1.52.49.51,1.15.55,1.82.41.78-.17,1.23-.9.89-1.64-.45-.98-.96-1.94-1.56-2.84-.55-.83-.84-1.7-.64-2.66.28-1.34.65-2.66,1.01-3.97.05-.18.27-.32.51-.58.28.16.67.26.84.5,2.39,3.45,4.18,7.09,3.45,11.5-.31,1.88-.94,3.62-1.91,5.25-.15.25-.34.47-.53.69-1.44,1.6-2.89,1.71-4.52.26-.69-.61-1.26-1.35-2-2.15-.22.34-.44.54-.48.77-.09.64-.09,1.29-.15,1.94-.1,1.11-.55,2.09-1.21,2.97-1.1,1.45-3.03,1.86-4.66,1.04-1.14-.58-1.94-1.49-2.53-2.59-.77-1.42-1.13-2.98-1.24-4.56-.21-2.82.11-5.62.48-8.41.05-.38.26-.74.56-1.55.44,1.46.55,2.51.73,3.54.17.99.28,2,.49,2.99.15.7.33,1.41.62,2.07,1.28,2.85,3.41,2.49,5.33,1.29.51-.32.8-.85.78-1.47-.02-.64-.04-1.31-.21-1.92-.4-1.38-.83-2.77-1.38-4.1-.55-1.32-.71-2.64-.52-4.02.12-.93.31-1.85.52-2.76.06-.24.31-.44.54-.74Z"/>
  <path d="M758.5,69.53c.92.39,1.07,1.06,1.25,1.67.33,1.1.54,2.25.91,3.34.48,1.43,1.02,2.85,1.63,4.23.25.57.73,1.06,1.18,1.52.49.51,1.15.55,1.82.41.78-.17,1.23-.9.89-1.64-.45-.98-.96-1.94-1.56-2.84-.55-.83-.84-1.7-.64-2.66.28-1.34.65-2.66,1.01-3.97.05-.18.27-.32.51-.58.28.16.67.26.84.5,2.39,3.45,4.18,7.09,3.45,11.5-.31,1.88-.94,3.62-1.91,5.25-.15.25-.34.47-.53.69-1.44,1.6-2.89,1.71-4.52.26-.69-.61-1.26-1.35-2-2.15-.22.34-.44.54-.48.77-.09.64-.09,1.29-.15,1.94-.1,1.11-.55,2.09-1.21,2.97-1.1,1.45-3.03,1.86-4.66,1.04-1.14-.58-1.94-1.49-2.54-2.59-.77-1.42-1.13-2.98-1.24-4.56-.21-2.82.11-5.62.48-8.41.05-.38.26-.74.56-1.55.44,1.46.55,2.51.73,3.54.17.99.28,2,.49,2.99.15.7.33,1.41.62,2.07,1.28,2.85,3.41,2.49,5.33,1.29.51-.32.8-.85.78-1.47-.02-.64-.04-1.31-.21-1.92-.4-1.38-.83-2.77-1.38-4.1-.55-1.32-.71-2.64-.52-4.02.12-.93.31-1.85.52-2.76.06-.24.31-.44.54-.74Z"/>
  <path d="M605.78,64.71c.92.39,1.07,1.06,1.25,1.67.33,1.1.54,2.25.91,3.34.48,1.43,1.02,2.85,1.63,4.23.25.57.73,1.06,1.18,1.52.49.51,1.15.55,1.82.41.78-.17,1.23-.9.89-1.64-.45-.98-.96-1.94-1.56-2.84-.55-.83-.84-1.7-.64-2.66.28-1.34.65-2.66,1.01-3.97.05-.18.27-.32.51-.58.28.16.67.26.84.5,2.39,3.45,4.18,7.09,3.45,11.5-.31,1.88-.94,3.62-1.91,5.25-.15.25-.34.47-.53.68-1.44,1.6-2.89,1.71-4.52.26-.69-.61-1.26-1.35-2-2.15-.22.34-.44.54-.48.77-.09.64-.09,1.29-.15,1.94-.1,1.11-.55,2.09-1.21,2.97-1.1,1.45-3.03,1.86-4.66,1.04-1.14-.58-1.94-1.49-2.54-2.59-.77-1.42-1.13-2.98-1.24-4.56-.21-2.82.11-5.62.48-8.41.05-.38.26-.74.56-1.55.44,1.46.55,2.51.73,3.54.17.99.28,2,.49,2.99.15.7.33,1.41.62,2.07,1.28,2.85,3.41,2.49,5.33,1.29.51-.32.8-.85.78-1.47-.02-.64-.04-1.31-.21-1.92-.4-1.38-.83-2.77-1.38-4.1-.55-1.31-.71-2.64-.52-4.02.12-.93.31-1.85.52-2.76.05-.24.31-.44.54-.74Z"/>
  <path d="M893.45,20.28c1.1,2.71,2.2,5.41,3.29,8.11,1.83,4.53,4.42,4.96,7.65,1.27,1.58-1.8,3.08-3.67,4.78-5.34,2.35-2.3,5.7-3.16,7.42-.37,1.01,1.63.1,5.96-1.47,7.33-2.6,2.28-6.4,3.23-9.76,4.61-1.67.68-3.46,1.05-3.65.84-1.94-1.34-3.89-2.69-6.09-4.21-2.4,4.45-4.71,7.5-9.72,4.54-.73-.43-2.36.69-3.85,1.18,1.08-3.54,1.8-7.02,6.94-4.33.95.5,3.38.04,3.76-.69.79-1.52,1.06-3.57.81-5.3-.34-2.39-1.35-4.68-2.07-7.01.65-.22,1.29-.43,1.94-.64ZM915.23,28.47c-5.31-3.58-7.23.05-9.11,3.87,3.04-1.29,6.07-2.58,9.11-3.87Z"/>
  <path d="M788.2,9.37c1.1,2.71,2.2,5.41,3.29,8.11,1.83,4.53,4.42,4.96,7.65,1.27,1.58-1.8,3.08-3.67,4.78-5.34,2.35-2.3,5.7-3.16,7.42-.37,1.01,1.63.1,5.96-1.47,7.33-2.6,2.28-6.4,3.23-9.76,4.61-1.67.68-3.46,1.05-3.65.84-1.94-1.34-3.89-2.69-6.09-4.21-2.4,4.45-4.71,7.5-9.72,4.54-.73-.43-2.36.69-3.85,1.18,1.08-3.54,1.8-7.02,6.94-4.33.95.5,3.38.04,3.77-.69.79-1.52,1.06-3.57.81-5.3-.34-2.39-1.35-4.68-2.07-7.01.65-.22,1.29-.43,1.94-.65ZM809.98,17.56c-5.31-3.58-7.23.05-9.11,3.87,3.04-1.29,6.07-2.58,9.11-3.87Z"/>
  <path d="M635.89,19.51c1.1,2.71,2.2,5.41,3.29,8.11,1.83,4.53,4.42,4.96,7.65,1.27,1.58-1.8,3.08-3.67,4.78-5.34,2.35-2.3,5.7-3.16,7.42-.37,1.01,1.63.1,5.96-1.47,7.33-2.6,2.28-6.4,3.23-9.76,4.61-1.67.68-3.46,1.05-3.65.84-1.94-1.34-3.89-2.69-6.09-4.21-2.4,4.45-4.71,7.5-9.72,4.54-.73-.43-2.36.69-3.85,1.18,1.08-3.54,1.8-7.02,6.94-4.33.95.5,3.38.04,3.77-.69.79-1.52,1.06-3.57.81-5.3-.34-2.39-1.35-4.68-2.07-7.01.65-.21,1.29-.43,1.94-.64ZM657.66,27.7c-5.31-3.58-7.23.05-9.11,3.87,3.04-1.29,6.07-2.58,9.11-3.87Z"/>
  <path d="M538.49,91.25c-.15.88-.28,1.77-.47,2.64-.21.96-.48,1.91-.7,2.87-.3,1.3-.33,2.64.97,3.36,1.35.76,2.76.38,4.03-.44.8-.51.68-1.09-.05-1.52-.9-.52-1.82-1.04-2.79-1.36-1.35-.44-1.12-1.43-.74-2.22.16-.34,1.21-.55,1.72-.4,2.97.92,4.1,2.73,3.7,5.48-.24,1.65-1.15,2.66-2.66,3.22-3,1.1-5.22-.15-5.14-3.32.07-2.82.84-5.62,1.29-8.43.29.04.57.08.86.12Z"/>
  <path d="M1430.55,96.46c-.28,1.61-.52,3.24-.86,4.84-.38,1.76-.88,3.49-1.29,5.25-.54,2.37-.6,4.83,1.77,6.15,2.48,1.39,5.06.69,7.38-.81,1.46-.94,1.25-2-.09-2.77-1.64-.95-3.33-1.9-5.11-2.48-2.47-.81-2.05-2.63-1.36-4.07.3-.63,2.21-1.01,3.14-.72,5.43,1.69,7.49,5,6.77,10.02-.44,3.03-2.1,4.87-4.87,5.89-5.48,2.01-9.56-.28-9.41-6.07.13-5.16,1.53-10.29,2.37-15.43.52.07,1.05.14,1.57.21Z"/>
  <path d="M707.29,25.68c-.12.7-.23,1.4-.37,2.1-.16.76-.38,1.52-.56,2.28-.24,1.03-.26,2.09.77,2.67,1.07.6,2.19.3,3.2-.35.63-.41.54-.87-.04-1.2-.71-.41-1.44-.82-2.22-1.08-1.07-.35-.89-1.14-.59-1.77.13-.27.96-.44,1.36-.31,2.36.73,3.25,2.17,2.93,4.35-.19,1.31-.91,2.11-2.11,2.55-2.38.87-4.15-.12-4.08-2.63.06-2.24.66-4.46,1.03-6.69.23.03.46.06.68.09Z"/>
</svg>