<svg width="20" height="10" viewBox="0 0 20 10" fill="none" xmlns="http://www.w3.org/2000/svg">
<path fill-rule="evenodd" clip-rule="evenodd" d="M20 2.08443C19.9469 2.0603 19.8938 2.02171 19.8504 1.96863C19.7636 1.87695 19.6864 1.78528 19.6092 1.68878L19.5175 1.91073C19.5175 2.25814 19.5416 2.6345 19.585 3.04463C19.6622 3.69119 19.7443 4.33774 19.8263 4.97948V5.74185C19.8263 6.21954 19.807 6.62966 19.7684 6.96742C19.7298 7.30517 19.6429 7.64294 19.5127 7.97587C19.5368 7.85042 19.5513 7.68636 19.5609 7.48371C19.5706 7.28105 19.5706 7.16525 19.5706 7.14113C19.5706 6.924 19.5706 6.70687 19.5609 6.49457C19.5513 6.27744 19.5464 6.06031 19.5368 5.84801L19.0398 1.00844C18.9771 0.931241 18.9481 0.863678 18.9481 0.800952C18.9481 0.7141 19.006 0.583834 19.1218 0.405306C19.1894 0.303979 19.2328 0.226772 19.2473 0.173696C19.3872 0.482502 19.5271 0.78648 19.6767 1.09046C19.8408 1.46199 19.9469 1.79492 20 2.08443ZM16.608 0C16.2895 0.241255 15.8649 0.477679 15.3245 0.718934C14.5235 1.07599 14.0603 1.28346 13.9445 1.34619C13.9976 1.24486 14.0458 1.17249 14.0844 1.12424C14.152 1.03739 14.2292 0.979494 14.3064 0.950543C15.0688 0.632087 15.8408 0.318456 16.6128 0H16.608ZM15.5754 2.34982C15.4837 2.42702 15.4017 2.44632 15.3341 2.40772L15.2425 2.31604C15.1749 2.44631 15.0784 2.53799 14.9626 2.58141C14.8372 2.55246 14.7696 2.49457 14.76 2.40772C14.7503 2.32086 14.7407 2.234 14.7407 2.14233C14.7407 1.93485 14.7841 1.76115 14.8661 1.62122C14.8902 1.65982 14.8999 1.70808 14.8999 1.76116C14.8999 1.79976 14.8902 1.86248 14.8758 1.94451C14.8613 2.03136 14.8516 2.08926 14.8516 2.11821C14.8516 2.24366 14.9192 2.29191 15.0591 2.26778C15.1363 2.20506 15.1749 2.09891 15.1749 1.94451C15.1749 1.87696 15.1749 1.79976 15.1797 1.71773C15.1797 1.6357 15.2087 1.57779 15.2569 1.53919C15.2811 1.58744 15.2907 1.64053 15.2907 1.70326C15.2811 1.81906 15.2811 1.90108 15.2811 1.94451C15.2811 2.08444 15.3486 2.14715 15.4789 2.12785C15.503 2.08925 15.503 2.02171 15.4789 1.93004C15.4548 1.83836 15.4451 1.77081 15.4451 1.73221C15.4451 1.66465 15.4644 1.60676 15.503 1.56815C15.5802 1.69361 15.6188 1.848 15.6188 2.041C15.6188 2.17128 15.6043 2.27261 15.5706 2.34016L15.5754 2.34982ZM16.4101 3.13631L16.3426 3.3679C16.2654 3.3293 16.2075 3.31 16.1689 3.31C16.1013 3.31 16.0579 3.37273 16.0483 3.50301C16.0386 3.62846 16.0289 3.75391 16.0241 3.86972C16.0241 3.98552 15.9952 4.0965 15.9469 4.20748C15.8697 4.17853 15.807 4.12062 15.7636 4.03377C15.696 3.88902 15.6236 3.73944 15.5561 3.59468C15.4403 3.62363 15.3679 3.62363 15.3341 3.59468C15.2859 3.54643 15.2666 3.48854 15.2666 3.42099C15.2666 3.38239 15.2762 3.33414 15.2955 3.27141C15.3148 3.20868 15.3293 3.16525 15.3341 3.14595C15.3969 3.08323 15.4451 3.07357 15.4837 3.11217C15.5127 3.15077 15.5706 3.24728 15.6526 3.40168C15.7346 3.55609 15.8166 3.71048 15.9035 3.86489C15.9276 3.68153 15.9566 3.51748 15.9952 3.38238C16.0338 3.24728 16.1013 3.13148 16.193 3.03016C16.2413 3.02051 16.3136 3.0591 16.415 3.14595L16.4101 3.13631ZM11.2811 2.04583L11.2569 2.06995C11.3583 1.848 11.4065 1.60675 11.4065 1.35102C11.4065 1.01809 11.3197 0.752706 11.1411 0.550053L11.2811 0.294323C11.4644 0.487327 11.5609 0.733411 11.5609 1.03739C11.5609 1.20144 11.5368 1.36549 11.4837 1.52955C11.4355 1.6936 11.3679 1.86731 11.2811 2.04583ZM18.0555 6.42219C18.0555 5.6743 17.9397 4.66103 17.7081 3.38721C17.5392 2.47044 17.4331 1.87212 17.3945 1.60192L17.4765 1.41856L17.848 1.85765C17.848 1.58744 17.7708 1.29794 17.6164 0.989138C17.491 0.743058 17.3172 0.482495 17.0953 0.21229C17.0181 0.342568 16.9409 0.472849 16.8637 0.593477C16.8251 0.670678 16.8058 0.747885 16.8058 0.825086C16.8058 0.887812 16.8299 0.95054 16.8733 1.02292C17.0133 1.73221 17.1242 2.34498 17.2111 2.86609C17.2642 3.18455 17.3559 3.80217 17.491 4.71894C17.5537 5.12907 17.6405 5.74668 17.7563 6.57177C17.4958 6.67792 17.2642 6.75995 17.0712 6.81302C17.0036 6.8275 16.6128 6.90469 15.9035 7.04462C16.1062 6.91434 16.275 6.71651 16.415 6.45596C16.5066 6.28708 16.6031 6.05065 16.7045 5.7515C16.7045 5.56815 16.6031 5.39927 16.4053 5.25452C16.3136 5.19179 16.1399 5.10493 15.889 4.99396C15.6381 4.88298 15.3776 4.82509 15.1074 4.82509C14.7117 4.82509 14.3064 4.95054 13.8914 5.19662C13.5971 5.37514 13.2593 5.64535 12.8733 6.00723C12.9361 5.78527 12.9795 5.56333 12.9988 5.35102C13.0229 5.13872 13.0326 4.91676 13.0326 4.68516C13.0326 4.39083 13.0133 4.07238 12.9747 3.72497C12.8589 2.96743 12.7431 2.20989 12.6273 1.4427L12.7189 1.29312C12.8203 1.45717 12.9361 1.59227 13.0663 1.70807C13.0663 1.50059 13.0181 1.27382 12.9168 1.02292C12.7479 0.68516 12.579 0.342571 12.4198 0.00481508C12.3329 0.135093 12.2557 0.265373 12.1785 0.400476C12.1303 0.487328 12.111 0.564534 12.111 0.632086C12.111 0.699637 12.1303 0.757531 12.1689 0.805782C12.1689 1.27864 12.2992 2.38359 12.5645 4.13028C12.6803 4.90229 12.7382 5.57779 12.7382 6.15681C12.6755 6.20506 12.497 6.41736 12.193 6.80337C11.9759 7.08322 11.7732 7.21833 11.5802 7.21833C11.5513 7.21833 11.4934 7.20867 11.4162 7.1942C11.2232 7.08804 11.0784 6.93366 10.9867 6.74065C10.9385 6.64897 10.8565 6.33052 10.731 5.79011L10.3739 1.48129C10.3739 1.23521 10.3546 1.00361 10.316 0.786477C10.2774 0.569348 10.2195 0.318445 10.1423 0.0337644C10.0555 0.139916 10.0072 0.217128 9.99276 0.255729C9.97829 0.29433 9.93004 0.472846 9.85283 0.786477C9.96864 1.36549 10.0748 2.12303 10.1665 3.05428C10.234 3.82629 10.3112 4.59348 10.3884 5.36067C10.4946 6.22436 10.6393 6.96743 10.8179 7.58504C10.8661 7.70084 10.9385 7.79252 11.0446 7.85525C11.1508 7.9228 11.3148 7.99999 11.5368 8.09167C11.8456 8.09167 12.2992 8.03376 12.9023 7.91796C13.5054 7.80216 13.9542 7.74426 14.2581 7.74426C14.3595 7.74426 14.4608 7.74426 14.5573 7.75391C14.6586 7.76356 14.7648 7.77322 14.8806 7.79252C14.9964 7.81182 15.1218 7.82147 15.2618 7.82147C16.0338 7.66706 16.8106 7.51267 17.5875 7.35826C17.7274 7.27141 17.8287 7.13148 17.9011 6.92882C17.9397 6.82267 17.9928 6.64897 18.0651 6.40772L18.0555 6.42219ZM11.9662 4.56936C11.9373 4.68516 11.9083 4.80095 11.8842 4.91675C11.8359 5.04703 11.7587 5.10012 11.6526 5.08082C11.5513 4.97467 11.503 4.83956 11.503 4.68516C11.503 4.55488 11.5416 4.4053 11.614 4.24607C11.6864 4.08202 11.7587 3.92762 11.8263 3.78287C11.8263 3.86007 11.7877 3.98552 11.7153 4.15923C11.6429 4.33293 11.6043 4.45355 11.6043 4.52592C11.6043 4.58865 11.614 4.64173 11.6333 4.68033C11.6526 4.72375 11.696 4.77201 11.7684 4.82509C11.8166 4.81544 11.8456 4.77201 11.8601 4.68999C11.8745 4.60796 11.9083 4.56936 11.9662 4.56936ZM9.10495 0.656205C9.11942 0.685156 9.12425 0.728582 9.10977 0.776832C9.10012 0.825083 9.09047 0.873328 9.08082 0.921579C9.04222 0.911929 8.98432 0.892641 8.91194 0.858865C8.83957 0.82509 8.78166 0.805782 8.74306 0.805782C8.68034 0.921584 8.63691 1.11941 8.61761 1.39444C8.59831 1.66947 8.55488 1.87695 8.50181 2.00722C8.43908 1.95897 8.36188 1.80941 8.26538 1.55368C8.16888 1.29795 8.02895 1.17249 7.84077 1.17249C7.7877 1.13389 7.75875 1.08082 7.75875 1.00844C7.75875 0.955366 7.7684 0.902292 7.79252 0.844391C7.81665 0.791315 7.84077 0.738226 7.86007 0.680325C8.01448 0.743051 8.13993 0.873332 8.24126 1.07599C8.34258 1.31724 8.41978 1.49095 8.47286 1.5971C8.52111 1.34137 8.55489 1.12425 8.58384 0.950543C8.61279 0.772015 8.68034 0.627261 8.78649 0.511458C8.83957 0.501808 8.89747 0.521097 8.96019 0.559698C9.02292 0.598298 9.06635 0.62725 9.10012 0.651375L9.10495 0.656205ZM8.08685 3.34378C8.1351 3.56091 8.06755 3.73944 7.88902 3.87455C7.83595 3.87455 7.79735 3.86007 7.77322 3.82629C7.73462 3.72497 7.70567 3.65742 7.69119 3.61882C7.69119 3.45476 7.70567 3.29554 7.73945 3.13631C7.7684 2.97708 7.82147 2.8275 7.88902 2.67792C7.88902 2.74065 7.87455 2.84197 7.84077 2.97707C7.81182 3.117 7.79252 3.21832 7.79252 3.2907C7.79252 3.43063 7.84077 3.53197 7.93245 3.60434L8.08203 3.33895L8.08685 3.34378ZM6.18577 1.34137C6.11822 1.48613 6.06031 1.60192 6.01206 1.67912C5.93486 1.80457 5.85283 1.90108 5.77081 1.96863L5.15802 1.66948C5.10977 1.71773 5.05187 1.79493 4.98432 1.91073C4.86852 2.11339 4.74789 2.19541 4.62726 2.16646C4.52111 2.11821 4.44873 2.08926 4.41978 2.07478C4.30398 2.02171 4.20748 1.9638 4.13028 1.90107C4.193 1.77079 4.25573 1.64053 4.31363 1.50543C4.40531 1.35102 4.51146 1.27382 4.62726 1.27382L5.20627 1.53919L5.67913 1.02773L6.19059 1.34137H6.18577ZM3.20868 0.588662C3.19903 0.665863 3.18938 0.728586 3.17491 0.781662C3.16043 0.829913 3.12183 0.839553 3.05911 0.800952C2.99638 0.752701 2.94813 0.733403 2.90953 0.743053C2.82268 0.849205 2.77443 1.04704 2.76478 1.3269C2.75513 1.60676 2.72135 1.80458 2.66827 1.91073C2.60072 1.86248 2.50422 1.70808 2.38842 1.44753C2.30157 1.24487 2.16647 1.15319 1.98311 1.16766C1.92039 1.11459 1.89144 1.04703 1.89144 0.969833C1.89144 0.921582 1.91074 0.854034 1.94934 0.762358C1.98794 0.670681 2.00724 0.617606 2.00724 0.612781C2.16164 0.680332 2.28709 0.820253 2.38842 1.02773C2.52835 1.32206 2.61037 1.48129 2.64415 1.51507C2.66828 1.33172 2.6924 1.13871 2.72618 0.936054C2.75513 0.7334 2.8275 0.583836 2.93366 0.482509C3.06393 0.468034 3.15561 0.50181 3.21351 0.588662H3.20868ZM10.0651 8.14957C9.93969 8.2895 9.78528 8.41978 9.59228 8.54523C9.45235 8.63208 9.269 8.72858 9.03739 8.84438C8.83474 8.93124 8.63209 9.01808 8.42461 9.10976C8.21713 9.20143 8.0386 9.29312 7.89385 9.38962L8.0193 9.09047C8.32811 8.96019 8.66104 8.81061 9.02292 8.64655C9.37998 8.4825 9.73221 8.31845 10.07 8.1544L10.0651 8.14957ZM9.55368 5.25452C9.5392 5.08564 9.46683 4.91194 9.33173 4.73341C9.2304 4.59348 9.09047 4.44873 8.90229 4.29433C8.83957 4.36188 8.77684 4.47285 8.71894 4.6176C8.63209 4.82025 8.58866 4.93124 8.57901 4.95536L9.15802 6.84197C8.78166 7.14113 8.37153 7.43063 7.93245 7.70084C7.53197 7.94692 7.10736 8.18334 6.66345 8.41494C6.21954 8.64172 5.77081 8.85886 5.31242 9.05669C5.01809 9.18697 4.58384 9.37514 4.00483 9.62605C4.24608 9.53437 4.57901 9.45718 5.01327 9.39445C5.85283 9.27865 6.40772 9.15319 6.66828 9.02291C7.00603 8.85403 7.35344 8.68034 7.70084 8.50181C7.9228 8.386 8.12545 8.2702 8.30398 8.1544C8.58866 7.97587 8.82992 7.7877 9.02292 7.58504C9.24487 7.35344 9.41375 7.09288 9.5199 6.8082C9.5585 6.72134 9.5778 6.62002 9.5778 6.49457C9.5778 6.36429 9.52955 6.16647 9.43305 5.91074C9.33655 5.65018 9.2883 5.462 9.2883 5.33655C9.2883 5.3076 9.29795 5.2497 9.31242 5.1725C9.41375 5.27382 9.49578 5.29794 9.55368 5.25452ZM3.13631 2.34982C3.15078 2.51869 3.02051 2.62001 2.74065 2.64414C2.4608 2.67309 2.29674 2.7503 2.24367 2.88058C2.27262 3.06393 2.31122 3.25693 2.35947 3.44994C2.51387 4.08202 2.5959 4.41495 2.60072 4.4439C2.64897 4.67551 2.66827 4.90228 2.66827 5.12906C2.66827 5.45234 2.61037 5.74667 2.49457 6.00723C2.52352 5.93003 2.54765 5.84318 2.56212 5.74185C2.5766 5.64053 2.58625 5.54402 2.58625 5.45235C2.58625 5.30759 2.57177 5.16766 2.54765 5.03738C2.5187 4.9071 2.44632 4.64656 2.32087 4.26055C2.22919 3.96622 2.16647 3.74426 2.13752 3.59468C2.10856 3.44511 2.08926 3.31001 2.08926 3.19421C2.08926 2.97708 2.13269 2.78407 2.21472 2.61519C2.27744 2.55246 2.35947 2.50421 2.46562 2.46561C2.57177 2.42701 2.6731 2.38842 2.77443 2.34982C2.7117 2.28227 2.6345 2.24366 2.54282 2.24366C2.50422 2.24366 2.45597 2.25814 2.39324 2.29192L2.30157 2.37394C2.30157 2.24848 2.32087 2.15681 2.36429 2.09409C2.40772 2.03136 2.4608 1.98793 2.53317 1.96863C2.64897 1.96863 2.75995 2.00723 2.86128 2.08443C2.96743 2.16163 3.05428 2.24849 3.13148 2.34982H3.13631ZM3.71532 5.4427C3.71532 5.53438 3.71532 5.6164 3.71049 5.68396C3.71049 5.75151 3.67189 5.80941 3.61399 5.84801C3.48372 5.84801 3.40169 5.7708 3.37274 5.6164C3.34861 5.54885 3.33896 5.47647 3.33896 5.40892C3.33896 5.3076 3.36309 5.19662 3.40651 5.06634C3.45477 4.94089 3.48854 4.84438 3.51267 4.78165C3.49819 4.8685 3.48372 4.95536 3.46442 5.04221C3.44994 5.12906 3.44029 5.18214 3.44029 5.19662C3.44029 5.28829 3.44994 5.36067 3.46924 5.40892C3.48854 5.45717 3.52714 5.51508 3.58987 5.5778C3.61882 5.56333 3.64777 5.54884 3.67189 5.53919C3.69602 5.52954 3.70567 5.50542 3.70567 5.47647L3.71532 5.4427ZM6.71653 4.27502C6.54765 4.01447 6.35947 3.80217 6.16164 3.64777C5.92039 3.46441 5.67431 3.3679 5.41858 3.3679C5.08565 3.47406 4.83957 3.68637 4.67069 3.99517C4.50663 4.30398 4.41978 4.65137 4.41978 5.03738C4.51146 5.23038 4.64656 5.36067 4.82027 5.43304C4.99397 5.50542 5.20145 5.53919 5.43788 5.53919C5.56815 5.52954 5.70326 5.52472 5.83836 5.51507C5.97346 5.50542 6.10374 5.50541 6.22437 5.50541C6.32569 5.50541 6.41255 5.51507 6.48492 5.52955C6.5573 5.54402 6.60555 5.60675 6.62967 5.7129C6.63932 5.81423 6.64897 5.91556 6.66345 6.01206C6.07479 6.48974 5.57298 6.87093 5.14837 7.16043C4.57901 7.53679 4.03378 7.82629 3.51749 8.0193C3.23281 8.12062 2.97708 8.193 2.75513 8.24125C2.53317 8.2895 2.29192 8.30881 2.03619 8.30881C1.73703 8.30881 1.46683 8.26537 1.2304 8.17369C0.993969 8.08684 0.78649 7.93244 0.612787 7.71531C0.405308 7.45958 0.299156 7.16043 0.299156 6.81302C0.299156 6.55247 0.352232 6.26297 0.463209 5.95416C0.55006 5.72256 0.665863 5.46199 0.810615 5.17731C0.849216 5.19179 0.892642 5.20627 0.945718 5.21592C0.993969 5.22557 1.04222 5.22074 1.08082 5.19662C1.24487 5.08081 1.36068 4.94088 1.43305 4.77201C1.50543 4.60795 1.54403 4.42461 1.54403 4.22195C1.54403 4.14475 1.54403 4.08684 1.53438 4.04824C1.49578 4.04824 1.44753 4.1158 1.38963 4.24607C1.33173 4.37635 1.24005 4.43425 1.11942 4.41977C0.916767 4.21712 0.820265 3.98553 0.820265 3.72497C0.989143 3.17491 1.16285 2.62967 1.34137 2.07961C1.08565 2.44149 0.892642 2.76477 0.762364 3.05428C0.579011 3.45476 0.482509 3.82628 0.482509 4.16404C0.482509 4.33292 0.501809 4.49215 0.54041 4.64655C0.579011 4.79613 0.646562 4.94089 0.738239 5.08082C0.468034 5.64535 0.303981 6.0024 0.241255 6.15681C0.0772014 6.57176 0 6.95295 0 7.2907C0 7.65259 0.0916767 7.99034 0.279855 8.29915C0.603136 8.80096 1.02292 9.05186 1.54403 9.05186C2.06514 9.05186 2.52835 8.98914 2.99638 8.85886C3.46442 8.73341 3.89867 8.55487 4.30398 8.3281C4.70929 8.10132 5.12425 7.82147 5.54885 7.48853C5.89626 7.22798 6.27262 6.90952 6.68275 6.53799C6.89988 6.14233 7.00603 5.72738 7.00603 5.28829C7.00603 5.10977 6.98191 4.93124 6.93848 4.74789C6.89023 4.56453 6.82268 4.40531 6.731 4.26538L6.71653 4.27502ZM16.1882 6.24365C15.585 6.55246 14.9626 6.79372 14.3257 6.9626C13.93 7.06393 13.5682 7.14596 13.2304 7.20386C12.8926 7.26658 12.5742 7.29553 12.2654 7.29553C12.6273 6.93365 12.9891 6.56695 13.3559 6.19541C13.8046 5.78528 14.2437 5.58262 14.6779 5.58262C14.7648 5.58262 14.842 5.58263 14.9095 5.59228C14.9771 5.60193 15.0495 5.61639 15.117 5.64052C15.3631 5.69359 15.5754 5.76597 15.7539 5.85282C15.9324 5.93967 16.0772 6.06996 16.193 6.23884L16.1882 6.24365ZM6.10374 4.68033C5.93486 4.71893 5.76598 4.73823 5.59228 4.73823C5.41858 4.73823 5.2883 4.71892 5.16285 4.6755C5.03739 4.63207 4.94089 4.55971 4.86369 4.44873C4.89264 4.35706 4.92642 4.2895 4.96019 4.24607C4.99397 4.20265 5.03739 4.17852 5.08082 4.16887C5.10495 4.16887 5.14355 4.16888 5.19662 4.15923C5.3655 4.15923 5.53438 4.2123 5.69361 4.32328C5.80941 4.40048 5.94451 4.5211 6.09891 4.68033H6.10374Z" fill="white"/>
</svg>
