<svg width="20" height="13" viewBox="0 0 20 13" fill="none" xmlns="http://www.w3.org/2000/svg">
<path fill-rule="evenodd" clip-rule="evenodd" d="M19.9944 3.51748L19.5998 2.89741C19.4927 3.06652 19.4363 3.24126 19.4363 3.41037V3.53439C19.4532 3.56821 19.4645 3.59075 19.4645 3.60203C19.4645 3.97971 19.4983 4.43631 19.5716 4.96619C19.7407 6.21759 19.8309 7.02368 19.8309 7.37317C19.8309 8.2018 19.8027 8.82188 19.752 9.22774C19.6618 9.8929 19.4758 10.4679 19.1995 10.947C19.2897 10.6933 19.3574 10.389 19.4025 10.0338C19.4476 9.67869 19.4701 9.33484 19.4701 8.99662C19.4701 8.81624 19.4645 8.61894 19.4476 8.41037C19.4363 8.19617 19.425 8.03269 19.4138 7.91431L18.9402 2.63811C18.8839 2.47464 18.8613 2.31117 18.8613 2.13642C18.8613 1.77565 18.9853 1.44307 19.239 1.13304C19.4025 1.52199 19.5659 1.92785 19.7407 2.35062C19.9098 2.77339 20 3.16235 20 3.51184L19.9944 3.51748ZM14.3517 0.107104C14.1375 0.259302 13.8331 0.411505 13.4442 0.56934C12.5085 0.930107 11.9786 1.14431 11.8602 1.21759C12.0688 0.99211 12.3563 0.800456 12.7283 0.648258C13.2582 0.434052 13.7937 0.214205 14.3236 0C14.3405 0 14.3517 0.0338232 14.3517 0.107104ZM14.3123 1.0823C14.2334 1.16122 14.1883 1.26832 14.1883 1.39233C14.1883 1.43743 14.1883 1.50507 14.1995 1.59527C14.1995 1.66855 14.1883 1.71928 14.1714 1.75874C14.0643 1.75874 13.9853 1.73056 13.9402 1.67983C13.8952 1.62346 13.8726 1.55581 13.8726 1.46562C13.8726 1.39234 13.8839 1.28523 13.9008 1.13867C13.9008 1.04848 13.8895 0.992112 13.8726 0.963927C13.7824 1.03721 13.7373 1.14995 13.7373 1.30215C13.7373 1.36416 13.7373 1.44871 13.7486 1.56145C13.7486 1.66855 13.726 1.7531 13.6866 1.80947C13.6471 1.86584 13.5682 1.89967 13.4498 1.89967C13.2976 1.85457 13.2187 1.75874 13.2187 1.61782C13.2187 1.56145 13.2413 1.46562 13.2864 1.31906C13.3315 1.1725 13.3484 1.07103 13.3427 1.00902C13.2244 1.11049 13.1454 1.25705 13.1003 1.45434C13.0891 1.48816 13.0665 1.67419 13.0327 2.00677C13.0778 2.08569 13.1342 2.14769 13.2074 2.18715C13.2807 2.22661 13.354 2.24352 13.4216 2.23225C13.5006 2.26043 13.5738 2.23225 13.6359 2.16461C13.664 2.13078 13.7148 2.06313 13.7824 1.97294C13.8162 2.02931 13.8501 2.0575 13.8839 2.06877C13.9177 2.08004 14.0079 2.08005 14.1601 2.08005C14.239 2.00677 14.2954 1.93348 14.3292 1.84893C14.363 1.77001 14.3743 1.66291 14.3743 1.5389C14.3743 1.36979 14.3461 1.21195 14.2954 1.07666L14.3123 1.0823ZM14.0981 3.4611C14.0248 3.5062 13.9402 3.61894 13.8388 3.79933C13.7373 3.97971 13.6471 4.0699 13.5682 4.0699L13.4611 4.04171L12.7565 3.56821C12.8749 3.29763 13.0552 3.03834 13.2976 2.79594C13.4667 2.88614 13.6302 2.9876 13.7768 3.10598C13.9233 3.22436 14.0304 3.34273 14.0924 3.45547L14.0981 3.4611ZM15.5862 5.6539C15.6201 5.7159 15.6032 5.80608 15.5299 5.92446C15.4566 6.04284 15.4171 6.11612 15.4059 6.15558C15.2424 6.24577 15.1297 6.18941 15.0676 5.99212C15.0676 5.82301 15.1015 5.65953 15.1691 5.51297C15.2368 5.36641 15.3326 5.20857 15.4622 5.04509C15.3889 5.24239 15.3213 5.43968 15.2593 5.6257C15.2593 5.70462 15.2931 5.78354 15.3664 5.85682C15.4115 5.85682 15.4566 5.82301 15.5017 5.761C15.5468 5.69899 15.575 5.65953 15.5806 5.6539H15.5862ZM10.7272 2.55355C10.7272 2.67193 10.7046 2.77339 10.6652 2.86359C10.6257 2.95378 10.5524 3.0778 10.4397 3.22999C10.3326 3.292 10.2368 3.34273 10.1578 3.38783C10.0789 3.43293 10 3.44984 9.92672 3.44984C9.89853 3.44984 9.8478 3.43856 9.78016 3.42165C9.65614 3.29764 9.5885 3.14543 9.5885 2.97632C9.5885 2.82413 9.64487 2.63247 9.76325 2.40699C9.85344 2.23788 9.94927 2.06313 10.0451 1.89402C10.0451 1.98422 9.99436 2.13078 9.89853 2.32807C9.79707 2.52537 9.75197 2.67193 9.75197 2.76212C9.75197 2.89741 9.82525 3.01579 9.96618 3.11161C10.0676 3.12289 10.1522 3.10034 10.2311 3.05524C10.31 3.01015 10.4059 2.94251 10.5242 2.85232C10.5242 2.76213 10.4453 2.6663 10.2875 2.55919C10.1297 2.45773 10.0507 2.3788 10.0507 2.33371C10.0507 2.2717 10.1184 2.20406 10.2537 2.13078C10.2706 2.14769 10.3664 2.2097 10.5355 2.30553C10.6539 2.36754 10.7159 2.45209 10.7272 2.54792V2.55355ZM8.70913 2.40699C8.70913 2.53101 8.66967 2.66066 8.59639 2.78467C8.51747 2.90868 8.41601 2.99324 8.28072 3.02706C8.2018 3.02706 8.13416 3.00451 8.08343 2.95378C8.03269 2.90305 7.99323 2.83541 7.97069 2.74521C7.97069 2.53101 8.01578 2.3168 8.10034 2.1026C8.18489 1.88839 8.30327 1.68546 8.4611 1.48816C8.4611 1.56708 8.3991 1.74746 8.26945 2.01804C8.20744 2.15333 8.17362 2.26607 8.17362 2.35626C8.17362 2.48027 8.22435 2.59301 8.32018 2.69447C8.41037 2.72266 8.48365 2.68321 8.54566 2.57047C8.60203 2.46337 8.6584 2.40699 8.71477 2.40699H8.70913ZM16.4092 11.1612C16.3923 11.2796 16.3585 11.3867 16.3134 11.4769C16.2683 11.5727 16.2007 11.6516 16.1105 11.7136C16.0203 11.7306 15.9414 11.7136 15.8681 11.6742C15.7948 11.6291 15.7497 11.5727 15.7328 11.5107C15.7159 11.4487 15.7046 11.3698 15.7046 11.2796C15.7046 10.9921 15.8061 10.7103 16.0147 10.4397C15.9808 10.5017 15.9526 10.5862 15.9357 10.699C15.9188 10.8117 15.9076 10.9132 15.9076 11.009C15.9076 11.1049 15.9076 11.1838 15.9188 11.2401C15.9639 11.2965 16.009 11.336 16.0485 11.3698C16.0879 11.4036 16.1387 11.4149 16.2063 11.4036L16.4092 11.1612ZM10.9977 5.1973C10.9977 5.1973 11.0259 5.26494 10.9977 5.32694C10.9696 5.38331 10.9414 5.43969 10.9188 5.49606C10.8005 5.46788 10.7159 5.4566 10.6595 5.4566C10.5806 5.4566 10.5355 5.50734 10.5242 5.60317C10.451 5.99775 10.3439 6.3698 10.1973 6.71365C10.1071 6.65728 10.0113 6.48817 9.90417 6.20068C9.79707 5.9132 9.66742 5.76663 9.50395 5.76663C9.47012 5.76663 9.41375 5.77791 9.34047 5.79482C9.26719 5.76664 9.23337 5.7159 9.23337 5.63134C9.23337 5.56934 9.24464 5.52425 9.27283 5.49606C9.30101 5.43406 9.3292 5.36641 9.36302 5.29876C9.39684 5.23112 9.44194 5.17474 9.50395 5.12964C9.6956 5.18601 9.83653 5.33258 9.93799 5.57497C10.0846 5.94701 10.1691 6.14995 10.1973 6.18377C10.2988 5.87938 10.3777 5.64826 10.4397 5.49606C10.5017 5.34386 10.5862 5.20858 10.6821 5.0902C10.7723 5.07893 10.8737 5.11839 10.9921 5.1973H10.9977ZM17.2097 3.34273C17.2097 2.97069 17.1364 2.56483 16.9955 2.12514C16.9617 2.02368 16.8095 1.64036 16.5502 0.963927C16.4487 1.00902 16.3585 1.11049 16.2796 1.26269C16.2345 1.33597 16.1725 1.45434 16.0879 1.61218C16.0879 2.10823 16.2176 3.28072 16.4825 5.12964C16.6009 5.95828 16.6573 6.66855 16.6573 7.2548C16.4882 7.469 16.274 7.62683 16.0259 7.72266C15.7779 7.81849 15.5073 7.86358 15.2086 7.86358C14.8196 7.82976 14.5434 7.52537 14.3856 6.95604C14.2841 6.59527 14.1939 6.35851 14.1037 6.24013C13.9853 6.14994 13.8444 6.10485 13.6697 6.10485C13.6246 6.10485 13.5457 6.11613 13.4386 6.13304C13.0327 6.25142 12.7057 6.47689 12.4521 6.80947C12.1477 7.20406 11.9166 7.81285 11.7644 8.63585C11.3923 8.84441 10.9752 8.98535 10.5073 9.0699C10.0395 9.15446 9.52086 9.19392 8.95152 9.19392C8.38219 9.19392 7.93123 9.09245 7.51973 8.89516C7.03495 8.65841 6.73055 8.33709 6.61781 7.91996C6.50507 7.50282 6.42616 7.06877 6.38106 6.61217C6.33596 6.15558 6.31342 5.43969 6.31342 4.47013C6.31342 3.89516 6.30214 3.28073 6.28523 2.63811C6.26832 1.99549 6.2345 1.46561 6.1894 1.04848C5.99211 1.26268 5.83991 1.5389 5.72717 1.87148C5.72717 2.49155 5.75536 3.30891 5.80609 4.31793C5.92446 6.51635 5.98083 7.88614 5.98083 8.41601L5.94138 8.38783V9.23901C5.56933 9.71815 5.12401 10.1297 4.59977 10.4791C4.07554 10.8286 3.52875 11.0654 2.96505 11.1894C2.80158 11.2176 2.6832 11.2345 2.61556 11.2458C2.54228 11.257 2.44645 11.2571 2.3168 11.2571C1.97294 11.2571 1.65163 11.195 1.34724 11.0767C1.04284 10.9527 0.78354 10.7723 0.569335 10.5299C0.490417 10.4115 0.434047 10.3044 0.400225 10.1973C0.366404 10.0958 0.35513 9.97182 0.35513 9.82526C0.35513 9.59978 0.422773 9.31792 0.558061 8.97407C0.631341 8.79368 0.744081 8.51748 0.89628 8.15107C0.580609 8.70914 0.383315 9.08118 0.29876 9.26156C0.101466 9.71252 0 10.1296 0 10.5073C0 10.761 0.0450957 11.009 0.135287 11.2514C0.259301 11.46 0.434048 11.6347 0.648253 11.7813C0.817362 11.8997 1.02593 11.9955 1.26832 12.08C1.4938 12.1364 1.66291 12.1646 1.78129 12.1702C1.89966 12.1702 2.00676 12.1759 2.10823 12.1759C2.66065 12.1759 3.19053 12.0519 3.70913 11.8038C4.22773 11.5558 4.72379 11.2289 5.19166 10.823C5.49605 10.6764 5.73281 10.4115 5.89628 10.0226C5.98647 9.81399 6.11612 9.48704 6.29087 9.03608C6.32469 9.04736 6.36979 9.08118 6.41488 9.14319C6.43179 9.17137 6.46561 9.22209 6.51071 9.28974C6.80947 9.57722 7.14205 9.7858 7.51973 9.90981C7.89177 10.0338 8.30891 10.1015 8.77114 10.1015C9.16573 10.1015 9.58286 10.0564 10.0169 9.96618C10.451 9.87599 10.8794 9.76325 11.3021 9.62796C11.3811 9.59977 11.4487 9.5885 11.5051 9.5885C11.6967 9.5885 11.8602 9.79143 12.0011 10.1917C12.1421 10.5919 12.3224 10.8286 12.5479 10.9019C12.6494 10.9583 12.7396 10.9808 12.8185 10.9808C12.9256 10.9808 13.0327 10.947 13.1454 10.885C13.2525 10.823 13.3653 10.7441 13.4837 10.6539C13.6302 10.4397 13.743 10.2142 13.8331 9.97745C13.9233 9.7407 13.9684 9.51522 13.9684 9.28974C13.9684 9.06426 13.9233 8.86133 13.8331 8.68095C13.743 8.59076 13.6471 8.52876 13.54 8.4893C13.4386 8.45547 13.3202 8.43292 13.1962 8.43292C13.0609 8.43292 12.8805 8.4611 12.655 8.51183C12.5366 8.54002 12.3732 8.57948 12.1533 8.63585C12.097 8.54565 12.0744 8.42165 12.0744 8.25818C12.0744 8.20181 12.0744 8.14543 12.08 8.07779C12.08 8.01015 12.0913 7.93124 12.1026 7.84105C12.2942 7.60429 12.4464 7.43518 12.5648 7.32808C12.7452 7.16461 12.9312 7.0575 13.1172 7.00113C13.1905 6.98421 13.2807 6.97295 13.3878 6.97295C13.6753 6.97295 13.8726 7.13641 13.9853 7.45772C14.239 8.23562 14.4927 8.65277 14.7407 8.71477C14.876 8.77114 15.0169 8.79368 15.1578 8.79368C15.3551 8.79368 15.5637 8.74859 15.7779 8.6584C15.8794 8.62458 16.0597 8.52311 16.3303 8.35964C16.6291 8.01578 16.8151 7.60992 16.8997 7.14205C16.9448 6.89966 16.9673 6.44871 16.9673 5.78918C16.9504 5.62007 16.894 5.25931 16.8038 4.71816C16.6798 3.96844 16.6122 3.3991 16.6122 3.01579C16.6742 2.89177 16.7362 2.76212 16.8038 2.63811C16.8377 2.73958 16.9109 2.86922 17.0124 3.0327C17.1139 3.19617 17.1815 3.29764 17.2097 3.34273ZM8.82187 7.19842C8.77677 7.29989 8.73168 7.39572 8.68658 7.49718C8.64149 7.59865 8.56821 7.67193 8.47238 7.7283C8.37091 7.7283 8.29763 7.67193 8.24126 7.55356C8.22435 7.32808 8.2469 7.11951 8.31454 6.92222C8.38219 6.73056 8.48929 6.54454 8.63021 6.37543C8.63021 6.46562 8.6133 6.5558 8.57384 6.64599C8.47238 6.90529 8.42728 7.06878 8.42728 7.13078C8.42728 7.23225 8.4611 7.32245 8.53438 7.40136C8.59075 7.41264 8.63585 7.37881 8.68095 7.30553C8.72604 7.23225 8.77114 7.19842 8.81623 7.19842H8.82187ZM3.91206 1.61218C3.95716 1.646 3.9628 1.69673 3.93461 1.7531C3.90079 1.80947 3.8726 1.86584 3.84442 1.92221C3.81623 1.9053 3.7655 1.89402 3.69786 1.89402H3.5513C3.43292 2.04059 3.35964 2.28298 3.32582 2.62683C3.292 2.97069 3.25817 3.19617 3.21308 3.30327C3.12289 3.24126 3.03833 3.12853 2.95378 2.96506C2.74521 2.57047 2.60992 2.33935 2.54791 2.27734L2.4239 2.50846C2.4239 2.50846 2.34498 2.469 2.27734 2.41263C2.20406 2.35626 2.15333 2.31681 2.11387 2.28862C2.11387 2.09696 2.17587 1.91658 2.30552 1.74747C2.51973 1.74747 2.72266 1.92221 2.90304 2.27734C3.03833 2.53664 3.12289 2.69448 3.16235 2.75085C3.19617 2.53664 3.24126 2.3168 3.28636 2.1026C3.35964 1.86585 3.47802 1.68546 3.63585 1.56145C3.70913 1.55017 3.75986 1.55017 3.79932 1.55017C3.85569 1.55017 3.89515 1.57272 3.92334 1.61782L3.91206 1.61218ZM4.79143 5.53551C4.79143 5.64261 4.76888 5.74972 4.71815 5.86246C4.66742 5.96956 4.5885 6.05412 4.4814 6.10485C4.31793 6.10485 4.21646 6.02593 4.17136 5.86246C4.17136 5.6088 4.2221 5.3664 4.31792 5.12964C4.36302 5.02818 4.4814 4.81399 4.66742 4.4814C4.66742 4.56032 4.61105 4.71815 4.50395 4.94363C4.39684 5.16911 4.34047 5.33823 4.34047 5.44533C4.34047 5.59189 4.41939 5.70463 4.57159 5.79482C4.61669 5.76664 4.65614 5.72153 4.68433 5.65952C4.71815 5.59752 4.75197 5.55806 4.78579 5.53551H4.79143ZM11.4318 11.1612C11.398 11.2176 11.3641 11.2571 11.336 11.2909C11.3078 11.3247 11.2796 11.336 11.2401 11.336C11.133 11.2909 11.0372 11.2683 10.9583 11.2683C10.7779 11.2683 10.513 11.3923 10.1578 11.6404C9.80834 11.8884 9.53213 12.0124 9.33484 12.0124L8.24126 12.2041C8.39346 12.1251 8.60203 12.035 8.86133 11.9448C9.12063 11.8546 9.37993 11.77 9.62796 11.6855C9.87599 11.6065 10.0789 11.5051 10.2311 11.3867C10.4284 11.2401 10.5806 11.0654 10.6933 10.8568C10.7215 10.7497 10.7779 10.6595 10.8681 10.5863C10.9583 10.513 11.0485 10.4791 11.1387 10.4791C11.2852 10.4791 11.3754 10.5468 11.4205 10.6821C11.4656 10.8174 11.4882 10.9188 11.4882 10.9808C11.4882 11.0597 11.4713 11.1218 11.4318 11.1556V11.1612ZM3.75986 3.81624C3.77678 3.97971 3.73168 4.09245 3.62458 4.15446C3.292 4.15446 3.04961 4.17137 2.89177 4.19956C2.73957 4.23338 2.60428 4.32356 2.48591 4.47576C2.50282 4.56595 2.54228 4.77453 2.60992 5.10711C2.67193 5.43405 2.71139 5.68207 2.73393 5.83991C2.75085 5.99775 2.76212 6.11049 2.76776 6.18377C2.76776 6.25705 2.77339 6.31342 2.77339 6.35852C2.77339 6.55581 2.75648 6.73056 2.71702 6.8884C2.6832 7.0406 2.60992 7.19278 2.50282 7.35062C2.55919 7.26042 2.59301 7.1646 2.60992 7.06877C2.62683 6.9673 2.63811 6.85458 2.63811 6.73056C2.63811 6.4769 2.59301 6.17813 2.50282 5.83991C2.44645 5.65953 2.40699 5.50169 2.37317 5.36641C2.33935 5.23112 2.3168 5.11275 2.29989 5.00565C2.28298 4.90418 2.2717 4.81962 2.2717 4.75761C2.2717 4.52086 2.33935 4.3292 2.48027 4.17137C2.62119 4.01353 2.86358 3.90079 3.2018 3.82751C3.17362 3.77114 3.12289 3.73168 3.05524 3.7035C2.98196 3.67531 2.91995 3.68095 2.86358 3.71478C2.80158 3.75987 2.73957 3.80496 2.68884 3.85006C2.67756 3.80496 2.68884 3.7486 2.71702 3.68659C2.74521 3.62458 2.77339 3.56258 2.79594 3.49493C2.89741 3.41602 2.99887 3.37092 3.10598 3.37092C3.17926 3.37092 3.23563 3.38783 3.28072 3.42728C3.37091 3.47238 3.44983 3.52312 3.51184 3.57385C3.57384 3.63022 3.6584 3.70913 3.75423 3.81624H3.75986ZM7.13078 11.2007C7.13078 11.2909 7.10823 11.3867 7.06313 11.4825C6.98985 11.6009 6.94476 11.6742 6.92221 11.7136C6.89966 11.7475 6.82074 11.77 6.68546 11.77C6.62909 11.646 6.60654 11.5163 6.60654 11.3923C6.60654 11.2232 6.65727 11.0316 6.7531 10.8174C6.85457 10.6032 6.94476 10.4002 7.03495 10.2029C6.94476 10.5073 6.85457 10.8174 6.76437 11.1218C6.76437 11.2683 6.82074 11.3754 6.92785 11.4487L7.13078 11.2063V11.2007ZM3.81623 8.30327C3.81623 8.30327 3.77678 8.36528 3.72604 8.46674C3.67531 8.56821 3.63021 8.61331 3.58512 8.61331C3.56821 8.61331 3.52875 8.59076 3.4611 8.54567H3.354C3.29763 8.65277 3.2469 8.86133 3.19617 9.16572C3.14543 9.47012 3.06652 9.68998 2.95941 9.81399C2.88613 9.74071 2.81285 9.59415 2.7283 9.37431C2.64374 9.15446 2.57046 9.00226 2.49718 8.92334C2.48027 8.97971 2.44645 9.01354 2.40135 9.03608C2.35626 9.05863 2.31116 9.05299 2.26607 9.01353C2.2097 8.96844 2.18715 8.90643 2.18715 8.82188C2.18715 8.75987 2.19842 8.69222 2.22661 8.62458C2.25479 8.55693 2.28298 8.48929 2.30552 8.42728C2.41263 8.38218 2.47463 8.37092 2.49718 8.3991C2.59865 8.47802 2.67756 8.58512 2.73957 8.70913C2.81849 8.90642 2.90304 9.10372 2.98196 9.30665C3.03833 8.96279 3.0947 8.7204 3.16235 8.5682C3.22999 8.42164 3.32018 8.29763 3.43856 8.19616C3.49493 8.17925 3.5513 8.1849 3.6133 8.20745C3.67531 8.23563 3.73732 8.26381 3.80496 8.28636L3.81623 8.30327ZM13.3822 9.96618C13.3258 10.0226 13.2582 10.0451 13.168 10.0451C13.0609 10.0451 12.9594 10.0225 12.8692 9.97745C12.6325 9.85344 12.4746 9.66179 12.3844 9.40813C12.4915 9.36303 12.6043 9.34047 12.7227 9.34047C12.9312 9.34047 13.0834 9.38556 13.1736 9.48139C13.2638 9.57722 13.3315 9.65615 13.3709 9.71815C13.4047 9.78016 13.4104 9.86471 13.3822 9.96054V9.96618ZM11.1781 10.9414C11.133 10.9752 11.0598 10.9583 10.9639 10.885C10.9526 10.8681 10.9301 10.8399 10.885 10.8061C10.8963 10.7948 10.9076 10.7892 10.9245 10.7779C10.9583 10.7779 10.9865 10.7836 11.0034 10.8005C11.0203 10.8117 11.0372 10.823 11.0598 10.8343L11.1838 10.9414H11.1781Z" fill="white"/>
</svg>
