<svg width="20" height="11" viewBox="0 0 20 11" fill="none" xmlns="http://www.w3.org/2000/svg">
<path fill-rule="evenodd" clip-rule="evenodd" d="M20 2.47881C19.9788 2.36758 19.9047 2.22458 19.7775 2.05509C19.7193 1.98623 19.6663 1.91207 19.6081 1.84322L19.4597 2.01271L19.7352 6.93856C19.7352 7.31462 19.6769 7.68008 19.5604 8.03496C19.4439 8.38983 19.285 8.75 19.089 9.11017C19.179 8.8983 19.2426 8.67585 19.2744 8.44809C19.3061 8.22034 19.322 7.93962 19.322 7.61653C19.322 7.45233 19.3167 7.1822 19.3008 6.79555C19.285 6.4089 19.2797 6.20762 19.2797 6.18644L18.9407 1.06992C18.9672 1.03284 18.9831 0.990466 18.9831 0.942796C18.9831 0.90572 18.9778 0.868643 18.9619 0.82627C18.946 0.783897 18.9354 0.741521 18.9195 0.699148L19.3326 0C19.5657 0.524364 19.7246 0.921607 19.8093 1.19703C19.9364 1.61546 20 2.03919 20 2.47881ZM15.1377 3.64407C15.1112 3.73411 15.09 3.80826 15.0742 3.85593C15.0159 4.03072 14.9364 4.13135 14.8305 4.15254C14.767 4.16843 14.7087 4.14724 14.6557 4.09428C14.6028 4.04131 14.5657 3.98835 14.5498 3.94068C14.5339 3.89301 14.5233 3.82945 14.5233 3.7606C14.5233 3.54344 14.5922 3.34216 14.7352 3.16737C14.7193 3.23093 14.7087 3.30508 14.6928 3.38453C14.6769 3.46398 14.6716 3.51695 14.6716 3.53813C14.6716 3.60699 14.6928 3.68115 14.7352 3.7606C14.7828 3.81886 14.8252 3.85064 14.8517 3.86653C14.8782 3.88242 14.9153 3.86653 14.9576 3.83475C14.9947 3.82945 15.0212 3.79237 15.0424 3.73411C15.0636 3.67585 15.0953 3.64407 15.1377 3.64407ZM15.1377 0.328387C14.8676 0.519065 14.5286 0.699152 14.1208 0.868644C13.5117 1.10169 12.9078 1.32945 12.3093 1.5572C11.4989 1.8803 10.6886 2.20339 9.88348 2.52118C9.88348 2.46292 9.90466 2.40996 9.94703 2.36229C10.0689 2.25636 10.1536 2.1822 10.2013 2.13983C10.6515 1.98623 11.2023 1.77966 11.8432 1.52543C12.8019 1.14937 13.3528 0.937496 13.4852 0.889827C14.1049 0.656776 14.6557 0.471396 15.1377 0.328387ZM13.6229 3.14619C13.6494 3.06674 13.6653 2.98199 13.6653 2.88136C13.6653 2.78072 13.66 2.70127 13.6494 2.64301C13.6388 2.58475 13.6123 2.4947 13.5699 2.38347C13.5064 2.40996 13.4746 2.46292 13.4746 2.53178C13.4746 2.55826 13.4799 2.60593 13.4958 2.66949C13.5117 2.73305 13.517 2.78072 13.517 2.80721C13.517 2.84428 13.5117 2.87076 13.4958 2.89725C13.4799 2.92373 13.4587 2.93962 13.4216 2.94491C13.3104 2.92902 13.2362 2.88135 13.1992 2.8019C13.1621 2.72245 13.1462 2.61123 13.1462 2.47881V2.33051C13.0667 2.36758 13.0297 2.44174 13.0297 2.56356C13.0297 2.60593 13.0297 2.66419 13.0403 2.73835C13.0456 2.8125 13.0508 2.86017 13.0508 2.88136C13.0508 2.9714 13.0297 3.04025 12.9873 3.08262C12.9449 3.125 12.8602 3.1356 12.7331 3.11441C12.6483 3.06674 12.6059 2.98729 12.6059 2.88136C12.6112 2.82309 12.6218 2.77012 12.6271 2.71186C12.6324 2.6536 12.6377 2.60064 12.6377 2.54237C12.6377 2.49471 12.6271 2.44174 12.6059 2.38347C12.5371 2.45233 12.4947 2.55296 12.4841 2.68008C12.4735 2.8072 12.4629 2.96081 12.447 3.14619C12.4682 3.22564 12.5053 3.2945 12.5636 3.36335C12.6218 3.43221 12.6854 3.46398 12.7648 3.46398C12.7701 3.46398 12.786 3.46398 12.8125 3.46398C12.839 3.46398 12.8708 3.45339 12.9184 3.4428C12.9661 3.4322 13.0032 3.38983 13.0403 3.31568C13.0773 3.24152 13.1091 3.16738 13.1462 3.09852L13.2733 3.21504C13.3422 3.24152 13.4004 3.25741 13.4428 3.25741C13.5222 3.25741 13.5805 3.22034 13.6229 3.15148V3.14619ZM10 1.20763C9.95763 1.28708 9.90466 1.32415 9.8411 1.32415C9.77754 1.32415 9.72987 1.29767 9.69809 1.24471C9.66632 1.19174 9.65042 1.14407 9.65042 1.1017C9.6928 0.958687 9.73517 0.815675 9.77754 0.66737C9.75106 0.709743 9.69809 0.783894 9.62924 0.889827C9.54979 1.03284 9.51271 1.16526 9.51271 1.29237C9.51271 1.31886 9.51801 1.37182 9.5339 1.44068C9.57098 1.50953 9.61335 1.5625 9.66102 1.59958C9.70869 1.63665 9.76695 1.64725 9.83051 1.63136C9.8517 1.58898 9.88348 1.52542 9.93114 1.44597C9.97881 1.36652 10 1.28708 10 1.20763ZM11.1017 3.98305L11.0275 4.23729C10.9587 4.25847 10.8739 4.23729 10.7786 4.16843C10.6833 4.09957 10.6091 4.08368 10.5508 4.11017C10.5085 4.2108 10.4714 4.375 10.4449 4.60805C10.3972 5.0053 10.2966 5.25953 10.1483 5.37076C9.9947 5.05826 9.8358 4.74576 9.6822 4.42797C9.67691 4.49682 9.64513 4.5339 9.58686 4.5339C9.50212 4.51801 9.41737 4.50212 9.33263 4.48094C9.29555 4.44386 9.27966 4.40148 9.27966 4.35381C9.27966 4.31144 9.29555 4.25318 9.33263 4.17903C9.3697 4.10487 9.38559 4.0572 9.38559 4.03601C9.41208 3.95127 9.49682 3.9089 9.62924 3.9089C9.77225 4.03602 9.88877 4.2161 9.97881 4.44915C10.1059 4.76165 10.196 4.95233 10.2436 5.02118C10.3019 4.70868 10.3443 4.46505 10.3814 4.29026C10.4449 3.95127 10.5561 3.78178 10.7097 3.78178C10.7574 3.78178 10.8157 3.79767 10.8845 3.83475C10.9534 3.87183 11.0222 3.91949 11.1017 3.98305ZM7.60593 2.25635C7.52119 2.40466 7.44174 2.52648 7.37288 2.61653C7.27225 2.74365 7.17161 2.84428 7.06568 2.92373C6.98623 2.86017 6.88559 2.79131 6.75847 2.71186C6.5625 2.60063 6.45127 2.53707 6.43009 2.52118C6.52013 2.35169 6.60487 2.21399 6.67903 2.11335C6.75318 2.01271 6.85911 1.90678 6.99153 1.80084C7.00742 1.81673 7.08157 1.8644 7.21398 1.94915C7.38877 2.06038 7.52119 2.16631 7.60593 2.25635ZM17.2564 2.23517C17.2193 1.89089 17.1345 1.52012 16.9915 1.12288C16.8485 0.778599 16.7108 0.429027 16.5784 0.0847477C16.4513 0.185383 16.34 0.328388 16.25 0.519066C16.2235 0.577328 16.1811 0.677965 16.1335 0.82627C16.1335 1.36123 16.197 2.06567 16.3242 2.93432C16.4301 3.65466 16.5413 4.40149 16.6578 5.17479C16.7744 5.9481 16.8326 6.63665 16.8326 7.23517C16.5413 7.39937 16.1917 7.52648 15.7839 7.62712C15.5932 7.66949 15.2172 7.73835 14.661 7.82839C14.8888 7.55826 15.0424 7.35699 15.1271 7.22458C15.2701 6.99682 15.3655 6.77437 15.4237 6.55721C15.4237 6.34534 15.3019 6.15995 15.0636 5.99576C14.9364 5.90572 14.7299 5.77861 14.4492 5.61441C14.1314 5.45022 13.8242 5.37076 13.5275 5.37076C13.1409 5.37076 12.7383 5.51907 12.3305 5.81568C12.0975 5.98517 11.7532 6.30296 11.2977 6.77436C10.8422 7.24576 10.5032 7.55826 10.2754 7.72246C10.143 7.63242 10.0106 7.53708 9.88348 7.44703C9.71928 7.31991 9.63983 7.1981 9.63983 7.08687C9.63983 7.00742 9.66102 6.94386 9.70339 6.88559C9.57627 6.94386 9.31674 7.13454 8.93009 7.45763C8.61759 7.71187 8.34216 7.86017 8.09322 7.90254C8.03496 7.90784 7.96081 7.91843 7.86017 7.93432C7.75953 7.95021 7.64831 7.95551 7.52119 7.95551C7.33581 7.95551 7.1822 7.92902 7.04979 7.87606C6.91737 7.82309 6.81674 7.72775 6.73729 7.59534C6.82203 7.53708 6.91208 7.47352 7.01271 7.40466C7.11335 7.3358 7.1875 7.26165 7.23517 7.1822C7.32521 6.94386 7.42585 6.68433 7.52648 6.4089C7.62712 6.13348 7.68008 5.89512 7.68008 5.69915C7.68008 5.58792 7.6642 5.47669 7.63771 5.37606C7.61123 5.27542 7.56356 5.17479 7.5 5.07415C7.46292 4.96822 7.40466 4.88348 7.32521 4.82521C7.24576 4.76695 7.09216 4.71928 6.875 4.6822C6.57309 4.97352 6.33475 5.3072 6.15996 5.68326C5.98517 6.05932 5.90042 6.46716 5.90042 6.89619C5.90042 6.95975 5.90042 7.02331 5.90572 7.09216C5.90572 7.16102 5.91631 7.21398 5.92161 7.25635C5.54555 7.48411 5.10064 7.67479 4.58687 7.83899C4.21081 7.96081 3.73411 8.07733 3.14619 8.19915C2.48941 8.19915 2.00212 8.16208 1.68432 8.09322C1.17585 7.98199 0.789195 7.74365 0.519068 7.38348C0.439618 7.21928 0.402543 7.0286 0.402543 6.81144C0.402543 6.46716 0.492585 6.11758 0.677966 5.7733C0.529661 5.87923 0.407839 6.03284 0.307203 6.23941C0.227754 6.42479 0.153602 6.60487 0.0741527 6.79025C0.0370765 6.90148 0.0158896 6.98623 0.010593 7.04449C0.00529635 7.10276 0 7.1822 0 7.28813C0 7.51589 0.0423729 7.73305 0.132415 7.94492C0.222458 8.15678 0.344279 8.34216 0.497881 8.49576C0.799788 8.70762 1.1017 8.85593 1.39831 8.93538C1.69492 9.01483 2.02331 9.05721 2.38347 9.05721C2.8072 9.05721 3.23623 8.99894 3.67585 8.88771C3.99894 8.80297 4.42267 8.65996 4.93644 8.45339C5.19598 8.34746 5.58263 8.18327 6.0911 7.95551C6.23411 8.17267 6.34004 8.32627 6.4089 8.41102C6.47775 8.49577 6.55191 8.56462 6.63136 8.62288C6.80085 8.7553 7.0392 8.82415 7.3411 8.82415C7.53708 8.82415 7.73305 8.79767 7.92373 8.73941C8.14089 8.69703 8.40572 8.54873 8.71822 8.29449C9.08369 7.99788 9.33263 7.8178 9.45975 7.75424C9.45975 7.88665 9.51801 8.02966 9.63983 8.17797C9.70339 8.25742 9.76695 8.33157 9.83051 8.40042C9.82521 8.41631 9.67161 8.64936 9.375 9.11017C9.26907 9.27436 9.20551 9.42267 9.18432 9.55508L10 8.49576C10.2172 8.58051 10.4131 8.63877 10.5826 8.67055C10.7521 8.70233 10.9534 8.71822 11.1864 8.71822C11.4989 8.71822 11.9015 8.67055 12.4047 8.58051C12.7066 8.52224 12.9555 8.47987 13.1462 8.4428C13.321 8.51165 13.4958 8.56462 13.66 8.5964C13.8242 8.62818 14.0095 8.64406 14.2055 8.64406C14.5498 8.64406 14.9576 8.58051 15.4237 8.45339C15.5456 8.41632 15.9269 8.29979 16.5784 8.09322C16.8273 7.86547 16.9968 7.61652 17.0975 7.3464C17.1981 7.07627 17.2458 6.76377 17.2458 6.41949C17.2458 6.25 17.2352 6.08581 17.2193 5.92691C17.2034 5.76801 17.1292 5.34957 17.0021 4.67161C16.9121 4.17902 16.8644 3.78178 16.8644 3.48517C16.8644 3.39513 16.8485 3.23093 16.822 2.99788C16.7744 2.59534 16.7479 2.32521 16.7479 2.1928C16.7479 2.09216 16.7532 1.99682 16.7691 1.90148C16.785 1.80614 16.8061 1.7214 16.8326 1.65254C16.9121 1.7108 16.9915 1.80615 17.0763 1.93856C17.1186 2.00212 17.1769 2.10276 17.2564 2.23517ZM4.86229 1.01695C4.82521 1.12818 4.79873 1.21292 4.77754 1.27118C4.69809 1.2447 4.64513 1.21822 4.60805 1.19703C4.52331 1.15466 4.45445 1.14407 4.40678 1.16525C4.36441 1.28707 4.33792 1.52012 4.33263 1.875C4.32733 2.22987 4.28496 2.48411 4.20551 2.64831C4.11547 2.55826 3.98835 2.3464 3.83475 2.01271C3.75 1.82733 3.67055 1.69491 3.5911 1.61017C3.56462 1.61546 3.54343 1.64724 3.53814 1.69491C3.53284 1.74258 3.52225 1.77436 3.51695 1.77966C3.4322 1.74259 3.35805 1.7161 3.29979 1.69491C3.24153 1.67373 3.18856 1.63665 3.14619 1.57839C3.14089 1.5519 3.13559 1.51483 3.13559 1.47246C3.13559 1.4089 3.15148 1.34004 3.17797 1.27118C3.18326 1.25529 3.21504 1.19703 3.27331 1.0911C3.34216 1.06991 3.42161 1.0858 3.50636 1.13347C3.52754 1.14936 3.57521 1.18114 3.64407 1.2394C3.7553 1.34534 3.85593 1.49894 3.94068 1.70551C4.0625 1.98093 4.14195 2.15042 4.18432 2.21398C4.18962 1.97563 4.20551 1.72669 4.2214 1.47246C4.23729 1.21822 4.30614 1.00636 4.42797 0.836865C4.60275 0.815679 4.75106 0.87394 4.86229 1.01695ZM12.9449 9.25847C12.9608 9.3697 12.9184 9.48094 12.8284 9.58687C12.7701 9.65043 12.6854 9.71928 12.5636 9.79873C12.4417 9.89937 12.3252 9.94703 12.2034 9.94703C12.1028 9.94703 12.0021 9.92585 11.8962 9.88348C11.6155 9.77225 11.4407 9.71398 11.3771 9.71398C11.2765 9.71398 11.1864 9.74047 11.1017 9.79873C10.7256 10.0318 10.3867 10.2066 10.0847 10.3284C9.87818 10.4131 9.6928 10.4767 9.51801 10.5244C9.34322 10.572 9.15784 10.5932 8.96186 10.5932C9.24258 10.5932 9.56568 10.482 9.92585 10.2648C10.1112 10.143 10.2966 10.0265 10.4873 9.90466C10.678 9.78284 10.8581 9.6875 11.0222 9.61865C11.1864 9.54979 11.3665 9.51272 11.5572 9.51272C11.7055 9.51272 11.8644 9.54449 12.0339 9.60805C12.0498 9.59216 12.1081 9.5339 12.2193 9.43326C12.3305 9.33263 12.4206 9.25847 12.5 9.2161C12.5794 9.17373 12.6483 9.15254 12.7119 9.15254C12.7966 9.15254 12.8761 9.18962 12.9449 9.25847ZM4.77754 3.09322C4.77754 3.29979 4.60805 3.40572 4.27436 3.41102C3.94068 3.41632 3.73411 3.49577 3.66525 3.64407C3.76589 4.03072 3.82945 4.28496 3.85593 4.39619C3.91949 4.66632 3.96716 4.92585 3.99364 5.18008C3.99894 5.28072 4.00424 5.36017 4.00953 5.42903C4.00953 5.49788 4.01483 5.55615 4.01483 5.60382C4.01483 6.01165 3.94068 6.39301 3.79237 6.73729C3.87182 6.54131 3.9089 6.32415 3.9089 6.0911C3.9089 5.9375 3.89301 5.7839 3.86653 5.63559C3.84004 5.48729 3.79767 5.30191 3.7447 5.08475C3.69174 4.86759 3.64407 4.66102 3.60699 4.47034C3.56992 4.27966 3.54873 4.10487 3.54873 3.94068C3.54873 3.75 3.58051 3.55932 3.64407 3.36864C3.72352 3.2839 3.81356 3.22034 3.91949 3.17267C4.02542 3.125 4.14725 3.09322 4.27966 3.07204C4.2161 3.00848 4.14195 2.97669 4.0572 2.97669C3.99894 2.97669 3.94597 2.99259 3.88771 3.02966C3.86653 3.07203 3.84004 3.09852 3.81356 3.11441C3.79237 3.08793 3.79237 3.04555 3.81356 2.99788C3.83475 2.95021 3.86123 2.89195 3.88771 2.82839C3.96716 2.74364 4.0572 2.70127 4.16314 2.70127C4.23199 2.70127 4.29555 2.71716 4.35381 2.75424C4.50742 2.83369 4.65042 2.94491 4.77754 3.09322ZM1.79025 4.35381C1.7214 4.73517 1.65254 5.02118 1.58898 5.21186C1.47775 5.56674 1.26589 5.74152 0.963983 5.74152C0.873941 5.74152 0.794492 5.71504 0.725636 5.65678C0.65678 5.59851 0.598517 5.52437 0.550847 5.42373C0.513771 5.3125 0.492585 5.19598 0.476695 5.08475C0.460805 4.97352 0.455508 4.857 0.455508 4.74577C0.455508 4.36441 0.556144 3.93538 0.762712 3.46398C0.810381 3.34216 1.01695 2.94491 1.37712 2.26695C1.36123 2.31462 1.2553 2.60593 1.04873 3.13559C0.900424 3.52225 0.826271 3.83474 0.826271 4.06779C0.826271 4.23199 0.847457 4.3803 0.895127 4.51271C0.942796 4.64513 1.02225 4.77754 1.14407 4.90466C1.26589 4.90466 1.36653 4.88347 1.45657 4.8411C1.54661 4.79873 1.60487 4.73517 1.63665 4.65572C1.66843 4.57627 1.69492 4.51271 1.7108 4.47034C1.72669 4.42797 1.75318 4.39089 1.79025 4.35381ZM2.93432 6.14407C2.93432 6.14407 2.89725 6.2447 2.86547 6.37712C2.83369 6.50953 2.77542 6.59428 2.69068 6.63136C2.63242 6.65254 2.57415 6.65254 2.51059 6.62606C2.44703 6.59957 2.39936 6.55191 2.37288 6.48305C2.39936 6.14937 2.45233 5.87394 2.53178 5.65148C2.61123 5.42902 2.74364 5.21187 2.93432 5C2.92903 5.01589 2.86017 5.17479 2.73305 5.47669C2.64301 5.68856 2.59534 5.86335 2.59534 6.00635C2.59534 6.12818 2.62182 6.23941 2.68008 6.34534C2.72246 6.34534 2.76483 6.31356 2.8072 6.25C2.84958 6.18644 2.89195 6.14937 2.93432 6.14407ZM14.8305 7.16102C14.2161 7.40996 13.6864 7.59004 13.2415 7.70127C12.6536 7.84957 12.0922 7.92373 11.5572 7.92373C11.2341 7.92373 10.911 7.89195 10.5932 7.82839C10.8739 7.55297 11.16 7.27754 11.4513 7.00212C12.0392 6.45127 12.5847 6.17585 13.0932 6.17585C13.1568 6.17585 13.2256 6.17584 13.2998 6.18644C13.3739 6.19173 13.4375 6.20233 13.4958 6.21822C13.9036 6.38772 14.1578 6.49894 14.2585 6.55721C14.5392 6.7214 14.7299 6.92267 14.8305 7.16102ZM12.6907 9.51272C12.5477 9.59216 12.3729 9.63983 12.161 9.66102C12.1822 9.63983 12.2193 9.60275 12.2775 9.54979C12.3358 9.49682 12.3782 9.45974 12.4153 9.43856C12.4523 9.41737 12.4841 9.40678 12.5212 9.40678C12.59 9.40678 12.6483 9.44386 12.6907 9.51272ZM7.23517 6.55721L6.38771 7.05508C6.31886 6.82203 6.28178 6.57309 6.28178 6.31356C6.28178 6.13877 6.30297 5.98517 6.34004 5.85276C6.37712 5.72034 6.44597 5.60911 6.53602 5.51907C6.65784 5.53496 6.76377 5.56674 6.86441 5.625C6.96504 5.68326 7.0286 5.76271 7.06568 5.86865C7.11335 5.96928 7.15042 6.07521 7.17691 6.18644C7.20339 6.29767 7.21928 6.42479 7.23517 6.55721Z" fill="white"/>
</svg>
