<svg width="20" height="9" viewBox="0 0 20 9" fill="none" xmlns="http://www.w3.org/2000/svg">
<path fill-rule="evenodd" clip-rule="evenodd" d="M20 1.89558C19.947 1.87288 19.8865 1.8199 19.8184 1.74045C19.7503 1.66099 19.6973 1.58154 19.6557 1.50587L19.5725 1.72531C19.5725 2.0053 19.6027 2.34583 19.6633 2.75067C19.8033 3.68143 19.8714 4.27167 19.8714 4.52138V4.99433C19.8714 5.5316 19.86 5.92131 19.8335 6.15589C19.7919 6.54938 19.7049 6.92017 19.5687 7.26448C19.5687 5.0246 19.3833 2.83012 19.0163 0.681051C19.0352 0.571327 19.0692 0.461598 19.126 0.344307C19.1638 0.272419 19.2244 0.17026 19.3152 0.0340508C19.4589 0.336737 19.5952 0.650778 19.72 0.972383C19.8449 1.29777 19.9357 1.60424 19.9962 1.89558H20ZM16.7234 0.11729C16.6326 0.238365 16.4964 0.344303 16.3148 0.435109C16.0613 0.563751 15.8078 0.688613 15.5505 0.817255C15.5127 0.794553 15.5202 0.749156 15.5694 0.681051C15.7283 0.541059 15.9137 0.42755 16.1332 0.336744C16.2316 0.295125 16.3413 0.249719 16.4699 0.204317C16.5986 0.158914 16.6818 0.128641 16.7234 0.11729ZM16.8672 1.381C16.784 1.53991 16.6326 1.66478 16.4207 1.76315C16.2089 1.86152 16.0045 1.95233 15.8116 2.03557C15.8116 1.98638 15.8381 1.93341 15.8948 1.87288C15.9667 1.80477 16.0197 1.75937 16.0499 1.7291C16.0424 1.72153 16.0008 1.69505 15.9213 1.64586C15.8418 1.59667 15.7927 1.55128 15.7662 1.50966C15.7889 1.39615 15.8456 1.29399 15.9327 1.20696C16.0197 1.11994 16.1294 1.04427 16.2543 0.983733C16.3526 0.983733 16.417 1.01779 16.4548 1.08211C16.4775 1.16535 16.4397 1.23345 16.3375 1.28264C16.2959 1.27129 16.2656 1.25993 16.2467 1.25615C16.1748 1.23345 16.118 1.23345 16.0726 1.25615L15.9818 1.34695C16.0424 1.40749 16.1143 1.44911 16.1937 1.47559C16.277 1.4983 16.3753 1.51722 16.4888 1.52857C16.5305 1.4983 16.5986 1.46803 16.6932 1.44154C16.7877 1.41506 16.8445 1.39614 16.8596 1.381H16.8672ZM18.1309 1.72531C17.9115 1.15021 17.6958 0.575104 17.4764 0C17.3969 0.0529701 17.3212 0.143781 17.2493 0.264855C17.2115 0.325392 17.1623 0.435111 17.0942 0.590237C17.238 1.14642 17.3742 1.7972 17.4953 2.54257C17.5936 3.20848 17.692 3.87061 17.7942 4.53273C17.8017 4.63489 17.8055 4.73704 17.8131 4.83541C17.8207 4.93379 17.8207 5.03216 17.8207 5.13053C17.8207 5.28944 17.8055 5.42565 17.7715 5.54673C17.7374 5.6678 17.6731 5.76996 17.5747 5.85699C17.5747 5.78888 17.5747 5.68672 17.5823 5.54673C17.5899 5.40674 17.5899 5.30458 17.5899 5.23647C17.5899 5.12297 17.5823 5.01703 17.5709 4.92623C17.5596 4.83542 17.5331 4.75218 17.4991 4.67272C17.3704 4.41166 17.2115 4.15816 17.0185 3.91601C16.8256 3.67007 16.4775 3.30686 15.9743 2.82256C15.5392 2.39123 15.2478 2.09989 15.104 1.94098C14.79 1.60046 14.5516 1.29399 14.3852 1.01401C14.4268 1.04428 14.476 1.07454 14.5289 1.10102C14.5819 1.12751 14.6387 1.13129 14.6916 1.11616C14.5819 0.945899 14.4381 0.77564 14.2565 0.609162C14.1657 0.525924 13.9917 0.378366 13.7306 0.174053C13.6322 0.332963 13.5868 0.48809 13.5868 0.647C13.5868 0.919418 13.776 1.2675 14.1582 1.69126C14.4117 1.97503 14.5743 2.168 14.6387 2.26258C14.8581 2.57284 15.21 2.9512 15.7019 3.39766C16.084 3.74196 16.311 3.95006 16.3829 4.02573C16.7461 4.38139 17.0072 4.68407 17.1623 4.93379C17.3855 5.28566 17.4991 5.64889 17.4991 6.02346C17.3401 6.19751 17.1737 6.3602 16.9921 6.50397C16.8407 6.62505 16.6553 6.74991 16.4397 6.87477C16.417 6.89369 16.1748 7.03368 15.7208 7.29097C15.5921 7.36285 15.4559 7.44987 15.3046 7.54446C15.4484 7.49149 15.7359 7.41204 16.1635 7.31367C16.591 7.21529 16.905 7.10935 17.1131 6.99962C17.4385 6.67423 17.6769 6.28074 17.8207 5.81915C17.9417 5.43322 18.0023 4.96785 18.0023 4.43058C18.0023 4.03709 17.9644 3.57548 17.8925 3.04956C17.8207 2.52365 17.7488 2.028 17.6845 1.55883L17.7942 1.37723C17.8434 1.44533 17.8963 1.51343 17.9569 1.58532C18.0174 1.65721 18.0742 1.70262 18.1309 1.72154V1.72531ZM13.0533 1.18047C13.0609 1.26371 13.0382 1.34696 12.9928 1.42263C12.9474 1.4983 12.902 1.57397 12.8604 1.64586C12.7696 1.74423 12.6561 1.78964 12.5236 1.78964C12.4631 1.78964 12.4177 1.78207 12.3874 1.77072C12.3193 1.70262 12.2891 1.62316 12.2891 1.52478C12.2891 1.44154 12.3307 1.32425 12.4177 1.18047C12.5463 0.968594 12.6107 0.855097 12.6182 0.836179C12.6296 0.896717 12.6031 0.987523 12.5426 1.1086C12.4782 1.22967 12.448 1.31669 12.448 1.37344C12.448 1.44533 12.4858 1.50587 12.5577 1.55506C12.6258 1.56262 12.6788 1.55505 12.7166 1.53992C12.7544 1.52479 12.8112 1.49452 12.8831 1.44533C12.8755 1.39614 12.8377 1.33561 12.7696 1.25994C12.7015 1.18427 12.6636 1.13129 12.6636 1.10102C12.6636 1.05184 12.7015 1.00265 12.7809 0.957245C12.8188 0.976163 12.8604 1.00643 12.9096 1.05183C12.9588 1.09724 13.0079 1.14264 13.0533 1.18426V1.18047ZM12.4555 0.0832392C12.0923 0.181612 11.661 0.321607 11.1653 0.510786C10.8854 0.612942 10.4616 0.775631 9.89406 1.00265C9.81082 1.014 9.73515 1.06697 9.66705 1.15777C9.62543 1.21831 9.58381 1.30156 9.54975 1.40372C10.4767 1.02157 11.4037 0.639426 12.3383 0.249718L12.4555 0.0870265V0.0832392ZM10.7302 2.69013C10.6319 2.85282 10.5373 3.01551 10.4389 3.17064C10.3481 3.15172 10.2459 3.11767 10.1286 3.06091C9.99622 2.98903 9.89406 2.93607 9.82974 2.9058C9.85244 2.80364 9.89784 2.70148 9.95838 2.60689C10.0189 2.50852 10.0908 2.40636 10.1778 2.29664C10.2913 2.34582 10.4086 2.39123 10.5221 2.43285C10.6508 2.50095 10.7189 2.58419 10.7302 2.68634V2.69013ZM14.2641 7.48392C14.1506 7.68823 13.9841 7.85849 13.7684 7.99092C13.5528 8.12334 13.3295 8.19145 13.0912 8.19145C12.9588 8.19145 12.8453 8.17632 12.7544 8.14227C12.6636 8.10822 12.5955 8.04389 12.5539 7.94552C12.5842 7.80552 12.6447 7.68067 12.7393 7.56338C12.8339 7.44609 12.9512 7.36663 13.0874 7.31744C13.0458 7.28717 12.9815 7.26069 12.902 7.24178C12.8188 7.21908 12.7469 7.20016 12.6788 7.18124C12.709 7.0526 12.7809 6.99206 12.8982 6.99206C12.9663 6.99206 13.0344 7.00719 13.1025 7.04125C13.1706 7.0753 13.2387 7.10557 13.3068 7.13584C13.3447 7.26448 13.2539 7.38555 13.0382 7.50662C12.8226 7.62769 12.7166 7.70337 12.7166 7.73364C12.7166 7.80174 12.8188 7.86985 13.0269 7.94174C13.5187 7.94174 13.9274 7.78661 14.2603 7.48014L14.2641 7.48392ZM8.81574 1.82748C8.7779 1.80856 8.74385 1.77828 8.70602 1.73666C8.65305 1.66856 8.60008 1.60046 8.55089 1.52857C8.55089 1.88044 8.58116 2.3042 8.63791 2.80363C8.69467 3.30307 8.75142 3.78359 8.80439 4.2414C8.81196 4.36248 8.81952 4.47597 8.82709 4.5857C8.83466 4.69542 8.84223 4.82028 8.84223 4.95649C8.84223 5.32728 8.80439 5.66024 8.7325 5.96292C8.66061 6.26561 8.53197 6.56073 8.35036 6.85207C8.44117 6.42074 8.48657 5.95157 8.48657 5.437C8.48657 4.96405 8.44873 4.45328 8.37685 3.89709C8.30496 3.34469 8.22929 2.77715 8.15361 2.19826C8.07794 1.61937 8.04011 1.12373 8.04011 0.715102L8.33144 0.177829C8.35036 0.245933 8.44117 0.514573 8.60386 0.98752C8.71737 1.32048 8.78926 1.60046 8.81196 1.82369L8.81574 1.82748ZM16.224 4.25275C16.1445 4.19978 16.0613 4.15059 15.9705 4.10897C15.8797 4.06735 15.7737 4.02194 15.6527 3.97276C15.2781 3.87439 14.9035 3.77602 14.5365 3.67386C13.7722 3.4809 13.1328 3.38252 12.6107 3.38252C12.3383 3.38252 12.0583 3.40901 11.7745 3.46576C11.5815 3.57927 11.4302 3.76088 11.3205 4.0106C11.2524 4.15437 11.1843 4.38139 11.1124 4.68407C11.1729 4.8846 11.3205 5.05108 11.5588 5.18351C11.6875 5.25161 11.8804 5.35755 12.1415 5.50133C11.7556 5.66024 11.3659 5.81536 10.9799 5.97428C10.6773 6.09535 10.367 6.26183 10.053 6.47371C9.79947 6.64776 9.5157 6.87099 9.19788 7.13584C8.65305 7.60878 8.37685 7.84715 8.37306 7.85471C8.05146 8.11957 7.76012 8.32766 7.50284 8.47144C7.43095 8.48279 7.3742 8.49035 7.34014 8.49035C7.25691 8.49035 7.18123 8.47522 7.11313 8.44495C7.04503 8.41468 6.99205 8.36171 6.95044 8.28982C6.93152 8.16118 6.92395 8.03632 6.92395 7.90768C6.92395 7.56337 6.99584 7.23042 7.13583 6.90882C7.27961 6.58722 7.48014 6.29589 7.7412 6.02725C7.7412 6.01968 7.74877 5.98562 7.76769 5.9213C7.78661 5.85698 7.79417 5.80402 7.79417 5.7624C7.79417 5.66402 7.75634 5.59213 7.68445 5.54294C7.48014 5.4824 7.26447 5.45214 7.04124 5.45214C6.81801 5.45214 6.30723 5.54673 5.48997 5.73212C5.11918 5.81536 4.80893 5.86077 4.55543 5.86077C4.44192 5.87212 4.04843 5.94779 3.37495 6.08778C2.87174 6.18993 2.45933 6.24291 2.14151 6.24291C1.78585 6.24291 1.47181 6.18994 1.20696 6.08021C0.896708 5.95157 0.639425 5.74726 0.427545 5.46349C0.374574 5.3235 0.344306 5.1835 0.344306 5.03594C0.344306 4.88838 0.367007 4.73704 0.408627 4.58948C0.450246 4.44571 0.507 4.3095 0.571321 4.18843L0.881574 4.16951C1.05562 4.05979 1.16156 3.84412 1.19939 3.51495C1.20696 3.41658 1.2221 3.27658 1.2448 3.0874C1.2221 3.12902 1.19939 3.17064 1.17669 3.21604C1.15399 3.25766 1.14642 3.29928 1.14642 3.34468C1.11616 3.40522 1.07832 3.44684 1.03292 3.46576C0.987514 3.48846 0.911843 3.49225 0.802119 3.4809C0.628074 3.28794 0.537268 3.03822 0.537268 2.73553C0.537268 2.53122 0.575104 2.29286 0.654559 2.028C0.684828 1.91828 0.760499 1.70261 0.881574 1.38479C0.688611 1.66478 0.537268 1.94855 0.427545 2.23988C0.295119 2.58419 0.227015 2.91336 0.227015 3.21983C0.227015 3.37117 0.249716 3.53008 0.291336 3.69278C0.332955 3.85547 0.393492 4.00303 0.472947 4.13924C0.283768 4.5857 0.177828 4.84299 0.155127 4.90353C0.0529701 5.19486 0 5.46349 0 5.71321C0 5.76239 0.00756723 5.84185 0.018918 5.94779C0.268634 6.29209 0.575104 6.54181 0.945895 6.69315C1.25993 6.82179 1.63829 6.88233 2.08097 6.88233C2.45176 6.88233 2.90201 6.82936 3.43549 6.7272C3.73061 6.67423 4.16951 6.58343 4.74461 6.45479C5.1154 6.35641 5.48619 6.26183 5.86076 6.16345C6.09535 6.10292 6.32236 6.07265 6.53424 6.07265C6.66288 6.07265 6.76882 6.084 6.85963 6.10292C6.95044 6.12562 7.03367 6.14832 7.10556 6.17102C7.12826 6.25426 7.08286 6.34885 6.96179 6.45101C6.80288 6.591 6.71964 6.66666 6.70829 6.67802L6.6818 6.65154C6.46235 6.8218 6.25047 6.99206 6.03859 7.15854C5.78509 7.35907 5.63375 7.56338 5.58456 7.77526C5.79644 7.61257 6.04994 7.43474 6.34885 7.23799C6.60235 7.0753 6.85585 6.91261 7.11313 6.74613C6.9807 7.04125 6.89368 7.25691 6.84828 7.38933C6.76504 7.64283 6.71964 7.86985 6.71964 8.07038C6.71964 8.3428 6.78774 8.57359 6.92773 8.75898C7.01097 8.82709 7.11691 8.85736 7.24555 8.85736C7.29852 8.85736 7.37041 8.84979 7.45744 8.83087C7.54446 8.81196 7.61256 8.79682 7.66175 8.78547C8.53197 8.11199 9.02384 7.73364 9.13356 7.6504C9.45517 7.41582 9.75407 7.20772 10.0341 7.03367C10.4881 6.74234 10.9118 6.51155 11.3053 6.34507C11.7707 6.14076 12.2285 5.99698 12.675 5.91752C12.7128 5.93644 12.7469 5.97806 12.7809 6.04995C12.815 6.11806 12.849 6.16345 12.8869 6.18237L12.9058 5.85699C13.2614 5.75483 13.636 5.6451 14.0219 5.53159C14.4079 5.41808 14.8089 5.29702 15.2213 5.17595C15.5165 5.09271 15.7435 4.98298 15.8948 4.85055L16.2505 4.25275H16.224ZM4.68407 0.684827L4.6765 0.885356C4.64624 0.904274 4.60462 0.900495 4.55543 0.877793C4.50246 0.855092 4.46841 0.839955 4.44949 0.839955C4.3776 0.953462 4.31328 1.20318 4.26031 1.58532C4.23761 1.7745 4.19599 1.92585 4.14302 2.03935C4.07492 1.9599 4.01059 1.83504 3.94627 1.65721C3.88195 1.48317 3.8252 1.3583 3.7798 1.28641C3.75709 1.32803 3.72683 1.35074 3.68899 1.35074C3.67764 1.35074 3.6398 1.34318 3.57927 1.33183C3.51873 1.25994 3.47711 1.20697 3.45062 1.1767C3.40144 1.11616 3.37874 1.0594 3.37874 1.00265C3.37874 0.972378 3.3863 0.938333 3.40522 0.904281L3.5944 0.722665C3.72683 0.821038 3.83655 0.968595 3.91979 1.16912C4.05978 1.49451 4.13167 1.66099 4.13924 1.66856C4.17707 1.59667 4.21112 1.40371 4.24896 1.08589C4.2868 0.768065 4.41165 0.612938 4.6311 0.612938L4.68407 0.684827ZM6.09156 3.77223C6.11048 3.84412 6.10291 3.91979 6.07265 3.99925C6.01968 4.09762 5.97806 4.1695 5.95535 4.21869C5.944 4.21869 5.91373 4.22627 5.86833 4.2414C5.82293 4.25654 5.78888 4.25653 5.76239 4.23761C5.6905 4.14681 5.65267 4.05222 5.65267 3.95763C5.65267 3.84791 5.69429 3.71169 5.78131 3.549C5.82293 3.47711 5.86455 3.40144 5.90995 3.32198C5.90995 3.3636 5.8986 3.42036 5.87212 3.49604C5.81915 3.65495 5.78888 3.75331 5.78888 3.79493C5.78888 3.86682 5.82293 3.93492 5.88725 3.99546C5.92509 3.99546 5.95535 3.96141 5.98562 3.89709C6.01589 3.82899 6.04994 3.79115 6.084 3.7798L6.09156 3.77223ZM4.76731 2.30042C4.71434 2.46312 4.6084 2.59932 4.44949 2.70526C4.29058 2.8112 4.1241 2.87174 3.94249 2.89066C3.96141 2.83769 4.02194 2.7885 4.1241 2.74688C4.36625 2.64473 4.51003 2.5577 4.55165 2.49338C4.51003 2.48581 4.42679 2.47447 4.30193 2.45555C4.17707 2.43663 4.08627 2.42906 4.02573 2.42906C3.91222 2.42906 3.81385 2.45177 3.73439 2.50095C3.81385 2.39123 3.86303 2.32691 3.87817 2.31177C3.93871 2.25124 4.00681 2.2134 4.08627 2.20205C4.32085 2.20205 4.54786 2.2361 4.76731 2.30042ZM2.73174 3.8252C2.69391 4.01438 2.65986 4.13546 2.62202 4.19221C2.58418 4.24897 2.52743 4.29058 2.44798 4.31328C2.40636 4.29436 2.36474 4.27545 2.33069 4.24896C2.29285 4.22626 2.27393 4.19599 2.26636 4.16194C2.2588 4.12789 2.2588 4.08627 2.2588 4.04087C2.2588 3.95763 2.2815 3.86682 2.32312 3.77602C2.36474 3.68521 2.40636 3.59818 2.45176 3.51116C2.45176 3.53386 2.44041 3.59063 2.42149 3.67386C2.39879 3.7571 2.39122 3.82142 2.39122 3.86304C2.39122 3.9425 2.42906 4.00303 2.50095 4.04465C2.56148 4.05221 2.60689 4.01438 2.64094 3.93871C2.67499 3.86304 2.70526 3.82141 2.73553 3.81763L2.73174 3.8252ZM4.12032 7.87363C4.02951 8.07794 3.90087 8.27091 3.73061 8.44495C3.5717 8.34658 3.45819 8.27091 3.3863 8.21793C3.25388 8.11956 3.17821 8.02498 3.15929 7.9266L3.53008 7.46501C3.74196 7.55581 3.93871 7.69202 4.12032 7.87363ZM15.1457 4.59705C14.3398 4.85811 13.5452 5.08136 12.7582 5.27053C12.675 5.06622 12.4934 4.88082 12.2134 4.71812C11.8426 4.49868 11.6232 4.3549 11.5513 4.28301C11.6194 4.19978 11.7026 4.13924 11.8048 4.10519C11.9069 4.07113 12.028 4.056 12.168 4.056C12.2399 4.056 12.3534 4.06357 12.5047 4.07492C12.6561 4.08627 12.762 4.09384 12.8226 4.09384C13.1177 4.15437 13.4166 4.21112 13.7117 4.26788C14.3095 4.38138 14.79 4.4949 15.1457 4.60462V4.59705Z" fill="white"/>
</svg>
