<svg width="20" height="14" viewBox="0 0 20 14" fill="none" xmlns="http://www.w3.org/2000/svg">
<path fill-rule="evenodd" clip-rule="evenodd" d="M20 2.86586C19.9723 2.77717 19.9058 2.66076 19.7949 2.52218C19.684 2.37806 19.5787 2.24502 19.4845 2.12307C19.429 2.23948 19.3958 2.35588 19.3792 2.48338C19.3625 2.60533 19.3514 2.73837 19.3514 2.87141C19.3514 3.00445 19.3625 3.20953 19.3902 3.48115C19.418 3.75831 19.429 3.97451 19.429 4.13527C19.429 4.49003 19.4568 4.9224 19.5067 5.42683C19.6286 6.61309 19.6951 7.36698 19.6951 7.68848C19.6951 8.32596 19.6619 8.87473 19.5898 9.32373C19.5177 9.77827 19.3681 10.2217 19.1353 10.6541C19.1962 10.0665 19.2295 9.44568 19.2295 8.79158C19.2295 8.06542 19.1851 7.23947 19.102 6.30821C19.0188 5.38249 18.9302 4.42905 18.8415 3.44789C18.7528 2.46674 18.7084 1.65189 18.7084 0.992244C18.6752 0.931269 18.653 0.859204 18.653 0.781598C18.653 0.676277 18.6973 0.554324 18.786 0.415743C18.8747 0.277162 18.9634 0.149672 19.0521 0.0221777C19.418 0.892466 19.6508 1.49668 19.7616 1.84036C19.8725 2.18404 19.9501 2.52773 19.9945 2.87141L20 2.86586ZM15.7816 0.0720648C15.8259 0.0443486 15.8537 0.0332581 15.8592 0.0332581H15.8869C15.5044 0.299333 15.1275 0.559873 14.7561 0.820405C13.9246 1.34147 13.4368 1.60755 13.2927 1.60755C13.265 1.60755 13.2539 1.59646 13.2539 1.57983C13.2539 1.5632 13.2761 1.52439 13.3204 1.4745C13.5976 1.13637 14.0854 0.814858 14.7949 0.504437C15.4268 0.227275 15.7539 0.0886999 15.7816 0.0776134V0.0720648ZM15.2217 2.76054C15.1608 2.82151 15.0776 2.85478 14.9667 2.85478C14.9113 2.85478 14.867 2.84369 14.8226 2.81597L14.7672 2.76054C14.7228 2.83814 14.6729 2.92129 14.6231 2.99889C14.5676 3.0765 14.5011 3.12085 14.4124 3.12085C14.2794 3.10422 14.1907 3.05987 14.1408 2.98781C14.0909 2.91575 14.0687 2.82152 14.0687 2.71065C14.0687 2.63305 14.0687 2.5499 14.0798 2.46675C14.0909 2.3836 14.0965 2.29491 14.1075 2.20621C14.1075 2.14524 14.1075 2.09534 14.0965 2.06208L14.1907 1.86254C14.2517 1.92351 14.2849 2.00666 14.2849 2.11752C14.2849 2.18958 14.2849 2.26165 14.2738 2.32817C14.2627 2.40023 14.2572 2.47229 14.2461 2.53881C14.2461 2.72728 14.3459 2.79935 14.551 2.76609C14.6231 2.69402 14.6563 2.59979 14.6563 2.4723C14.6563 2.41686 14.6452 2.33925 14.6286 2.23392C14.612 2.1286 14.6009 2.05101 14.6009 2.00667C14.6009 1.90134 14.6286 1.81818 14.6785 1.75166C14.7062 1.78492 14.7395 1.91796 14.7783 2.15078C14.8171 2.38359 14.9058 2.49446 15.0388 2.49446C15.0942 2.49446 15.1386 2.49446 15.1718 2.48338C15.1885 2.41131 15.1718 2.31153 15.1109 2.18404C15.0554 2.05654 15.0222 1.96231 15.0222 1.91242C15.0222 1.83482 15.0554 1.75721 15.1275 1.68515C15.1885 1.85145 15.2328 1.98448 15.2605 2.08426C15.2882 2.18404 15.2993 2.28937 15.2993 2.40578C15.2993 2.5499 15.2716 2.66631 15.2217 2.76609V2.76054ZM11.3248 0.127501C11.2971 0.277168 11.2251 0.410201 11.1031 0.521066C10.9812 0.63193 10.8426 0.704006 10.6818 0.742809L10.6541 0.704002C10.7761 0.604224 10.9035 0.509989 11.0255 0.410211C10.9257 0.376952 10.8315 0.349233 10.7372 0.338146C10.643 0.32706 10.5321 0.315969 10.3991 0.315969C10.4712 0.182931 10.51 0.110866 10.5211 0.105323C10.582 0.0332608 10.6596 0 10.7483 0C10.7927 0.0166297 10.8869 0.0332635 11.0255 0.0388067C11.1696 0.0498932 11.2639 0.0776168 11.3193 0.133049L11.3248 0.127501ZM15.061 4.54546C14.9834 4.7561 14.9169 4.91131 14.8725 5.01109C14.7949 5.17184 14.7007 5.31597 14.5953 5.44901L13.9024 4.99446C13.9302 4.85034 13.9856 4.70621 14.0687 4.56209C14.1519 4.41797 14.2406 4.27384 14.3293 4.12972C14.4457 4.16298 14.5621 4.22395 14.6896 4.30156C14.8115 4.37916 14.939 4.46231 15.061 4.53991V4.54546ZM9.48448 0.421291L9.42904 0.764969C9.39579 0.753883 9.34035 0.726176 9.26829 0.670744C9.19623 0.615311 9.1408 0.59313 9.09645 0.59313C9.05211 0.726168 9.01885 0.936819 9.00222 1.22507C8.98559 1.51332 8.95787 1.73504 8.92461 1.89579C8.847 1.83482 8.75831 1.7295 8.66962 1.57429C8.43681 1.17518 8.30377 0.953445 8.27051 0.909099C8.25942 0.986704 8.22062 1.03105 8.14856 1.03105C8.0765 1.01442 8.02661 0.997787 7.9878 0.992244C7.94346 0.903552 7.92129 0.825951 7.92129 0.753889C7.92129 0.665197 7.92683 0.59867 7.94346 0.554324C7.95455 0.509978 7.9878 0.443467 8.04324 0.354775C8.20953 0.354775 8.36475 0.476717 8.49778 0.726163C8.6031 0.936806 8.71397 1.15301 8.83038 1.36365C8.93015 0.975622 9.02439 0.576501 9.12417 0.177388C9.19623 0.177388 9.25721 0.205112 9.31818 0.255001C9.37361 0.310433 9.42905 0.36031 9.48448 0.415743V0.421291ZM10.8426 1.74058C10.7428 1.79602 10.4157 1.92352 9.85587 2.12862C9.4235 2.28937 9.08537 2.45012 8.84701 2.62196C8.75831 2.68293 8.66962 2.76055 8.57539 2.85478C8.48115 2.94902 8.40909 3.03217 8.35366 3.09868C8.73614 2.88804 9.07982 2.71066 9.3847 2.57762C9.68958 2.44458 10.0499 2.30045 10.4545 2.15078C10.643 2.0898 10.7705 1.95123 10.8426 1.74058ZM14.5122 7.12861C14.5288 7.20067 14.5122 7.28937 14.4734 7.39469C14.429 7.50001 14.3736 7.59979 14.3126 7.68848C14.2406 7.7162 14.1796 7.71065 14.1242 7.67739C14.0687 7.64413 14.0078 7.56098 13.9357 7.43903C13.9246 7.36143 13.9246 7.29491 13.9246 7.25056C13.9246 6.94014 14.0078 6.6408 14.1796 6.34701C14.1463 6.55211 14.1075 6.75166 14.0743 6.94567C14.0743 7.12306 14.1353 7.26165 14.2627 7.35589C14.3237 7.36697 14.3736 7.3448 14.4069 7.28937C14.4401 7.23394 14.4789 7.18404 14.5122 7.12861ZM10.7483 5.06653C10.5987 5.31597 10.4823 5.49335 10.3936 5.59867C10.3104 5.70399 10.2106 5.74835 10.0942 5.73172L9.35144 5.39912C9.41242 5.23837 9.49002 5.09424 9.57871 4.9612C9.62306 4.88914 9.72838 4.75057 9.90022 4.55101C10.122 4.65079 10.2882 4.71731 10.3936 4.76166C10.5987 4.85035 10.7151 4.95012 10.7539 5.06653H10.7483ZM9.57871 7.12861C9.551 7.30599 9.52328 7.45012 9.50111 7.56653C9.47339 7.68294 9.40687 7.77717 9.30155 7.84369C9.20177 7.84369 9.12417 7.80489 9.06319 7.72174C9.00222 7.60533 8.95787 7.52772 8.93015 7.48337C8.91907 7.43902 8.91907 7.37805 8.91907 7.2949C8.91907 7.02883 8.98004 6.78494 9.10754 6.56321C9.07982 6.77385 9.06874 6.90687 9.06874 6.9623C9.06874 7.09534 9.08536 7.20621 9.12417 7.2949C9.15743 7.38359 9.22395 7.45566 9.32372 7.50555C9.39579 7.48892 9.44013 7.42241 9.45676 7.306C9.47339 7.18959 9.51774 7.12862 9.5898 7.11753L9.57871 7.12861ZM17.2561 2.84368C17.1397 2.36696 17.0067 1.90133 16.857 1.45787C16.7406 1.13082 16.5743 0.687367 16.3525 0.127501C16.0698 0.36586 15.9257 0.67074 15.9257 1.04768L16.6685 7.62195L16.7239 8.47561C15.765 8.86364 14.806 9.25722 13.8525 9.64525C13.4257 9.806 12.9545 10.1275 12.4446 10.6153C12.0122 11.0255 11.5798 11.4357 11.153 11.8514C10.6541 12.2783 10.1663 12.5443 9.67849 12.6497C9.41242 12.6164 9.19069 12.4612 9.0133 12.184C9.0133 11.9291 9.06874 11.6519 9.17406 11.3581C9.36253 10.9424 9.54545 10.5266 9.73392 10.122C10.2384 9.90023 10.7483 9.67295 11.2639 9.44568C11.6353 9.2683 11.929 9.10201 12.1397 8.95234C12.3725 8.69735 12.5388 8.40355 12.6386 8.0765C12.7384 7.74945 12.7938 7.40023 12.7938 7.02329C12.7938 6.86253 12.7827 6.71287 12.7661 6.56321C12.7494 6.41908 12.7273 6.26941 12.7051 6.11974C12.6829 5.97007 12.5942 5.4213 12.4446 4.48449C12.2561 3.3315 12.1674 2.43903 12.1674 1.81265C12.1951 1.84037 12.2949 1.99557 12.4723 2.27828C12.5333 2.3836 12.5942 2.45567 12.6441 2.48892C12.5998 2.14524 12.4834 1.74057 12.3004 1.28049C12.2007 1.03104 12.0455 0.648559 11.8348 0.138581C11.735 0.199557 11.6463 0.310425 11.5687 0.471179C11.5355 0.55987 11.4745 0.698463 11.3969 0.881389L12.2339 6.2694L12.4058 7.94347C12.1231 8.18183 11.7627 8.39802 11.3193 8.58648C10.8814 8.77495 10.2328 9.05765 9.3847 9.42905C8.95233 9.61752 8.49224 9.95012 8.01552 10.4379C7.61641 10.8648 7.22284 11.2916 6.82927 11.7129C6.36918 12.1563 5.90909 12.4501 5.46009 12.5887C5.34368 12.5887 5.23836 12.5665 5.13304 12.5166C5.03326 12.4667 4.95011 12.3947 4.88914 12.2949C4.77273 12.1508 4.71729 11.9734 4.71729 11.7627C4.71729 11.6186 4.74501 11.4634 4.7949 11.2916C4.85033 11.1197 4.91685 10.9534 4.99446 10.7927C5.13858 10.4712 5.33814 10.255 5.59313 10.1386L6.32483 10.061C6.6796 9.9723 6.97894 9.8448 7.22838 9.67295C7.5388 9.46231 7.72173 9.19623 7.77162 8.88581C7.79933 8.6031 7.81042 8.32041 7.81042 8.04879C7.81042 7.48892 7.73836 6.81264 7.59978 6.01442C7.52772 5.59867 7.38913 4.93903 7.17295 4.02994C6.99556 3.27606 6.86253 2.61641 6.77384 2.04546L6.87916 1.81818C6.95676 1.87361 7.05654 1.96231 7.17295 2.09534C7.22838 2.15632 7.31153 2.26165 7.42794 2.40023C7.43902 2.3836 7.47228 2.36697 7.53326 2.36142C7.38359 1.94568 7.20621 1.54657 7.00111 1.16408C6.90133 0.9867 6.68514 0.609755 6.34701 0.0332581C6.33592 0.0609743 6.25831 0.2162 6.10865 0.498905C6.00887 0.687375 5.96452 0.842577 5.96452 0.975615C5.96452 1.08094 5.9867 1.17517 6.03104 1.25278L7.38913 7.49447L7.52217 8.45344C7.3337 8.68625 7.10643 8.84701 6.83481 8.94124C6.56319 9.03548 6.2694 9.07982 5.94789 9.07982C5.54878 9.07982 5.13858 8.79158 4.72284 8.21508C4.45676 7.84923 4.26829 7.61642 4.15188 7.5111C3.85255 7.5887 3.59202 7.74391 3.38137 7.97673C3.21508 8.1652 3.05987 8.41464 2.92683 8.73615C2.81042 9.04657 2.69401 9.35699 2.58315 9.66741C2.43902 10.0333 2.28936 10.3215 2.1286 10.5322C2.00665 10.6375 1.89024 10.7095 1.78492 10.7539C1.6796 10.7927 1.55765 10.8038 1.42461 10.7872C0.997782 10.4767 0.687362 10.061 0.493348 9.53437C0.332594 9.102 0.254989 8.5754 0.254989 7.96565C0.254989 7.73283 0.266075 7.47784 0.293791 7.20068C0.321508 6.92351 0.349224 6.67961 0.388026 6.47451C0.299335 6.61864 0.232816 6.78493 0.194013 6.9734C0.155211 7.16187 0.105322 7.39469 0.0554326 7.67185C0.0221732 7.94902 0 8.25943 0 8.60311C0 9.28493 0.0997781 9.87806 0.293791 10.388C0.526607 10.9756 0.881375 11.4412 1.36918 11.7849C1.90133 11.7849 2.2949 11.5521 2.55543 11.0809C2.72173 10.6098 2.89357 10.1386 3.05987 9.65633C3.27051 9.07983 3.58093 8.69735 3.99113 8.51442C4.03548 8.54768 4.31264 8.8969 4.81707 9.551C5.00554 9.78936 5.2051 9.9612 5.41574 10.0554C5.22173 10.2495 5.05543 10.4656 4.92239 10.7095C4.85033 10.8315 4.73947 11.0754 4.5898 11.4302C4.55654 11.5466 4.52882 11.6408 4.51774 11.724C4.50665 11.8016 4.49556 11.8736 4.49556 11.9346C4.49556 12.306 4.61197 12.6164 4.83925 12.8659C5.04435 13.0543 5.27162 13.143 5.53215 13.143C5.62084 13.143 5.71508 13.1319 5.80931 13.1042C6.18071 12.9379 6.59645 12.633 7.06208 12.2007C7.44457 11.8293 7.82705 11.4579 8.22062 11.0976C8.66408 10.7095 9.08537 10.4435 9.48448 10.2993C9.45122 10.3769 9.30155 10.7095 9.04656 11.2971C8.85809 11.7073 8.74168 12.0455 8.68625 12.3226C8.71951 12.5277 8.8082 12.7217 8.94678 12.8991C9.08536 13.082 9.24612 13.1984 9.43459 13.2539C9.53437 13.2816 9.62306 13.2927 9.70066 13.2927C9.84479 13.2927 9.98891 13.265 10.133 13.204C10.2772 13.1486 10.4157 13.071 10.5377 12.9712C10.7483 12.8104 11.1253 12.5056 11.6574 12.051C12.4446 11.3858 13.0654 10.9202 13.52 10.6597C13.9745 10.3991 14.3902 10.1885 14.7783 10.0333C15.1663 9.87805 15.5876 9.75056 16.0477 9.65633C16.4024 9.53992 16.6685 9.29047 16.8459 8.8969C16.918 8.75278 17.0288 8.39247 17.1785 7.80489C17.1785 7.31708 17.051 6.17517 16.7905 4.3847C16.6741 3.58648 16.6186 2.90467 16.6186 2.33371L16.7627 2.16188C16.8404 2.22285 16.9457 2.37251 17.0676 2.59978C17.1286 2.71619 17.184 2.79935 17.2284 2.85478L17.2561 2.82705V2.84368ZM4.78936 1.19181C4.80599 1.26387 4.81707 1.32485 4.81707 1.38028C4.81707 1.43571 4.81153 1.49113 4.7949 1.55765C4.78381 1.62417 4.7561 1.70732 4.72284 1.80155C4.64523 1.87916 4.53991 1.9235 4.41796 1.9235C4.31818 1.9235 4.24612 1.90133 4.19069 1.85699C4.02439 1.8847 3.80266 2.07317 3.5255 2.42794C3.34811 2.66076 3.20953 2.81596 3.1153 2.89357C2.48337 3.45344 1.89024 3.89136 1.33038 4.21286C1.4745 4.07983 1.79601 3.79712 2.30044 3.3592C2.99335 2.76607 3.49224 2.23947 3.80266 1.77384C3.64191 1.71841 3.54767 1.62972 3.50887 1.49668C3.50887 1.28604 3.53658 1.09202 3.59756 0.920179C3.65299 0.748339 3.75277 0.598678 3.88581 0.476727C4.15188 0.576505 4.36253 0.687367 4.52328 0.820405C4.6286 0.909097 4.71729 1.03106 4.78936 1.19181ZM6.11973 6.56874C6.0643 6.8071 6.04213 6.9346 6.04213 6.94014C5.99778 7.08427 5.92018 7.18958 5.81486 7.26164C5.74279 7.26164 5.68182 7.23393 5.63747 7.17295C5.58758 7.11752 5.54878 7.05101 5.50998 6.97895C5.50998 6.74613 5.53769 6.53548 5.58758 6.34146C5.64302 6.14745 5.72616 5.93127 5.84257 5.704C5.84257 5.76497 5.82594 5.85921 5.78714 5.98116C5.70953 6.26386 5.66519 6.44679 5.66519 6.5244C5.66519 6.6907 5.74279 6.81265 5.89246 6.88471C5.93681 6.85699 5.97007 6.80156 5.99778 6.71287C6.0255 6.62418 6.0643 6.57428 6.11973 6.56874ZM5.22727 4.3847C5.09423 4.70621 4.92794 4.97784 4.72284 5.21066C4.67849 5.1774 4.55654 5.09978 4.35144 4.98891C4.14634 4.87805 4.01885 4.77273 3.96341 4.67849L3.45898 5.44901C3.26497 5.38804 3.09867 5.32151 2.96563 5.24945C2.77716 5.14412 2.67184 5.03881 2.64412 4.92795L3.20399 4.20733L4.0133 4.63415L4.51774 3.93017C4.51774 3.93017 4.66186 4.00777 4.88914 4.12972C5.0388 4.20732 5.14967 4.29601 5.22173 4.3847H5.22727ZM1.4745 5.06098C1.41353 5.449 1.36364 5.73725 1.33038 5.92572C1.25832 6.26386 1.13082 6.49113 0.94235 6.61863C0.837029 6.61863 0.726164 6.59645 0.615299 6.54656C0.504434 6.49667 0.399113 6.43016 0.304878 6.34146C0.216186 6.17517 0.149668 5.97562 0.0997784 5.74835C0.0498893 5.52108 0.0277163 5.30489 0.0277163 5.0887C0.0277163 4.73394 0.088692 4.31819 0.216186 3.83593C0.288249 3.55322 0.4102 3.14857 0.587583 2.62751L0.947894 1.97339C0.842572 2.33924 0.737251 2.69956 0.626386 3.06541C0.504435 3.54213 0.437916 3.95234 0.437916 4.29048C0.437916 4.56764 0.482262 4.81708 0.56541 5.04435C0.648559 5.27162 0.792683 5.46564 0.997783 5.63748C1.13082 5.63748 1.21951 5.54879 1.26386 5.36587C1.3082 5.18294 1.38027 5.08316 1.4745 5.06653V5.06098ZM2.4612 7.36142C2.45011 7.52771 2.43348 7.67739 2.40576 7.79934C2.37805 7.92129 2.2949 8.00998 2.15078 8.05432C2.09534 8.05432 2.03991 8.03771 1.97894 7.9989C1.91796 7.96564 1.87916 7.89913 1.85698 7.81044C1.8459 7.73837 1.8459 7.68848 1.8459 7.64968C1.8459 7.48338 1.86807 7.32262 1.91242 7.17295C1.92905 7.11197 2.03437 6.86253 2.23392 6.43016C2.25055 6.51885 2.21729 6.67407 2.13415 6.89026C2.051 7.10644 2.00665 7.26165 2.00665 7.35034C2.00665 7.5 2.08426 7.61087 2.23392 7.68293L2.4612 7.36142ZM4.61752 1.51886C4.61752 1.51886 4.54545 1.54657 4.48448 1.54657C4.39579 1.54657 4.29601 1.51331 4.19069 1.44124L4.26829 1.10865C4.3459 1.14191 4.41796 1.19734 4.47339 1.26941C4.52882 1.34147 4.57871 1.42461 4.61197 1.52439L4.61752 1.51886ZM4.01885 1.38581C3.84146 1.41907 3.74168 1.37473 3.71397 1.2417C3.72505 1.153 3.76386 1.10865 3.83592 1.10865C3.89135 1.10865 3.9357 1.13083 3.9745 1.16963C4.0133 1.20843 4.02993 1.25279 4.01885 1.29713V1.39136V1.38581Z" fill="white"/>
</svg>
