<svg width="20" height="11" viewBox="0 0 20 11" fill="none" xmlns="http://www.w3.org/2000/svg">
<path fill-rule="evenodd" clip-rule="evenodd" d="M19.9957 2.37078C19.9957 2.37078 19.9701 2.40495 19.9402 2.4135C19.9103 2.42204 19.8889 2.4135 19.8847 2.39214C19.859 2.33234 19.812 2.26827 19.748 2.20846C19.6839 2.14866 19.6198 2.08457 19.56 2.02477L19.4789 2.13584C19.4789 2.59291 19.5173 3.12686 19.5899 3.73344C19.7693 5.18154 19.8548 6.09141 19.8548 6.45878C19.8548 7.18923 19.7437 7.87271 19.5173 8.50919C19.5173 7.7232 19.4831 6.91158 19.4191 6.0786C19.355 5.24563 19.2695 4.4041 19.167 3.5583C19.0645 2.71251 18.962 1.87527 18.8595 1.05511C18.8936 0.93977 18.9406 0.815884 19.0047 0.687734C19.0474 0.606572 19.1158 0.486967 19.2097 0.328915C19.4062 0.773169 19.5515 1.10637 19.6412 1.32422C19.8206 1.74285 19.9402 2.08885 20 2.37078H19.9957ZM15.2072 3.27211C15.22 3.3191 15.2243 3.36608 15.2114 3.40453C15.1986 3.44297 15.1602 3.54121 15.0918 3.69072C14.968 3.71635 14.8697 3.6651 14.7928 3.52841C14.7715 3.45152 14.7629 3.3789 14.7629 3.30201C14.7629 3.19095 14.7843 3.07988 14.8227 2.96455C14.8441 2.90474 14.8868 2.79795 14.9551 2.64845C14.9338 2.77232 14.921 2.86629 14.9082 2.93037C14.8996 2.99444 14.8911 3.03717 14.8911 3.05852C14.8911 3.13541 14.8996 3.19949 14.921 3.25929C14.9423 3.3191 14.9808 3.37035 15.0449 3.41734C15.079 3.42589 15.1089 3.40452 15.1303 3.35753C15.1559 3.31054 15.1773 3.28065 15.1986 3.27638L15.2072 3.27211ZM15.8821 0.563865L10.9013 2.10167C10.6877 2.19138 10.4699 2.28534 10.2435 2.38359C10.0171 2.48184 9.90602 2.63562 9.90602 2.84066C9.99573 2.7296 10.141 2.6399 10.346 2.56301C10.6194 2.46049 10.7817 2.39642 10.8287 2.36651L15.6771 0.820168C15.7241 0.794538 15.7668 0.756089 15.8052 0.7091C15.8437 0.662112 15.8693 0.615125 15.8821 0.563865ZM11.8539 0.982481C11.8283 1.12772 11.8026 1.23025 11.7813 1.29859C11.7386 1.42247 11.6617 1.48227 11.5463 1.48227C11.4566 1.37121 11.4139 1.24306 11.4139 1.09355C11.4139 0.94404 11.4566 0.768901 11.5463 0.572403C11.6147 0.43571 11.6617 0.34174 11.6916 0.286208C11.6916 0.333197 11.6617 0.457069 11.5976 0.653566C11.5634 0.76463 11.5463 0.845786 11.5463 0.901318C11.5463 1.01665 11.5891 1.11491 11.6702 1.18753C11.7044 1.17471 11.7343 1.13627 11.7642 1.08073C11.7898 1.02093 11.824 0.991024 11.8582 0.982481H11.8539ZM11.085 0C11.1064 0.0469885 11.085 0.102522 11.0124 0.162326C10.944 0.222129 10.9013 0.26485 10.88 0.286208C10.4015 0.457075 10.047 0.585219 9.81205 0.666381C9.36779 0.824433 9.02179 0.973941 8.7783 1.11918C8.868 0.956854 9.0047 0.815888 9.19265 0.704824C9.38061 0.593761 9.7736 0.448528 10.3759 0.269118C10.692 0.179413 10.927 0.0897094 11.085 0.00427585V0ZM11.7813 3.59676L11.7087 3.82316C11.6617 3.8317 11.6062 3.79752 11.5378 3.7249C11.4737 3.65229 11.4139 3.62238 11.3584 3.63947C11.3157 3.72063 11.2687 3.90432 11.2132 4.19479C11.1576 4.48099 11.0679 4.68604 10.9355 4.80991C10.9013 4.77574 10.8202 4.60914 10.6877 4.30585C10.5938 4.08799 10.4443 3.98975 10.2478 4.00684C10.2221 3.97266 10.205 3.92994 10.205 3.88295C10.205 3.84878 10.2179 3.79753 10.2478 3.72918C10.2734 3.66083 10.2905 3.60957 10.2905 3.57539C10.3118 3.51986 10.3503 3.49423 10.4144 3.49423C10.44 3.49423 10.4742 3.50278 10.5083 3.52413C10.598 3.6053 10.6707 3.71208 10.7347 3.84023C10.8287 4.03673 10.927 4.23751 11.0209 4.434C11.0978 4.07946 11.1619 3.80606 11.2217 3.61384C11.2815 3.42161 11.3584 3.32764 11.4524 3.32764C11.5421 3.32764 11.6489 3.41734 11.7813 3.59248V3.59676ZM14.5066 9.1542C14.1094 9.65826 13.5797 9.91456 12.9176 9.91456C12.768 9.91456 12.6271 9.90174 12.4989 9.87184C12.4434 9.87184 12.3921 9.84195 12.3452 9.78642C12.2982 9.72661 12.264 9.66681 12.2426 9.59846C12.2683 9.47031 12.3494 9.32934 12.4776 9.17983C12.5459 9.10294 12.6143 9.03032 12.6826 8.95343C12.6698 8.94062 12.6356 8.91927 12.5801 8.89364C12.5246 8.86801 12.4904 8.83383 12.4776 8.79111C12.4776 8.71422 12.5032 8.6416 12.5502 8.56471C12.5716 8.53054 12.6271 8.46647 12.7125 8.36822C12.768 8.33404 12.8236 8.30414 12.8748 8.27424C12.9304 8.24861 12.9816 8.23152 13.0286 8.23152C13.097 8.23152 13.1525 8.26997 13.1909 8.34259C13.1995 8.39812 13.1824 8.44511 13.1482 8.48782C13.0927 8.53054 13.0543 8.56044 13.0244 8.5818C12.9688 8.51345 12.9261 8.47073 12.8919 8.45792C12.8578 8.4451 12.815 8.4451 12.768 8.45792C12.7339 8.49209 12.7082 8.522 12.6869 8.54336C12.6655 8.56899 12.6741 8.59461 12.7082 8.62024C12.7894 8.69713 12.9005 8.73131 13.0372 8.73131C13.1141 8.73131 13.1952 8.72277 13.2849 8.70141C13.3746 8.68005 13.4601 8.6587 13.5412 8.64161C13.4643 8.75695 13.2764 8.87227 12.9774 8.99188C12.6783 9.10721 12.5032 9.261 12.4562 9.45323C12.5502 9.52157 12.6613 9.57283 12.7851 9.607C12.909 9.64117 13.0286 9.65826 13.144 9.65826C13.3746 9.65826 13.6053 9.61128 13.8317 9.52157C14.0581 9.4276 14.2845 9.30799 14.5066 9.15848V9.1542ZM5.41222 1.20888C5.39086 1.3712 5.37804 1.46946 5.3695 1.49509C5.34387 1.61042 5.28834 1.68731 5.20718 1.72149C5.16019 1.74712 5.1132 1.73003 5.07048 1.67023C5.02777 1.61042 5.00214 1.5677 4.99359 1.54207C4.98505 1.51644 4.98505 1.47373 4.98505 1.40539C4.98505 1.27724 5.00641 1.14908 5.0534 1.02948C5.09611 0.909869 5.16446 0.785988 5.25417 0.653566C5.24562 0.700555 5.21999 0.781711 5.17727 0.901318C5.13456 1.01665 5.10893 1.10637 5.10893 1.16617C5.10893 1.26869 5.15164 1.36267 5.23281 1.44383C5.29261 1.44383 5.33533 1.40966 5.35241 1.33704C5.3695 1.26442 5.39086 1.22169 5.42076 1.20888H5.41222ZM17.6036 2.20419C17.5352 1.90517 17.437 1.58907 17.3046 1.26015C17.1764 0.931231 17.0312 0.619389 16.8731 0.328915C16.7834 0.44425 16.7108 0.559588 16.6595 0.679195C16.604 0.794531 16.5485 0.909869 16.4972 1.02948C16.7023 2.01196 16.8304 2.62709 16.8774 2.87484C17.0226 3.61384 17.1294 4.28449 17.2021 4.88253C17.2747 5.48483 17.3088 6.09142 17.3088 6.70654C17.1636 6.86886 16.9927 7.00555 16.7962 7.11662C16.7749 7.12943 16.5869 7.22341 16.2324 7.39427C16.0829 7.45408 15.9205 7.50534 15.7497 7.53951C15.5788 7.57368 15.4122 7.59077 15.2456 7.59077C14.985 7.59077 14.7416 7.55659 14.5109 7.48398C14.2802 7.41136 14.088 7.30885 13.9299 7.17215C14.2717 6.99274 14.5451 6.87313 14.7501 6.80478C15.0662 6.69372 15.3567 6.64246 15.6215 6.64246C15.6685 6.51858 15.7241 6.38615 15.7839 6.24092C15.8437 6.09568 15.8778 5.96754 15.8778 5.8522C15.4549 5.65998 15.0064 5.51473 14.528 5.41649C14.0538 5.31824 13.5797 5.26697 13.1098 5.26697C12.6655 5.26697 12.2213 5.31397 11.777 5.41222C11.6318 5.48911 11.5378 5.60872 11.4951 5.77104C11.4524 5.93337 11.4267 6.12131 11.4267 6.33489C11.4737 6.29218 11.5335 6.26655 11.6062 6.24947C11.6788 6.23238 11.7898 6.20675 11.9393 6.17258C12.1102 6.21957 12.2725 6.3349 12.4306 6.51003C12.5416 6.62537 12.6527 6.78342 12.768 6.97992C12.3494 7.17642 11.9393 7.3302 11.5335 7.43699C11.1277 7.54379 10.7176 7.59504 10.3076 7.59504C10.1709 7.59504 10.0299 7.58651 9.88039 7.57369C9.73516 7.56088 9.60273 7.53951 9.4874 7.51388C9.23537 7.45835 9.00043 7.32592 8.78684 7.10807C8.57326 6.89021 8.42802 6.65955 8.35113 6.40752C8.24861 5.86929 8.18027 5.07048 8.14609 4.01965C8.11192 2.96882 8.09056 2.40923 8.08629 2.34942C8.03076 1.57198 7.92396 0.93123 7.77018 0.431444C7.70184 0.486976 7.64203 0.585216 7.5865 0.730453C7.50534 0.944037 7.45835 1.0551 7.45408 1.06792C7.61213 1.75139 7.71892 2.43485 7.77873 3.11832C7.83853 3.80179 7.86416 4.56215 7.86416 5.39513C7.78727 5.49765 7.70184 5.58309 7.60786 5.65144C7.47117 5.74541 7.29176 5.83084 7.06536 5.89919C6.94148 5.65143 6.80051 5.44639 6.64673 5.27553C6.46732 5.0833 6.26655 4.93379 6.04015 4.82273C5.98035 4.80137 5.91628 4.79282 5.85647 4.79282C5.69842 4.79282 5.57027 4.84836 5.46775 4.95515C5.29688 5.17301 5.16446 5.37377 5.06621 5.56172C4.94233 5.80948 4.88253 6.03161 4.88253 6.23665C4.88253 6.42034 4.92952 6.59547 5.02777 6.7578C5.13029 6.8176 5.23708 6.86031 5.34387 6.88594C5.45493 6.91157 5.57881 6.92012 5.72405 6.92012C5.8821 6.92012 6.0487 6.90303 6.22811 6.86885C6.40752 6.83468 6.5613 6.79624 6.68945 6.7578C6.73217 6.80479 6.7578 6.86458 6.76634 6.9372C6.77488 7.00982 6.7877 7.09526 6.80051 7.19778C6.50577 7.47117 6.22811 7.71892 5.95899 7.93677C5.63862 8.19735 5.33106 8.41521 5.03631 8.59461C4.53652 8.85946 4.11363 9.05595 3.76335 9.17983C3.25929 9.35924 2.79368 9.44468 2.37078 9.44468C2.08458 9.44468 1.81119 9.40196 1.55489 9.31653C1.29859 9.2311 1.06365 9.10295 0.845792 8.93208C0.632208 8.76121 0.4827 8.57752 0.401538 8.37676C0.320376 8.18026 0.277659 7.94959 0.277659 7.68902C0.277659 7.42845 0.320376 7.1337 0.410081 6.77488C0.43144 6.69799 0.50833 6.42887 0.645024 5.96326C0.516873 6.15976 0.414353 6.36053 0.337463 6.55703C0.311833 6.62538 0.247757 6.83468 0.149509 7.18069C0.0512601 7.53097 0 7.86843 0 8.19735C0 8.56044 0.0598035 8.88509 0.179411 9.17129C0.299018 9.4575 0.499787 9.69244 0.777446 9.88039C0.982486 10.0171 1.19607 10.1153 1.41393 10.1709C1.63178 10.2307 1.88381 10.2563 2.16147 10.2563C2.43913 10.2563 2.70824 10.2307 2.96455 10.1751C3.22085 10.1196 3.46433 10.047 3.69927 9.94874C4.45109 9.64118 5.09184 9.2909 5.61726 8.89364C6.28791 8.38958 6.7578 7.82571 7.03118 7.20204L7.15506 6.61683C7.17642 6.5912 7.33447 6.4716 7.62495 6.26656C7.73601 6.1854 7.82144 6.09996 7.88979 6.01025C7.95814 6.57839 8.01794 6.94575 8.07347 7.11662C8.19735 7.51388 8.41094 7.81717 8.7185 8.03075C8.9449 8.16744 9.17129 8.26142 9.39342 8.31268C9.61555 8.36394 9.87612 8.38957 10.1623 8.38957C10.6194 8.38957 11.1448 8.2956 11.73 8.11191C12.1188 7.98803 12.6057 7.80436 13.1867 7.5566C13.5882 7.88552 13.8488 8.08201 13.9641 8.15036C14.1478 8.25288 14.3315 8.32123 14.5194 8.3554C14.7031 8.38958 14.8868 8.40666 15.0748 8.40666C15.4977 8.40666 15.9035 8.31268 16.2836 8.12473C16.6681 7.93677 17.0184 7.68047 17.3387 7.35156C17.4156 7.1337 17.4712 6.9073 17.5139 6.6809C17.5566 6.45023 17.5737 6.22811 17.5737 6.01025C17.5737 5.55319 17.4968 4.86971 17.3473 3.95984C17.1978 3.04997 17.1209 2.37505 17.1209 1.93079L17.1807 1.83682C17.249 1.92652 17.3174 1.99488 17.3815 2.04614C17.4455 2.0974 17.5182 2.14866 17.5908 2.20419H17.6036ZM6.40752 2.46903C6.33917 2.52883 6.26228 2.63563 6.17258 2.78087C6.08287 2.9261 6.00171 3.02862 5.92482 3.08415C5.90346 3.05852 5.77958 2.97737 5.54464 2.84922C5.39513 2.76805 5.34387 2.6698 5.39086 2.55019C5.41222 2.52883 5.47202 2.43913 5.57454 2.28535C5.65143 2.17002 5.72405 2.08885 5.80094 2.03759C5.94618 2.11448 6.0487 2.17001 6.11704 2.21273C6.24519 2.28962 6.34344 2.37505 6.40325 2.46903H6.40752ZM7.12516 3.87442C7.12516 3.98548 7.11235 4.08372 7.09099 4.1777C7.06536 4.27168 7.01837 4.34002 6.94148 4.38701C6.86032 4.39555 6.80051 4.35284 6.76207 4.2674C6.72362 4.18197 6.69799 4.12644 6.68518 4.09654C6.67663 4.05382 6.67663 3.99829 6.67663 3.9214C6.67663 3.79325 6.69372 3.67792 6.72362 3.57967C6.75352 3.48142 6.80478 3.37036 6.87313 3.24648C6.85177 3.36181 6.83896 3.46433 6.82614 3.54976C6.8176 3.6352 6.80906 3.68646 6.80906 3.70781C6.80906 3.88722 6.86886 4.00684 6.99274 4.07518C7.03546 4.00684 7.07817 3.93849 7.12516 3.87014V3.87442ZM5.22853 2.64417C5.1132 2.90901 4.95515 3.13115 4.75865 3.30201C4.65613 3.2892 4.55361 3.25929 4.44682 3.20803C4.34003 3.16105 4.24178 3.11406 4.14353 3.0628C4.14353 2.93892 4.20333 2.79367 4.32721 2.6228C4.34003 2.60145 4.40837 2.51602 4.53225 2.36651L5.22853 2.64417ZM2.74669 0.674919L2.70397 0.90987C2.58009 0.862881 2.49466 0.837245 2.44767 0.837245C2.39214 0.837245 2.3537 0.867148 2.33661 0.931223C2.25972 1.31995 2.19137 1.70868 2.12302 2.10167C2.22554 2.13584 2.31952 2.19137 2.40068 2.26398C2.42204 2.2768 2.49893 2.35797 2.63563 2.51175C2.61 2.69116 2.42631 2.80223 2.09312 2.84922C1.75993 2.8962 1.56343 3.01581 1.5079 3.20803C1.58906 3.59676 1.6745 4.0111 1.7642 4.44254C1.85391 4.87825 1.89663 5.25416 1.89663 5.57454C1.89663 6.02733 1.83682 6.43743 1.71294 6.81333C1.73857 6.70227 1.75993 6.57411 1.77275 6.42887C1.78556 6.28363 1.79411 6.14267 1.79411 6.01452V5.80949C1.78129 5.71551 1.77275 5.64289 1.77275 5.5959C1.74712 5.33533 1.70013 5.04912 1.64032 4.73301C1.45664 3.84451 1.35839 3.36608 1.35412 3.29774C1.37548 3.11833 1.43956 2.96454 1.55062 2.82785C1.66168 2.69116 1.78129 2.61427 1.91371 2.59291C2.04613 2.57155 2.16574 2.55019 2.26826 2.5331C2.19137 2.45194 2.09312 2.40922 1.96924 2.40922C1.90944 2.40922 1.84537 2.41777 1.78556 2.43912C1.75139 2.49466 1.72576 2.53311 1.71294 2.55019C1.68731 2.50748 1.68304 2.45622 1.70867 2.39214C1.7343 2.32807 1.75993 2.26399 1.78556 2.20419L1.9906 2.10167C1.96924 2.05895 1.92226 1.95643 1.84537 1.78556C1.75139 1.55489 1.64887 1.37975 1.54635 1.26441L1.51645 1.37548C1.49082 1.39684 1.4481 1.39256 1.3883 1.35839C1.32849 1.32849 1.2815 1.29432 1.23879 1.26015C1.19607 1.22598 1.17898 1.18326 1.17898 1.13627C1.17898 1.11064 1.18753 1.06365 1.20889 1.00385C1.23024 0.944044 1.23879 0.897056 1.23879 0.871426C1.29432 0.815894 1.34131 0.77317 1.37548 0.743268C1.41393 0.713366 1.45664 0.71337 1.50363 0.747544C1.62751 0.862879 1.73003 1.01666 1.81119 1.20462C1.89235 1.39257 1.97352 1.57197 2.05895 1.74284C2.13584 1.27723 2.17856 1.02093 2.19137 0.973942C2.23836 0.81589 2.31952 0.6792 2.42631 0.563865C2.48612 0.55105 2.54165 0.555317 2.58864 0.572403C2.63563 0.593762 2.68689 0.627931 2.74242 0.674919H2.74669ZM7.5865 8.76548C7.55233 9.03887 7.47971 9.28235 7.37292 9.50021C7.26185 9.71379 7.09526 9.89321 6.86886 10.0384C7.0141 9.8334 7.12089 9.67963 7.19778 9.57711C7.33447 9.38488 7.40282 9.21828 7.40282 9.07304C7.40282 8.97052 7.37292 8.87655 7.30884 8.78685C7.26613 8.76549 7.22768 8.77403 7.18924 8.8082C7.15079 8.84237 7.12089 8.85946 7.1038 8.85946C7.12516 8.76548 7.15079 8.68432 7.18496 8.62452C7.21914 8.56472 7.27894 8.51773 7.3601 8.4921C7.42845 8.4921 7.47971 8.522 7.51388 8.58608C7.52243 8.59889 7.54379 8.66296 7.5865 8.76976V8.76548ZM3.68219 5.65997C3.65656 5.76249 3.62238 5.86929 3.58821 5.98463C3.55404 6.09569 3.49851 6.18112 3.42589 6.23665C3.349 6.2452 3.29774 6.22383 3.26356 6.17684C3.22939 6.12986 3.20803 6.07432 3.19522 6.01452C3.18667 5.95471 3.17813 5.8821 3.17813 5.80093C3.17813 5.66424 3.20376 5.51473 3.25929 5.34814C3.29346 5.24562 3.35327 5.10466 3.44297 4.92952C3.43443 4.97224 3.4088 5.07048 3.36608 5.23281C3.32337 5.39513 3.29774 5.51474 3.29774 5.5959C3.29774 5.74114 3.34045 5.86074 3.42161 5.96326C3.48142 5.96326 3.52841 5.91627 3.55404 5.82656C3.57967 5.73259 3.62238 5.68133 3.67792 5.66851L3.68219 5.65997ZM2.9859 7.83426C2.9859 7.95814 2.97736 8.06066 2.956 8.14609C2.93464 8.23153 2.89193 8.29988 2.82358 8.34686C2.74669 8.35968 2.68689 8.34259 2.63563 8.29133C2.58437 8.24007 2.53738 8.17172 2.49893 8.09056C2.47757 8.0094 2.46903 7.92823 2.46903 7.8428C2.46903 7.72746 2.49039 7.59932 2.52883 7.46262C2.55019 7.40282 2.59291 7.28321 2.66126 7.11234C2.66126 7.15506 2.65271 7.23623 2.63135 7.36011C2.61 7.48399 2.60145 7.58223 2.60145 7.65912C2.60145 7.75309 2.61427 7.83425 2.63563 7.89833C2.66126 7.9624 2.70397 8.01793 2.77232 8.06919C2.83212 8.06919 2.87911 8.04357 2.90474 7.99231C2.93037 7.94105 2.96027 7.88979 2.9859 7.83426ZM14.3144 6.23665L13.3917 6.70654C13.2422 6.5015 13.1568 6.37761 13.1354 6.33917C13.0927 6.27082 13.0585 6.19394 13.0329 6.10423C13.2465 6.10423 13.4558 6.11704 13.6651 6.1384C13.8744 6.16403 14.0923 6.19394 14.3144 6.23665ZM6.29645 6.05297C6.24947 6.06152 6.1683 6.07006 6.06151 6.08714C5.95045 6.10423 5.8522 6.11277 5.76249 6.11277C5.67279 6.11277 5.58736 6.09995 5.50192 6.07005C5.41649 6.04442 5.34814 5.99743 5.30115 5.93763C5.2798 5.77531 5.35669 5.6557 5.52755 5.58735C5.67706 5.58735 5.81803 5.63007 5.95472 5.71551C6.08714 5.80094 6.20248 5.912 6.29645 6.0487V6.05297Z" fill="white"/>
</svg>
