<svg width="20" height="9" viewBox="0 0 20 9" fill="none" xmlns="http://www.w3.org/2000/svg">
<path fill-rule="evenodd" clip-rule="evenodd" d="M20 5.96634C20 6.25486 19.9704 6.52118 19.9149 6.7616C19.8594 7.00203 19.767 7.23507 19.6449 7.4681C19.6634 7.29055 19.6782 7.1204 19.6893 6.96135C19.7004 6.8023 19.7078 6.65804 19.7078 6.53598C19.7078 6.42871 19.7078 6.34733 19.7004 6.28814C19.693 6.22896 19.6819 6.14019 19.6634 6.02182L19.0235 1.05789C19.0161 0.991313 19.0124 0.935822 19.0087 0.887736C19.0087 0.83965 19.005 0.802662 19.005 0.773071C19.005 0.614017 19.0272 0.473465 19.0716 0.351401C19.116 0.229337 19.1936 0.114666 19.3083 0C19.4674 0.273719 19.6042 0.56224 19.7226 0.872948C19.8372 1.18366 19.9186 1.48696 19.9667 1.78288C19.9186 1.75329 19.8705 1.7052 19.8151 1.64232C19.7374 1.54245 19.6634 1.43888 19.5931 1.33161L19.5043 1.43888L19.4859 1.42038V1.73109L20 5.96634ZM16.0126 0.0813764C16.0126 0.207139 15.9608 0.292219 15.8535 0.340305C15.3098 0.565938 14.9029 0.732387 14.6366 0.847053C14.1631 1.04679 13.7636 1.23174 13.4381 1.39819C13.5047 1.19105 13.6786 1.032 13.9634 0.924727C14.2482 0.81376 14.5182 0.710188 14.7808 0.610318C14.9806 0.521544 15.1877 0.43277 15.3949 0.343996C15.6797 0.218233 15.8868 0.133165 16.0163 0.085079L16.0126 0.0813764ZM15.9941 3.43629C15.9941 3.62123 15.9201 3.75439 15.7721 3.83577C15.7241 3.84316 15.6834 3.82837 15.6464 3.79138C15.6094 3.75439 15.5872 3.71371 15.5761 3.66562C15.5761 3.48807 15.6131 3.29204 15.6908 3.0812C15.7315 2.97023 15.7758 2.85186 15.8239 2.7335C15.8461 2.80008 15.8313 2.90364 15.7758 3.0516C15.7204 3.19956 15.6908 3.30312 15.6908 3.36231C15.6908 3.46957 15.7426 3.53986 15.8498 3.57685C15.8609 3.56575 15.8794 3.53616 15.909 3.49177C15.9386 3.44738 15.9645 3.42889 15.9941 3.43259V3.43629ZM15.2913 1.97892C15.3024 2.01591 15.2987 2.06029 15.2728 2.11207C15.2506 2.16386 15.2358 2.19346 15.2358 2.20086C15.1655 2.16387 15.0952 2.13057 15.0213 2.09358C15.0028 2.09358 14.9806 2.10098 14.951 2.11948C14.8844 2.20085 14.84 2.3747 14.8178 2.63732C14.7956 2.89995 14.7365 3.06639 14.6477 3.12927C14.5404 2.89254 14.4516 2.7224 14.3814 2.62252C14.3111 2.52265 14.2186 2.47087 14.1076 2.47087C14.0485 2.43018 13.9967 2.3747 13.9486 2.31182C13.9671 2.23044 13.9819 2.15647 13.993 2.09729C14.0041 2.0381 14.0411 2.00111 14.1002 1.99001C14.226 2.027 14.3333 2.12318 14.4294 2.28223C14.5293 2.47827 14.6033 2.61512 14.6514 2.7002C14.6625 2.67801 14.7032 2.52636 14.766 2.24894C14.8141 2.0529 14.8918 1.91973 15.0065 1.84945C15.1359 1.81986 15.2321 1.86055 15.2913 1.97522V1.97892ZM13.6564 3.62863C13.6564 3.7285 13.6416 3.82098 13.612 3.89865C13.5824 3.98003 13.5306 4.03551 13.4529 4.0725C13.342 4.04291 13.268 3.96893 13.2384 3.85057C13.2384 3.57315 13.3087 3.32532 13.4529 3.11449C13.4529 3.14408 13.4418 3.19586 13.4159 3.26614C13.3642 3.4215 13.3346 3.52506 13.3346 3.57685C13.3346 3.67672 13.3716 3.7544 13.4492 3.80618C13.5084 3.82467 13.5528 3.79878 13.5824 3.7359C13.612 3.66932 13.6342 3.63603 13.6527 3.62863H13.6564ZM11.1004 1.19475C11.0782 1.27613 11.0117 1.32051 10.9044 1.32051C10.8563 1.32051 10.8082 1.31311 10.7638 1.29462L10.7453 1.25763C10.6972 1.32421 10.6603 1.37229 10.6344 1.40558C10.6085 1.43887 10.5789 1.45367 10.5493 1.45367C10.4605 1.45367 10.3865 1.44258 10.3311 1.41669C10.2756 1.39449 10.2386 1.34641 10.2201 1.27613C10.2312 1.10598 10.246 0.958013 10.2645 0.839648C10.283 0.721283 10.3311 0.628814 10.405 0.565933C10.4124 0.614018 10.405 0.684296 10.3791 0.784167C10.3569 0.880338 10.3421 0.946922 10.3421 0.983911C10.3421 1.04309 10.3532 1.09488 10.3791 1.13557C10.4198 1.18365 10.4642 1.20585 10.5123 1.20585C10.553 1.20585 10.5974 1.19105 10.6455 1.16146C10.6861 1.12077 10.7083 1.05789 10.7083 0.976517C10.7083 0.939528 10.7083 0.90254 10.7009 0.861852C10.6935 0.821164 10.6898 0.780466 10.6824 0.736079C10.6824 0.676897 10.7046 0.625115 10.7453 0.577029C10.7823 0.614018 10.7971 0.6658 10.7971 0.736079C10.786 0.843348 10.7786 0.917328 10.7786 0.958016C10.7786 1.05419 10.8304 1.09858 10.9377 1.09858C11.0043 1.06899 11.0338 1.0283 11.0338 0.972815C11.0338 0.950621 11.0264 0.906236 11.008 0.847053C10.9895 0.787871 10.9821 0.743478 10.9821 0.713887C10.9821 0.654704 11.008 0.606616 11.0634 0.573326C11.0856 0.610315 11.1078 0.658403 11.1263 0.724983C11.1448 0.791563 11.1522 0.85075 11.1522 0.902535C11.1522 0.980212 11.1337 1.07639 11.1004 1.19475ZM11.2077 2.53375C11.1559 2.67061 11.1115 2.77049 11.0819 2.83707C11.0301 2.94804 10.9562 3.0331 10.8674 3.08489C10.7897 3.08489 10.7009 3.0479 10.6011 2.97762C10.4642 2.87775 10.3791 2.82227 10.3421 2.80747C10.3421 2.7113 10.3865 2.61513 10.4753 2.51156C10.5641 2.40799 10.6529 2.30812 10.7416 2.21564C10.8193 2.25633 10.897 2.29702 10.9821 2.33031C11.0634 2.37839 11.1374 2.44498 11.204 2.53375H11.2077ZM8.90697 1.38709C8.85519 1.40928 8.8108 1.42408 8.78121 1.43148C8.75162 1.43887 8.72573 1.43148 8.69983 1.41299C8.62216 1.33531 8.58517 1.24284 8.58517 1.13927C8.58517 1.07269 8.59996 1.0024 8.62956 0.924727C8.68134 0.806362 8.73682 0.684294 8.78861 0.56223C8.78861 0.591821 8.77381 0.662111 8.74422 0.769379C8.71463 0.880347 8.69983 0.946926 8.69983 0.976517C8.69983 1.07639 8.75162 1.14666 8.85149 1.19105C8.91067 1.18365 8.96246 1.12446 9.00314 1.0135C9.01424 1.05049 9.01794 1.08748 9.00684 1.13187C8.99944 1.17625 8.96246 1.26132 8.90327 1.38339L8.90697 1.38709ZM10.32 4.08729C10.32 4.18346 10.3052 4.26485 10.2793 4.33882C10.2534 4.4128 10.2053 4.48308 10.1424 4.54596C10.0832 4.55706 10.0351 4.53486 9.99445 4.47568C9.95746 4.4165 9.92787 4.37211 9.90938 4.34251C9.89828 4.30183 9.89088 4.24265 9.89088 4.16497C9.89088 4.00962 9.93157 3.85426 10.0166 3.69521C10.0832 3.56944 10.1831 3.43629 10.32 3.28834C10.2127 3.53246 10.1054 3.77289 10.0019 4.01702C10.0019 4.11689 10.0499 4.21306 10.1424 4.30183C10.1905 4.29074 10.2275 4.25374 10.2534 4.19456C10.2793 4.13538 10.3015 4.09839 10.32 4.08729ZM7.73812 0.45497C7.75661 0.484561 7.75661 0.525248 7.73812 0.580731C7.71962 0.632516 7.70853 0.673203 7.70113 0.695397L7.41631 0.569635C7.36453 0.676903 7.32014 0.802666 7.28315 0.950622C7.18698 1.34271 7.1315 1.56094 7.113 1.60903C7.04642 1.56094 6.97244 1.43148 6.89107 1.22434C6.80969 1.0135 6.70982 0.909928 6.59885 0.909928C6.56186 0.909928 6.53597 0.909936 6.51748 0.917333C6.47679 0.880344 6.4546 0.832257 6.4546 0.765677C6.47309 0.65471 6.48419 0.577034 6.49158 0.536346C6.51008 0.514153 6.52857 0.484561 6.55447 0.45497C6.69133 0.514152 6.80969 0.636209 6.90956 0.817456C6.98724 0.976509 7.06492 1.13557 7.13889 1.28722C7.16849 1.12077 7.20178 0.946927 7.23507 0.769379C7.27206 0.588133 7.33494 0.443874 7.43111 0.329208C7.48289 0.32181 7.53468 0.336597 7.58646 0.366188C7.63825 0.39578 7.68633 0.425379 7.73442 0.45497H7.73812ZM9.08822 2.66691C9.02904 2.78527 8.98835 2.87035 8.96246 2.92584C8.91067 3.02571 8.84409 3.09969 8.76641 3.14777C8.67764 3.14038 8.58147 3.11078 8.4816 3.0516C8.32624 2.97022 8.23747 2.92214 8.20788 2.91104C8.22637 2.82227 8.27446 2.72239 8.34844 2.60773C8.37063 2.57074 8.44461 2.47457 8.57037 2.31552C8.67764 2.35621 8.78491 2.3969 8.89958 2.44128C9.02534 2.50046 9.08452 2.57814 9.08452 2.67061L9.08822 2.66691ZM19.164 6.26225C19.1419 6.15498 19.1123 6.06991 19.0827 5.99963C19.0531 5.93305 19.005 5.87017 18.9421 5.81839C18.8127 5.71112 18.6573 5.65933 18.4797 5.65933C18.3688 5.65933 18.2319 5.68153 18.0729 5.72591C17.9138 5.7703 17.7659 5.81098 17.629 5.84427C17.4921 5.17477 17.359 4.50527 17.2295 3.82837C17.3997 3.7211 17.5624 3.59904 17.7178 3.46588C17.8287 3.36601 17.973 3.22175 18.1431 3.0405C18.1653 3.07009 18.1912 3.09599 18.2134 3.12188C18.2356 3.14407 18.2652 3.15517 18.2948 3.14777C18.2948 3.13668 18.3096 3.10339 18.3392 3.04421C18.3688 2.98872 18.3725 2.94064 18.3466 2.90735C18.3096 2.87036 18.2948 2.83336 18.2948 2.79267C18.2948 2.76308 18.3096 2.7113 18.3392 2.63362C18.3688 2.55594 18.3836 2.49677 18.3836 2.45608C18.3836 2.41539 18.3725 2.37471 18.354 2.34142C18.3318 2.30443 18.3133 2.27113 18.2948 2.23414C18.2578 2.17496 18.2171 2.14536 18.169 2.14536C18.1468 2.14536 18.0988 2.16016 18.0285 2.18606C17.9582 2.21195 17.8842 2.26743 17.8102 2.34511C17.7363 2.42648 17.6919 2.51526 17.6734 2.61513C17.7326 2.74459 17.8361 2.85186 17.9841 2.93323C17.9434 3.0331 17.8657 3.14037 17.7474 3.24764C17.6327 3.35861 17.4515 3.48807 17.211 3.64343L16.8559 1.60903L16.9521 1.3686L17.3701 1.84945C17.3035 1.53505 17.174 1.15406 16.978 0.70279C16.9706 0.684296 16.8707 0.458671 16.6747 0.0295976C16.5933 0.0813823 16.5193 0.17755 16.4527 0.314409C16.4232 0.384689 16.3751 0.491952 16.3122 0.63251C16.401 1.17625 16.4934 1.74219 16.5933 2.32662C16.6932 2.91104 16.7857 3.42519 16.8744 3.86166C16.8374 3.89865 16.7191 3.98003 16.5119 4.10949C16.3714 4.19827 16.2752 4.28704 16.2271 4.37582C16.2456 4.36842 16.3566 4.30924 16.5637 4.19087C16.6895 4.12059 16.7967 4.0836 16.8929 4.0836C16.9003 4.12059 16.9669 4.51637 17.0964 5.27465C17.1333 5.47069 17.1629 5.70372 17.1925 5.97744C16.6007 6.24376 15.9941 6.42871 15.3727 6.53598C15.5909 6.30664 15.7574 6.0847 15.8683 5.87017C16.0052 5.61124 16.0718 5.34863 16.0718 5.0897C15.9719 4.94175 15.8239 4.81228 15.6279 4.69762C15.4799 4.60884 15.3024 4.52746 15.0952 4.45718C14.8881 4.35731 14.6847 4.30554 14.4812 4.30554C14.0854 4.30554 13.6305 4.56446 13.1126 5.07861C12.6688 5.52247 12.4246 5.7629 12.3839 5.7962L12.4024 5.58165C12.4616 5.36342 12.506 5.14888 12.5319 4.93805C12.5578 4.72721 12.5726 4.50897 12.5726 4.27594C12.4616 3.29203 12.347 2.30812 12.236 1.32051L12.2989 1.20585L12.617 1.6867C12.6244 1.66451 12.6244 1.62382 12.6244 1.57204C12.4542 1.06159 12.2804 0.55114 12.1102 0.0369913C12.0215 0.118367 11.9623 0.181249 11.9364 0.221937C11.9105 0.262625 11.8439 0.392086 11.7366 0.61402C11.7884 0.887739 11.8772 1.30202 11.9956 1.86425C12.0769 2.32662 12.1213 2.74459 12.1213 3.12558C12.1213 3.30313 12.1398 3.54356 12.1731 3.84317C12.2508 4.50528 12.2878 4.92324 12.2878 5.09339C12.2878 5.26354 12.2804 5.41151 12.2619 5.55207C12.2434 5.69262 12.2101 5.82948 12.1583 5.96634C12.1065 6.1032 12.0289 6.23636 11.9216 6.36952C11.8143 6.50268 11.6775 6.61735 11.5147 6.70983C11.2558 6.70983 11.1078 6.65804 11.0782 6.55817C11.1448 6.34363 11.2114 6.1291 11.2817 5.91086C11.3335 5.74071 11.363 5.58536 11.363 5.4485C11.363 5.31164 11.3372 5.20436 11.2817 5.10819C11.2262 5.01202 11.1781 4.93804 11.1263 4.88996C11.0745 4.84187 11.0117 4.81968 10.934 4.81968C10.6159 5.00462 10.3643 5.24505 10.1868 5.54836C10.0092 5.85167 9.92047 6.16978 9.92047 6.50638C9.8243 6.54337 9.72443 6.57297 9.61347 6.59516C9.5025 6.61735 9.40263 6.63214 9.30645 6.63214C9.22508 6.63214 9.14001 6.62475 9.05863 6.60626C9.10671 6.42871 9.1585 6.24006 9.21398 6.04402C9.26947 5.84427 9.29906 5.67043 9.29906 5.51507C9.29906 5.4448 9.29166 5.37082 9.28056 5.29684C9.26947 5.22286 9.24727 5.15258 9.21768 5.0897C9.16959 5.00093 9.11411 4.93434 9.04383 4.88626C8.97725 4.83817 8.89218 4.82708 8.79231 4.84928C8.49639 5.03422 8.26706 5.28575 8.10801 5.61125C7.94895 5.93675 7.86758 6.27705 7.86758 6.63214C7.8084 6.68393 7.73442 6.70612 7.64564 6.69503C7.36823 6.61735 7.17218 6.47309 7.06122 6.25856C6.97984 6.09951 6.93545 5.86647 6.93545 5.55576C6.93545 5.42629 6.94655 5.22286 6.97244 4.95284C6.99464 4.67912 7.00943 4.47938 7.00943 4.34992C7.00943 4.16128 6.99464 4.00592 6.96505 3.88756C6.89847 3.91715 6.84668 3.99112 6.80599 4.10579C6.76531 4.22046 6.73201 4.29443 6.70982 4.32403C6.62844 4.46088 6.51748 4.56075 6.38062 4.61993C6.24376 4.68281 6.0921 4.71241 5.92935 4.71241C5.88126 4.71241 5.81099 4.70501 5.71481 4.69392C5.61494 4.65693 5.51877 4.61994 5.4263 4.58295C5.33383 4.54596 5.29684 4.45718 5.31533 4.32032C5.19697 4.4017 5.11559 4.49047 5.0712 4.58664C5.02682 4.68282 5.00462 4.78639 5.00462 4.90476C5.00462 4.98243 5.00462 5.03792 5.01202 5.06751C5.01942 5.1008 5.03421 5.16368 5.05641 5.26355C5.0786 5.35972 5.12669 5.52987 5.19697 5.7666C5.24505 5.95524 5.26725 6.1291 5.26725 6.29185C4.85297 6.65804 4.44979 6.95025 4.0614 7.17219C3.62493 7.42002 3.16997 7.60126 2.7039 7.71223C2.47827 7.77141 2.27113 7.801 2.08249 7.801C1.44997 7.801 0.935824 7.57166 0.547439 7.1167C0.380988 6.85038 0.299612 6.55077 0.299612 6.22157C0.299612 6.02183 0.329203 5.80729 0.392084 5.58535C0.454966 5.36342 0.532643 5.14889 0.628815 4.94175C0.44017 5.22656 0.292214 5.50028 0.184945 5.7666C0.0591825 6.0847 0 6.40281 0 6.71722C0 6.73571 -3.44488e-09 6.769 0.00369891 6.82079C0.00369891 6.87257 0.00739781 6.91696 0.00739781 6.95765C0.00739781 7.20547 0.0739782 7.43481 0.20344 7.64565C0.332902 7.85649 0.514148 8.03033 0.743481 8.17459C1.11707 8.37063 1.51655 8.46681 1.94193 8.46681C2.43758 8.46681 2.97022 8.33364 3.53246 8.06732C3.98373 7.85278 4.44979 7.56057 4.93434 7.18698C5.15998 6.97984 5.31903 6.75421 5.4189 6.50638C5.51507 6.26225 5.56686 5.98484 5.56686 5.67783V5.54836C5.56686 5.50398 5.56686 5.45959 5.55946 5.4189C5.80729 5.37081 6.01073 5.30793 6.17348 5.23395C6.38802 5.13408 6.54707 4.99352 6.65434 4.81598C6.69133 4.97503 6.70612 5.14888 6.70612 5.33013C6.69872 5.46699 6.69503 5.60385 6.68763 5.73701C6.68023 5.87387 6.68023 6.00703 6.68023 6.13649C6.68023 6.37322 6.70242 6.57666 6.74311 6.75051C6.7838 6.92066 6.86517 7.07231 6.98724 7.19807C7.1093 7.32384 7.25726 7.39042 7.43481 7.39042C7.56057 7.39042 7.71222 7.35713 7.89717 7.29425C7.99704 7.25726 8.1413 7.20548 8.33364 7.1352C8.43351 7.20178 8.54448 7.24986 8.66284 7.28315C8.78121 7.31644 8.90327 7.33124 9.02534 7.33124C9.22508 7.33124 9.45071 7.29425 9.69854 7.22397C9.8354 7.18328 10.0425 7.11301 10.32 7.00944C10.5271 7.1278 10.7453 7.21287 10.9784 7.26096C11.2077 7.31274 11.4592 7.33494 11.7255 7.33494C11.9401 7.33494 12.4431 7.28685 13.2421 7.19438C13.5898 7.15369 13.882 7.1315 14.1113 7.1315C14.3259 7.18328 14.533 7.21287 14.7328 7.21287C15.1285 7.21287 15.6575 7.08711 16.3122 6.83188C16.7783 6.64694 17.0779 6.53597 17.2073 6.49528C17.2961 6.54707 17.3849 6.70242 17.4736 6.95394C17.5624 7.20547 17.6623 7.37562 17.7696 7.4681C17.8805 7.56057 17.9693 7.61605 18.0396 7.64195C18.1099 7.66414 18.1801 7.67894 18.2541 7.67894C18.3133 7.67894 18.3688 7.67154 18.4243 7.65304C18.624 7.51248 18.7868 7.29794 18.9051 7.01313C18.9865 6.7653 19.0753 6.51378 19.164 6.25856V6.26225ZM6.02552 0.110963C5.98484 0.247822 5.85907 0.343997 5.64823 0.40318C5.4374 0.462362 5.30424 0.514144 5.24505 0.56223C4.62364 0.780466 4.15757 0.946926 3.85056 1.05789C3.28833 1.26503 2.83706 1.47586 2.49306 1.6867C2.48197 1.65711 2.48197 1.62382 2.49306 1.59053C2.54485 1.50915 2.58184 1.44997 2.60033 1.41299C2.94803 1.23544 3.36601 1.0505 3.85056 0.861852C4.4054 0.643616 5.13039 0.392087 6.02552 0.107272V0.110963ZM5.18217 2.81117C5.19327 2.83337 5.20067 2.86295 5.20067 2.89994C5.20067 2.93693 5.18587 2.98132 5.15998 3.0405C5.13409 3.09969 5.11559 3.14037 5.1008 3.16627C5.0712 3.18846 5.04161 3.21065 5.01202 3.23284C4.98243 3.25504 4.96024 3.26244 4.94914 3.26244C4.92695 3.26244 4.90105 3.25134 4.87886 3.22545C4.81228 3.12558 4.78269 3.01091 4.78269 2.87775C4.78269 2.76678 4.80858 2.63732 4.86407 2.49676C4.90105 2.39689 4.95654 2.28223 5.03421 2.14907C4.99353 2.26743 4.96763 2.3562 4.95284 2.41539C4.92325 2.52635 4.90845 2.62252 4.90845 2.7002C4.90845 2.81856 4.94174 2.91844 5.00462 3.00351C5.04531 2.99611 5.0823 2.97392 5.11189 2.93323C5.11929 2.92583 5.14148 2.88515 5.18217 2.80747V2.81117ZM4.47198 1.61273C4.46088 1.67191 4.4091 1.7015 4.32033 1.7015C4.19456 1.7015 4.12058 1.7126 4.09839 1.73849C4.0762 1.76069 4.0688 1.81247 4.0799 1.89015C4.0799 2.13428 4.02441 2.32661 3.90975 2.47457C3.80988 2.26743 3.71001 2.0603 3.60644 1.85316C3.58424 1.89384 3.56205 1.91603 3.54355 1.91603C3.52506 1.91603 3.49917 1.90494 3.45848 1.88645C3.42149 1.86425 3.3993 1.82726 3.3993 1.77547C3.3993 1.73848 3.4067 1.7052 3.41779 1.66821C3.42889 1.63122 3.44368 1.59423 3.46218 1.55355C3.52136 1.50546 3.55835 1.48696 3.57684 1.50176C3.64343 1.55354 3.69891 1.63122 3.74699 1.73109C3.87646 1.99001 3.95043 2.13428 3.96893 2.15647C3.99852 1.97152 4.02811 1.81617 4.054 1.6904C4.0799 1.56464 4.15018 1.47216 4.26114 1.42038C4.33142 1.44257 4.3943 1.46476 4.44609 1.48696C4.49787 1.50915 4.50527 1.54984 4.46458 1.61642L4.47198 1.61273ZM10.8267 7.73072C10.8378 7.7788 10.8267 7.82689 10.786 7.87867C10.749 7.93046 10.7009 7.96745 10.6492 7.99704L9.06973 8.65544C9.1585 8.54448 9.27316 8.44461 9.41002 8.35954C9.55058 8.27446 9.70224 8.19678 9.87239 8.1339C10.0425 8.07102 10.1646 8.02294 10.2423 7.99335C10.4901 7.89718 10.6861 7.8121 10.8267 7.73442V7.73072ZM3.42149 3.59534C3.403 3.61753 3.3734 3.66932 3.32902 3.747C3.28463 3.82467 3.24394 3.88015 3.21065 3.91714C3.11078 3.88755 3.00721 3.83946 2.89994 3.77658C2.79268 3.7137 2.69281 3.64712 2.59663 3.58054C2.61883 3.48067 2.67061 3.37341 2.74829 3.26244C2.84816 3.13668 2.92214 3.0442 2.97022 2.97762C2.99981 3.01461 3.07379 3.05899 3.19216 3.11818C3.4067 3.22545 3.51026 3.31793 3.51026 3.403C3.51026 3.46958 3.48067 3.53246 3.42149 3.59904V3.59534ZM1.7089 1.33161C1.6867 1.49806 1.46477 1.96042 1.04309 2.715C0.858147 3.0479 0.769373 3.32162 0.769373 3.53986C0.769373 3.67672 0.791566 3.79879 0.839652 3.91345C0.887738 4.02442 0.965415 4.14278 1.08008 4.26854C1.13926 4.26854 1.19845 4.23525 1.25393 4.16497C1.30941 4.09839 1.3723 4.01701 1.43518 3.92824C1.3686 4.18716 1.31311 4.37212 1.26503 4.47938C1.17625 4.67913 1.05789 4.83817 0.909932 4.94914C0.810061 4.94914 0.724986 4.91955 0.658406 4.85667C0.591825 4.79379 0.528944 4.70872 0.477159 4.60515C0.44017 4.435 0.425374 4.27224 0.425374 4.11689C0.425374 3.76179 0.514148 3.38821 0.691696 2.99982C0.732384 2.91105 1.07268 2.35621 1.71259 1.33161H1.7089ZM6.90956 8.08582C6.90956 8.08582 6.82449 8.20788 6.70612 8.39653C6.62475 8.53339 6.52488 8.59996 6.41391 8.59996C6.24376 8.49269 6.14389 8.43351 6.12169 8.42241C6.01073 8.36323 5.90346 8.33364 5.80359 8.33364C5.74441 8.42241 5.69262 8.4964 5.64454 8.55558C5.57795 8.64435 5.51877 8.71093 5.45959 8.75901C5.37821 8.74792 5.29314 8.72202 5.21176 8.67764C4.96394 8.55187 4.82708 8.48899 4.80488 8.4816C4.84557 8.37063 4.91955 8.24487 5.02682 8.10801C5.0934 8.02664 5.15258 7.95265 5.20436 7.89347L5.83318 8.19678L6.32883 7.79731L6.91326 8.08212L6.90956 8.08582ZM2.86296 5.4485C2.85186 5.48918 2.79268 5.51508 2.68541 5.51878C2.57814 5.52617 2.52635 5.57055 2.52635 5.65933C2.49676 5.87756 2.47827 6.00703 2.47457 6.04032C2.45238 6.18828 2.42279 6.31404 2.39319 6.41391C2.34511 6.37322 2.26743 6.23636 2.16386 6.00702C2.11578 5.89976 2.06029 5.81098 1.99371 5.7407C1.98262 5.77769 1.95672 5.79249 1.92343 5.79249C1.86425 5.774 1.81986 5.7666 1.79027 5.7666C1.73109 5.71851 1.7015 5.65563 1.7015 5.58165C1.7015 5.55206 1.71629 5.47808 1.74589 5.35971C1.75328 5.33752 1.77548 5.32273 1.81616 5.32273C1.85315 5.32273 1.88274 5.33013 1.90494 5.34123C2.01221 5.43 2.10468 5.54097 2.17866 5.67783C2.26003 5.84798 2.32292 5.97374 2.3636 6.05142C2.40059 5.85538 2.43388 5.68892 2.46717 5.55576C2.50046 5.4189 2.57074 5.31904 2.68541 5.25245C2.82597 5.25245 2.89994 5.28944 2.89994 5.36712C2.89994 5.38931 2.88885 5.41891 2.86296 5.4485ZM18.1764 2.6891C18.1357 2.6965 18.0877 2.67801 18.0396 2.63732C17.9878 2.59664 17.9434 2.55595 17.9027 2.51156C17.9101 2.49307 17.9545 2.45977 18.0433 2.41539C18.1099 2.42278 18.1431 2.45237 18.1505 2.50416C18.1579 2.55594 18.1653 2.61882 18.1764 2.6891ZM18.7905 6.84298C18.6721 6.93176 18.5537 6.97615 18.4354 6.97615C18.3688 6.97615 18.3133 6.96505 18.2652 6.93916C18.0285 6.82079 17.8694 6.63214 17.7844 6.36952C17.8842 6.32883 17.9989 6.30663 18.1321 6.30663C18.2652 6.30663 18.391 6.33623 18.4945 6.39171C18.6018 6.4472 18.6832 6.53967 18.7424 6.66174C18.7535 6.69133 18.7646 6.72091 18.7794 6.74681C18.7905 6.7727 18.7942 6.80599 18.7868 6.83928L18.7905 6.84298ZM15.6575 5.80359C15.3727 6.03292 14.9917 6.21416 14.5108 6.34363C14.0854 6.4324 13.6601 6.52117 13.2421 6.60995L11.9031 6.769C11.9105 6.73201 12.1731 6.4657 12.6947 5.97004C13.1903 5.49658 13.4825 5.22655 13.5639 5.16367C13.7599 5.0675 13.9671 5.02312 14.1853 5.02312C14.4442 5.02312 14.7032 5.0823 14.9547 5.20066C15.2062 5.31903 15.4318 5.47438 15.6353 5.66303L15.6612 5.80359H15.6575ZM10.9895 6.05142C10.9229 6.09211 10.8563 6.13649 10.786 6.18087C10.7157 6.22526 10.6529 6.24746 10.6011 6.24746C10.5493 6.24746 10.5049 6.22526 10.4679 6.18458C10.4309 6.14389 10.3939 6.08841 10.3532 6.02553C10.3126 5.95895 10.2904 5.90346 10.2904 5.85538C10.2904 5.7851 10.3311 5.72591 10.4161 5.67783C10.4679 5.56686 10.5641 5.50768 10.7009 5.50768C10.8674 5.50768 10.9599 5.58536 10.9747 5.73701C10.9858 5.7592 10.9932 5.80359 10.9932 5.86277V6.04772L10.9895 6.05142ZM8.97355 5.84797C9.01424 5.90716 9.03644 5.95894 9.03644 5.99963C9.03644 6.06991 8.98465 6.14018 8.87738 6.20307C8.8256 6.23266 8.74052 6.28074 8.62956 6.34363C8.54078 6.39171 8.4742 6.39911 8.43351 6.36952C8.38173 6.31774 8.32624 6.25855 8.27446 6.19197C8.22267 6.12539 8.19308 6.06621 8.19308 6.00702C8.19308 5.95524 8.21898 5.90346 8.27446 5.85538C8.36323 5.67043 8.50009 5.58165 8.68134 5.58165C8.75162 5.58165 8.8145 5.60384 8.86629 5.64823C8.91807 5.69262 8.95506 5.7592 8.97355 5.84797Z" fill="white"/>
</svg>
