<svg width="20" height="9" viewBox="0 0 20 9" fill="none" xmlns="http://www.w3.org/2000/svg">
<path fill-rule="evenodd" clip-rule="evenodd" d="M20 1.8217C19.938 1.79845 19.8721 1.74031 19.7984 1.65504C19.7287 1.56977 19.6744 1.50388 19.6434 1.46124L19.531 1.5814L19.8178 5.38759C19.8178 5.6279 19.7946 5.86434 19.7442 6.09302C19.7326 6.15504 19.624 6.51938 19.4186 7.18217H19.3721C19.4264 7.03488 19.469 6.86434 19.4961 6.67054C19.5233 6.47674 19.5388 6.27907 19.5388 6.07364C19.5388 5.89535 19.531 5.73643 19.5194 5.60077C19.5078 5.46512 19.4961 5.35271 19.4922 5.26744L19.1008 0.782947C19.0775 0.73256 19.062 0.682171 19.062 0.624031C19.062 0.531008 19.0969 0.434107 19.1628 0.337207C19.2326 0.236432 19.2985 0.143408 19.3682 0.0581372C19.438 0.282943 19.5116 0.503878 19.593 0.728684C19.8411 1.39923 19.9729 1.76356 19.9922 1.82558L20 1.8217ZM15.1357 0.213179L15.0698 0.333334C14.8915 0.449613 14.6744 0.565892 14.4186 0.678295C14.0349 0.844961 13.6512 1.01163 13.2752 1.17054C13.3178 1.12016 13.3605 1.07364 13.407 1.03101C13.4767 0.968994 13.5233 0.926354 13.5543 0.899222C13.7403 0.767439 13.9961 0.643409 14.3256 0.519378C14.8101 0.341084 15.0775 0.236435 15.1357 0.213179ZM16.4922 4C16.4922 4.11628 16.4729 4.2093 16.438 4.27132C16.3992 4.33333 16.3488 4.37209 16.2791 4.38372C16.2248 4.4031 16.1744 4.39922 16.1318 4.37597C16.0891 4.35271 16.062 4.31008 16.0465 4.25581C16.0465 3.92248 16.124 3.64341 16.2791 3.4186C16.2287 3.59302 16.1822 3.76357 16.1395 3.93023C16.1395 4.0155 16.1744 4.09302 16.2403 4.15504C16.2907 4.1783 16.3411 4.17054 16.3876 4.1279C16.438 4.06589 16.4729 4.02713 16.4884 4.00775L16.4922 4ZM17.8411 3.78682C17.8217 3.62016 17.7442 3.18992 17.6085 2.49225C17.5078 1.98837 17.4612 1.56977 17.4612 1.22868L17.8411 1.72093C17.8178 1.47287 17.7364 1.1938 17.6008 0.88372C17.4651 0.573643 17.3333 0.27907 17.2093 0C17.124 0.0736434 17.0581 0.162788 17.0194 0.263563C16.9806 0.364338 16.9419 0.5 16.9031 0.666667C17.0039 1.15116 17.1047 1.65116 17.2093 2.16279C17.314 2.6783 17.407 3.17054 17.4845 3.64729C17.562 4.12016 17.624 4.5814 17.6667 5.02713C17.4806 5.1938 17.2791 5.32171 17.062 5.41473C16.845 5.50388 16.6202 5.55038 16.3915 5.55038C16.2558 5.55038 16.1357 5.53876 16.0271 5.51163C15.9147 5.43798 15.1938 4.88372 13.8605 3.85659C13.3837 3.49225 12.9457 3.18992 12.5504 2.95349C13.1705 2.56201 13.7519 2.24031 14.2907 1.98449C14.9419 1.68217 15.5698 1.45736 16.1783 1.31395C16.2636 1.32171 16.314 1.37985 16.3256 1.49225C16.2403 1.71706 16.0388 2.03876 15.7248 2.46124C15.4109 2.88372 15.2132 3.22093 15.1357 3.47674C15.4574 3.08527 15.6667 2.83333 15.7597 2.71318C15.9225 2.50775 16.0349 2.35271 16.1047 2.24806C16.2054 2.05039 16.3062 1.84496 16.407 1.62791C16.5078 1.41473 16.562 1.21705 16.562 1.03876C16.562 0.922478 16.5388 0.813954 16.4961 0.72093C16.4651 0.713179 16.4186 0.713177 16.3566 0.713177C16.1512 0.713177 15.8798 0.779068 15.5388 0.906975C15.3217 0.988371 15.1667 1.04264 15.0736 1.07365C14.5969 1.28295 14.1202 1.49612 13.6512 1.70542C13.0853 1.96511 12.6667 2.25969 12.3876 2.58914C12.345 2.17829 12.3023 1.75194 12.2558 1.31008C12.2132 0.868219 12.1705 0.48062 12.124 0.151163C12.0736 0.18217 12.031 0.236431 11.9884 0.317826C11.9496 0.399222 11.8992 0.519378 11.845 0.682168C11.9496 1.56201 12.0581 2.46899 12.1705 3.4031C12.2829 4.33721 12.3372 5.19768 12.3372 5.9845C12.3566 6.23256 12.4147 6.45736 12.5155 6.65891C12.6163 6.86046 12.7674 7.00388 12.9729 7.09302C13.0581 7.10465 13.1202 7.11241 13.1589 7.11241C13.345 7.11241 13.5388 7.06202 13.7442 6.96512C13.876 6.9031 14.0465 6.79845 14.2558 6.64728C14.4419 6.54263 14.5969 6.37597 14.7209 6.15504C14.814 5.96124 14.907 5.76744 15 5.56977C15.2093 5.73256 15.376 5.85271 15.4922 5.93411C15.6783 6.05814 15.8527 6.15116 16.0116 6.21318C16.0969 6.23256 16.1822 6.24031 16.2636 6.24031C16.438 6.24031 16.6202 6.20543 16.814 6.13953C16.9457 6.0969 17.1047 6.02325 17.2985 5.92635C17.5233 5.79457 17.6822 5.5969 17.7829 5.32946C17.8643 5.1124 17.9031 4.84496 17.9031 4.53101C17.9031 4.41861 17.9031 4.31395 17.8953 4.22093C17.8876 4.12403 17.8721 3.98062 17.8488 3.78682H17.8411ZM11.3023 0.976746C11.3333 1.1124 11.2868 1.24806 11.1628 1.3876C11.1318 1.39535 11.1047 1.3876 11.0775 1.36822C11.0233 1.29845 10.9845 1.25194 10.9651 1.22868C10.9457 1.15891 10.938 1.0969 10.938 1.03488C10.938 0.918604 10.9612 0.798447 11.0116 0.682168C11.0426 0.608525 11.1008 0.503876 11.1899 0.375969C11.1473 0.5 11.1124 0.604649 11.0891 0.693796C11.0659 0.779067 11.0504 0.844959 11.0504 0.887594C11.0504 0.980618 11.0891 1.06202 11.1628 1.12791C11.2016 1.13566 11.2326 1.11241 11.2558 1.06202C11.2791 1.01163 11.2946 0.984498 11.3023 0.976746ZM16.0271 7.50775C16.0039 7.6124 15.9729 7.70155 15.9419 7.76744C15.9109 7.83721 15.8566 7.89147 15.7829 7.93411C15.6667 7.95349 15.5969 7.92248 15.5814 7.84496C15.5659 7.76744 15.5581 7.70155 15.5581 7.64341C15.5581 7.51163 15.593 7.36822 15.6589 7.20543C15.7209 7.08915 15.7597 7.00388 15.7791 6.95349C15.7713 6.99613 15.7558 7.0814 15.7287 7.2093C15.7015 7.33721 15.686 7.41473 15.686 7.44573C15.686 7.54651 15.7171 7.62791 15.7791 7.69767C15.8488 7.71705 15.8953 7.68992 15.9225 7.62016C15.9496 7.55039 15.9845 7.51163 16.0194 7.50388L16.0271 7.50775ZM10.2132 1.86047L9.90698 2.39923C9.88372 2.36822 9.77519 2.29845 9.5814 2.18605C9.44961 2.10465 9.3876 2.0155 9.3876 1.91473L9.68605 1.44186C9.82171 1.49225 9.93023 1.54264 10.0116 1.60078C10.1279 1.68217 10.1977 1.76744 10.2171 1.86047H10.2132ZM9.60853 0.251936C9.58527 0.17054 9.53101 0.120157 9.44961 0.0930254C9.32558 0.124033 9.22093 0.186045 9.13953 0.282944C9.05426 0.379843 9 0.492248 8.96899 0.624031C8.99225 0.678295 9.05426 0.73256 9.15116 0.782947C9.24806 0.833335 9.3062 0.868216 9.33333 0.895348C9.13953 1.16279 8.89535 1.44186 8.5969 1.73256C8.53488 1.79457 8.26744 2.03876 7.79845 2.46899C8.10077 2.28294 8.39923 2.05426 8.68992 1.77907C8.98062 1.50775 9.22481 1.22093 9.42636 0.922483C9.44961 0.922483 9.48062 0.934105 9.51163 0.953485C9.54263 0.976741 9.56589 0.976745 9.58527 0.957365C9.62791 0.887597 9.65116 0.837208 9.65116 0.798449C9.65116 0.736433 9.6124 0.693799 9.53101 0.666667C9.56977 0.61628 9.59302 0.573642 9.60078 0.531006C9.60853 0.492246 9.61628 0.434106 9.61628 0.360462V0.248062L9.60853 0.251936ZM7.30233 0.957365C7.34109 1.07364 7.31395 1.1938 7.22868 1.31008C7.18992 1.35272 7.15116 1.37597 7.10853 1.37597C7.08527 1.37597 7.03876 1.35659 6.97674 1.32171C6.89535 1.24806 6.85659 1.13953 6.85659 0.996121V0.88372C6.86822 0.833333 6.87597 0.798451 6.87597 0.782947L7.15504 0.251936C7.08527 0.457362 7.02326 0.662789 6.96124 0.864339C6.96124 0.968991 7.00775 1.05814 7.10078 1.12403C7.15116 1.13178 7.18992 1.11628 7.22093 1.08139C7.25194 1.04651 7.27907 1.00388 7.3062 0.957365H7.30233ZM8.81008 3.44186C8.79845 3.55427 8.78295 3.64341 8.76357 3.70543C8.74419 3.77132 8.7093 3.82946 8.65116 3.8876C8.51938 3.8876 8.43798 3.82945 8.39923 3.7093C8.39147 3.68604 8.39147 3.64729 8.39147 3.5969C8.39147 3.44961 8.43798 3.27519 8.53101 3.07752C8.5814 2.97675 8.63178 2.87597 8.67829 2.77132C8.61628 2.97674 8.55814 3.17829 8.5 3.37597C8.5 3.43798 8.50775 3.4845 8.51938 3.51938C8.53101 3.55426 8.56977 3.5969 8.63178 3.64341C8.67054 3.63566 8.70155 3.60465 8.72868 3.54651C8.75581 3.48837 8.78295 3.45349 8.8062 3.43798L8.81008 3.44186ZM12.0659 7.72868C12.0736 7.77907 12.0581 7.84108 12.0271 7.91473C11.9961 7.98837 11.9574 8.05814 11.907 8.12015C11.8527 8.12015 11.8062 8.0969 11.7752 8.05426C11.7442 8.01163 11.7171 7.95349 11.6899 7.8876C11.7093 7.70155 11.7442 7.53488 11.7984 7.38372C11.8527 7.23644 11.9264 7.09302 12.0271 6.95736C11.9457 7.13566 11.9031 7.23643 11.8953 7.25581C11.845 7.3876 11.8217 7.5 11.8217 7.60078C11.8217 7.70155 11.8488 7.79458 11.907 7.8876C11.9496 7.89535 11.9845 7.87209 12.0039 7.8217C12.0271 7.77132 12.0465 7.74031 12.0659 7.72868ZM11.4419 7.02325C11.4535 7.07364 11.4419 7.12403 11.3992 7.18217C11.3605 7.23643 11.3062 7.27519 11.2442 7.29457C10.9264 7.43023 10.6047 7.57365 10.2752 7.71706C9.94574 7.86434 9.64729 8.02713 9.37209 8.21318C9.37209 8.13178 9.4031 8.05038 9.46124 7.97287C9.51938 7.89147 9.59302 7.83721 9.67829 7.8062L11.438 7.02325H11.4419ZM4.1938 0.410852L4.15504 0.624031C4.13178 0.624031 4.07364 0.593021 3.98837 0.531006C3.94574 0.499998 3.9031 0.484496 3.86822 0.484496C3.82558 0.802326 3.78295 1.1124 3.73643 1.42248C3.70543 1.39147 3.60853 1.24419 3.44961 0.976746C3.33333 0.779071 3.19767 0.666668 3.05039 0.643412C3.05814 0.558141 3.06589 0.484499 3.07364 0.426359C3.0814 0.368219 3.12015 0.321705 3.18992 0.290698C3.29457 0.360465 3.39147 0.472868 3.47674 0.635659C3.54651 0.771318 3.61628 0.906976 3.68992 1.03488C3.7093 0.899224 3.73256 0.759692 3.75969 0.620157C3.78682 0.480623 3.82946 0.356591 3.88372 0.244188C3.93798 0.23256 3.9845 0.232558 4.01938 0.248062C4.05426 0.263566 4.1124 0.317829 4.18992 0.410852H4.1938ZM11.124 4.44961C11.0078 4.13953 10.8527 3.88372 10.6667 3.68604C10.4302 3.43798 10.1667 3.31395 9.87597 3.31395C9.64729 3.47675 9.47287 3.6783 9.34884 3.92636C9.22868 4.17442 9.16667 4.43023 9.16667 4.69767C9.22868 4.87209 9.33721 4.98449 9.49225 5.04263C9.5969 5.08139 9.76357 5.0969 9.9845 5.0969H10.1318C10.3566 5.0969 10.5271 5.12016 10.6473 5.16667C10.7674 5.21318 10.8488 5.3217 10.8837 5.49612C10.6899 5.5969 10.3372 5.75581 9.82171 5.98062C9.05426 6.31395 8.48837 6.62403 8.12791 6.9031C7.99225 6.99612 7.76744 7.2093 7.45736 7.54651C6.98062 8.06589 6.56589 8.32946 6.22093 8.32946H6.1124C6.07752 8.32946 6.04264 8.32171 6.00388 8.31008C5.93023 8.25969 5.87985 8.20542 5.84884 8.14341C5.82171 8.08139 5.8062 8.01163 5.8062 7.93798C5.86822 7.68217 5.93411 7.43411 6 7.18604C6.27132 7.02325 6.55039 6.86047 6.82946 6.6938C7.40698 6.34496 7.74031 5.95736 7.83333 5.52326C7.91473 5.37985 7.95349 5.22093 7.95349 5.03876C7.95349 4.89147 7.93023 4.73643 7.87985 4.57752C7.82946 4.4186 7.76744 4.25969 7.6938 4.0969C7.59302 3.95349 7.5 3.84496 7.40698 3.77132C7.27519 3.67054 7.14341 3.62403 7.00775 3.62403C6.94574 3.62403 6.89535 3.63178 6.86046 3.64341C6.69767 3.78682 6.56977 3.95736 6.47287 4.15891C6.37597 4.36046 6.29845 4.58915 6.23643 4.84109C6.28682 5.14341 6.5 5.31008 6.88372 5.33333C7.26357 5.35659 7.5 5.3876 7.58527 5.42636C7.60465 5.44574 7.6124 5.46899 7.6124 5.5C7.6124 5.56202 7.58527 5.62791 7.52713 5.6938C6.81395 6.1783 5.96899 6.66279 4.98837 7.15504C4.1124 7.56589 3.24419 7.97674 2.37597 8.39147C2.91085 8.27907 3.32171 8.18604 3.6124 8.1124C4.07752 7.99612 4.48062 7.87597 4.82171 7.75969C5.24419 7.6124 5.62016 7.44186 5.94574 7.25581C5.84109 7.52713 5.78295 7.68605 5.76744 7.72868C5.71318 7.90698 5.68217 8.07752 5.68217 8.24031C5.68217 8.26356 5.68217 8.31008 5.68992 8.3721C5.71318 8.45349 5.76357 8.51938 5.83333 8.57752C5.9031 8.63179 5.97674 8.68604 6.05039 8.73643C6.12403 8.75581 6.19767 8.76357 6.27519 8.76357C6.61628 8.76357 7.03101 8.51938 7.52326 8.02713C7.84109 7.7093 8.06589 7.50775 8.20155 7.41473C9.07752 6.96899 9.94961 6.51938 10.8256 6.06589C10.8643 5.98062 10.9264 5.84108 11.0194 5.64728C11.1434 5.35659 11.2054 5.1124 11.2054 4.91085C11.2054 4.74419 11.1705 4.58915 11.1047 4.44574L11.124 4.44961ZM3.2093 2.0969C3.15892 2.3062 3.12791 2.43023 3.11628 2.46124C3.06589 2.5969 3 2.68992 2.91085 2.74031C2.8876 2.67054 2.79457 2.60465 2.63178 2.53488C2.46899 2.46511 2.40698 2.37209 2.44574 2.25581L2.69767 1.77131C2.78295 1.81395 2.87209 1.86046 2.96124 1.90698C3.05039 1.95349 3.13178 2.01551 3.2093 2.0969ZM1.04264 3.15891C1.0814 3.23256 1.0969 3.32558 1.0969 3.43798C1.0969 3.56977 1.06977 3.7093 1.01163 3.86434C0.96124 3.97674 0.926357 4.05426 0.910853 4.0969C0.825581 4.15116 0.74031 4.18217 0.658915 4.18217C0.589147 4.18217 0.53876 4.16667 0.5 4.13566C0.395349 4 0.313954 3.84884 0.263566 3.6783C0.209302 3.51163 0.186047 3.34496 0.186047 3.17442C0.186047 2.87209 0.267442 2.5155 0.426357 2.1124C0.48062 1.96512 0.635659 1.63566 0.891473 1.12791C0.914729 1.10465 0.941861 1.08915 0.965116 1.08915C0.786822 1.65504 0.608527 2.21705 0.434109 2.78294C0.434109 3.05426 0.534884 3.29457 0.74031 3.5C0.833333 3.48062 0.895349 3.46124 0.926357 3.43798C0.957364 3.41473 0.976744 3.38372 0.98062 3.34108C0.98062 3.27132 1 3.2093 1.03488 3.15504L1.04264 3.15891ZM3.11628 4.22093L3.06977 4.43411C3.03101 4.42636 2.98062 4.4031 2.91473 4.36047C2.84884 4.31783 2.79845 4.29457 2.75969 4.29457C2.73643 4.34884 2.68605 4.56589 2.6124 4.94573C2.5814 5.10077 2.53876 5.22093 2.48062 5.31008C2.45736 5.28682 2.40698 5.17442 2.33721 4.98062C2.26744 4.78682 2.17442 4.68605 2.06202 4.68605C2.04264 4.68605 2.00775 4.6938 1.96124 4.70543C1.91085 4.67442 1.8876 4.62403 1.8876 4.55814C1.8876 4.53488 1.89535 4.48837 1.90698 4.42636C1.9186 4.36434 1.92636 4.32171 1.92636 4.29457C1.98837 4.23256 2.03488 4.2093 2.06589 4.22093C2.18217 4.3062 2.27519 4.42636 2.33721 4.57752C2.39922 4.72868 2.46124 4.87597 2.52326 5.01938C2.56202 4.75969 2.58915 4.56589 2.60853 4.44186C2.65116 4.21317 2.75581 4.08527 2.91473 4.06201C2.9845 4.11628 3.05039 4.17054 3.12015 4.22093H3.11628ZM5.72868 3.65504C5.68605 3.65504 5.64341 3.6279 5.5969 3.56976C5.55426 3.5155 5.51163 3.4845 5.47674 3.4845C5.44574 3.54651 5.43023 3.62015 5.43023 3.7093C5.43023 3.79069 5.47674 3.96124 5.56977 4.22093C5.62016 4.36434 5.64341 4.47287 5.64341 4.54651C5.64341 5 5.55426 5.39147 5.37209 5.72868C5.17442 6.09302 4.88372 6.35659 4.50775 6.51938C3.86822 6.9031 3.32171 7.17054 2.87209 7.31783C2.48062 7.44961 2.12016 7.51163 1.78295 7.51163C1.55426 7.51163 1.34496 7.48837 1.15504 7.44186C0.965116 7.39535 0.767442 7.31395 0.565892 7.1938C0.186047 6.9031 0 6.51938 0 6.03876C0 5.95737 -7.21955e-09 5.89535 0.00775193 5.85272C0.0930232 5.47287 0.162791 5.1938 0.213178 5.00775C0.29845 4.68605 0.406977 4.42248 0.53876 4.21706C0.531008 4.24806 0.484496 4.40698 0.399225 4.68992C0.294574 5.04264 0.24031 5.32946 0.24031 5.54651C0.24031 5.67829 0.255814 5.79845 0.286822 5.91473C0.317829 6.03101 0.372093 6.13954 0.453488 6.24419C0.620155 6.44961 0.817829 6.60078 1.03876 6.70543C1.25969 6.81008 1.51163 6.86046 1.78295 6.86046H1.94186C1.9845 6.85271 2.0155 6.85271 2.03488 6.85271C2.63178 6.78294 3.22093 6.60077 3.81008 6.30232C4.27519 6.06201 4.80233 5.7093 5.39147 5.25194C5.23643 4.6124 5.08527 3.97287 4.93411 3.32558C4.93411 3.18217 4.94961 3.05426 4.9845 2.93411C5.01938 2.81783 5.07752 2.69768 5.15504 2.5814C5.31008 2.78682 5.42636 2.93798 5.50775 3.03876C5.65504 3.23256 5.73256 3.40697 5.73256 3.56976C5.72481 3.60852 5.72481 3.63566 5.72481 3.65504H5.72868ZM9.42248 0.631785L9.28295 0.562014C9.22868 0.534883 9.18217 0.507752 9.15116 0.484496C9.20543 0.403101 9.26744 0.364342 9.33721 0.364342C9.37985 0.364342 9.40698 0.391474 9.42248 0.449614V0.635659V0.631785ZM14.6589 5.60853C14.4535 5.84884 14.2442 6.03489 14.0271 6.16667C13.7674 6.32171 13.5 6.39922 13.2287 6.39922C13.1473 6.39922 13.0853 6.39923 13.0426 6.39148C12.7015 6.12016 12.5271 5.64341 12.5155 4.96899C12.5078 4.29457 12.4922 3.89535 12.4729 3.77907C13.2674 4.29457 13.6667 4.55427 13.6744 4.56202C14.1202 4.89147 14.4496 5.24031 14.6589 5.6124V5.60853ZM10.4264 4.4186C10.4031 4.4186 10.3605 4.42636 10.3062 4.43798H10.1744C10.031 4.43798 9.90698 4.4186 9.79845 4.37597C9.68992 4.33721 9.60465 4.26356 9.54263 4.15891C9.55426 4.13953 9.57752 4.10465 9.60853 4.04651C9.63953 4.00775 9.67442 3.99225 9.7093 3.99225C9.97674 4.03101 10.2132 4.17054 10.4264 4.4186ZM7.30233 4.65116H7.14341C7.03876 4.65116 6.94186 4.63566 6.86046 4.60853C6.77907 4.5814 6.71705 4.53101 6.67829 4.45349C6.67829 4.36822 6.71318 4.31395 6.77907 4.29457C6.89535 4.29457 7.00388 4.33333 7.0969 4.40697C7.16667 4.46124 7.23256 4.54264 7.30233 4.64729V4.65116Z" fill="white"/>
</svg>
