<svg width="20" height="10" viewBox="0 0 20 10" fill="none" xmlns="http://www.w3.org/2000/svg">
<path fill-rule="evenodd" clip-rule="evenodd" d="M19.8853 2.03237C19.8648 1.95861 19.8279 1.88486 19.7664 1.80701C19.7337 1.76603 19.6763 1.70866 19.5902 1.63081C19.5698 1.83979 19.5616 2.04876 19.5616 2.26183C19.5616 2.56505 19.5903 3.02397 19.6517 3.64679C19.7132 4.26961 19.7419 4.73673 19.7419 5.04405V5.75292C19.7419 6.29789 19.7173 6.74042 19.6722 7.08052C19.6066 7.55993 19.4837 7.98197 19.3075 8.35075C19.2665 8.40811 19.2379 8.44089 19.2174 8.44089C19.2706 8.16636 19.3075 7.85085 19.3362 7.49027C19.3608 7.13378 19.3772 6.79779 19.3772 6.48228C19.3772 5.91272 19.3485 5.30629 19.2952 4.66298C19.2379 4.01967 19.1846 3.35997 19.1272 2.67568C19.0699 1.99549 19.0453 1.40954 19.0453 0.926037C19.0207 0.819502 19.0453 0.704771 19.1354 0.57365C19.2215 0.44253 19.3034 0.315509 19.3813 0.188486C19.4796 0.352386 19.5943 0.590041 19.7255 0.897355C19.9099 1.3235 20 1.63081 20 1.8234C20 1.94632 19.9631 2.02008 19.8935 2.04056L19.8853 2.03237ZM15.8328 0.311409C15.6935 0.532675 15.4149 0.692479 14.9887 0.782625C14.3741 0.913745 14.0258 0.995695 13.948 1.02848C12.858 1.37676 11.7763 1.72505 10.6945 2.06925C10.6822 1.99549 10.7232 1.91764 10.8216 1.83159C10.8748 1.78652 10.9609 1.72915 11.0879 1.66359L15.6894 0.335997C15.6894 0.335997 15.714 0.3278 15.7468 0.315508C15.7796 0.303215 15.8082 0.299119 15.8369 0.307314L15.8328 0.311409ZM15.9394 2.82729C15.8082 3.03216 15.6607 3.22475 15.4968 3.40914L14.915 3.09363L14.4315 3.4665C14.3905 3.43372 14.2922 3.38045 14.1364 3.31079C13.8988 3.20016 13.7841 3.08953 13.7841 2.98709C13.8291 2.94611 13.907 2.85597 14.0094 2.71256C14.0955 2.59373 14.1774 2.51587 14.2553 2.4749C14.329 2.4749 14.4315 2.53227 14.5667 2.647C14.7019 2.76173 14.7961 2.81909 14.8576 2.81909C14.9191 2.81909 14.9764 2.77812 15.0338 2.69207C15.124 2.58144 15.1772 2.51998 15.1895 2.50359C15.2633 2.42983 15.3288 2.39705 15.3944 2.39705C15.4518 2.39705 15.5091 2.43802 15.5624 2.51588L15.9353 2.83139L15.9394 2.82729ZM13.5587 2.43393C13.5792 2.40114 13.5874 2.37656 13.5874 2.35607C13.5874 2.3151 13.5751 2.26183 13.5464 2.18807C13.4931 2.18807 13.444 2.22085 13.3989 2.28641C13.3538 2.35197 13.3128 2.38476 13.2801 2.38476C13.2145 2.33149 13.1817 2.27822 13.1817 2.21676C13.1817 2.18398 13.2063 2.11432 13.2596 2.01188C13.3128 1.90535 13.3333 1.82339 13.3169 1.75783C13.2637 1.77832 13.2145 1.82749 13.1694 1.90534C13.1489 1.94632 13.1162 2.01188 13.0711 2.10203C13.0629 2.11432 13.0547 2.1389 13.0424 2.17168C13.0301 2.20446 13.0219 2.25773 13.0219 2.32739C13.0219 2.479 13.0752 2.59783 13.1776 2.67978C13.3292 2.6388 13.4522 2.55685 13.5505 2.43393H13.5587ZM10.1373 1.60623C10.1578 1.50789 10.17 1.42593 10.1782 1.36447C10.1864 1.30301 10.1864 1.21696 10.1864 1.10223C10.1864 0.782624 10.1209 0.512187 9.98976 0.295019C10.0225 0.176191 10.0717 0.106533 10.1373 0.0901428C10.2602 0.299116 10.3258 0.553165 10.3258 0.848187C10.3258 1.14321 10.2643 1.39725 10.1373 1.60623ZM17.562 6.7773C17.562 6.29789 17.5292 5.73653 17.4636 5.08912C17.3981 4.44171 17.3366 3.81479 17.2751 3.20426C17.2178 2.59373 17.185 2.02827 17.185 1.50379C17.2383 1.53657 17.2874 1.59393 17.3325 1.67179C17.3571 1.71276 17.3981 1.77832 17.4513 1.86847C17.4636 1.79062 17.4718 1.72915 17.4718 1.67998C17.4718 1.51608 17.4268 1.31121 17.3325 1.06126C17.0703 0.36058 16.9392 0.00409752 16.9392 0C16.763 0.208974 16.6318 0.434336 16.5458 0.667895C16.6564 1.35628 16.7671 2.04466 16.8818 2.73305C17.0252 3.6304 17.1235 4.33108 17.1768 4.83917C17.2547 5.57263 17.2956 6.2774 17.2956 6.95349C16.9801 7.12968 16.6318 7.21983 16.2426 7.21983C16.1442 7.21983 16.0377 7.21163 15.9189 7.19115C15.8 7.17066 15.7058 7.14608 15.632 7.1133C15.6976 6.89203 15.7673 6.65437 15.8369 6.40033C15.9066 6.14628 15.9435 5.92501 15.9435 5.73653C15.9435 5.59312 15.923 5.4579 15.8779 5.33907C15.8328 5.22024 15.7673 5.10551 15.6771 4.99897C15.6198 4.958 15.5665 4.94161 15.5214 4.94161C15.4477 4.94161 15.3657 4.97849 15.2756 5.04815C15.2305 5.08912 15.1526 5.14649 15.0502 5.22434C14.8125 5.4456 14.6281 5.68736 14.4888 5.9414C14.3495 6.19545 14.284 6.45769 14.284 6.72813C14.284 6.85105 14.2963 6.96578 14.3249 7.06413C14.1733 7.12968 14.0094 7.16246 13.8332 7.16246C13.4808 7.16246 13.2022 7.03954 13.0055 6.79779C12.9605 6.75271 12.9359 6.69945 12.9359 6.64208C12.9605 6.53555 12.9932 6.43311 13.026 6.32657C12.7433 6.48228 12.4647 6.63798 12.1901 6.78959C11.6083 7.09691 11.0797 7.25261 10.6085 7.25261C10.3544 7.25261 10.1127 7.15427 9.89142 6.95759C9.70293 6.78549 9.55542 6.58062 9.44888 6.33886C9.35874 5.9455 9.29727 5.55214 9.26859 5.16288C9.23991 4.77361 9.22352 4.32288 9.22352 3.81069C9.23172 3.37636 9.23581 2.98709 9.24401 2.6388C9.2522 2.29051 9.2522 1.9873 9.2522 1.72506C9.2522 1.37677 9.2522 1.09813 9.24401 0.885063C9.23581 0.671992 9.21942 0.438433 9.18664 0.180289C9.0965 0.221264 9.01455 0.303216 8.94079 0.434336C8.89982 0.508092 8.84245 0.614627 8.7646 0.758041C8.84245 1.30301 8.88343 1.87257 8.88343 2.4708C8.88343 2.83139 8.86703 3.21655 8.83426 3.6304C8.85474 3.76152 8.86704 3.89264 8.87523 4.02786C8.88343 4.16308 8.88343 4.2983 8.88343 4.43761V4.87195C8.88343 5.66687 8.9244 6.23233 9.00225 6.57242C9.14157 7.15427 9.43249 7.5968 9.87912 7.90002C10.0102 7.94099 10.1086 7.96148 10.1741 7.96968C10.2397 7.97787 10.3421 7.97787 10.4774 7.97787C10.8625 7.97787 11.2559 7.88773 11.6493 7.70334C11.9648 7.55992 12.309 7.34275 12.6818 7.05593C12.6818 7.07642 12.6818 7.1092 12.6736 7.15427C12.6736 7.24032 12.6859 7.32637 12.7146 7.41651C12.7392 7.50666 12.7802 7.57631 12.8334 7.62958C12.9564 7.73612 13.0916 7.80987 13.2309 7.85085C13.3702 7.89182 13.53 7.91641 13.7062 7.91641C13.8947 7.91641 14.0955 7.88773 14.3003 7.83446C14.5052 7.78119 14.6855 7.71153 14.8371 7.63368C15.001 7.75251 15.1895 7.83856 15.3985 7.89592C15.6075 7.95329 15.8328 7.97787 16.0787 7.97787C16.4475 7.97787 16.7671 7.9205 17.0416 7.80168C17.2178 7.72382 17.3448 7.57632 17.4145 7.35915C17.4554 7.24032 17.5046 7.05183 17.5702 6.78959L17.562 6.7773ZM12.4073 3.28621L12.3376 3.53206C12.2598 3.50748 12.1819 3.47469 12.1123 3.44191C12.0795 3.44191 12.0549 3.4706 12.0344 3.52387C12.0139 3.58123 11.9852 3.73284 11.9443 3.98279C11.9033 4.23274 11.8377 4.40073 11.7394 4.49498C11.6943 4.42122 11.6288 4.2901 11.5427 4.09752C11.4567 3.90494 11.387 3.76152 11.3378 3.67138C11.3174 3.71645 11.2887 3.74104 11.2477 3.74104C11.2272 3.74104 11.1739 3.71645 11.0797 3.67138C11.0469 3.61811 11.0305 3.56075 11.0305 3.49518C11.0305 3.43782 11.0428 3.38045 11.0633 3.32718C11.0879 3.27392 11.1207 3.22065 11.1657 3.15919C11.3501 3.22475 11.4976 3.40914 11.6083 3.70825C11.682 3.89674 11.7476 4.03196 11.805 4.10981C11.8377 3.93772 11.8705 3.76972 11.9033 3.59762C11.9566 3.41323 12.0426 3.26572 12.1573 3.15509C12.2803 3.17967 12.3622 3.22475 12.4032 3.28211L12.4073 3.28621ZM8.64987 0.0327778C8.67035 0.073753 8.64987 0.114728 8.5925 0.163898C8.53514 0.213069 8.49416 0.24585 8.47367 0.258143C7.66646 0.528579 7.06413 0.729357 6.66257 0.868672C5.9496 1.11862 5.36366 1.37677 4.91293 1.6472C5.06863 1.37677 5.37595 1.1555 5.82667 0.979307C6.21184 0.839992 6.60111 0.704772 6.98627 0.565457C7.53534 0.389263 8.0926 0.213069 8.64987 0.0327778ZM15.2305 8.49826C15.1199 8.60889 15.001 8.69494 14.8781 8.7605C14.7552 8.82196 14.5995 8.87933 14.4151 8.93259C14.1078 9.02274 13.8005 9.11698 13.5013 9.20713C13.6079 9.10059 13.7226 9.01864 13.8455 8.95308C13.9684 8.88752 14.1242 8.82606 14.3085 8.7646C14.6159 8.67445 14.9232 8.5843 15.2346 8.49826H15.2305ZM10.8543 5.40873C10.8543 5.64638 10.756 5.83896 10.5593 5.99057C10.4938 5.97828 10.4487 5.9414 10.4282 5.87584C10.4036 5.81438 10.3831 5.75292 10.3626 5.69555C10.3626 5.4456 10.4159 5.24482 10.5183 5.08502C10.4978 5.19565 10.4897 5.294 10.4897 5.38004C10.4897 5.47838 10.506 5.56033 10.5388 5.62589L10.629 5.71604C10.6822 5.68326 10.7273 5.62999 10.7683 5.56034C10.8093 5.48658 10.8379 5.43741 10.8584 5.41282L10.8543 5.40873ZM7.21573 2.60602C7.20344 2.647 7.19115 2.68387 7.18705 2.72485C7.15427 2.82319 7.1092 2.85597 7.04774 2.82319C7.00676 2.76992 6.9494 2.74944 6.87154 2.76583C6.79779 2.85187 6.74862 3.01987 6.71993 3.27392C6.69125 3.52796 6.64618 3.70006 6.58881 3.79021C6.53145 3.73284 6.42081 3.55255 6.26511 3.24933C6.19135 3.11002 6.1217 3.00758 6.04794 2.93382C6.04794 3.01168 6.00697 3.05265 5.92092 3.05265C5.87994 3.05265 5.84306 3.03626 5.80209 3.00758C5.76111 2.9789 5.74472 2.93792 5.74472 2.88465C5.74472 2.83958 5.75702 2.79041 5.7775 2.73714C5.80209 2.68388 5.82258 2.6388 5.84716 2.59373C5.87175 2.55275 5.90863 2.52817 5.96189 2.52817C6.01926 2.52817 6.06023 2.54456 6.08072 2.57734C6.17906 2.65109 6.2733 2.76992 6.36755 2.94202C6.48638 3.16329 6.56013 3.29441 6.59291 3.33538C6.6175 3.15099 6.65847 2.98709 6.71174 2.84368C6.76501 2.70026 6.83876 2.57324 6.9371 2.4708C6.98218 2.4708 7.03135 2.4831 7.08052 2.50359C7.12969 2.52817 7.17886 2.56095 7.22393 2.60602H7.21573ZM12.8129 8.87113C12.7064 9.00225 12.6327 9.10059 12.5876 9.16615C12.5097 9.26449 12.4278 9.35874 12.3417 9.45298L11.6533 8.98996C11.6083 9.12927 11.5509 9.22352 11.4813 9.28088C11.4116 9.33825 11.3337 9.36283 11.2395 9.36283C11.1412 9.36283 11.0346 9.33825 10.924 9.28498C10.883 9.26449 10.7806 9.20303 10.6085 9.09649C10.6331 8.98996 10.6986 8.88342 10.797 8.77689C10.8953 8.67035 10.9896 8.56382 11.0838 8.46548C11.3051 8.53104 11.5263 8.65806 11.7435 8.85064L12.2926 8.4286C12.2926 8.4286 12.4196 8.53923 12.6368 8.70313C12.7351 8.77689 12.7925 8.83015 12.8129 8.87113ZM4.2983 2.36017C4.25323 2.43802 4.20815 2.51588 4.15898 2.59783C4.06884 2.73714 3.9623 2.86417 3.84347 2.98299L3.21246 2.647C3.25343 2.54046 3.31899 2.42983 3.41733 2.311C3.43782 2.29051 3.52387 2.18807 3.68367 1.99549C3.88855 2.06925 4.08933 2.18807 4.2942 2.36017H4.2983ZM3.53206 0.667895C3.4788 0.557262 3.40914 0.454825 3.31489 0.364679C3.22475 0.274534 3.11821 0.188485 2.99939 0.110632C2.94612 0.0983391 2.90924 0.0901428 2.88056 0.0901428C2.72895 0.0901428 2.62241 0.200776 2.55685 0.426139C2.45851 0.745746 2.39705 0.926038 2.36837 0.958818C2.38885 1.03257 2.42573 1.07765 2.4872 1.09814C2.54456 1.11862 2.62241 1.13911 2.71256 1.1555C2.45851 1.45052 2.16759 1.72915 1.84798 1.9914C1.6595 2.1471 1.33579 2.38475 0.885065 2.69617C0.434337 3.00758 0.139316 3.21655 0 3.31899C0.467117 3.06494 0.803114 2.86826 1.01209 2.73714C1.38496 2.49949 1.70867 2.27003 1.97501 2.04876C2.30281 1.77423 2.58554 1.4833 2.81909 1.18418C2.94202 1.18418 3.04856 1.22516 3.1346 1.31121C3.18787 1.3235 3.22475 1.33169 3.25343 1.33169C3.36406 1.33169 3.44192 1.29072 3.49109 1.20467C3.54845 1.12682 3.58123 1.03257 3.58123 0.917844C3.58123 0.831796 3.56484 0.749846 3.53206 0.671993V0.667895ZM5.16288 4.74902C5.1178 4.92522 5.08093 5.03995 5.05634 5.09322C4.99898 5.21614 4.91293 5.29809 4.80229 5.33087C4.72854 5.35136 4.67117 5.33087 4.6302 5.27761C4.58922 5.22024 4.56054 5.15878 4.54825 5.08502C4.54825 4.91293 4.58103 4.74083 4.64659 4.56054C4.71215 4.38025 4.75722 4.25732 4.7859 4.19176C4.7941 4.26552 4.77771 4.37205 4.73673 4.51137C4.69576 4.65068 4.67937 4.74493 4.67937 4.79C4.67937 4.90883 4.72034 4.99898 4.80639 5.06454C4.90473 5.08502 4.99078 5.02766 5.06044 4.89654C5.10551 4.81049 5.14239 4.76132 5.16697 4.74902H5.16288ZM3.21655 2.44622L2.53637 2.1512C2.46261 2.23725 2.39295 2.3192 2.3192 2.39705C2.17578 2.56095 2.10203 2.70026 2.10203 2.81909C2.11022 2.81909 2.22495 2.87236 2.45442 2.9748C2.59373 3.03216 2.71256 3.05675 2.81909 3.04446C2.90924 2.92563 3.00758 2.8068 3.10592 2.67978C3.15919 2.60602 3.19607 2.52817 3.21246 2.44212L3.21655 2.44622ZM7.80988 6.02745C7.72383 5.87175 7.64188 5.71194 7.56402 5.55624C7.37963 5.22844 7.15837 5.06454 6.89613 5.06454C6.62569 5.22844 6.37164 5.51936 6.12989 5.9414C5.80209 6.49867 5.59312 6.83466 5.49887 6.9453C5.36775 7.07642 5.20385 7.14198 5.00717 7.14198C4.94161 7.14198 4.89244 7.14198 4.85966 7.13378C4.58922 7.08871 4.33927 6.89613 4.10162 6.55193C3.81479 6.13809 3.61811 5.89633 3.51158 5.82258C3.12641 5.9537 2.815 6.30608 2.58554 6.88383C2.32329 7.53944 2.07744 7.95738 1.84798 8.14177C1.79471 8.15406 1.72096 8.16226 1.62262 8.16226C1.53247 8.16226 1.45462 8.15406 1.39725 8.14177C1.18009 7.96558 1.02438 7.75661 0.92604 7.52305C0.807212 7.23622 0.749846 6.80598 0.749846 6.23642C0.749846 6.13808 0.749846 6.03974 0.753944 5.9455C0.753944 5.85126 0.758041 5.75292 0.758041 5.65458C0.606433 6.07252 0.532678 6.51096 0.532678 6.96169C0.532678 7.31407 0.581848 7.65007 0.684286 7.96968C0.786724 8.28928 0.94243 8.57201 1.1514 8.82196C1.24155 8.87933 1.33989 8.9203 1.44642 8.94079C1.55296 8.96128 1.66769 8.96947 1.79881 8.96947C2.06925 8.78099 2.29051 8.44499 2.46671 7.96558C2.68388 7.38783 2.84778 7.02315 2.95841 6.87564C3.12231 6.69125 3.26163 6.60111 3.37226 6.60111C3.4706 6.60111 3.56894 6.70354 3.66728 6.90432C3.88445 7.35505 4.06474 7.605 4.20815 7.65007C4.38025 7.82626 4.60152 7.91641 4.87605 7.91641C4.98668 7.91641 5.11371 7.89182 5.24892 7.84675C5.36775 7.78938 5.462 7.69924 5.53575 7.58451C5.60951 7.46978 5.66687 7.34685 5.71604 7.21983C5.76521 7.09281 5.81848 7.00676 5.87175 6.96579C5.92911 6.92481 6.00287 6.90022 6.09301 6.90022C6.17906 6.90022 6.34296 6.94939 6.58881 7.05183C6.83466 7.15427 7.02725 7.20344 7.16247 7.20344C7.2731 7.20344 7.37964 7.17886 7.47798 7.12559C7.69514 6.83057 7.80168 6.46179 7.80168 6.02335L7.80988 6.02745ZM2.37246 4.99488C2.35198 5.126 2.33149 5.22844 2.30281 5.29809C2.27822 5.37185 2.22905 5.44151 2.1553 5.51526C2.10203 5.52346 2.05696 5.50297 2.02418 5.46199C1.9873 5.42102 1.96271 5.37185 1.95042 5.31858C1.93813 5.26531 1.92993 5.20385 1.92993 5.13009C1.92993 4.97439 1.96271 4.80229 2.02827 4.6179C2.07335 4.47859 2.1512 4.31469 2.26593 4.1262C2.25773 4.15079 2.22086 4.26142 2.1512 4.454C2.08154 4.64659 2.04876 4.7941 2.04876 4.89244C2.04876 5.03175 2.09383 5.14648 2.18808 5.24482C2.22086 5.23253 2.24954 5.18746 2.27822 5.1137C2.30281 5.03995 2.33559 4.99898 2.37656 4.99078L2.37246 4.99488ZM7.31817 8.16226C7.33866 8.20324 7.34686 8.24011 7.34686 8.28109C7.34686 8.33845 7.32637 8.39991 7.28949 8.46138C7.24851 8.52284 7.21573 8.5843 7.18295 8.64167C7.11739 8.66625 7.04364 8.65806 6.95759 8.61709C6.87154 8.57611 6.79369 8.53513 6.71993 8.49416C6.49047 8.77689 6.16267 8.99816 5.73653 9.16206C5.4538 9.26859 5.04815 9.36693 4.51547 9.46527L4.05245 9.53493C4.61791 9.34644 5.04405 9.19893 5.33087 9.0924C5.85536 8.90391 6.2774 8.70313 6.60111 8.49416C6.64208 8.37533 6.69535 8.2647 6.76501 8.15816C6.83467 8.05163 6.91252 7.96968 7.00676 7.91231C7.09691 7.89182 7.17886 7.9246 7.24442 8.01065C7.2772 8.05572 7.30178 8.10489 7.32227 8.15816L7.31817 8.16226ZM15.6075 6.48228C15.6075 6.48228 15.4968 6.55194 15.3329 6.67076C15.2223 6.74862 15.128 6.78959 15.0461 6.78959C15.001 6.78959 14.956 6.7814 14.9191 6.76091C14.8453 6.68306 14.7716 6.59701 14.6978 6.50686C14.6241 6.41672 14.5954 6.32247 14.6159 6.23233C14.6937 6.1135 14.788 6.01106 14.9027 5.91682C15.042 5.79799 15.1608 5.74062 15.2674 5.74062C15.3206 5.74062 15.3739 5.76521 15.4231 5.81028C15.4763 5.85536 15.5132 5.92092 15.5419 6.00287C15.5665 6.08482 15.587 6.16267 15.5952 6.23233C15.6034 6.30199 15.6116 6.38803 15.6116 6.48637L15.6075 6.48228ZM3.40504 1.04487C3.33948 1.05716 3.26572 1.03667 3.17968 0.979307C3.09363 0.921942 3.03626 0.893258 3.00348 0.885063C3.03626 0.831795 3.05675 0.782625 3.06085 0.737552C3.06904 0.692479 3.06904 0.626921 3.06904 0.540873C3.20016 0.659701 3.27392 0.733454 3.29441 0.766234C3.35997 0.852282 3.39684 0.942427 3.40094 1.04077L3.40504 1.04487ZM2.87236 0.876869C2.83958 0.856382 2.78222 0.844087 2.70027 0.835891C2.61832 0.827696 2.56915 0.803113 2.55685 0.758041C2.56915 0.639213 2.63471 0.581847 2.75353 0.581847C2.83139 0.581847 2.87236 0.631018 2.87236 0.729358V0.876869ZM7.29768 6.38393C7.16656 6.38393 7.04364 6.36754 6.93301 6.33886C6.82237 6.31018 6.63798 6.23643 6.38394 6.1176C6.41672 6.06023 6.45769 6.01106 6.50686 5.97418C6.55603 5.9373 6.6134 5.90452 6.67896 5.87174C6.79779 5.85945 6.90023 5.88404 6.98218 5.9496C7.06822 6.01516 7.17066 6.15857 7.29768 6.38393ZM7.1092 8.34255C7.07642 8.36304 7.02725 8.35075 6.96579 8.30977C6.90432 8.2688 6.86335 8.24011 6.84286 8.22782C6.88793 8.16226 6.9453 8.14997 7.01086 8.18684C7.05183 8.22782 7.08461 8.27699 7.1092 8.34255Z" fill="white"/>
</svg>
