<svg width="20" height="9" viewBox="0 0 20 9" fill="none" xmlns="http://www.w3.org/2000/svg">
<path fill-rule="evenodd" clip-rule="evenodd" d="M20 1.69811L19.6555 1.23872L19.557 1.40279L19.8441 5.60295C19.8072 6.05004 19.7088 6.50123 19.557 6.94832C19.557 6.82937 19.5652 6.6694 19.5775 6.47662C19.5898 6.28384 19.598 6.17719 19.598 6.16079L19.2535 1.75554C19.233 1.48072 19.2125 1.25923 19.1961 1.08695C19.1797 0.914682 19.155 0.73831 19.1222 0.557835C19.1756 0.422478 19.2166 0.328138 19.2371 0.278917C19.2863 0.168171 19.3396 0.0861352 19.4011 0.0246093C19.5611 0.340442 19.6842 0.611157 19.7703 0.836752C19.8852 1.13618 19.9631 1.4233 20 1.69811ZM16.735 0.0984405C16.6899 0.200984 16.6366 0.274813 16.571 0.311729C15.7957 0.537323 15.0615 0.758818 14.3724 0.976209C13.6833 1.1936 12.9737 1.4315 12.2477 1.68171C12.2642 1.61608 12.3011 1.55865 12.3585 1.50943C12.4159 1.46021 12.4815 1.41919 12.5595 1.38638C13.1624 1.17719 13.8515 0.955699 14.6349 0.721901C15.3363 0.512713 16.0336 0.307628 16.735 0.0984405ZM16.4807 3.30599C16.4848 3.35931 16.4766 3.42083 16.4479 3.49056C16.4192 3.56029 16.3864 3.62592 16.3495 3.69155C16.3167 3.70796 16.2838 3.71616 16.251 3.71616C16.1977 3.71616 16.1567 3.69975 16.1321 3.66284C16.1075 3.62592 16.087 3.58491 16.0706 3.53158C16.0541 3.47826 16.0459 3.43314 16.0459 3.39623C16.0459 3.3306 16.0582 3.26497 16.087 3.19934L16.2018 2.98605C16.2018 3.02297 16.1936 3.07629 16.1813 3.14602C16.169 3.21575 16.1608 3.25677 16.1608 3.27317C16.1608 3.3347 16.1813 3.38392 16.2182 3.42904C16.2633 3.44955 16.3043 3.47006 16.3495 3.48646C16.3618 3.47416 16.3782 3.44545 16.4028 3.39623C16.4274 3.34701 16.452 3.31829 16.4807 3.30599ZM15.4799 2.71534C15.4471 2.77686 15.4102 2.80558 15.3733 2.80558C15.3527 2.80558 15.3117 2.79327 15.2584 2.76456C15.2051 2.73585 15.1641 2.72354 15.1436 2.72354C15.1066 2.72354 15.0779 2.77276 15.0615 2.87121C15.0246 2.93683 14.9508 2.96965 14.84 2.96965C14.8072 2.96965 14.758 2.96554 14.6924 2.95324C14.6226 2.88351 14.5857 2.79327 14.5857 2.68253C14.5857 2.6169 14.598 2.53897 14.6226 2.44873C14.6473 2.35849 14.6719 2.27235 14.6924 2.19032L14.7416 2.1493C14.758 2.18212 14.758 2.24774 14.7416 2.34208C14.7252 2.43642 14.717 2.50615 14.717 2.54307C14.717 2.65381 14.7703 2.71944 14.8728 2.73995C14.9713 2.72765 15.041 2.68663 15.0779 2.6169C15.0943 2.57178 15.1025 2.53076 15.1025 2.49385C15.0861 2.379 15.0779 2.29286 15.0779 2.23954C15.0779 2.1452 15.1148 2.08368 15.1928 2.05086V2.22313C15.1928 2.30927 15.201 2.379 15.2133 2.42412C15.2256 2.46924 15.2584 2.51436 15.3076 2.55127H15.4225C15.4266 2.51846 15.4225 2.46514 15.4061 2.3872C15.3897 2.30927 15.3815 2.25595 15.3815 2.22313C15.3815 2.1411 15.4143 2.07957 15.4799 2.03445C15.4922 2.10418 15.5045 2.18212 15.5168 2.26415C15.5291 2.34618 15.5373 2.40771 15.5373 2.45283C15.5373 2.54717 15.5168 2.6333 15.4799 2.71534ZM11.6489 1.50943L11.6243 1.51764C11.6776 1.36587 11.7063 1.20591 11.7063 1.04184C11.7063 0.910583 11.6899 0.783428 11.653 0.656275C11.6161 0.529122 11.5628 0.422476 11.493 0.328136C11.4971 0.295322 11.5094 0.254306 11.5217 0.200984C11.534 0.147661 11.571 0.12305 11.6243 0.12305C11.7555 0.332238 11.8212 0.561936 11.8212 0.820345C11.8212 1.06235 11.7637 1.29204 11.6489 1.50943ZM17.8589 1.47662C17.8917 1.44791 17.9081 1.40279 17.9081 1.33716C17.9081 1.17309 17.8302 0.914683 17.6702 0.566037C17.5349 0.266611 17.4282 0.0779327 17.3585 0C17.3052 0.0943396 17.2477 0.188678 17.1862 0.287119C17.1247 0.385561 17.096 0.4758 17.096 0.557835C17.096 0.611157 17.1124 0.66858 17.1452 0.730106C17.1452 1.1854 17.1903 1.70632 17.2806 2.30107C17.3708 2.89582 17.461 3.47826 17.5472 4.0525C17.6333 4.62674 17.6784 5.15586 17.6784 5.64397C17.4692 5.7301 17.26 5.80394 17.0468 5.86136C16.8335 5.91879 16.6202 5.9598 16.4069 5.98031C16.4889 5.86546 16.571 5.75061 16.653 5.63577C16.8171 5.40197 16.8868 5.18868 16.8663 4.9959C16.735 4.79902 16.5587 4.64725 16.3331 4.54471C16.1649 4.46267 15.9434 4.39705 15.6686 4.34783C15.5414 4.31911 15.4348 4.30681 15.3404 4.30681C15.0615 4.30681 14.7826 4.40115 14.5037 4.59393C14.2904 4.74159 14.0607 4.95078 13.8146 5.21739C13.4578 5.60706 13.2568 5.82034 13.2075 5.86546C13.1296 5.81214 13.0558 5.75471 12.9861 5.70139C12.8917 5.63166 12.8466 5.56193 12.8466 5.49631C12.8466 5.45119 12.8712 5.40197 12.9204 5.34044C12.7933 5.37326 12.6333 5.50041 12.4323 5.7178C12.2313 5.93519 12.0591 6.04594 11.9114 6.04594C11.8909 6.04594 11.8499 6.04184 11.7966 6.02953C11.6694 5.9516 11.5587 5.83675 11.4602 5.68499C11.3823 5.57014 11.3167 5.42658 11.2633 5.25841C11.2633 4.45037 11.2141 3.60541 11.1157 2.72354C11.0172 1.84167 10.8819 0.980312 10.7137 0.131255C10.644 0.217391 10.5865 0.311731 10.5414 0.410172C10.525 0.442986 10.4881 0.541428 10.4266 0.705497C10.525 1.09926 10.603 1.54225 10.6645 2.03445C10.6809 2.16161 10.726 2.6169 10.8039 3.40443C10.8368 4.01558 10.8737 4.62674 10.9106 5.2338C10.9762 5.9557 11.2469 6.44381 11.7227 6.70221C11.8991 6.70221 12.0714 6.61198 12.2395 6.4315C12.3339 6.33306 12.4692 6.18129 12.6497 5.98031C12.6497 6.04184 12.6743 6.11567 12.7235 6.2018C12.7441 6.24692 12.7851 6.31255 12.8384 6.40689C12.7523 6.55045 12.6989 6.63248 12.6825 6.6612C12.6005 6.81296 12.5472 6.96883 12.5185 7.12059C12.5964 7.07137 12.6825 6.97293 12.781 6.82116C12.8794 6.6694 12.9573 6.56686 13.0107 6.51353C13.1419 6.57916 13.2691 6.62428 13.3921 6.64889C13.5152 6.6735 13.6587 6.68581 13.8228 6.68581C13.9253 6.68581 14.1797 6.6653 14.5857 6.62838C14.7621 6.61198 14.9098 6.60377 15.0287 6.60377C15.0328 6.60377 15.0861 6.60377 15.1846 6.61198C15.283 6.61608 15.3733 6.62428 15.4553 6.63659C15.5373 6.64889 15.6399 6.653 15.767 6.653C16.0993 6.653 16.4315 6.60787 16.7637 6.51353C17.096 6.4192 17.3995 6.29204 17.6784 6.12797C17.7769 5.94339 17.8466 5.75062 17.8876 5.55373C17.9286 5.35685 17.9491 5.14766 17.9491 4.92207C17.9491 4.62264 17.8917 4.16325 17.7769 3.54389C17.662 2.92453 17.6046 2.46513 17.6046 2.16571C17.5923 2.07957 17.5759 1.94832 17.5472 1.78015C17.5185 1.61198 17.5062 1.46841 17.5062 1.35357V1.23052C17.5062 1.17719 17.5103 1.12797 17.5226 1.08285C17.5759 1.11567 17.6374 1.17719 17.703 1.26333C17.7358 1.30845 17.7892 1.37818 17.8589 1.47662ZM13.6013 2.83019L13.5439 3.05988C13.5234 3.05578 13.4824 3.02707 13.429 2.98195C13.3757 2.93683 13.3265 2.91632 13.2814 2.92863C13.2116 3.02707 13.1624 3.19524 13.1419 3.43314C13.1214 3.67104 13.0804 3.83511 13.0271 3.92945C12.982 3.89253 12.904 3.74077 12.7892 3.47826C12.703 3.28138 12.6005 3.20344 12.4856 3.24036C12.4159 3.25677 12.3503 3.22395 12.297 3.14192C12.297 3.06399 12.3052 2.99836 12.3257 2.94504C12.3462 2.89171 12.379 2.84249 12.4282 2.79737C12.5923 2.81788 12.7194 2.92043 12.8138 3.1009C12.8835 3.26087 12.9573 3.41674 13.0271 3.5767C13.0558 3.41674 13.0886 3.25266 13.1255 3.08039C13.1624 2.90812 13.2363 2.77687 13.3388 2.68253C13.3757 2.68253 13.4249 2.69073 13.4783 2.71124C13.5316 2.73175 13.5726 2.76866 13.6013 2.83019ZM10.1969 0.0984405L10.082 0.311729C10.0328 0.332237 9.72518 0.459393 9.15505 0.68909C8.49467 0.955702 7.98605 1.1936 7.6292 1.40279C7.6128 1.36997 7.621 1.32486 7.65381 1.27153C7.65792 1.25923 7.69073 1.21821 7.75226 1.14028C7.99426 1.02543 8.30189 0.88597 8.67924 0.721901C9.0566 0.557832 9.56112 0.348646 10.1969 0.0984405ZM9.09762 2.28056C9.06071 2.36259 9.00738 2.45693 8.94586 2.56768C8.88433 2.67842 8.82281 2.77276 8.76128 2.8548C8.72847 2.80558 8.63823 2.73995 8.48646 2.65382C8.3347 2.56768 8.26087 2.48154 8.26087 2.3954L8.63823 2.03445L9.09762 2.28056ZM14.6924 7.09598C14.7047 7.17391 14.7088 7.21493 14.7088 7.21903C14.7088 7.26415 14.6965 7.29696 14.676 7.31747C14.5775 7.379 14.4832 7.44052 14.397 7.50615C14.2617 7.54307 14.1099 7.56357 13.9459 7.56357C13.8515 7.51025 13.7572 7.48154 13.6587 7.48154C13.5972 7.48154 13.5357 7.49385 13.4742 7.51436C13.4126 7.53486 13.347 7.56358 13.2814 7.59639C13.146 7.69073 13.0435 7.75636 12.9779 7.80148C12.8507 7.88351 12.7441 7.93683 12.6497 7.95734L11.813 8.14602C11.9606 8.11321 12.137 8.05578 12.338 7.97375C12.6005 7.863 12.8261 7.74815 13.0107 7.621C13.1952 7.49385 13.3593 7.39951 13.4988 7.33798C13.6382 7.27646 13.7613 7.24364 13.8638 7.24364C13.9582 7.24364 14.0238 7.27236 14.0607 7.32568C14.1263 7.29286 14.192 7.25184 14.2535 7.20262C14.315 7.1534 14.3765 7.10828 14.4381 7.06727C14.4996 7.02625 14.5447 7.00574 14.5775 7.00574C14.6226 7.00574 14.6596 7.03445 14.6924 7.09598ZM7.53897 3.30599C7.53897 3.30599 7.55127 3.22805 7.57178 3.1009C7.59229 2.97375 7.60459 2.8589 7.60459 2.74815C7.60459 2.60459 7.59229 2.48564 7.56768 2.3913C7.54307 2.29696 7.48975 2.20262 7.40771 2.10829L7.52256 1.92781C7.65792 2.07957 7.72765 2.28876 7.72765 2.55127C7.72765 2.67022 7.71534 2.78917 7.69483 2.89992C7.67432 3.01066 7.621 3.14602 7.53897 3.30599ZM9.56522 6.1936C9.64315 6.03363 9.70468 5.86956 9.74979 5.69319C9.79491 5.51682 9.81952 5.34454 9.81952 5.17637C9.81952 5.02461 9.79902 4.88105 9.758 4.74979C9.71698 4.61854 9.65135 4.49959 9.56522 4.39705C9.45037 4.23298 9.33142 4.10582 9.20427 4.01969C9.0566 3.91714 8.90484 3.86382 8.74487 3.86382C8.69975 3.86382 8.66694 3.86382 8.64643 3.87202C8.40443 3.95816 8.22395 4.13864 8.105 4.40525C8.04348 4.5365 7.97785 4.78671 7.90812 5.15176C7.95324 5.33224 8.04348 5.45529 8.17884 5.52092C8.27728 5.57014 8.42084 5.59475 8.61362 5.59475C8.66694 5.59475 8.74897 5.59475 8.85152 5.58654C8.95406 5.58244 9.03199 5.57834 9.08121 5.57834C9.15915 5.57834 9.23298 5.58244 9.30681 5.59475C9.38064 5.60705 9.43806 5.62346 9.48318 5.64397C9.31501 5.85726 9.09352 6.02953 8.82281 6.15668C8.55209 6.28384 8.26907 6.34947 7.97375 6.34947C7.87941 6.34947 7.78917 6.34126 7.69483 6.32486C7.31747 6.09516 7.12059 5.66038 7.10008 5.01641C7.07957 4.37243 7.06727 4.01969 7.05496 3.95406L6.62018 0.155864L6.55455 0.0738311L6.25103 0.607053C6.33716 1.07875 6.41509 1.53815 6.48072 1.99344C6.54635 2.44873 6.61608 2.94914 6.69401 3.49467C6.75554 3.74487 6.78835 4.30681 6.80066 5.17227C6.81296 6.03774 7.05086 6.64069 7.52256 6.97293C7.621 6.98934 7.72354 6.99754 7.82609 6.99754C8.15012 6.99754 8.46185 6.92781 8.76538 6.78425C9.06891 6.64069 9.33552 6.44381 9.56522 6.1936ZM5.54553 1.37818C5.54553 1.48072 5.53322 1.57096 5.50451 1.64889C5.4758 1.72682 5.42248 1.78015 5.34044 1.81296C5.27482 1.81706 5.2297 1.79655 5.20509 1.74323C5.18048 1.68991 5.16407 1.64479 5.15587 1.60787C5.14766 1.57096 5.14356 1.51353 5.14356 1.44381C5.14356 1.33306 5.15176 1.24692 5.16817 1.1854C5.18458 1.12387 5.2379 0.988514 5.32404 0.78753C5.32404 0.836751 5.31993 0.890072 5.30763 0.943394C5.27482 1.11156 5.25841 1.21821 5.25841 1.25513C5.25841 1.34947 5.27071 1.41509 5.29943 1.45611C5.32814 1.49713 5.36916 1.53404 5.42248 1.56686C5.44299 1.52174 5.46349 1.48072 5.484 1.44381C5.50451 1.40689 5.52502 1.38228 5.54553 1.37818ZM4.13454 0.401967L4.08532 0.598851C4.0361 0.561936 3.99918 0.533222 3.97867 0.516815C3.93355 0.484001 3.89664 0.467596 3.86382 0.467596C3.78589 0.783429 3.71206 1.10336 3.63413 1.4192C3.59721 1.37408 3.52338 1.24282 3.42084 1.01723C3.37572 0.918784 3.3265 0.83265 3.26497 0.762921C3.23626 0.779328 3.20755 0.78753 3.17473 0.78753C3.12961 0.78753 3.0927 0.783428 3.06399 0.771123C3.03527 0.758818 2.97375 0.721903 2.88761 0.656275C2.90402 0.570139 2.92863 0.492206 2.96555 0.422477C3.00246 0.352748 3.05578 0.303526 3.12551 0.270712C3.25677 0.352747 3.37572 0.512715 3.47826 0.746513C3.5603 0.931091 3.61362 1.04594 3.63413 1.08285C3.67104 0.873667 3.70386 0.713699 3.72436 0.598851C3.77359 0.38146 3.84331 0.270712 3.92945 0.270712C3.99508 0.270712 4.06481 0.315831 4.13454 0.401967ZM4.88925 2.81378C4.84413 2.91222 4.79902 2.99836 4.74979 3.07629C4.70057 3.15422 4.63085 3.24446 4.54471 3.347C4.49959 3.3306 4.39295 3.26497 4.21657 3.15012C4.08121 3.06399 3.96637 3.01887 3.88023 3.01887C3.85972 3.04758 3.82281 3.105 3.77769 3.19934C3.73257 3.29368 3.68335 3.35521 3.63413 3.38802C3.53569 3.37572 3.42904 3.34701 3.31419 3.29368C3.19934 3.24036 3.0886 3.19114 2.98605 3.14192C3.01477 3.04348 3.05578 2.94914 3.10911 2.863C3.16243 2.77686 3.23216 2.68252 3.31419 2.58408C3.41263 2.58408 3.51928 2.6128 3.63413 2.67432C3.83101 2.77276 3.93355 2.82608 3.93765 2.83019L4.29861 2.42001C4.36013 2.44873 4.43396 2.48975 4.5242 2.54717C4.61444 2.60459 4.73749 2.69483 4.88925 2.81378ZM1.64889 1.38638C1.57916 1.53404 1.45201 1.75964 1.27153 2.06727C0.972108 2.57178 0.820345 2.97375 0.820345 3.27317C0.820345 3.3429 0.824446 3.41673 0.83265 3.49056C0.840853 3.56439 0.869565 3.66284 0.918786 3.78179C0.947498 3.8105 0.972108 3.83101 0.996719 3.85152C1.02133 3.87203 1.05004 3.88023 1.08285 3.88023C1.09926 3.88023 1.11977 3.87202 1.14848 3.85562C1.22642 3.75718 1.30025 3.65874 1.37818 3.5603C1.37818 3.72847 1.34126 3.89663 1.27153 4.0607C1.2018 4.22477 1.10336 4.37243 0.97621 4.50369C0.943396 4.516 0.910582 4.5201 0.877769 4.5201C0.783429 4.5201 0.7137 4.49138 0.664479 4.42986C0.615258 4.31911 0.578343 4.20426 0.549631 4.07711C0.520919 3.94996 0.508614 3.83511 0.508614 3.72436C0.508614 3.3347 0.631665 2.91222 0.877769 2.45283C0.939295 2.33798 1.07875 2.11239 1.30435 1.77194C1.33716 1.74323 1.39048 1.68171 1.46021 1.58327C1.52994 1.48482 1.59557 1.41919 1.64889 1.38638ZM2.64971 4.56111C2.64971 4.65955 2.63331 4.758 2.60049 4.85234C2.56768 4.94668 2.51436 5.01641 2.44463 5.05332C2.34619 5.07383 2.27646 5.03281 2.23544 4.93027C2.19442 4.82773 2.16981 4.7703 2.16571 4.7662C2.16571 4.63084 2.19032 4.49549 2.23954 4.36013C2.28876 4.22477 2.33798 4.09762 2.3872 3.97047C2.3872 4.01559 2.3749 4.07711 2.35439 4.15915C2.30517 4.34372 2.28056 4.46677 2.28056 4.5201C2.28056 4.63905 2.32568 4.73749 2.42002 4.80722C2.48975 4.81952 2.53897 4.78261 2.56358 4.70057C2.58819 4.61854 2.6169 4.57342 2.64971 4.56111ZM6.02133 5.99672C6.00082 5.9475 5.96801 5.91468 5.92699 5.89417C5.88597 5.87367 5.83675 5.86546 5.77523 5.86546C4.86054 6.01312 3.94996 6.16079 3.03527 6.30845C2.75636 6.35767 2.48154 6.38228 2.20673 6.38228C1.87449 6.38228 1.56686 6.33716 1.28384 6.25102C1.00082 6.16489 0.734208 6.01723 0.4758 5.80804C0.410172 5.74651 0.365053 5.68499 0.340443 5.61936C0.315833 5.55373 0.303528 5.484 0.303528 5.40607C0.389664 5.10665 0.479902 4.80312 0.574241 4.50369C0.455291 4.60213 0.352748 4.74159 0.274815 4.92617C0.196883 5.11074 0.123052 5.28302 0.0574241 5.44709C0.0410172 5.52502 0.0287121 5.59885 0.0164069 5.67678C0.00410172 5.75472 0 5.82445 0 5.89007C0 6.00902 0.0205086 6.12797 0.0615258 6.24282C0.102543 6.35767 0.164069 6.44791 0.246103 6.51353C0.463495 6.68171 0.697293 6.80476 0.943396 6.87449C1.1895 6.94421 1.46432 6.98113 1.76374 6.98113C1.86628 6.98113 1.94011 6.98113 1.98523 6.98113C2.03035 6.98113 2.1411 6.96882 2.32568 6.94832C2.51025 6.92781 2.75636 6.88679 3.07219 6.82116C3.38802 6.75554 3.82691 6.65299 4.39705 6.51764C4.516 6.50123 4.64315 6.48072 4.77851 6.46021C4.91386 6.4397 5.03281 6.4274 5.14356 6.4274C5.27071 6.4274 5.38556 6.44791 5.49631 6.48482C5.45939 6.56686 5.18458 6.84167 4.67596 7.31337C4.47498 7.49795 4.35603 7.68253 4.32322 7.863C4.65546 7.58819 4.9918 7.31747 5.32404 7.05086C5.7055 6.70631 5.93929 6.35767 6.02133 6.00082V5.99672ZM16.4233 5.52912C15.968 5.70549 15.6071 5.82855 15.3404 5.89828C14.9426 6.00082 14.557 6.05414 14.192 6.05414C13.95 6.05414 13.7121 6.02953 13.4701 5.98031C13.7203 5.66858 13.9623 5.42658 14.192 5.25841C14.4914 5.03281 14.7949 4.92207 15.0943 4.92207C15.2092 4.92207 15.3281 4.93847 15.4553 4.97129C15.7629 5.05742 15.9844 5.14766 16.1198 5.2338C16.2551 5.31993 16.3577 5.41837 16.4233 5.52912ZM14.4627 7.22723C14.4299 7.21083 14.3806 7.22313 14.315 7.26005C14.2699 7.28056 14.2371 7.31337 14.2084 7.35029C14.3068 7.35029 14.3765 7.34208 14.4217 7.32157C14.4668 7.30107 14.4914 7.28466 14.4955 7.26825C14.4996 7.25185 14.4914 7.23954 14.4627 7.22723ZM9.15505 4.90566C9.08942 4.90976 9.02379 4.91797 8.95406 4.92207C8.88433 4.92617 8.8146 4.93027 8.73667 4.93027C8.63823 4.93027 8.54799 4.91796 8.47006 4.88925C8.39213 4.86054 8.3306 4.81132 8.28548 4.73339C8.30599 4.66776 8.3306 4.62264 8.35931 4.59393C8.38802 4.56522 8.41674 4.54881 8.44955 4.5365C8.62592 4.5365 8.78589 4.58983 8.93355 4.70057C8.98687 4.74569 9.06071 4.81132 9.15505 4.90566Z" fill="white"/>
</svg>
