<svg width="20" height="11" viewBox="0 0 20 11" fill="none" xmlns="http://www.w3.org/2000/svg">
<path fill-rule="evenodd" clip-rule="evenodd" d="M20 2.27196C19.9328 2.2272 19.8489 2.12087 19.7426 1.9474C19.681 1.85227 19.6307 1.77392 19.5859 1.72356L19.474 1.86905C19.474 2.3559 19.5355 3.04421 19.653 3.93956C19.7426 4.59429 19.7985 5.05316 19.8209 5.31058C19.8433 5.56799 19.8545 5.75266 19.8601 5.86458C19.8601 5.9765 19.8601 6.09401 19.8601 6.22272C19.8601 6.64801 19.8265 7.02854 19.765 7.3643C19.7034 7.70006 19.5859 8.04701 19.4236 8.40515C19.474 7.98545 19.502 7.54337 19.502 7.07331C19.502 6.47454 19.4516 5.81421 19.3565 5.08674C19.2613 4.35926 19.1606 3.615 19.0655 2.85954C18.9703 2.10408 18.92 1.46055 18.92 0.928931C18.9032 0.856184 18.8976 0.800224 18.8976 0.761052C18.8976 0.632345 18.9312 0.503637 19.0039 0.369334C19.0767 0.235031 19.1606 0.117515 19.2669 0.0223839C19.4236 0.453274 19.5803 0.884163 19.737 1.30946L19.7706 1.28707C19.7706 1.40459 19.7874 1.5277 19.8265 1.65081C19.8657 1.77392 19.9217 1.91942 19.9944 2.0817H19.9496C19.9664 2.12647 19.9776 2.17124 19.9944 2.216V2.27196H20ZM16.2955 4.25294C16.3123 4.32009 16.3067 4.39843 16.2843 4.49356C16.2619 4.5887 16.2003 4.67264 16.1052 4.75658C16.0325 4.75658 15.9653 4.7286 15.9149 4.67264C15.8646 4.61668 15.8198 4.54393 15.7806 4.45439C15.7583 4.25853 15.7862 4.05708 15.8702 3.85003C15.9149 3.72132 15.9989 3.55344 16.1276 3.34639C16.1276 3.43033 16.0996 3.55344 16.0381 3.72692C15.9765 3.90039 15.9485 4.0235 15.9485 4.10744C15.9485 4.24175 15.9989 4.34807 16.1052 4.43201C16.1668 4.4488 16.2003 4.42082 16.2171 4.35926C16.2339 4.29771 16.2563 4.25853 16.2955 4.25294ZM15.4001 3.11136C15.3386 3.15613 15.2658 3.24566 15.1819 3.38556C15.0979 3.52546 15.014 3.6094 14.9412 3.64857C14.8741 3.62059 14.7622 3.54785 14.6055 3.44152C14.4488 3.3352 14.3201 3.27364 14.2138 3.25686C14.1746 3.32401 14.1242 3.40795 14.0571 3.50308C13.9899 3.59821 13.9284 3.67096 13.8668 3.71572C13.7605 3.69334 13.6486 3.64857 13.5199 3.58702C13.3912 3.52546 13.268 3.46391 13.1505 3.40235C13.1673 3.29043 13.2177 3.17292 13.3072 3.04421C13.3744 2.94908 13.4695 2.83716 13.5982 2.71964C13.6933 2.73643 13.7997 2.7756 13.9116 2.83716C14.0235 2.89871 14.1298 2.96027 14.2362 3.02182L14.6726 2.51819C14.9133 2.62451 15.0867 2.72524 15.1987 2.82037C15.3106 2.9155 15.3777 3.01623 15.4001 3.11136ZM15.8142 0.246223C15.7694 0.397314 15.6911 0.481253 15.5792 0.503637C15.4841 0.531617 14.7286 0.733072 13.3184 1.108C12.3279 1.37661 11.5725 1.58366 11.0576 1.73475C10.2742 1.96419 9.53553 2.21041 8.84163 2.47342C8.93677 2.2272 9.1662 2.05932 9.52434 1.96978C10.0392 1.84107 10.3358 1.75713 10.4085 1.71237C10.8282 1.59485 11.4214 1.42697 12.1992 1.20873C12.826 1.03525 13.4247 0.872971 14.0011 0.72188C14.5775 0.570789 15.1819 0.408506 15.8142 0.246223ZM12.4342 2.60772C12.4342 2.60772 12.3895 2.65809 12.3503 2.71964C12.3111 2.7812 12.272 2.81477 12.2328 2.82037C12.1489 2.73643 12.1097 2.6357 12.1097 2.50699C12.1097 2.45663 12.1153 2.38948 12.1321 2.31673C12.1489 2.24398 12.1656 2.15445 12.188 2.05932C12.1656 2.10408 12.1265 2.19362 12.0649 2.33352C12.0034 2.47342 11.9754 2.60213 11.9754 2.73083C11.9754 2.86514 12.009 2.97706 12.0761 3.06659C12.0817 3.06659 12.0985 3.06659 12.1265 3.08338C12.1544 3.09457 12.1768 3.10017 12.1992 3.10017C12.244 3.10017 12.2832 3.07219 12.3111 3.02182C12.3391 2.97146 12.3783 2.90431 12.4175 2.82037C12.4566 2.73643 12.4622 2.66928 12.4342 2.60772ZM9.82653 1.04085C9.82653 1.04085 9.77057 1.06883 9.73139 1.13039C9.69222 1.19194 9.64745 1.21992 9.60269 1.21992C9.49077 1.18075 9.43481 1.10241 9.43481 0.984891C9.43481 0.940123 9.446 0.867375 9.47398 0.761052C9.50196 0.654729 9.51315 0.587577 9.51315 0.559597C9.35646 0.77784 9.27812 1.01287 9.27812 1.27588C9.31729 1.34303 9.35646 1.39899 9.39564 1.43816C9.43481 1.47734 9.49077 1.49972 9.55792 1.49972C9.73699 1.41578 9.82653 1.26469 9.82653 1.04085ZM11.8187 4.51035L11.7515 4.70062C11.69 4.723 11.6228 4.70062 11.5389 4.63906C11.455 4.5775 11.399 4.54393 11.3598 4.54393C11.2535 4.94124 11.1528 5.33296 11.0464 5.73027C10.9849 5.67991 10.9121 5.52882 10.8226 5.28819C10.7331 5.04757 10.6267 4.92445 10.498 4.92445C10.4477 4.92445 10.4029 4.93005 10.3637 4.94684C10.3358 4.94124 10.291 4.88528 10.2406 4.77896C10.2462 4.77336 10.2742 4.70621 10.3134 4.5887C10.3525 4.47118 10.4029 4.38724 10.4533 4.34247C10.61 4.40963 10.7387 4.54952 10.8338 4.75658C10.9065 4.94124 10.9849 5.12591 11.0688 5.30498C11.0968 5.24342 11.136 5.08114 11.1807 4.81813C11.2255 4.55512 11.3095 4.36486 11.427 4.25294C11.5893 4.25294 11.7236 4.33688 11.8187 4.51035ZM7.52098 0.604365C7.54337 0.632345 7.54337 0.677112 7.52658 0.733072C7.50979 0.789032 7.4986 0.828204 7.4986 0.850588C7.45943 0.867375 7.40347 0.850588 7.33072 0.80582C7.25797 0.761052 7.20761 0.738668 7.18523 0.738668C7.13486 0.738668 7.09569 0.77784 7.07331 0.850588V1.18635C7.07331 1.41018 7.06211 1.59485 7.03413 1.74594C7.00615 1.89703 6.9446 2.03134 6.84947 2.14885C6.82149 2.09849 6.75434 1.96419 6.65921 1.75713C6.59205 1.60045 6.51931 1.47174 6.43537 1.37661C6.37381 1.41578 6.30666 1.41018 6.22832 1.37101C6.14997 1.33184 6.07163 1.28707 5.99888 1.24231C5.98209 1.21433 5.9765 1.18075 5.9765 1.15277V1.08562C5.9765 0.956911 6.02126 0.839396 6.1108 0.727476C6.28987 0.77784 6.44656 0.912143 6.58086 1.13039C6.68718 1.31505 6.78791 1.50532 6.89424 1.68998C6.91102 1.39899 6.92222 1.15277 6.939 0.945719C6.95579 0.738668 7.03413 0.570789 7.17403 0.436486C7.29155 0.436486 7.40907 0.492445 7.52098 0.604365ZM14.3928 9.05428C14.3928 9.14941 14.3705 9.25014 14.3201 9.34527C14.2697 9.4404 14.197 9.51315 14.1018 9.55792C14.0515 9.57471 13.9899 9.56911 13.9284 9.54673C13.8668 9.52434 13.8276 9.46838 13.822 9.37885C13.822 9.14941 13.878 8.892 13.9899 8.6066C14.0515 8.45551 14.1074 8.31002 14.169 8.17012C14.1858 8.26525 14.169 8.36598 14.1354 8.4723C14.0291 8.79127 13.9787 8.96474 13.9787 8.98713C13.9787 9.10464 14.0291 9.21097 14.1242 9.3005C14.1914 9.3005 14.2473 9.26133 14.2921 9.18299C14.3369 9.10464 14.3705 9.05988 14.3928 9.05428ZM10.0839 3.34639L9.88248 3.52546L5.49524 4.77896L5.37213 4.86849C5.4113 4.77336 5.45047 4.68383 5.50084 4.61108C5.5512 4.53833 5.61276 4.49356 5.6967 4.47678C6.42977 4.28092 7.16284 4.09065 7.90151 3.8948C8.50588 3.73251 9.23335 3.52546 10.0839 3.27924V3.34639ZM17.5602 1.95859C17.5602 1.6676 17.4818 1.34863 17.3307 1.00168C17.1796 0.654729 17.0285 0.31897 16.8774 0C16.7823 0.0951315 16.6984 0.201455 16.6368 0.313374C16.5753 0.425294 16.5417 0.531617 16.5417 0.637941C16.5417 0.688304 16.5529 0.744264 16.5753 0.80582C16.5921 0.923335 16.6928 1.61724 16.8774 2.87633C16.9726 3.56463 17.0733 4.24734 17.1796 4.93565C17.2468 5.43369 17.3363 6.12199 17.4482 6.99496C16.9782 7.37549 16.4074 7.56575 15.7359 7.56575H15.5232C15.4561 7.56575 15.3833 7.56016 15.3106 7.54337C15.3106 7.53777 15.3609 7.31953 15.4561 6.89424C15.5176 6.62563 15.5456 6.40179 15.5456 6.22272C15.5456 6.1052 15.5288 5.98209 15.5008 5.86458C15.4729 5.74706 15.4281 5.63514 15.3665 5.54001C15.305 5.44488 15.2322 5.36094 15.1427 5.29379C15.0532 5.22664 14.958 5.19866 14.8629 5.21544C14.4992 5.46726 14.2194 5.80302 14.0347 6.22272C13.9508 6.40179 13.906 6.51931 13.8892 6.56967C13.822 6.77672 13.7885 6.98377 13.7885 7.18523C13.7885 7.29155 13.7997 7.39228 13.822 7.4986C13.2121 7.6385 12.6021 7.75042 12.0034 7.82317C11.4046 7.89591 10.7946 7.93509 10.1847 7.93509C9.51875 7.93509 8.90878 7.83996 8.34919 7.65529C7.78959 7.47062 7.29715 7.17963 6.87185 6.78232L6.82708 6.58086C6.78232 6.59765 6.74874 6.62563 6.72636 6.6704C6.70397 6.71517 6.67599 6.76553 6.64801 6.82708C6.60884 6.82708 6.54729 6.82149 6.45775 6.8047H6.28987C5.8366 6.8047 5.38892 6.91662 4.94684 7.14046C4.61108 7.31393 4.23615 7.57694 3.81645 7.93509C3.50867 8.20369 3.20649 8.4723 2.9099 8.74091C2.29994 9.27812 1.75713 9.63626 1.28707 9.81533C1.2479 9.82093 1.19194 9.82652 1.108 9.82652C0.934527 9.82652 0.783436 9.79295 0.643536 9.73139C0.503637 9.66984 0.391718 9.57471 0.302182 9.446C0.229435 9.29491 0.190263 9.13822 0.190263 8.96475C0.190263 8.76329 0.251819 8.51707 0.369334 8.22608C0.548405 7.7784 0.643537 7.54896 0.649133 7.53218C0.408506 7.95187 0.263011 8.21488 0.212647 8.3268C0.0727477 8.64577 0 8.94796 0 9.22216C0 9.35646 0.0167879 9.49636 0.0447677 9.64186C0.0727476 9.78735 0.173475 9.92166 0.34695 10.0504C0.486849 10.1567 0.649132 10.2294 0.828203 10.2742C1.31505 10.2742 1.8075 10.1063 2.30554 9.77056C2.46223 9.66424 2.88193 9.31729 3.57023 8.71852C3.97874 8.35478 4.32568 8.09177 4.61108 7.93509C5.00839 7.71125 5.40011 7.59933 5.78623 7.59933C5.89256 7.59933 6.00448 7.60492 6.12199 7.62171C6.23951 7.6385 6.34583 7.66088 6.43537 7.68886C6.42977 7.73363 6.42417 7.80078 6.42417 7.89032C6.42417 8.22048 6.51371 8.52826 6.69278 8.81365C6.87185 9.09905 7.10129 9.33968 7.38668 9.53553C7.52658 9.22776 7.62731 8.97594 7.67767 8.78008C7.72804 8.58422 7.75602 8.40515 7.75602 8.24846C8.14214 8.43313 8.54505 8.55624 8.95915 8.61779C9.37325 8.67935 9.87129 8.70733 10.4533 8.70733C10.8954 8.70733 11.3766 8.66816 11.897 8.59541C12.0145 8.57862 12.4678 8.50588 13.2513 8.37157C13.3464 8.37157 13.5814 8.30442 13.9564 8.17012C14.1186 8.10856 14.2585 8.08058 14.3705 8.08058C14.5439 8.08058 14.6894 8.14214 14.8181 8.27084C15.0476 8.34359 15.305 8.38276 15.5792 8.38276C16.2955 8.38276 16.9166 8.16452 17.4482 7.72244C17.5434 7.53777 17.6161 7.34191 17.6553 7.14605C17.6945 6.9502 17.7168 6.73755 17.7168 6.51371C17.7168 6.31785 17.6553 5.80302 17.5266 4.95803C17.4762 4.61668 17.4482 4.31449 17.4482 4.06267C17.3867 3.69894 17.3251 3.31841 17.2636 2.9211C17.202 2.52378 17.1684 2.17683 17.1684 1.88025C17.1684 1.79071 17.1684 1.71796 17.1684 1.65641C17.1684 1.59485 17.1796 1.5333 17.1852 1.46614C17.2244 1.50532 17.2804 1.58366 17.3531 1.71237C17.4259 1.84107 17.493 1.91942 17.5546 1.95859H17.5602ZM9.08786 5.73027C9.05988 5.82541 9.0263 5.93173 8.98713 6.03805C8.94796 6.14438 8.88081 6.21153 8.78567 6.23391C8.69054 6.23391 8.63458 6.19474 8.61779 6.1164C8.60101 6.03805 8.59541 5.9709 8.59541 5.90935C8.59541 5.77504 8.61779 5.64633 8.66256 5.52322C8.70733 5.40011 8.76889 5.26581 8.85283 5.12591C8.82485 5.21544 8.79687 5.30498 8.78008 5.38892C8.76329 5.47286 8.7521 5.5568 8.7521 5.64074C8.7521 5.76945 8.78008 5.86458 8.84163 5.93173C8.90319 5.93733 8.94796 5.92054 8.97594 5.87577C9.00392 5.80302 9.0263 5.75266 9.04309 5.73027H9.08786ZM3.87241 0.581981L3.82764 0.839396L3.57023 0.738668C3.52546 1.04645 3.49748 1.27029 3.48069 1.42138C3.44152 1.70677 3.37437 1.89703 3.27924 1.99217C3.09457 1.59485 2.99384 1.3878 2.97706 1.36542C2.85954 1.15837 2.70285 0.984891 2.51819 0.850588L2.60772 0.470062C2.80358 0.554001 2.97146 0.755456 3.11136 1.08562C3.17292 1.24231 3.23447 1.3934 3.30162 1.54449C3.34079 1.27588 3.36877 1.02966 3.39675 0.811416C3.42473 0.593173 3.50308 0.481254 3.63738 0.481254C3.68774 0.481254 3.76609 0.514829 3.87241 0.581981ZM3.80526 2.54057C3.78288 2.69166 3.615 2.7756 3.30722 2.79799C2.99944 2.82037 2.81477 2.90431 2.75322 3.0554C2.84835 3.56463 2.9211 3.96754 2.96027 4.26413C2.99944 4.56072 3.02182 4.80694 3.02182 4.99161C3.02182 5.43369 3.00504 5.79183 2.96586 6.07163C2.92669 6.35143 2.83716 6.63123 2.69726 6.90543C2.7812 6.68719 2.83716 6.46894 2.86514 6.2507C2.89312 6.03246 2.9099 5.79183 2.9099 5.52882C2.9099 5.19866 2.88192 4.87409 2.83156 4.55512C2.7812 4.23615 2.70285 3.86122 2.60772 3.43593C2.60772 3.22888 2.6357 3.0498 2.68607 2.90431C2.73643 2.75881 2.83716 2.64689 2.98825 2.56295L3.40235 2.4958C3.36318 2.41186 3.29603 2.37269 3.1897 2.37269C3.12815 2.37269 3.07219 2.38948 3.02182 2.42865L2.98825 2.47342C2.96027 2.43425 2.95467 2.38388 2.98825 2.32233C3.01623 2.26077 3.02742 2.216 3.02742 2.19362C3.08898 2.10968 3.17851 2.07051 3.29603 2.07051C3.3352 2.07051 3.38556 2.0873 3.45271 2.12647C3.51987 2.16564 3.58702 2.216 3.64857 2.28875C3.71013 2.3615 3.76609 2.44544 3.81086 2.54057H3.80526ZM4.73419 6.01007C4.68942 6.12759 4.65585 6.21712 4.63346 6.26749C4.5887 6.36262 4.52714 6.44096 4.45439 6.49133C4.33688 6.49133 4.24175 6.42977 4.17459 6.30106C4.169 6.27308 4.1634 6.22832 4.1634 6.16676C4.1634 6.00448 4.20817 5.831 4.29771 5.65193C4.36486 5.52322 4.45999 5.37213 4.5887 5.19306C4.49356 5.40011 4.43201 5.54561 4.40963 5.61835C4.36486 5.74706 4.34247 5.84779 4.34247 5.92054C4.34247 5.95971 4.35366 6.03246 4.38164 6.13878C4.40962 6.2451 4.47118 6.26189 4.56631 6.18914C4.61668 6.1164 4.65025 6.05484 4.65585 6.01007H4.73419ZM1.5333 6.14438C1.5333 6.63123 1.37101 7.02854 1.04085 7.34191C1.01287 7.3587 0.968103 7.3643 0.906547 7.3643C0.839396 7.3643 0.783436 7.35311 0.744264 7.33072C0.705092 7.30834 0.63794 7.26357 0.548405 7.19642C0.408506 6.91102 0.335758 6.62003 0.335758 6.31225C0.335758 6.00448 0.40291 5.66872 0.537213 5.31617C0.559597 5.25462 0.822608 4.75098 1.33184 3.79407C1.30386 3.93397 1.17515 4.24734 0.951315 4.73419C0.755456 5.15948 0.660324 5.49524 0.660324 5.74147C0.660324 5.90375 0.688304 6.05484 0.744264 6.18355C0.800224 6.31225 0.900951 6.44656 1.04085 6.58086C1.12479 6.58646 1.19754 6.56407 1.25909 6.51371C1.32065 6.46335 1.37661 6.3906 1.41578 6.30106C1.45495 6.21153 1.49412 6.16116 1.5333 6.14438ZM15.2546 6.9502C15.0252 7.05652 14.7902 7.15725 14.5607 7.25238C14.4488 7.16284 14.3537 7.07331 14.2809 6.98377C14.2082 6.89424 14.1466 6.7991 14.1018 6.69278C14.2138 6.45215 14.3984 6.2507 14.6614 6.07722C14.7734 6.04924 14.8797 6.07722 14.9748 6.16676C15.042 6.22832 15.1035 6.31785 15.1651 6.43537C15.2043 6.50811 15.2266 6.58646 15.2378 6.6592C15.249 6.73195 15.2546 6.83268 15.2546 6.9502Z" fill="white"/>
</svg>
