<svg width="20" height="15" viewBox="0 0 20 15" fill="none" xmlns="http://www.w3.org/2000/svg">
<path fill-rule="evenodd" clip-rule="evenodd" d="M12.0226 1.54908L11.8282 1.42991C11.6651 1.76231 11.3892 2.11351 10.9878 2.48353C10.7369 2.71558 10.3732 3.01034 9.90279 3.37409C10.4735 2.71558 11.0505 2.0508 11.6337 1.37974C11.5961 1.34211 11.4895 1.26685 11.3264 1.16023C11.1634 1.05362 11.0568 0.953277 11.0191 0.852932C11.0881 0.696143 11.1696 0.526809 11.2574 0.351206C11.3452 0.175602 11.4707 0.0627156 11.6337 0C11.8658 0.0188147 11.9975 0.112886 12.0226 0.282218C11.9724 0.37002 11.9473 0.457817 11.9473 0.551891C11.9473 0.645964 11.9975 0.777669 12.0978 0.965816C12.1606 1.0787 12.1856 1.16023 12.1856 1.21667C12.1856 1.31702 12.1292 1.42364 12.0226 1.5428V1.54908ZM12.5807 2.10724C12.518 2.28912 12.4616 2.47099 12.3989 2.6466C12.2484 2.70931 12.1731 2.66541 12.1731 2.52116C12.1731 2.37691 12.1543 2.29539 12.1104 2.2703C12.0978 2.28284 12.0727 2.37064 12.0226 2.53997C11.9724 2.70931 11.916 2.81592 11.847 2.8661C11.778 2.91627 11.7215 2.93508 11.6714 2.93508C11.6087 2.93508 11.5648 2.87237 11.5334 2.74067C11.502 2.60897 11.4707 2.53371 11.4456 2.51489C11.408 2.62778 11.3766 2.72812 11.3641 2.82847C11.3515 2.92881 11.339 3.06678 11.339 3.23612C11.4268 3.32392 11.5271 3.37409 11.6275 3.37409C11.6776 3.37409 11.8658 3.26748 12.1982 3.06051C12.3173 2.97898 12.4302 2.9539 12.5306 2.98526C12.5306 2.91627 12.5557 2.80965 12.6058 2.67168C12.656 2.53371 12.6811 2.42709 12.6811 2.3581C12.6811 2.2703 12.6435 2.18877 12.5745 2.11978L12.5807 2.10724ZM13.3772 4.42772C13.3271 4.59078 13.2393 4.76638 13.1201 4.96707C13.0699 5.05487 12.957 5.23047 12.7877 5.48134L11.7654 5.0925C11.8846 4.62214 12.1041 4.24584 12.4302 3.96362C12.4929 4.00125 12.6372 4.06396 12.8755 4.13922C13.1138 4.21448 13.2769 4.31483 13.3772 4.43399V4.42772ZM20 7.72655C20 8.64847 19.9122 9.51395 19.7366 10.3167C19.561 11.1195 19.2725 11.8595 18.8711 12.5431C18.4384 13.4588 17.7172 14.0608 16.7012 14.3619C16.0803 14.5437 15.1019 14.6315 13.7661 14.6315L12.424 14.6002C13.1389 14.6002 13.8413 14.4998 14.5312 14.2929C15.2211 14.0859 15.8984 13.7974 16.5506 13.4274C17.2029 13.0574 17.7673 12.6121 18.244 12.0853C18.7206 11.5647 19.1094 10.9439 19.4105 10.2352C19.6237 9.746 19.7241 9.20665 19.7241 8.62339C19.7241 8.13421 19.6488 7.61994 19.4983 7.08685C19.3101 6.4158 18.9715 5.62559 18.4886 4.72248C18.4196 5.38727 18.3819 6.12104 18.3819 6.93634C18.3819 7.14958 18.407 7.60739 18.4572 8.32235C18.476 8.60457 18.4886 8.86171 18.4886 9.08748C18.4886 9.13765 18.4886 9.20037 18.4823 9.2819C18.4823 9.36343 18.4321 9.38852 18.3569 9.35716C18.2753 8.94324 18.2189 8.48541 18.175 7.97115C18.1373 7.45688 18.1123 6.94261 18.1123 6.42207C18.1123 5.82 18.1436 5.23047 18.2001 4.64722C18.2628 4.06396 18.3569 3.51834 18.4886 3.00407C18.9715 3.64377 19.3415 4.37755 19.6049 5.19285C19.8683 6.00815 19.9937 6.84853 19.9937 7.71401L20 7.72655ZM16.4315 5.15522C16.2935 3.93854 15.9172 2.87237 15.3151 1.95046C15.127 2.41455 14.9953 2.91627 14.9263 3.45563C14.8573 3.99498 14.8197 4.60332 14.8197 5.27437C14.8197 5.34336 14.8322 5.76356 14.8511 6.54123C14.8699 7.31263 14.8824 7.85826 14.8824 8.16556H14.989C15.0517 7.68265 15.0956 6.91125 15.127 5.84509C15.1584 4.77892 15.196 4.0577 15.2462 3.67513C15.4657 4.00753 15.6413 4.39009 15.773 4.81655C15.7855 4.83537 15.8859 5.24929 16.0865 6.05205C16.1367 6.27155 16.1618 6.4597 16.1618 6.61022C16.1618 6.94888 16.0803 7.26246 15.9235 7.54468C15.8106 7.73283 15.6538 7.93979 15.4406 8.15929C15.3026 8.30981 15.1145 8.49169 14.8824 8.69865C14.7632 8.78645 14.619 8.86171 14.4559 8.91816C14.2929 8.9746 14.1298 8.99968 13.9668 8.99968C13.7535 8.99968 13.5905 8.95578 13.465 8.87425C13.3396 8.78645 13.2769 8.69865 13.2769 8.5983C13.2769 8.56067 13.302 8.47287 13.3459 8.34116C13.3898 8.20946 13.4023 8.10285 13.3835 8.02759C13.302 7.99623 13.2204 7.98369 13.1452 7.98369C12.8943 7.98369 12.4929 8.29727 11.941 8.91816C11.6588 9.23801 11.4142 9.43242 11.201 9.50768C11.0818 9.28817 11.0066 9.1502 10.9752 9.10003C10.8623 8.93697 10.7495 8.83662 10.6303 8.78645C10.6115 8.77391 10.555 8.76136 10.4735 8.73628C10.3857 8.71119 10.3167 8.69865 10.254 8.69865C10.1223 8.69865 10.0157 8.74255 9.94042 8.83662C9.7899 9.1063 9.67074 9.35089 9.57667 9.55785C9.45751 9.84634 9.39479 10.1097 9.39479 10.3418C9.39479 10.461 9.41361 10.5864 9.45751 10.7118C9.49514 10.8373 9.55785 10.9439 9.63938 11.0379C9.7899 11.1195 9.97805 11.1571 10.1976 11.1571C10.2979 11.1571 10.3857 11.1571 10.4672 11.1508C10.5488 11.1508 10.6428 11.132 10.7557 11.1132C10.3167 12.0853 9.56413 12.9069 8.49796 13.5717C7.72656 14.0546 6.72311 14.4936 5.48761 14.8761H5.74475C7.46943 14.7131 8.72374 14.3744 9.50768 13.8539C10.1913 13.4023 10.6491 12.7814 10.8749 11.9849C10.9564 11.6839 11.0379 11.408 11.1132 11.1508C11.1947 10.8937 11.2763 10.6867 11.3515 10.5237C11.7404 10.1348 12.1417 9.73345 12.5431 9.33207C12.6936 9.21291 12.8065 9.1502 12.8755 9.1502C12.957 9.1502 13.0009 9.29445 13.0135 9.58921C13.026 9.8777 13.1013 10.047 13.2393 10.0847C13.3271 10.1725 13.4149 10.2289 13.4901 10.2415C13.5654 10.254 13.6908 10.2665 13.8727 10.2665H14.0985C14.5124 10.1976 14.8949 10.0031 15.2587 9.67701C15.5723 9.39479 15.8357 9.03731 16.0552 8.59203C16.3562 7.83945 16.5067 7.02414 16.5067 6.13985C16.5067 5.98933 16.5067 5.82 16.4942 5.63812C16.4817 5.44998 16.4691 5.29319 16.4503 5.16149L16.4315 5.15522ZM4.58451 3.88836L4.46535 4.25212C4.40263 4.2333 4.3211 4.18313 4.20822 4.10159C4.09533 4.02006 4.00125 3.98871 3.91972 3.99498C3.86955 4.13295 3.83192 4.48416 3.80056 5.04233C3.76921 5.6005 3.6375 5.97679 3.41173 6.17748L2.87237 4.98589C2.83474 5.05487 2.77203 5.0925 2.6905 5.0925C2.62151 5.0925 2.53998 5.07368 2.45845 5.02978C2.37065 4.99215 2.30793 4.95453 2.25776 4.92317C2.25776 4.68485 2.2703 4.50298 2.29539 4.39009C2.32048 4.2772 2.40828 4.18313 2.5588 4.11414C2.77203 4.20194 2.93509 4.35246 3.05425 4.56569C3.20477 4.93572 3.36155 5.30574 3.51834 5.66322C3.56852 5.54406 3.60615 5.16776 3.6375 4.53433C3.66886 3.90091 3.80056 3.58733 4.02634 3.58733C4.16431 3.58733 4.35246 3.68767 4.58451 3.88836ZM8.01505 8.26591C8.02759 8.31608 8.02759 8.3788 8.02759 8.46033C8.02759 8.61084 7.99624 8.78645 7.93979 8.98714C7.85199 9.30072 7.80182 9.47632 7.78928 9.52649C7.30009 9.76481 6.87363 10.2415 6.52242 10.9564C6.00188 12.0226 5.6883 12.6184 5.58796 12.7501C5.07369 13.8539 4.0138 14.4873 2.39574 14.6441C1.59298 14.7131 0.796488 14.7821 0 14.8573C0.915648 14.5751 1.61806 14.3368 2.10724 14.1361C2.89119 13.8162 3.5497 13.4588 4.07651 13.0699C4.71621 12.5996 5.23048 12.0288 5.61304 11.3515C6.03324 10.5488 6.35309 9.95296 6.57886 9.55785C6.98024 8.85543 7.45688 8.4227 8.00878 8.26591H8.01505ZM11.7027 0.815295V0.671052C11.7027 0.558164 11.6275 0.495449 11.477 0.495449C11.3954 0.495449 11.3578 0.526809 11.3578 0.595796C11.3766 0.633425 11.4205 0.671057 11.477 0.696143C11.6149 0.765131 11.6902 0.802755 11.7027 0.809027V0.815295Z" fill="white"/>
</svg>
