<svg width="20" height="12" viewBox="0 0 20 12" fill="none" xmlns="http://www.w3.org/2000/svg">
<path fill-rule="evenodd" clip-rule="evenodd" d="M19.9953 8.62754L19.7918 9.44629C19.7018 9.74917 19.593 10.0047 19.4605 10.2177C19.5125 10.0047 19.5551 9.74917 19.5835 9.45101C19.6119 9.15286 19.6309 8.88784 19.6309 8.66067C19.6309 8.19214 19.5835 7.59584 19.4936 6.87648C19.2948 5.31472 19.2002 4.33033 19.2002 3.91387C19.0204 2.92002 18.8358 1.9309 18.6559 0.937054C18.6796 0.799809 18.7222 0.662564 18.7932 0.520586C18.8594 0.378608 18.9446 0.231895 19.044 0.0709862C19.3327 0.780877 19.6214 1.49077 19.9195 2.19593C19.8817 2.16753 19.787 2.03975 19.6356 1.82205C19.5741 1.73687 19.5078 1.66114 19.4321 1.58542C19.5551 2.74491 19.6782 3.94226 19.806 5.1822C19.9337 6.42215 20 7.56744 20 8.62754H19.9953ZM17.6668 4.61902C17.6384 4.77047 17.61 4.87932 17.5864 4.95031C17.5343 5.09229 17.4633 5.19167 17.3687 5.24373C17.3071 5.25792 17.2456 5.23426 17.1746 5.17747C17.1084 5.10175 17.0611 5.04969 17.0374 5.01656C16.9901 4.88878 16.9711 4.77047 16.9711 4.66635C16.9711 4.5433 16.9948 4.42026 17.0374 4.29248C17.0469 4.26408 17.1415 4.06058 17.3213 3.69143C17.2598 3.94699 17.203 4.20729 17.151 4.46285C17.151 4.56223 17.1652 4.64269 17.1983 4.70894C17.2267 4.7752 17.2835 4.83672 17.3687 4.89825C17.4539 4.92191 17.5201 4.87459 17.5722 4.761C17.6006 4.68528 17.6337 4.63795 17.6621 4.62376L17.6668 4.61902ZM13.9849 0.359676C13.9991 0.449595 13.9707 0.539516 13.8949 0.619971C13.8192 0.705157 13.734 0.752482 13.6346 0.76668C12.6408 1.16895 11.8978 1.47657 11.4009 1.69427C10.9039 1.91197 10.4733 2.12494 10.0994 2.33791C10.0994 2.18646 10.1609 2.05868 10.2792 1.94983C10.3407 1.89777 10.5821 1.77473 11.008 1.58542C12.0019 1.17842 12.991 0.76668 13.9849 0.359676ZM13.3507 3.0194C13.3507 3.14718 13.3223 3.27496 13.2702 3.39328C13.2182 3.51633 13.1377 3.61098 13.0336 3.6867C12.9484 3.7009 12.8822 3.68197 12.8348 3.62518C12.7875 3.56838 12.7496 3.50213 12.726 3.42641C12.726 3.21344 12.7402 3.03833 12.7733 2.89635C12.8017 2.75438 12.8632 2.63133 12.9531 2.51775C12.9626 2.59347 12.9531 2.69285 12.9248 2.82063C12.8964 2.94368 12.8869 3.02414 12.8869 3.05253C12.8869 3.15192 12.9011 3.21817 12.9248 3.25603C12.9531 3.29389 12.9957 3.33175 13.0573 3.36961C13.1188 3.33175 13.1756 3.2797 13.2276 3.20871C13.2371 3.19451 13.275 3.12825 13.3507 3.01467V3.0194ZM18.4619 7.98391C18.3483 7.81827 18.2111 7.70468 18.0454 7.64316C17.8845 7.58163 17.681 7.55324 17.4397 7.55324C17.2646 7.55324 17.0516 7.57217 16.7913 7.61003C16.654 7.62423 16.4742 7.65263 16.247 7.69049L15.1585 1.92144L15.2958 1.67061L15.7832 2.24799C15.7832 2.03502 15.7028 1.77946 15.5466 1.47657C15.3431 1.0885 15.2248 0.847134 15.1964 0.747749L15.1633 0.771414C15.1396 0.686227 15.0592 0.515852 14.9266 0.260291C14.8746 0.160907 14.8367 0.0757217 14.8131 0C14.6711 0.123048 14.5717 0.24136 14.5196 0.359676C14.4676 0.477991 14.4392 0.605772 14.4392 0.752483C14.4392 0.866066 14.477 1.07903 14.5575 1.38665C14.638 1.69901 14.6758 1.94037 14.6758 2.11547L15.7454 7.74728V7.98391C15.4946 8.05963 15.0734 8.18741 14.4865 8.37198C13.5542 8.64647 12.7875 8.77899 12.1817 8.77899C11.7132 8.77899 11.2778 8.70327 10.8803 8.55182C10.4827 8.40038 10.142 8.15902 9.86275 7.823C9.61193 7.1699 9.42262 6.35589 9.29484 5.38097C9.25698 5.11595 9.17179 4.25935 9.04401 2.8159C8.94463 1.76999 8.82158 0.941786 8.67014 0.326548C8.64174 0.317082 8.62281 0.326548 8.61335 0.345478C8.60388 0.364409 8.59442 0.383339 8.58022 0.397537C8.37672 0.596307 8.2726 0.842401 8.2726 1.13582C8.2726 1.27307 8.30573 1.46711 8.37672 1.7274C8.51396 2.24325 8.58022 2.584 8.58022 2.74964C8.65594 3.16611 8.72693 3.87127 8.78845 4.86985C8.85471 5.8637 8.9399 6.62565 9.04401 7.14624C9.20492 7.93185 9.46995 8.58968 9.83909 9.11027C10.1704 9.31377 10.5111 9.45575 10.8519 9.5362C11.1926 9.61666 11.576 9.65452 11.9972 9.65452C12.6313 9.65452 13.3128 9.55513 14.0416 9.3611C14.6096 9.20965 15.2248 8.99195 15.8921 8.70327C16.0057 8.95409 16.1193 9.20019 16.2328 9.44155C16.3985 9.77283 16.6067 10.0095 16.8575 10.1467C16.9191 10.1609 17.009 10.1893 17.132 10.2272C17.2551 10.265 17.3497 10.284 17.4255 10.284C17.5296 10.284 17.6337 10.2556 17.7331 10.2035C17.9839 9.91008 18.1732 9.64505 18.301 9.41789C18.4808 9.09134 18.5755 8.78845 18.5755 8.50923C18.5755 8.33412 18.5424 8.15901 18.4714 7.98864L18.4619 7.98391ZM11.363 4.86985C11.3488 4.89825 11.3157 4.96924 11.2731 5.07335C11.2257 5.17747 11.1832 5.25792 11.1358 5.30998C11.2731 5.06862 11.3393 4.78467 11.3393 4.45812C11.3393 3.95173 11.1974 3.51633 10.9181 3.15192C10.9039 3.10459 10.9087 3.05253 10.9418 2.99101C10.9702 2.92948 11.0033 2.86796 11.0317 2.81117C11.1926 2.95314 11.3109 3.13772 11.3914 3.35542C11.4718 3.57312 11.5097 3.80975 11.5097 4.06058C11.5097 4.354 11.4624 4.62376 11.363 4.86512V4.86985ZM13.8145 5.24373L13.734 5.52769C13.7056 5.53715 13.6488 5.52768 13.5684 5.50402C13.4879 5.48036 13.4406 5.47089 13.4264 5.47089C13.3412 5.47089 13.2892 5.51822 13.2655 5.60814C13.2276 5.88736 13.1992 6.12399 13.1756 6.31803C13.1519 6.51207 13.1093 6.68244 13.0525 6.83388C12.9626 6.75816 12.8822 6.60199 12.8064 6.36062C12.7354 6.12399 12.6597 5.95362 12.584 5.85423C12.5461 5.91576 12.4941 5.94415 12.4231 5.94415C12.3758 5.94415 12.3237 5.93469 12.2622 5.91103C12.2149 5.8637 12.1959 5.79744 12.1959 5.70752C12.1959 5.6318 12.2054 5.56554 12.2196 5.51349C12.2338 5.46143 12.2527 5.39991 12.2717 5.33838C12.2906 5.27212 12.3474 5.24373 12.4373 5.24373C12.4988 5.24373 12.5651 5.28159 12.6361 5.36204C12.7071 5.4425 12.7875 5.59867 12.8727 5.82584C12.9579 6.05774 13.0194 6.20445 13.0478 6.26124C13.0951 5.98201 13.1283 5.77378 13.1519 5.63653C13.204 5.38571 13.3034 5.2106 13.4453 5.11595C13.5305 5.09229 13.6488 5.13488 13.8097 5.239L13.8145 5.24373ZM11.6895 6.77709C11.6753 6.91434 11.6422 7.03265 11.5949 7.12731C11.5476 7.22669 11.4766 7.33081 11.3867 7.44439C11.3109 7.46805 11.2541 7.45859 11.2115 7.416C11.169 7.3734 11.1311 7.30715 11.0932 7.21723C11.0838 7.1699 11.0838 7.09891 11.0838 6.99952C11.0838 6.83388 11.1027 6.68717 11.1406 6.55466C11.1784 6.42688 11.2352 6.2991 11.3109 6.18078C11.2873 6.36062 11.2636 6.5452 11.2447 6.72504C11.2447 6.81022 11.2447 6.86701 11.2541 6.90487C11.2636 6.94273 11.2873 6.99953 11.3346 7.07525C11.4103 7.09891 11.4718 7.06578 11.5239 6.98533C11.5712 6.90014 11.6091 6.84335 11.6328 6.80549L11.699 6.77236L11.6895 6.77709ZM7.52011 1.85992C7.43493 2.03502 7.27402 2.19593 7.03266 2.34737C6.36063 2.77804 5.99621 3.0194 5.94416 3.0762C5.99148 2.84903 6.12399 2.65026 6.35116 2.48462C6.19025 2.43256 6.07194 2.38523 5.98675 2.34264C5.90156 2.30005 5.84004 2.25272 5.79271 2.20066C5.83057 2.03502 5.91103 1.87884 6.02934 1.7274C6.15239 1.58069 6.29437 1.44818 6.46001 1.3346C6.5452 1.3204 6.61145 1.32513 6.65878 1.35353C6.70611 1.38192 6.76763 1.42451 6.83389 1.48604C6.84335 1.54756 6.82442 1.60909 6.77709 1.66588C6.72977 1.7274 6.68718 1.78419 6.63985 1.83625C6.57833 1.76053 6.53573 1.7132 6.5026 1.699C6.43635 1.65168 6.36063 1.64221 6.2849 1.66588C6.23284 1.69427 6.18552 1.73213 6.14766 1.77946C6.13819 1.78892 6.1098 1.84098 6.05774 1.94037C6.13346 2.00662 6.23284 2.05868 6.35116 2.08708C6.47421 2.11547 6.59252 2.1344 6.71557 2.1344H6.86228C6.938 2.12021 6.99006 2.11074 7.02319 2.11074C7.07525 2.05868 7.16044 2.01136 7.27402 1.9735C7.3876 1.93564 7.46805 1.89778 7.51065 1.85992H7.52011ZM6.38429 0.279222L3.39801 1.44818L3.20398 1.77946L5.8495 0.747749C5.97255 0.695691 6.0956 0.634168 6.22338 0.567912C6.35116 0.501655 6.40322 0.407004 6.38429 0.283956V0.279222ZM15.5372 9.76337C15.5608 9.84856 15.5466 9.92901 15.504 10.0142C15.4898 10.0379 15.4378 10.1041 15.3431 10.2177C15.3053 10.265 15.2579 10.284 15.2059 10.284C15.168 10.284 15.0876 10.2556 14.9692 10.194L14.8888 10.1372C14.5386 10.4401 14.0464 10.6862 13.4122 10.8755C13.1945 10.9418 12.8585 11.0317 12.4136 11.1358C13.2371 10.7194 14.0653 10.3076 14.8888 9.89588C14.8888 9.80596 14.9266 9.71604 15.0071 9.63559C15.0876 9.5504 15.1727 9.50307 15.2627 9.48888C15.3384 9.46521 15.3952 9.48888 15.4283 9.55513C15.4614 9.62139 15.4993 9.69238 15.5372 9.75864V9.76337ZM7.43966 3.03833C7.07052 3.21817 6.69664 3.39801 6.3275 3.57312C6.12873 3.66304 5.95835 3.77189 5.81638 3.9044C5.6744 4.03218 5.56555 4.17889 5.49929 4.34926C5.77851 4.15049 6.0814 3.97066 6.40322 3.80975C6.72504 3.64884 7.04685 3.48793 7.36394 3.33649L7.44439 3.04307L7.43966 3.03833ZM2.60293 0.539517C2.58874 0.643634 2.54614 0.747749 2.47989 0.847134C2.3663 1.00804 2.25745 1.15949 2.1486 1.31093C1.91197 1.22574 1.76526 1.17369 1.70374 1.15002C1.58069 1.1027 1.43398 1.03171 1.25887 0.932321C1.15476 1.09323 1.0743 1.20681 1.02224 1.28254C0.918126 1.43398 0.809276 1.5097 0.705159 1.5097C0.657833 1.5097 0.624704 1.5097 0.601041 1.50024C0.449598 1.43871 0.331283 1.39612 0.250828 1.36299C0.0851869 1.29673 0 1.22101 0 1.13582C0 1.10743 0.0189305 1.06484 0.0567914 1.01278L0.534785 0.411735L1.37719 0.76195L1.77473 0.160907C2.01136 0.246094 2.18647 0.31235 2.30951 0.359676C2.43256 0.407002 2.52721 0.468527 2.60293 0.534783V0.539517ZM6.35116 5.68386C6.30383 5.84477 6.27544 5.93942 6.26124 5.97728C6.21391 6.0814 6.15239 6.16659 6.0672 6.22811C5.99148 6.22811 5.92049 6.20918 5.8495 6.16659C5.78325 6.12399 5.74539 6.0672 5.74539 5.99148C5.74539 5.63653 5.81637 5.35258 5.96309 5.13961C5.96309 5.18694 5.95362 5.26266 5.93469 5.37624C5.91576 5.48983 5.90629 5.56081 5.90629 5.59394C5.90629 5.70752 5.94416 5.80218 6.01988 5.8779C6.0814 5.8921 6.14292 5.86843 6.21391 5.79744C6.2849 5.72646 6.3275 5.69332 6.35116 5.68386ZM7.36394 9.13866C7.56271 8.84524 7.65736 8.50449 7.65736 8.11642C7.65736 7.76621 7.58637 7.42546 7.44912 7.08944C7.30715 6.75343 7.13204 6.45054 6.91907 6.18552L6.78183 7.10364C6.79602 7.1557 6.90961 7.39706 7.12257 7.83246C7.18883 7.96971 7.24562 8.10695 7.28348 8.25367C7.04685 8.58495 6.70611 8.75532 6.26124 8.75532C6.12399 8.74113 5.99621 8.68907 5.87317 8.60861C5.75012 8.52342 5.63654 8.41458 5.53242 8.27733C5.4425 8.08803 5.07336 6.97113 4.42972 4.92664C4.18836 4.14576 3.90913 3.51159 3.58732 3.0194C3.41221 3.18031 3.32702 3.42641 3.32702 3.75769C3.32702 3.79555 3.32702 3.84761 3.33649 3.9186C3.61571 4.44865 3.83341 4.89351 3.98486 5.24846C4.18836 5.73119 4.3398 6.19971 4.43919 6.64458C4.28774 7.00899 4.04165 7.36867 3.7009 7.72362C3.40748 8.0265 3.06673 8.30099 2.67866 8.55182C2.39943 8.71746 2.12021 8.8831 1.85045 9.03928C1.51917 9.22858 1.22575 9.32324 0.974917 9.32324C0.776148 9.32324 0.586843 9.27118 0.407004 9.16233C0.269759 8.97303 0.203502 8.76479 0.203502 8.53762C0.331283 8.03596 0.463796 7.53904 0.601041 7.03739C0.629437 7.03739 0.67203 7.03739 0.724089 7.04685C0.974917 7.04685 1.22575 6.97113 1.47184 6.81969C1.63275 6.7203 1.83625 6.55939 2.08708 6.33223C2.23852 6.15239 2.34264 5.91103 2.3947 5.6176C2.42309 5.4425 2.44203 5.17747 2.44203 4.82253C2.38997 4.69474 2.30951 4.5575 2.19593 4.41552C2.08708 4.27354 1.96876 4.1505 1.85045 4.05111C2.01609 3.74822 2.18646 3.44534 2.36157 3.14245C2.54141 2.79224 2.63606 2.46569 2.63606 2.15333C2.56034 2.22906 2.37104 2.48462 2.06815 2.91528C1.84098 3.23237 1.61855 3.47373 1.39612 3.64411L0.908661 3.15665C0.984383 3.14718 1.04591 3.11879 1.09797 3.06199C1.14529 3.0052 1.19262 2.94841 1.23994 2.88689L0.444865 2.52248C0.331283 2.52248 0.246096 2.58873 0.184572 2.72598C0.123048 2.95314 0.0662565 3.17558 0.0141978 3.39801L0.818741 4.21675C0.638902 4.56696 0.506389 4.86039 0.421202 5.10175C0.293422 5.46616 0.227165 5.79744 0.227165 6.10033C0.227165 6.42688 0.30762 6.71557 0.463796 6.97586C0.364411 7.34501 0.269759 7.71415 0.179839 8.07856C0.0662566 8.52343 0.00946521 8.89257 0.00946521 9.18126C0.00946521 9.49361 0.061524 9.77757 0.170374 10.0426C0.369143 10.2224 0.596309 10.3171 0.851869 10.3171C1.25887 10.2035 1.65641 10.0568 2.04449 9.87222C2.46096 9.66872 2.83483 9.43682 3.17085 9.18126C3.54946 8.87837 3.84761 8.56129 4.07004 8.22527C4.32087 7.85613 4.47705 7.45859 4.54804 7.04212C4.69948 7.54378 4.85092 8.0407 5.00237 8.54236C5.21533 9.11973 5.55608 9.50781 6.02461 9.71131C6.06247 9.72077 6.12399 9.72077 6.20445 9.72077C6.70611 9.72077 7.08945 9.52674 7.36394 9.1434V9.13866ZM8.15902 9.62612C8.04543 9.7681 7.89872 9.90061 7.71415 10.0142C7.56271 10.1041 7.36867 10.194 7.12731 10.2887C6.89068 10.3786 6.70611 10.4496 6.57832 10.4922C6.33696 10.5821 6.15239 10.672 6.01988 10.7525C5.99621 10.691 6.01041 10.6247 6.05774 10.5537C6.10506 10.4827 6.13819 10.4354 6.15239 10.4117C6.81969 10.1467 7.48699 9.88642 8.14955 9.62612H8.15902ZM3.18505 6.60672C3.13772 6.83389 3.10459 6.97586 3.08093 7.03739C3.0194 7.18883 2.92475 7.28822 2.79697 7.33081C2.75911 7.31661 2.72125 7.29768 2.68339 7.27402C2.61713 7.22669 2.57927 7.16517 2.57927 7.07998C2.57927 6.90014 2.59347 6.73923 2.6266 6.60199C2.63606 6.56413 2.71652 6.3133 2.87743 5.85423C2.89162 5.92049 2.88689 6.01514 2.85376 6.12873C2.77804 6.44581 2.74018 6.62092 2.74018 6.64931C2.74018 6.80076 2.80644 6.90487 2.93422 6.95693C2.98628 6.92854 3.0336 6.86228 3.07146 6.76763C3.10932 6.67298 3.14718 6.61618 3.18505 6.60199V6.60672ZM18.0076 8.90203C18.017 8.94936 18.0407 9.02508 18.088 9.13866C18.088 9.18599 18.0502 9.21912 17.9744 9.24278C17.8987 9.28064 17.8041 9.29957 17.6905 9.29957C17.5769 9.29957 17.4775 9.28538 17.3876 9.26171C17.3024 9.23332 17.2362 9.21439 17.1888 9.20019C17.009 9.07241 16.8765 8.96356 16.7913 8.86891C16.6635 8.72693 16.5973 8.58495 16.5973 8.4477C16.6635 8.4477 16.7345 8.4477 16.8055 8.44297C16.8765 8.44297 16.9522 8.43824 17.0279 8.43824C17.2693 8.43824 17.4728 8.47137 17.629 8.53289C17.7899 8.59915 17.9129 8.7222 18.0028 8.90203H18.0076ZM15.2485 9.81069L15.2153 9.92428C15.2153 9.92428 15.1775 9.88642 15.1254 9.85802C15.1159 9.84382 15.1112 9.82962 15.1018 9.81069H15.2485ZM2.00663 5.43777C1.67534 5.68859 1.44345 5.84477 1.3204 5.90156C1.19735 5.96308 1.05537 5.99148 0.903928 5.99148C0.818741 5.99148 0.733554 5.98201 0.643635 5.95835C0.605774 5.8921 0.586843 5.81638 0.586843 5.73119C0.586843 5.55608 0.705159 5.32892 0.937056 5.04969C1.00331 4.9645 1.10743 4.84619 1.24468 4.68528C1.38192 4.80833 1.5239 4.93138 1.67534 5.05916C1.82679 5.18694 1.93564 5.31472 2.00663 5.43303V5.43777Z" fill="white"/>
</svg>
