<svg width="20" height="10" viewBox="0 0 20 10" fill="none" xmlns="http://www.w3.org/2000/svg">
<path fill-rule="evenodd" clip-rule="evenodd" d="M20 2.9621C19.9349 2.9621 19.8512 2.89235 19.7535 2.7482C19.6187 2.54825 19.5443 2.44129 19.5303 2.42269L19.442 2.55754C19.442 2.99465 19.4699 3.70146 19.521 4.67798C19.5722 5.6545 19.6001 6.38457 19.6001 6.87747C19.6001 7.76099 19.3908 8.56081 18.977 9.27692C19.0746 9.00256 19.1444 8.69101 19.1909 8.3469C19.2374 8.0028 19.256 7.64474 19.256 7.28203L18.9305 1.27877C18.8933 1.12997 18.9305 0.953264 19.0514 0.753311C19.149 0.618459 19.2141 0.520809 19.2513 0.465008C19.5257 1.09742 19.6931 1.49732 19.7535 1.66938C19.9163 2.13904 20 2.57149 20 2.9621ZM15.3918 1.85538C15.4011 1.95303 15.3778 2.04604 15.3313 2.13904C15.2848 2.23204 15.2197 2.30644 15.136 2.35759C15.0244 2.41805 14.9454 2.35759 14.9035 2.19018C14.8942 2.15298 14.8942 2.10183 14.8942 2.03208C14.8942 1.89723 14.9268 1.75309 14.9872 1.60428C15.0523 1.45083 15.1174 1.30203 15.1825 1.15323C15.1825 1.21833 15.1593 1.32993 15.1081 1.48803C15.0616 1.64613 15.0337 1.74843 15.0337 1.79958C15.0337 1.90188 15.0663 1.99489 15.136 2.06929C15.2011 2.08324 15.2523 2.06928 15.2848 2.01348C15.3174 1.96233 15.3546 1.91118 15.3918 1.85538ZM16.531 0.00465462C16.2567 0.0883561 15.9823 0.162757 15.7033 0.237159L10.2441 2.05533C10.179 2.09253 10.1232 2.13438 10.086 2.17623C10.0209 2.25994 9.98838 2.33899 9.99768 2.42269C10.9277 2.04138 11.9926 1.65543 13.1876 1.26017C14.2665 0.916062 15.3453 0.571965 16.4241 0.223209L16.5264 0L16.531 0.00465462ZM15.057 3.49686C14.9686 3.69681 14.9082 3.82237 14.8803 3.86422C14.8152 3.96652 14.7175 4.07812 14.592 4.19902C14.5269 4.10137 14.4339 4.01303 14.313 3.92932C14.2618 3.89212 14.1455 3.82701 13.9688 3.72936C13.8805 3.76656 13.8061 3.85956 13.7456 4.00371C13.6852 4.14787 13.6201 4.24552 13.5457 4.28738C13.3504 4.19902 13.2109 4.12928 13.1225 4.08743C12.9598 3.99907 12.8761 3.90141 12.8761 3.79911L13.276 3.26435C13.5364 3.34805 13.7689 3.45967 13.9688 3.60847L14.4618 3.00395C14.485 3.03185 14.5827 3.10625 14.764 3.2225C14.9407 3.33876 15.043 3.4271 15.0663 3.49686H15.057ZM8.97466 1.62287C8.92351 1.72518 8.85376 1.81354 8.76075 1.87864C8.6724 1.94374 8.56545 1.99023 8.4492 2.01348C8.32365 1.99953 8.2353 1.93909 8.19344 1.83679C8.17949 1.67869 8.22134 1.51128 8.31435 1.32528C8.34225 1.26482 8.43525 1.12532 8.59335 0.902117L8.54685 1.09277C8.57475 1.04162 8.61195 1.01371 8.64915 1.01371C8.69565 1.01371 8.7468 1.04162 8.80725 1.09277C8.86771 1.14392 8.92351 1.19507 8.97466 1.23692C9.03511 1.26482 9.06301 1.31133 9.06301 1.37178C9.06301 1.40898 9.05371 1.45083 9.03511 1.50198C9.01651 1.54848 8.99791 1.59498 8.97466 1.63218V1.62287ZM12.9133 5.91025C12.89 6.03115 12.8621 6.13346 12.8249 6.21716C12.7877 6.30086 12.7226 6.37526 12.6343 6.43571C12.5599 6.41246 12.4994 6.38456 12.4576 6.34736C12.4111 6.31016 12.3925 6.26366 12.3925 6.20321C12.3832 6.14276 12.3832 6.1009 12.3832 6.0823C12.3832 5.9242 12.4111 5.7754 12.4715 5.6266C12.4948 5.57545 12.5645 5.43594 12.6854 5.21274C12.6761 5.23599 12.6482 5.3197 12.6017 5.4685C12.5552 5.6173 12.5273 5.7382 12.5273 5.82655C12.5273 5.96605 12.5738 6.07766 12.6715 6.15206C12.718 6.14276 12.7598 6.11485 12.8017 6.06835C12.8435 6.02185 12.8807 5.97071 12.9179 5.91956L12.9133 5.91025ZM11.6764 3.74331L11.6113 3.97581L11.3415 3.91072C11.2811 4.02232 11.2346 4.23622 11.1974 4.54778C11.1602 4.85933 11.0951 5.07324 10.9974 5.18484C10.9881 5.17554 10.9137 4.98954 10.7649 4.62684C10.6766 4.40363 10.5324 4.29203 10.3418 4.29203C10.2767 4.26878 10.2395 4.22227 10.2395 4.14786C10.2395 4.11066 10.2441 4.07347 10.2581 4.04092C10.2674 4.00837 10.2767 3.97117 10.286 3.93396C10.2953 3.89676 10.3046 3.85957 10.3232 3.82702C10.3418 3.79447 10.379 3.77586 10.4301 3.77586C10.5557 3.82236 10.6626 3.92002 10.7417 4.07348C10.8254 4.22693 10.8998 4.37107 10.9742 4.50128C11.0021 4.45477 11.0672 4.29667 11.1648 4.02232C11.2392 3.82236 11.3322 3.68287 11.4439 3.60847C11.5183 3.61777 11.5741 3.62706 11.6066 3.64101C11.6392 3.65496 11.6624 3.68751 11.681 3.74331H11.6764ZM5.9614 1.79028C5.98465 1.84144 5.98465 1.90654 5.9614 1.98094C5.93815 2.05534 5.9056 2.12043 5.8591 2.17623C5.8126 2.23204 5.7568 2.25993 5.6917 2.25993C5.6545 2.25993 5.6266 2.24599 5.60335 2.21344C5.52895 2.11579 5.49175 1.99953 5.49175 1.86933C5.49175 1.75773 5.51035 1.64612 5.54755 1.53452C5.58475 1.42292 5.6359 1.30202 5.70565 1.17647C5.70565 1.18577 5.6917 1.25087 5.66845 1.38107C5.64055 1.51128 5.63125 1.60892 5.63125 1.67867C5.63125 1.81352 5.67775 1.91119 5.7754 1.98094C5.8219 1.98094 5.85445 1.96234 5.88235 1.92049C5.91025 1.87864 5.93815 1.83678 5.96605 1.79028H5.9614ZM17.8238 6.94722L17.2007 2.25064L17.303 2.09254C17.3681 2.19019 17.4425 2.28784 17.5169 2.39479C17.5913 2.49709 17.6703 2.56684 17.7494 2.59474C17.7122 2.29713 17.6099 1.95768 17.4425 1.58102C17.2751 1.19972 17.117 0.841668 16.9681 0.497562C16.8798 0.595214 16.8007 0.702157 16.7403 0.823059C16.6752 0.943961 16.6473 1.06022 16.6473 1.18112C16.6473 1.21833 16.6566 1.26482 16.6705 1.32528L17.5401 7.51917C17.3681 7.67728 17.1728 7.77494 16.9542 7.82144C16.7356 7.86794 16.4706 7.88653 16.1544 7.88653H15.6615C15.787 7.49128 15.8521 7.10997 15.8521 6.73796C15.8521 6.50081 15.8242 6.28691 15.7731 6.1009C15.6987 5.97535 15.6243 5.87305 15.5452 5.79865C15.4662 5.72425 15.3732 5.68705 15.2616 5.68705C15.1872 5.68705 15.1221 5.70099 15.0616 5.73354C14.8245 5.9056 14.6059 6.1474 14.4153 6.45896C14.2199 6.77051 14.0944 7.06812 14.0339 7.35178C14.0107 7.45408 14.0014 7.55173 14.0014 7.64008C14.0014 7.77493 14.0293 7.89118 14.0897 7.98418C13.6666 8.14693 13.262 8.2725 12.8714 8.3562C12.4855 8.4399 12.0949 8.4864 11.6996 8.4864C11.3555 8.4864 11.0207 8.4399 10.6952 8.3469C10.3697 8.2539 10.0814 8.11439 9.83492 7.92838C9.56057 7.54243 9.34201 7.04487 9.17461 6.43106C9.04906 5.887 8.92351 5.34294 8.80725 4.80353C8.64915 4.17112 8.44455 3.65962 8.19344 3.27366C8.10509 3.35736 8.03999 3.46896 8.00279 3.61776C7.97954 3.75727 7.95629 3.89676 7.93769 4.03161C8.18414 4.56172 8.3376 4.89653 8.3934 5.03603C8.6445 5.65914 8.79795 6.25436 8.84911 6.81237C8.4678 7.39363 8.01674 7.85863 7.48663 8.20739C6.90537 8.59335 6.30086 8.78865 5.66845 8.78865C5.5429 8.68635 5.4778 8.55615 5.4778 8.39805C5.4778 8.27249 5.5057 8.10044 5.56615 7.88653C5.92885 7.58893 6.15206 7.40293 6.22646 7.32853C6.45896 7.09138 6.60777 6.84027 6.68217 6.57986C6.74727 6.47756 6.79377 6.38456 6.81237 6.30551C6.83097 6.22646 6.84027 6.1288 6.84027 6.0079C6.84027 5.88235 6.76587 5.56615 6.61707 5.05929C6.55661 4.85934 6.52872 4.67799 6.52872 4.52453C6.52872 4.49663 6.52871 4.45478 6.53801 4.40363C6.55196 4.41758 6.57522 4.45013 6.60312 4.50593C6.63102 4.55708 6.66822 4.58497 6.71472 4.58497C6.72867 4.55707 6.74727 4.55243 6.77052 4.57568C6.79377 4.59893 6.81237 4.60357 6.82632 4.59892C6.72402 4.35247 6.62172 4.10602 6.52407 3.86422C6.44966 3.71541 6.35201 3.61776 6.23576 3.57591C6.11021 3.81307 6.04511 4.05487 6.04511 4.30133C6.04511 4.58498 6.09626 4.93839 6.20321 5.36154C6.22646 5.4592 6.31946 5.79865 6.48221 6.38921C5.90095 6.88212 5.22204 7.33317 4.44083 7.75168C3.88282 8.04928 3.14811 8.3934 2.23204 8.77936C1.48803 9.09091 0.744013 9.40246 0 9.71867L0.0232505 9.78378C1.12532 9.59777 2.06929 9.37921 2.8598 9.12346C3.81772 8.8119 4.67798 8.41664 5.43595 7.94233C5.35224 8.23064 5.31039 8.39339 5.30109 8.42129C5.26389 8.59334 5.24529 8.75609 5.24529 8.9142C5.24529 8.9979 5.24994 9.0723 5.26389 9.1467C5.27319 9.2211 5.28714 9.27691 5.30109 9.31411C5.41269 9.55127 5.61265 9.65822 5.9056 9.63962C6.55197 9.54197 7.16113 9.28156 7.72379 8.8584C8.3283 8.41199 8.7375 7.88188 8.95141 7.27272C9.01186 7.54707 9.08161 7.78889 9.15601 7.99349C9.23506 8.19809 9.33736 8.38874 9.46292 8.5701C9.74657 8.8305 10.0535 9.01651 10.3883 9.12811C10.7231 9.23971 11.1044 9.29551 11.5276 9.29551C12.0205 9.29551 12.5785 9.20716 13.2016 9.02581C13.7084 8.88631 14.2107 8.7003 14.7082 8.46779C15.043 8.6631 15.4522 8.7561 15.9358 8.7561C16.3915 8.7561 16.81 8.6724 17.196 8.50964C17.4425 8.38874 17.6006 8.16554 17.675 7.83074C17.7122 7.64473 17.7587 7.35643 17.8191 6.96117L17.8238 6.94722ZM3.57126 1.05556C3.55731 1.15322 3.54336 1.23228 3.52476 1.29738C3.51081 1.36248 3.46431 1.36712 3.38991 1.31597C3.36201 1.27877 3.31086 1.26017 3.24576 1.26017C3.20856 1.26017 3.16206 1.26948 3.1016 1.28343C3.0272 1.38573 2.97605 1.57638 2.9435 1.84608C2.9156 2.11579 2.8691 2.30644 2.80865 2.40874C2.73425 2.35759 2.65055 2.20413 2.5622 1.95768C2.47384 1.70658 2.35294 1.58568 2.20414 1.58568C2.15764 1.58568 2.12044 1.58567 2.09254 1.59497C2.03209 1.55777 2.00419 1.50198 2.00419 1.42758C2.00419 1.37643 2.01814 1.32062 2.04139 1.26017C2.06929 1.19972 2.09719 1.13462 2.13439 1.06022C2.25529 1.05092 2.35759 1.12997 2.45059 1.29272C2.54359 1.45547 2.6366 1.62287 2.73425 1.79492C2.78075 1.79492 2.81795 1.73913 2.85515 1.62753C2.88305 1.41362 2.9249 1.26017 2.9714 1.17647C3.0179 1.09277 3.0923 1.01372 3.18996 0.948621C3.25506 0.93467 3.32946 0.94861 3.40386 0.98116C3.47826 1.01836 3.52941 1.04627 3.56196 1.06022L3.57126 1.05556ZM3.43641 2.92955C3.38991 3.08765 3.20391 3.18065 2.8691 3.20855C2.53429 3.23645 2.36689 3.34806 2.36689 3.53406C2.36689 3.59452 2.37619 3.67357 2.39014 3.76657C2.40409 3.86422 2.47849 4.13393 2.61335 4.58033C2.67845 4.79424 2.72495 4.97094 2.7482 5.10114C2.77145 5.23134 2.78075 5.36154 2.78075 5.48709C2.78075 5.62659 2.75285 5.794 2.6924 5.98931C2.7017 5.94281 2.7017 5.88235 2.7017 5.79865C2.7017 5.62195 2.67845 5.43594 2.6366 5.24064C2.50174 4.71983 2.37154 4.19903 2.24599 3.67822C2.24599 3.48291 2.29249 3.2876 2.38084 3.08765C2.43199 3.05045 2.51104 3.01325 2.62265 2.97605C2.7296 2.93885 2.8505 2.89699 2.98535 2.85514C2.91095 2.78074 2.80865 2.74355 2.6831 2.74355C2.6459 2.74355 2.5901 2.75285 2.51569 2.7668L2.42734 2.85514C2.39944 2.84119 2.39014 2.804 2.40874 2.74355C2.42734 2.68309 2.44594 2.63659 2.45989 2.59939C2.47384 2.56219 2.51569 2.52964 2.57615 2.50639C2.64125 2.47849 2.6831 2.46454 2.70635 2.45524C2.84585 2.43199 2.99 2.48314 3.12951 2.59939C3.16671 2.62729 3.26901 2.7389 3.44106 2.9342L3.43641 2.92955ZM15.5127 7.30527C15.5127 7.30527 15.3964 7.37038 15.2337 7.48198C15.1221 7.55638 15.0198 7.59358 14.9314 7.59358C14.871 7.59358 14.8105 7.57498 14.7547 7.53778C14.671 7.47268 14.592 7.39828 14.5083 7.32388C14.4246 7.24948 14.3874 7.17507 14.3874 7.10067C14.3874 7.04952 14.4013 7.00303 14.4339 6.96583C14.485 6.86353 14.578 6.76121 14.7129 6.66356C14.8477 6.56591 14.9733 6.51941 15.0942 6.51941C15.2802 6.51941 15.3964 6.64032 15.4383 6.87747C15.4522 6.92397 15.4708 6.98907 15.4941 7.07277C15.5173 7.15647 15.522 7.23553 15.5173 7.30063L15.5127 7.30527ZM8.6166 1.70193C8.7561 1.67403 8.83051 1.63218 8.83051 1.58102C8.83051 1.55777 8.7654 1.49268 8.63055 1.38107C8.55615 1.32062 8.51895 1.26482 8.51895 1.21366C8.51895 1.19041 8.52825 1.16251 8.5515 1.12531C8.49105 1.20901 8.4492 1.28341 8.4213 1.35782C8.3934 1.43222 8.3841 1.51593 8.3841 1.60428C8.39805 1.66938 8.4771 1.70657 8.6166 1.70657V1.70193Z" fill="white"/>
</svg>
