<svg width="20" height="11" viewBox="0 0 20 11" fill="none" xmlns="http://www.w3.org/2000/svg">
<path fill-rule="evenodd" clip-rule="evenodd" d="M18.0137 1.25401C18.0412 1.42793 17.9908 1.59269 17.8581 1.73914C17.8124 1.74829 17.7712 1.72999 17.7254 1.68422C17.7117 1.67049 17.6796 1.62472 17.6247 1.55149C17.6247 1.38216 17.643 1.22655 17.6796 1.0801C17.7162 0.933646 17.7757 0.773464 17.8535 0.594974C17.8673 0.645317 17.8535 0.736853 17.8169 0.869576C17.7757 1.0023 17.7574 1.09841 17.7574 1.15333C17.7574 1.26317 17.8078 1.34554 17.913 1.40504L18.0137 1.24943V1.25401ZM19.968 2.25172C19.881 2.27461 19.8215 2.27918 19.7941 2.26087C19.7117 2.14188 19.6522 2.05036 19.6064 1.98628C19.5606 1.92221 19.524 1.86728 19.4966 1.83066L19.3638 2.08239C19.3913 2.43479 19.4508 2.87872 19.5378 3.40962C19.7803 4.90161 19.9039 5.67048 19.913 5.70709C19.9725 6.16018 20 6.59039 20 6.99313C20 7.43249 19.968 7.8261 19.9085 8.1785C19.8444 8.5309 19.73 8.89245 19.5606 9.26773C19.611 9.13043 19.6476 8.9611 19.6705 8.76888C19.6934 8.57666 19.7025 8.37986 19.7025 8.18307C19.7025 8.01373 19.6934 7.82609 19.6796 7.61557C19.6659 7.40504 19.6522 7.21282 19.6339 7.02976L18.778 1.1762C18.7277 1.10298 18.7002 1.02976 18.7002 0.956534C18.7002 0.869577 18.7597 0.736852 18.8741 0.567515C18.9931 0.393602 19.0618 0.274601 19.0847 0.201374C19.2174 0.407324 19.3364 0.654466 19.4462 0.947372C19.762 1.75286 19.9313 2.18765 19.9634 2.2563L19.968 2.25172ZM17.2769 0.540056C17.2769 0.60413 17.254 0.672781 17.2128 0.74143C17.167 0.81008 17.1167 0.85127 17.0572 0.869576C16.7277 1.01603 15.9497 1.32723 14.7185 1.8032C14.1465 2.02288 13.6796 2.2151 13.3135 2.37529C13.3227 2.28833 13.3638 2.19681 13.4462 2.1007C13.5286 2.00459 13.611 1.94509 13.6979 1.91305C14.1098 1.78948 14.5584 1.6293 15.0481 1.42793C16.476 0.855847 17.2174 0.558363 17.2769 0.540056ZM17.4325 3.01145C17.373 3.25859 17.2906 3.44623 17.1808 3.5698C17.0984 3.66591 17.0114 3.72541 16.9153 3.75745C16.8192 3.78491 16.7414 3.8032 16.6865 3.8032C16.4943 3.8032 16.3616 3.71625 16.2792 3.53776C16.2792 3.38216 16.2975 3.25401 16.3341 3.14874C16.3707 3.04348 16.4394 2.96111 16.5446 2.90161C16.4943 3.02061 16.4668 3.12586 16.4668 3.22197C16.4668 3.24486 16.476 3.28605 16.4897 3.34097C16.5629 3.44166 16.6636 3.49657 16.7963 3.49657C16.8833 3.49657 16.9703 3.46911 17.0526 3.41876C17.135 3.36842 17.1991 3.31808 17.2357 3.26316C17.1991 3.18078 17.1304 3.11671 17.0252 3.06179C16.9245 3.00687 16.8238 2.95196 16.7277 2.90161L16.8924 2.62701C17.0252 2.67278 17.135 2.71853 17.2265 2.77345C17.3181 2.82837 17.3867 2.90619 17.4279 3.01145H17.4325ZM14.1831 0.970263C14.1831 0.970263 14.1465 1.0206 14.1236 1.0801C14.0961 1.1396 14.0686 1.17163 14.032 1.18079C13.9588 1.11671 13.9222 1.04348 13.9222 0.961101C13.9222 0.951948 13.9588 0.846693 14.032 0.640743C14.0549 0.57667 14.0595 0.50801 14.0549 0.443936C13.9542 0.56293 13.8856 0.681931 13.8535 0.810078C13.8215 0.938224 13.8032 1.10299 13.8032 1.29978C13.8124 1.31351 13.8261 1.35469 13.849 1.41877C13.8947 1.49199 13.9497 1.51945 14.0137 1.50572C14.0961 1.45538 14.1465 1.37758 14.1739 1.27689C14.2014 1.17621 14.2059 1.07095 14.1922 0.970263H14.1831ZM15.1076 3.39589L15.0206 3.67049C14.9474 3.62472 14.8696 3.60641 14.7918 3.60641C14.6957 3.60641 14.6453 3.65217 14.6362 3.74828C14.6362 3.91762 14.6178 4.08696 14.5812 4.26545C14.5217 4.49428 14.4805 4.65904 14.4622 4.76888C14.4027 4.71854 14.3066 4.53547 14.1785 4.21968C14.119 4.07323 14.0458 3.95424 13.9588 3.86728C13.9588 3.92678 13.9268 3.95424 13.8581 3.95424C13.8215 3.95424 13.7849 3.94966 13.7529 3.93593C13.7208 3.92678 13.6979 3.91762 13.6796 3.91762C13.6522 3.88101 13.6339 3.83066 13.6339 3.76201C13.6339 3.70252 13.6568 3.6293 13.6979 3.54234C13.7437 3.45539 13.7757 3.39131 13.7986 3.3547C13.9359 3.40047 14.0458 3.48742 14.1281 3.62014C14.238 3.83982 14.3478 4.0595 14.4577 4.27918C14.4943 3.97254 14.5355 3.74829 14.5858 3.61557C14.6316 3.47827 14.7002 3.35928 14.7872 3.25859C14.8238 3.24944 14.865 3.25859 14.9153 3.26774C14.9611 3.28147 15.0252 3.32267 15.1076 3.38674V3.39589ZM19.3364 9.50115C19.3089 9.49199 19.2632 9.50573 19.1991 9.53777C19.135 9.56981 19.0801 9.59268 19.0252 9.61098C18.9703 9.62471 18.9062 9.63388 18.833 9.63388C18.7368 9.63388 18.6545 9.61556 18.5812 9.58352C18.508 9.55149 18.4485 9.49658 18.4073 9.42335C18.4714 9.32724 18.5584 9.27689 18.659 9.26773C18.6957 9.27689 18.7277 9.30436 18.7597 9.35012C18.7872 9.39589 18.8146 9.42335 18.8375 9.42335C18.8741 9.37301 18.9108 9.32266 18.9474 9.2769C18.984 9.23113 19.0023 9.18536 19.0023 9.13959C18.9657 9.08009 18.9291 9.0389 18.8879 9.01144C18.8467 8.98398 18.7963 8.97942 18.7277 8.99315C18.595 9.07553 18.476 9.17163 18.3707 9.29063C18.2654 9.40962 18.1922 9.52862 18.1556 9.65219C18.1693 9.70253 18.2151 9.74829 18.2929 9.7849C18.3707 9.82151 18.4165 9.84897 18.4302 9.87186C18.357 9.94508 18.3112 9.99542 18.2883 10.0275C18.238 10.1007 18.2151 10.1648 18.2243 10.2151C18.2975 10.1556 18.5034 10.0549 18.8375 9.90848C19.0938 9.79864 19.2632 9.66133 19.341 9.50115H19.3364ZM10.8238 0.649892L10.746 0.901602C10.7185 0.910756 10.6728 0.901608 10.6133 0.878725C10.5538 0.855841 10.5172 0.846685 10.5034 0.846685C10.4531 0.846685 10.4211 0.878722 10.4165 0.947372C10.3341 1.3135 10.2563 1.67963 10.1739 2.04577C10.1007 1.99542 10.0092 1.84439 9.89931 1.5881C9.78947 1.33639 9.65675 1.20824 9.50572 1.20824C9.45995 1.20824 9.42334 1.20824 9.39588 1.21739C9.30892 1.18078 9.26316 1.12128 9.26316 1.04348C9.26316 0.997711 9.28146 0.929065 9.32265 0.832955C9.36384 0.736845 9.38673 0.677347 9.39588 0.65904C9.5881 0.63158 9.74828 0.759725 9.88558 1.04348C10.0229 1.32723 10.1281 1.47368 10.2105 1.47368C10.2471 1.23112 10.2746 1.04348 10.2975 0.915332C10.3478 0.668192 10.4394 0.540056 10.5721 0.540056C10.6362 0.540056 10.7231 0.576665 10.8238 0.649892ZM19.3913 10.0504C19.3272 10.1602 19.2494 10.2471 19.1625 10.3158C19.0755 10.3799 18.9565 10.4439 18.8101 10.508C18.6636 10.5721 18.5538 10.6179 18.4805 10.6453C18.3433 10.7048 18.2334 10.7597 18.151 10.8101C18.2105 10.7094 18.2883 10.6133 18.3799 10.5263C18.476 10.4394 18.5767 10.3707 18.6819 10.3249C18.7872 10.2792 18.9062 10.2288 19.0343 10.1831C19.1625 10.1373 19.2815 10.0915 19.3913 10.0549V10.0504ZM12.8558 2.00001L12.4256 1.53776C12.4256 1.89017 12.4577 2.29291 12.5263 2.746C12.627 3.44165 12.7323 4.13273 12.833 4.8238C12.8696 5.05264 12.897 5.29978 12.9199 5.57438C12.9428 5.84898 12.9519 6.11899 12.9519 6.37986C12.9519 6.83295 12.9199 7.24486 12.8604 7.61557C12.7963 7.98628 12.6865 8.34783 12.5263 8.70938C12.6087 8.23341 12.6453 7.72083 12.6453 7.17163C12.6453 6.56293 12.595 5.89474 12.4897 5.16247C12.4531 4.88329 12.3387 4.21511 12.151 3.15332C11.9954 2.28376 11.8947 1.61557 11.8444 1.15333C11.7574 1.05722 11.7117 0.947377 11.7117 0.823807C11.7117 0.727697 11.7391 0.627005 11.7895 0.517165C11.8764 0.347828 11.9634 0.17849 12.0549 0C12.2288 0.315789 12.4073 0.627006 12.5812 0.933642C12.7643 1.30893 12.8558 1.66134 12.8558 2.00001ZM17.0618 9.73456C17.0343 9.83525 16.9611 9.95424 16.8513 10.087C16.7185 10.2471 16.6362 10.3616 16.5995 10.4256C16.4394 10.3432 16.2792 10.2654 16.1144 10.1831C15.9222 10.0641 15.8307 9.93593 15.8307 9.79863C15.9313 9.63844 16.0137 9.51489 16.0732 9.42335C16.1327 9.3364 16.1968 9.26774 16.27 9.21282C16.4531 9.3135 16.5904 9.38673 16.6773 9.4325C16.8467 9.52861 16.9748 9.62472 17.0618 9.72998V9.73456ZM7.84439 1.60641C7.86728 1.64303 7.87643 1.67963 7.87643 1.71625C7.87643 1.76659 7.85355 1.83525 7.81236 1.91305C7.76659 1.99543 7.73913 2.05034 7.7254 2.08696C7.69794 2.12357 7.65217 2.14189 7.59268 2.14189C7.54233 2.14189 7.49199 2.12357 7.43707 2.08696C7.33638 1.92677 7.28146 1.73914 7.28146 1.52862C7.28146 1.36843 7.30892 1.20367 7.36384 1.03433C7.41876 0.864993 7.49199 0.709387 7.5881 0.562934C7.55149 0.71854 7.52403 0.837538 7.50114 0.924494C7.45538 1.10756 7.43707 1.24944 7.43707 1.3547C7.43707 1.53777 7.48741 1.69336 7.59268 1.81693C7.65675 1.83982 7.70709 1.82152 7.73913 1.7666C7.77117 1.71168 7.80778 1.65675 7.84439 1.60641ZM17.9405 5.88101C17.8535 5.85355 17.7574 5.83524 17.6567 5.83524C17.4462 5.83524 17.1213 5.94967 16.6911 6.17392C16.2609 6.40276 15.9176 6.51259 15.6705 6.51259C15.5744 6.51259 15.4783 6.50344 15.3867 6.48971C15.2906 6.47598 15.1991 6.38902 15.1121 6.23799C15.0526 6.11442 14.9931 5.98627 14.9382 5.85355L14.6407 6.61328C14.6407 6.81007 14.7094 7.08925 14.8513 7.44623C14.9474 7.69337 15.0069 7.85356 15.0252 7.91763C14.4394 8.3341 13.7895 8.7277 13.0801 9.09383C12.4668 9.4142 11.7895 9.72999 11.0481 10.0366C10.6682 10.1968 9.97254 10.476 8.9611 10.8696L10.2471 10.595C10.2746 10.595 10.3158 10.595 10.3661 10.6041H10.5767C11.1259 10.6041 11.7208 10.4668 12.357 10.1876C12.897 9.91762 13.4416 9.6476 13.9817 9.373C14.3844 9.21282 14.7185 8.92449 14.9794 8.51717C15.1854 8.1968 15.3547 7.79405 15.4828 7.30892C16.0961 7.06179 16.7185 6.81008 17.341 6.56294C17.3684 6.59955 17.3867 6.64532 17.3867 6.70482C17.3867 6.7277 17.341 6.86958 17.2449 7.13502C17.2082 7.23571 17.1945 7.32724 17.1991 7.40046C17.405 7.20824 17.5698 6.97941 17.6934 6.70938C17.7895 6.49886 17.8719 6.21969 17.9451 5.87644L17.9405 5.88101ZM10.032 7.9039C10.0183 8.00459 9.89931 8.2563 9.67963 8.6499C9.57895 8.83296 9.52403 8.98398 9.52403 9.0984C9.52403 9.17163 9.53318 9.2357 9.55149 9.28605C9.56979 9.33639 9.60641 9.39589 9.6659 9.45996C9.71167 9.44623 9.74828 9.40504 9.78032 9.34096C9.81236 9.27689 9.84439 9.23113 9.87185 9.20825C9.89931 9.30436 9.89474 9.39589 9.84897 9.48742C9.8032 9.57895 9.73455 9.67048 9.63844 9.75744C9.57437 9.77117 9.51487 9.75745 9.46911 9.72083C9.42334 9.67964 9.373 9.59269 9.32265 9.46454C9.373 9.16248 9.45995 8.88788 9.57437 8.63617C9.69336 8.38445 9.83982 8.14188 10.0229 7.9039H10.032ZM5.27689 4.57666C5.29977 4.66362 5.29519 4.7643 5.26773 4.87872C5.24027 4.99314 5.18535 5.09382 5.10297 5.18078C5.00687 5.18993 4.92906 5.1579 4.87414 5.09382C4.81465 5.02975 4.77803 4.94737 4.7643 4.85126C4.7643 4.65446 4.78261 4.48513 4.81922 4.34783C4.85584 4.21053 4.92449 4.08697 5.02975 3.98628C5.01602 4.05035 4.99313 4.14188 4.96567 4.26087C4.93822 4.37986 4.91991 4.46683 4.91991 4.52632C4.91991 4.68193 4.97025 4.79634 5.07551 4.87872C5.13501 4.86957 5.1762 4.82381 5.20366 4.74143C5.23112 4.65905 5.25858 4.60412 5.28604 4.58124L5.27689 4.57666ZM4.50801 0.567515L4.43021 0.832955C4.34325 0.787189 4.26087 0.768889 4.18764 0.768889C4.10526 0.768889 4.05034 0.814655 4.02288 0.910765C4.03204 0.938225 4.03204 0.988567 4.03204 1.05264C4.03204 1.13502 4.01831 1.2357 3.98627 1.35927C3.9222 1.64302 3.88558 1.81694 3.88558 1.87643C3.88558 1.97254 3.90389 2.04578 3.94508 2.1007C3.98627 2.15562 4.06865 2.19681 4.19222 2.22884C4.20137 2.24257 4.25172 2.31122 4.34783 2.42564C4.4119 2.50802 4.44851 2.57666 4.44851 2.63616C4.44851 2.69566 4.42563 2.746 4.38444 2.79176C4.16476 2.79176 3.97254 2.81465 3.80778 2.86499C3.64302 2.91076 3.49199 2.99313 3.35011 3.10297C3.35011 3.36842 3.38673 3.67048 3.45538 4.01831C3.52403 4.36613 3.59268 4.69566 3.65675 5.01145C3.68421 5.16705 3.70709 5.31351 3.72082 5.45996C3.73455 5.60642 3.74371 5.7666 3.74371 5.94509C3.74371 6.12358 3.73455 6.28834 3.71167 6.44394C3.68879 6.59955 3.6476 6.76888 3.59268 6.9428C3.63844 6.746 3.65675 6.54921 3.65675 6.34784C3.65675 6.14646 3.6476 5.97255 3.62471 5.8444C3.60183 5.71168 3.52403 5.35927 3.39588 4.79176C3.33181 4.52174 3.28146 4.29749 3.254 4.12357C3.22654 3.94966 3.20824 3.76202 3.20824 3.56522C3.20824 3.39131 3.21739 3.24943 3.2357 3.14874C3.254 3.04806 3.29062 2.91991 3.35011 2.77345C3.41419 2.70023 3.51945 2.64532 3.66133 2.61328C3.8032 2.58125 3.89931 2.5492 3.9405 2.52174C3.89474 2.43479 3.81693 2.38902 3.69794 2.38902C3.63844 2.38902 3.5881 2.40733 3.53776 2.44395C3.49199 2.48056 3.44622 2.51258 3.40961 2.54462C3.38673 2.49428 3.3913 2.43478 3.41876 2.37529C3.44622 2.31121 3.47826 2.25172 3.50572 2.19222C3.51487 2.18307 3.56064 2.15561 3.64302 2.10985C3.7254 2.06408 3.75744 2.00916 3.73455 1.94966C3.68879 1.89016 3.63387 1.76659 3.56064 1.57437C3.44165 1.28147 3.30892 1.12587 3.15332 1.11214C2.95652 1.06637 2.85584 0.974836 2.85584 0.837536C2.85584 0.823806 2.86957 0.778036 2.9016 0.704809L3.03432 0.453099C3.22654 0.535479 3.38215 0.700232 3.50572 0.947372C3.60183 1.15332 3.69794 1.35927 3.8032 1.56064C3.83982 1.36842 3.88558 1.16706 3.93593 0.951953C3.98627 0.73685 4.07323 0.567515 4.18764 0.453099C4.31121 0.430215 4.41648 0.471396 4.49428 0.572082L4.50801 0.567515ZM11.6934 6.11442C11.6567 6.39818 11.6201 6.68193 11.5835 6.96111C11.5011 7.26774 11.3272 7.47827 11.0572 7.58811C10.9565 7.60184 10.8741 7.61099 10.8146 7.61099C10.595 7.61099 10.2883 7.53777 9.89016 7.39132C9.49657 7.24486 9.20366 7.16247 9.02059 7.13959C8.75515 7.26316 8.52631 7.36384 8.32952 7.43707C8.02746 7.54691 7.77117 7.60184 7.56064 7.60184C7.24485 7.60184 6.98398 7.50114 6.76888 7.2952C6.64531 7.23112 6.52174 7.04805 6.39359 6.75057C6.27002 6.45309 6.12815 6.30664 5.97712 6.30664C5.91762 6.30664 5.83982 6.32495 5.74828 6.36157C5.65217 6.42564 5.57895 6.48513 5.5286 6.53547C5.40503 6.65904 5.34096 6.79634 5.34096 6.9428C5.34096 7.02518 5.35927 7.09841 5.39588 7.16248C5.49657 7.44624 5.83066 7.69794 6.38902 7.91305C6.94737 8.12815 7.26773 8.32037 7.34096 8.48971L7.13043 9.30436C6.89703 9.14875 6.64989 9.02975 6.39359 8.93821C6.1373 8.84668 5.87185 8.80092 5.60183 8.80092C5.46453 8.80092 5.30892 8.81922 5.13959 8.85584C4.80092 8.92906 4.4714 9.04807 4.14188 9.20825C3.9222 9.31809 3.61098 9.49658 3.20824 9.74829C2.71854 10.0687 2.41648 10.2654 2.30664 10.3295C1.97712 10.5355 1.65675 10.7002 1.35011 10.8238C1.10297 10.8467 0.878718 10.7963 0.681922 10.6774C0.485126 10.5584 0.31579 10.3936 0.17849 10.1876C0.128146 10.0412 0.0869566 9.89933 0.0503433 9.7666C0.0183067 9.6293 0 9.49658 0 9.36385C0 9.25401 0.00457675 9.1762 0.0183067 9.12586C0.02746 9.08009 0.0549199 9.01603 0.100687 8.93365C0.237986 8.58124 0.489703 8.22883 0.846682 7.86728C1.06636 7.6476 1.40503 7.36386 1.85812 7.02061C1.73455 7.2174 1.49657 7.48743 1.14416 7.82152C0.887872 8.06866 0.732265 8.22884 0.672769 8.29292C0.549199 8.43937 0.453089 8.58123 0.389016 8.72311C0.324943 8.86041 0.28833 9.00686 0.28833 9.15332C0.28833 9.254 0.306636 9.36385 0.347826 9.47369C0.389016 9.58353 0.448513 9.69337 0.535469 9.80321C0.617849 9.91305 0.723112 9.99542 0.846682 10.0549C0.970252 10.1144 1.11213 10.1419 1.26316 10.1419C1.35011 10.1419 1.43707 10.1327 1.5286 10.1099C1.83066 9.9634 2.20137 9.74829 2.64989 9.45996C2.95195 9.26316 3.17162 9.11671 3.30892 9.02061C3.66133 8.7872 3.95881 8.60412 4.1968 8.4714C4.51716 8.28833 4.83295 8.15103 5.13959 8.05492C5.06636 7.8627 5.02975 7.66133 5.02975 7.4508C5.02975 7.16705 5.09382 6.86958 5.21739 6.56294C5.30435 6.34326 5.4508 6.06865 5.65675 5.73913C5.79405 5.60183 5.90389 5.5103 5.98627 5.46911C6.06865 5.42792 6.15561 5.40961 6.25172 5.40961C6.30206 5.40961 6.35698 5.41877 6.41648 5.44165C6.66362 5.92678 6.81465 6.20138 6.86499 6.27461C7.09382 6.58125 7.35011 6.73684 7.64302 6.73684C7.67048 6.72311 7.72082 6.71396 7.7849 6.71396C7.9405 6.71396 8.03204 6.69566 8.06865 6.65905C7.94508 6.46683 7.88101 6.26545 7.88101 6.05492C7.88101 5.86271 7.93135 5.62929 8.03661 5.35012C8.11899 5.13044 8.20137 4.90618 8.28833 4.68193C8.34783 4.58124 8.43021 4.48056 8.53547 4.38903C8.64073 4.29749 8.746 4.20595 8.84668 4.11899C8.84668 4.09153 8.82837 4.05034 8.79634 4.00458C8.7643 3.95881 8.72769 3.91304 8.69108 3.87643C8.69108 3.76659 8.70481 3.66134 8.73684 3.55607C8.746 3.52861 8.81464 3.3547 8.94737 3.03891C9.13043 3.10298 9.27231 3.16706 9.37757 3.22655C9.47826 3.28605 9.5881 3.37759 9.69794 3.50116C9.6476 3.58354 9.62014 3.65676 9.62014 3.72999C9.62014 3.75287 9.62929 3.78491 9.64302 3.83068C9.78032 3.97713 10.0961 4.20596 10.5858 4.51259C11.3272 4.97484 11.6934 5.45996 11.6934 5.97255C11.6842 6.03204 11.6842 6.07781 11.6842 6.11442H11.6934ZM2.59954 5.70709C2.53547 5.70709 2.48055 5.76202 2.43936 5.86728C2.39817 5.97254 2.35698 6.03662 2.32037 6.05951C2.27918 6.08239 2.24256 6.09153 2.20595 6.09153C2.12357 6.09153 2.06407 6.05492 2.01831 5.9817C1.9222 5.82609 1.85355 5.67049 1.81693 5.51488C1.77574 5.35928 1.75744 5.19451 1.75744 5.02518C1.75744 4.76888 1.82151 4.46683 1.94508 4.11443C2.02746 3.89475 2.24714 3.41878 2.60412 2.68651C2.22883 3.07553 1.93593 3.53318 1.71625 4.06408C1.49657 4.59497 1.38673 5.12587 1.38673 5.66134C1.38673 5.9817 1.42334 6.27917 1.49657 6.5492C1.53318 6.59954 1.59725 6.69108 1.69336 6.8238C1.78032 6.92449 1.87643 6.9794 1.97712 6.9794C2.02746 6.9794 2.08238 6.96569 2.14188 6.93365C2.27918 6.77347 2.38444 6.5904 2.45309 6.38903C2.52174 6.18765 2.57208 5.95882 2.59954 5.70253V5.70709ZM8.27918 9.91304C8.15561 9.80321 8.04119 9.72084 7.9405 9.66592C7.83982 9.611 7.69794 9.55149 7.52403 9.48284L7.02975 10.0961C6.80091 9.95881 6.57666 9.81694 6.34783 9.67964L5.88558 10.2929C5.8627 10.3936 5.91762 10.4806 6.05034 10.5446C6.24256 10.6407 6.3524 10.7002 6.37986 10.7323C6.49886 10.746 6.60412 10.6728 6.70023 10.5126C6.8238 10.3021 6.91533 10.1739 6.97483 10.1281C7.22197 10.2746 7.47826 10.4211 7.73455 10.5675L8.28375 9.90848L8.27918 9.91304ZM11.3547 6.50801C11.2174 6.64073 11.0526 6.70482 10.8604 6.70482C10.714 6.70482 10.5217 6.65446 10.2792 6.5492C10.1556 6.49885 9.97712 6.42105 9.75286 6.32036C9.77574 6.27002 9.85355 6.04119 9.98169 5.63845C10.032 5.47826 10.0824 5.35012 10.1373 5.25401C10.5034 5.45996 10.7551 5.62471 10.897 5.74828C11.1533 5.97712 11.3089 6.22883 11.3593 6.50801H11.3547ZM9.67506 5.80321C9.63844 5.83983 9.57437 5.90847 9.47826 6.01374C9.34096 6.15104 9.21281 6.22426 9.10297 6.22426C9.05263 6.22426 9.00229 6.21053 8.94737 6.17849C8.78718 6.12815 8.64073 6.04577 8.50801 5.93593C8.37529 5.82609 8.29291 5.69794 8.25629 5.55149C8.27918 5.39131 8.3524 5.24943 8.47597 5.12128C8.59954 4.99771 8.74142 4.91076 8.90618 4.86957C8.93364 4.86957 8.97483 4.86958 9.02517 4.86042C9.22197 4.86042 9.36842 4.92448 9.46453 5.04805C9.52403 5.14416 9.57437 5.24485 9.62014 5.35012C9.6659 5.45538 9.68421 5.55607 9.68421 5.65218V5.71626C9.68421 5.74372 9.68421 5.77575 9.67506 5.80321Z" fill="white"/>
</svg>
