<svg width="20" height="13" viewBox="0 0 20 13" fill="none" xmlns="http://www.w3.org/2000/svg">
<path fill-rule="evenodd" clip-rule="evenodd" d="M19.9948 2.58503C19.843 2.36525 19.6913 2.15071 19.5447 1.93093C19.4453 2.22397 19.393 2.56934 19.393 2.9618C19.393 3.12925 19.4035 3.38566 19.4296 3.7258C19.4558 4.07117 19.4662 4.32234 19.4662 4.47933C19.5186 4.95029 19.5552 5.48927 19.5814 6.10152C19.6075 6.71376 19.618 7.26845 19.618 7.7708C19.618 8.31502 19.5604 8.84354 19.4401 9.35113C19.325 9.86395 19.1523 10.3558 18.9273 10.832C19.0267 10.4134 19.0999 9.98954 19.147 9.55521C19.1941 9.12611 19.2151 8.65516 19.2151 8.1528C19.2151 7.59288 19.1837 6.91261 19.1261 6.11722C18.9901 4.29095 18.9273 3.15018 18.9273 2.68969C18.8749 2.09315 18.8278 1.50183 18.7755 0.905285C18.8435 0.538985 19.0058 0.235479 19.2674 0C19.3093 0.21978 19.4506 0.638409 19.6965 1.26635C19.8953 1.78441 20 2.21873 20 2.57457L19.9948 2.58503ZM15.0235 2.08268C15.0235 2.08268 15.0497 2.15594 15.0497 2.23443C15.0497 2.31816 15.0392 2.38095 15.0235 2.42805C15.0078 2.47514 14.9765 2.53794 14.9346 2.62166C14.8666 2.69492 14.7828 2.73679 14.6834 2.73679C14.6259 2.73679 14.5735 2.71586 14.5317 2.67399C14.4061 2.5798 14.3433 2.43851 14.3433 2.2449C14.3433 2.19257 14.3433 2.14547 14.3537 2.09838C14.3642 2.05128 14.3694 2.00419 14.3799 1.95186L14.6677 1.37624C14.6834 1.4495 14.6677 1.57509 14.6102 1.74254C14.5578 1.90999 14.5264 2.01465 14.5264 2.05652C14.5264 2.11408 14.5421 2.16641 14.5683 2.2135C14.5997 2.2606 14.652 2.29723 14.7253 2.33386C14.809 2.36525 14.8718 2.33386 14.9189 2.23967C14.966 2.14547 14.9974 2.09315 15.0131 2.08268H15.0235ZM17.3731 2.49608C17.3731 2.46468 17.3731 2.41235 17.3836 2.34432C17.3836 2.06698 17.2737 1.68498 17.0591 1.18786C16.7818 0.570382 16.6248 0.172684 16.5829 0.00523286C16.4835 0.141287 16.3893 0.287807 16.3004 0.444793C16.2114 0.601779 16.1486 0.748299 16.1068 0.884354C16.248 2.01465 16.3998 3.20251 16.5672 4.45317C16.7295 5.69859 16.8132 6.79226 16.8132 7.72894C16.6981 8.2156 16.4312 8.64992 16.023 9.03715C15.7561 9.28833 15.3323 9.58137 14.7567 9.91628C14.0345 10.3349 13.6002 10.5965 13.4485 10.696C14.202 10.4762 14.9555 10.2669 15.7091 10.0576C16.2428 9.60754 16.6248 9.04762 16.8498 8.38828C17.0434 7.82836 17.1376 7.14809 17.1376 6.3527C17.1376 5.96546 17.0487 5.06541 16.876 3.64207C16.8027 3.02983 16.7609 2.52224 16.7609 2.10884L16.9388 1.82104C17.033 1.96232 17.1272 2.10361 17.2266 2.23443C17.2789 2.30769 17.326 2.39665 17.3783 2.49608H17.3731ZM16.2794 7.04343C16.2114 6.6562 16.0597 6.27944 15.8294 5.91314C15.6463 5.63056 15.3846 5.31659 15.0497 4.97122C14.4636 4.36944 13.8828 3.76243 13.3019 3.15018C13.0612 2.88331 12.8205 2.61643 12.585 2.34432C12.3182 2.02512 12.1664 1.74778 12.135 1.50183C12.1873 1.528 12.2292 1.53846 12.2711 1.53846C12.381 1.53846 12.4804 1.49137 12.5746 1.40241C12.1245 1.02564 11.6693 0.643642 11.2193 0.261643C11.1198 0.40293 11.0518 0.533752 11.0099 0.643642C10.9681 0.753532 10.9524 0.889587 10.9524 1.04134C10.9524 1.49137 11.2977 2.09838 11.9833 2.85191C12.4437 3.35426 12.7316 3.6944 12.8414 3.86709C12.9566 4.045 13.1031 4.23339 13.2862 4.43223C13.4014 4.55782 13.5897 4.74097 13.8409 4.98692C14.0345 5.17007 14.2282 5.35322 14.4165 5.5259C14.652 5.75092 14.8352 5.93407 14.9712 6.06489C15.3585 6.45735 15.6515 6.85505 15.8608 7.25798C15.9707 7.4673 16.0492 7.68708 16.1015 7.91209C16.1538 8.1371 16.1852 8.39351 16.2009 8.67609C16.2585 8.49817 16.2899 8.34642 16.2951 8.2156C16.2951 8.08477 16.3004 7.96442 16.3004 7.85976C16.3004 7.76034 16.3004 7.61905 16.2899 7.43067C16.2794 7.24752 16.2794 7.11669 16.2794 7.04343ZM10.0262 3.06122C10.0262 3.27054 9.93721 3.46416 9.76452 3.63684C9.69126 3.65254 9.62323 3.64731 9.57091 3.61068C9.51858 3.57928 9.46625 3.52695 9.42439 3.45892C9.41392 3.42753 9.41392 3.3909 9.41392 3.3595V3.28624C9.41392 3.14495 9.44009 3.0089 9.48718 2.88331C9.53428 2.75772 9.60754 2.62166 9.70173 2.46991C9.67556 2.54317 9.65463 2.6269 9.6337 2.71586C9.61277 2.80481 9.6023 2.88331 9.6023 2.9618C9.6023 3.09785 9.64417 3.20251 9.72789 3.28624L10.0314 3.06122H10.0262ZM11.9623 4.72004C11.978 4.76191 11.9885 4.8247 11.9885 4.90843C11.9885 5.00262 11.9676 5.08634 11.9309 5.17007C11.8943 5.25379 11.8367 5.34799 11.7635 5.45264C11.6902 5.5573 11.5908 5.63056 11.4757 5.67242C11.3605 5.71429 11.2402 5.73522 11.1251 5.73522C11.0675 5.72475 11.0204 5.72475 10.989 5.72475C10.9471 5.71429 10.9053 5.68812 10.8582 5.64103C10.8111 5.59393 10.7745 5.5259 10.7378 5.43171C10.764 5.26426 10.8111 5.10727 10.8896 4.95552C10.9681 4.80377 11.0675 4.64678 11.1931 4.47933C11.2036 4.55259 11.1669 4.67295 11.0884 4.82993C11.0099 4.98692 10.9681 5.09681 10.9681 5.15437C10.9681 5.26949 11.057 5.35322 11.2297 5.39508C11.3239 5.37938 11.4181 5.35845 11.5123 5.33752C11.6065 5.31659 11.6902 5.27473 11.7582 5.21716C11.7687 5.11774 11.7216 5.01832 11.6222 4.92936C11.4861 4.82993 11.3972 4.75667 11.3448 4.71481L11.5594 4.4113C11.6274 4.42177 11.6954 4.4584 11.7687 4.52643C11.842 4.59445 11.91 4.65725 11.978 4.71481L11.9623 4.72004ZM10.293 0.648875C9.61277 0.900052 8.78074 1.22972 7.79173 1.64312C6.91261 2.00419 6.08582 2.35479 5.30612 2.70016C5.29566 2.74202 5.25903 2.80481 5.18577 2.88854C5.11251 2.97227 5.08111 3.04029 5.08111 3.08739C5.08111 3.11879 5.09158 3.16065 5.11774 3.20251L5.36892 2.94087L9.87441 1.02564C9.97384 0.983778 10.0628 0.93145 10.1361 0.873888C10.2093 0.816327 10.2616 0.737834 10.2878 0.648875H10.293ZM16.4574 10.9576C16.3893 11.1565 16.1695 11.3134 15.7928 11.4181C15.416 11.5228 15.1753 11.617 15.0654 11.7007C15.0497 11.6274 15.0968 11.5437 15.2119 11.4547C15.3271 11.3658 15.3794 11.3134 15.3794 11.2978C15.3794 11.2454 15.3218 11.2036 15.2015 11.1617C15.191 11.1355 15.1753 11.1094 15.1491 11.0727C15.0811 10.989 15.0706 10.921 15.1125 10.8739C15.3323 10.675 15.4579 10.5599 15.4893 10.5338C15.5835 10.4657 15.6672 10.4343 15.7509 10.4343C15.8608 10.4343 15.9498 10.4867 16.0126 10.5861C15.9969 10.7378 15.9393 10.8216 15.8346 10.8373C15.7091 10.8059 15.6201 10.7849 15.573 10.7849C15.5311 10.7849 15.4945 10.8006 15.4579 10.8373C15.6096 10.989 15.7928 11.0623 16.0126 11.0623C16.1538 11.0623 16.3004 11.0309 16.4521 10.9628L16.4574 10.9576ZM16.6562 11.4495C16.5463 11.5018 16.3946 11.5646 16.2062 11.6379C16.1068 11.6693 15.9655 11.7216 15.7875 11.7949C15.6096 11.8681 15.4526 11.9466 15.3166 12.0356C15.1805 12.1245 15.0759 12.224 15.0026 12.3443C15.3061 12.2292 15.6044 12.1088 15.9079 11.9937C16.0649 11.9362 16.2114 11.8577 16.3475 11.7687C16.4835 11.6745 16.5882 11.5699 16.6614 11.4547L16.6562 11.4495ZM8.28885 4.12873C8.25746 4.22292 8.22606 4.29618 8.1999 4.35374C8.17373 4.4113 8.1371 4.4427 8.08477 4.4427C8.05338 4.4427 8.01151 4.427 7.96965 4.39037C7.76034 4.4427 7.62951 4.65202 7.58242 5.02355C7.53009 5.39508 7.4673 5.63579 7.38357 5.74568L6.84458 4.71481C6.81319 4.75667 6.77132 4.7776 6.719 4.7776C6.60387 4.73574 6.52015 4.70958 6.46782 4.70434C6.41026 4.65202 6.37886 4.59969 6.37886 4.54213C6.37886 4.4898 6.39979 4.41654 6.44165 4.32234C6.48352 4.22815 6.50445 4.16013 6.50445 4.12873C6.54631 4.05547 6.60911 4.01361 6.69283 4.01361C6.72423 4.01361 6.76086 4.02407 6.79226 4.03977C6.90738 4.18106 7.0225 4.36944 7.13239 4.60492C7.21612 4.80377 7.30508 5.00262 7.39404 5.19623C7.47776 4.88749 7.54056 4.66248 7.58242 4.51596C7.66614 4.24908 7.8022 4.07117 7.98535 3.98744C8.04291 3.99791 8.08477 4.00314 8.11094 4.01361C8.1842 4.07117 8.24699 4.1078 8.28885 4.12873ZM1.69545 0.826792C1.68498 0.894819 1.64312 0.926217 1.56986 0.926217C1.47567 0.910518 1.41287 0.900052 1.37101 0.900052C1.27682 0.900052 1.23496 0.962847 1.23496 1.08844C1.23496 1.36578 1.21926 1.60649 1.19309 1.8158C1.1617 2.02512 1.0989 2.21873 0.999477 2.39142C0.93145 2.31816 0.816326 2.10884 0.648875 1.76347C0.575615 1.61172 0.491889 1.4809 0.408163 1.37624C0.392465 1.40764 0.376766 1.44427 0.371533 1.47567C0.361068 1.50706 0.361067 1.54369 0.361067 1.57509C0.251177 1.53323 0.177917 1.50183 0.136055 1.47567C0.041863 1.42334 0 1.35531 0 1.26112C0 1.10937 0.0104654 0.989011 0.0313969 0.905285C0.0523283 0.816327 0.0994245 0.732601 0.177917 0.648875C0.376766 0.732601 0.544218 0.910518 0.680272 1.18786C0.790162 1.42334 0.900052 1.65358 1.00471 1.8786C1.05704 1.55416 1.0989 1.27159 1.13553 1.04134C1.17216 0.811094 1.26112 0.627944 1.40764 0.497122C1.50183 0.481423 1.58032 0.491889 1.64835 0.528519C1.71638 0.565149 1.74778 0.622711 1.74778 0.695971C1.74778 0.727368 1.73731 0.769231 1.71115 0.821559L1.69545 0.826792ZM4.51073 2.67399C4.427 2.64783 4.33281 2.55887 4.23339 2.39665C4.0921 2.17687 3.99267 2.04605 3.94558 1.99372L3.74673 2.44375C3.91418 3.7258 4.08687 5.00785 4.25955 6.28467C4.29095 6.60911 4.31188 6.98064 4.31188 7.3888C4.31188 7.89116 4.27525 8.35688 4.20722 8.79121C4.13396 9.2203 4.01884 9.65463 3.85139 10.089C3.90372 9.65987 3.93511 9.34066 3.94558 9.12088C3.95604 8.9011 3.96651 8.62899 3.96651 8.29409C3.96651 8.1685 3.96651 8.04814 3.96128 7.92779C3.96128 7.81266 3.94035 7.59288 3.90372 7.27368L3.12402 1.28205C3.09785 1.18786 3.08739 1.10413 3.08739 1.02041C3.08739 0.821559 3.13972 0.633176 3.24437 0.455259C3.34903 0.277342 3.47985 0.130822 3.64207 0.00523286C3.93511 0.89482 4.22815 1.77917 4.52119 2.66876L4.51073 2.67399ZM5.63056 7.73417C5.41078 7.73417 5.30612 7.59812 5.30612 7.33124C5.30612 6.85505 5.39508 6.41549 5.56777 6.01256C5.57823 6.11198 5.56777 6.21141 5.5573 6.31607C5.48927 6.67713 5.45788 6.87075 5.45788 6.89168C5.45788 6.9911 5.47357 7.08006 5.49974 7.16379C5.53114 7.24228 5.58346 7.31031 5.65672 7.3731C5.70905 7.27891 5.75615 7.18995 5.80848 7.09576C5.83464 7.16902 5.84511 7.23705 5.84511 7.29461C5.84511 7.47253 5.77185 7.61905 5.63056 7.73417ZM12.135 10.4971C12.1507 10.6122 12.1141 10.7326 12.0147 10.853C11.9205 10.9733 11.8001 11.078 11.6588 11.1617C11.4076 11.1617 11.1722 11.2402 10.9576 11.4024C10.764 11.3187 10.5808 11.2768 10.4029 11.2768C10.225 11.2768 10.0209 11.3239 9.81162 11.4129C9.65986 11.4809 9.47671 11.5856 9.25693 11.7268C8.89587 11.9676 8.62899 12.135 8.45107 12.2187C8.12664 12.3757 7.82313 12.4594 7.54579 12.4594C7.74464 12.4071 7.92779 12.3391 8.09001 12.2501C8.25222 12.1612 8.58189 11.9414 9.07378 11.5908C9.37729 11.3815 9.63893 11.2245 9.86395 11.1251C10.1727 10.9838 10.4657 10.9105 10.7431 10.9105C10.8373 11.0047 10.9367 11.0466 11.0466 11.0466C11.1146 11.0466 11.1669 11.0256 11.2088 10.9838C11.2507 10.8896 11.2978 10.8111 11.3553 10.7431C11.4076 10.675 11.4704 10.6227 11.5385 10.5808C11.5489 10.6122 11.5385 10.6593 11.5123 10.7117C11.4861 10.764 11.4757 10.7954 11.4757 10.8059C11.5018 10.8216 11.5542 10.832 11.6379 10.832C11.7478 10.832 11.8315 10.8163 11.8891 10.7797L12.1298 10.4919L12.135 10.4971ZM13.2391 7.22135C13.3386 7.44636 13.3909 7.68184 13.3909 7.92255C13.3909 8.16327 13.349 8.42491 13.2653 8.67609C13.1816 8.92726 13.0665 9.17321 12.9147 9.41915C12.763 9.52904 12.5484 9.58137 12.2606 9.58137C12.203 9.58137 12.1402 9.58137 12.0722 9.57614C12.0042 9.57614 11.9152 9.55521 11.7949 9.53428C11.5699 9.43485 11.3972 9.2831 11.2821 9.08425C11.1408 9.26217 10.9995 9.42962 10.853 9.59707C10.675 9.78022 10.4971 9.90058 10.314 9.94767C10.2459 9.94767 10.1779 9.94767 10.1151 9.95291C10.0471 9.95291 9.97907 9.95814 9.91628 9.95814C9.79069 9.95814 9.68603 9.94767 9.6023 9.92674C9.51858 9.90581 9.44532 9.86395 9.37729 9.79592C9.24123 9.57091 9.11041 9.34589 8.97436 9.11565C8.78074 8.86447 8.55573 8.73888 8.29409 8.73888C7.77603 8.73888 7.25275 8.89063 6.72423 9.18891C6.36316 9.39822 5.91313 9.74359 5.36892 10.2198C4.93459 10.607 4.50026 10.989 4.0764 11.3762C3.55835 11.821 3.09786 12.1402 2.69492 12.3443C2.54317 12.36 2.43328 12.3705 2.35479 12.3705C2.17687 12.3705 2.03035 12.3496 1.91523 12.3129C1.80011 12.2763 1.67452 12.2083 1.54893 12.1036C1.39717 11.978 1.28205 11.842 1.20356 11.6954C1.12507 11.5489 1.07274 11.3815 1.04657 11.1983C1.04657 10.8059 1.11983 10.4134 1.27159 10.0157C1.32391 9.89011 1.63789 9.30403 2.2135 8.25746C2.17164 8.38305 2.03558 8.68132 1.8001 9.14704C1.69021 9.37206 1.60649 9.56044 1.54893 9.71219C1.49137 9.86395 1.43904 10.0157 1.39717 10.1727C1.35531 10.3297 1.33438 10.471 1.33438 10.607C1.33438 10.8477 1.39717 11.0989 1.52276 11.3501C1.76347 11.5908 2.03558 11.7164 2.32862 11.7164C2.40188 11.7164 2.46468 11.7164 2.50654 11.7059C2.89377 11.5228 3.27054 11.2873 3.64731 11.0047C3.76243 10.9105 4.34851 10.3925 5.39508 9.44532C6.05442 8.84877 6.53585 8.46154 6.82889 8.27839C7.3888 7.91732 7.94872 7.7394 8.49817 7.7394C8.71795 7.72371 8.92203 7.77603 9.11565 7.89639C9.30926 8.01675 9.44532 8.1842 9.52904 8.39351C9.52904 8.59236 9.64417 8.77551 9.87965 8.9325C9.97907 8.96389 10.0837 8.98483 10.1936 8.98483C10.4867 8.98483 10.7797 8.83307 11.0727 8.5348C11.3082 8.27316 11.5437 8.01151 11.7739 7.74464C11.7582 7.81266 11.7425 7.88069 11.7321 7.95395C11.7216 8.02721 11.7111 8.08477 11.7111 8.1371C11.7111 8.23653 11.7321 8.31502 11.7687 8.37781C11.8053 8.44061 11.8786 8.48247 11.9885 8.51387C12.0984 8.58189 12.2501 8.61329 12.4542 8.61329C12.5641 8.61329 12.6478 8.60806 12.7106 8.59236C12.7734 8.58189 12.8414 8.5505 12.9199 8.50864L12.9095 7.8179L13.2496 7.22658L13.2391 7.22135ZM1.69545 3.28624C1.62219 3.52695 1.4652 3.73103 1.22972 3.88802C1.03087 4.02407 0.784929 4.11303 0.502355 4.16536L0.450026 4.12873C0.753532 3.94558 1.05704 3.76243 1.36578 3.57405C1.21402 3.53218 1.06227 3.51125 0.900053 3.51125C0.78493 3.51125 0.675039 3.52695 0.575615 3.56358C0.47619 3.59498 0.387232 3.65254 0.313971 3.7258C0.287807 3.65777 0.303506 3.59498 0.350602 3.53218C0.40293 3.46939 0.450026 3.40659 0.502355 3.34903C0.638409 3.23914 0.837258 3.18681 1.10413 3.18681C1.32391 3.18681 1.51753 3.21821 1.69545 3.28624ZM6.79226 11.2873C6.76086 11.303 6.72423 11.3396 6.6876 11.3867C6.65097 11.439 6.59864 11.5123 6.53061 11.6117C6.37363 11.5437 6.2899 11.4338 6.2899 11.2716C6.2899 11.1879 6.33176 11.0518 6.41026 10.8582C6.48875 10.6646 6.53061 10.5338 6.53061 10.471C6.38933 10.7221 6.2899 10.9105 6.22711 11.0361C6.13292 11.2559 6.09105 11.46 6.09105 11.6536C6.10152 11.6798 6.12768 11.7373 6.17478 11.8367C6.22187 11.9309 6.2899 11.9728 6.38409 11.9571C6.50968 11.9048 6.60387 11.821 6.6719 11.6954C6.73993 11.5699 6.78179 11.4338 6.79749 11.2925L6.79226 11.2873ZM3.16065 7.13239L2.44375 7.39404C2.2606 7.4359 2.09315 7.45683 1.94139 7.45683C1.71638 7.45683 1.50183 7.4202 1.29252 7.34171C1.08844 7.26845 0.920984 7.14809 0.795395 6.99111C0.879121 6.91784 0.947148 6.86552 0.994244 6.83935C1.04657 6.81319 1.10937 6.81319 1.18263 6.83935C1.25065 6.88122 1.31345 6.94401 1.37101 7.02773C1.40241 7.0696 1.4495 7.13239 1.50706 7.21612C1.62219 7.08006 1.74254 6.93878 1.8629 6.78702C1.98325 6.63527 2.05652 6.49398 2.08268 6.35793L1.8315 6.03349C1.4652 6.03349 1.10937 6.22187 0.774463 6.59864C0.607012 6.78179 0.3663 7.13239 0.0575613 7.65568C0.0889585 7.80743 0.193616 7.92779 0.361067 8.02198C0.455259 8.07431 0.596546 8.14233 0.790162 8.23653C0.612245 8.41444 0.497122 8.5348 0.439561 8.60283C0.32967 8.72842 0.235479 8.85924 0.151753 8.99006H0.240712C0.439561 8.80691 0.690738 8.64469 0.994244 8.51387C1.27159 8.41444 1.54893 8.31502 1.82104 8.21036C2.17164 8.07431 2.43328 7.94872 2.60073 7.82313C2.84144 7.64521 3.02983 7.41497 3.15542 7.13239H3.16065Z" fill="white"/>
</svg>
