<svg width="20" height="11" viewBox="0 0 20 11" fill="none" xmlns="http://www.w3.org/2000/svg">
<path fill-rule="evenodd" clip-rule="evenodd" d="M19.9579 2.26765C19.9031 2.2255 19.8272 2.14963 19.7302 2.03162C19.6333 1.9136 19.549 1.8293 19.4816 1.7745C19.4816 2.12013 19.5827 2.96734 19.785 4.32456C19.8778 4.9568 19.9283 5.48367 19.9283 5.90095C19.9494 6.06955 19.9663 6.23815 19.9789 6.41096C19.9916 6.58378 20 6.75659 20 6.93362C20 7.29611 19.9747 7.62487 19.9241 7.91571C19.8736 8.20654 19.785 8.48051 19.6544 8.7334C19.6965 8.41728 19.7134 8.10116 19.7134 7.78083C19.7134 7.17387 19.6249 6.33931 19.4521 5.27292C19.3172 4.46365 19.2413 3.96207 19.2202 3.76397C19.1739 3.55322 19.1233 3.22866 19.0685 2.78188C18.9463 1.79558 18.8746 1.23921 18.8577 1.11276C18.8156 1.03689 18.7987 0.965227 18.7987 0.889358C18.7987 0.775554 18.8409 0.649105 18.921 0.514226C18.9294 0.505796 19.0053 0.400427 19.1528 0.189678C19.2455 0.383567 19.3635 0.649107 19.5068 0.977875C19.6754 1.36987 19.785 1.62698 19.8398 1.745L19.8609 1.71549C19.8693 1.74921 19.8862 1.83351 19.9115 1.97261C19.9368 2.1117 19.9536 2.20864 19.9621 2.25922L19.9579 2.26765ZM16.1728 0.134882C16.1138 0.257116 16.0253 0.362492 15.9157 0.446791C15.8061 0.535306 15.6754 0.61117 15.5279 0.678609C15.313 0.771339 15.1823 0.83035 15.1317 0.851424C14.9842 0.927294 14.8577 1.00738 14.7566 1.09589C14.8114 0.948369 14.8957 0.821921 15.0095 0.720762C15.098 0.644892 15.216 0.577455 15.3635 0.518445C15.5111 0.459436 15.6207 0.413072 15.6881 0.387782C15.9115 0.299268 16.0717 0.214966 16.1728 0.134882ZM16.274 1.84616C16.2318 1.98103 16.1349 2.09484 15.9789 2.19179C15.7218 2.33509 15.4689 2.46997 15.2202 2.60485C15.2202 2.55849 15.2413 2.50791 15.2877 2.45311C15.3298 2.39832 15.3678 2.36039 15.393 2.33088C15.3846 2.31824 15.3003 2.26344 15.1401 2.17071C15.0643 2.12435 15.0137 2.07798 14.98 2.0274C15.0938 1.83773 15.1739 1.7155 15.2118 1.66492C15.313 1.53004 15.4226 1.4373 15.5364 1.39094C15.6797 1.40358 15.7682 1.45838 15.8103 1.55111C15.8019 1.62698 15.7935 1.67756 15.7766 1.71128C15.7597 1.745 15.7218 1.78293 15.6586 1.82087C15.5827 1.77872 15.5153 1.74079 15.4478 1.69864C15.4226 1.69864 15.393 1.71549 15.3678 1.74921L15.2961 1.82087C15.3383 1.87988 15.3973 1.93045 15.4773 1.96417C15.5911 1.99789 15.6712 2.02318 15.7218 2.03583C15.8019 2.03583 15.8946 2.01054 15.9958 1.96417C16.1433 1.88831 16.2403 1.85037 16.2782 1.84194L16.274 1.84616ZM18.0443 5.78293C18.0443 5.23077 17.9473 4.47208 17.7492 3.50685C17.6017 2.77345 17.5174 2.35195 17.4963 2.24236C17.4752 2.20021 17.4668 2.16228 17.4668 2.12013C17.4668 2.08641 17.4752 2.04005 17.4963 1.98525C17.5174 1.92624 17.5427 1.8588 17.5764 1.77872C17.6228 1.79979 17.6691 1.8588 17.7113 1.95575C17.7534 2.05269 17.7956 2.10327 17.8293 2.10327C17.8546 2.10327 17.8967 2.08219 17.9515 2.04426C17.9515 1.89674 17.8757 1.68178 17.7281 1.4078C17.5806 1.12962 17.5047 0.939937 17.5047 0.830348L17.4963 0.859856C17.4415 0.800847 17.3867 0.691258 17.3277 0.531089C17.2687 0.370921 17.2013 0.261332 17.1212 0.202323L16.7756 0.961018C16.8851 1.39094 17.0032 1.95575 17.138 2.65122C17.2181 3.04742 17.3319 3.64173 17.4752 4.42993C17.6185 5.21813 17.7239 5.76607 17.7829 6.06955C17.8293 6.22972 17.8546 6.38989 17.8546 6.54584C17.8546 7.10643 17.53 7.6333 16.8851 8.12224C16.3372 8.47208 15.7935 8.82614 15.2455 9.18441C15.3551 9.15912 15.5911 9.12962 15.9579 9.10011C16.3246 9.07061 16.5985 9.0116 16.7713 8.92308C17.2434 8.55217 17.5806 8.08009 17.7829 7.50686C17.9515 7.02635 18.0358 6.45311 18.0358 5.78715L18.0443 5.78293ZM17.294 7.11908C17.3024 7.07271 17.3024 7.00106 17.3024 6.90833C17.3024 6.52898 17.2139 6.16228 17.0411 5.80401C16.9062 5.52582 16.6955 5.22234 16.4046 4.88515C16.1096 4.58167 15.8103 4.27397 15.5153 3.96628C15.1654 3.6038 14.8999 3.28346 14.7144 3.00527C14.5922 2.8451 14.3983 2.60064 14.1286 2.27608C13.9178 1.9979 13.7956 1.745 13.7534 1.50896C13.8419 1.56797 13.9305 1.62698 14.0148 1.68177C14.0695 1.71549 14.1286 1.73235 14.196 1.73235C14.1075 1.5216 13.9642 1.31507 13.7619 1.10432C13.6481 0.982091 13.4668 0.805061 13.2266 0.569023L13.2561 0.539521L13.0116 0.358274C12.9315 0.569023 12.8851 0.699688 12.8683 0.754482C12.8346 0.880931 12.8177 1.02002 12.8177 1.16755C13.0074 1.51317 13.2223 1.87566 13.4668 2.25922C13.6565 2.55427 13.8925 2.90833 14.1749 3.32139C14.3014 3.50264 14.4362 3.67545 14.5796 3.84405C14.7229 4.00843 14.8788 4.18546 15.0558 4.37513L16.0084 5.39515C16.1897 5.59747 16.3372 5.7745 16.4552 5.93046C16.5985 6.12013 16.725 6.3098 16.8346 6.5079C16.9442 6.70601 17.0327 6.8999 17.0917 7.098C17.1507 7.29611 17.1844 7.50264 17.1844 7.72182C17.2181 7.6881 17.2392 7.65437 17.2518 7.62065C17.2603 7.58693 17.2687 7.54057 17.2687 7.47735V7.31718C17.2687 7.24974 17.2771 7.18652 17.2982 7.12329L17.294 7.11908ZM11.8398 1.14226C11.785 1.3235 11.667 1.47946 11.4858 1.60591C11.3298 1.7155 11.1528 1.78715 10.9505 1.8293C10.9505 1.71971 11.0263 1.63541 11.1823 1.5764C11.3762 1.49631 11.4984 1.42466 11.5448 1.36565C11.4436 1.30664 11.3298 1.27292 11.1992 1.27292C11.1233 1.27292 11.0769 1.27292 11.0558 1.28135C11.0348 1.28978 11.0053 1.30664 10.9631 1.33193C10.921 1.35722 10.8873 1.36144 10.862 1.34036C10.9505 1.12961 11.0938 1.01159 11.2961 0.977875C11.4394 0.990519 11.549 1.00738 11.6291 1.02845C11.7092 1.04953 11.7766 1.08747 11.8314 1.13805L11.8398 1.14226ZM12.5058 2.27608C12.4847 2.30137 12.4215 2.4489 12.3119 2.71022C12.2318 2.90411 12.156 3.00527 12.0885 3.00527C12.0464 3.00527 12.0126 2.98841 11.9874 2.95469L11.5406 2.50791L11.7724 1.87144C11.8651 1.85037 11.9874 1.89674 12.1349 2.01476C12.3372 2.17071 12.4594 2.25922 12.4974 2.27608H12.5058ZM11.4015 0C10.7819 0.160169 10.1623 0.324556 9.53846 0.484725C8.84299 0.674398 8.23604 0.851428 7.7176 1.02003C7.07692 1.23077 6.48261 1.44995 5.93888 1.67756C5.93888 1.68599 5.89252 1.74921 5.79557 1.87144C5.73657 1.94731 5.71971 2.01475 5.75342 2.08219C6.34773 1.77872 6.93361 1.52582 7.51528 1.3235C8.00843 1.14648 8.62382 0.961013 9.36565 0.758695C9.6607 0.67861 10.2929 0.514229 11.2582 0.273976C11.4015 0.198107 11.4478 0.109589 11.4015 0ZM11.4015 4.65332C11.4015 4.80928 11.3846 4.92729 11.3551 5.00738C11.3256 5.08746 11.275 5.15912 11.2076 5.21813C11.1612 5.22656 11.1191 5.2097 11.0854 5.16755C11.0516 5.10854 11.0263 5.06639 11.0137 5.04531C11.0053 5.00316 11.0053 4.94416 11.0053 4.86407C11.0053 4.68704 11.0432 4.49737 11.1233 4.28662C11.1992 4.07588 11.275 3.87356 11.3509 3.67967C11.3509 3.76818 11.3172 3.9157 11.2455 4.13067C11.1739 4.34141 11.1401 4.48894 11.1401 4.56903C11.1401 4.69547 11.1865 4.79242 11.2835 4.85143L11.4057 4.64911L11.4015 4.65332ZM10.7439 3.36776C10.7313 3.46049 10.7187 3.53214 10.7102 3.57429C10.7018 3.61644 10.6765 3.64173 10.6428 3.64173C10.6175 3.64173 10.5838 3.62909 10.5501 3.59958C10.5374 3.59958 10.5079 3.59115 10.4573 3.57007C10.411 3.549 10.3772 3.55322 10.3562 3.57851C10.3224 3.65859 10.2803 3.8314 10.2255 4.09273C10.1707 4.35406 10.0991 4.53952 10.0021 4.64911C9.96839 4.61539 9.89673 4.45522 9.79136 4.16439C9.71128 3.94099 9.59747 3.83141 9.45838 3.83141C9.42466 3.83141 9.38251 3.83983 9.32771 3.86091C9.26027 3.82719 9.22655 3.75553 9.22655 3.65016C9.22655 3.57008 9.24763 3.48999 9.28556 3.40569C9.28556 3.37197 9.30664 3.33404 9.34457 3.2961C9.38251 3.25817 9.42466 3.2371 9.46681 3.2371C9.50896 3.2371 9.54268 3.25395 9.56797 3.28767C9.65648 3.40991 9.74078 3.55743 9.82086 3.73868C9.90095 3.91992 9.98103 4.08852 10.0527 4.24868C10.0948 4.07166 10.1328 3.89463 10.1749 3.71339C10.2339 3.50264 10.3182 3.34668 10.4278 3.2371C10.4826 3.22867 10.5248 3.2371 10.5585 3.24553C10.6175 3.28768 10.6807 3.32561 10.7397 3.36776H10.7439ZM13.3825 6.46154C13.3825 6.84089 13.3656 7.10643 13.3319 7.26239C13.2729 7.55322 13.138 7.78925 12.9357 7.9705C12.6322 8.24025 12.2866 8.45522 11.9031 8.61961C11.5195 8.77977 11.1317 8.86407 10.7397 8.86407C10.5838 8.86407 10.4278 8.85143 10.2677 8.82192C10.1075 8.79663 9.95574 8.75027 9.80822 8.69126C9.53846 8.53531 9.37829 8.44258 9.33193 8.40886C9.17176 8.29505 9.02002 8.16439 8.88514 8.01265C8.71654 8.08009 8.4215 8.2234 8.00422 8.44679C7.33825 8.80506 6.8156 8.98209 6.43625 8.98209C6.26765 8.98209 6.11591 8.96102 5.97682 8.92308C5.83772 8.88093 5.6902 8.80506 5.52582 8.69126C5.1549 8.40886 4.92729 7.96207 4.84721 7.35512C4.80506 6.82403 4.76712 6.28451 4.72497 5.745C4.44679 5.92203 4.16017 6.15807 3.86512 6.45311C3.70495 6.61328 3.44363 6.89147 3.08535 7.28346C2.78188 7.62066 2.52055 7.88199 2.30559 8.07166C1.99368 8.34985 1.69442 8.55216 1.40358 8.68704C1.29399 8.69968 1.20969 8.70812 1.15068 8.70812C0.961012 8.70812 0.792413 8.6744 0.640674 8.61117C0.488936 8.54795 0.354057 8.44258 0.240253 8.30348C0.160169 8.17703 0.0969442 8.04215 0.0590095 7.89884C0.0168599 7.75553 0 7.62066 0 7.49421C0 7.16544 0.118019 6.79453 0.354057 6.38146C0.497366 6.13278 0.733404 5.79979 1.06217 5.39094C0.906217 5.26871 0.796628 5.11697 0.729189 4.93151C0.661749 4.74605 0.62803 4.53109 0.62803 4.29084C0.62803 4.20232 0.636459 4.10116 0.649104 3.98736C0.661749 3.87355 0.674394 3.77239 0.691254 3.68388C0.767123 3.35511 0.872497 3.03478 1.01581 2.72287C1.13804 2.46154 1.29399 2.17071 1.4921 1.85459C1.31507 2.46997 1.14647 3.08114 0.977871 3.69652C0.977871 3.86512 1.01159 4.02108 1.07482 4.16017C1.13804 4.30348 1.25184 4.43415 1.41201 4.55638C1.53425 4.58167 1.62276 4.53109 1.68599 4.39621C1.74921 4.26133 1.79979 4.18968 1.84615 4.18546C1.84615 4.44679 1.82086 4.68282 1.76607 4.89357C1.71128 5.10432 1.60169 5.27713 1.43309 5.42044H1.18862C1.12961 5.5216 0.965227 5.745 0.703899 6.08641C0.332982 6.57113 0.147524 6.97155 0.147524 7.29189C0.147524 7.44784 0.181243 7.6038 0.248683 7.75554C0.307692 7.86934 0.375132 7.9705 0.442571 8.05901C0.5353 8.17282 0.636459 8.2529 0.737619 8.29084C0.817703 8.31191 0.897787 8.32034 0.982086 8.32034C1.17597 8.32034 1.36565 8.26976 1.54268 8.16439C1.71971 8.05901 1.89673 7.91149 2.07376 7.72603C2.95047 6.82403 3.82719 5.9136 4.7039 5.00317C4.7039 4.55638 4.67018 4.05901 4.60274 3.50685C4.44257 2.17914 4.35827 1.35722 4.35827 1.03688C4.43414 0.859855 4.48472 0.750269 4.51001 0.703905C4.57745 0.577456 4.65332 0.488937 4.7334 0.442572C4.83456 1.24342 4.91465 2.00211 4.97787 2.71866C5.03688 3.4352 5.0706 4.12645 5.0706 4.79242C5.18019 4.67018 5.42044 4.53109 5.79979 4.3667C6.17914 4.20653 6.40674 4.08852 6.48683 4.01265L6.36459 3.56586C6.38988 3.49842 6.44468 3.30875 6.52476 3.00106C6.63435 2.58378 6.81981 2.33509 7.08957 2.2508C7.41412 2.2508 7.72603 2.38989 8.02951 2.66386C8.27819 2.89147 8.47629 3.16966 8.62803 3.49421C8.60274 3.52793 8.54373 3.67545 8.45522 3.94099C8.39621 4.12224 8.29505 4.24025 8.16017 4.29505C8.07166 4.36249 7.86091 4.4215 7.52371 4.46786C7.36354 4.49315 7.24552 4.52687 7.17808 4.56059C7.14436 4.59431 7.1275 4.65332 7.1275 4.73341C7.1275 4.7882 7.13593 4.85142 7.15701 4.92729L7.13593 4.9568C7.10221 4.92308 7.07271 4.88514 7.0432 4.84721C6.95469 4.7039 6.91254 4.63225 6.91254 4.62382C6.60063 4.71233 6.28873 4.83878 5.9726 5.00738C5.71128 5.15069 5.41623 5.33615 5.09168 5.56376C5.09168 6.21708 5.1254 6.68072 5.19283 6.95048C5.31507 7.44363 5.58904 7.8019 6.01054 8.02108C6.09062 8.0548 6.17914 8.08008 6.2803 8.10116C6.37724 8.12224 6.49947 8.13067 6.63857 8.13067C6.9294 8.13067 7.23709 8.06744 7.55743 7.93678C7.81454 7.83562 8.08852 7.68388 8.37513 7.48156C8.19389 7.30453 8.01265 7.13172 7.82719 6.95469C7.59958 6.76502 7.3804 6.67229 7.17808 6.67229C7.098 6.67229 7.00527 6.69336 6.90411 6.7313C6.89568 6.7313 6.87039 6.74816 6.82824 6.77766C6.78609 6.80717 6.75237 6.81139 6.7313 6.78188C6.77766 6.5332 6.8156 6.35195 6.84089 6.23393C6.89568 6.02319 7.00527 5.8883 7.17387 5.8293C7.57007 5.74078 7.99579 5.69863 8.44679 5.69863C9.02845 5.69863 9.58904 5.76607 10.137 5.90517C10.6849 6.04426 11.1781 6.23815 11.6249 6.48683C11.6038 6.61328 11.5743 6.73973 11.5406 6.86618C11.5026 6.99263 11.4436 7.10643 11.3635 7.21602C11.2877 7.19073 11.2202 7.17387 11.1528 7.16544C11.0854 7.15701 11.0095 7.15701 10.9294 7.15701C10.6807 7.15701 10.3941 7.22445 10.0695 7.35933C9.90938 7.4352 9.745 7.50264 9.58483 7.57008C9.73235 7.7176 9.90516 7.82719 10.0991 7.89884C10.2929 7.9705 10.5037 8.00422 10.7271 8.00422C10.9842 8.00422 11.2497 7.96207 11.5321 7.87777C11.8103 7.79347 12.0969 7.6881 12.3878 7.55743C12.51 7.47735 12.6322 7.38884 12.7629 7.29611C12.8894 7.20338 13.0074 7.10643 13.117 7.01371C12.9062 6.52898 12.7545 6.16649 12.6533 5.93046C12.4594 5.46681 12.3119 5.0959 12.2192 4.82614C12.2192 4.68283 12.2445 4.54795 12.2908 4.4215C12.3372 4.29505 12.4089 4.16017 12.5016 4.01687C12.6449 4.16439 12.7882 4.31191 12.9357 4.45101C13.1043 4.64068 13.1886 4.80506 13.1886 4.94837C13.1886 5.00316 13.1802 5.0411 13.1675 5.07061L12.8556 4.94837C13.0158 5.31086 13.1212 5.55111 13.1675 5.66491C13.2813 5.95996 13.3488 6.22972 13.3699 6.46576L13.3825 6.46154ZM6.29294 6.21707C6.25922 6.2255 6.2255 6.25922 6.196 6.32244C6.16649 6.38567 6.12434 6.41518 6.06955 6.40675C6.00211 6.31402 5.96839 6.21286 5.96839 6.10327C5.96839 6.0274 6.00632 5.87988 6.07798 5.65649C6.10327 5.56797 6.12434 5.48367 6.13699 5.40359C6.02318 5.63962 5.95153 5.79558 5.92624 5.86723C5.8588 6.04848 5.82508 6.21708 5.82508 6.37303C5.82508 6.41518 5.83351 6.48262 5.84615 6.57535C5.86723 6.6175 5.89673 6.647 5.9431 6.66808C5.98525 6.68915 6.0274 6.70601 6.06955 6.71865C6.14542 6.68493 6.196 6.62593 6.22972 6.54584C6.24236 6.52055 6.26344 6.40675 6.28873 6.21286L6.29294 6.21707ZM3.73446 3.73025C3.70074 3.75132 3.66702 3.8019 3.63751 3.88198C3.60801 3.96207 3.55743 4.00422 3.48999 4.00422C3.42255 3.89463 3.38883 3.78083 3.38883 3.65859C3.38883 3.549 3.41833 3.39726 3.48156 3.19494C3.54057 2.99262 3.57429 2.85353 3.58272 2.78188L3.40148 3.21602C3.39305 3.24131 3.36354 3.3509 3.30875 3.54057C3.25395 3.73025 3.22866 3.86934 3.22866 3.95364C3.22866 4.11381 3.30032 4.23182 3.43941 4.30769C3.54057 4.26133 3.61644 4.18125 3.6628 4.07588C3.70917 3.96629 3.73446 3.85248 3.73446 3.73025ZM9.89673 9.65648C9.62698 9.69863 9.36143 9.73657 9.09589 9.77872C9.04953 9.78715 8.97366 9.78715 8.8725 9.78715C8.75869 9.78715 8.65753 9.77872 8.56902 9.75764C8.48051 9.73657 8.39621 9.69864 8.31612 9.64806C8.39199 9.52582 8.54795 9.41202 8.79241 9.31086C9.03688 9.2097 9.20127 9.0959 9.28978 8.98209C9.24763 8.94837 9.19284 8.94837 9.11697 8.98209C9.08325 8.99474 9.02845 9.02003 8.9568 9.05375C8.91465 9.06639 8.88936 9.07482 8.87671 9.07482C8.8177 9.07482 8.76291 9.05796 8.72076 9.02846C8.67861 8.99895 8.63646 8.95258 8.59431 8.89357C8.61539 8.86829 8.64489 8.8725 8.67861 8.91044C8.71654 8.94837 8.74183 8.96523 8.75448 8.96523L8.87671 8.843C8.92308 8.79663 8.93994 8.74605 8.92729 8.69126C8.88093 8.62382 8.82192 8.5901 8.75448 8.5901C8.67861 8.5901 8.59853 8.63225 8.51001 8.71233C8.451 8.76713 8.38778 8.83878 8.32877 8.92308C8.31612 8.94416 8.30769 8.96944 8.30769 9.00316C8.30769 9.04953 8.32455 9.0959 8.36249 9.13383C8.40042 9.17598 8.43836 9.21391 8.48051 9.25606C8.28662 9.45838 8.17703 9.58062 8.15595 9.61855C8.10959 9.69863 8.0843 9.79136 8.0843 9.89252C8.19389 9.95153 8.30348 9.9979 8.41728 10.0232C8.53109 10.0485 8.64489 10.0653 8.76291 10.0653C8.8177 10.0653 8.90622 10.0569 9.02424 10.0443C9.36143 9.98525 9.65227 9.85459 9.89252 9.6607L9.89673 9.65648ZM3.11064 0.531089C3.0432 0.46365 2.93783 0.429928 2.79874 0.429928C2.68915 0.539517 2.62171 0.670182 2.5922 0.826136C2.5627 0.982089 2.52476 1.17176 2.48683 1.40358C2.44046 1.34457 2.36038 1.17598 2.24236 0.897789C2.16228 0.687041 2.04847 0.560591 1.90938 0.514226C1.8883 0.556376 1.85458 0.619603 1.80822 0.708117C1.76185 0.796631 1.73656 0.868285 1.73656 0.93151C1.73656 0.973659 1.74499 1.02002 1.76607 1.07482C1.9431 1.0411 2.07798 1.12962 2.17914 1.33615C2.33509 1.66492 2.41939 1.83773 2.43203 1.85038L2.22129 1.93045C2.22129 1.93045 2.20021 1.98525 2.16228 2.07798C2.12013 2.17071 2.12013 2.23393 2.15385 2.27608L2.2255 2.196C2.25922 2.17492 2.29716 2.1665 2.33509 2.1665C2.44468 2.1665 2.52055 2.20865 2.56691 2.29716C2.46575 2.32245 2.36459 2.34774 2.25922 2.37303C2.15385 2.39832 2.07376 2.43625 2.01054 2.49104C1.9431 2.66807 1.90938 2.84932 1.90938 3.03899C1.90938 3.19916 1.93467 3.38462 1.98946 3.58694C2.01475 3.69653 2.07376 3.87356 2.16228 4.12224C2.21707 4.28241 2.25922 4.41728 2.29294 4.52687C2.36881 4.77556 2.40253 4.99473 2.40253 5.18441C2.40253 5.37408 2.36881 5.56797 2.30137 5.74922C2.4236 5.50053 2.48261 5.22235 2.48261 4.91887C2.48261 4.86407 2.47418 4.76713 2.45732 4.63225C2.44046 4.49315 2.4236 4.38778 2.41096 4.32034C2.39831 4.24868 2.3098 3.91992 2.14963 3.33404C2.10748 3.19073 2.06955 3.00948 2.0274 2.78609C2.12013 2.68493 2.28451 2.62592 2.51633 2.60906C2.74816 2.5922 2.88725 2.57534 2.92518 2.5627C2.97155 2.5079 2.99684 2.4489 2.99684 2.38146C2.99684 2.2803 2.94204 2.18336 2.83667 2.08641C2.74394 2.04005 2.6765 1.98525 2.64278 1.91781C2.60906 1.85459 2.5922 1.77029 2.5922 1.66913C2.5922 1.58904 2.63435 1.39094 2.71444 1.08325C2.74816 0.9568 2.76502 0.847209 2.76502 0.758695C2.79031 0.767125 2.84089 0.775558 2.90832 0.788203C2.94204 0.809277 2.96733 0.817704 2.98841 0.817704C3.03056 0.817704 3.05585 0.783986 3.06849 0.720762C3.08114 0.657537 3.09378 0.594312 3.11064 0.535302V0.531089ZM4.16438 8.34985C4.10959 8.41729 4.05479 8.48472 4.00422 8.55216L3.85248 8.4215C3.83983 8.36671 3.8314 8.32456 3.8314 8.29084C3.8314 8.26976 3.83983 8.21497 3.85669 8.11802C3.87355 8.02529 3.88198 7.94521 3.88198 7.8862C3.76818 8.06323 3.70917 8.25712 3.70917 8.47208C3.70917 8.55216 3.7176 8.6196 3.73446 8.6744C3.75132 8.72919 3.78082 8.77556 3.82719 8.80928C3.86934 8.84721 3.92413 8.85986 3.98314 8.85564C4.03793 8.77977 4.07587 8.7039 4.10537 8.62803C4.13066 8.55216 4.15174 8.45944 4.16438 8.34985ZM7.80611 3.57429C7.6628 3.43098 7.51949 3.31718 7.37619 3.22866C7.23288 3.14015 7.07271 3.08536 6.90411 3.0685C6.85775 3.09379 6.83246 3.13172 6.83246 3.17809C6.83246 3.22024 6.89147 3.32982 7.0137 3.51107C7.08114 3.61222 7.11486 3.68809 7.11486 3.74289C7.19073 3.74289 7.27503 3.72603 7.36776 3.69231C7.59536 3.61223 7.74289 3.57007 7.8019 3.57007L7.80611 3.57429ZM9.77028 6.71865C9.39094 6.62592 9.00738 6.57535 8.61539 6.57535C8.69547 6.7313 8.77977 6.85353 8.86828 6.93783C8.9568 7.02635 9.04531 7.0685 9.14226 7.0685C9.30242 6.95891 9.4078 6.89147 9.45416 6.86618C9.55532 6.80717 9.6607 6.75659 9.76607 6.71444L9.77028 6.71865Z" fill="white"/>
</svg>
