<svg width="20" height="12" viewBox="0 0 20 12" fill="none" xmlns="http://www.w3.org/2000/svg">
<path fill-rule="evenodd" clip-rule="evenodd" d="M20 2.72636C19.9453 2.68656 19.8706 2.59203 19.7811 2.44775C19.6915 2.2985 19.602 2.199 19.5124 2.14428C19.5124 2.79104 19.5622 3.64675 19.6667 4.71143C19.7164 5.23879 19.7662 5.75621 19.8209 6.27363C19.8358 6.50248 19.8507 6.72636 19.8706 6.94029C19.8856 7.15422 19.8955 7.35323 19.8955 7.53731C19.8955 8.06467 19.8557 8.54229 19.7711 8.97015C19.6866 9.39801 19.5373 9.82586 19.3234 10.2487C19.3781 10.1045 19.4179 9.93034 19.4428 9.72138C19.4677 9.51243 19.4776 9.3184 19.4776 9.13432C19.4776 8.90547 19.4776 8.71641 19.4677 8.57213C19.4378 7.99004 19.4179 7.68159 19.4179 7.64178L18.8209 1.64677C18.7811 1.46269 18.7612 1.2985 18.7612 1.14427C18.7612 0.920392 18.801 0.716411 18.8856 0.537307C18.9701 0.353227 19.1045 0.208941 19.2836 0.0945134C19.2985 0.174115 19.4428 0.597005 19.7114 1.3582C19.9005 1.90546 20 2.36317 20 2.72138V2.72636ZM13.5771 1.20895C13.5771 1.3383 13.5572 1.46268 13.5124 1.59203C13.4677 1.72138 13.398 1.82088 13.3035 1.90049C13.209 1.93034 13.1343 1.9204 13.0846 1.86567C13.0348 1.81095 12.9851 1.73134 12.9353 1.62686C12.9254 1.57711 12.9254 1.51741 12.9254 1.4378C12.9254 1.24875 12.9652 1.04974 13.0448 0.840782C13.0846 0.731329 13.1343 0.61691 13.199 0.507457C13.1741 0.577109 13.1493 0.67163 13.1294 0.781083C13.1045 0.890536 13.0945 0.990047 13.0945 1.06965C13.0945 1.26865 13.1443 1.4378 13.2488 1.57213C13.3582 1.597 13.4378 1.54726 13.4776 1.42288C13.5174 1.2985 13.5522 1.22884 13.5871 1.21392L13.5771 1.20895ZM11.7512 0.442778C11.7512 0.761186 11.607 1.03482 11.3234 1.26865C11.2289 1.28358 11.1343 1.27363 11.0498 1.2388C10.9602 1.20398 10.9104 1.15421 10.8955 1.08954C10.8806 1.02486 10.8706 0.955214 10.8706 0.875612C10.8706 0.746258 10.9005 0.621886 10.9552 0.492532C10.9801 0.437806 11.0448 0.323372 11.1592 0.144268C11.1592 0.159193 11.1443 0.233816 11.1194 0.358194C11.0896 0.487548 11.0796 0.582084 11.0796 0.64676C11.0796 0.726362 11.0945 0.791036 11.1194 0.845762C11.1493 0.895513 11.199 0.940289 11.2687 0.97014C11.3333 0.98009 11.3781 0.970146 11.4129 0.960195C11.4826 0.890544 11.5373 0.835819 11.5672 0.805968C11.5672 0.726366 11.5075 0.646758 11.3881 0.567156C11.2687 0.487554 11.209 0.417906 11.209 0.35323C11.209 0.298503 11.2289 0.243778 11.2687 0.199002C11.3085 0.169151 11.3532 0.149248 11.398 0.149248C11.4627 0.149248 11.5274 0.184074 11.602 0.258701C11.6269 0.273626 11.6766 0.338305 11.7562 0.447758L11.7512 0.442778ZM13.4726 3.6567C13.4876 3.80596 13.4726 3.90547 13.4229 3.94527C13.3731 3.98507 13.2935 4.00497 13.1741 4.00497C13.0398 4.00497 12.9453 4.01989 12.8856 4.04476C12.8308 4.07461 12.801 4.16417 12.801 4.31342C12.801 4.46268 12.791 4.58705 12.7662 4.68158C12.7413 4.77611 12.6567 5.00497 12.5174 5.36318C12.4776 5.31343 12.3582 5.08457 12.1592 4.67163C12.0249 4.38308 11.8458 4.22387 11.6219 4.18407C11.6368 4.09451 11.6517 4.00994 11.6716 3.92039C11.7015 3.83083 11.7562 3.77114 11.8259 3.74129C11.995 3.84577 12.1393 4.01989 12.2687 4.26865C12.3632 4.49253 12.4627 4.71144 12.5672 4.92537C12.6468 4.55721 12.7114 4.28855 12.7562 4.11442C12.8507 3.78606 13.0199 3.62686 13.2587 3.62686C13.3134 3.62686 13.3881 3.63681 13.4726 3.66168V3.6567ZM8.69652 1.81592C8.65672 1.99005 8.62687 2.0995 8.61194 2.1393C8.56219 2.26865 8.50249 2.36815 8.42289 2.44775C8.33333 2.44775 8.26866 2.4179 8.21891 2.35322C8.16916 2.28855 8.13433 2.20896 8.10945 2.11443C8.08458 1.91542 8.12935 1.68655 8.23881 1.43282C8.29353 1.30347 8.35323 1.1791 8.41791 1.04974C8.37811 1.2189 8.34328 1.3582 8.31841 1.46765C8.28856 1.57711 8.27861 1.66666 8.27861 1.73133C8.27861 1.90546 8.35324 2.02487 8.50746 2.08954C8.53731 2.06467 8.56717 2.01989 8.59204 1.94526C8.61692 1.87063 8.65174 1.83084 8.70149 1.81592H8.69652ZM13.0547 6.88059C13.0547 7.00994 13.0398 7.1194 13.0149 7.21393C12.9851 7.30846 12.9254 7.38805 12.8308 7.45273C12.7413 7.46765 12.6716 7.44279 12.6219 7.36816C12.5721 7.29851 12.5373 7.20896 12.5224 7.10448C12.5224 6.9204 12.5373 6.76119 12.5622 6.62189C12.592 6.48259 12.6418 6.35323 12.7214 6.23383C12.7313 6.31343 12.7214 6.4179 12.6965 6.55223C12.6716 6.68158 12.6617 6.76119 12.6617 6.78606C12.6617 6.92039 12.7114 7.02487 12.806 7.09452C12.8756 7.10447 12.9303 7.06964 12.9652 6.99999C13 6.93034 13.0299 6.89054 13.0547 6.88059ZM18.0697 8.07462C17.8856 7.89054 17.6517 7.80099 17.3632 7.80099C16.9254 7.89054 16.4876 7.97015 16.0498 8.04975C15.796 6.86567 15.6667 6.26368 15.6667 6.24876C15.602 5.85075 15.5721 5.48258 15.5721 5.1393C15.7214 5.02984 15.9602 4.85572 16.2786 4.62686C16.7562 4.26865 17.1244 3.94527 17.3881 3.66168L17.5174 3.79104C17.607 3.59204 17.6667 3.41294 17.7065 3.24876C17.7463 3.08458 17.7662 2.89055 17.7662 2.67164C17.7363 2.52239 17.6915 2.4179 17.6418 2.36815C17.592 2.3184 17.5224 2.28855 17.4428 2.28855C17.2736 2.32835 17.1343 2.41292 17.0149 2.5373C16.9751 2.5771 16.9154 2.66168 16.8358 2.78606C16.796 2.85073 16.7761 2.91044 16.7761 2.96517C16.7761 3.05472 16.8458 3.15422 16.9801 3.27363C17.1542 3.42288 17.2537 3.5174 17.2786 3.54725C17.0149 3.81093 16.7413 4.04974 16.4527 4.26367C16.204 4.45273 15.9104 4.65174 15.5672 4.86069C15.5124 4.45273 15.4527 4.02486 15.393 3.5771C15.3333 3.12934 15.3035 2.74128 15.3035 2.41292C15.3035 2.30347 15.3035 2.20894 15.3085 2.13432C15.3085 2.05969 15.3184 1.98009 15.3284 1.90049L15.8159 2.36815L15.8756 2.31839C15.8109 1.97014 15.6866 1.57213 15.4925 1.12437C15.4378 0.995015 15.2637 0.621891 14.9652 0C14.8706 0.079602 14.7811 0.208944 14.7015 0.393024C14.6617 0.487551 14.592 0.636812 14.4975 0.835817C14.5224 1.0597 14.6318 1.77612 14.8308 2.98507C14.9751 3.8607 15.0448 4.58706 15.0448 5.1592C14.8308 5.28856 14.6119 5.4179 14.393 5.55223C14.1741 5.68655 13.9851 5.81094 13.8259 5.9204C14.2388 5.78607 14.6517 5.64677 15.0697 5.50249L15.4876 8.23881C15.0398 8.42786 14.5821 8.57711 14.1144 8.68656C13.6468 8.79602 13.1692 8.84577 12.6915 8.84577C12.4229 8.84577 12.1642 8.83084 11.9254 8.79602C11.6866 8.76617 11.4527 8.70647 11.2189 8.62686C11.0348 8.51741 10.8706 8.36816 10.7164 8.18905C10.5672 8.00995 10.4478 7.82587 10.3682 7.63184C10.2388 6.95522 10.1393 6.15919 10.0697 5.24377C10.0299 4.69651 9.9801 3.86567 9.92537 2.76119C9.87065 1.65671 9.81592 0.860697 9.77115 0.373134C9.70149 0.437811 9.63184 0.512423 9.57214 0.606951C9.51244 0.696503 9.42786 0.845759 9.31343 1.04476C9.36319 1.50745 9.39801 2.06964 9.42786 2.74128C9.45771 3.40795 9.48756 4.06965 9.52239 4.72139C9.55722 5.37313 9.60199 5.95023 9.66169 6.45272C9.65174 6.50247 9.65174 6.57214 9.65174 6.66666C9.65174 6.80099 9.68657 7.12438 9.7612 7.63184C9.79105 7.85572 9.81095 8.03979 9.81095 8.19402C9.81095 8.40297 9.77612 8.597 9.71144 8.78606C9.64179 8.97511 9.53234 9.13929 9.38309 9.28357C9.15423 9.46765 8.88557 9.55721 8.58209 9.55721C8.49254 9.55721 8.39304 9.54726 8.28358 9.52238C8.05473 9.44278 7.87562 9.26865 7.74627 8.99502C7.71642 8.91542 7.63682 8.67661 7.50746 8.2786L6.9602 1.32835L6.77115 0.184077C6.62687 0.31343 6.53234 0.452732 6.47761 0.601986C6.42786 0.75124 6.39801 0.930343 6.39801 1.12935C6.39801 1.26368 6.40796 1.4179 6.43284 1.58705C6.45771 1.75621 6.48756 1.9602 6.52736 2.18905L7.05473 7.85075C6.76119 8.1592 6.40299 8.42785 5.9801 8.65173C5.64677 8.82586 5.24378 8.99005 4.77612 9.1393C4.40299 9.23383 4.05473 9.30845 3.73134 9.36815C3.40796 9.42288 3.08955 9.45274 2.77114 9.45274C2.31841 9.45274 1.89552 9.38307 1.51244 9.2388C1.12438 9.09452 0.815921 8.86069 0.577115 8.53234C0.467662 8.34328 0.40796 8.14427 0.40796 7.93532C0.621891 7.31342 0.840796 6.69154 1.06468 6.0597C0.79602 6.51243 0.606965 6.84079 0.502487 7.0398C0.169154 7.69154 0 8.30347 0 8.86566C0.0497512 9.22387 0.253731 9.54228 0.62189 9.82089C0.915423 10.0448 1.25871 10.209 1.64677 10.3234C1.9403 10.3532 2.13433 10.3731 2.22388 10.3781C2.31343 10.3781 2.41791 10.3831 2.52736 10.3831C3.43284 10.3831 4.28856 10.2139 5.09453 9.87561C5.9005 9.5373 6.56219 9.05472 7.08955 8.42288C7.1592 8.91542 7.21891 9.24875 7.26866 9.42785C7.37314 9.78606 7.53234 10.0746 7.74627 10.2886C7.8408 10.3831 7.94527 10.4478 8.04975 10.4876C8.15423 10.5274 8.28856 10.5423 8.44776 10.5423C8.58209 10.5423 8.71144 10.5323 8.83085 10.5075C9.08458 10.4577 9.30846 10.3184 9.49751 10.0896C9.71144 9.71642 9.93035 9.33831 10.1542 8.95522C10.4428 9.24378 10.7612 9.44277 11.1194 9.56218C11.4776 9.68158 11.8706 9.74129 12.3035 9.74129C12.8308 9.74129 13.5572 9.62685 14.4876 9.39302C15.1343 9.23382 15.5274 9.1393 15.6716 9.10447C15.7662 9.43283 15.8408 9.65173 15.9005 9.77114C16.01 9.99999 16.1692 10.1841 16.3682 10.3184C16.4726 10.3881 16.5771 10.4428 16.6915 10.4776C16.801 10.5124 16.9204 10.5323 17.0398 10.5323C17.1741 10.5323 17.2935 10.5025 17.398 10.4478C17.7662 9.90547 17.9503 9.62685 17.9602 9.61193C18.1493 9.2786 18.2488 8.97014 18.2488 8.69153C18.2488 8.4776 18.1841 8.26367 18.0597 8.05969L18.0697 8.07462ZM5.42289 1.60198C5.42289 1.75123 5.40796 1.87562 5.37314 1.97015C5.34328 2.06467 5.27363 2.1393 5.16916 2.199C5.11443 2.199 5.0597 2.18407 5.01493 2.14924C4.96517 2.11939 4.91045 2.03979 4.84577 1.92039C4.83582 1.89054 4.83582 1.85571 4.83582 1.82586V1.75622C4.83582 1.59701 4.8607 1.44775 4.90547 1.31343C4.91542 1.28855 5.02488 1.06964 5.23881 0.656705C5.14925 0.925362 5.06468 1.199 4.97512 1.46765C4.97512 1.60198 5.0199 1.71642 5.10448 1.81592C5.13433 1.83084 5.19403 1.84079 5.28358 1.84079C5.32338 1.76119 5.36816 1.68158 5.41294 1.60198H5.42289ZM15.2736 10.2935C15.2985 10.398 15.2836 10.4975 15.2388 10.592C15.1592 10.6965 15.1095 10.7711 15.0846 10.8209C15.0299 10.8308 14.9453 10.8209 14.8259 10.796C14.7114 10.7711 14.6468 10.7612 14.6269 10.7612C14.5473 10.7612 14.4876 10.7811 14.4428 10.8159C14.398 10.8507 14.3632 10.9303 14.3433 11.0497C14.0398 11.2786 13.6567 11.4527 13.1841 11.5622C13.0796 11.5871 12.6517 11.6617 11.8955 11.791C12.4925 11.592 12.9353 11.4428 13.2189 11.3383C13.7264 11.1542 14.1443 10.9453 14.4627 10.7065C14.4627 10.5622 14.5124 10.4278 14.6119 10.2935C14.7114 10.1642 14.8308 10.0647 14.9751 9.99999C15.0647 9.98506 15.1343 10.0298 15.1841 10.1293C15.2338 10.2338 15.2637 10.2885 15.2736 10.2985V10.2935ZM8.77612 6.82089C8.77612 7.00995 8.77115 7.12935 8.75622 7.17412C8.74627 7.2189 8.71144 7.27363 8.65672 7.33333C8.64677 7.42288 8.58707 7.46269 8.46766 7.46269C8.41294 7.46269 8.36816 7.44776 8.33831 7.41293C8.27363 7.34328 8.22886 7.26368 8.20896 7.1791C8.18408 7.09452 8.17413 7.00497 8.17413 6.91044C8.17413 6.76616 8.21393 6.59203 8.29353 6.38308C8.29353 6.37313 8.36318 6.21392 8.50746 5.89551C8.51741 5.97511 8.49751 6.07462 8.45771 6.19402C8.36318 6.4975 8.31343 6.68159 8.31343 6.74129C8.31343 6.88557 8.37811 7.00497 8.50249 7.0995C8.58209 7.11442 8.64179 7.07463 8.67662 6.9801C8.71144 6.88557 8.74627 6.83083 8.77612 6.81093V6.82089ZM2.93532 0.920386C2.92537 0.999988 2.91542 1.06467 2.90547 1.10944C2.89552 1.15919 2.8607 1.199 2.80597 1.2388C2.73632 1.18407 2.65672 1.15422 2.57711 1.15422C2.54726 1.15422 2.51244 1.16418 2.48259 1.1791C2.35323 1.70647 2.23383 2.22387 2.11443 2.74128C2.07463 2.70148 1.9602 2.47263 1.76617 2.05969C1.63184 1.76616 1.43781 1.61692 1.19403 1.61692C1.12438 1.56716 1.08458 1.50249 1.08458 1.41293C1.08458 1.36318 1.10448 1.29352 1.1393 1.20397C1.17413 1.11442 1.19403 1.04477 1.19403 1.00497C1.22388 0.965169 1.26368 0.945271 1.30348 0.945271C1.34328 0.945271 1.40796 0.975123 1.49254 1.0398C1.61194 1.17413 1.72637 1.36815 1.8408 1.62686C1.93035 1.83582 2.0199 2.03482 2.11443 2.23383C2.16418 1.98009 2.20896 1.72139 2.25871 1.45771C2.32836 1.16418 2.44776 0.940297 2.61692 0.791043C2.74627 0.766167 2.85075 0.805964 2.9403 0.910441L2.93532 0.920386ZM4.78607 3.27363C4.69652 3.48756 4.64179 3.62189 4.61692 3.68159C4.49751 3.94527 4.36318 4.14925 4.20896 4.28856V4.1194C4.11443 4.10448 4.01493 4.13929 3.91542 4.23382C3.81592 4.32337 3.72139 4.41293 3.63682 4.50248C3.68657 4.65174 3.87065 4.73133 4.19901 4.73133C4.52736 4.73133 4.68657 4.80098 4.68657 4.94526C4.68657 5.01491 4.66169 5.11442 4.61692 5.23383C4.44279 5.52238 4.30846 5.73631 4.20896 5.88059C4.03483 6.13432 3.85075 6.3184 3.66169 6.42785C3.53234 6.42785 3.34826 6.46766 3.10448 6.54229C2.8607 6.61691 2.68657 6.6567 2.57214 6.6567C2.52239 6.64675 2.48259 6.64676 2.45274 6.64676C2.79602 6.51243 3.08458 6.3781 3.32338 6.25372C3.61194 6.10447 3.87562 5.91541 4.12438 5.69153C4.0597 5.62685 3.89055 5.59203 3.61194 5.58208C3.33333 5.57213 3.15423 5.49252 3.07463 5.33332C3.16915 4.88556 3.37811 4.4577 3.70149 4.04974C4.02488 3.64178 4.38309 3.38308 4.7811 3.27861L4.78607 3.27363ZM2.45771 4.73133C2.42786 4.87561 2.39303 4.98507 2.36318 5.06467C2.30846 5.19403 2.23383 5.29353 2.14925 5.36318C2.0796 5.36318 2.00995 5.32337 1.94527 5.24377C1.91542 5.20397 1.89055 5.1592 1.8806 5.11443C1.87065 5.06468 1.8607 4.99501 1.8607 4.90049C1.8607 4.72636 1.88557 4.56716 1.93035 4.42288C1.9801 4.2786 2.04975 4.10945 2.14428 3.91044C2.14428 3.96019 2.12438 4.07462 2.0796 4.26367C2.03483 4.45273 2.01493 4.57711 2.01493 4.64178C2.01493 4.81591 2.0796 4.95025 2.20398 5.03482C2.22886 5.0199 2.26368 4.97014 2.30348 4.88556C2.34826 4.80098 2.39801 4.75124 2.45274 4.73631L2.45771 4.73133ZM5.39304 6.88059C5.39304 6.88059 5.35323 6.97015 5.32836 7.08457C5.29851 7.19403 5.26368 7.25373 5.21393 7.25373C5.17413 7.25373 5.13433 7.2388 5.09453 7.20397C4.90547 7.20397 4.7811 7.38308 4.72637 7.73631C4.67164 8.08955 4.61692 8.30348 4.55721 8.37313C4.47761 8.28358 4.40299 8.16417 4.33831 8.00994C4.26866 7.85571 4.20896 7.70646 4.15423 7.56218C4.12438 7.56218 4.07463 7.58209 4.00498 7.61692C3.93532 7.65174 3.8806 7.66169 3.83085 7.64676C3.77612 7.58209 3.74627 7.50248 3.74627 7.40795C3.74627 7.32835 3.76119 7.25372 3.78607 7.18905C3.81592 7.11939 3.85572 7.04974 3.91045 6.97014C4.0995 6.97014 4.23881 7.09453 4.32836 7.33831C4.46269 7.69652 4.55224 7.90048 4.59204 7.94526C4.61692 7.89053 4.65174 7.67661 4.70647 7.31342C4.75622 6.94527 4.87562 6.76616 5.0597 6.76616C5.15423 6.76616 5.26866 6.80597 5.39304 6.88557V6.88059ZM17.5124 2.97512L17.4876 3.18904C17.3134 3.06964 17.209 2.99502 17.1791 2.96019C17.1244 2.90546 17.0746 2.84577 17.0348 2.78109C17.0348 2.74129 17.0647 2.71143 17.1194 2.69651C17.1741 2.68158 17.209 2.66169 17.2289 2.63681C17.3234 2.61193 17.398 2.62686 17.4428 2.67164C17.4925 2.72139 17.5124 2.82088 17.5124 2.97013V2.97512ZM17.7413 9.42287C17.6915 9.48755 17.6418 9.52735 17.5821 9.54725C17.5224 9.56715 17.4428 9.57712 17.3483 9.57712C17.2289 9.57712 17.1343 9.56219 17.0597 9.52736C16.8905 9.46268 16.7413 9.37312 16.607 9.25372C16.4726 9.13432 16.3831 8.99502 16.3433 8.83581C16.5025 8.74626 16.6866 8.70647 16.8905 8.70647C17.1841 8.70647 17.4129 8.79105 17.5721 8.95522C17.7164 9.06468 17.7711 9.22387 17.7413 9.42287ZM14.995 10.4876L14.7811 10.3781C14.8308 10.3383 14.8706 10.3383 14.9104 10.3781L14.995 10.4876Z" fill="white"/>
</svg>
