<svg width="20" height="16" viewBox="0 0 20 16" fill="none" xmlns="http://www.w3.org/2000/svg">
<path fill-rule="evenodd" clip-rule="evenodd" d="M12.9412 0.938198L12.8667 1.29561C12.8071 1.31794 12.7327 1.29561 12.6359 1.24348C12.5391 1.18392 12.4646 1.16158 12.4051 1.16902C12.271 1.32539 12.1891 1.63068 12.1519 2.07744C12.1147 2.53165 12.0179 2.82949 11.8466 2.97096C11.787 2.91139 11.6605 2.65823 11.4743 2.21891C11.3403 1.89873 11.1318 1.72748 10.8488 1.69769C10.7669 1.63812 10.7223 1.54133 10.7223 1.41474C10.7223 1.34028 10.7372 1.25838 10.7669 1.15413C10.7967 1.04989 10.8116 0.99032 10.8116 0.967982C11.0722 1.04989 11.2807 1.24348 11.4371 1.54877C11.5934 1.85406 11.7424 2.14445 11.8838 2.41251C11.8987 2.39017 11.9583 2.08488 12.0625 1.5041C12.137 1.10946 12.2859 0.8414 12.5242 0.699925C12.5838 0.714818 12.6582 0.744602 12.7476 0.80417C12.8369 0.863738 12.8965 0.908414 12.9337 0.930752L12.9412 0.938198ZM8.07893 2.86672C7.91512 2.94862 7.7662 2.97096 7.64706 2.91884L7.52048 2.81459C7.43857 2.94862 7.37156 3.03797 7.32688 3.09754C7.2822 3.15711 7.21519 3.20179 7.13328 3.22412C7.05138 3.24646 6.96202 3.23902 6.87267 3.19434C6.78332 3.14966 6.68652 3.06031 6.57483 2.91884C6.57483 2.57632 6.58228 2.30826 6.60462 2.12956C6.62695 1.95086 6.69397 1.76471 6.8131 1.57856C6.83544 1.65302 6.83544 1.74237 6.8131 1.8615C6.75354 2.20402 6.72375 2.38273 6.72375 2.39762C6.72375 2.57632 6.80566 2.71035 6.97692 2.80715C7.05882 2.82949 7.13328 2.82949 7.19285 2.7997C7.25242 2.76992 7.31943 2.7178 7.38645 2.65078C7.40879 2.54654 7.40879 2.40506 7.379 2.24125C7.34922 2.07744 7.33433 1.97319 7.33433 1.93596C7.33433 1.80194 7.379 1.69769 7.46091 1.61579C7.49814 1.67535 7.52048 1.85406 7.53537 2.15934C7.55026 2.46463 7.69918 2.59866 7.98213 2.56143C8.00447 2.50186 8.00447 2.4274 7.98213 2.3306C7.90022 2.04765 7.85555 1.89873 7.85555 1.88384C7.85555 1.78704 7.90022 1.69769 7.98213 1.61579C8.1236 1.85406 8.19806 2.10722 8.19806 2.38273C8.19806 2.53909 8.16083 2.69546 8.09382 2.86672H8.07893ZM16.4036 12.2115C16.344 12.4051 16.2621 12.5838 16.1504 12.755C16.0462 12.9263 15.9121 13.0603 15.7558 13.1571C15.7111 13.0529 15.5398 12.9337 15.2494 12.7997C14.959 12.6657 14.8101 12.5465 14.8101 12.4274C14.8101 12.3306 14.8771 12.2189 15.0037 12.0849C15.1005 11.9434 15.1824 11.8317 15.2569 11.7647C15.376 11.6456 15.4877 11.586 15.5994 11.586C15.7185 11.586 15.8228 11.653 15.9196 11.7796C16.1132 11.9136 16.2323 11.9955 16.277 12.0402C16.3217 12.0849 16.3663 12.137 16.4036 12.2115ZM19.9777 8.33209C19.8958 8.29486 19.7692 8.27997 19.5905 8.27997C19.4118 8.27997 19.2926 8.26508 19.2256 8.22785L18.7044 2.45719L18.831 2.41996C18.9501 2.43485 19.0469 2.50931 19.1139 2.65823C19.1884 2.80715 19.2331 2.8965 19.2554 2.91884C19.2554 2.51675 19.1512 2.02532 18.9352 1.45197C18.7416 0.997766 18.5629 0.543559 18.3842 0.0967982C18.3693 0.134028 18.2725 0.290395 18.0789 0.580789C17.9449 0.781832 17.8853 0.95309 17.8853 1.10201C17.8853 1.25093 17.9375 1.37751 18.0491 1.49665L18.6746 8.25019C18.1236 8.25019 17.5503 8.17573 16.9397 8.03425C16.7163 7.97468 16.1653 7.81832 15.2941 7.5726C15.3909 7.2971 15.4505 7.06627 15.4803 6.86523C15.5101 6.67163 15.5249 6.40357 15.5249 6.0685C15.5249 5.73343 15.4877 5.27923 15.4207 4.72822C15.2643 3.55175 15.1899 2.81459 15.1899 2.53165C15.1899 2.45719 15.1899 2.36783 15.1973 2.2487C15.1973 2.12956 15.2122 2.01787 15.2271 1.90618L15.8377 2.56888C15.86 2.49442 15.8749 2.39017 15.8749 2.2487C15.8749 1.92852 15.7632 1.54133 15.5324 1.08712C15.3313 0.72971 15.1303 0.364855 14.9442 0C14.8101 0.134028 14.7059 0.282949 14.624 0.461653C14.6016 0.506329 14.5346 0.670141 14.4304 0.945644C14.6463 2.94862 14.8622 4.94415 15.0707 6.93224C14.7133 7.05138 14.3857 7.11839 14.0804 7.14073C13.7751 7.15562 13.4773 7.17051 13.1794 7.17051C12.9784 7.17051 12.7774 7.17051 12.5838 7.16307C12.3902 7.16307 12.1891 7.15562 11.9881 7.15562C11.9062 7.39389 11.8243 7.62472 11.7349 7.85555C11.6977 7.99702 11.6902 8.1385 11.6977 8.26508C12.338 8.26508 12.9635 8.32465 13.5592 8.43634C14.1549 8.54803 14.7729 8.70439 15.4207 8.89054C14.9442 9.09159 14.4751 9.29263 14.006 9.47878C13.0752 9.85108 12.2561 10.0298 11.5413 10.0298C11.3477 10.0298 11.1541 10.0223 10.9456 10C10.7372 9.98511 10.4989 9.84363 10.2234 9.58302C9.94788 9.32241 9.78406 9.03202 9.7245 8.72673L9.31497 9.81385C9.32986 9.87342 9.41921 10.1266 9.58302 10.5659C9.70216 10.8861 9.76173 11.1541 9.76173 11.3701C9.06925 12.003 8.27997 12.5242 7.38645 12.9412C6.68652 13.2614 5.80045 13.5666 4.74311 13.8496C4.46016 13.8868 4.16977 13.9017 3.88682 13.9017C3.30603 13.9017 2.76992 13.8124 2.27848 13.6411C1.78704 13.4698 1.37007 13.1869 1.01266 12.7923C0.796724 12.5689 0.65525 12.3529 0.573344 12.1519C0.498883 11.9509 0.454207 11.7126 0.454207 11.4371C0.454207 11.0201 0.58079 10.5063 0.826508 9.9032C0.960537 9.56813 1.15413 9.09903 1.41474 8.48846C1.45942 8.48846 1.52643 8.50335 1.60834 8.52569C1.69025 8.54803 1.75726 8.54803 1.80194 8.52569C2.00298 8.36932 2.15935 8.17573 2.25614 7.93745C2.36039 7.69918 2.40506 7.44602 2.40506 7.18541C2.40506 7.14073 2.40506 7.05882 2.39017 6.95458L2.35294 7.02904C2.29337 7.14818 2.22636 7.25242 2.14445 7.33433C2.06999 7.41623 1.98064 7.44602 1.88384 7.42368C1.70514 7.24497 1.57856 7.05882 1.51154 6.87267C1.43708 6.67908 1.4073 6.47803 1.4073 6.2621C1.4073 5.92703 1.51899 5.49516 1.74981 4.95905C1.92852 4.55696 2.11467 4.14743 2.30082 3.74535C1.89873 4.29635 1.57856 4.83246 1.35517 5.35369C1.07967 5.9866 0.945644 6.58972 0.945644 7.17796C0.945644 7.60983 1.0201 8.01936 1.17647 8.414C0.833954 9.12882 0.506329 9.92554 0.193597 10.8116C0.119136 11.0871 0.0744598 11.3328 0.0446757 11.5413C0.0148916 11.7573 0 11.9732 0 12.1817C0 12.5838 0.0744603 12.9635 0.223381 13.306C0.372301 13.6485 0.618019 13.9464 0.967982 14.1847C1.36262 14.4825 1.77215 14.6984 2.21147 14.8399C2.64334 14.9739 3.10499 15.0484 3.58153 15.0484C4.39315 15.0484 5.30156 14.8399 6.31422 14.4229C7.08861 14.1028 7.90767 13.6634 8.76396 13.1199C9.1586 12.9188 9.48622 12.5987 9.74683 12.1519C9.94043 11.7573 10.1266 11.3626 10.3202 10.9754C10.5733 11.0201 10.8488 11.0499 11.1616 11.0499C11.5934 11.0499 12.0402 10.9903 12.5168 10.8786C12.9933 10.7669 13.6634 10.5287 14.5197 10.1713C15.1973 9.89575 15.7409 9.70216 16.143 9.58302C16.761 9.40432 17.3343 9.31497 17.8555 9.31497C18.1906 9.31497 18.4959 9.3373 18.764 9.38943C18.8235 9.58302 18.8533 9.81385 18.8533 10.0894C18.8533 10.1266 18.8533 10.2532 18.8384 10.484C18.8235 10.7074 18.8235 10.9159 18.8235 11.0946C18.8235 11.1392 18.8235 11.2137 18.831 11.3179C18.831 11.4222 18.8459 11.5041 18.8608 11.5786C19.0022 11.1616 19.1139 10.7074 19.1809 10.2234C19.2182 9.94788 19.2554 9.67237 19.2852 9.40432C19.449 9.34475 19.5979 9.20328 19.7319 8.97245C19.7766 8.89799 19.866 8.70439 20 8.38421L19.9777 8.33209ZM4.48995 0.387193L4.3857 0.707372C4.34103 0.707372 4.28891 0.692479 4.24423 0.670141C4.12509 0.610573 4.05063 0.580789 4.0134 0.580789C3.9166 0.722264 3.85704 0.997766 3.8347 1.41474C3.81236 1.82427 3.7379 2.10722 3.61876 2.26359C3.5443 2.18913 3.41027 1.94341 3.20923 1.51154C3.05287 1.17647 2.83693 1.01266 2.56888 1.01266C2.50931 0.967982 2.47952 0.908414 2.47952 0.833954C2.57632 0.610573 2.621 0.446761 2.621 0.349963C2.64334 0.327625 2.68801 0.305287 2.75503 0.297841C2.82204 0.282949 2.86672 0.297841 2.88905 0.312733C3.02308 0.446761 3.12733 0.595681 3.20923 0.759494C3.34326 1.04244 3.47729 1.33284 3.61876 1.61579C3.65599 1.49665 3.69322 1.27327 3.74535 0.938198C3.79002 0.603127 3.87937 0.357409 4.0134 0.18615C4.23678 0.208488 4.40059 0.275503 4.49739 0.379747L4.48995 0.387193ZM17.9672 12.8444C17.6843 12.9188 17.379 13.0082 17.0663 13.1199C16.7535 13.2316 16.4408 13.3433 16.143 13.4475C15.9643 13.5517 15.4728 13.723 14.6761 13.9464C14.0655 14.1102 13.6709 14.3559 13.4773 14.6761L17.662 13.1943C17.7587 13.1497 17.8407 13.0901 17.9002 13.0231C17.9672 12.9561 17.9896 12.8965 17.9598 12.8369L17.9672 12.8444ZM8.39166 8.1236C8.43634 8.45867 8.35443 8.74907 8.1385 9.00223C8.06404 9.01713 8.00447 8.99479 7.95235 8.94267C7.90022 8.89054 7.86299 8.82353 7.8481 8.75652C7.83321 8.68205 7.81832 8.57781 7.81832 8.43634C7.81832 8.2204 7.8481 8.02681 7.90022 7.85555C7.95235 7.68429 8.0417 7.53537 8.16083 7.41623C8.10126 7.53537 8.05659 7.64706 8.02681 7.75875C7.99702 7.86299 7.98213 7.98213 7.98213 8.11616C7.98213 8.3172 8.0417 8.48846 8.16083 8.61504L8.39166 8.13105V8.1236ZM6.46314 6.33656C6.28444 6.64929 6.11318 6.95458 5.94192 7.26731C5.89724 7.18541 5.73343 7.07372 5.46538 6.9248C5.19732 6.77587 5.06329 6.64185 5.06329 6.51526L5.10052 6.37379L5.62174 5.65897C5.99404 5.85257 6.18764 5.95681 6.20998 5.97915C6.32911 6.07595 6.41102 6.19509 6.46314 6.33656ZM13.3582 13.0752C12.8816 13.455 12.5093 13.7081 12.2338 13.8347C11.9583 13.9613 11.6902 14.0208 11.4296 14.0208C11.2509 14.0208 11.0722 13.9836 10.8935 13.9166C10.752 13.8347 10.6776 13.7379 10.6776 13.6337C10.6776 13.5517 10.7148 13.455 10.7818 13.3358C10.8563 13.2241 10.9233 13.1124 10.9978 13.0082L11.4594 12.688C11.4147 12.6136 11.3403 12.5763 11.2509 12.5614C11.1616 12.5465 11.0499 12.5465 10.9233 12.5465L10.8488 12.621C10.8042 12.5465 10.8042 12.4721 10.8637 12.3902C10.8861 12.3529 10.9382 12.3157 11.0275 12.2636C11.1095 12.2189 11.2063 12.1891 11.3105 12.1891C11.3924 12.1891 11.4892 12.2115 11.586 12.2487C11.6902 12.2934 11.787 12.3455 11.8838 12.42C11.9062 12.5838 11.7573 12.7625 11.4371 12.9486C11.1169 13.1348 10.9531 13.2614 10.9531 13.3358C10.9531 13.4401 11.0797 13.5517 11.3254 13.656C11.385 13.6709 11.4743 13.6709 11.5934 13.6709C11.8913 13.6709 12.1966 13.6113 12.5019 13.4922C12.6582 13.4326 12.9337 13.2986 13.3433 13.0827L13.3582 13.0752ZM4.24423 8.68205C4.24423 8.86076 4.22189 9.02457 4.18466 9.16605C4.13998 9.30752 4.05808 9.41921 3.92405 9.48622C3.84214 9.50112 3.7379 9.42666 3.61876 9.27029C3.59643 9.18838 3.58153 9.06925 3.58153 8.91288C3.58153 8.5108 3.71556 8.17573 3.97617 7.91512C3.90171 8.07893 3.85704 8.19806 3.8347 8.27252C3.77513 8.42889 3.74535 8.55547 3.74535 8.64482C3.74535 8.71929 3.76024 8.80119 3.79747 8.89799C3.89427 9.03202 3.96128 9.08414 4.0134 9.0618C4.05808 8.965 4.09531 8.8831 4.11765 8.80864C4.13999 8.73418 4.18466 8.69695 4.24423 8.68205Z" fill="white"/>
</svg>
