<svg width="20" height="10" viewBox="0 0 20 10" fill="none" xmlns="http://www.w3.org/2000/svg">
<path fill-rule="evenodd" clip-rule="evenodd" d="M20 2.4606C19.9299 2.42557 19.8555 2.35114 19.7811 2.24169C19.7023 2.12785 19.6366 2.05779 19.5797 2.03152L19.4965 2.18038C19.4965 2.52189 19.5359 2.95534 19.6103 3.47198C19.7855 4.64974 19.873 5.38529 19.873 5.67863C19.873 6.13398 19.8424 6.54553 19.7767 6.90893C19.7154 7.27233 19.5928 7.61822 19.4089 7.95096C19.4527 7.79772 19.4834 7.60946 19.5053 7.39492C19.5271 7.17601 19.5359 6.97023 19.5359 6.77321C19.5359 6.52802 19.5359 6.34413 19.5271 6.22592C19.5053 6.07268 19.4965 5.95884 19.4965 5.88879L19.0849 1.79947C19.0937 1.76445 19.0937 1.70753 19.0937 1.6331C19.0937 1.54991 19.0806 1.4317 19.0499 1.27408C19.0236 1.12084 19.0061 1.007 19.0061 0.936952C19.0061 0.823117 19.0236 0.731176 19.0543 0.652367C19.0849 0.573558 19.155 0.490369 19.2601 0.398425C19.5053 1.08582 19.7504 1.77321 19.9956 2.45622L20 2.4606ZM18.7697 2.24169C18.6865 2.39493 18.5595 2.52189 18.3932 2.61821C18.2881 2.68826 18.1086 2.77583 17.8503 2.88529C17.5963 2.99474 17.4081 3.08669 17.2898 3.1655C17.3249 3.08669 17.373 3.01664 17.4387 2.95534C17.5044 2.89405 17.5701 2.83713 17.6489 2.78897C17.662 2.78021 17.9028 2.67514 18.3625 2.47373C18.5289 2.39493 18.669 2.32049 18.7741 2.24169H18.7697ZM15.5736 2.76708C15.5604 2.92032 15.521 3.0648 15.4641 3.19177C15.4028 3.32312 15.324 3.44571 15.2277 3.56392C15.3897 3.36252 15.4685 3.09982 15.4685 2.77583C15.4685 2.62259 15.4553 2.48687 15.4334 2.37741C15.4072 2.26358 15.3634 2.13223 15.3021 1.97899C15.2452 1.8958 15.2102 1.84326 15.197 1.82137C15.162 1.76007 15.1445 1.69439 15.1445 1.6331C15.1445 1.57618 15.1751 1.51927 15.2408 1.45359C15.3546 1.58494 15.4378 1.74694 15.4991 1.93082C15.5604 2.11471 15.5867 2.31174 15.5867 2.51314C15.5867 2.62697 15.5867 2.71016 15.5779 2.76708H15.5736ZM18.8091 6.15149C18.669 6.0683 18.5026 6.02452 18.3144 6.02452C18.1743 6.02452 18.0254 6.04641 17.8678 6.08582C17.7102 6.12522 17.5525 6.18214 17.3905 6.24344C17.1366 4.74606 16.8914 3.23993 16.6462 1.7338L16.7207 1.63748L17.1716 2.11034C16.9177 1.47111 16.6681 0.836251 16.4142 0.197021C16.3179 0.258317 16.2391 0.359024 16.1821 0.490372C16.1559 0.560425 16.1121 0.683015 16.0552 0.858147C16.169 1.33538 16.2785 1.94396 16.3923 2.68827C16.4842 3.30998 16.5806 3.9711 16.6813 4.66725C16.782 5.3634 16.8827 5.94571 16.979 6.40543C16.7557 6.55867 16.5455 6.67251 16.3529 6.74694C16.1602 6.82137 15.9501 6.85639 15.7268 6.85639C15.6305 6.85639 15.556 6.85639 15.5079 6.84764C15.2758 6.76883 15.0919 6.61997 14.9518 6.39667L14.7504 5.81874C14.6935 5.34151 14.6278 4.67601 14.5578 3.81786C14.4834 2.95972 14.4221 2.32049 14.3739 1.90017C14.282 1.13835 14.1725 0.503503 14.0499 0C13.9886 0.0569177 13.9273 0.148866 13.8704 0.284592C13.8441 0.354645 13.796 0.464098 13.7347 0.608581C13.9098 1.35727 14.0499 2.23292 14.155 3.23555C14.2338 4.1331 14.3126 5.03065 14.3958 5.92382C14.479 6.43608 14.5315 6.72505 14.5534 6.7951C14.6454 7.11033 14.8074 7.338 15.0482 7.47811C15.1401 7.51314 15.2102 7.53503 15.2583 7.54816C15.3065 7.55692 15.394 7.56567 15.521 7.56567C15.718 7.56567 15.9238 7.52627 16.1427 7.45184C16.2828 7.40368 16.5937 7.25044 17.0797 6.98774C17.1497 7.12785 17.1935 7.21541 17.2067 7.25482C17.2198 7.29422 17.2373 7.34676 17.2592 7.41681C17.3511 7.6007 17.4694 7.75394 17.6095 7.88091C17.7539 8.00788 17.9116 8.06918 18.0867 8.06918C18.2968 8.06918 18.4588 7.97286 18.5683 7.77584C18.6165 7.67951 18.7128 7.50438 18.8529 7.25044C18.958 7.03152 19.0105 6.83888 19.0105 6.66375C19.0105 6.56743 18.9974 6.47548 18.9667 6.39667C18.9405 6.31786 18.8879 6.23468 18.8091 6.15149ZM12.789 1.07706C12.7671 1.21717 12.7539 1.29597 12.7452 1.30911C12.7102 1.41419 12.6532 1.493 12.5788 1.54116C12.5088 1.52802 12.4475 1.50613 12.3993 1.4711C12.3511 1.44046 12.3249 1.38792 12.3249 1.31787C12.3249 1.16463 12.3643 0.993871 12.4387 0.801227C12.5088 0.669878 12.5525 0.569178 12.5744 0.507882C12.5744 0.556044 12.5525 0.639232 12.5131 0.761824C12.4694 0.880037 12.4518 0.971979 12.4518 1.03328C12.4518 1.13835 12.4956 1.21716 12.5788 1.27408C12.6357 1.28284 12.6795 1.25219 12.7145 1.18652C12.7496 1.12084 12.7758 1.08144 12.789 1.07706ZM15.9501 5.03941C15.9282 5.13135 15.9063 5.22329 15.8757 5.31086C15.8494 5.4028 15.7968 5.46847 15.7268 5.51226C15.6699 5.53853 15.6217 5.53853 15.5867 5.50351C15.5473 5.46848 15.5166 5.41594 15.486 5.34589C15.4729 5.27583 15.4641 5.21891 15.4641 5.17951C15.4641 5.07443 15.486 4.96497 15.5254 4.85552C15.5867 4.72417 15.6305 4.62347 15.6524 4.56217C15.6261 4.71541 15.5954 4.86865 15.5692 5.02627C15.5692 5.08319 15.5779 5.13135 15.5911 5.16638C15.6042 5.20578 15.6349 5.24081 15.6874 5.27583C15.7837 5.27583 15.8581 5.19702 15.9063 5.04378H15.9501V5.03941ZM10.718 1.42294C10.6918 1.48424 10.6567 1.51926 10.6217 1.51926C10.5998 1.51926 10.5648 1.50175 10.5166 1.46235C10.4685 1.42294 10.4291 1.40981 10.4028 1.41418C10.289 1.70315 10.0876 1.97899 9.79422 2.24606C8.95359 2.99475 8.51138 3.40193 8.47198 3.46322C9.08056 2.74956 9.68914 2.03591 10.3021 1.31787C10.1883 1.26095 10.1095 1.22154 10.0613 1.19089C9.96497 1.13398 9.8993 1.06831 9.87303 0.989496C9.94308 0.735556 10.0876 0.577935 10.3021 0.507882C10.3503 0.499126 10.394 0.516642 10.4291 0.551668C10.4641 0.586694 10.4947 0.634852 10.5166 0.69177C10.5429 0.753066 10.5517 0.823121 10.5517 0.906308C10.5517 0.985117 10.5385 1.03765 10.5079 1.07268C10.5166 1.08581 10.5692 1.13835 10.6655 1.2303C10.7356 1.29159 10.7531 1.35727 10.718 1.41857V1.42294ZM17.0665 8.11734C17.0665 8.11734 17.0884 8.17426 17.0884 8.22242C17.0884 8.27058 17.0753 8.32312 17.0447 8.37566C17.0184 8.4282 16.9877 8.48073 16.9615 8.52889C16.8214 8.507 16.6813 8.48949 16.5412 8.47636C16.3573 8.72154 16.0858 8.91419 15.7224 9.05429C15.2802 9.18564 14.9606 9.29072 14.7548 9.36953C14.8336 9.31261 15.1313 9.17251 15.648 8.94921C16.0245 8.78284 16.2828 8.59019 16.4142 8.38003C16.4623 8.29685 16.5061 8.19615 16.5412 8.07356C16.5762 7.95534 16.6594 7.87215 16.7951 7.81961C16.8564 7.83275 16.9046 7.85464 16.9308 7.88091C16.9571 7.90718 17.0053 7.98599 17.0665 8.11296V8.11734ZM8.4282 1.22592C8.45447 1.28284 8.44571 1.35289 8.39317 1.43608C8.34063 1.51926 8.30998 1.58494 8.3056 1.62435C8.25744 1.67251 8.20928 1.69878 8.15674 1.69878C8.14361 1.69878 8.11296 1.68564 8.07355 1.65499C8.01664 1.57618 7.99037 1.49299 7.99037 1.40105C7.99037 1.30911 8.01664 1.21278 8.0648 1.10771C8.14361 0.980735 8.19615 0.888793 8.22242 0.836254C8.22242 0.880037 8.2049 0.950089 8.16988 1.05517C8.13485 1.16025 8.11734 1.22592 8.11734 1.25657C8.11734 1.33538 8.15236 1.40105 8.22242 1.45797C8.2662 1.44921 8.30998 1.40543 8.35814 1.32224C8.38441 1.27408 8.41068 1.24343 8.43257 1.22592H8.4282ZM13.9229 7.38179C13.634 7.61821 13.4457 7.76708 13.3538 7.824C13.1305 7.9641 12.9072 8.03415 12.6795 8.03415C12.6226 8.03415 12.5306 8.02102 12.4081 7.99037C12.338 7.94658 12.303 7.87653 12.303 7.77145C12.303 7.71016 12.3161 7.65762 12.3468 7.62259L12.6007 7.25482C12.5657 7.24168 12.5394 7.22855 12.5175 7.21103C12.4956 7.1979 12.4562 7.1585 12.3905 7.0972C12.4037 7.00526 12.4343 6.92645 12.4869 6.85639C12.5657 6.75132 12.6795 6.66813 12.8328 6.60245C12.9028 6.62434 12.9378 6.67688 12.9378 6.76007C12.9378 6.80823 12.9203 6.85201 12.8853 6.88704C12.8634 6.9352 12.8415 6.96147 12.8109 6.96147C12.732 6.90018 12.6883 6.86515 12.6751 6.85639C12.662 6.88266 12.6489 6.91331 12.6445 6.93958C12.6708 7.03153 12.732 7.07531 12.824 7.07531C12.8809 7.07531 12.9553 7.05342 13.0429 7.01401C13.1349 6.97023 13.183 6.95272 13.1918 6.95272V6.9965C13.1699 7.04028 13.1436 7.09282 13.1086 7.15411C12.9247 7.2373 12.7933 7.30298 12.7102 7.35552C12.5569 7.44746 12.4869 7.56129 12.5 7.7014C12.5963 7.7627 12.7189 7.79772 12.859 7.79772C13.0123 7.79772 13.183 7.74956 13.3669 7.64886C13.5508 7.55254 13.7303 7.45622 13.8967 7.36428L13.9273 7.38617L13.9229 7.38179ZM5.98074 1.3704C5.93257 1.53678 5.90193 1.62872 5.89755 1.64186C5.87128 1.69002 5.8275 1.72943 5.77058 1.7557C5.67426 1.76883 5.6042 1.71191 5.56042 1.57618C5.59545 1.32224 5.61734 1.18652 5.62172 1.16463C5.65674 1.03328 5.71366 0.901928 5.78809 0.774958C5.79685 0.823119 5.77933 0.910683 5.73993 1.03328C5.70053 1.15587 5.68301 1.24343 5.68301 1.29159C5.68301 1.39667 5.7268 1.47548 5.80998 1.5324L5.97636 1.36603L5.98074 1.3704ZM13.6296 8.24431C13.0123 8.48949 12.6751 8.62084 12.6226 8.64273C12.3905 8.71279 12.1804 8.74781 11.9921 8.74781C11.725 8.74781 11.4886 8.68214 11.2785 8.54641C11.2785 8.3275 11.4142 8.14799 11.69 7.99913C12.0053 7.82399 12.1935 7.67951 12.2592 7.57006C12.2154 7.57881 12.176 7.58757 12.1366 7.60508C12.0972 7.6226 12.049 7.64448 11.9965 7.67513C11.9615 7.7014 11.9177 7.71892 11.8608 7.71892C11.8257 7.71892 11.7732 7.71016 11.7032 7.68826C11.6331 7.66637 11.5718 7.64448 11.5236 7.62697C11.5105 7.60508 11.5236 7.57443 11.5543 7.5394C11.5893 7.5 11.62 7.48249 11.6506 7.48249C11.7119 7.51751 11.782 7.54816 11.852 7.57881C11.8608 7.55692 11.8827 7.52627 11.9221 7.49124C11.9615 7.45622 11.979 7.42119 11.979 7.39054C11.9308 7.30736 11.8739 7.26357 11.8126 7.26357C11.7557 7.26357 11.6813 7.30736 11.5806 7.3993C11.5193 7.46936 11.4536 7.53503 11.3923 7.6007C11.3354 7.63573 11.3091 7.67514 11.3091 7.71454C11.3091 7.75394 11.3398 7.80648 11.4054 7.8634C11.4492 7.89843 11.493 7.92908 11.5412 7.95972C11.4492 8.04291 11.3923 8.1042 11.3616 8.13923C11.2697 8.24431 11.1996 8.35815 11.1515 8.48512C11.1427 8.51139 11.1384 8.54203 11.1296 8.57268C11.1208 8.60333 11.1208 8.63398 11.1208 8.66024C11.1208 8.70403 11.1296 8.74343 11.1427 8.78284C11.1559 8.82224 11.1821 8.85289 11.2172 8.88354C11.4054 8.95359 11.6068 8.98862 11.817 8.98862C12.1322 8.98862 12.4475 8.91856 12.7583 8.78284C13.0692 8.64711 13.3669 8.4676 13.6471 8.25307L13.6296 8.24431ZM3.57268 0.687394C3.58144 0.744311 3.57706 0.796851 3.5683 0.845012C3.55954 0.893173 3.53765 0.941333 3.51138 0.993872C3.43257 0.880037 3.33625 0.840629 3.21804 0.866898C3.12172 1.23905 3.02539 1.61121 2.93345 1.97899C2.88967 1.94396 2.81086 1.77758 2.69264 1.48424C2.6007 1.26532 2.45184 1.17338 2.24168 1.19965C2.21979 1.17338 2.21103 1.12522 2.21103 1.06393C2.21103 1.00701 2.21979 0.958843 2.23292 0.91506C2.24606 0.871277 2.26357 0.836251 2.28109 0.805603C2.2986 0.774955 2.32925 0.757441 2.36865 0.757441C2.39054 0.757441 2.42995 0.766199 2.48249 0.779334C2.5613 0.858143 2.63573 0.971978 2.71016 1.12084C2.78459 1.2697 2.86778 1.43608 2.95534 1.61996C2.96848 1.57618 3.00788 1.40105 3.06918 1.08581C3.11296 0.86252 3.17863 0.69177 3.27058 0.582313C3.34939 0.582313 3.41068 0.586695 3.46322 0.599829C3.51576 0.608586 3.55079 0.639233 3.57268 0.687394ZM4.38266 2.67513C4.3345 2.78021 4.28634 2.88529 4.24694 2.99037C4.19002 3.09545 4.12434 3.19615 4.04553 3.29685C4.00175 3.26182 3.91856 3.21804 3.79159 3.16112C3.58144 3.0648 3.47636 2.95534 3.47636 2.83713L3.82224 2.33363C3.82224 2.33363 3.91856 2.39492 4.0937 2.49124C4.21191 2.5613 4.30823 2.6226 4.37828 2.67951L4.38266 2.67513ZM13.7347 4.38704L13.5026 4.97373C13.3144 5.10508 12.9291 5.31086 12.3468 5.58231C11.9002 5.79247 11.655 5.90631 11.6112 5.9282C11.4142 6.01139 11.1077 6.13398 10.6874 6.29597C10.3284 6.42732 10.0175 6.54553 9.75044 6.64186C9.44396 7.28109 8.98862 7.85027 8.39317 8.34939C7.79772 8.84851 7.16287 9.19878 6.49299 9.3958C6.331 9.43083 6.169 9.44834 6.01138 9.44834C5.85377 9.44834 5.68739 9.42645 5.53853 9.38704C5.38967 9.34326 5.26708 9.27321 5.162 9.16813C5.07005 9.06305 5.00438 8.93608 4.95622 8.78284C4.91243 8.63397 4.88616 8.47198 4.88616 8.3056C4.88616 8.07356 4.92119 7.84589 4.99124 7.62259C4.61471 7.78897 4.20315 7.92908 3.76532 8.04291C3.3275 8.15675 2.90718 8.20928 2.5 8.20928C2.16287 8.20928 1.86077 8.17426 1.59807 8.10858C1.331 8.04291 1.0683 7.92469 0.809982 7.75832C0.551664 7.52627 0.359019 7.30298 0.232049 7.08407C0.0788092 6.81699 0 6.5324 0 6.22154C0.0350263 5.86252 0.100701 5.5254 0.201401 5.2014C0.297723 4.87741 0.437828 4.54904 0.61296 4.21191C0.529772 4.51839 0.464098 4.75919 0.424693 4.92557C0.341506 5.2627 0.297723 5.5254 0.297723 5.71366C0.297723 6.04203 0.389667 6.31786 0.569177 6.5324C0.801226 6.86953 1.09457 7.11471 1.45359 7.26795C1.81261 7.42119 2.20666 7.5 2.64011 7.5C2.87215 7.5 3.10858 7.47811 3.35377 7.43871C4.0324 7.31174 4.66287 7.0972 5.24518 6.79947C5.72679 6.55429 6.29159 6.18214 6.9352 5.68739C6.9352 5.43345 6.8345 4.92557 6.62872 4.16375C6.5324 3.7916 6.47986 3.48074 6.47986 3.2268C6.44483 3.16988 6.42732 3.11734 6.42732 3.06918C6.42732 2.99037 6.46235 2.89404 6.5324 2.77583C6.64623 2.59194 6.69877 2.5 6.69877 2.49124C6.7338 2.54816 6.82137 2.65762 6.96147 2.81524C7.17163 3.06918 7.29422 3.27496 7.32925 3.43696C7.30298 3.45885 7.25919 3.46323 7.1979 3.45885C7.1366 3.45009 7.07969 3.44571 7.02277 3.43696C6.97461 3.43696 6.9352 3.45009 6.90893 3.48073C7.11909 3.94483 7.22417 4.43083 7.22417 4.94309C7.22417 5.40718 7.12785 5.81874 6.93082 6.18214C6.6944 6.41857 6.41419 6.65061 6.09895 6.8739C5.94571 6.97898 5.64361 7.16725 5.19702 7.44308C5.18827 7.5 5.18389 7.55254 5.17951 7.60508C5.17951 7.65762 5.17513 7.71892 5.17513 7.78897C5.17513 7.97724 5.20578 8.14361 5.27145 8.28809C5.33275 8.43258 5.44221 8.54203 5.59545 8.62084C5.81436 8.69965 6.02014 8.73467 6.21716 8.73467C6.5324 8.73467 6.87391 8.64711 7.24606 8.47198C7.40806 8.39317 7.72329 8.21366 8.19177 7.9247C8.40193 7.75832 8.61646 7.58319 8.831 7.40806C9.07618 7.18914 9.24256 6.98336 9.32574 6.78634C9.04553 6.81261 8.76532 6.84326 8.48511 6.86953C8.31874 6.86953 8.17863 6.85201 8.06918 6.82137C7.95972 6.79072 7.85464 6.72067 7.74956 6.61559C7.7014 6.51051 7.67513 6.39668 7.67513 6.26971C7.67513 6.09457 7.73205 5.89755 7.84151 5.68301C7.9028 5.5648 8.02102 5.38529 8.18739 5.14887C8.25744 5.06568 8.3669 5.02189 8.51138 5.02189C8.55954 5.02189 8.60771 5.02189 8.66024 5.03065C8.70841 5.03941 8.75657 5.04379 8.80911 5.05254C8.99737 5.13573 9.16813 5.26708 9.32574 5.44221C9.47898 5.61734 9.59282 5.80998 9.66287 6.02014C9.87303 5.99825 10.0832 5.93258 10.2933 5.81874C10.0219 5.65237 9.81611 5.4247 9.68476 5.14011C9.55342 4.85552 9.48336 4.54904 9.48336 4.22066C9.48336 4.12434 9.48336 4.05429 9.49212 4.01051C9.68914 3.63836 9.97811 3.35377 10.359 3.14799C10.7399 2.94659 11.1515 2.84151 11.5937 2.84151H11.7601C11.8433 2.85464 11.9046 2.8634 11.9396 2.8634C12.1585 2.90718 12.3424 2.95972 12.5 3.02977C12.6576 3.09982 12.8065 3.2049 12.9466 3.34501C12.8284 3.31874 12.6883 3.29685 12.5306 3.28371C12.373 3.27058 12.2154 3.26182 12.0622 3.26182C11.6506 3.26182 11.2653 3.30998 10.9107 3.40193C10.556 3.49825 10.2233 3.64711 9.90806 3.84852C9.90806 4.33888 10.1051 4.7373 10.4947 5.04816C10.5998 5.10508 10.7137 5.14449 10.8363 5.17513C10.9588 5.2014 11.0771 5.21891 11.1865 5.21891C11.4799 5.21891 11.9046 5.07881 12.4562 4.7986C13.0079 4.51839 13.4282 4.37828 13.7172 4.37828L13.7347 4.38704ZM5.42469 4.5753C5.38967 4.58406 5.35464 4.62785 5.32399 4.70666C5.29334 4.78546 5.24518 4.82487 5.18389 4.81611C5.1007 4.75482 5.05692 4.67163 5.05692 4.5753C5.05692 4.52714 5.09194 4.3958 5.162 4.18564C5.18827 4.10245 5.20578 4.03678 5.20578 3.98424C5.1007 4.20753 5.0394 4.34326 5.01751 4.3958C4.9606 4.54466 4.93433 4.68476 4.93433 4.81611C4.95622 4.89492 4.98249 4.95622 5.01751 5.00438C5.05254 5.05254 5.1007 5.07881 5.16638 5.07881C5.25832 5.03503 5.32399 4.96498 5.36778 4.8599C5.38091 4.82487 5.4028 4.72855 5.42907 4.5753H5.42469ZM2.77583 3.33626C2.74956 3.34501 2.71891 3.38004 2.69264 3.44571C2.66637 3.51139 2.63573 3.55079 2.60946 3.56831C2.52627 3.51139 2.48249 3.42382 2.48249 3.30561C2.48249 3.26182 2.5 3.18302 2.53065 3.06918C2.5613 2.95535 2.58319 2.86777 2.58757 2.81086C2.50438 2.93783 2.44308 3.06042 2.40368 3.17864C2.36427 3.29685 2.34676 3.4282 2.34676 3.56831C2.36865 3.64711 2.40368 3.71278 2.45184 3.7697C2.5 3.82662 2.55692 3.83976 2.61821 3.81349C2.67513 3.7303 2.71016 3.66024 2.72767 3.60333C2.74518 3.54641 2.7627 3.45885 2.77583 3.34063V3.33626ZM1.44046 3.23118C1.37916 3.32312 1.31786 3.41068 1.26095 3.49387C1.21278 3.54203 1.14711 3.55955 1.07268 3.54641C0.980735 3.44133 0.923818 3.34063 0.89317 3.24869C0.8669 3.15236 0.849387 3.04729 0.849387 2.92907C1.00263 2.41244 1.16025 1.89142 1.32224 1.37478C1.06392 1.7732 0.880035 2.08844 0.774956 2.32049C0.599825 2.70578 0.512259 3.0648 0.512259 3.40193C0.512259 3.53328 0.525394 3.66462 0.556042 3.7916C0.582312 3.91857 0.634851 4.04554 0.704904 4.18126C0.801226 4.27321 0.910683 4.29948 1.0289 4.26445C1.16025 4.15062 1.2697 4.02802 1.34851 3.88792C1.42732 3.74781 1.4711 3.59895 1.4711 3.44571C1.4711 3.38442 1.46235 3.31436 1.44046 3.23555V3.23118ZM3.35377 5.09195C3.31874 5.05692 3.28371 5.03065 3.24431 5.01752C3.2049 5.00438 3.15674 4.98249 3.09107 4.95622C2.98599 5.04816 2.90718 5.2014 2.85026 5.42032C2.76708 5.74869 2.71891 5.91944 2.71454 5.93695C2.57443 5.64798 2.43433 5.35902 2.29422 5.06568C2.28546 5.05692 2.25919 5.04816 2.21541 5.03503C2.17163 5.02189 2.14098 5.03503 2.12785 5.06568C2.11471 5.09195 2.09282 5.1401 2.05779 5.20578C2.02715 5.27145 2.00963 5.32838 2.00963 5.36778C2.00963 5.4247 2.0359 5.47286 2.08406 5.51664C2.24606 5.50351 2.36427 5.59545 2.44308 5.78809C2.5613 6.08144 2.63135 6.24344 2.65324 6.26971C2.74956 6.17776 2.81961 6.0289 2.85464 5.81874C2.86778 5.70491 2.89842 5.53415 2.93783 5.3021C2.95972 5.24518 2.99037 5.21891 3.03415 5.21891C3.09107 5.21891 3.16988 5.24518 3.27496 5.3021L3.35814 5.09195H3.35377ZM18.5902 7.24606C18.5289 7.30298 18.4413 7.32925 18.3275 7.32925C18.2443 7.32925 18.1611 7.31174 18.0736 7.27671C17.9597 7.21542 17.859 7.14099 17.7627 7.0578C17.6664 6.97461 17.6051 6.88266 17.5701 6.78634C17.6751 6.72504 17.8021 6.69002 17.9466 6.69002C18.1567 6.69002 18.3275 6.73818 18.4632 6.83888C18.5245 6.91769 18.5683 6.98336 18.5902 7.04466C18.6121 7.10595 18.6121 7.17163 18.5902 7.25044V7.24606ZM10.3503 1.01576V0.954469C10.3503 0.849391 10.2977 0.796851 10.1926 0.796851C10.1576 0.796851 10.1313 0.809982 10.1095 0.84063C10.1445 0.888791 10.1839 0.928195 10.2233 0.950087C10.2671 0.976356 10.3065 0.998249 10.3503 1.02014V1.01576ZM16.8958 8.16988C16.852 8.11296 16.7995 8.08669 16.7294 8.08669C16.6681 8.08669 16.6243 8.11734 16.6025 8.18301C16.6462 8.17426 16.69 8.18301 16.7382 8.19177C16.7951 8.21804 16.8345 8.23555 16.852 8.24431L16.8958 8.16988ZM8.9711 6.15149C8.87478 6.02452 8.75657 5.92382 8.62084 5.84063C8.48511 5.76182 8.33625 5.71804 8.17426 5.71804C8.13047 5.74431 8.09545 5.77058 8.0648 5.79247C8.03415 5.81436 8.02102 5.84501 8.02977 5.88879C8.09982 5.99387 8.19177 6.06392 8.30998 6.10333C8.42382 6.14273 8.55954 6.16025 8.71278 6.16025C8.831 6.16025 8.91856 6.16025 8.97548 6.15149H8.9711Z" fill="white"/>
</svg>
