<svg width="20" height="14" viewBox="0 0 20 14" fill="none" xmlns="http://www.w3.org/2000/svg">
<path fill-rule="evenodd" clip-rule="evenodd" d="M19.9942 3.87606C19.9006 3.85852 19.8246 3.78836 19.772 3.66559C19.6785 3.46097 19.6258 3.3499 19.62 3.32651L19.468 3.53697L19.9591 9.52937C19.9591 10.2426 19.7837 10.8974 19.4388 11.4937C19.544 11.0903 19.5908 10.6226 19.5908 10.0906V9.55859C19.5615 9.40659 19.544 9.30137 19.5323 9.23706L18.86 2.88219C18.8951 2.83542 18.9009 2.77696 18.8717 2.70096C18.8424 2.62496 18.8132 2.54896 18.7723 2.46126C18.8366 2.30926 18.9126 2.15142 18.9944 1.97603C19.0763 1.80065 19.1815 1.67201 19.3043 1.57847C19.3803 1.73632 19.4972 2.06957 19.6551 2.57234C19.7135 2.73019 19.7778 2.90557 19.8538 3.09265C19.8831 3.07511 19.9006 3.09265 19.9182 3.15112C19.9298 3.20958 19.9415 3.24466 19.9532 3.2622L19.9415 3.4142H20V3.87606H19.9942ZM14.6624 2.29172C14.6039 2.36772 14.5221 2.4028 14.411 2.4028C14.3759 2.4028 14.3291 2.39111 14.2707 2.37357C14.2239 2.35603 14.1245 2.37942 13.9667 2.44958C13.8147 2.51973 13.6977 2.55481 13.6217 2.55481C13.499 2.55481 13.4054 2.49634 13.3411 2.37357C13.3411 2.15142 13.3645 1.95848 13.4054 1.80064C13.4464 1.64279 13.5341 1.51417 13.6627 1.42063C13.6627 1.44986 13.6451 1.5317 13.6159 1.66617C13.5808 1.80063 13.5691 1.90587 13.5691 1.98187C13.5691 2.04618 13.5808 2.0988 13.5984 2.13388C13.6276 2.15141 13.6685 2.1631 13.727 2.1631C13.8673 2.1631 13.9725 2.10465 14.0485 1.99357C14.031 1.95849 14.0193 1.89417 14.0193 1.81232C14.0193 1.73632 14.031 1.66617 14.0544 1.59601C14.0778 1.52586 14.1128 1.43816 14.1596 1.33878C14.1771 1.36801 14.1888 1.42063 14.1888 1.50832C14.1771 1.6194 14.1771 1.70709 14.1771 1.75971C14.1771 1.91756 14.2531 2.00526 14.3993 2.02865C14.5045 2.02865 14.563 2.0111 14.5805 1.97018C14.5455 1.92341 14.5221 1.85325 14.5221 1.75971C14.5221 1.64863 14.5571 1.53756 14.6331 1.42063C14.7092 1.59017 14.7442 1.75971 14.7442 1.9234C14.7442 2.05202 14.715 2.1748 14.6624 2.28588V2.29172ZM15.1944 0.00583411C15.1593 -0.00585838 15.0892 0.00583839 14.9839 0.0467621L9.23122 2.05202C9.00906 2.15725 8.86291 2.3268 8.7986 2.57234C9.32476 2.33849 9.90938 2.10464 10.5525 1.87079C10.9909 1.71294 11.5873 1.50832 12.3356 1.25109C13.2242 0.952928 13.8205 0.748311 14.1187 0.631386C14.3175 0.555385 14.5279 0.479382 14.7501 0.391688C14.9722 0.303995 15.1242 0.175387 15.2002 0L15.1944 0.00583411ZM14.5513 3.79421C14.3935 4.04559 14.2356 4.29698 14.0894 4.55421C14.0544 4.47821 13.9374 4.39052 13.7387 4.27944C13.5399 4.1742 13.4464 4.06898 13.4464 3.97544C13.4464 3.92867 13.4581 3.87605 13.4873 3.82343L13.9199 3.15112C14.0602 3.24466 14.2005 3.33234 14.3408 3.42004C14.4987 3.54281 14.5688 3.66559 14.5513 3.80006V3.79421ZM12.5285 5.209C12.5753 5.27331 12.5811 5.3493 12.5402 5.43115C12.5051 5.51299 12.4408 5.61824 12.3531 5.73516C12.2654 5.85209 12.166 5.88132 12.0666 5.82871C11.9731 5.70009 11.9263 5.54223 11.9263 5.36685C11.9263 5.21484 11.9614 5.06285 12.0316 4.89916C12.1017 4.73546 12.1836 4.5893 12.2771 4.45483C12.2128 4.70038 12.1485 4.93423 12.0959 5.16808C12.0959 5.30839 12.1543 5.41946 12.2771 5.50715C12.3356 5.49546 12.3823 5.46038 12.4291 5.39607C12.4467 5.37853 12.4817 5.31423 12.5285 5.21484V5.209ZM10.5525 4.91669C10.5642 5.02777 10.5525 5.13884 10.5115 5.23823C10.4355 5.36685 10.3829 5.46039 10.3595 5.51886C10.2835 5.57732 10.1958 5.62993 10.1023 5.68255C10.0029 5.73517 9.91523 5.75854 9.82754 5.75854C9.76907 5.75854 9.70477 5.73515 9.62876 5.68838C9.55276 5.64161 9.50015 5.57147 9.45922 5.48378C9.42414 5.39609 9.40076 5.29669 9.40076 5.1973C9.40076 5.15053 9.4183 5.05115 9.44753 4.8933C9.48261 4.7413 9.56446 4.61268 9.69307 4.50745C9.69307 4.54253 9.68138 4.61853 9.66384 4.72961C9.6463 4.84069 9.63461 4.92838 9.63461 4.98099C9.63461 5.10376 9.66969 5.20315 9.734 5.27331C9.7983 5.34931 9.8743 5.38439 9.95615 5.38439C10.0029 5.38439 10.0614 5.37269 10.1257 5.34346C10.19 5.31423 10.2368 5.29668 10.266 5.28499L10.3245 5.21484C10.3069 5.15638 10.1958 5.03945 10.0029 4.86406C9.92108 4.78806 9.8743 4.72375 9.8743 4.66529C9.8743 4.60098 9.93277 4.52498 10.0438 4.44313C10.1374 4.50159 10.2309 4.56591 10.3245 4.64775C10.418 4.7296 10.494 4.81145 10.5466 4.90499L10.5525 4.91669ZM8.68752 4.22682C8.65244 4.33206 8.61152 4.4373 8.57644 4.54838C8.54136 4.65946 8.4829 4.75298 8.4069 4.82899C8.34259 4.84068 8.28413 4.82315 8.23151 4.78222C8.17889 4.7413 8.12628 4.67699 8.06782 4.59514C8.05612 4.56006 8.05612 4.49575 8.05612 4.41391C8.05612 4.08652 8.1672 3.81175 8.39521 3.58375C8.3309 3.78252 8.26659 3.97544 8.21397 4.17421C8.21397 4.25021 8.2432 4.32621 8.29582 4.39637C8.38936 4.47822 8.45951 4.5016 8.50628 4.45483C8.52382 4.44314 8.54721 4.40222 8.57059 4.32622C8.59398 4.25022 8.6349 4.22098 8.68752 4.22682ZM16.235 12.4233C15.9252 12.739 15.6329 12.9787 15.3522 13.1365C14.9956 13.3411 14.639 13.4464 14.2882 13.4464C14.1011 13.4464 13.9141 13.4113 13.727 13.347C13.6042 13.2827 13.5457 13.1891 13.5457 13.0663C13.5457 12.9728 13.5808 12.8734 13.651 12.774C13.7211 12.6688 13.803 12.5753 13.9024 12.4876C14.0018 12.3999 14.1128 12.318 14.2473 12.242C14.1362 12.1953 14.0427 12.1602 13.9725 12.1426C13.9024 12.1251 13.8381 12.1193 13.7854 12.131C13.7562 12.0725 13.7621 12.014 13.8088 11.9556C13.8498 11.8971 13.9082 11.8386 13.9842 11.7802C14.1128 11.8094 14.2531 11.8386 14.3935 11.862C14.5455 11.9088 14.6156 11.9906 14.6156 12.1017C14.5864 12.1953 14.3935 12.3648 14.0427 12.6045C13.9024 12.7097 13.8439 12.8208 13.8731 12.9436C14.0719 13.0488 14.2824 13.0956 14.5045 13.0956C14.7267 13.0956 14.9547 13.0547 15.1768 12.967C15.2412 12.9494 15.5978 12.7682 16.2409 12.4174L16.235 12.4233ZM4.88161 2.19234C4.86992 2.25665 4.83484 2.29172 4.77053 2.29172C4.64776 2.25664 4.55422 2.23325 4.48992 2.23325C4.41391 2.23325 4.3613 2.28003 4.33791 2.37357C4.2736 2.73019 4.22099 2.98742 4.18591 3.15112C4.15083 3.31481 4.09237 3.45513 4.01637 3.5779C3.88775 3.28559 3.78837 3.07512 3.72406 2.93481C3.59544 2.67173 3.40251 2.5431 3.15113 2.5431C3.06928 2.49633 3.02251 2.43787 3.02251 2.36187C3.02251 2.32679 3.04005 2.26834 3.06928 2.18649C3.10436 2.10464 3.11605 2.05203 3.11605 2.0228C3.14528 1.95849 3.1979 1.9234 3.26805 1.9234C3.31482 1.9234 3.3499 1.9351 3.37913 1.96433C3.53698 2.09295 3.68898 2.29756 3.82929 2.56649C3.88775 2.67757 3.95791 2.81204 4.03975 2.97574C4.07483 2.91143 4.12745 2.72435 4.18591 2.4145C4.24437 2.10465 4.38468 1.91756 4.60099 1.85325C4.8173 1.85325 4.92254 1.92341 4.92254 2.06372C4.92254 2.0988 4.91084 2.14557 4.88161 2.19234ZM17.6089 9.68721L17.3575 9.61706C16.7612 9.61706 16.1766 9.58199 15.6036 9.51183C15.0307 9.44168 14.3642 9.3306 13.5984 9.18444C12.9904 9.07337 12.3823 8.95644 11.7743 8.83366C12.2303 8.56474 12.6747 8.26659 13.1073 7.94504C13.5399 7.6235 13.9433 7.27272 14.3291 6.89856C14.4811 6.95702 14.5981 7.09733 14.6916 7.33118C14.9079 7.84565 15.1008 8.14965 15.2821 8.24319C15.3581 8.27827 15.4516 8.30165 15.5627 8.30165C15.7381 8.30165 15.9018 8.26658 16.0538 8.19057C16.3344 7.90996 16.5215 7.59426 16.615 7.24349C16.7086 6.89271 16.7553 6.47179 16.7553 5.98655C16.7553 5.7527 16.7319 5.437 16.6852 5.03361C16.5916 4.22683 16.5449 3.71821 16.5449 3.50189L16.6852 3.15112C16.767 3.29143 16.8606 3.43174 16.9541 3.57205C17.0184 3.67728 17.0652 3.74159 17.0944 3.77082C17.0944 3.43173 17.0243 3.06342 16.884 2.66003C16.8547 2.59573 16.7144 2.2508 16.463 1.6194C16.3812 1.64863 16.2993 1.72464 16.2233 1.8591C16.1882 1.92341 16.1298 2.02864 16.0538 2.16895C16.0362 2.29757 16.0246 2.4145 16.0246 2.51973V2.84127C16.0246 3.15696 16.1006 4.04559 16.2467 5.50715C16.311 6.14439 16.3461 6.68809 16.3461 7.14994C16.2876 7.21425 16.2292 7.25518 16.1707 7.26688C16.1122 7.27857 16.0246 7.29027 15.9135 7.29027H15.6913C15.475 7.18503 15.323 6.96287 15.2295 6.6121C15.1359 6.26133 15.0541 6.05086 14.9898 5.97486C14.7208 6.05671 14.3701 6.28471 13.9374 6.64718C13.4347 7.0798 13.0897 7.34288 12.9144 7.44811C12.774 7.55919 12.2186 7.84565 11.2423 8.30165C10.5583 8.61735 10.1315 9.03829 9.95031 9.55276C10.2952 9.59953 10.798 9.66968 11.4528 9.76322C12.1076 9.85676 12.6571 9.96199 13.0956 10.0731C12.6922 10.2017 12.2654 10.342 11.8211 10.4882C11.3709 10.6343 10.9968 10.7395 10.6928 10.8038C10.3888 10.8682 10.1491 10.9149 9.96784 10.9383C9.79246 10.9617 9.59953 10.9734 9.39491 10.9734C8.95644 10.9734 8.52382 10.8974 8.10289 10.7512C7.81058 10.5758 7.58842 10.3362 7.43058 10.0438C7.27273 9.75153 7.16749 9.42413 7.12072 9.06751C7.06226 8.36596 7.03888 7.68195 7.03888 7.02133C7.03888 6.68224 7.03888 6.34901 7.04472 6.01577C7.04472 5.68254 7.05057 5.35514 7.05057 5.02776C7.05057 4.43728 7.03303 3.85266 7.0038 3.27388C6.96872 2.6951 6.91611 2.1631 6.8401 1.68956C6.72903 1.80063 6.62964 1.95265 6.54779 2.13973C6.50102 2.24496 6.43671 2.40865 6.34902 2.6425C6.47764 3.33235 6.56533 4.18006 6.60041 5.17976C6.6121 5.48961 6.61795 6.26131 6.62964 7.49487C6.64133 8.72843 6.67056 9.66968 6.72903 10.3128C6.52441 10.5642 6.27302 10.798 5.96901 11.0143C5.85794 11.0962 5.58316 11.2715 5.15639 11.5346C4.65946 11.7802 4.23268 11.9614 3.88191 12.0842C3.36744 12.2537 2.89974 12.3356 2.47881 12.3356C2.16896 12.3356 1.8708 12.2829 1.57849 12.1719C1.28617 12.0666 1.02309 11.8913 0.783397 11.6574C0.543701 11.4236 0.426776 11.1312 0.426776 10.7863C0.426776 10.6928 0.426776 10.6226 0.438468 10.5759C0.450161 10.5291 0.467699 10.4589 0.496931 10.3654C0.602163 10.1023 0.713242 9.82753 0.836013 9.53522C0.958784 9.24291 1.12248 9.10259 1.3271 9.10259C1.59602 8.99151 1.7831 8.71091 1.87664 8.26075C1.94095 7.95089 1.99357 7.75796 2.02865 7.67027C1.93511 7.7755 1.84157 7.87488 1.74803 7.97427C1.65449 8.07365 1.54341 8.11458 1.40894 8.0912C1.28617 7.93335 1.19848 7.78135 1.15171 7.63519C1.09909 7.48904 1.07571 7.33118 1.07571 7.16748C1.07571 6.8284 1.22186 6.38409 1.50833 5.82285C1.86495 5.15054 2.06372 4.7296 2.11049 4.56006C1.98772 4.6536 1.8708 4.79975 1.75972 4.99268C1.70126 5.09791 1.61356 5.25576 1.49079 5.47208C1.47325 5.51885 1.29202 5.93394 0.958784 6.72318C0.736627 7.23765 0.619702 7.67026 0.619702 8.02688C0.619702 8.21396 0.643087 8.38936 0.695703 8.5472C0.74832 8.70505 0.830166 8.86291 0.941245 9.0266C0.508623 9.79246 0.251388 10.3069 0.169541 10.57C0.0584624 10.8974 0 11.2365 0 11.5814C0 11.7042 -1.08895e-08 11.7919 0.0116925 11.8503C0.0876936 12.1777 0.257235 12.47 0.526162 12.7331C0.795089 12.9962 1.07571 13.154 1.37387 13.2183C1.67203 13.2768 1.97018 13.3119 2.25665 13.3119C2.6425 13.3119 3.02835 13.2593 3.41421 13.1599C3.80006 13.0546 4.16253 12.9202 4.50161 12.7507C5.45455 12.3005 6.24379 11.6048 6.85764 10.6577C6.98041 11.0143 7.19088 11.3242 7.49488 11.5814C7.79889 11.8445 8.12628 11.9731 8.47121 11.9731C8.97398 11.9731 9.53522 11.9146 10.1432 11.7919C10.5291 11.7159 11.4177 11.4762 12.8091 11.0786C13.4639 10.8915 13.9842 10.7629 14.3642 10.6869C14.8962 10.5817 15.4282 10.5349 15.9486 10.5349C16.1473 10.5349 16.3519 10.5466 16.5741 10.5641C16.7963 10.5817 16.9892 10.6109 17.1587 10.646C17.2406 10.4882 17.3341 10.3245 17.4277 10.1549C17.5212 9.98538 17.5797 9.83921 17.6089 9.70475V9.68721ZM9.26045 7.99181C9.26045 8.23735 9.19614 8.44196 9.06168 8.61151C8.89214 8.64074 8.79275 8.64659 8.76937 8.62321C8.6466 8.46536 8.58813 8.27827 8.58813 8.06196C8.58813 7.88657 8.6349 7.68196 8.72844 7.45396C8.82198 7.22596 8.90968 7.00965 8.99737 6.79918C8.99737 6.90442 8.97398 7.02718 8.92721 7.17919C8.81613 7.54165 8.75767 7.76965 8.75767 7.8515C8.75767 8.05027 8.84537 8.17888 9.0266 8.24319C9.07337 8.2315 9.10845 8.19059 9.13768 8.11459C9.16691 8.03859 9.20783 7.99766 9.2663 7.98597L9.26045 7.99181ZM4.56007 4.16252C4.57761 4.22098 4.57761 4.27945 4.55422 4.34375C4.53084 4.40806 4.49576 4.47821 4.44899 4.55421C4.38468 4.54252 4.32622 4.54252 4.2736 4.54252H4.16837C3.96375 4.54252 3.78252 4.57176 3.63636 4.63607C3.48436 4.69453 3.36744 4.79977 3.28559 4.95177C3.36159 5.27916 3.41421 5.52469 3.43759 5.69424C3.51359 6.03916 3.56036 6.27885 3.5779 6.41916C3.59544 6.55363 3.60713 6.6764 3.60713 6.78163V7.09733C3.60713 7.34287 3.60129 7.51242 3.58375 7.6118C3.57205 7.71119 3.53698 7.84565 3.49021 8.00934C3.52529 7.88657 3.54867 7.74042 3.54867 7.55919C3.54867 7.47734 3.53698 7.36626 3.51944 7.2318C3.5019 7.09734 3.48436 6.9921 3.46098 6.9161L3.19205 5.76439C3.17451 5.68254 3.15697 5.59485 3.15113 5.513C3.13943 5.43116 3.13943 5.33761 3.13943 5.23238C3.13943 5.07453 3.16866 4.92253 3.22128 4.78222C3.34405 4.48991 3.63052 4.28529 4.09237 4.16252C4.03391 4.08652 3.9696 4.03975 3.8936 4.01637C3.8176 3.99298 3.75329 3.99299 3.69483 4.02222L3.56621 4.15082C3.54867 4.09236 3.56036 4.0222 3.60129 3.93451C3.64221 3.84682 3.67144 3.78252 3.69483 3.74744C3.75913 3.68314 3.84683 3.64805 3.96375 3.64805C4.02222 3.64805 4.08068 3.66559 4.14499 3.70652C4.2093 3.74159 4.2853 3.8176 4.36714 3.92868C4.44899 4.03975 4.5133 4.1216 4.54838 4.16837L4.56007 4.16252ZM5.20316 9.24291C5.20316 9.36568 5.17977 9.48845 5.13885 9.60537C5.09792 9.72814 5.02192 9.81583 4.905 9.8743C4.82315 9.89183 4.753 9.8743 4.70038 9.82753C4.64776 9.78076 4.61269 9.71061 4.59515 9.62291C4.58345 9.54691 4.58346 9.49429 4.58346 9.45337C4.58346 9.23705 4.62438 9.02074 4.71207 8.79274C4.7413 8.71674 4.79392 8.59397 4.88161 8.43027C4.89331 8.51212 4.86992 8.64659 4.8173 8.82198C4.76469 8.99737 4.7413 9.12014 4.7413 9.18444C4.7413 9.23121 4.7413 9.28384 4.753 9.33645C4.76469 9.39491 4.80561 9.45922 4.88161 9.53522C4.95761 9.53522 5.02192 9.48844 5.08623 9.3949C5.14469 9.30136 5.18562 9.24876 5.20316 9.24291Z" fill="white"/>
</svg>
