<svg width="20" height="11" viewBox="0 0 20 11" fill="none" xmlns="http://www.w3.org/2000/svg">
<path fill-rule="evenodd" clip-rule="evenodd" d="M20 2.26618C19.8882 2.10278 19.7807 1.93507 19.6689 1.77166L19.5356 1.94797L19.7506 5.9299C19.7506 6.33412 19.7162 6.70394 19.6517 7.03935C19.5872 7.37476 19.4754 7.69297 19.3163 7.99398C19.3722 7.75318 19.4109 7.51236 19.4281 7.27155C19.4496 7.03074 19.4582 6.75554 19.4582 6.44593V5.8869C19.4367 5.73639 19.4238 5.6246 19.4152 5.55579L19.1271 1.24274C19.14 1.18684 19.1486 1.14814 19.1486 1.11804C19.1486 1.07073 19.14 1.00623 19.1185 0.933132C19.097 0.855729 19.0884 0.804125 19.0884 0.769724C19.0884 0.700922 19.1142 0.636423 19.1701 0.571921C19.1916 0.55042 19.226 0.494514 19.2733 0.399911C19.3206 0.305308 19.3765 0.25801 19.4367 0.249409C19.4797 0.421416 19.5614 0.670822 19.6861 0.993334C19.8925 1.53515 19.9957 1.96087 19.9957 2.26188L20 2.26618ZM16.6158 0.954634C16.5685 1.01054 16.5212 1.06643 16.4825 1.11804C16.0138 1.50505 15.7127 1.69426 15.5751 1.69426C15.5536 1.69426 15.5407 1.68566 15.5321 1.66846C15.5235 1.65126 15.5321 1.62546 15.5407 1.59105C15.6181 1.40615 15.773 1.26424 16.0138 1.16964C16.2116 1.10084 16.4137 1.02774 16.6115 0.954634H16.6158ZM16.3492 1.84046C16.4266 1.97807 16.461 2.12427 16.461 2.28338C16.461 2.44248 16.418 2.58009 16.3277 2.67469C16.2718 2.64889 16.2202 2.63169 16.1729 2.63169C16.1127 2.63169 16.0439 2.65319 15.9751 2.69189C15.816 2.78649 15.6955 2.8209 15.6138 2.7951C15.5321 2.7392 15.4891 2.65749 15.4891 2.54569C15.4891 2.48549 15.5063 2.39088 15.545 2.27048C15.5837 2.15007 15.6052 2.06837 15.6138 2.02967L15.6869 2.00817C15.6999 2.05117 15.6955 2.11568 15.6654 2.20598C15.6396 2.29628 15.6224 2.35648 15.6224 2.39088C15.6224 2.45968 15.6568 2.51129 15.7256 2.54569C15.8504 2.54569 15.9149 2.45539 15.9235 2.27048C15.9321 2.08987 15.9665 1.97807 16.0353 1.93507C16.0482 1.95657 16.0568 1.99527 16.0568 2.05977C16.0482 2.15007 16.0482 2.21458 16.0482 2.25758C16.0482 2.38228 16.1084 2.43819 16.2245 2.42099H16.3062C16.3277 2.36508 16.3234 2.29198 16.3019 2.19307C16.2761 2.09847 16.2675 2.03827 16.2675 2.01677C16.2675 1.93937 16.2933 1.87916 16.3492 1.83186V1.84046ZM16.2675 3.65512C16.2675 3.65512 16.1729 3.77123 16.0525 3.94324C15.9622 4.06794 15.8719 4.12814 15.7859 4.12814C15.7644 4.12814 15.7342 4.11955 15.6912 4.10664L15.3085 3.85723C15.2053 4.00773 15.1021 4.12385 14.9989 4.20125C14.8957 4.27865 14.7839 4.32165 14.6678 4.32165C14.5431 4.32165 14.4141 4.26145 14.2765 4.13675C14.2765 4.04215 14.3109 3.94323 14.3797 3.84433C14.4485 3.74543 14.5388 3.65082 14.6463 3.56052C14.6807 3.56052 14.8183 3.61213 15.0591 3.71533C15.1623 3.75833 15.244 3.77123 15.3085 3.75833C15.3644 3.67663 15.4203 3.59063 15.4719 3.50032C15.5407 3.41002 15.6138 3.33692 15.6869 3.27241C15.8332 3.32832 15.945 3.37992 16.031 3.43152C16.117 3.48312 16.1944 3.55622 16.2632 3.65512H16.2675ZM10.4279 0.154806C10.4279 0.326812 10.3333 0.473014 10.1398 0.589118C10.1269 0.597719 9.95485 0.666521 9.62374 0.804126C9.66674 0.748224 9.73124 0.692327 9.82154 0.640725C10.0624 0.50312 10.1957 0.421416 10.2258 0.391315C10.1226 0.356914 10.0107 0.339709 9.89465 0.339709C9.77854 0.339709 9.67104 0.361209 9.57644 0.399911C9.60224 0.288107 9.65384 0.215009 9.72694 0.176308C9.80004 0.137606 9.89465 0.120404 10.0107 0.120404C10.0882 0.120404 10.157 0.120406 10.2258 0.129006C10.2946 0.137606 10.3634 0.141901 10.4322 0.150501L10.4279 0.154806ZM13.0897 2.66179L13.0295 2.8596C12.9951 2.8725 12.9435 2.8596 12.8747 2.8166C12.8058 2.7736 12.7628 2.7564 12.7413 2.7564C12.7069 2.7564 12.6811 2.79079 12.6596 2.8596C12.6166 3.22511 12.5865 3.44442 12.565 3.51322C12.5435 3.58632 12.5005 3.68093 12.4317 3.79703C12.3887 3.76263 12.2984 3.61642 12.1522 3.36271C12.049 3.17781 11.92 3.09611 11.7609 3.11331C11.7136 3.08751 11.6878 3.0359 11.6878 2.9671C11.6878 2.9413 11.6878 2.9112 11.6964 2.8811C11.705 2.851 11.7093 2.8209 11.7179 2.7951C11.7652 2.7392 11.8125 2.68329 11.8641 2.63169C11.9587 2.67899 12.0576 2.7865 12.1522 2.9499C12.3242 3.24661 12.4446 3.37131 12.5134 3.31971C12.5134 3.0574 12.5306 2.8768 12.565 2.77789C12.5994 2.67899 12.6639 2.58009 12.7628 2.48549C12.823 2.47689 12.8832 2.49409 12.9392 2.52849C13.008 2.58869 13.0596 2.63599 13.094 2.66179H13.0897ZM14.6076 5.37518C14.5861 5.50419 14.5603 5.60739 14.5259 5.68479C14.4915 5.7622 14.4356 5.82241 14.3625 5.86971C14.2593 5.85681 14.1819 5.8009 14.1346 5.7063C14.126 5.6504 14.126 5.61169 14.126 5.58159C14.126 5.41819 14.169 5.27198 14.2507 5.14727V5.41389C14.2507 5.53 14.3023 5.6031 14.4055 5.6289C14.4399 5.616 14.47 5.56869 14.5001 5.49558C14.5259 5.41818 14.5646 5.37949 14.6119 5.37089L14.6076 5.37518ZM17.8284 2.04257C17.794 1.75446 17.7123 1.44485 17.5876 1.11804C17.4586 0.791224 17.3339 0.477314 17.2092 0.172003C17.1146 0.232205 17.0415 0.331108 16.9942 0.460113C16.9469 0.589117 16.8996 0.718121 16.8609 0.842826C16.9512 1.35884 17.0329 1.96087 17.1103 2.64889C17.1576 3.04881 17.2221 3.64653 17.2952 4.44636C17.3726 5.24619 17.4328 5.8611 17.4801 6.29542C17.4242 6.35132 17.3683 6.39432 17.3167 6.42872C17.3081 6.43732 17.2135 6.48893 17.0286 6.58354C17.0071 6.59214 16.9684 6.60503 16.9168 6.62653H16.7534C16.504 6.62653 16.2847 6.54053 16.0912 6.36853C16.0439 6.27822 16.0181 6.17071 16.0181 6.03741C16.0181 5.9471 16.0181 5.88261 16.0267 5.8396C15.8332 5.87401 15.5622 6.05031 15.2096 6.36422C14.8914 6.65233 14.6205 6.79854 14.3926 6.79854C14.3367 6.79854 14.2765 6.78994 14.2077 6.77703C14.1389 6.76413 14.0787 6.74264 14.0314 6.71684C13.5971 6.37283 13.0596 5.874 12.4231 5.22038C11.5416 4.31735 11.0385 3.80564 10.9052 3.68093C10.3204 3.12191 9.76134 2.67469 9.22382 2.33928C9.19802 2.31778 9.18082 2.29628 9.18082 2.27908C9.18082 2.25328 9.21522 2.20167 9.28402 2.13287C9.91615 1.91356 10.3935 1.75016 10.7203 1.64696C11.2234 1.48785 11.7136 1.34595 12.1952 1.21694C12.6768 1.08794 13.1886 0.971834 13.7347 0.86003C13.8594 0.838529 14.0443 0.80843 14.2851 0.761128C14.5302 0.718127 14.7452 0.692324 14.9301 0.692324C15.0935 0.692324 15.2569 0.713825 15.416 0.752526C15.4504 0.786928 15.4676 0.834228 15.4676 0.89873C15.4676 0.954632 15.459 1.01054 15.4461 1.06214C15.1838 1.34595 14.9215 1.62546 14.6635 1.90927C14.3625 2.24038 14.1174 2.52418 13.9325 2.76499C13.6831 3.0832 13.4896 3.37561 13.3434 3.64222C13.5283 3.37561 13.8594 3.0058 14.3281 2.53279C14.7968 2.05977 15.1193 1.71146 15.2913 1.48355C15.6095 1.07074 15.8031 0.653624 15.8805 0.23651C15.8461 0.141906 15.7902 0.077403 15.7171 0.0473019C15.6396 0.0172009 15.5493 0 15.4375 0C15.3773 0 15.3257 1.83741e-06 15.2827 0.00860214C14.3281 0.00860214 13.2746 0.176305 12.1264 0.516017C11.1503 0.847128 10.1742 1.17394 9.19372 1.49645C8.99591 1.63406 8.85401 1.82756 8.77231 2.07267C8.7164 2.24467 8.6906 2.47688 8.6906 2.76499C8.87551 2.9972 9.18942 3.33262 9.63664 3.77123C10.0796 4.20985 10.3978 4.53666 10.5913 4.75597C10.9267 5.13439 11.1847 5.4913 11.3653 5.83101C11.3524 5.93421 11.2836 6.01591 11.1632 6.07182C11.0428 6.13202 10.9267 6.18362 10.8192 6.23092C10.7074 5.99011 10.5397 5.78801 10.3118 5.6289C10.0839 5.4655 9.83874 5.38808 9.58074 5.38808C9.47753 5.43538 9.39153 5.4827 9.32703 5.5343C9.26252 5.5816 9.20232 5.6461 9.14642 5.7192C9.14642 5.7278 9.08622 5.88261 8.96151 6.19222C8.88411 6.38573 8.84971 6.54482 8.84971 6.67813C8.84971 6.75983 8.86261 6.83294 8.88411 6.90174C8.90991 6.96624 8.94431 7.03505 8.99161 7.10385C9.15072 7.21565 9.33993 7.26726 9.55923 7.26726C9.70544 7.26726 9.86884 7.24576 10.0495 7.19845C10.2301 7.15545 10.4021 7.11244 10.5612 7.06944L10.5827 7.25436C10.2602 7.57257 9.93765 7.88648 9.62374 8.20469C9.23242 8.5745 8.88411 8.84971 8.5831 9.02171C8.17029 9.25392 7.76177 9.37433 7.35326 9.37433C7.22855 9.37433 7.09955 9.36573 6.96194 9.34422C6.81144 9.24962 6.70393 9.13781 6.64803 9.01741C6.58783 8.89701 6.56203 8.76371 6.56203 8.6218C6.56203 8.4627 6.61793 8.20898 6.73404 7.85207C6.84584 7.49946 6.90604 7.23285 6.90604 7.06085C6.90604 7.00064 6.90604 6.94904 6.89744 6.91464C6.88884 6.90604 6.87594 6.91464 6.85444 6.92324C6.83294 7.07374 6.72973 7.42636 6.54483 7.97678C6.39862 8.4111 6.32982 8.76371 6.32982 9.03892C6.32982 9.20232 6.35562 9.36573 6.40292 9.52053C6.45023 9.67534 6.53193 9.82154 6.63943 9.95914C6.90174 10.0623 7.14685 10.114 7.37046 10.114C7.59407 10.114 7.82627 10.071 8.03698 9.98925C8.24769 9.90754 8.4627 9.79144 8.682 9.63663C9.24532 9.12061 9.81294 8.60461 10.3849 8.08859C10.5569 7.92948 10.7117 7.66717 10.8493 7.29306C10.9439 7.04365 11.0127 6.88025 11.0557 6.79854C11.3094 6.72974 11.4857 6.53622 11.5803 6.22231C11.6276 6.05031 11.7007 5.7923 11.7953 5.44829C12.1651 5.8396 12.5435 6.23091 12.922 6.61363C13.3606 7.06084 13.7734 7.36616 14.1518 7.53386C14.1776 7.54247 14.2206 7.54246 14.2765 7.54246C14.5259 7.54246 14.7753 7.43066 15.029 7.21135C15.2268 7.00495 15.4289 6.79854 15.6267 6.59213C15.6826 6.56633 15.7299 6.54913 15.773 6.54913C15.8289 6.54913 15.859 6.63513 15.8676 6.80714C15.8762 6.97914 15.9278 7.08235 16.0224 7.11675C16.2073 7.24575 16.418 7.31455 16.6502 7.31455C16.8437 7.31455 17.0114 7.27155 17.1576 7.18985C17.3984 7.09524 17.5532 6.89314 17.622 6.59213C17.6564 6.42873 17.6994 6.16641 17.7467 5.8095L17.3769 1.78456L17.5016 1.62975C17.5016 1.62975 17.5919 1.73726 17.708 1.90927C17.751 1.96947 17.7983 2.01247 17.8542 2.03397L17.8284 2.04257ZM7.21995 0.83423L7.15975 1.04924C7.11245 1.04064 7.05655 1.00624 6.98774 0.941734C6.92324 0.877232 6.87164 0.83853 6.83724 0.83423C6.82434 1.17824 6.81144 1.46635 6.79424 1.70286C6.78134 1.93506 6.70823 2.12858 6.57923 2.27908C6.51903 2.18448 6.45023 2.04687 6.38142 1.87487C6.29112 1.64696 6.23522 1.50935 6.20512 1.46205L6.14491 1.55665C6.07611 1.51365 6.01591 1.47065 5.96001 1.42765C5.90411 1.38464 5.8482 1.32445 5.7837 1.25564C5.7837 1.17824 5.7966 1.10944 5.8267 1.04064C5.8525 0.971833 5.88691 0.903033 5.92131 0.83423C6.11911 0.915933 6.29112 1.13094 6.43732 1.47495C6.50613 1.63835 6.57493 1.80606 6.64373 1.96947C6.65663 1.92647 6.66953 1.69426 6.68673 1.26425C6.69963 0.83423 6.76414 0.619223 6.88454 0.619223C6.93184 0.619223 6.97914 0.636424 7.03075 0.666525C7.07805 0.696626 7.14255 0.752525 7.22855 0.838528L7.21995 0.83423ZM12.7198 8.18318C12.7069 8.27778 12.6854 8.3638 12.6596 8.4369C12.6338 8.51 12.5865 8.5702 12.5263 8.6175C12.4833 8.6304 12.4446 8.6175 12.4016 8.5659C12.3586 8.5186 12.3328 8.48849 12.3199 8.47129C12.2941 8.39389 12.2769 8.31649 12.2769 8.23479C12.2769 8.13159 12.2984 8.02838 12.3371 7.92518C12.3801 7.82198 12.436 7.71446 12.5134 7.60696C12.479 7.69726 12.4532 7.77037 12.436 7.83487C12.4188 7.89507 12.4102 7.96388 12.4102 8.04128C12.4102 8.18748 12.4575 8.29498 12.5564 8.37239C12.5779 8.35949 12.5994 8.32509 12.6295 8.27349C12.6553 8.22189 12.6897 8.19178 12.7241 8.18748L12.7198 8.18318ZM8.6863 8.07138C8.639 8.10579 8.5702 8.19179 8.4842 8.3294C8.39819 8.467 8.31219 8.5401 8.23049 8.5444L7.72307 8.22618C7.64567 8.35089 7.59407 8.44119 7.55966 8.49279C7.49086 8.60459 7.41346 8.6433 7.33176 8.6175C7.21995 8.5616 7.14255 8.52289 7.09525 8.49279C6.99204 8.43689 6.95334 8.36809 6.98344 8.28639C7.06515 8.12729 7.11245 8.03698 7.12965 8.01978C7.18555 7.92518 7.25435 7.84778 7.33606 7.79188C7.48656 7.86068 7.64137 7.92518 7.80047 7.98968C7.82627 7.98968 7.86067 7.98108 7.89508 7.95958C7.98538 7.77467 8.10578 7.68007 8.25629 7.68007C8.34659 7.68007 8.4369 7.73166 8.5358 7.83487C8.5444 7.86067 8.5788 7.89507 8.6476 7.93378C8.7164 7.97248 8.7293 8.01978 8.6906 8.07138H8.6863ZM3.89594 4.14965C3.90454 4.17545 3.90454 4.21414 3.90454 4.26144C3.90454 4.46785 3.83143 4.61836 3.68953 4.71726C3.53902 4.75166 3.43582 4.68716 3.37992 4.51946C3.35412 4.42915 3.33692 4.32595 3.33692 4.20984C3.33692 4.08084 3.36272 3.91743 3.41862 3.72393C3.47452 3.53042 3.51322 3.38852 3.54332 3.28962C3.54332 3.34982 3.53472 3.43581 3.51322 3.54762C3.46592 3.80133 3.44012 3.96473 3.44012 4.03354C3.44012 4.12814 3.45302 4.20985 3.47452 4.27005C3.50032 4.33025 3.54762 4.39475 3.62503 4.45496C3.69383 4.48076 3.74113 4.46785 3.77123 4.40765C3.79703 4.34745 3.82283 4.29155 3.84863 4.23564C3.87444 4.17974 3.88734 4.14964 3.89594 4.14104V4.14965ZM8.14878 5.51279C8.04558 5.8783 7.98538 6.08041 7.97248 6.12342C7.89078 6.35562 7.79187 6.54053 7.68437 6.66953C7.64997 6.59213 7.67147 6.48892 7.74457 6.35992C7.79187 6.27822 7.81767 6.21801 7.81767 6.18361C7.81767 6.13631 7.79187 6.08901 7.74457 6.03741C7.66287 6.05891 7.31456 6.24382 6.70393 6.59644C6.45453 6.74264 6.23092 6.81144 6.02451 6.81144C5.87831 7.30166 5.7751 7.61127 5.7063 7.74887C5.54289 8.08428 5.30639 8.32509 5.00537 8.47129C4.37325 8.80671 3.96904 9.02171 3.79703 9.11201C3.34982 9.33992 2.9284 9.51193 2.52849 9.62804C2.04687 9.77424 1.58676 9.84304 1.14384 9.84304C0.825629 9.88605 0.610621 9.91615 0.490217 9.94195C0.369813 9.96775 0.206407 10.0065 0 10.0624L3.74543 8.58739C4.05504 8.42399 4.36465 8.26059 4.67426 8.10149C5.01827 7.90798 5.31929 7.69726 5.57299 7.47366C5.57299 7.34895 5.53859 7.15545 5.47409 6.88454C5.40959 6.61793 5.37519 6.42872 5.37519 6.31692C5.37519 6.19221 5.40099 6.08041 5.45259 5.9815C5.50419 5.8826 5.59019 5.7923 5.7149 5.7063C5.7235 5.7665 5.7321 5.8525 5.7493 5.9557C5.7665 6.05891 5.8353 6.11052 5.95141 6.11052C5.96431 6.11912 6.00301 6.12772 6.07181 6.13632C6.13631 6.14492 6.19222 6.15352 6.23092 6.15352C6.42442 6.15352 6.80714 5.97721 7.37476 5.6289C7.64137 5.4655 7.88218 5.37949 8.09718 5.37949L8.14878 5.51279ZM10.1613 6.45022C10.0366 6.49322 9.90755 6.51043 9.76994 6.51043C9.55493 6.51043 9.36573 6.45882 9.20232 6.35562C9.19372 6.31261 9.21522 6.27392 9.26252 6.23092C9.28402 6.21802 9.31843 6.18792 9.36573 6.14922C9.38723 6.14922 9.41733 6.14921 9.46033 6.14061C9.57644 6.14061 9.69254 6.16641 9.81294 6.22231C9.92905 6.27821 10.0452 6.35132 10.1656 6.45022H10.1613Z" fill="white"/>
</svg>
