<svg width="20" height="11" viewBox="0 0 20 11" fill="none" xmlns="http://www.w3.org/2000/svg">
<path fill-rule="evenodd" clip-rule="evenodd" d="M19.9998 2.42081C19.9032 2.43154 19.8281 2.3564 19.7636 2.19537C19.6992 2.03434 19.6348 1.93772 19.5758 1.90551L19.4362 2.20073C19.4362 2.54426 19.4684 2.98441 19.5382 3.52654C19.6939 4.73962 19.769 5.51256 19.769 5.84536C19.769 6.66124 19.7475 7.26778 19.7046 7.65962C19.6348 8.31984 19.4845 8.88881 19.2537 9.36116C19.3235 8.98543 19.3718 8.63653 19.4094 8.32521C19.4416 8.01388 19.4631 7.69719 19.4631 7.3805V7.04771C19.447 6.94572 19.4362 6.87058 19.4362 6.82764L18.9317 1.19699C18.9317 1.13794 18.9156 1.06816 18.878 0.993012C18.8458 0.917865 18.8243 0.848087 18.8243 0.789043C18.8243 0.719264 18.8404 0.63338 18.878 0.531395C18.9907 0.203969 19.0981 0.0429421 19.2 0.0429421C19.2591 0.0536774 19.4094 0.418677 19.6509 1.13794C19.8925 1.8572 20.0052 2.28662 19.9998 2.42617V2.42081ZM16.06 0.230809C15.9848 0.343529 15.8667 0.445515 15.7111 0.542133C15.593 0.611912 15.4373 0.681689 15.2495 0.762204C15.0616 0.837351 14.9167 0.896397 14.8093 0.928603C14.6268 1.00375 14.4819 1.07889 14.3692 1.14867C14.4443 1.01985 14.5463 0.912498 14.6698 0.821248C14.7932 0.729998 14.9435 0.649483 15.1153 0.568968C15.4266 0.456248 15.7379 0.34353 16.0546 0.236177L16.06 0.230809ZM16.0063 2.0236C15.9204 2.21147 15.754 2.35639 15.5017 2.44764C15.1314 2.59257 14.9167 2.68919 14.8576 2.73213C14.8308 2.67845 14.8415 2.62477 14.8845 2.56573L15.024 2.42617C14.8523 2.3564 14.7664 2.28125 14.7664 2.19537C14.7664 2.15242 14.7825 2.11485 14.82 2.07728C14.965 1.84647 15.067 1.70154 15.1314 1.65323C15.228 1.56735 15.3246 1.52441 15.4266 1.52441C15.5125 1.56735 15.5661 1.60492 15.5823 1.6425C15.593 1.70154 15.5715 1.76059 15.5286 1.825C15.4856 1.88404 15.4481 1.94308 15.4105 1.99139C15.3783 1.87867 15.3085 1.825 15.2065 1.825C15.1636 1.825 15.1314 1.8411 15.1045 1.87867L15.0025 1.99676C15.1153 2.11485 15.2817 2.17926 15.5071 2.17926L16.0117 2.0397L16.0063 2.0236ZM17.7186 2.09875C17.5575 1.37948 17.2677 0.676322 16.8544 0L16.4786 0.762204C16.5967 0.90713 16.6611 1.06816 16.6611 1.23992L17.4072 6.48411C17.4072 6.55389 17.4072 6.65587 17.418 6.79543C17.4287 6.93499 17.4287 7.03697 17.4287 7.10675C17.4287 7.24631 17.4126 7.3644 17.3858 7.47175C17.3536 7.5791 17.3053 7.67572 17.2355 7.7616C17.2355 7.68646 17.2355 7.60594 17.2409 7.5308C17.2409 7.45565 17.2462 7.36977 17.2462 7.28388C17.2462 7.01013 17.2248 6.77396 17.1872 6.58073C17.1496 6.38749 17.0691 6.21572 16.951 6.0708L13.14 1.62639C13.0541 1.52441 13.0326 1.43853 13.0756 1.36875C13.1078 1.36875 13.1829 1.39559 13.2956 1.45463C13.4084 1.50831 13.4835 1.51367 13.5264 1.46C13.0809 1.01448 12.6354 0.56897 12.2006 0.118089C12.1309 0.305956 12.0826 0.456251 12.0611 0.563604C12.0342 0.670956 12.0235 0.799779 12.0235 0.944705C12.3563 1.57272 12.8072 2.24367 13.3654 2.9522C13.7519 3.44066 14.294 4.07404 14.9864 4.84698C15.9043 5.86146 16.4572 6.47874 16.6504 6.70418C16.8061 6.94572 16.9027 7.11749 16.9456 7.21947C17.0422 7.41807 17.0852 7.60058 17.0852 7.77234C17.0852 7.88506 17.0745 7.97094 17.0584 8.02999C16.7685 8.38962 16.3606 8.72241 15.8345 9.023C15.5447 9.18403 15.0938 9.4202 14.4926 9.73153C14.863 9.66175 15.2548 9.59197 15.6789 9.51145C16.0975 9.43631 16.4357 9.31285 16.6826 9.15182C17.0798 8.73315 17.3589 8.2608 17.52 7.73477C17.6595 7.29462 17.7239 6.76322 17.7239 6.13521C17.5414 4.70205 17.3643 3.26352 17.1818 1.81963L17.257 1.63713L17.7078 2.09875H17.7186ZM11.5351 2.22757C11.476 2.41007 11.417 2.53889 11.3687 2.61404C11.2828 2.7536 11.1701 2.84485 11.0359 2.89853C10.95 2.91463 10.8641 2.93073 10.7782 2.9361C10.7084 2.9361 10.6548 2.91463 10.6118 2.87169C10.542 2.77507 10.5098 2.67845 10.5098 2.57647C10.5098 2.46375 10.5581 2.34029 10.6494 2.19537C10.746 2.05581 10.8319 1.91625 10.9178 1.78742C10.9178 1.84647 10.8748 1.94845 10.7943 2.09875C10.7138 2.24367 10.6709 2.34566 10.6709 2.41007C10.6709 2.50669 10.7299 2.5872 10.8534 2.65698C10.9285 2.67308 11.0037 2.66772 11.0734 2.63014C11.1432 2.59794 11.2291 2.54426 11.3311 2.47448C11.3311 2.4047 11.2774 2.32419 11.1701 2.2383C11.0627 2.14705 11.009 2.08265 11.009 2.0397C11.009 1.98066 11.0627 1.92161 11.1647 1.8572C11.2345 1.91088 11.3042 1.95382 11.3687 1.99676C11.4653 2.07191 11.519 2.15242 11.5351 2.22757ZM12.0611 4.45514C12.002 4.51418 11.943 4.58396 11.8786 4.65911C11.782 4.78793 11.6961 4.91139 11.6102 5.03484C11.5673 4.9758 11.4545 4.89529 11.2774 4.79867C11.0949 4.70205 11.009 4.6108 11.009 4.53565C11.009 4.49271 11.0359 4.43904 11.0842 4.36926L11.5351 3.8808C11.637 3.96669 11.7444 4.0472 11.8571 4.12771C11.9967 4.2458 12.0611 4.35852 12.0611 4.46051V4.45514ZM10.8265 0.230809C10.5796 0.305956 9.97844 0.493822 9.023 0.783675C8.62579 0.901763 8.02999 1.08963 7.23021 1.33654C6.90278 1.43853 6.56462 1.55125 6.22109 1.66397C5.87756 1.77669 5.63065 1.94309 5.49109 2.15779C6.833 1.70154 8.2769 1.23456 9.83351 0.75147C9.97844 0.708529 10.1287 0.665589 10.2844 0.622648C10.585 0.536766 10.7675 0.402572 10.8265 0.22544V0.230809ZM9.1894 2.84485C9.14645 3.00051 9.11425 3.09713 9.09815 3.14007C9.04447 3.25279 8.97469 3.32257 8.87807 3.34404C8.81903 3.36014 8.75998 3.34404 8.69557 3.27963C8.63653 3.19374 8.59359 3.1347 8.56675 3.09713C8.55601 3.06492 8.55602 3.01125 8.55602 2.94147C8.55602 2.81264 8.57749 2.67845 8.62579 2.54426C8.6741 2.4047 8.73315 2.27588 8.81366 2.14706C8.75462 2.28661 8.72241 2.43691 8.72241 2.59794C8.72241 2.75897 8.75462 2.89316 8.8244 2.99514C8.8405 3.02198 8.86734 3.03808 8.89954 3.03808C8.93175 3.03808 8.96932 3.04345 9.00153 3.04345C9.03373 3.00051 9.06594 2.96294 9.09278 2.9361C9.11962 2.90389 9.13035 2.87169 9.13035 2.83948H9.18403L9.1894 2.84485ZM10.6977 6.15668C10.6977 6.2694 10.6762 6.38212 10.6387 6.48948C10.6011 6.6022 10.5367 6.67734 10.4508 6.72028C10.3756 6.72028 10.3059 6.69881 10.2468 6.6505C10.1878 6.60219 10.1448 6.53778 10.118 6.45727C10.0912 6.37675 10.0804 6.30161 10.0804 6.23183C10.0804 6.103 10.118 5.96345 10.1985 5.80778C10.1985 5.79705 10.2737 5.66823 10.4186 5.41058C10.4078 5.46962 10.381 5.57161 10.3273 5.7219C10.2737 5.86683 10.2522 5.97418 10.2522 6.04396C10.2522 6.19962 10.3059 6.31771 10.4186 6.40359C10.4937 6.43043 10.5581 6.40359 10.6065 6.32845C10.6548 6.2533 10.687 6.19426 10.7031 6.16205L10.6977 6.15668ZM4.78257 0.0751466C4.88455 0.257646 4.93823 0.472354 4.93823 0.719266C4.93823 1.03596 4.85234 1.35801 4.68058 1.68544C4.71279 1.59956 4.73426 1.51904 4.74499 1.43853C4.75573 1.36338 4.75573 1.26676 4.75573 1.15404C4.75573 1.01448 4.75573 0.907131 4.74499 0.826617C4.73426 0.746102 4.72889 0.670956 4.72352 0.601177C4.72352 0.531398 4.71815 0.477718 4.71815 0.434777C4.71815 0.322057 4.73962 0.20397 4.78257 0.0751466ZM13.1561 8.26616C12.7428 8.4916 12.3509 8.66337 11.9859 8.78146C11.5243 8.93712 11.0895 9.01226 10.687 9.01226C10.3112 9.01226 9.94623 8.94249 9.59197 8.8083C9.34506 8.67947 9.11962 8.50771 8.91565 8.28763C8.71168 8.06756 8.57749 7.82602 8.50771 7.55764C8.4755 7.78308 8.38962 7.99241 8.26079 8.19102C8.13197 8.38962 7.96558 8.52918 7.75624 8.61506C7.55763 8.6741 7.38587 8.70631 7.24094 8.70631C7.06918 8.70631 6.90815 8.66874 6.75249 8.58822C6.66661 8.55602 6.54852 8.40572 6.39286 8.13734C6.32308 8.02462 6.25867 7.97094 6.19962 7.97094C6.15668 7.97094 6.11374 7.98704 6.0708 8.02462C5.84536 8.29837 5.67359 8.48624 5.55551 8.59359C5.3408 8.77609 5.11536 8.86197 4.87382 8.86197C4.64837 8.86197 4.4444 8.76535 4.2619 8.57749C4.0794 8.38962 3.95058 8.18028 3.8808 7.94411C3.79492 7.28925 3.73588 6.52705 3.70904 5.64676C3.67683 4.76646 3.64463 3.88617 3.61242 3.00588C3.58021 2.12558 3.4997 1.35801 3.38161 0.708528L3.77882 0C3.92374 0.628014 4.01499 1.43853 4.0472 2.43691C4.05793 3.28499 4.06867 4.16529 4.0794 5.06705C4.09014 5.96881 4.16529 6.74712 4.30485 7.3966C4.36389 7.51469 4.44977 7.62741 4.55712 7.7294C4.66448 7.83138 4.77183 7.90116 4.87382 7.93337C4.9758 7.96557 5.06168 7.98704 5.13146 7.98704C5.3569 7.98704 5.59845 7.86896 5.86683 7.62741C6.21036 7.31609 6.4358 7.14433 6.53778 7.11212C6.48411 7.20874 6.46264 7.28388 6.46264 7.34293C6.46264 7.43955 6.50558 7.52006 6.58609 7.59521C6.66661 7.67036 6.77396 7.7294 6.90278 7.78307C7.03161 7.83675 7.17116 7.85822 7.31609 7.85822C7.61668 7.85822 7.87432 7.7616 8.08903 7.57374C8.28763 7.41808 8.38425 7.21947 8.38425 6.9672C8.38425 6.83837 8.32521 6.56999 8.20175 6.15668C8.14271 5.95271 8.1105 5.78631 8.1105 5.66822C8.13734 5.5233 8.17491 5.38374 8.23396 5.24955C8.28763 5.11536 8.36278 4.9758 8.44866 4.83087C8.48087 4.92749 8.57212 5.39448 8.71704 6.2372C8.89954 7.25705 9.33969 7.86896 10.0428 8.06756C10.2844 8.1266 10.5313 8.15881 10.789 8.15881C11.1647 8.15881 11.5726 8.0944 12.002 7.96558C12.3134 7.86896 12.6837 7.71866 13.1239 7.51469C13.0702 7.31609 13.0058 7.14433 12.9306 6.9994C12.8555 6.85447 12.775 6.70955 12.6998 6.55925L13.0863 5.97955C13.2312 6.13521 13.3332 6.30161 13.3976 6.48948C13.4567 6.67198 13.4889 6.87594 13.4889 7.09065C13.4889 7.52006 13.3815 7.91726 13.1668 8.2769L13.1561 8.26616ZM7.35903 3.57485C7.35903 3.57485 7.29462 3.5319 7.19263 3.44602C7.13359 3.40308 7.07455 3.38698 7.02624 3.39235C6.82227 3.49433 6.67197 3.69293 6.58609 3.98279C6.54315 4.13845 6.48411 4.37462 6.40359 4.69131C6.37139 4.63227 6.30697 4.48734 6.22109 4.26727C6.103 3.96668 5.97955 3.74124 5.86146 3.59632C5.78631 3.58021 5.70043 3.62852 5.60381 3.73588C5.56087 3.80565 5.5394 3.8647 5.5394 3.91838C5.5394 4.02036 5.58771 4.10088 5.67896 4.16529C5.7058 4.18139 5.79705 4.21897 5.94734 4.28338C5.96345 4.31558 6.04396 4.49808 6.17815 4.82551C6.2372 4.97043 6.29087 5.07242 6.33381 5.13683C6.44653 4.99727 6.53242 4.76646 6.59146 4.43904C6.6505 4.11161 6.73102 3.8808 6.83837 3.74124C6.88131 3.71441 6.92425 3.70904 6.96719 3.73051C7.01013 3.74661 7.05844 3.76808 7.10675 3.79492C7.1819 3.85396 7.23558 3.85933 7.26241 3.80029C7.28925 3.74661 7.31609 3.67147 7.35366 3.57485H7.35903ZM1.83036 0.61191L1.75522 0.858821C1.54051 0.805145 1.40632 0.955441 1.34728 1.3097C1.2936 1.66397 1.21845 1.88404 1.13257 1.98066C1.11647 1.96456 1.02522 1.78742 0.86419 1.45463C0.751469 1.22919 0.595808 1.1272 0.402573 1.14331C0.327426 1.1111 0.284485 1.05743 0.284485 0.987647C0.284485 0.944706 0.29522 0.896394 0.316691 0.83735C0.338161 0.783674 0.364999 0.713897 0.402573 0.63875C0.445514 0.595809 0.483088 0.574337 0.520661 0.574337C0.558234 0.574337 0.595808 0.585072 0.638749 0.61191C0.740734 0.729998 0.842719 0.88566 0.950072 1.07353C1.00912 1.18625 1.08963 1.35265 1.19698 1.57809C1.25603 1.30434 1.30434 1.095 1.33654 0.944705C1.41169 0.676324 1.51904 0.547501 1.6586 0.547501C1.71228 0.547501 1.77132 0.568969 1.8411 0.61191H1.83036ZM9.52219 9.91403C9.33432 10.1609 9.13572 10.381 8.93175 10.5689C8.72778 10.4132 8.51844 10.2576 8.31447 10.1073C8.35741 10.0214 8.41646 9.9355 8.49697 9.84962C8.52918 9.80667 8.6741 9.67785 8.92101 9.46314C9.13572 9.59197 9.33969 9.74226 9.52756 9.91403H9.52219ZM1.69081 2.44228C1.72301 2.51742 1.71228 2.59794 1.6586 2.67309C1.60492 2.74823 1.54588 2.82338 1.48684 2.89316C1.34728 2.98977 1.19698 3.06492 1.03595 3.12933C0.874925 3.19375 0.724631 3.22595 0.585073 3.22595C0.654852 3.15617 0.756837 3.09176 0.896396 3.03272C1.19698 2.89316 1.37948 2.79654 1.44926 2.73749C1.34728 2.70529 1.26676 2.68382 1.20235 2.67309C1.14331 2.66235 1.07353 2.66235 0.99838 2.66235C0.826616 2.66235 0.68169 2.71066 0.558234 2.80191C0.585073 2.64625 0.649484 2.53889 0.751469 2.47985C0.853454 2.42081 0.987645 2.3886 1.14867 2.3886C1.26139 2.3886 1.35801 2.39397 1.43853 2.41007C1.51904 2.4208 1.60492 2.43154 1.69081 2.44228ZM7.24094 10.1824L6.50558 10.7084L6.01712 10.3488L5.49109 10.7997C5.35153 10.7675 5.21198 10.7031 5.07242 10.6065C4.93286 10.5098 4.82551 10.4132 4.75573 10.3112C4.79867 10.2844 4.90602 10.1717 5.07779 9.97844C5.19587 9.83888 5.31933 9.77984 5.43742 9.79594C5.65212 9.91403 5.86683 10.0321 6.08153 10.1448L6.55925 9.62954C6.71491 9.74763 6.87058 9.86572 7.02087 9.98381C7.17116 10.1019 7.24631 10.1663 7.24094 10.1824ZM2.89852 7.24631L2.32956 7.91727C1.54588 8.28763 0.77294 8.65263 0 9.01226C0.0966175 8.8566 0.193235 8.70094 0.29522 8.53454C0.424043 8.36278 0.563602 8.23396 0.708528 8.14807C0.547499 8.03535 0.445514 7.96558 0.413308 7.94411C0.311323 7.85822 0.230809 7.7616 0.1825 7.64888C0.257647 7.29462 0.429411 6.9672 0.692425 6.66124C0.95544 6.35529 1.25066 6.16742 1.58882 6.10301C1.81963 6.10301 1.98603 6.22109 2.09338 6.4519C2.09338 6.59146 2.0397 6.72565 1.93235 6.86521C1.825 7.00477 1.71764 7.13359 1.61566 7.25168C1.60492 7.17653 1.56198 7.09602 1.48147 7.0155C1.40095 6.93499 1.3097 6.87058 1.21845 6.82764C1.14331 6.8169 1.06279 6.83837 0.982278 6.88131C0.901763 6.92425 0.837351 6.95646 0.79441 6.9833C0.912498 7.1819 1.08426 7.32683 1.3097 7.42881C1.53514 7.52543 1.77669 7.57911 2.04507 7.57911C2.24367 7.50933 2.3886 7.46102 2.48522 7.43955C2.64088 7.38587 2.78044 7.32683 2.90926 7.25705L2.89852 7.24631Z" fill="white"/>
</svg>
