<svg width="20" height="11" viewBox="0 0 20 11" fill="none" xmlns="http://www.w3.org/2000/svg">
<path fill-rule="evenodd" clip-rule="evenodd" d="M19.8754 6.12292C19.9547 6.68366 20 7.23308 20 7.76551C20 8.23563 19.966 8.6661 19.898 9.05126C19.8301 9.43642 19.7111 9.83291 19.5355 10.2407C19.5922 9.80459 19.6148 9.37978 19.6148 8.96064C19.6148 8.2243 19.5299 7.39168 19.3656 6.4571C19.1957 5.52252 19.0371 4.62192 18.8842 3.74965C18.7029 2.67913 18.6123 1.80119 18.6123 1.11017C18.55 1.01954 18.516 0.928917 18.516 0.838291C18.516 0.713681 18.5726 0.566411 18.6803 0.402152C18.8275 0.2209 18.9182 0.096293 18.9635 0.0339876C18.9805 0.141606 19.1674 0.600398 19.5185 1.4047C19.6658 1.73889 19.7338 2.02776 19.7338 2.25999C19.6545 2.23167 19.5695 2.15803 19.4902 2.04475C19.4109 1.9258 19.3486 1.86916 19.3146 1.86916C19.2863 1.86916 19.2523 1.89748 19.207 1.94846C19.2637 2.53753 19.3939 3.39847 19.6035 4.53129C19.7508 5.31294 19.8414 5.83404 19.8754 6.10592V6.12292ZM14.6304 1.66525C14.6304 1.66525 14.5001 1.69924 14.3189 1.73322C14.1376 1.76721 13.9847 1.85783 13.8544 1.99377C13.7072 1.99377 13.6109 1.95978 13.5599 1.89748C13.5089 1.83517 13.4863 1.73322 13.4863 1.59728C13.4863 1.50666 13.4863 1.41603 13.4976 1.32541C13.5089 1.23478 13.5146 1.14415 13.5259 1.05353C13.5259 0.979893 13.5259 0.928915 13.5146 0.889266C13.5146 0.809969 13.5429 0.753327 13.5939 0.725006C13.6505 0.770319 13.6732 0.855285 13.6732 0.98556C13.6619 1.11017 13.6619 1.20646 13.6619 1.26877C13.6619 1.35939 13.6732 1.43869 13.6958 1.50099C13.7185 1.5633 13.7978 1.58029 13.9337 1.55763C14.0244 1.484 14.0697 1.37638 14.0697 1.22911C14.0697 1.19513 14.0697 1.13282 14.0583 1.05353C14.047 0.974229 14.047 0.906261 14.047 0.860948C14.047 0.736338 14.0867 0.628718 14.1716 0.54942C14.1999 0.594733 14.2169 0.736335 14.2339 0.968564C14.2453 1.20646 14.3302 1.33107 14.4832 1.34806C14.4832 1.29142 14.4775 1.21212 14.4605 1.10451C14.4492 0.996887 14.4378 0.934579 14.4378 0.928915C14.4378 0.792976 14.4775 0.696686 14.5624 0.645709C14.5794 0.725007 14.6078 0.843955 14.6531 0.996886C14.6927 1.14982 14.7154 1.26877 14.7154 1.34806C14.7154 1.45568 14.6871 1.5633 14.6361 1.65959L14.6304 1.66525ZM14.2509 3.2682L13.8544 4.08383C13.7525 4.04984 13.6505 3.99887 13.5429 3.93656C13.373 3.82895 13.2031 3.72133 13.0388 3.60805C13.0388 3.47211 13.0954 3.32484 13.2144 3.16058C13.3956 2.90569 13.4976 2.76409 13.5146 2.74144C13.6619 2.78675 13.7865 2.84905 13.8997 2.93401C14.013 3.01331 14.1263 3.12659 14.2453 3.27386L14.2509 3.2682ZM13.3107 0.00566533C12.1495 0.402154 10.9941 0.804306 9.84424 1.20079C8.50184 1.67092 7.36335 2.10705 6.41745 2.50354C6.29283 2.56018 6.17955 2.64515 6.08893 2.76409C5.9983 2.88304 5.96432 3.00198 5.98131 3.11527C6.08893 2.99065 6.23619 2.8887 6.41745 2.8094C6.5987 2.7301 6.77429 2.66214 6.94987 2.59983L12.9425 0.38516L13.2824 0.124611L13.3107 0V0.00566533ZM8.08836 1.01388C8.08836 1.16114 8.07703 1.27443 8.04871 1.35372C8.02039 1.43302 7.98641 1.50099 7.94109 1.55763C7.8618 1.5463 7.78816 1.52931 7.72586 1.49533C7.66355 1.46134 7.6239 1.4047 7.60125 1.32541C7.60125 1.09884 7.61258 0.92325 7.63523 0.804304C7.65789 0.679693 7.70886 0.543757 7.79383 0.390826C7.81082 0.447467 7.81082 0.538091 7.78816 0.668366C7.76551 0.798641 7.75418 0.883604 7.75418 0.917589C7.75418 1.05353 7.81082 1.14415 7.92977 1.18946L8.09402 1.01388H8.08836ZM12.0023 5.73209C12.0363 5.7774 12.0589 5.84537 12.0589 5.936C12.0589 6.00963 12.0476 6.08327 12.0193 6.16256C11.9909 6.24186 11.9626 6.31549 11.923 6.38912C11.8607 6.44577 11.804 6.47975 11.753 6.50241C11.7021 6.52507 11.6511 6.5194 11.5944 6.47975C11.4755 6.32682 11.4189 6.16256 11.4189 5.99264C11.4189 5.81139 11.4982 5.5735 11.6511 5.2733C11.7247 5.13736 11.7984 5.00142 11.8663 4.86548C11.8777 4.9731 11.8323 5.13736 11.7417 5.35259C11.6511 5.56783 11.6058 5.72642 11.6058 5.82838C11.6058 5.936 11.6341 6.02662 11.6851 6.10026C11.7927 6.13424 11.8663 6.08893 11.9003 5.96432C11.9343 5.83971 11.9683 5.76041 11.9966 5.73209H12.0023ZM17.2359 5.6358C17.2189 5.52818 17.134 5.08071 16.9924 4.28774C16.8224 3.37015 16.7035 2.63948 16.6412 2.0844C16.6752 2.02209 16.7205 1.98811 16.7658 1.98811C16.8224 1.98811 16.9074 2.0674 17.0263 2.22033C17.117 2.33928 17.1736 2.40725 17.1906 2.42424C17.1906 2.10705 17.0717 1.7049 16.8394 1.21212C16.5789 0.668366 16.4203 0.277543 16.3636 0.045314C16.2617 0.13594 16.1824 0.249221 16.1144 0.38516C16.0464 0.521099 15.9841 0.651376 15.9332 0.781651C15.9615 0.974231 16.2334 2.53753 16.7488 5.48287C16.9414 6.54206 17.0717 7.49363 17.1453 8.33758C16.9074 8.53583 16.6752 8.69442 16.4373 8.81337C16.1994 8.93232 15.9558 8.98896 15.7009 8.98896C15.0099 8.80771 14.5568 8.19598 14.3302 7.15378C14.149 6.30417 14.0413 5.82838 14.0017 5.72642C13.8941 5.84537 13.8204 5.96998 13.7751 6.10592C13.7298 6.24186 13.7128 6.38913 13.7128 6.54206C13.8035 7.05183 13.8997 7.55027 13.996 8.04871C13.8488 8.25828 13.6788 8.41122 13.4806 8.50184C13.2824 8.59813 13.0615 8.64345 12.8122 8.64345C12.6763 8.64345 12.5404 8.63212 12.4044 8.6038C12.2232 8.6038 12.1325 8.51884 12.1325 8.34325C12.1325 8.26395 12.1325 8.17332 12.1439 8.07703C12.1552 7.98074 12.1552 7.91844 12.1439 7.87879C11.9513 8.13368 11.7644 8.38856 11.5718 8.63778C11.4528 8.73973 11.3339 8.81337 11.2093 8.86435C11.0847 8.91532 10.9601 8.93798 10.8241 8.93798C10.7165 8.93798 10.6032 8.91532 10.4843 8.87001C10.3767 8.85868 10.303 8.83036 10.2577 8.77372C10.2181 8.71708 10.1954 8.64911 10.1954 8.56981C10.1954 8.5245 10.2067 8.43387 10.2294 8.29793C10.2521 8.162 10.2577 8.07137 10.2521 8.02606C10.0708 8.23563 9.89521 8.43954 9.71963 8.63778C9.49306 8.88134 9.2665 9.02294 9.03993 9.05693C8.76805 9.05693 8.56981 9.03993 8.43954 9.00028C8.31493 8.9663 8.20731 8.90966 8.12801 8.83036C8.04871 8.75107 8.0034 8.67176 8.0034 8.59247C8.0034 8.55848 8.02606 8.47352 8.07703 8.34891C8.12801 8.2243 8.145 8.11668 8.13934 8.03739C7.403 8.53583 6.99519 8.80204 6.91589 8.84169C6.63268 8.97763 6.37213 9.0456 6.12858 9.0456C5.919 9.0456 5.73209 9.01161 5.5565 8.93798C5.36392 8.83036 5.21665 8.68309 5.10337 8.50184C4.99009 8.32059 4.89946 8.12235 4.83716 7.90145C4.71821 7.21043 4.64458 6.38346 4.61059 5.40924C4.57661 4.43501 4.54829 3.50043 4.51997 2.59983C4.46333 1.58596 4.36137 0.730673 4.20844 0.0283223L3.80062 0.832626C3.93656 1.73889 4.03852 2.56018 4.11215 3.30218C4.18578 4.03852 4.21977 4.78618 4.21977 5.53951C4.25375 6.32682 4.29907 7.11413 4.34438 7.90711C4.435 8.81337 4.7352 9.48174 5.23931 9.91787C5.35826 9.97451 5.44888 10.0028 5.51685 10.0142C5.58482 10.0255 5.68677 10.0255 5.82271 10.0255C6.15123 10.0255 6.48542 9.9292 6.83093 9.74229C7.07448 9.60635 7.36335 9.39677 7.7032 9.11923L7.74285 9.69131C7.83348 9.81025 7.94676 9.89522 8.08836 9.95186C8.22996 10.0085 8.38289 10.0481 8.54149 10.0765C8.78505 10.0595 9.01728 9.99717 9.22685 9.90088C9.44209 9.79893 9.62334 9.66299 9.77627 9.49306L10.0085 9.76494C10.1897 9.88389 10.3937 9.94053 10.6202 9.94053C10.6542 9.94053 10.6995 9.94053 10.7562 9.9292C10.9657 9.9292 11.164 9.84424 11.3566 9.66865C11.5038 9.50439 11.6454 9.3458 11.7927 9.19287L12.0532 9.46474C12.2458 9.57236 12.4497 9.629 12.6763 9.629C12.8292 9.629 12.9822 9.61201 13.1238 9.58369C13.271 9.5497 13.424 9.50439 13.5882 9.44208C13.7355 9.36279 13.8488 9.23251 13.9394 9.06259C13.996 8.95497 14.0527 8.79071 14.115 8.57547C14.2849 8.99462 14.4662 9.31181 14.6474 9.52705C14.8003 9.7083 14.9646 9.83291 15.1289 9.89522C15.2988 9.95752 15.4574 9.9915 15.6103 9.9915C15.8935 9.9915 16.1711 9.92354 16.4486 9.78193C16.7261 9.64033 16.9697 9.45908 17.1736 9.23252C17.3209 8.66044 17.3888 8.07704 17.3888 7.47664C17.3888 6.94988 17.3322 6.33815 17.2246 5.64146L17.2359 5.6358ZM9.89522 3.5684C9.89522 3.5684 9.90654 3.62504 9.90654 3.64769V3.71566C9.90654 3.83461 9.8499 3.89125 9.74228 3.89125C9.64033 3.87992 9.5667 3.87992 9.51005 3.87992C9.37412 3.87992 9.30615 3.95922 9.30615 4.12348C9.27216 4.42368 9.23818 4.67856 9.20986 4.88247C9.18154 5.09204 9.12489 5.27896 9.03427 5.43755C9.00595 5.40923 8.90399 5.16001 8.72274 4.68989C8.6038 4.3727 8.41122 4.23676 8.13934 4.28208C8.04871 4.23676 8.0034 4.16879 8.0034 4.07817C8.0034 4.02153 8.02606 3.94223 8.07137 3.83461C8.11668 3.72699 8.145 3.65902 8.16199 3.6307C8.17332 3.60238 8.21297 3.59105 8.27528 3.59671C8.33758 3.59671 8.37723 3.60804 8.39989 3.61937C8.50184 3.74398 8.6038 3.90258 8.71141 4.08383C8.81903 4.26508 8.94364 4.52563 9.07958 4.85981C9.13622 4.44067 9.17587 4.19145 9.20419 4.10082C9.28349 3.81762 9.41943 3.60804 9.61201 3.46078C9.74795 3.43246 9.84424 3.47211 9.89522 3.5684ZM5.44888 2.27698C5.4772 2.14104 5.49419 2.03909 5.50552 1.97678C5.51685 1.91448 5.51685 1.80686 5.51685 1.66525C5.51685 1.16681 5.4149 0.702354 5.21665 0.277545L5.36392 0.130277C5.48287 0.237895 5.56783 0.379497 5.62447 0.54942C5.68111 0.719344 5.70377 0.900597 5.70377 1.08185C5.70377 1.29709 5.68111 1.49533 5.64146 1.67092C5.60181 1.84651 5.53384 2.05041 5.44322 2.27698H5.44888ZM14.2453 9.72529C14.2792 9.79892 14.2736 9.87256 14.2169 9.95186C14.1603 10.0312 14.0923 10.0821 14.013 10.1105C13.3786 10.337 12.7499 10.5692 12.1212 10.8015C12.1495 10.5579 12.3081 10.3937 12.597 10.3144C13.0161 10.1954 13.2484 10.1218 13.305 10.0821L14.2453 9.73096V9.72529ZM6.86491 5.95865C6.86491 6.1569 6.84792 6.30416 6.8196 6.39479C6.78561 6.48542 6.73464 6.55905 6.661 6.61003C6.57038 6.63835 6.49108 6.61003 6.41745 6.54206C6.38912 6.51374 6.34381 6.4401 6.28151 6.32682C6.27018 6.23619 6.27018 6.16823 6.27018 6.12292C6.27018 5.77174 6.36647 5.43756 6.55338 5.13169C6.50807 5.28463 6.47409 5.4149 6.44577 5.52818C6.41745 5.6358 6.40612 5.73775 6.40612 5.82838C6.40612 5.93033 6.42311 6.02096 6.46276 6.10026C6.49674 6.14557 6.53639 6.18522 6.57038 6.22487C6.60436 6.26452 6.64967 6.27018 6.69499 6.25319L6.87058 5.96998L6.86491 5.95865ZM2.28264 0.54942C2.24865 0.651374 2.20901 0.747664 2.17502 0.849618C2.05607 0.742 1.93713 0.70235 1.82385 0.725006C1.71623 0.872274 1.65392 1.1215 1.64826 1.47834C1.63693 1.83517 1.58595 2.09006 1.484 2.23166C1.42169 2.17502 1.30841 1.94846 1.14415 1.54064C1.02521 1.23478 0.832625 1.07618 0.560748 1.07618C0.504107 1.03087 0.48145 0.974229 0.48145 0.911923C0.48145 0.877939 0.492778 0.82696 0.521099 0.764655C0.549419 0.70235 0.560748 0.651376 0.560748 0.617391C0.623053 0.515437 0.696686 0.470123 0.775984 0.470123C0.809969 0.470123 0.843954 0.487114 0.872274 0.526763C1.00821 0.662702 1.1215 0.838291 1.21212 1.05919C1.30275 1.27443 1.39337 1.47834 1.484 1.67092C1.51798 1.43302 1.55763 1.2008 1.59162 0.962903C1.65392 0.702353 1.7672 0.498444 1.93146 0.351177C1.99377 0.362505 2.06174 0.373833 2.13537 0.390826C2.20901 0.407818 2.25998 0.46446 2.28264 0.555086V0.54942ZM2.31096 2.71311C2.31096 2.89437 2.24865 3.06995 2.12971 3.23421C2.0051 3.40413 1.8465 3.52875 1.64826 3.60805C1.63693 3.60805 1.56896 3.6307 1.43869 3.67602C1.30841 3.72133 1.20646 3.73266 1.13282 3.71566C1.31408 3.62504 1.43302 3.56839 1.484 3.54007C1.69924 3.41546 1.90314 3.25687 2.09572 3.07562C1.97111 3.05862 1.85783 3.04163 1.75588 3.0303C1.65392 3.01897 1.55763 3.00765 1.45568 3.00765C1.30841 3.00765 1.1838 3.0303 1.07618 3.06995C0.968564 3.1096 0.883602 3.18324 0.815633 3.27953C0.787312 3.22288 0.804305 3.15492 0.855282 3.06429C0.934579 2.96234 0.99122 2.89436 1.01954 2.84905C1.09317 2.78675 1.1838 2.74143 1.29142 2.71311C1.39904 2.68479 1.50666 2.67346 1.61994 2.67346C1.73888 2.67346 1.85217 2.67347 1.96545 2.6848C2.07873 2.69612 2.19201 2.70179 2.31096 2.71311ZM1.59162 5.16001C1.61994 5.21665 1.61427 5.29029 1.58595 5.39224C1.55197 5.4942 1.51232 5.60748 1.45568 5.73209C1.39904 5.78873 1.33673 5.81139 1.2631 5.81139C1.20646 5.81139 1.16114 5.7944 1.12716 5.75475C1.04786 5.61881 1.00255 5.48853 1.00255 5.35826C1.00255 5.22232 1.0422 5.05239 1.12716 4.85415C1.25177 4.54829 1.31974 4.3727 1.33107 4.33872C1.33107 4.40102 1.31408 4.48598 1.27443 4.59927C1.19513 4.85415 1.14982 5.01841 1.14982 5.08638C1.14982 5.22232 1.20079 5.34126 1.29708 5.43755C1.35939 5.45455 1.41037 5.44888 1.44435 5.40924C1.47833 5.37525 1.52365 5.28463 1.58029 5.14869L1.59162 5.16001ZM3.46644 7.85047C3.22288 8.33192 2.71878 8.71708 1.95979 9.00595C0.991221 9.37978 0.38516 9.65732 0.152931 9.8499C0.215236 9.71396 0.311526 9.5667 0.436137 9.41377C0.606061 9.22119 0.736335 9.08525 0.815633 8.99462C0.617389 8.87001 0.470122 8.77372 0.379496 8.71142C0.209572 8.59247 0.0792977 8.46219 0 8.31493C0.254885 7.82781 0.521099 7.44265 0.804305 7.17078C1.19513 6.79694 1.6256 6.61569 2.09572 6.61569L2.31096 6.88757C2.34494 6.9612 2.3676 7.03483 2.3676 7.1198C2.3676 7.24441 2.3053 7.38601 2.18635 7.53894C2.06174 7.69188 1.94279 7.83914 1.82385 7.97508C1.81252 7.96375 1.7672 7.88446 1.68224 7.73719C1.59728 7.58992 1.50666 7.49363 1.41603 7.45964C1.16114 7.43132 0.945908 7.49929 0.764656 7.66355C1.11017 8.03738 1.55197 8.21864 2.09572 8.21864C2.24299 8.21864 2.41291 8.19598 2.61116 8.15067C2.89436 8.04871 3.17757 7.95242 3.46644 7.85047Z" fill="white"/>
</svg>
