<svg width="20" height="12" viewBox="0 0 20 12" fill="none" xmlns="http://www.w3.org/2000/svg">
<path fill-rule="evenodd" clip-rule="evenodd" d="M20 2.23404C19.9291 2.16903 19.8759 2.10993 19.8345 2.04492C19.6749 1.80851 19.5922 1.6844 19.5863 1.67849C19.5449 1.7435 19.5213 1.82033 19.5035 1.90898C19.4858 1.99764 19.4799 2.0922 19.4799 2.18676C19.4799 2.31087 19.4917 2.48227 19.5095 2.68913C19.5272 2.89598 19.539 3.01418 19.539 3.03782C19.5567 3.26832 19.5922 3.64066 19.6454 4.16076C19.734 5.03546 19.7754 5.6974 19.7754 6.14657C19.7754 6.7435 19.734 7.28132 19.6454 7.74823C19.5567 8.21513 19.4031 8.65839 19.1726 9.06619C19.2435 8.75887 19.2967 8.4279 19.3321 8.0792C19.3676 7.7305 19.3853 7.36407 19.3853 6.98582C19.3853 6.51891 19.3026 5.43144 19.1371 3.71158C19.0603 2.89007 19.0189 2.22813 19.0189 1.72577C19.0189 1.58983 19.0189 1.45981 19.0071 1.3357C19.0012 1.21158 18.9894 1.08156 18.9834 0.957446C18.9834 0.762411 19.0071 0.596926 19.0485 0.472813C19.0898 0.348699 19.1903 0.218676 19.3381 0.0945626C19.4799 0.443262 19.6277 0.786052 19.7754 1.13475C19.9232 1.53664 20 1.90307 20 2.23404ZM15.5083 2.97872C15.4846 3.00827 15.4492 3.026 15.4019 3.026C15.3783 3.026 15.3546 3.02601 15.3251 3.01418C15.2955 3.00827 15.2719 2.99645 15.2482 2.99054L15.1773 2.91962C15.1005 3.04374 15.0532 3.11466 15.0355 3.13239C14.9823 3.18558 14.9232 3.21513 14.87 3.21513C14.7931 3.20922 14.7222 3.19149 14.669 3.16194C14.6158 3.13239 14.5804 3.08511 14.5745 3.01418C14.5745 2.81915 14.5863 2.66548 14.6099 2.5591C14.6336 2.45272 14.6868 2.34043 14.7754 2.22222C14.7991 2.28723 14.7931 2.37589 14.7636 2.5C14.734 2.62411 14.7163 2.68913 14.7163 2.69504C14.7163 2.78369 14.7577 2.8487 14.8345 2.89598C14.8877 2.90189 14.935 2.89598 14.9764 2.87825C15.0177 2.86052 15.0591 2.82506 15.1064 2.77778C15.1123 2.75414 15.1182 2.7305 15.1182 2.70095V2.64775C15.1123 2.52955 15.1064 2.4409 15.1064 2.38771C15.1064 2.2695 15.1478 2.18676 15.2246 2.13948C15.2187 2.29905 15.2128 2.41135 15.2128 2.48227C15.2128 2.60638 15.266 2.68912 15.3783 2.7305C15.4492 2.71277 15.4905 2.69504 15.5083 2.6714C15.4669 2.57092 15.4492 2.47045 15.4492 2.37589C15.4492 2.28723 15.4669 2.2104 15.5083 2.13948C15.5378 2.16903 15.5674 2.2104 15.5851 2.25768C15.6028 2.30496 15.6147 2.37589 15.6147 2.47045C15.6147 2.53546 15.6028 2.61229 15.5851 2.70095C15.5674 2.7896 15.5378 2.88416 15.5083 2.97872ZM15.9102 0.200946C15.2541 0.437352 14.74 0.620568 14.3617 0.744681C13.8357 0.916076 13.3097 1.08747 12.7896 1.25295C12.1277 1.47163 11.6135 1.64894 11.2411 1.78487C11.1525 1.83215 11.0697 1.87352 10.9811 1.91489C10.7861 2.01537 10.6856 2.13357 10.6856 2.2695C11.4243 1.94444 12.24 1.63712 13.1206 1.3357C13.9421 1.07565 14.7636 0.809693 15.591 0.543735C15.7092 0.490544 15.7861 0.443262 15.8274 0.413711C15.9043 0.342789 15.9338 0.271868 15.9102 0.200946ZM10.8274 0.945627C10.8038 1.11111 10.7506 1.25887 10.6619 1.38889C10.5733 1.51891 10.4551 1.60166 10.2955 1.63121C10.1537 1.66076 10.0414 1.60165 9.95272 1.4539C9.95272 1.27069 10.0059 1.09338 10.1064 0.916075C10.2069 0.73877 10.3132 0.561466 10.4137 0.390071C10.4314 0.437352 10.4137 0.508274 10.3723 0.596927C10.331 0.685579 10.3132 0.750591 10.3191 0.780142L10.4492 0.614657C10.5142 0.638297 10.5851 0.679669 10.6678 0.744681C10.7506 0.809693 10.8038 0.874705 10.8274 0.945627ZM15.8156 9.60993C15.8629 9.67494 15.857 9.74586 15.8038 9.82269C15.7151 9.9409 15.6738 10.0118 15.6738 10.0355C15.6206 10.0414 15.5733 10.0296 15.5319 9.98818C15.4905 9.94681 15.4551 9.89953 15.4137 9.83452C15.4078 9.80497 15.4019 9.75768 15.4019 9.69267C15.4019 9.50946 15.4669 9.3026 15.6028 9.06619C15.6738 8.94799 15.7447 8.82979 15.8156 8.71158C15.8156 8.76477 15.7624 8.91253 15.6619 9.14894C15.6087 9.27305 15.5792 9.37352 15.5792 9.44444V9.55083C15.5969 9.61584 15.6324 9.67494 15.6974 9.73995L15.8156 9.60993ZM7.3286 3.91253C7.44681 3.69976 7.50591 3.42199 7.50591 3.07329C7.50591 2.60047 7.39953 2.18085 7.18676 1.82033L7.3286 1.53664C7.5591 1.90898 7.67139 2.31087 7.67139 2.75414C7.67139 3.1974 7.5591 3.58747 7.3286 3.91253ZM13.4043 7.65957C13.1383 7.84279 12.9255 7.9669 12.7778 8.03782C12.5177 8.16194 12.2813 8.22695 12.0686 8.22695C11.8853 8.22695 11.7199 8.18558 11.5721 8.09693C11.5012 8.02601 11.4657 7.93735 11.4657 7.83688C11.4657 7.78369 11.4835 7.73641 11.513 7.69504C11.5898 7.60638 11.6785 7.51773 11.773 7.42317C11.8676 7.32861 11.9681 7.26359 12.0804 7.22222C12.039 7.17494 11.9858 7.14539 11.9208 7.13357C11.8558 7.12175 11.7908 7.10993 11.7258 7.0922C11.6962 7.12175 11.6726 7.14539 11.6667 7.1513C11.6608 7.15721 11.6489 7.16903 11.643 7.17494L11.6076 7.1513C11.6608 6.96218 11.7908 6.86761 11.9858 6.86761C12.1336 6.86761 12.2695 6.91489 12.3877 7.00946C12.4113 7.1513 12.305 7.28723 12.0626 7.41726C11.8203 7.54728 11.7021 7.63593 11.7021 7.68322C11.7021 7.75414 11.7908 7.83688 11.974 7.93144C12.0272 7.94917 12.1099 7.95508 12.2222 7.95508C12.3818 7.95508 12.5946 7.9078 12.8664 7.81324C13.1383 7.71868 13.3156 7.66548 13.4043 7.65957ZM17.2931 1.974C17.2931 1.69622 17.2045 1.36525 17.0331 0.981087C16.8026 0.478723 16.6726 0.147754 16.6312 0C16.5544 0.0650118 16.4716 0.159574 16.383 0.295508C16.3416 0.36052 16.2825 0.472813 16.1939 0.638298C16.2825 1.34161 16.3652 2.03901 16.4539 2.7305C16.5721 3.69976 16.6548 4.48582 16.708 5.08865C16.7612 5.69149 16.7849 6.32979 16.7849 7.00946C16.4953 7.19267 16.1288 7.35225 15.6856 7.49409C15.3073 7.60638 14.935 7.71277 14.5626 7.81915C14.1903 7.92553 13.8357 8.07329 13.4988 8.26241C13.1974 8.4279 12.8901 8.63475 12.565 8.88889C12.3345 9.07802 12.1099 9.26123 11.8794 9.44444C11.4362 9.79906 11.0461 10.065 10.7092 10.2364C10.6797 10.2423 10.6265 10.2541 10.5556 10.266C10.4846 10.2778 10.4196 10.2837 10.3664 10.2837C10.1714 10.2837 10.0177 10.2305 9.91726 10.1182C9.78132 9.92908 9.71631 9.7104 9.71631 9.46809C9.71631 9.28487 9.74586 9.08983 9.81087 8.88298C9.87589 8.67612 9.94681 8.48109 10.0355 8.29787C10.2423 8.27423 10.396 8.10284 10.5083 7.77778C10.5792 7.56501 10.6383 7.42908 10.6856 7.36407C10.7092 7.29314 10.721 7.22222 10.721 7.1513C10.721 7.0331 10.6856 6.90898 10.6147 6.78487C10.5733 6.70804 10.5024 6.60166 10.3901 6.47754C10.7388 6.32979 11.0993 6.21158 11.4835 6.12884C11.8676 6.0461 12.2577 6.00473 12.6596 6.00473C13.1028 6.00473 13.5284 6.02246 13.9362 6.05792C14.344 6.09338 14.7222 6.15248 15.0709 6.22931C15.1596 6.1052 15.2482 5.96927 15.3487 5.82742C15.4492 5.68558 15.5142 5.56738 15.5556 5.47281C15.13 5.4078 14.6277 5.26596 14.0544 5.04728C13.5756 4.85816 13.0969 4.66903 12.63 4.474C12.1631 4.27896 11.779 4.14303 11.4775 4.06619C11.0579 3.9539 10.656 3.90071 10.2719 3.90071C10.2187 3.90071 10.1418 3.90071 10.0473 3.90662C9.95272 3.90662 9.79314 3.93026 9.56265 3.95981C9.33215 3.95981 9.16667 4.07801 9.05437 4.31442C8.98936 4.50355 8.93026 4.69267 8.86525 4.8818L10.1064 4.75177C10.2246 4.72813 10.3369 4.71631 10.4492 4.71631C10.7388 4.71631 11.1288 4.81679 11.6194 5.02364C11.9267 5.14775 12.1513 5.24232 12.2931 5.29551C11.2234 5.50827 10.1596 5.74468 9.10165 6.00473C9.02482 6.17021 8.90071 6.3357 8.74113 6.50118C8.58156 6.66667 8.42199 6.82624 8.27423 6.974C8.06147 7.16312 7.81324 7.25768 7.52955 7.25768C7.41135 7.25768 7.28132 7.23995 7.13948 7.19858C6.97991 7.19858 6.87943 7.09811 6.82624 6.90307C6.77305 6.70804 6.73168 6.58392 6.70213 6.53664C6.6844 6.53073 6.65485 6.54846 6.60756 6.59575C6.50709 6.69622 6.43026 6.79669 6.38889 6.89716C6.34752 6.99764 6.32388 7.09811 6.32388 7.2104C6.32388 7.34634 6.38298 7.57092 6.49527 7.89007C6.60756 8.20922 6.66667 8.45745 6.66667 8.62884C6.66667 8.69976 6.66667 8.75296 6.65485 8.78251C6.45981 8.98936 6.25295 9.16076 6.03428 9.30851C5.8156 9.45627 5.45508 9.63948 4.95272 9.86998C4.54492 10.0355 4.14303 10.1655 3.74704 10.266C3.35106 10.3664 2.96099 10.4137 2.57683 10.4137C2.19267 10.4137 1.83215 10.3546 1.50709 10.2305C1.18203 10.1064 0.892435 9.90544 0.650118 9.62175C0.466903 9.38534 0.37825 9.10757 0.37825 8.79433C0.37825 8.51064 0.478723 8.12057 0.685579 7.62411C0.821513 7.31087 0.904255 7.10402 0.933806 7.00946C0.774232 7.29906 0.620567 7.58865 0.472813 7.87234C0.159575 8.487 0 9.00118 0 9.4208C0 9.5922 0.0236407 9.76359 0.0768322 9.92908C0.130024 10.0946 0.206855 10.2541 0.307328 10.4019C0.585106 10.7033 0.898345 10.9161 1.25887 11.0402C1.61939 11.1643 2.01537 11.2293 2.45863 11.2293C2.78369 11.2293 3.09102 11.1998 3.38061 11.1407C3.67021 11.0816 3.95981 10.9929 4.2435 10.8747C5.04728 10.5674 5.67967 10.2246 6.13475 9.84634C6.77896 9.30851 7.10402 8.70567 7.10402 8.026C7.13357 8.03191 7.18085 8.03782 7.24586 8.03782C7.5 8.03782 7.74823 7.93144 7.99054 7.71868C8.10875 7.60638 8.29196 7.39953 8.5461 7.0922L8.61702 7.39953C8.67021 7.65367 8.8357 7.86052 9.11347 8.026C9.32033 8.15012 9.57447 8.24468 9.8818 8.29787C9.81678 8.45745 9.75768 8.61111 9.69267 8.76478C9.62766 8.91844 9.58038 9.0721 9.53901 9.21986C9.51537 9.36761 9.50355 9.46809 9.49764 9.50946C9.49764 9.55083 9.49764 9.61584 9.49764 9.69267C9.49764 9.92908 9.5331 10.1359 9.60402 10.3132C9.67494 10.4905 9.79314 10.6324 9.95863 10.7447C10.0591 10.7979 10.1714 10.8274 10.2896 10.8274C10.4137 10.8097 10.5437 10.7979 10.6678 10.792C10.9515 10.6678 11.2411 10.4965 11.5426 10.2837C11.6194 10.2305 11.8972 10.0177 12.37 9.65721C12.7305 9.39125 13.0142 9.19622 13.221 9.07802C13.5225 8.90662 13.8298 8.78251 14.143 8.71158C14.7872 8.49882 15.4374 8.28014 16.0816 8.06147C16.8321 7.77187 17.2045 7.27541 17.2045 6.5721L16.8144 1.54846L16.8853 1.48936C16.9563 1.53664 17.0331 1.61938 17.1217 1.7435C17.2104 1.86761 17.2695 1.94444 17.2991 1.974H17.2931ZM3.53428 1.07565L3.487 1.34752C3.45745 1.34752 3.39835 1.31206 3.30969 1.23522C3.22104 1.15839 3.15012 1.14657 3.09693 1.19385C3.05556 1.28251 3.026 1.47754 2.99645 1.77896C2.9669 2.08038 2.90189 2.29314 2.7896 2.41135C2.74823 2.35816 2.68913 2.22222 2.61229 2.00946C2.49409 1.6844 2.35225 1.53073 2.18676 1.54846C2.0922 1.54846 2.02719 1.51891 1.99764 1.46572C1.96809 1.41253 1.95035 1.35343 1.95035 1.30024C1.95035 1.2766 1.95626 1.23522 1.974 1.17021C1.99173 1.14657 2.01537 1.09338 2.04492 1.01655C2.07447 0.939716 2.12175 0.880615 2.18676 0.851064C2.33452 0.951537 2.46454 1.12293 2.57683 1.35934C2.66548 1.55437 2.75414 1.75532 2.8487 1.95035C2.87234 1.75532 2.90189 1.55437 2.93144 1.34752C2.98463 1.11702 3.08511 0.945626 3.22695 0.827423C3.34515 0.851064 3.44563 0.933806 3.53428 1.07565ZM4.52719 4.78723C4.49764 4.91135 4.45035 5.02364 4.39125 5.12411C4.33215 5.22459 4.23759 5.3487 4.11347 5.49645L3.46336 5.0591C3.52837 4.91726 3.59338 4.79314 3.6643 4.69267C3.70567 4.62766 3.78842 4.51537 3.92435 4.34988C4.03664 4.37943 4.14303 4.43853 4.25532 4.52719C4.32624 4.58038 4.41489 4.66903 4.52719 4.78723ZM8.6643 9.08984C8.69385 9.14303 8.69385 9.20804 8.65839 9.28487C8.62293 9.3617 8.59929 9.40307 8.59338 9.40898C8.55201 9.39125 8.50473 9.38534 8.45154 9.38534H8.32151C8.18558 9.38534 8.07329 9.39716 7.97281 9.42671C7.87234 9.45627 7.78369 9.50946 7.70685 9.58629C7.74823 9.85225 7.78369 10.1241 7.82506 10.4019C7.83097 10.4551 7.83688 10.5378 7.83688 10.6383C7.83688 10.8511 7.79551 11.0402 7.70685 11.2057C7.72459 11.1643 7.7305 11.1229 7.7305 11.0756V10.9693C7.7305 10.8333 7.71277 10.6974 7.68322 10.5556C7.65366 10.4137 7.62411 10.2778 7.59456 10.1537C7.56501 10.0296 7.55319 9.91135 7.55319 9.81087C7.55319 9.68676 7.57092 9.58038 7.60638 9.49173C7.64184 9.40308 7.71868 9.31442 7.83688 9.21986L8.26241 9.08984C8.21513 9.04255 8.15012 9.01891 8.06147 9.01891C7.99645 9.01891 7.94326 9.03073 7.90189 9.06028C7.86052 9.08983 7.81915 9.11939 7.7896 9.14894C7.76596 9.09575 7.77778 9.03664 7.81915 8.97754C7.86052 8.91844 7.90189 8.85934 7.94326 8.80615C8.02009 8.76478 8.09693 8.74705 8.16785 8.74705C8.26832 8.74705 8.36879 8.7766 8.46336 8.84161C8.55792 8.90662 8.62293 8.98936 8.6643 9.08984ZM2.18676 2.77778C2.11584 2.92553 1.94444 3.21513 1.66667 3.64066C1.2234 4.32033 1.00473 4.84634 1.00473 5.22459C1.00473 5.39007 1.03428 5.54374 1.08747 5.69149C1.14066 5.83924 1.24704 5.987 1.3948 6.13475C1.48936 6.14066 1.5721 6.11702 1.64303 6.05792C1.71395 5.99882 1.76123 5.91608 1.78487 5.8156C1.8026 5.78605 1.81442 5.7565 1.82033 5.73877C1.82624 5.72104 1.84397 5.71513 1.86761 5.72104C1.86761 6.00473 1.83806 6.23523 1.78487 6.40662C1.70804 6.64303 1.56619 6.82624 1.37116 6.96217C1.11111 7.00946 0.916076 6.90898 0.791962 6.66667C0.6974 6.36525 0.650118 6.08156 0.650118 5.80378C0.650118 5.28369 0.809693 4.73995 1.13475 4.17258C1.37707 3.74113 1.73168 3.27423 2.18676 2.77778ZM4.70449 7.56501L4.63357 7.81324C4.5331 7.77187 4.43853 7.75414 4.3617 7.75414C4.24941 7.75414 4.19622 7.81324 4.19622 7.93144C4.16667 8.16194 4.13121 8.34515 4.10166 8.487C4.0721 8.62884 4.02482 8.7766 3.97163 8.92435C3.90662 8.87116 3.81797 8.69976 3.69976 8.41607C3.63475 8.27423 3.57565 8.16785 3.51064 8.09693C3.50473 8.14421 3.48109 8.16785 3.43972 8.16785C3.41608 8.16785 3.38061 8.15012 3.33924 8.11466C3.29787 8.0792 3.26832 8.06147 3.25059 8.06147C3.1974 8.01418 3.16785 7.96099 3.16785 7.9078C3.16785 7.86052 3.17967 7.80733 3.20922 7.74232C3.23877 7.67731 3.26832 7.6182 3.29787 7.56501C3.46336 7.58274 3.59929 7.68913 3.71158 7.89598C3.80024 8.0792 3.88298 8.2565 3.97163 8.43972C4.03664 8.18558 4.08983 7.97872 4.13121 7.80733C4.17258 7.63593 4.26123 7.50591 4.39716 7.41135C4.50946 7.38771 4.60993 7.4409 4.70449 7.56501ZM10.591 1.24114C10.591 1.17612 10.5615 1.11702 10.5083 1.06383C10.3605 0.916075 10.2837 0.833333 10.2837 0.827423C10.26 0.892435 10.2364 0.951536 10.2128 1.01655C10.1891 1.08156 10.1773 1.12884 10.1773 1.15839C10.1773 1.20567 10.195 1.24705 10.2246 1.28842C10.2719 1.30615 10.3132 1.31206 10.3428 1.31206C10.396 1.31206 10.4787 1.28842 10.591 1.24114ZM10.13 7.43499C9.89362 7.43499 9.66903 7.36998 9.45626 7.24586C9.2435 7.12175 9.0721 6.95627 8.93617 6.76123C9.20213 6.76123 9.43853 6.81442 9.63357 6.92671C9.8286 7.03901 9.99409 7.20449 10.13 7.43499Z" fill="white"/>
</svg>
