<svg width="20" height="10" viewBox="0 0 20 10" fill="none" xmlns="http://www.w3.org/2000/svg">
<path fill-rule="evenodd" clip-rule="evenodd" d="M15.0851 1.47147L15.005 1.77178C14.98 1.75176 14.9349 1.70671 14.8699 1.64165C14.8048 1.57658 14.7497 1.54154 14.6947 1.54154C14.6897 1.56657 14.6697 1.73173 14.6446 2.02703C14.6196 2.32232 14.5646 2.53754 14.4845 2.67268C14.4194 2.62763 14.3093 2.44745 14.1642 2.13214C14.049 1.8969 13.9089 1.7918 13.7337 1.81182C13.6737 1.78679 13.6436 1.73674 13.6436 1.67168C13.6436 1.63164 13.6486 1.59159 13.6637 1.55155C13.6787 1.51151 13.6937 1.47147 13.7137 1.43143C13.7788 1.33133 13.8238 1.28129 13.8438 1.28129C13.959 1.34635 14.0591 1.44645 14.1441 1.58158C14.2492 1.78679 14.3594 1.997 14.4645 2.20221C14.4845 2.03704 14.5095 1.86687 14.5345 1.69169C14.5746 1.4965 14.6446 1.34635 14.7447 1.24125C14.8098 1.26127 14.8599 1.27628 14.8849 1.29129C14.98 1.33634 15.045 1.3964 15.0851 1.47147ZM12.9429 2.6927L12.7528 2.53254C12.5325 2.88789 12.2072 3.1932 11.7718 3.45346C11.5365 3.5936 11.1411 3.77878 10.5806 4.01402C10.956 3.78879 11.3313 3.55856 11.7117 3.32332C12.1471 3.02803 12.4474 2.72773 12.6126 2.41242C12.5475 2.37738 12.4775 2.33734 12.4124 2.29229C12.3323 2.21722 12.2723 2.16717 12.2322 2.13214C12.2523 1.997 12.2923 1.88189 12.3574 1.78179C12.4224 1.68169 12.5125 1.61662 12.6326 1.5916C12.8078 1.55156 12.9079 1.61162 12.9429 1.77178C12.9229 1.81182 12.9079 1.85186 12.9029 1.8919C12.8979 1.93194 12.8929 1.96197 12.8929 1.98199C12.8929 2.04205 12.9279 2.14215 12.993 2.28229C13.028 2.35736 13.043 2.41742 13.043 2.46247C13.043 2.52753 13.008 2.60761 12.9429 2.6927ZM13.013 4.61462L12.963 4.63464C12.9429 4.67968 12.9229 4.72473 12.9079 4.76978C12.8929 4.81482 12.8579 4.82983 12.8028 4.82482C12.7227 4.72472 12.6827 4.59459 12.6827 4.43443C12.6827 4.36937 12.6927 4.27928 12.7177 4.17418C12.7427 4.06908 12.7578 3.97898 12.7728 3.91392C12.6927 4.0941 12.6326 4.24425 12.5976 4.36937C12.5626 4.4945 12.5425 4.64464 12.5425 4.82482C12.5876 4.94494 12.6176 5.01502 12.6326 5.03504C12.6777 5.10011 12.7427 5.12513 12.8228 5.10511C12.8879 5.04005 12.9379 4.96496 12.968 4.87988C12.998 4.79479 13.013 4.70971 13.013 4.61462ZM17.4474 8.89891C17.3473 9.03404 17.2673 9.13414 17.2072 9.20921C17.1121 9.30931 17.022 9.40941 16.9369 9.50951C16.8969 9.47447 16.7518 9.40441 16.4965 9.2893C16.3013 9.20421 16.1912 9.10911 16.1662 9.00901L16.6667 8.44845C16.8519 8.52353 16.997 8.58859 17.1021 8.64365C17.2072 8.6987 17.3223 8.78379 17.4474 8.89891ZM11.0611 0.920927C9.39439 1.38639 7.72272 1.85686 6.05606 2.32232C5.93093 2.33734 5.80581 2.40241 5.69069 2.52253C5.57557 2.64265 5.4955 2.76277 5.45546 2.88289L5.55555 2.78279C6.02102 2.58759 6.59159 2.3974 7.25726 2.20221C7.57257 2.10711 8.15315 1.94695 8.999 1.72172C9.73473 1.52152 10.3153 1.35636 10.7407 1.22122C10.8458 1.16617 10.9159 1.13113 10.9409 1.11111C11.016 1.05606 11.0561 0.996002 11.0611 0.920927ZM20 2.0921C19.96 1.76677 19.8649 1.41642 19.7197 1.05105C19.5746 0.685689 19.4344 0.335335 19.2993 0C19.1241 0.22022 18.999 0.465469 18.9189 0.730734C18.984 1.22623 19.044 1.7968 19.0991 2.45246C19.1542 3.10811 19.2042 3.75376 19.2593 4.3944C19.3143 5.03504 19.3744 5.60561 19.4394 6.10611C19.034 6.10611 18.4835 6.01602 17.7878 5.83584C17.3073 5.71071 16.987 5.63063 16.8268 5.5956C16.9019 5.45546 16.9469 5.32032 16.972 5.1952C16.997 5.07007 17.007 4.90992 17.007 4.71472C17.007 4.5896 16.997 4.42943 16.972 4.23424C16.9469 4.03904 16.9269 3.84885 16.9069 3.66367C17.1872 3.46847 17.3824 3.32833 17.4875 3.24325C17.6927 3.07808 17.8629 2.90791 17.988 2.74275L18.2082 2.88289C18.2332 2.78279 18.2482 2.68769 18.2482 2.5926C18.2432 2.51752 18.2332 2.44244 18.2282 2.36236C18.2232 2.28228 18.2182 2.2022 18.2182 2.12212C18.2182 2.04204 18.2182 1.97698 18.2282 1.93193C18.2032 1.87688 18.1732 1.82683 18.1431 1.77178C18.1131 1.71672 18.0731 1.69169 18.018 1.69169C17.9229 1.72673 17.8478 1.77678 17.7928 1.84185C17.7377 1.90691 17.6877 1.992 17.6476 2.0921C17.6076 2.14715 17.5876 2.1972 17.5876 2.24225C17.5876 2.30731 17.6276 2.38239 17.7077 2.46247C17.7477 2.50251 17.8128 2.56757 17.9079 2.65265C17.7427 2.81281 17.5776 2.95295 17.4174 3.07307C17.2573 3.19319 17.0871 3.30831 16.9069 3.41342C16.8619 3.15316 16.8118 2.88289 16.7618 2.60261C16.7117 2.32233 16.6867 2.07208 16.6867 1.85186C16.6867 1.81182 16.6867 1.76176 16.6867 1.6967C16.6867 1.63163 16.7067 1.52653 16.7317 1.38139C16.7718 1.42643 16.8368 1.52153 16.9219 1.65666C17.007 1.7918 17.0821 1.88689 17.1421 1.94194C17.1471 1.93694 17.1622 1.92192 17.1772 1.9019C17.1922 1.88188 17.2072 1.86687 17.2122 1.85186C17.047 1.45146 16.8819 1.05105 16.7217 0.650652C16.6016 0.390392 16.4715 0.195195 16.3313 0.0700698C16.1962 0.305305 16.1061 0.555555 16.051 0.820821C16.1962 1.78178 16.3463 2.74275 16.4915 3.70371L15.5806 4.26427C15.6757 4.26427 15.8759 4.17918 16.1912 4.01402C16.3163 3.94895 16.4364 3.91392 16.5415 3.91392C16.5415 3.94895 16.5666 4.1892 16.6116 4.64465C16.6266 4.77979 16.6316 4.91992 16.6316 5.07507C16.4715 5.07507 16.2512 5.09009 15.971 5.12513C15.4104 5.19019 15.045 5.22523 14.8699 5.22523H14.7097C14.6547 5.22523 14.6046 5.22523 14.5495 5.21522C14.4845 5.41042 14.4394 5.54054 14.4194 5.61562C14.3794 5.76076 14.3594 5.8959 14.3594 6.01602C14.4344 6.001 14.5345 5.996 14.6697 5.996C14.9249 5.996 15.2653 6.06106 15.6907 6.1962C16.1161 6.33133 16.4264 6.41141 16.6116 6.43644C16.1712 6.58158 15.7357 6.73173 15.3003 6.87688C14.7447 7.05706 14.2693 7.18219 13.8689 7.24725C13.6286 7.28729 13.3834 7.30731 13.1381 7.30731C12.7578 7.30731 12.4074 7.25226 12.0871 7.13714C11.7668 7.02203 11.4715 6.83684 11.1962 6.57658C11.1011 6.48148 11.011 6.38639 10.9209 6.28629C10.8308 6.18619 10.7858 6.09109 10.7858 6.00601C10.7858 5.94595 10.8008 5.89089 10.8258 5.83584C10.7608 5.87087 10.3654 6.24625 9.64464 6.96697C9.37938 7.23224 9.0991 7.39239 8.81381 7.43744C8.67868 7.48248 8.54855 7.50751 8.41341 7.50751C8.18819 7.50751 7.96296 7.44745 7.74274 7.32733C7.56757 7.23223 7.38739 7.09209 7.2022 6.90691C7.44244 6.72673 7.7027 6.60161 7.98799 6.52653C8.27327 6.45146 8.58859 6.41642 8.93393 6.41642C8.98899 6.3013 9.04404 6.18619 9.10911 6.06106C9.17417 5.93594 9.21421 5.82083 9.23423 5.71572C8.71371 5.51052 8.26326 5.36036 7.88288 5.26527C7.38238 5.14014 6.90691 5.07507 6.45145 5.07507C6.15616 5.07507 5.88088 5.10511 5.62563 5.16017C5.37037 5.21522 5.11511 5.30531 4.86987 5.42543C4.82983 5.54055 4.7998 5.65566 4.77477 5.77078C4.74975 5.88589 4.73974 5.99099 4.73974 6.08609C4.73974 6.12112 4.73974 6.16617 4.74975 6.22623L5.1001 6.13614C5.32532 6.21122 5.54054 6.31632 5.74074 6.46146C5.94094 6.60661 6.0961 6.77178 6.2012 6.95696C6.02102 7.08209 5.83583 7.18219 5.65065 7.24725C5.46546 7.31232 5.27027 7.34735 5.07007 7.34735C4.94995 7.34735 4.83984 7.33234 4.73473 7.30731C4.62963 7.28229 4.53453 7.23224 4.43944 7.16717C4.33934 7.12213 4.11411 6.83684 3.75876 6.31632C3.63363 6.13114 3.47848 6.03604 3.2983 6.03604C3.01301 6.24125 2.77277 6.54154 2.57758 6.93694C2.09209 7.91792 1.78178 8.46847 1.65666 8.58859C1.62162 8.60361 1.57157 8.60861 1.50651 8.60861C1.42142 8.60861 1.32633 8.58358 1.23123 8.53354C1.13614 8.48349 0.995996 8.3934 0.815816 8.26827C0.630631 8.06807 0.505506 7.84785 0.445446 7.60761C0.385386 7.36737 0.355355 7.08209 0.355355 6.74675C0.355355 6.58659 0.365366 6.35135 0.385386 6.04605C0.405406 5.74074 0.415415 5.51051 0.415415 5.36537C0.3003 5.42543 0.235235 5.56557 0.215215 5.79079C0.195195 6.01602 0.175175 6.15116 0.155155 6.20621C0.155155 6.26627 0.145145 6.36637 0.125125 6.50651C0.12012 6.61161 0.115115 6.77178 0.115115 6.98699C0.115115 7.56257 0.19019 8.03804 0.345346 8.41842C0.530531 8.88389 0.845846 9.22422 1.28629 9.43944C1.32633 9.44444 1.38138 9.44945 1.44645 9.44945C1.78178 9.44945 2.04204 9.16918 2.22723 8.60861C2.34735 8.24825 2.44745 8.01802 2.52753 7.91792C2.6026 7.75276 2.67768 7.58259 2.75776 7.41742C2.92292 7.06207 3.14314 6.87187 3.41842 6.83684C3.68368 7.26226 3.86386 7.53254 3.95896 7.63764C4.1992 7.92293 4.46446 8.0931 4.74975 8.14816C4.77477 8.14816 4.81982 8.15316 4.87988 8.16817H5.01001C5.30531 8.16817 5.59559 8.08309 5.89089 7.91792C6.08609 7.81282 6.32633 7.63264 6.61161 7.37738C6.87688 7.65766 7.11712 7.86787 7.33233 8.00801C7.60761 8.18318 7.88789 8.28329 8.18318 8.31832C8.22322 8.32333 8.27828 8.32833 8.34334 8.32833C8.80881 8.32833 9.29429 8.03304 9.79479 7.44745C10.2102 6.96196 10.4204 6.71171 10.4354 6.6967C10.4304 6.75175 10.4254 6.83183 10.4254 6.93694C10.4254 7.27227 10.5005 7.57258 10.6506 7.84285C10.8008 8.11312 11.021 8.32332 11.3163 8.47848C11.3564 8.49349 11.3864 8.4985 11.4064 8.4985C11.5065 8.4985 11.5816 8.42843 11.6266 8.28829C11.6517 8.21322 11.6817 8.10311 11.7167 7.95796C11.7417 7.88289 11.7868 7.84785 11.8468 7.84785C11.982 7.90291 12.1171 7.95295 12.2573 8.00801C12.4925 8.04805 12.7177 8.06807 12.9379 8.06807C13.3634 8.06807 13.8288 8.003 14.3293 7.86787C14.5295 7.81281 14.97 7.67268 15.6506 7.44745C16.2162 7.24725 16.6466 7.11212 16.9419 7.03704C17.4224 6.91692 17.8779 6.85686 18.3033 6.85686C18.5786 6.85686 18.8438 6.88189 19.1041 6.92693C19.1792 6.88689 19.2442 6.80181 19.2993 6.67668C19.3544 6.55156 19.3994 6.47147 19.4344 6.43644C19.4394 6.49149 19.4494 6.54154 19.4595 6.58659C19.4695 6.63163 19.4745 6.68669 19.4745 6.74675C19.4745 6.81182 19.4595 6.87188 19.4344 6.92693C19.4545 7.01202 19.4695 7.08208 19.4745 7.12713C19.4795 7.17217 19.4845 7.23224 19.4845 7.30731C19.4845 7.45246 19.4595 7.68769 19.4144 8.00801C19.3994 8.08308 19.3844 8.20821 19.3644 8.38839C19.5195 8.06307 19.6246 7.71772 19.6897 7.36237C19.7548 7.00701 19.7848 6.62663 19.7848 6.22623C19.7848 5.86086 19.7648 5.4955 19.7247 5.13514C19.6597 4.57458 19.5896 3.98399 19.5145 3.36837C19.4394 2.75276 19.4044 2.21722 19.4044 1.77178L19.5646 1.47147C19.6096 1.53654 19.6847 1.64665 19.7848 1.8018C19.8649 1.92693 19.9349 2.02703 19.995 2.0921H20ZM15.2052 9.36937C15.1101 9.50951 14.965 9.61963 14.7698 9.6947C14.5746 9.76978 14.2643 9.80981 13.8438 9.80981C13.8288 9.7948 13.8038 9.77478 13.7638 9.74975C13.6887 9.70471 13.6587 9.65466 13.6637 9.5996C13.6887 9.46447 13.7487 9.33934 13.8388 9.22423C13.9289 9.10911 14.044 9.00401 14.1842 8.90891C14.0841 8.84885 13.979 8.82883 13.8739 8.84885C13.8188 8.90391 13.7838 8.93393 13.7638 8.93894C13.7638 8.87888 13.7938 8.81381 13.8488 8.74374C13.9039 8.67367 13.969 8.62363 14.044 8.58859C14.1091 8.60361 14.1842 8.61362 14.2643 8.62863C14.3443 8.64365 14.3994 8.67868 14.4344 8.73874C14.4344 8.85386 14.3443 8.96898 14.1592 9.0941C13.974 9.21923 13.8839 9.30931 13.8839 9.36937C13.8839 9.42943 13.9439 9.4945 14.0641 9.56957C14.2993 9.56957 14.4995 9.55456 14.6647 9.52953C14.8298 9.50451 15.01 9.44945 15.2052 9.36937ZM9.21922 2.83283C9.22422 2.88789 9.19419 2.97798 9.11912 3.11311L8.88889 2.9029C8.84384 3.22322 8.8038 3.45846 8.77878 3.61361C8.72372 3.89389 8.63363 4.0941 8.50851 4.21422C8.49349 4.19921 8.41341 4.01902 8.25826 3.66367C8.15816 3.43844 8.00801 3.32332 7.80781 3.32332C7.83283 3.21822 7.86286 3.10811 7.8979 2.993C7.92292 2.93294 7.97297 2.8979 8.03804 2.88289C8.13814 2.98299 8.22823 3.10311 8.30831 3.24325C8.40841 3.46347 8.51351 3.67869 8.61862 3.8939C8.61862 3.8889 8.64865 3.66867 8.70871 3.23324C8.74875 2.95796 8.81882 2.74775 8.91892 2.60261C9.01401 2.63764 9.06907 2.65766 9.08909 2.67268C9.15415 2.71272 9.1992 2.76777 9.21922 2.83283ZM6.24625 1.19119C6.23123 1.28629 6.22122 1.37638 6.20621 1.46147C6.18118 1.56157 6.13113 1.63664 6.05606 1.69169C5.98098 1.70671 5.92092 1.69169 5.87588 1.65165C5.83083 1.61161 5.79079 1.55155 5.75576 1.47147C5.75075 1.43143 5.74575 1.36637 5.74575 1.28129C5.74575 1.03604 5.81081 0.80581 5.94595 0.590595C5.94595 0.630635 5.93093 0.705705 5.90591 0.820821C5.88088 0.935936 5.86587 1.02603 5.86587 1.0911C5.86587 1.24625 5.93093 1.34635 6.05606 1.4014C6.0961 1.4014 6.13113 1.38639 6.15616 1.35136C6.18118 1.2963 6.21121 1.24625 6.24625 1.19119ZM3.18318 1.08108C3.2032 1.13614 3.21321 1.17618 3.21321 1.21122C3.21321 1.25126 3.1982 1.31132 3.16817 1.3964C3.13814 1.48149 3.11812 1.53654 3.11311 1.57157H2.59259C2.41742 1.82683 2.1972 2.05706 1.92192 2.27228C1.88689 2.2973 1.44144 2.57258 0.58058 3.0931C0.685686 2.998 1.00601 2.75776 1.53153 2.37238C1.92693 2.08709 2.21722 1.80681 2.41241 1.54154C2.36737 1.50651 2.32232 1.47148 2.27728 1.43644C2.23223 1.40141 2.20721 1.34635 2.2022 1.28129C2.22222 1.16617 2.26226 1.04104 2.32232 0.900902C2.38238 0.760762 2.42743 0.65065 2.46246 0.57057C2.60761 0.57057 2.74775 0.620625 2.87788 0.71572C3.00801 0.810815 3.10811 0.935938 3.18318 1.08108ZM4.44444 4.26427C4.44444 4.45946 4.37938 4.60461 4.25425 4.70471C4.18919 4.70471 4.13413 4.67968 4.09409 4.62463C4.05405 4.56957 4.02402 4.50451 4.004 4.42443L4.14414 3.63364C4.14414 3.63364 4.15415 3.68869 4.15415 3.74375C4.13914 3.88389 4.13413 3.98899 4.13413 4.06407C4.13413 4.14915 4.14414 4.22423 4.16917 4.27928C4.19419 4.33434 4.23924 4.37938 4.31431 4.40441C4.33433 4.38939 4.34935 4.36437 4.36436 4.31932C4.37938 4.27428 4.4044 4.25926 4.44444 4.26427ZM3.89389 2.6927C3.79379 2.88789 3.73373 3.003 3.71371 3.04304C3.65365 3.14314 3.57357 3.24825 3.47347 3.36336C3.40841 3.35836 3.31832 3.31832 3.21321 3.25325C3.10811 3.18819 3.03303 3.14315 2.98799 3.12313C2.94294 3.10311 2.9029 3.08309 2.86286 3.06307C2.77778 3.01802 2.71772 2.97297 2.69269 2.93293C2.66767 2.94795 2.56757 3.0981 2.4024 3.38339C2.34234 3.48849 2.27227 3.54354 2.19219 3.54354C2.11712 3.54354 2.03704 3.50851 1.94194 3.43343C1.91692 3.39339 1.83684 3.35336 1.7017 3.31332C1.56657 3.27328 1.5015 3.22823 1.5015 3.17318C1.5015 3.11812 1.53153 3.06306 1.59159 3.003C1.70671 2.84284 1.82182 2.67768 1.94194 2.51251C2.21722 2.62763 2.47748 2.75776 2.72272 2.9029L3.16316 2.29229C3.36837 2.39239 3.49349 2.45245 3.53353 2.47247C3.65866 2.53754 3.77878 2.61262 3.89389 2.6927ZM7.57758 9.05906C7.47748 9.25426 7.32232 9.40942 7.11211 9.52453C6.9019 9.63965 6.67167 9.6997 6.42643 9.6997C6.36637 9.6947 6.32132 9.68969 6.2963 9.68969C6.15616 9.64464 6.07608 9.56457 6.05606 9.45946C6.07107 9.34435 6.1011 9.24425 6.15616 9.14916C6.21121 9.05406 6.28128 8.95396 6.37638 8.84885C6.31131 8.80381 6.26126 8.77377 6.23624 8.75876C6.19119 8.72372 6.15616 8.68369 6.13614 8.63864C6.18118 8.43844 6.29129 8.2933 6.45646 8.1982C6.57157 8.18319 6.65666 8.20821 6.71672 8.26827C6.71171 8.30331 6.69169 8.33834 6.65666 8.37338C6.62162 8.40841 6.59159 8.44344 6.55656 8.47848C6.5015 8.43844 6.44144 8.42343 6.37638 8.42843L6.33634 8.44845C6.43644 8.51352 6.50651 8.55856 6.55155 8.58359C6.5966 8.60861 6.63664 8.61862 6.67668 8.61862C6.71672 8.61862 6.75676 8.60861 6.79179 8.58359C6.82683 8.55856 6.87187 8.53354 6.91692 8.50351C6.96196 8.47348 7.002 8.45346 7.02703 8.44845C7.01201 8.56857 6.84184 8.72873 6.51652 8.92894C6.36136 9.02403 6.28629 9.10911 6.28629 9.18919C6.28629 9.25425 6.32633 9.32933 6.40641 9.40941C6.46146 9.42443 6.53654 9.42943 6.63664 9.42943C6.83183 9.42943 7.03203 9.37437 7.24725 9.25926C7.32232 9.21922 7.43243 9.15416 7.57758 9.05906ZM1.17117 3.98399C1.17117 4.22923 1.13113 4.46446 1.05606 4.68468C0.980981 4.90491 0.860861 5.0951 0.700701 5.25526C0.580581 5.29029 0.455455 5.25526 0.33033 5.14515C0.215215 4.98499 0.135135 4.80981 0.08008 4.61462C0.0250249 4.41942 0 4.21922 0 4.01402C0 3.65366 0.0850851 3.24825 0.25025 2.79279C0.37037 2.47247 0.545545 2.10711 0.770771 1.69169C0.670671 1.97197 0.575576 2.24725 0.48048 2.52253C0.375375 2.86787 0.32032 3.17317 0.32032 3.43343C0.32032 3.63363 0.350351 3.81382 0.405406 3.97398C0.460461 4.13414 0.560561 4.28429 0.700701 4.42443C0.785786 4.44445 0.860861 4.42443 0.915916 4.36937C0.970971 4.31432 1.02102 4.23925 1.06106 4.14415C1.07608 4.09911 1.08609 4.05906 1.0961 4.02403C1.10611 3.98899 1.13113 3.97898 1.17117 3.98399ZM18.0681 2.36236L17.7878 2.0921C17.8228 2.03704 17.8579 2.01201 17.8979 2.01201C17.9379 2.01201 17.973 2.03704 18.008 2.0921C18.043 2.14715 18.0631 2.1972 18.0681 2.25225V2.36236ZM12.7528 2.16217V2.05206C12.7678 1.93694 12.7127 1.88189 12.5926 1.88189C12.5475 1.88189 12.5075 1.9019 12.4725 1.94194L12.7528 2.16217ZM3.003 1.27128H2.76276L2.78278 1.08108C2.82783 1.08609 2.86787 1.10611 2.9029 1.14115C2.93794 1.17618 2.96797 1.21622 3.003 1.27128ZM2.59259 1.22122C2.51251 1.23624 2.44745 1.21121 2.39239 1.15115L2.41241 1.08108C2.51251 1.06607 2.57257 1.11612 2.59259 1.22122ZM7.37738 6.03604L6.7968 6.46647L6.33634 5.94595C6.38138 5.94595 6.6016 5.97097 6.997 6.01602C7.11211 6.03103 7.23724 6.03604 7.37738 6.03604Z" fill="white"/>
</svg>
