<svg width="20" height="13" viewBox="0 0 20 13" fill="none" xmlns="http://www.w3.org/2000/svg">
<path fill-rule="evenodd" clip-rule="evenodd" d="M19.9947 2.46523C19.9091 2.39037 19.8235 2.30481 19.738 2.21925C19.6524 2.13369 19.5829 2.03743 19.5348 1.93583C19.4492 2.01069 19.4064 2.11764 19.4064 2.25668C19.4064 2.3262 19.4064 2.39572 19.4171 2.47593C19.4278 2.5508 19.4332 2.63102 19.4439 2.70588C19.4439 2.7754 19.4439 2.82352 19.4332 2.86096C19.4332 3.18716 19.4652 3.60428 19.5348 4.11765C19.6898 5.26203 19.7647 5.99465 19.7647 6.31015C19.7647 7.11229 19.7487 7.68449 19.7112 8.01604C19.6524 8.62566 19.508 9.15507 19.2727 9.60962C19.3316 9.44919 19.3743 9.28876 19.3957 9.13368C19.4171 8.9786 19.4278 8.78075 19.4278 8.54545C19.4278 8.44385 19.4278 8.28342 19.4171 8.06952C19.4064 7.85561 19.4064 7.69518 19.4064 7.58288L18.8556 1.21925L18.6898 0.743315C18.7647 0.582887 18.8449 0.41711 18.9198 0.256682C18.9733 0.160426 19.0428 0.0748663 19.139 0C19.3369 0.40107 19.508 0.81283 19.6578 1.24064C19.8075 1.6631 19.9198 2.07486 20 2.46523H19.9947ZM13.7594 0.823526C12.8289 1.13903 12.1283 1.37432 11.6685 1.5294C10.8396 1.81283 10.1551 2.09091 9.61497 2.36364C9.61497 2.28877 9.65241 2.2032 9.73262 2.11764C9.74866 2.0909 9.89305 1.98395 10.1551 1.79678L15.1711 0.0909081C15.1016 0.272726 14.9037 0.422457 14.5829 0.540104C14.3102 0.636361 14.0374 0.727269 13.7594 0.823526ZM14.7487 2.4385C14.7487 2.27807 14.6471 2.14438 14.4385 2.04278C14.2567 1.97326 14.0856 1.90374 13.9144 1.83957L13.4652 2.41711C13.3529 2.33155 13.2299 2.26203 13.1016 2.2139C12.9679 2.16043 12.8182 2.11764 12.6471 2.07486C12.5455 2.17112 12.4545 2.28342 12.369 2.42246C12.2888 2.5615 12.2193 2.70053 12.1551 2.84492C12.2727 2.877 12.4171 2.93048 12.5775 3.00535C12.738 3.08021 12.893 3.14973 13.0374 3.21925C13.1123 3.16577 13.1818 3.06951 13.2406 2.92513C13.2995 2.78074 13.3636 2.67914 13.4332 2.61497C13.7326 2.75936 14.0321 2.90374 14.3316 3.05347L14.7433 2.44919L14.7487 2.4385ZM15.7754 5.40106C15.7914 5.51336 15.7861 5.61497 15.7487 5.71123C15.7166 5.80748 15.6524 5.89304 15.5668 5.96791C15.4813 5.96791 15.4064 5.93582 15.3476 5.8663C15.2888 5.7647 15.246 5.68984 15.2193 5.64706C15.2193 5.49198 15.2353 5.36898 15.262 5.26737C15.2941 5.17112 15.3476 5.03743 15.4225 4.877C15.4225 4.91978 15.4118 4.99465 15.3957 5.1016C15.3797 5.20855 15.369 5.27273 15.369 5.28877C15.369 5.44385 15.4332 5.55615 15.5615 5.62032C15.615 5.63101 15.6524 5.59892 15.6845 5.52406C15.7166 5.44919 15.7433 5.41176 15.7701 5.40106H15.7754ZM14.262 5.04278C14.2299 5.03208 14.1979 5.03208 14.1658 5.03208H14.107C14.0107 5.03208 13.9305 5.05348 13.861 5.09626C13.7914 5.13904 13.6952 5.2139 13.5668 5.3262C13.4973 5.34224 13.4492 5.35294 13.4118 5.35294C13.3262 5.35294 13.2406 5.32085 13.1551 5.25133C13.0963 5.13903 13.0642 5 13.0642 4.82888C13.0642 4.54545 13.139 4.31016 13.2834 4.12299C13.2941 4.14973 13.2941 4.19251 13.2941 4.25134C13.2941 4.29412 13.2834 4.37433 13.2674 4.49732C13.2513 4.61497 13.2406 4.67914 13.2406 4.68983C13.2406 4.81818 13.2888 4.91443 13.3797 4.98395C13.5241 5.01069 13.6471 4.95722 13.754 4.82888C13.7647 4.79679 13.7647 4.73796 13.7647 4.66309C13.7647 4.59358 13.7647 4.52406 13.754 4.44385C13.7433 4.36898 13.738 4.28876 13.7273 4.2139C13.7273 4.07486 13.7701 3.96791 13.8556 3.89305C13.8877 3.95187 13.9091 4.10695 13.9091 4.34759C13.9091 4.58823 14.0053 4.72727 14.2032 4.75401C14.2193 4.69519 14.2139 4.59358 14.1765 4.45989C14.1444 4.32085 14.123 4.2246 14.123 4.16577C14.123 4.05347 14.1658 3.96256 14.2513 3.89839C14.3048 4.01604 14.3369 4.13369 14.3583 4.24064C14.3797 4.34759 14.3904 4.45989 14.3904 4.58288C14.3904 4.77005 14.3422 4.93048 14.2513 5.05882L14.262 5.04278ZM10.615 0.283422C9.93048 0.470588 9.19251 0.695187 8.39572 0.951871C7.8984 1.1123 7.16578 1.36364 6.20321 1.69519C6.10695 1.75401 6.02674 1.84492 5.95722 1.96257C5.92513 2.02139 5.8984 2.08556 5.88235 2.15508C6.53476 1.85561 7.26203 1.56684 8.06417 1.29412C8.80214 1.05348 9.54011 0.812827 10.2834 0.577533C10.3583 0.566838 10.4225 0.540101 10.4759 0.486625C10.5294 0.433149 10.5722 0.368983 10.615 0.283422ZM11.7701 4.27272C11.7861 4.37433 11.7701 4.47593 11.7326 4.58288C11.6631 4.70053 11.615 4.79144 11.5775 4.85026C11.4171 4.97861 11.3102 5.05348 11.2674 5.08021C11.139 5.14973 11.016 5.17112 10.893 5.14438C10.7914 5.07486 10.738 4.95722 10.738 4.7861C10.738 4.71123 10.754 4.62032 10.7914 4.51872C10.8663 4.35829 10.9305 4.24064 10.9733 4.17112C11.0481 4.05347 11.139 3.94652 11.2406 3.86096C11.3369 3.91978 11.4385 3.97861 11.5508 4.04278C11.6631 4.1016 11.7326 4.18181 11.7701 4.27272ZM9.30481 3.96256C9.34759 4.22994 9.27273 4.43315 9.07487 4.57754C9 4.58823 8.91979 4.56149 8.84492 4.50802C8.77005 4.45454 8.72727 4.38503 8.72727 4.31016C8.72727 3.95187 8.82888 3.62566 9.03743 3.33689C9.03743 3.40641 9.0107 3.51337 8.96257 3.65775C8.90909 3.80214 8.8877 3.90908 8.8877 3.9786C8.8877 4.09625 8.94118 4.18716 9.04278 4.24598C9.09626 4.24598 9.13904 4.21925 9.17647 4.16043C9.2139 4.1016 9.26203 4.03743 9.31016 3.96256H9.30481ZM5.62032 1.08556C5.60428 1.20321 5.56684 1.3155 5.51337 1.41711C5.45989 1.51871 5.38503 1.59892 5.29947 1.66309C5.19786 1.68983 5.09626 1.61497 5.00535 1.44385C4.99465 1.40107 4.99465 1.3369 4.99465 1.25134C4.99465 1.08021 5.02674 0.919785 5.08556 0.7754C5.14439 0.631014 5.23529 0.465238 5.35294 0.272724C5.34225 0.342243 5.31016 0.459892 5.25668 0.625668C5.20321 0.791443 5.17112 0.919781 5.17112 1.00534C5.17112 1.14438 5.2139 1.25134 5.29947 1.3369C5.36898 1.34759 5.42781 1.30481 5.47059 1.21925C5.51872 1.13369 5.56685 1.08556 5.62032 1.08021V1.08556ZM17.2353 2.29411C17.2353 1.95187 17.0909 1.47593 16.7968 0.871652C16.6257 0.513363 16.508 0.24064 16.4385 0.0481264C16.3102 0.10695 16.2032 0.224594 16.1176 0.395717C16.0749 0.491973 16.0107 0.631015 15.9251 0.818181C16.0963 1.62032 16.2353 2.39037 16.3369 3.12834C16.4118 3.67379 16.508 4.45989 16.6203 5.47593C16.6898 6.1016 16.7647 6.88769 16.8503 7.83957C16.738 7.95187 16.615 8.04278 16.4759 8.11764C16.3369 8.19251 16.1925 8.24599 16.0374 8.28877C15.9786 8.29947 15.8984 8.31016 15.8021 8.3262C15.7059 8.34224 15.5882 8.35294 15.4599 8.35294C15.2888 8.35294 15.139 8.3262 15.0107 8.26738C14.8824 8.20855 14.7807 8.11765 14.7005 7.97861C14.631 7.88235 14.5989 7.78609 14.5989 7.68449C14.5989 7.62567 14.6364 7.47594 14.7166 7.23529C14.7487 7.13369 14.7701 7.04278 14.7701 6.96791C14.738 6.97861 14.3583 7.15508 13.6417 7.50802C13.4011 7.62032 13.1818 7.69518 12.9733 7.73796C12.8182 7.4278 12.5989 7.18181 12.3048 6.99465C12.016 6.80748 11.7005 6.71122 11.369 6.71122C11.1283 6.82352 10.9358 7.01604 10.7914 7.28876C10.6791 7.53475 10.5722 7.78609 10.4706 8.03208C10.4545 8.11764 10.4439 8.18716 10.4439 8.23529C10.4439 8.45989 10.5348 8.63636 10.7112 8.77005C10.893 8.90374 11.107 8.96791 11.3636 8.96791C11.508 8.96791 11.7273 8.93048 12.0267 8.86096C12.3262 8.79144 12.5187 8.74331 12.6096 8.72727C12.6791 8.82887 12.7273 8.95187 12.7487 9.1016C12.3476 9.51871 12.0481 9.82352 11.8503 10.0107C11.5187 10.3262 11.2032 10.5989 10.9144 10.8182C10.631 11 10.3529 11.1765 10.0802 11.3583C9.49733 11.7166 9 11.8984 8.59358 11.8984C8.45455 11.8984 8.3262 11.8877 8.20856 11.861C8.09091 11.8342 7.96257 11.7861 7.83423 11.7219C7.63102 11.6203 7.48128 11.4759 7.39037 11.2941C7.29947 11.1123 7.25668 10.9037 7.25668 10.6738C7.25668 10.4599 7.28877 10.2567 7.35829 10.0695L7.61497 9.36363C7.87166 9.27807 8.12834 9.18716 8.38503 9.09625C8.70054 8.97861 8.93048 8.82887 9.08021 8.65775C9.29412 8.22994 9.40107 7.77005 9.40107 7.28342C9.40107 7 9.36364 6.73796 9.29412 6.50267C9.21925 6.26203 9.10695 6.04812 8.95187 5.86096L8.70588 6.68449C8.70588 6.68449 8.80214 6.95187 8.96257 7.40107C9.01604 7.54545 9.05348 7.68983 9.08021 7.82352C8.52407 8.10695 8.14973 8.28342 7.96257 8.35828C7.7754 8.43315 7.56684 8.49198 7.33155 8.54545C6.93583 8.65775 6.55615 8.71123 6.18717 8.71123C5.77005 8.71123 5.37968 8.63636 5.02674 8.49197C4.6738 8.34759 4.37968 8.11764 4.14973 7.81283C4.07487 7.754 3.98396 7.57754 3.8877 7.28876C3.79144 7 3.63102 6.85027 3.40642 6.85027C3.08021 7.09091 2.71658 7.71123 2.31551 8.71123C2.11765 9.19786 1.8877 9.55615 1.62032 9.79144C1.5508 9.82353 1.47059 9.84491 1.37433 9.84491C1.19251 9.84491 1.05882 9.78609 0.962567 9.6631C0.705882 9.4385 0.529412 9.17112 0.427808 8.86096C0.331551 8.5508 0.278075 8.18181 0.278075 7.7647C0.278075 7.52406 0.28877 7.29946 0.315508 7.09091C0.342246 6.88235 0.368984 6.66845 0.406417 6.45454C0.278075 6.82353 0.181818 7.16043 0.117647 7.45989C0.0534758 7.7647 0.0213904 8.09091 0.0213904 8.44385C0.0213904 8.79679 0.0695188 9.14973 0.160428 9.50802C0.278075 9.73262 0.406417 9.94652 0.534759 10.1604C0.818182 10.631 1.14439 10.8449 1.50802 10.8021C1.78075 10.6631 1.99465 10.4706 2.14973 10.2139C2.26203 10.0321 2.36898 9.75936 2.47594 9.39037C2.58289 9.02139 2.6738 8.74866 2.75401 8.56684C2.88235 8.25133 3.04278 8 3.24064 7.82352C3.44385 7.85026 3.62567 8.03743 3.78075 8.39037C3.93583 8.74331 4.1016 8.95721 4.28342 9.04278C4.51337 9.24598 4.78075 9.39572 5.08021 9.48128C5.37968 9.56684 5.71123 9.60962 6.06952 9.60962C6.31016 9.60962 6.52406 9.59892 6.71658 9.57753C6.90909 9.55614 7.13904 9.52406 7.40107 9.48128C7.26203 9.73797 7.16043 10.0053 7.08556 10.2834C7.0107 10.5615 6.97861 10.8449 6.97861 11.139C6.97861 11.4118 7.01604 11.6631 7.08556 11.8984C7.16043 12.1283 7.27273 12.3369 7.42781 12.5294C7.71658 12.7433 8.05882 12.8503 8.45455 12.8503C8.75401 12.8503 9.03209 12.7861 9.28877 12.6578C9.71658 12.4439 10.1337 12.2032 10.5348 11.9412C10.9733 11.6524 11.3583 11.3422 11.7005 11.016C12.1016 10.631 12.4278 10.2353 12.6684 9.83422C12.9091 9.43316 13.0695 8.99465 13.139 8.52406L14.3583 7.85561C14.3743 7.92513 14.385 7.97326 14.385 7.99465C14.3743 8.08021 14.369 8.16577 14.3583 8.25668C14.3476 8.34759 14.3476 8.42245 14.3583 8.48128C14.3743 8.63636 14.4118 8.7647 14.4652 8.87166C14.5187 8.97861 14.6096 9.06417 14.7273 9.13368C14.9091 9.21924 15.1176 9.26203 15.3583 9.26203C15.5722 9.26203 15.7808 9.22994 15.9786 9.17112C16.1818 9.1123 16.3583 9.03743 16.5187 8.94652C16.6791 8.85561 16.7914 8.75401 16.861 8.63102C16.9305 8.51337 17.0214 8.25133 17.1283 7.85026C17.1283 7.25133 17.0749 6.49198 16.9733 5.57754C16.7594 3.6631 16.6524 2.42245 16.6524 1.85561L16.7701 1.67379C16.8128 1.72727 16.8877 1.83422 16.9947 1.99465C17.1016 2.15508 17.1765 2.26203 17.2193 2.30481L17.2353 2.29411ZM7.39037 4.21925L7.31551 4.47593C7.24599 4.4492 7.18717 4.42781 7.12834 4.41177C7.07487 4.39572 7.02139 4.38503 6.97861 4.38503C6.87701 4.38503 6.81283 4.4492 6.7861 4.57754C6.73262 5.05882 6.70054 5.34225 6.68449 5.4385C6.66845 5.53476 6.62032 5.68984 6.54545 5.91444C6.34759 5.55615 6.14973 5.19251 5.95722 4.82352C5.95722 4.89839 5.90909 4.94117 5.81818 4.94117C5.7754 4.94117 5.72727 4.93583 5.66845 4.91979C5.61497 4.90909 5.5615 4.89839 5.51872 4.89305C5.47594 4.89305 5.45455 4.85027 5.45455 4.77005C5.47059 4.66845 5.48128 4.59893 5.48128 4.56684C5.54011 4.4385 5.57754 4.36363 5.59893 4.34759C5.65241 4.27807 5.71658 4.24598 5.80214 4.24598C5.94652 4.33154 6.06952 4.45989 6.17647 4.63101C6.31551 4.90374 6.4492 5.17647 6.58824 5.4385C6.58824 5.10695 6.62032 4.82352 6.68449 4.59893C6.74866 4.37433 6.87701 4.18716 7.06417 4.04278C7.21925 4.04278 7.33155 4.1016 7.39572 4.2246L7.39037 4.21925ZM4.85027 2.80749C4.79144 2.85027 4.71123 2.96791 4.62032 3.15508C4.52406 3.34224 4.41711 3.4278 4.29947 3.41176C4.11765 3.33689 3.98931 3.27272 3.90374 3.22994C3.76471 3.16042 3.63636 3.08555 3.51872 2.99999C3.49198 3.02673 3.44385 3.10695 3.37968 3.23529C3.31016 3.36898 3.24064 3.45989 3.16043 3.51337C3.03209 3.49732 2.8984 3.45989 2.76471 3.40641C2.62567 3.35294 2.49733 3.29411 2.36898 3.23529C2.41176 3.12299 2.48128 3 2.57219 2.86096C2.66845 2.72192 2.75401 2.59358 2.83957 2.46523C3.12834 2.53475 3.40642 2.64171 3.6631 2.78609L4.1123 2.27273L4.85562 2.81283L4.85027 2.80749ZM3.65775 0.791442C3.71658 0.909089 3.74866 1.02139 3.74866 1.12299C3.74866 1.30481 3.68449 1.46524 3.55615 1.60962C3.45989 1.62567 3.39037 1.62567 3.34225 1.60962C3.29412 1.59358 3.2139 1.5508 3.10695 1.48128C2.85027 1.85561 2.50267 2.19785 2.06952 2.50801C1.80214 2.69518 1.39037 2.92513 0.823529 3.2032C0.593583 3.56149 0.475936 3.9893 0.475936 4.48663C0.475936 4.58289 0.481283 4.67914 0.497326 4.7754C0.508021 4.87165 0.534759 5.00534 0.566845 5.16577C0.663102 5.34759 0.812834 5.43315 1.02674 5.43315C1.08021 5.33689 1.12299 5.25668 1.16043 5.18716C1.19786 5.11765 1.24599 5.07486 1.29412 5.05882C1.29412 5.3262 1.26203 5.57219 1.19251 5.80748C1.12299 6.04277 1.0107 6.22994 0.84492 6.36363C0.727273 6.36363 0.609626 6.33155 0.502674 6.27273C0.395722 6.2139 0.294118 6.13368 0.203209 6.04277C0.0641712 5.74331 0 5.43315 0 5.11764C0 4.81818 0.0588236 4.49198 0.181818 4.14439C0.278075 3.87166 0.513369 3.36364 0.898396 2.61497C0.914438 2.63102 0.935829 2.64705 0.962567 2.66844C0.989305 2.72727 0.983957 2.78075 0.951872 2.82353C0.909091 2.93583 0.86631 3.04278 0.823529 3.14438C1.29412 2.86096 1.6631 2.62032 1.92513 2.41176C2.29947 2.12299 2.63102 1.79678 2.91444 1.4385C2.8877 1.41176 2.82888 1.39037 2.74332 1.37433C2.65241 1.35828 2.59893 1.32085 2.58289 1.25668C2.64171 1.02673 2.69519 0.828874 2.74332 0.673794C2.79144 0.513366 2.86631 0.379679 2.96791 0.26738C3.10695 0.26738 3.23529 0.320854 3.36364 0.433154C3.4385 0.502673 3.54011 0.614969 3.65775 0.780744V0.791442ZM2.94118 5.32085C2.95722 5.45989 2.94652 5.58288 2.90909 5.70053C2.87166 5.81818 2.80214 5.90909 2.71123 5.97861C2.52406 5.97861 2.41177 5.877 2.37968 5.66844C2.37968 5.45454 2.40642 5.25668 2.46524 5.06952C2.51872 4.8877 2.60428 4.70053 2.71658 4.51336C2.6738 4.70053 2.63636 4.86631 2.59893 5C2.56685 5.13903 2.54545 5.22459 2.54545 5.26737C2.54545 5.44919 2.62032 5.57219 2.76471 5.64171C2.82353 5.5401 2.88235 5.43315 2.94652 5.32085H2.94118ZM5.40642 10.893C5.40642 11.0321 5.36364 11.1658 5.27808 11.3048C5.14973 11.4759 5.05882 11.5989 5.0107 11.6791C4.89305 11.6631 4.77005 11.6203 4.65241 11.5508C4.53476 11.4813 4.41711 11.4118 4.30481 11.3476C4.33155 11.2085 4.38503 11.0749 4.47059 10.9358C4.48128 10.9251 4.57219 10.7968 4.75401 10.5401C4.85027 10.5561 4.95187 10.6043 5.06952 10.6791C5.18717 10.754 5.29947 10.8289 5.41177 10.8984L5.40642 10.893ZM11.5401 4.60427C11.5401 4.50267 11.4866 4.41711 11.385 4.34759C11.3529 4.32085 11.2513 4.27807 11.0909 4.21925C11.0321 4.32086 10.9947 4.39037 10.9893 4.41711C10.9786 4.4492 10.9786 4.50267 10.9786 4.57754C10.9786 4.64706 11.0053 4.71657 11.0535 4.79678C11.139 4.82352 11.2353 4.80213 11.3369 4.73796C11.4385 4.67379 11.508 4.63101 11.5401 4.60427ZM12.0909 7.99465C11.9465 8.01069 11.8021 8.02673 11.6685 8.03208C11.5134 8.03208 11.3743 8.01069 11.246 7.97326C11.1176 7.93582 11.0107 7.877 10.9251 7.80214C10.9144 7.7754 10.9091 7.74866 10.8984 7.72727C10.9144 7.71658 10.9572 7.71657 11.0267 7.71657C11.2995 7.71657 11.6257 7.7754 12 7.89839C12.0267 7.93048 12.0535 7.96791 12.0909 8V7.99465ZM3.55615 1.24598C3.4385 1.26202 3.3369 1.23529 3.26203 1.15507L3.31551 0.871652C3.39037 0.930476 3.44385 0.989298 3.47594 1.03743C3.50802 1.0909 3.53476 1.15508 3.5615 1.24064L3.55615 1.24598ZM3.08021 1.09091L2.7861 1.03743C2.77005 0.898389 2.83957 0.834223 2.9893 0.834223C3.04813 0.834223 3.08021 0.866308 3.08021 0.925131V1.09091Z" fill="white"/>
</svg>
