<svg width="20" height="10" viewBox="0 0 20 10" fill="none" xmlns="http://www.w3.org/2000/svg">
<path fill-rule="evenodd" clip-rule="evenodd" d="M20 6.65685C20 6.92685 19.9705 7.19686 19.9067 7.46686C19.8429 7.73687 19.7595 8.02651 19.6465 8.33579C19.7055 7.92341 19.7349 7.51595 19.7349 7.11831C19.7349 6.55376 19.6858 5.94502 19.5876 5.28719C19.4894 4.62935 19.3913 3.9568 19.2882 3.27442C19.1851 2.59205 19.136 1.99313 19.136 1.48257C19.0722 1.40893 19.0378 1.34021 19.0378 1.26657C19.0378 1.19293 19.0673 1.11438 19.1262 1.02111C19.2882 0.765833 19.3716 0.633285 19.3716 0.618558C19.3962 0.702014 19.514 0.942563 19.7251 1.3353C19.8871 1.64458 19.9705 1.89985 19.9705 2.11095C19.9705 2.16495 19.9558 2.2484 19.9313 2.36622C19.8576 2.22877 19.8036 2.12568 19.7693 2.05695C19.7349 1.98822 19.6907 1.9244 19.6465 1.86549C19.6465 2.30241 19.7251 3.28915 19.8822 4.82081C19.9607 5.58665 20 6.20029 20 6.65685ZM15.9254 0.795289C15.729 1.05057 15.4001 1.26657 14.9337 1.4433C14.541 1.59548 14.1483 1.74276 13.7555 1.89494C13.3873 2.09131 13.0241 2.28277 12.6559 2.47423C12.6362 2.42023 12.646 2.36132 12.6902 2.2975C12.7344 2.23368 12.7737 2.16986 12.813 2.11095C13.1861 1.92931 13.7015 1.70348 14.3544 1.43348C14.8797 1.22238 15.4001 1.01129 15.9254 0.795289ZM19.136 7.01031C18.9445 7.02995 18.7629 7.03976 18.5862 7.03976C18.3063 7.03976 18.002 7.02013 17.6829 6.97594C17.3638 6.93176 17.0496 6.87776 16.7501 6.81394C16.6568 6.7943 16.1757 6.68139 15.3068 6.4703C15.0172 6.39666 14.7325 6.33775 14.4428 6.28375C15.0368 5.95484 15.4934 5.7241 15.8076 5.59156C16.1217 5.45901 16.4261 5.35101 16.7207 5.27246C16.8238 5.70447 16.9514 6.02356 17.1036 6.23466C17.2361 6.41139 17.3932 6.53903 17.5749 6.61757C17.7712 6.65194 17.948 6.59303 18.1051 6.44085C18.1247 6.36721 18.2376 6.1512 18.4389 5.78301C18.5911 5.5081 18.6647 5.27737 18.6647 5.09573C18.6647 4.91409 18.596 4.75209 18.4585 4.59499C18.3162 4.47226 18.1296 4.40844 17.9087 4.40844C17.7909 4.40844 17.6583 4.42808 17.5061 4.46735C17.354 4.50663 17.2116 4.55081 17.0741 4.59499C17.0103 4.30044 16.9465 4.00589 16.8876 3.71134C16.8679 3.65243 16.8581 3.60334 16.8581 3.56407C16.8581 3.44134 16.9514 3.32352 17.133 3.2106C17.354 3.07315 17.4914 2.97496 17.5356 2.91605C17.5896 2.90133 17.6534 2.84242 17.732 2.73932C17.8743 2.54787 17.9823 2.45459 18.0461 2.45459C18.1001 2.45459 18.1591 2.48896 18.2229 2.56259L18.3211 2.32695C18.1983 2.28768 18.1345 2.22877 18.1345 2.15022C18.1345 2.13058 18.1541 2.07168 18.1983 1.96858C18.2425 1.86549 18.2621 1.78694 18.2621 1.72803C18.2621 1.68385 18.2572 1.64948 18.2425 1.62985C18.2032 1.56603 18.1591 1.51203 18.1149 1.47766C18.0707 1.4433 18.0167 1.43839 17.9578 1.46293C17.8645 1.48748 17.7909 1.53657 17.732 1.61021C17.7123 1.63476 17.6681 1.7084 17.5945 1.82622C17.57 1.9244 17.5945 2.02258 17.6829 2.12077C17.727 2.17477 17.8056 2.25331 17.9087 2.36622C17.7712 2.52332 17.6092 2.6755 17.4178 2.82278C17.2263 2.97005 17.0447 3.10751 16.8679 3.24006C16.8532 3.14678 16.8287 3.00933 16.7943 2.82769C16.7599 2.64605 16.7403 2.47423 16.7403 2.31713C16.7403 2.22386 16.7452 2.13549 16.7599 2.05204C16.7747 1.96858 16.7943 1.88513 16.8287 1.80658C16.8434 1.82622 16.8876 1.89494 16.9661 2.01276C17.0201 2.09131 17.0692 2.14531 17.1134 2.17968C17.1134 1.90476 17.0496 1.61021 16.9269 1.29602C16.8827 1.18311 16.7599 0.922926 16.5636 0.510555C16.4654 0.648012 16.3918 0.756012 16.3476 0.834559C16.2838 0.952379 16.2347 1.06529 16.2003 1.16838C16.2985 1.60039 16.3721 1.99804 16.4212 2.35641C16.4703 2.71478 16.4948 3.09278 16.4948 3.48552C16.4752 3.52479 16.4212 3.56898 16.3328 3.61807C16.2445 3.66716 16.1856 3.71625 16.161 3.77025C16.2052 3.78498 16.269 3.77025 16.3476 3.73098C16.4261 3.6917 16.485 3.67698 16.5243 3.68189L16.6519 4.69317C16.1757 4.90427 15.7192 5.11046 15.2921 5.31664C14.865 5.52283 14.433 5.73883 14.001 5.95974C13.7457 6.0972 13.5493 6.23466 13.4119 6.37211C13.2351 6.54884 13.1173 6.75503 13.0584 6.99067C13.0977 6.99558 13.1615 6.96613 13.2548 6.90231C13.6475 6.90231 14.2072 6.98576 14.9337 7.15759C15.3265 7.25086 15.6505 7.31959 15.9057 7.36377C15.4541 7.53559 15.1743 7.63378 15.0712 7.66814C14.541 7.84487 14.055 7.95287 13.6082 7.99214C13.5739 7.99705 13.5248 8.00197 13.4512 8.00197C13.1959 8.00197 12.9651 7.93324 12.754 7.79087C12.543 7.6485 12.376 7.46195 12.2435 7.22631C12.052 6.6323 11.9195 5.89593 11.8409 5.01718C11.7869 4.25135 11.7378 3.48061 11.6937 2.70987C11.62 1.81149 11.5022 1.0702 11.3402 0.481098C11.2813 0.554735 11.2224 0.672558 11.1635 0.84438C11.1291 0.937654 11.0997 1.00638 11.0751 1.06038C11.1782 1.55621 11.2666 2.12568 11.3402 2.75896C11.3844 3.18606 11.4433 3.81443 11.5071 4.64408C11.5709 5.47374 11.6151 5.99411 11.6397 6.19539C11.6642 6.39666 11.6888 6.66176 11.7231 6.98085C11.7869 7.45214 11.9048 7.81542 12.0668 8.07069C12.1846 8.27197 12.3417 8.43397 12.5331 8.5567C12.7246 8.67943 12.9259 8.73834 13.137 8.73834C13.2106 8.73834 13.2597 8.73834 13.2941 8.72852C13.6868 8.67452 14.1532 8.57634 14.6883 8.42415C14.9877 8.3407 15.4394 8.20815 16.0432 8.03142C16.4556 7.92833 16.8238 7.84978 17.1527 7.79578C17.4816 7.74178 17.8154 7.71723 18.164 7.71723C18.2229 7.71723 18.3063 7.71723 18.4094 7.72214C18.5125 7.72214 18.6892 7.74178 18.9298 7.76632C18.9887 7.66323 19.0329 7.53068 19.0673 7.37359C19.082 7.3294 19.1016 7.20668 19.136 7.01031ZM13.5199 4.45754C13.4855 4.55081 13.4561 4.62445 13.4315 4.67845C13.407 4.73245 13.3579 4.77663 13.2941 4.811C13.4168 4.59009 13.4806 4.3299 13.4806 4.03535C13.4806 3.64261 13.3873 3.30388 13.1959 3.02405L13.2941 2.75896C13.3972 2.87678 13.4806 3.02897 13.5444 3.21551C13.6082 3.40206 13.6377 3.58861 13.6377 3.78007C13.6377 4.02062 13.5984 4.24644 13.5199 4.45754ZM17.3098 9.00343C17.246 9.15562 17.1969 9.26362 17.1625 9.33726C17.1036 9.47472 17.0299 9.58272 16.9367 9.66127L16.2494 9.12126L16.6618 8.59107L17.3098 9.00343ZM9.62199 1.04075L9.55326 1.24693C9.48945 1.2322 9.42072 1.22239 9.3569 1.20766C9.28326 1.20766 9.24399 1.24693 9.23908 1.32548C9.20471 1.63966 9.17526 1.94894 9.15071 2.25822C9.07217 2.19931 9.00344 2.12077 8.94453 2.02258C8.85125 1.86058 8.76289 1.69367 8.66961 1.52185C8.6647 1.56603 8.64507 1.59057 8.6107 1.59057C8.53706 1.5513 8.48797 1.52675 8.45361 1.52185C8.37506 1.4973 8.33579 1.4433 8.33579 1.36475C8.33579 1.32057 8.3407 1.27639 8.35542 1.23711C8.37015 1.19784 8.38488 1.14384 8.40452 1.08002C8.44379 1.03584 8.48306 1.01129 8.52234 1.01129C8.56161 1.01129 8.60579 1.02602 8.64998 1.06038C8.71379 1.14384 8.79234 1.27148 8.88071 1.43839C8.96907 1.6053 9.0378 1.72312 9.0918 1.78694C9.11635 1.62985 9.1458 1.47275 9.17035 1.31566C9.21453 1.11929 9.29308 0.986745 9.40599 0.913108C9.50908 0.927835 9.58272 0.96711 9.62199 1.04075ZM10.1718 3.77025C10.1718 3.77025 10.1816 3.82425 10.1816 3.86843C10.1816 3.96171 10.162 4.04025 10.1276 4.11389C10.0933 4.18753 10.0344 4.25626 9.95582 4.3299C9.89691 4.32499 9.84782 4.30044 9.80363 4.25626C9.75945 4.21208 9.73 4.16789 9.71036 4.11389C9.69072 4.01571 9.6809 3.92244 9.6809 3.82916C9.6809 3.66716 9.71527 3.46588 9.78891 3.23024C9.82327 3.11733 9.85763 3.00442 9.89691 2.8866C9.89691 2.95042 9.88218 3.06333 9.85763 3.22042C9.83309 3.37751 9.81836 3.50025 9.81836 3.5837C9.81836 3.68189 9.83309 3.77025 9.86254 3.8488C9.892 3.92734 9.94109 3.99116 10.0147 4.04516L10.1718 3.77025ZM5.80265 0L5.7241 0.176731C5.51301 0.309279 5.20864 0.486008 4.811 0.71674C4.69318 0.780559 4.1728 1.08002 3.24988 1.61021C3.23515 1.55621 3.24497 1.50712 3.26951 1.45803C3.29406 1.40894 3.32351 1.35984 3.35788 1.30584C4.16789 0.873832 4.98282 0.436917 5.80265 0ZM11.0947 8.46343C11.0309 8.56652 10.9377 8.66961 10.8247 8.76289C10.7118 8.85616 10.4958 8.97398 10.1816 9.11635C9.86745 9.25871 9.53854 9.40599 9.18999 9.56308C9.18508 9.52381 9.1998 9.46981 9.23908 9.40599C9.25871 9.37162 9.28326 9.34217 9.30781 9.30781C9.90182 9.02798 10.5007 8.74325 11.0947 8.46343ZM7.96269 7.03976C7.96269 7.03976 7.97251 7.09377 7.97251 7.13795C7.97251 7.29995 7.91851 7.44232 7.81541 7.56014C7.68287 7.57977 7.59941 7.52577 7.56014 7.39322C7.56014 7.03485 7.63378 6.70103 7.77614 6.39175C7.79087 6.45066 7.78596 6.51939 7.76632 6.59794C7.71232 6.84831 7.68778 6.98085 7.68778 7.00049C7.68778 7.13304 7.74178 7.22631 7.84487 7.28522L7.96269 7.03976ZM4.3299 3.11242L4.01571 3.52479L3.41679 3.26951C3.40206 3.31369 3.35788 3.37752 3.27933 3.46097C3.20079 3.54443 3.13697 3.60334 3.09278 3.64261C3.03878 3.62788 2.97496 3.60334 2.89151 3.56407C2.80805 3.52479 2.6755 3.45606 2.49386 3.35788C2.50859 3.23515 2.57241 3.09769 2.69023 2.94551C2.74914 2.87187 2.81296 2.79823 2.87678 2.71969L3.42661 2.89642L3.83898 2.54296C3.83898 2.54296 3.96171 2.60678 4.1728 2.71969C4.32499 2.79823 4.39863 2.87678 4.39863 2.95532C4.39863 3.00933 4.37408 3.05842 4.3299 3.11242ZM10.7413 6.55866C9.88218 5.9352 9.02798 5.31664 8.16888 4.69317C8.22288 4.68827 8.26215 4.65881 8.29652 4.61463C8.31124 4.59499 8.33088 4.55081 8.36524 4.47717C8.28179 4.45754 8.17379 4.40844 8.05106 4.3299C7.82032 4.1728 7.65341 4.08935 7.55032 4.08444C7.49141 4.18262 7.45214 4.28081 7.42759 4.3839C7.40304 4.48699 7.39323 4.60481 7.39323 4.74227C7.60923 5.07609 7.90869 5.39519 8.29652 5.70447C8.57143 5.92538 8.9298 6.17084 9.36672 6.44085C9.94109 6.79431 10.2995 7.02013 10.4369 7.11831C9.99018 7.35886 9.54836 7.60432 9.11144 7.84487C8.58616 8.13451 8.13942 8.36033 7.76632 8.52234C7.29013 8.73343 6.81394 8.89052 6.34266 9.00343C6.24939 9.02307 6.16102 9.01325 6.07757 8.96907C5.99411 8.92489 5.91556 8.86107 5.84193 8.77761C5.78301 8.65979 5.75356 8.54197 5.75356 8.42415C5.80756 8.14924 5.85665 7.87923 5.91065 7.60923C6.11193 7.31468 6.2592 7.01031 6.34266 6.69121C6.42612 6.37211 6.4703 6.02356 6.4703 5.64556C6.4703 5.52774 6.46539 5.39519 6.45066 5.24791C6.43594 5.10064 6.42121 4.94354 6.40157 4.77172C6.38193 4.5999 6.31321 4.24153 6.19539 3.6917C6.02356 2.90132 5.94011 2.30241 5.94011 1.89494L6.02847 1.74767C6.14629 1.91949 6.26411 2.0864 6.38193 2.25822C6.38193 1.95876 6.3083 1.62494 6.16593 1.26657C6.07266 1.03584 5.92538 0.741287 5.7241 0.373099L5.44919 0.864017C5.44919 1.35493 5.50319 1.95876 5.6161 2.6706C5.6701 3.01915 5.77811 3.62788 5.94993 4.50663C6.09229 5.24791 6.19048 5.86156 6.24448 6.35248C6.07266 6.54394 5.90083 6.69121 5.7241 6.79921C5.54737 6.90722 5.35592 6.96122 5.15464 6.96122C5.03682 6.96122 4.89936 6.93176 4.73736 6.87776C4.57536 6.82376 4.32499 6.54394 3.98625 6.04811C3.83407 5.83211 3.67207 5.70447 3.49534 5.66519C3.3137 5.76829 3.1566 5.90575 3.02406 6.07266C2.89151 6.23957 2.74914 6.51939 2.59205 6.91213C2.4595 7.24595 2.35641 7.47668 2.27786 7.60923C2.13549 7.84487 1.95876 8.03633 1.74767 8.17869C1.70839 8.21306 1.65439 8.22779 1.58076 8.22779C1.53657 8.22779 1.48257 8.21797 1.42366 8.20324C1.36475 8.18851 1.31075 8.17379 1.26657 8.15906C1.02602 8.02651 0.83947 7.82523 0.706922 7.55032C0.608738 7.34904 0.530192 7.08886 0.471282 6.77467C0.471282 6.71576 0.461463 6.59303 0.436917 6.40648C0.412371 6.21993 0.402553 6.08247 0.402553 5.9892C0.402553 5.85665 0.42219 5.74865 0.466372 5.65537C0.510555 5.5621 0.574374 5.50319 0.667649 5.46883C0.800196 5.35592 0.893471 5.21355 0.952381 5.04173C1.01129 4.8699 1.04075 4.68826 1.04075 4.49681C1.04075 4.41826 1.04075 4.36426 1.03093 4.3299C0.996563 4.36426 0.967109 4.42317 0.937654 4.51644C0.908198 4.60972 0.864016 4.66863 0.805105 4.69317C0.682376 4.71281 0.594011 4.67845 0.549828 4.59499C0.392735 4.37408 0.314187 4.12862 0.314187 3.85862C0.314187 3.6377 0.353461 3.41188 0.432008 3.18115C0.476191 3.04369 0.564556 2.83751 0.697104 2.56259C0.618557 2.60187 0.544919 2.69514 0.4811 2.83751C0.41728 2.97987 0.368188 3.07314 0.333824 3.11242C0.230731 3.31369 0.147276 3.5297 0.0883654 3.75061C0.0294552 3.97153 0 4.19244 0 4.40844C0 4.5999 0.0245461 4.77663 0.078547 4.94354C0.132548 5.11046 0.216004 5.25773 0.333824 5.38046C0.294551 5.66028 0.270005 5.86647 0.260187 5.9892C0.250368 6.11193 0.245459 6.29357 0.245459 6.52921C0.245459 6.86794 0.274914 7.19686 0.338733 7.50614C0.402553 7.81542 0.495827 8.09524 0.628375 8.33579C0.760923 8.53706 0.89838 8.69416 1.05056 8.80707C1.24202 8.94453 1.43839 9.01326 1.63967 9.01326C1.91458 8.91998 2.13058 8.76289 2.28768 8.54197C2.40059 8.38488 2.50859 8.13451 2.61659 7.79087C2.7246 7.44723 2.80805 7.21649 2.86696 7.09867C2.99951 6.83849 3.17133 6.6323 3.38733 6.48994C3.57879 6.48994 3.75061 6.62248 3.90771 6.89249C4.10407 7.2214 4.26608 7.42268 4.38881 7.50123C4.48208 7.58468 4.58027 7.64359 4.68336 7.67796C4.78645 7.71232 4.89936 7.72705 5.01718 7.72705C5.17428 7.72705 5.32155 7.70741 5.4541 7.66814C5.58665 7.62887 5.73392 7.57486 5.89102 7.50123C5.75847 7.85469 5.67992 8.08542 5.64556 8.18851C5.5621 8.46343 5.51792 8.70398 5.51792 8.90525C5.51792 9.0378 5.53265 9.15562 5.55719 9.26853C5.58174 9.38144 5.63083 9.48945 5.69465 9.59254C5.81247 9.71036 5.97447 9.76927 6.18557 9.76927C6.29848 9.76927 6.37703 9.76436 6.43103 9.74963C6.85812 9.60727 7.31468 9.42072 7.8056 9.18999C8.14433 9.03289 8.58616 8.81198 9.12126 8.53215C9.55817 8.29651 10 8.06578 10.4369 7.83505C10.5596 7.69759 10.6431 7.5405 10.6824 7.35886C10.7216 7.17722 10.7413 6.96613 10.7413 6.72558V6.55866ZM2.68041 0.952382C2.58223 0.819834 2.49386 0.721649 2.41532 0.648012C2.30241 0.554737 2.1944 0.500734 2.08149 0.481098C2.04222 0.52528 2.01276 0.594012 1.99313 0.687286C1.95385 0.878744 1.91949 0.996565 1.89003 1.04075C1.86058 1.08493 1.84585 1.13402 1.84585 1.1782C1.84585 1.25675 1.88022 1.33039 1.95385 1.39421C2.00785 1.43839 2.07658 1.47766 2.16004 1.50221C2.02258 1.75749 1.77221 2.06185 1.41384 2.41532C0.95729 2.86205 0.682376 3.13697 0.59892 3.24006C0.947472 3.01915 1.26166 2.76387 1.54148 2.48404C1.85076 2.17477 2.09131 1.86058 2.26804 1.54148L2.63132 1.62985C2.70496 1.4973 2.73932 1.36475 2.73932 1.2273C2.73932 1.13402 2.71969 1.04566 2.68041 0.952382ZM5.23319 4.26117L5.16446 4.49681C5.16446 4.49681 5.12027 4.46735 5.06627 4.42808C5.01227 4.38881 4.96809 4.37408 4.92882 4.38881C4.90427 4.45263 4.86009 4.62936 4.80609 4.90918C4.75209 5.189 4.66863 5.37555 4.56554 5.46883C4.54099 5.43446 4.47717 5.28719 4.37899 5.027C4.30535 4.83554 4.20226 4.74227 4.0648 4.74227C4.02062 4.69808 3.99607 4.64899 3.99607 4.59499C3.99607 4.55572 4.00589 4.50172 4.03044 4.4379C4.05498 4.37408 4.0648 4.32499 4.0648 4.30044C4.08444 4.2759 4.10898 4.25626 4.13844 4.24153C4.16789 4.2268 4.19244 4.23662 4.21208 4.26117C4.29553 4.35444 4.37899 4.50172 4.45754 4.71281C4.53608 4.92391 4.5999 5.06627 4.64408 5.14482C4.67845 5.09082 4.71772 4.91409 4.76681 4.60972C4.81591 4.30535 4.89445 4.15317 4.99755 4.15317C5.06136 4.15317 5.13991 4.18753 5.23319 4.26117ZM2.10113 5.38046C2.12077 5.41973 2.13058 5.4541 2.13058 5.48846C2.13058 5.54737 2.11586 5.60628 2.09131 5.66519C2.06676 5.7241 2.02749 5.79283 1.97349 5.87138C1.90967 5.89102 1.85076 5.87138 1.80658 5.81738C1.7624 5.76338 1.73294 5.70937 1.71821 5.65537C1.70349 5.60137 1.69858 5.54737 1.69858 5.48846C1.69858 5.38537 1.72803 5.26264 1.78203 5.12519C1.83603 4.98773 1.88022 4.88464 1.90476 4.811C1.90476 4.85518 1.89003 4.93864 1.86058 5.05646C1.83112 5.17428 1.8164 5.25773 1.8164 5.30192C1.8164 5.36574 1.82622 5.41974 1.84094 5.45901C1.85567 5.49828 1.89003 5.53756 1.94404 5.57683C1.9784 5.57192 2.00295 5.54737 2.02749 5.5081C2.05204 5.46883 2.07658 5.42464 2.10113 5.38046ZM3.76043 9.01326C3.7408 9.19489 3.72116 9.31762 3.69661 9.37162C3.67207 9.42562 3.63279 9.47963 3.57388 9.52381C3.43643 9.52381 3.35297 9.47472 3.31861 9.37653C3.30388 9.29799 3.29897 9.23908 3.29897 9.1998C3.29897 9.07707 3.32351 8.94453 3.3677 8.80707C3.44134 8.63525 3.49043 8.50761 3.51497 8.42415C3.5297 8.46342 3.53461 8.49779 3.53461 8.52234C3.53461 8.57634 3.52479 8.63525 3.50515 8.69907C3.45115 8.88071 3.42661 8.98871 3.42661 9.01326C3.42661 9.11635 3.48552 9.19489 3.60334 9.23908C3.64261 9.22435 3.66716 9.18998 3.68189 9.12616C3.69661 9.06234 3.72116 9.02798 3.76043 9.01326ZM18.0363 1.99313C18.002 2.00785 17.9676 1.98822 17.9234 1.93912C17.8792 1.89003 17.8547 1.86058 17.84 1.85567C17.8252 1.79676 17.8498 1.7673 17.9087 1.7673C17.948 1.7673 17.9823 1.78203 18.0167 1.8164C18.0511 1.85076 18.056 1.88512 18.0363 1.9244V1.99313ZM18.2425 5.7241C18.164 5.80265 18.0658 5.84193 17.948 5.84193C17.8694 5.84193 17.7958 5.8272 17.732 5.79283C17.4767 5.64065 17.3049 5.42464 17.2214 5.14482C17.3196 5.12027 17.4325 5.10555 17.5552 5.10555C17.6583 5.10555 17.7614 5.12519 17.8547 5.15955C17.948 5.19391 18.0265 5.24791 18.0854 5.32155C18.1443 5.39519 18.1836 5.46392 18.2032 5.52774C18.2229 5.59156 18.2376 5.66028 18.2425 5.7241ZM2.59205 1.30584L2.4055 1.28621C2.38586 1.25184 2.38095 1.22238 2.39568 1.18802C2.41041 1.15366 2.42513 1.11438 2.44477 1.06038L2.59205 1.30584ZM2.22877 1.15857C2.20422 1.14384 2.14531 1.1242 2.05204 1.09966C2.01767 1.08002 2.00785 1.05547 2.01276 1.02111C2.04713 0.986746 2.07658 0.972016 2.10113 0.972016C2.18459 0.972016 2.22877 1.0162 2.22877 1.09966V1.15857Z" fill="white"/>
</svg>
