<svg width="20" height="10" viewBox="0 0 20 10" fill="none" xmlns="http://www.w3.org/2000/svg">
<path fill-rule="evenodd" clip-rule="evenodd" d="M19.887 5.45198C19.9153 5.67797 19.9435 5.9322 19.967 6.20998C19.9906 6.48776 20 6.74199 20 6.96798C20 7.37288 19.9765 7.7354 19.9247 8.05084C19.8776 8.36629 19.7881 8.70527 19.661 9.06779L19.6139 9.10075C19.6987 8.68644 19.7363 8.26271 19.7363 7.82486C19.7363 7.72128 19.7363 7.6177 19.7316 7.51883C19.7316 7.41996 19.7128 7.24105 19.6798 6.9774L18.7288 0.932201C18.6911 0.866288 18.6723 0.790955 18.6723 0.715626C18.6723 0.63088 18.7194 0.51318 18.8089 0.357813C18.8983 0.202446 18.9501 0.0847458 18.9689 0C19.1573 0.367232 19.3173 0.701507 19.4444 0.993409C19.6234 1.39831 19.7646 1.75141 19.8635 2.04331C19.7976 2.00565 19.7269 1.94445 19.6563 1.85499C19.5857 1.77025 19.5151 1.6855 19.4492 1.60075L19.3597 1.8032C19.3597 2.35405 19.4539 3.11205 19.6422 4.0725C19.7787 4.75988 19.8588 5.21186 19.8917 5.43785L19.887 5.45198ZM16.1911 0.164779C16.1299 0.291898 16.0358 0.400183 15.9087 0.494345C15.8239 0.55555 15.6874 0.630885 15.4896 0.720338C15.339 0.781544 15.1836 0.842751 15.0282 0.913372C14.8682 0.979286 14.7363 1.05932 14.6234 1.14878C14.6704 0.988702 14.7458 0.866287 14.854 0.776833C14.9623 0.687379 15.1177 0.60734 15.3107 0.53201C15.5085 0.461389 15.6544 0.409603 15.7533 0.381355C15.9322 0.32015 16.0829 0.249525 16.1959 0.164779H16.1911ZM16.2806 1.89265C16.2194 2.05743 16.1017 2.19868 15.9322 2.31167C15.6215 2.47175 15.3202 2.62712 15.0188 2.78719C15.0047 2.72128 15.0235 2.65537 15.08 2.58945C15.1365 2.52354 15.2119 2.45763 15.3013 2.39171C15.2119 2.35405 15.1412 2.32109 15.0989 2.28814C15.0235 2.23635 14.9623 2.17985 14.92 2.11864C15.0047 1.93032 15.08 1.78908 15.146 1.69962C15.2589 1.53955 15.3861 1.43597 15.532 1.38418C15.5791 1.3936 15.6168 1.41243 15.6497 1.44538L15.7674 1.56308C15.7768 1.61017 15.7486 1.65725 15.6921 1.70433C15.6356 1.75141 15.5979 1.78907 15.5744 1.81261C15.5603 1.81261 15.532 1.79379 15.4896 1.75141C15.4473 1.70904 15.4096 1.69021 15.3719 1.69021C15.3202 1.69021 15.2542 1.75612 15.1789 1.89265C15.2307 1.9774 15.3202 2.03389 15.452 2.06214C15.6121 2.08568 15.725 2.09981 15.791 2.10923C15.8757 2.09981 15.9605 2.07156 16.0499 2.01977C16.1864 1.94444 16.2665 1.90207 16.2853 1.89736L16.2806 1.89265ZM18.1215 5.67797C18.1215 5.15066 18.032 4.55273 17.8578 3.87947C17.6789 3.21092 17.5141 2.58004 17.354 1.99152C17.354 1.96327 17.3446 1.90678 17.3305 1.82203C17.3164 1.73729 17.307 1.68079 17.307 1.64312C17.307 1.56779 17.3305 1.50659 17.3729 1.46422L17.7919 1.93973C17.7448 1.63842 17.58 1.23823 17.2928 0.74388C17.0951 0.404897 16.9727 0.174197 16.9209 0.0564949C16.8314 0.145949 16.7514 0.263649 16.6855 0.400184C16.6196 0.536719 16.5819 0.673257 16.5819 0.800375C16.5819 0.861581 16.5819 0.90395 16.5913 0.936907L17.8107 5.78625C17.8202 5.8757 17.8343 6.01224 17.8578 6.18644C17.8814 6.36535 17.8908 6.52542 17.8908 6.66666C17.8908 6.90207 17.8578 7.11393 17.7872 7.30696C17.7213 7.5 17.6083 7.66007 17.4482 7.78719C17.4482 7.69774 17.4482 7.60358 17.4529 7.50471C17.4529 7.40584 17.4576 7.30697 17.4576 7.19868C17.4576 7.04802 17.4482 6.91148 17.4341 6.78436C17.42 6.66195 17.387 6.54896 17.3446 6.45009C17.081 5.95103 16.6573 5.37194 16.0687 4.7081C15.5697 4.16667 15.0753 3.62052 14.5763 3.06967C14.0113 2.41996 13.6064 1.83615 13.3569 1.31826C13.4322 1.30414 13.4981 1.30885 13.5546 1.32768C13.6111 1.35122 13.6629 1.37476 13.7053 1.40772C13.6817 1.15819 13.4981 0.885118 13.1497 0.5838C12.9237 0.381351 12.7778 0.240109 12.7072 0.164779C12.6083 0.21186 12.5377 0.296605 12.5 0.428431C12.4576 0.560258 12.4247 0.734463 12.4058 0.955743C12.6695 1.40772 12.9614 1.87853 13.2815 2.37288C13.6017 2.86723 13.9077 3.3145 14.2043 3.70998C14.4774 4.06308 14.7787 4.39736 15.1083 4.71751L16.0593 5.70151C16.2335 5.88983 16.3842 6.06873 16.516 6.23352C16.6478 6.3983 16.7655 6.5725 16.8738 6.75141C17.1092 7.12806 17.2599 7.52824 17.3258 7.94726C16.9492 8.30979 16.4831 8.65348 15.9228 8.97363C15.4237 9.2467 14.9341 9.51506 14.4444 9.78813C14.8682 9.69868 15.1883 9.62806 15.4049 9.57156C16.0687 9.41149 16.5819 9.24199 16.9397 9.05367C17.4058 8.64877 17.7307 8.13089 17.9096 7.50471C18.0461 7.02919 18.1121 6.42184 18.1121 5.67325L18.1215 5.67797ZM11.2053 2.10923C11.2053 2.10923 11.2147 2.17043 11.2147 2.22222C11.2147 2.32109 11.1959 2.41525 11.1582 2.5047C11.1205 2.59416 11.0687 2.6742 10.9981 2.74011C10.8569 2.74011 10.7627 2.65536 10.7156 2.49058C10.7062 2.45292 10.7062 2.40113 10.7062 2.33051C10.7062 2.19397 10.7203 2.08098 10.7533 1.99152C10.7815 1.90207 10.838 1.77495 10.9228 1.60546C10.9228 1.61487 10.9087 1.68079 10.8851 1.8032C10.8569 1.92561 10.8475 2.02919 10.8475 2.10452C10.8475 2.24106 10.8945 2.33992 10.984 2.41054C11.0499 2.41054 11.097 2.36347 11.1252 2.27401C11.1535 2.18456 11.1817 2.12806 11.21 2.10452L11.2053 2.10923ZM12.7401 3.4322L12.2646 4.06308C12.0904 3.97363 11.9633 3.90301 11.8785 3.86064C11.7185 3.77119 11.6431 3.68173 11.6431 3.58757C11.6431 3.54049 11.662 3.4887 11.6996 3.4275L12.0951 2.89548C12.2316 2.96139 12.3635 3.04614 12.4906 3.14972C12.6177 3.2533 12.7024 3.34275 12.7401 3.4275V3.4322ZM11.5301 0.315442C10.904 0.480225 10.1648 0.748585 9.3032 1.11582C8.57345 1.44538 7.84369 1.77966 7.10923 2.10923C7.08569 2.14689 7.05273 2.21281 7.00094 2.30226C6.95386 2.39171 6.93974 2.47175 6.96328 2.53766C7.3258 2.25047 7.89548 1.94915 8.68173 1.63371C9.19962 1.43126 9.55744 1.2806 9.74576 1.18173C10.1365 1.02165 10.5273 0.86629 10.9228 0.706215C11.1959 0.59322 11.3983 0.461388 11.5348 0.310729L11.5301 0.315442ZM7.93785 0.800375C7.92373 0.941618 7.90019 1.05932 7.87194 1.14878C7.84369 1.23823 7.77778 1.30414 7.67891 1.3418C7.54237 1.3418 7.47646 1.27589 7.47646 1.13936C7.47646 0.941619 7.50471 0.753294 7.56591 0.56497C7.60358 0.44256 7.6742 0.273065 7.78249 0.0470767C7.79661 0.131822 7.77778 0.249527 7.72128 0.409602C7.66478 0.569678 7.63654 0.682673 7.63654 0.748586C7.63654 0.852164 7.67891 0.946327 7.75894 1.02166C7.78719 0.960451 7.81544 0.913371 7.83898 0.875707C7.86252 0.838042 7.89548 0.814502 7.94256 0.809793L7.93785 0.800375ZM10.6026 3.71469C10.4426 3.9548 10.2919 4.19491 10.1412 4.42561C10.0518 4.41149 9.96234 4.36911 9.86817 4.3032C9.61394 4.12429 9.46799 4.03013 9.43974 4.02071C9.46799 3.93597 9.51507 3.84181 9.57627 3.72881C9.59981 3.68173 9.70339 3.52636 9.89171 3.25329C10.146 3.35216 10.3861 3.50753 10.6026 3.71469ZM13.5311 8.45103C13.2815 8.64878 12.9849 8.79943 12.646 8.90301C12.3023 9.00659 11.9539 9.06309 11.6008 9.06309C11.1582 9.06309 10.7439 8.98305 10.3578 8.82768C9.95292 8.98776 9.54802 9.11958 9.14313 9.22787C8.73823 9.33615 8.35217 9.39265 7.98493 9.39265C7.5565 9.39265 7.16573 9.31733 6.80791 9.16667C6.51601 8.91243 6.29944 8.6064 6.15819 8.258C6.01695 7.9096 5.95104 7.52824 5.95104 7.12335C5.95104 5.86629 5.92279 4.75047 5.86158 3.7806C5.80038 2.81073 5.68267 1.83616 5.51318 0.866288C5.55085 0.790959 5.60264 0.687383 5.67326 0.560265C5.73917 0.433146 5.80979 0.324854 5.87571 0.230692C6.03578 0.856869 6.13465 1.63842 6.18173 2.58004C6.20527 3.39924 6.22881 4.25612 6.25706 5.15066C6.28531 6.0452 6.35593 6.80791 6.47834 7.44821C6.59134 7.6742 6.69492 7.8484 6.78437 7.9661C6.92561 8.16384 7.08098 8.28625 7.24576 8.33804C7.41055 8.38983 7.56591 8.4322 7.71657 8.45574C7.86252 8.48399 8.03202 8.49341 8.22034 8.49341C8.48399 8.49341 8.73823 8.46986 8.98776 8.41807C9.23729 8.37099 9.50094 8.29096 9.77872 8.18738C9.7693 8.11205 9.7646 8.04614 9.75989 7.98964C9.75989 7.93315 9.75518 7.88135 9.75518 7.83898C9.75518 7.42467 9.83992 7.03861 10.0094 6.68079C10.1789 6.32298 10.4426 6.02166 10.8051 5.78154C10.9463 5.76742 11.0734 5.79566 11.177 5.86629C11.2806 5.93691 11.3606 6.03578 11.4124 6.1676C11.4783 6.2806 11.5301 6.41243 11.5584 6.55838C11.5866 6.70433 11.6055 6.8597 11.6055 7.01506C11.6055 7.20339 11.5913 7.37759 11.5678 7.53296C11.5395 7.69303 11.5019 7.88136 11.4501 8.10735C11.6008 8.13089 11.742 8.1403 11.8785 8.1403C12.1516 8.1403 12.4153 8.09322 12.6789 8.00377C12.9426 7.91431 13.178 7.7919 13.3898 7.64124C13.3004 7.42467 13.1733 7.07156 13.0038 6.58662C12.839 6.10169 12.7166 5.76271 12.6412 5.57439C12.6789 5.37665 12.726 5.20715 12.7825 5.06591C12.839 4.92467 12.919 4.8305 13.0273 4.78342C13.0556 4.85875 13.1497 4.98587 13.3098 5.16949C13.4463 5.32957 13.5122 5.45197 13.5122 5.54143C13.5122 5.57909 13.5028 5.61676 13.4793 5.65442C13.3757 5.65442 13.3192 5.68267 13.3098 5.73446C13.3333 5.80979 13.404 6.03107 13.5264 6.40301C13.6911 6.90207 13.7759 7.29755 13.7759 7.58945C13.7759 7.76365 13.7571 7.9096 13.7241 8.03201C13.6911 8.15442 13.6299 8.29096 13.5358 8.45103H13.5311ZM8.15443 4.81168C8.2533 4.61394 8.30038 4.39265 8.30038 4.14312C8.30038 3.6676 8.15443 3.27213 7.85782 2.95669L7.72128 3.24858C7.86252 3.39924 7.9661 3.56874 8.03202 3.75235C8.09793 3.93597 8.12618 4.13842 8.12618 4.35499C8.12618 4.68456 8.06026 4.98117 7.93315 5.2354C7.96139 5.18832 8.00377 5.11299 8.05085 5.00942C8.09793 4.90584 8.13089 4.83521 8.14501 4.80696L8.15443 4.81168ZM9.11488 5.88512C9.0113 5.82392 8.92655 5.79567 8.86535 5.79567C8.7241 5.79567 8.62053 5.97929 8.55932 6.34181C8.49812 6.70904 8.45574 6.91619 8.42279 6.96798C8.35687 6.88323 8.26742 6.70433 8.15913 6.43126C8.05085 6.15819 7.92373 5.98399 7.78249 5.91808C7.64595 6.00753 7.58004 6.14406 7.58004 6.32297C7.58004 6.38418 7.58945 6.44538 7.61299 6.51601C7.67891 6.49247 7.7354 6.48305 7.78249 6.48305C7.92373 6.48305 8.04614 6.61487 8.14972 6.87382C8.2533 7.13276 8.33804 7.28813 8.40395 7.34463C8.46987 7.20339 8.52637 7.04331 8.57345 6.87382C8.62053 6.70433 8.67702 6.43126 8.75235 6.05461C8.85593 6.07816 8.95009 6.12052 9.03484 6.19115L9.11488 5.88512ZM2.83428 0.451973L2.78719 0.725044C2.72128 0.696795 2.66478 0.673255 2.62712 0.659131C2.58945 0.645007 2.54708 0.645007 2.50471 0.659131C2.41996 1.19585 2.34463 1.72316 2.2693 2.25047C2.0904 1.94915 1.90678 1.64783 1.72787 1.34652L1.64783 1.4501C1.52542 1.38418 1.4548 1.3418 1.43126 1.32768C1.36535 1.27589 1.31827 1.20527 1.29473 1.11111C1.30885 0.998117 1.32298 0.903955 1.32768 0.823917C1.3371 0.743879 1.37476 0.68267 1.44068 0.635589C1.61959 0.762708 1.77966 0.9322 1.9162 1.14406C1.98211 1.24764 2.0951 1.4548 2.24576 1.75612C2.25989 1.40772 2.27401 1.12052 2.29284 0.885118C2.30697 0.649713 2.39642 0.46139 2.55179 0.320147C2.66478 0.310731 2.75895 0.357816 2.83428 0.456686V0.451973ZM2.71186 3.45574C2.7354 3.50282 2.74482 3.54049 2.74482 3.56874C2.74482 3.62053 2.71657 3.69114 2.66478 3.77589C2.61299 3.86064 2.58004 3.91714 2.57533 3.94068C2.38701 4.129 2.18456 4.25612 1.96328 4.32674C1.98682 4.22787 2.07156 4.129 2.22222 4.03484C2.37288 3.93597 2.46704 3.85593 2.50471 3.79943C2.39171 3.76177 2.27401 3.74294 2.15631 3.74294C1.9774 3.74294 1.83145 3.79002 1.72787 3.88889C1.75141 3.78531 1.78908 3.68644 1.84087 3.60169C1.89266 3.51695 1.96798 3.46045 2.06685 3.43691H2.39642C2.52354 3.43691 2.63183 3.44632 2.71186 3.46045V3.45574ZM4.96234 6.31355C4.96234 5.97457 4.93409 5.62147 4.8823 5.24953C4.83051 4.8823 4.71281 4.26553 4.5339 3.40866C4.51977 3.29566 4.46798 3.05085 4.38324 2.67891C4.29849 2.30697 4.25141 2.01977 4.25141 1.81261C4.25141 1.6902 4.26083 1.5678 4.28437 1.44068C4.35028 1.46893 4.42561 1.52542 4.50565 1.60546C4.58569 1.68549 4.63748 1.75612 4.67043 1.81261C4.67985 1.78907 4.67985 1.75612 4.67985 1.70903C4.67985 1.52071 4.56215 1.19115 4.33145 0.725044C4.13371 0.33898 4.03484 0.13653 4.02542 0.11299C3.95951 0.164779 3.90301 0.235401 3.85593 0.320147C3.80885 0.404893 3.75235 0.536721 3.67702 0.71092C3.67702 1.32297 3.76177 2.01977 3.93597 2.81074C4.11017 3.6017 4.27966 4.38324 4.44915 5.15537C4.61864 5.92749 4.70339 6.63371 4.70339 7.27401C4.0113 8.10264 3.15913 8.63465 2.1516 8.86535C2.01507 8.88889 1.88795 8.8983 1.76554 8.8983C1.53013 8.8983 1.31827 8.85593 1.12053 8.7759C0.922787 8.69115 0.753296 8.55932 0.612053 8.38041C0.499058 8.27683 0.423729 8.15443 0.381356 8.01789C0.338983 7.88136 0.320151 7.72598 0.320151 7.54237C0.320151 7.35875 0.338983 7.17985 0.381356 7.00094C0.423729 6.82203 0.475518 6.63842 0.532015 6.45951H0.475518C0.348399 6.78437 0.258945 7.01506 0.216573 7.14689C0.0753296 7.57533 0 7.97081 0 8.33333C0 8.44633 0.00941617 8.57815 0.0282486 8.72881C0.047081 8.87947 0.155367 9.05838 0.348399 9.27025C0.522599 9.45857 0.734463 9.59981 0.979284 9.69868C1.17702 9.74576 1.36535 9.76459 1.54426 9.76459C1.93503 9.76459 2.33522 9.67514 2.74011 9.49152C3.05085 9.35499 3.40866 9.14312 3.81356 8.84651C4.21846 8.55461 4.51977 8.17326 4.7081 7.70715C4.87288 7.30226 4.95763 6.83145 4.95763 6.29472L4.96234 6.31355ZM3.52637 6.00753C3.54049 6.09698 3.54991 6.14877 3.54991 6.1676C3.54991 6.25235 3.50753 6.29002 3.4275 6.29002C3.32863 6.2759 3.26271 6.26648 3.22505 6.26648C3.12147 6.26648 3.06497 6.32768 3.06497 6.44539C3.06497 6.64313 3.05556 6.81261 3.03202 6.96327C2.98493 7.17985 2.95669 7.33992 2.94256 7.43879C2.85311 7.41054 2.74482 7.2693 2.62241 7.01506C2.5 6.76083 2.35876 6.63841 2.19868 6.63841C2.1516 6.63841 2.11394 6.63842 2.08569 6.64783C2.02448 6.61958 1.98682 6.59133 1.96798 6.5725C1.94915 6.55367 1.93974 6.53013 1.93974 6.49717C1.94915 6.48305 1.95857 6.41243 1.97269 6.2806C1.98682 6.15348 2.02448 6.06874 2.08569 6.03107C2.25989 6.09699 2.41996 6.24765 2.57062 6.47364C2.68362 6.67138 2.80132 6.8597 2.91902 7.04802C2.93315 6.98682 2.95198 6.78437 2.97081 6.43597C2.98964 6.08757 3.0838 5.91808 3.258 5.91808C3.33333 5.91808 3.42279 5.94632 3.53107 5.99811L3.52637 6.00753ZM1.17702 5.16949C1.17702 5.16949 1.12053 5.42373 1.03107 5.85688C0.969868 6.14407 0.856874 6.33239 0.69209 6.42185C0.588512 6.42185 0.484934 6.37005 0.386064 6.26177C0.334275 6.20998 0.263653 6.1064 0.169491 5.95574C0.117702 5.73917 0.0894539 5.50848 0.0894539 5.26836C0.0894539 4.85405 0.1742 4.4209 0.338983 3.96892C0.461394 3.62994 0.649718 3.23446 0.913371 2.78248C0.748588 3.17325 0.635593 3.45104 0.574388 3.62053C0.451977 3.97364 0.39548 4.28436 0.39548 4.54802C0.39548 4.74576 0.428437 4.91996 0.489642 5.08003C0.555556 5.24011 0.659134 5.38606 0.800377 5.5226C0.899247 5.54614 0.979284 5.49435 1.03578 5.37665C1.09699 5.25424 1.13936 5.18832 1.17232 5.1742L1.17702 5.16949ZM11.2665 7.51883C11.2053 7.35405 11.1488 7.18926 11.097 7.01977C10.9981 6.83145 10.8616 6.72787 10.678 6.70433C10.452 6.84086 10.2731 7.01506 10.146 7.22222C10.1318 7.28343 10.1224 7.3258 10.1224 7.35875C10.1224 7.4435 10.1507 7.52354 10.2119 7.60358C10.2731 7.68361 10.3531 7.75424 10.4473 7.82486C10.5085 7.83898 10.5508 7.8484 10.5838 7.8484C10.6968 7.8484 10.8004 7.82015 10.8992 7.76365C10.9981 7.70715 11.1158 7.62712 11.2618 7.51883H11.2665Z" fill="white"/>
</svg>
