<svg width="20" height="14" viewBox="0 0 20 14" fill="none" xmlns="http://www.w3.org/2000/svg">
<path fill-rule="evenodd" clip-rule="evenodd" d="M20 0.575915C19.9673 0.765705 19.856 0.916232 19.6728 1.03403C18.017 1.59032 16.3613 2.14005 14.712 2.68325C14.699 2.54581 14.7709 2.42147 14.9215 2.31675C15.072 2.2055 15.1571 2.1466 15.1636 2.13351C16.7736 1.62304 18.3901 1.09947 20 0.575915ZM15.8508 5.20942C15.8508 5.55628 15.7461 5.86387 15.5366 6.13874C15.4123 6.15183 15.301 6.10602 15.1963 6.0144C15.0982 5.92278 15.0327 5.81806 15 5.70026C15 5.45157 15.0262 5.22906 15.0785 5.03272C15.1309 4.83639 15.216 4.60078 15.3272 4.31937C15.3469 4.41099 15.3272 4.57461 15.2749 4.79712C15.216 5.01964 15.1898 5.1767 15.1898 5.26178C15.1898 5.37958 15.216 5.47121 15.2683 5.5432C15.3207 5.61518 15.4188 5.66754 15.5694 5.70026C15.6021 5.53011 15.6348 5.4123 15.6741 5.34686C15.7134 5.28141 15.7723 5.2356 15.8573 5.21597L15.8508 5.20942ZM9.56806 3.87434C9.48298 4.01178 9.39791 4.14267 9.31937 4.26701C9.40445 4.09686 9.46335 3.93979 9.48953 3.78272C9.52225 3.62565 9.53534 3.43586 9.53534 3.21989C9.53534 2.87304 9.48298 2.53927 9.37173 2.2055C9.26047 1.87827 9.1034 1.56414 8.89398 1.26964C8.9267 1.18456 8.95942 1.09948 8.9856 1.02094C9.02487 0.955496 9.07722 0.929318 9.14267 0.929318C9.33901 1.22382 9.49607 1.53141 9.60733 1.86518C9.71859 2.19241 9.77094 2.53272 9.77094 2.87958C9.77094 3.24607 9.7055 3.57984 9.56806 3.88744V3.87434ZM19.8691 9.20157C19.8691 8.83508 19.6859 8.5144 19.3194 8.24607C18.9921 8.05628 18.6715 7.86649 18.3442 7.68325C17.9058 7.42147 17.4542 7.29058 16.9961 7.29058C16.3024 7.29058 15.5497 7.63744 14.7317 8.32461C14.0838 8.93325 13.4359 9.54189 12.7814 10.144C12.8861 9.79058 12.9647 9.43717 13.0105 9.09031C13.0563 8.74346 13.0825 8.37042 13.0825 7.95812C13.0825 7.42147 13.0497 6.87828 12.9908 6.32199C12.8992 5.67409 12.801 5 12.7029 4.29319C12.6047 3.59293 12.5524 2.96466 12.5524 2.40838L12.7094 2.09424C12.7094 2.09424 12.8207 2.23822 12.945 2.42146C13.0366 2.5589 13.1152 2.65052 13.1806 2.70288C13.1086 2.17932 12.9908 1.69503 12.8272 1.25C12.6636 0.804976 12.4607 0.386126 12.2055 0C12.1401 0.117801 12.0353 0.294502 11.8783 0.536649C11.7605 0.759162 11.7081 0.948952 11.7081 1.11911C11.7081 1.23691 11.7277 1.33508 11.7736 1.42016L12.572 8.01702C12.5851 8.13482 12.6047 8.30498 12.6374 8.54058C12.6702 8.77618 12.6832 8.99215 12.6832 9.19503C12.6832 9.44372 12.6702 9.66623 12.6374 9.86257C12.6047 10.0589 12.5458 10.2421 12.4673 10.4188L11.8063 11.1257C11.7343 11.3024 11.623 11.4005 11.4791 11.4267C11.3351 11.4463 11.1715 11.4594 10.9948 11.4594H10.6348C10.445 11.4594 10.3076 11.4725 10.2291 11.4921C10.1963 11.4921 10.144 11.4921 10.072 11.5052H9.80367C8.88089 11.5052 8.02356 11.2631 7.21859 10.7853C6.42016 10.3011 5.75262 9.65314 5.21597 8.83508C4.65969 9.05759 4.20812 9.69895 3.84817 10.7657C3.61911 11.4332 3.42277 11.8914 3.26571 12.1335C3.12827 12.3102 2.94503 12.4018 2.71597 12.4018C2.65052 12.4018 2.57199 12.3887 2.46728 12.3691C1.82592 12.0746 1.39398 11.5445 1.16492 10.7853C1.1322 10.6675 1.02094 9.98691 0.818063 8.73037L1.00785 8.69765C1.25 8.52094 1.4267 8.29189 1.5445 8.01702C1.6623 7.74215 1.71466 7.4411 1.71466 7.11388C1.71466 7.0288 1.70157 6.91754 1.68194 6.76702C1.64267 6.80629 1.60995 6.85864 1.59686 6.91099C1.58377 6.96335 1.57068 7.0288 1.55759 7.11388C1.4856 7.25131 1.39398 7.35602 1.28927 7.43456C1.18455 7.51309 1.06675 7.53927 0.942408 7.50655C0.667538 7.12697 0.536649 6.71466 0.536649 6.26309C0.536649 5.84424 0.660995 5.34686 0.91623 4.77094C1.13874 4.31283 1.36126 3.84817 1.59031 3.39005C1.4856 3.4555 1.38089 3.5733 1.27618 3.75654C1.17147 3.93979 1.09293 4.05759 1.04058 4.10995C0.674084 4.8233 0.445025 5.30105 0.346858 5.55628C0.1178 6.14529 0 6.6754 0 7.15969C0 7.45419 0.0458108 7.72906 0.130889 7.98429C0.222512 8.23953 0.366491 8.48168 0.562826 8.69765C0.562826 9.46335 0.59555 10.1243 0.65445 10.6872C0.719895 11.25 0.870418 11.767 1.11256 12.2513C1.40707 12.6898 1.64267 12.9908 1.81937 13.1479C2.12042 13.4293 2.44764 13.5733 2.7945 13.5733C2.89921 13.5733 2.97775 13.5733 3.0301 13.5602C3.22644 13.4162 3.40314 13.2199 3.54712 12.9843C3.6911 12.7487 3.84817 12.356 4.01832 11.7997C4.15576 11.3416 4.27356 11.0013 4.37827 10.7919C4.54843 10.445 4.77094 10.1767 5.05236 9.97382C5.3534 10.5694 5.75262 11.0864 6.24346 11.5314C6.7801 12.0157 7.36257 12.3168 8.00393 12.4411C8.64529 12.5654 9.34555 12.6309 10.1113 12.6309C10.7199 12.6309 11.3154 12.5982 11.911 12.5393C12.5 12.4738 13.1086 12.3953 13.7238 12.2906C14.6793 12.1335 15.5955 11.9372 16.4856 11.695C17.3757 11.4529 18.2788 11.1649 19.2016 10.8312C19.3456 10.5825 19.5026 10.3272 19.6597 10.0785C19.8298 9.77749 19.9018 9.48953 19.8822 9.21466L19.8691 9.20157ZM10.3338 6.37435C10.3469 6.4267 10.3338 6.49215 10.2945 6.57068C10.2552 6.64922 10.2421 6.71466 10.2421 6.76702C10.1571 6.70157 10.072 6.63613 9.97382 6.57068C9.8822 6.50524 9.79058 6.47906 9.7055 6.49869C9.60079 7.14005 9.49607 7.77487 9.39136 8.41623C9.23429 8.33115 9.08377 8.08901 8.93325 7.69634C8.78927 7.29712 8.58639 7.10079 8.3377 7.10079C8.27225 7.10079 8.18717 7.11387 8.06937 7.1466C7.99738 7.10733 7.95812 7.04188 7.95812 6.95681C7.95812 6.90445 7.9712 6.82591 8.00393 6.7212C8.03665 6.61649 8.04974 6.5445 8.04974 6.49869C8.08246 6.43325 8.15445 6.34817 8.27225 6.23037C8.5144 6.34817 8.72382 6.58377 8.90052 6.95026C9.14921 7.48691 9.30628 7.78141 9.35864 7.84686C9.37173 7.77487 9.39136 7.51309 9.43063 7.06152C9.4699 6.60995 9.56806 6.27618 9.73822 6.05367C9.98691 6.05367 10.1898 6.15838 10.3338 6.3678V6.37435ZM6.36126 2.21204C6.38089 2.29712 6.39398 2.35602 6.39398 2.3822C6.39398 2.46728 6.34817 2.57853 6.25 2.70942C6.15838 2.84686 6.10602 2.93194 6.09293 2.97775C6.00785 2.97775 5.85079 2.91885 5.62173 2.80759C5.49738 2.74215 5.39267 2.71597 5.30759 2.71597C4.92147 3.15445 4.47644 3.55367 3.97251 3.90707C3.34424 4.34555 2.48691 4.79712 1.39398 5.25524C2.63743 4.38482 3.88743 3.5144 5.13089 2.65053C5.1178 2.63744 5.05236 2.61126 4.92147 2.5589C4.79058 2.50655 4.71204 2.43456 4.67932 2.33639C4.71204 2.11387 4.78403 1.90445 4.90183 1.70812C4.96728 1.6034 5.09817 1.41361 5.30759 1.14529C5.54974 1.19764 5.76571 1.32199 5.94895 1.52487C6.13874 1.72121 6.27618 1.95681 6.35471 2.21859L6.36126 2.21204ZM3.17408 8.69765C3.13482 8.88744 3.09555 9.07068 3.06283 9.24738C3.02356 9.36518 2.95811 9.45026 2.87304 9.51571C2.75524 9.51571 2.66361 9.47644 2.58508 9.39791C2.50654 9.31937 2.44764 9.2212 2.40183 9.10995C2.38874 9.0445 2.38874 8.94634 2.38874 8.8089C2.38874 8.53403 2.42147 8.27225 2.49346 8.02356C2.5589 7.77487 2.65707 7.51309 2.78141 7.23822C2.70942 7.63743 2.63743 8.03011 2.57853 8.41623C2.57853 8.69765 2.66361 8.92016 2.82722 9.07723C2.9123 9.09686 2.96466 9.07068 2.99084 8.99215C3.01702 8.91361 3.04319 8.81545 3.07592 8.70419H3.16754L3.17408 8.69765ZM19.0838 9.90838C17.9712 10.288 16.8914 10.5825 15.8377 10.805C14.784 11.0275 13.5995 11.2042 12.2775 11.3416C12.7487 10.8704 13.2199 10.3927 13.6911 9.91492C14.6728 8.93979 15.5628 8.4555 16.3613 8.4555C16.4856 8.4555 16.623 8.46859 16.767 8.48822C16.911 8.50786 17.055 8.54712 17.199 8.60602C17.3429 8.66492 17.6047 8.76963 17.9908 8.9267C18.534 9.17539 18.894 9.50916 19.0772 9.91492L19.0838 9.90838ZM6.09293 2.51309C6.09293 2.51309 5.98168 2.46073 5.82461 2.40838C5.66754 2.35602 5.589 2.30367 5.589 2.24477C5.589 2.19241 5.60864 2.14005 5.65445 2.0877L5.68717 1.94372C5.79188 1.98299 5.87696 2.06806 5.93586 2.19241C5.96859 2.25785 6.02094 2.36257 6.09293 2.50655V2.51309ZM5.37304 2.21204C5.37304 2.21204 5.26832 2.17278 5.11126 2.12696C4.96073 2.08115 4.90838 2.00916 4.96073 1.91754C5.01309 1.86518 5.07199 1.839 5.13089 1.839C5.26832 1.839 5.34686 1.89791 5.36649 2.00916V2.21204H5.37304Z" fill="white"/>
</svg>
