<svg width="20" height="13" viewBox="0 0 20 13" fill="none" xmlns="http://www.w3.org/2000/svg">
<path fill-rule="evenodd" clip-rule="evenodd" d="M19.8926 6.16565C19.9182 6.39571 19.9438 6.66667 19.9642 6.97341C19.9898 7.28528 20 7.55113 20 7.77097C20 8.16463 19.9744 8.53784 19.9182 8.88548C19.862 9.23313 19.7751 9.5859 19.6524 9.92843C19.6524 9.0542 19.5961 8.09816 19.4785 7.07055C19.407 6.42638 19.274 5.48569 19.0849 4.25869C18.8701 2.89366 18.7372 1.97853 18.681 1.52352C18.7065 1.38549 18.7577 1.24745 18.8344 1.1043C18.911 0.96626 18.9928 0.828226 19.0746 0.700414C19.2229 1.03784 19.3712 1.37015 19.5297 1.70757C19.6933 2.10635 19.8006 2.47444 19.8466 2.81186C19.816 2.74029 19.7495 2.65849 19.6575 2.56646C19.5654 2.47444 19.4939 2.41309 19.453 2.37219C19.453 2.91411 19.499 3.51739 19.5961 4.19224C19.6881 4.86708 19.7853 5.52147 19.8824 6.16053L19.8926 6.16565ZM15.4141 1.88139C15.3732 2.01432 15.3425 2.11146 15.3272 2.17792C15.2863 2.30062 15.2301 2.38242 15.1534 2.42332C15.0562 2.45399 14.9744 2.41309 14.908 2.30061C14.8926 2.26994 14.8671 2.2137 14.8364 2.14213C14.8364 1.93763 14.8569 1.76381 14.8926 1.61554C14.9284 1.46728 14.9949 1.32413 15.0971 1.1861C15.1074 1.25256 15.092 1.35992 15.0562 1.50307C15.0205 1.64622 15 1.75358 15 1.80982C15 1.94786 15.0562 2.0501 15.1738 2.11656C15.2147 2.10634 15.2454 2.08078 15.271 2.02965C15.2965 1.97853 15.3221 1.93252 15.3425 1.88139H15.4141ZM13.7321 1.45195C13.8037 1.60021 13.8446 1.76892 13.8446 1.95297C13.8446 2.18814 13.7832 2.37219 13.6605 2.49489L13.3538 2.34663C13.3129 2.40287 13.272 2.46422 13.226 2.53068C13.18 2.59714 13.1288 2.63804 13.0726 2.65338C13.0317 2.67894 12.9806 2.68917 12.9243 2.68917C12.8528 2.68917 12.7914 2.65849 12.7505 2.59203C12.6789 2.45399 12.638 2.30062 12.638 2.13702C12.638 1.90696 12.6943 1.70246 12.8119 1.52352C12.8272 1.5542 12.8374 1.60532 12.8374 1.67178C12.8374 1.73824 12.8374 1.80982 12.8272 1.89162C12.817 1.97342 12.817 2.01943 12.817 2.02454C12.817 2.17792 12.863 2.28528 12.9499 2.34151C13.0061 2.33129 13.0675 2.32106 13.1339 2.30061C13.2004 2.28016 13.2464 2.23927 13.2669 2.18303C13.2669 2.1319 13.2566 2.06033 13.2413 1.9632C13.226 1.86606 13.2157 1.78937 13.2157 1.72802C13.2157 1.58998 13.2618 1.48773 13.3487 1.42127C13.3793 1.4775 13.3998 1.5542 13.3998 1.64111C13.3896 1.75358 13.3896 1.83538 13.3896 1.8865C13.3896 2.06544 13.4867 2.15746 13.6861 2.15746C13.7014 2.10634 13.6963 2.02454 13.6605 1.90184C13.6299 1.77914 13.6094 1.69734 13.6094 1.65644C13.6094 1.55931 13.6503 1.48773 13.7321 1.44683V1.45195ZM13.2157 1.09407C13.2873 1.02761 13.3282 0.956036 13.3282 0.874237C13.3282 0.766875 13.2618 0.674848 13.1339 0.593049C13.1493 0.536812 13.1697 0.475462 13.1902 0.409C13.2106 0.342537 13.2157 0.286302 13.2106 0.235177C13.2106 0.081803 13.1595 0 13.0521 0C12.9806 0 12.8885 0.0409026 12.7812 0.122702C12.6738 0.204502 12.6074 0.276078 12.5869 0.332316C12.546 0.38344 12.5256 0.434564 12.5256 0.490801C12.5256 0.572601 12.5716 0.649291 12.6585 0.725978C12.6994 0.766878 12.771 0.818002 12.8681 0.884464C12.6074 1.17076 12.2597 1.46729 11.8252 1.77915C11.59 1.95297 11.2219 2.20348 10.7311 2.5409C11.1656 2.36708 11.5644 2.15236 11.9325 1.89162C12.3006 1.63089 12.6585 1.30879 13.001 0.935584L13.2209 1.09407H13.2157ZM14.2485 3.78324C14.2178 3.82414 14.1564 3.93661 14.0746 4.12066C13.9928 4.30471 13.9008 4.43252 13.8037 4.50921C13.7628 4.45808 13.6503 4.39673 13.4663 4.31493C13.2822 4.23313 13.1902 4.15133 13.1902 4.06953C13.1902 4.02863 13.2157 3.9724 13.2618 3.89571L13.7168 3.4407L14.2434 3.78324H14.2485ZM14.9744 4.54499C14.7699 4.35583 14.5552 4.22802 14.3252 4.15133C14.1104 4.41207 13.9928 4.57055 13.9673 4.61656C13.911 4.70859 13.8701 4.81084 13.8446 4.92332L14.5092 5.28119C14.6626 5.03579 14.8211 4.79039 14.9744 4.54499ZM15.2812 6.20143C15.2658 6.29857 15.2505 6.39571 15.2454 6.49796C15.2198 6.61043 15.1636 6.69735 15.0716 6.75358C14.8824 6.80471 14.7751 6.72291 14.7393 6.50819C14.7393 6.08385 14.8722 5.70552 15.1329 5.37833C15.1227 5.41923 15.0767 5.5726 14.9847 5.84356C14.9438 5.96626 14.9233 6.05829 14.9233 6.12475C14.9233 6.23722 14.9591 6.33436 15.0358 6.40593C15.092 6.42127 15.138 6.3906 15.1687 6.31391C15.1994 6.23722 15.2403 6.19632 15.2812 6.19632V6.20143ZM13.7577 4.71882C13.6452 4.66258 13.5225 4.60634 13.3998 4.54499C13.2771 4.48875 13.1544 4.44786 13.0317 4.4223C12.9755 4.50409 12.8937 4.62679 12.7914 4.78528C12.6892 4.94376 12.6329 5.0818 12.6278 5.19428C12.7352 5.25051 12.8476 5.30675 12.9652 5.3681C13.0828 5.42434 13.1953 5.45502 13.3027 5.45502C13.41 5.36299 13.4969 5.25051 13.5736 5.11247C13.6145 5.03067 13.6759 4.89776 13.7577 4.71882ZM11.5746 0.731088C11.5184 0.904912 11.3139 1.03272 10.9611 1.11963C10.6084 1.20655 10.3937 1.27301 10.3119 1.32414C8.78834 1.82516 7.27505 2.32107 5.76176 2.82209C5.8589 2.56646 6.01738 2.41309 6.22699 2.35685C7.06033 2.06033 8.16973 1.71268 9.5501 1.31391C10.4601 1.05317 11.135 0.858897 11.5746 0.736198V0.731088ZM11.2423 4.0951L11.1708 4.37628C11.0787 4.34561 11.002 4.31493 10.9356 4.28937C10.8691 4.2638 10.8078 4.2587 10.7515 4.27915C10.6186 4.72904 10.4959 5.17383 10.3732 5.61861C10.3221 5.57771 10.2198 5.38855 10.0665 5.05624C9.95399 4.80061 9.78528 4.67792 9.56544 4.67792C9.49898 4.63702 9.4683 4.57055 9.4683 4.48364C9.4683 4.44274 9.47853 4.39673 9.49387 4.35072C9.5092 4.30471 9.52965 4.23825 9.55521 4.16667C9.64724 4.07465 9.70348 4.03374 9.72904 4.03374C9.75971 4.03374 9.79039 4.04908 9.81595 4.08487C9.91309 4.19734 10.0153 4.36605 10.1227 4.58589C10.2045 4.76483 10.2914 4.94376 10.3783 5.11247C10.4294 4.90798 10.4755 4.70348 10.5266 4.49898C10.5982 4.26892 10.7004 4.08998 10.8333 3.95706C10.9867 3.92638 11.1299 3.97239 11.2526 4.10532L11.2423 4.0951ZM5.42434 1.70245C5.39366 1.88139 5.37321 1.98876 5.36299 2.01943C5.32209 2.1268 5.25562 2.21371 5.16871 2.29039C5.08691 2.31596 5.02556 2.28528 4.98466 2.19837C4.94376 2.11145 4.9182 2.05522 4.91309 2.03477C4.91309 1.81493 4.93354 1.62066 4.96933 1.45195C5.00511 1.28324 5.07158 1.12474 5.17382 0.966257C5.18405 1.03272 5.17382 1.10941 5.1636 1.20143C5.10736 1.4724 5.07669 1.62066 5.07669 1.65644C5.07669 1.72291 5.08691 1.77914 5.11247 1.83027C5.13804 1.88139 5.18405 1.91718 5.26074 1.94274C5.2863 1.9274 5.31186 1.88651 5.33231 1.82005C5.35787 1.75359 5.38855 1.7178 5.42945 1.70757L5.42434 1.70245ZM7.93967 5.02556C7.97035 5.09203 7.97546 5.16871 7.94479 5.26585C7.91411 5.36299 7.87321 5.4499 7.81697 5.5317C7.76074 5.63906 7.67894 5.69019 7.57157 5.69019C7.53067 5.69019 7.49489 5.67485 7.4591 5.63906C7.42843 5.5726 7.40286 5.49591 7.38753 5.40389C7.37219 5.31186 7.36196 5.22495 7.36196 5.13293C7.36196 4.9591 7.38241 4.80062 7.42843 4.64725C7.47444 4.49387 7.53579 4.3405 7.61759 4.1769C7.56646 4.43763 7.52556 4.69837 7.48466 4.94888C7.48466 5.04602 7.49489 5.1227 7.51534 5.17383C7.53579 5.22495 7.57669 5.2863 7.64315 5.35276C7.71472 5.35276 7.77607 5.31697 7.81697 5.24029C7.85787 5.1636 7.89877 5.09203 7.93967 5.02045V5.02556ZM17.3364 2.91412C17.0399 2.16258 16.7485 1.40594 16.4519 0.644177C16.3292 0.782214 16.2372 0.91002 16.181 1.02249C16.089 1.18609 16.0481 1.33947 16.0481 1.4775C16.1708 2.07566 16.2935 2.66871 16.411 3.26176C16.5286 3.85481 16.6462 4.47853 16.7536 5.12781C16.8609 5.7771 16.9581 6.37526 17.0297 6.9274C17.0297 7.02454 17.045 7.1728 17.0808 7.36708C17.1115 7.56135 17.1319 7.70961 17.1319 7.80675C17.1319 7.96012 17.1012 8.09817 17.045 8.21064C16.8661 8.36401 16.6258 8.44581 16.319 8.44581C16.1145 8.44581 15.9202 8.41002 15.7311 8.33333C15.6084 8.24131 15.5368 8.18507 15.5112 8.15951C15.4397 8.08794 15.3988 8.01125 15.3988 7.93967C15.3988 7.909 15.4039 7.87322 15.4192 7.84254C15.4294 7.81187 15.4448 7.7863 15.4601 7.77097C15.3885 7.8272 15.2965 7.98569 15.184 8.24131C15.0716 8.49694 14.9335 8.65031 14.7597 8.70143C14.6626 8.71677 14.5859 8.727 14.5399 8.727C14.32 8.727 14.1411 8.65542 14.0133 8.51738C13.9571 8.46115 13.9264 8.39468 13.9264 8.32311C13.9264 8.30777 13.9417 8.22086 13.9775 8.06748C13.9877 8.01125 13.9877 7.96013 13.9877 7.91923C13.8906 8.05215 13.7935 8.17485 13.7065 8.29755C13.502 8.57363 13.3078 8.75767 13.1186 8.83947C13.0879 8.8497 13.0419 8.85992 12.9857 8.87015C12.9294 8.88037 12.8783 8.89059 12.8374 8.89059C12.5665 8.89059 12.316 8.77812 12.091 8.54806C12.0348 8.49693 12.0041 8.4407 12.0041 8.37424C12.0297 8.2771 12.0552 8.19019 12.0757 8.11861C12.1012 8.04704 12.1063 7.98057 12.0859 7.92434C11.9734 7.95501 11.6718 8.1953 11.1912 8.63497C10.9867 8.81391 10.7924 8.94172 10.6033 9.0133C10.3834 9.12577 10.1431 9.18712 9.89264 9.18712C9.60634 9.18712 9.33027 9.13088 9.06953 9.0133C8.80879 8.90082 8.56339 8.73723 8.33333 8.5225C8.53783 8.38447 8.92127 8.26687 9.48875 8.17996C10.3988 8.04192 10.8487 7.69428 10.8487 7.13702C10.4141 6.90696 9.94376 6.73825 9.43252 6.62577C8.92127 6.5133 8.37935 6.46217 7.80675 6.46217C7.26483 6.46217 6.70245 6.5133 6.11452 6.62066C5.88446 6.67179 5.74131 6.85583 5.67996 7.1728C5.61861 7.48977 5.58793 7.65849 5.58793 7.67383L5.96626 7.52556C6.18098 7.59714 6.35481 7.67894 6.49284 7.76074C6.682 7.87321 6.83027 8.00614 6.94785 8.1544C6.18098 8.4816 5.48569 8.82413 4.86196 9.18712C4.51943 9.39162 4.21268 9.59612 3.94172 9.80062C3.72188 9.97444 3.4407 10.1994 3.10838 10.4857C2.61759 10.9203 2.34151 11.1657 2.27505 11.2219C1.97342 11.4673 1.67689 11.682 1.39059 11.8609C1.36503 11.8609 1.32413 11.8712 1.26789 11.8865H1.14519C1.03783 11.8865 0.940695 11.8661 0.858896 11.8303C0.771984 11.7945 0.695296 11.7331 0.633947 11.6513C0.567485 11.5695 0.526585 11.4877 0.506135 11.411C0.485685 11.3344 0.47546 11.227 0.47546 11.0838C0.47546 10.9202 0.501023 10.7464 0.55726 10.5573C0.608385 10.3681 0.669734 10.2096 0.736197 10.0767C0.59816 10.2965 0.501023 10.5522 0.439673 10.8385C0.414111 10.9918 0.388548 11.1554 0.368098 11.319C0.398773 11.5644 0.45501 11.7587 0.526585 11.907C0.633947 12.1115 0.777096 12.2342 0.956033 12.2751C1.06339 12.2648 1.22699 12.2495 1.44683 12.2239C1.62577 12.1933 1.7638 12.1319 1.86605 12.0399C2.31595 11.6411 2.75051 11.2832 3.16462 10.9714C3.61452 10.634 4.06953 10.3374 4.53477 10.0716C4.99489 9.80573 5.47035 9.56544 5.95603 9.3456C6.44172 9.13088 6.94785 8.93661 7.46933 8.76278C7.78119 9.1411 8.10839 9.43763 8.45603 9.66258C8.80368 9.88753 9.18712 10.0256 9.60123 10.0716C10.0205 10.0716 10.4039 9.9591 10.7566 9.73927C11.0583 9.5501 11.3599 9.26892 11.6513 8.89059C11.6667 8.99796 11.6871 9.10532 11.7127 9.20757C11.9172 9.56033 12.2342 9.73416 12.6585 9.73416C12.8067 9.73416 12.955 9.68814 13.1135 9.59101C13.2669 9.49898 13.4458 9.33027 13.6401 9.0951L13.8139 9.40184C13.9622 9.52454 14.1462 9.58589 14.3661 9.58589C14.4734 9.58589 14.545 9.57567 14.5859 9.56033C14.7495 9.53477 14.8824 9.44275 14.9796 9.27915C15.0358 9.18712 15.1125 9.04397 15.2147 8.83947C15.2454 8.9315 15.2914 8.99796 15.3476 9.04397C15.4039 9.08998 15.5317 9.16155 15.726 9.25869C15.7822 9.26892 15.864 9.27915 15.9714 9.28937C16.0787 9.2996 16.1759 9.30982 16.2679 9.30982C16.4571 9.30982 16.6207 9.28426 16.7587 9.22802C16.8967 9.17689 17.0143 9.08487 17.1166 8.95195C17.2393 8.63497 17.3211 8.34356 17.3671 8.08794C17.4131 7.83231 17.4335 7.53579 17.4335 7.19837C17.4335 6.98364 17.4233 6.74847 17.3978 6.49285C17.3722 6.23723 17.3466 6.00716 17.3108 5.81289C17.1728 5.14827 17.0348 4.48876 16.8916 3.82414C16.82 3.41514 16.7791 3.02148 16.7791 2.64827C16.82 2.55113 16.8609 2.5 16.9018 2.5C16.9325 2.5 16.999 2.56647 17.091 2.7045C17.183 2.83743 17.2699 2.909 17.3415 2.909L17.3364 2.91412ZM8.35378 3.22086C7.75562 3.3998 7.14724 3.58896 6.5184 3.77812C5.89468 3.97239 5.32209 4.16156 4.80573 4.35072C4.7137 4.37628 4.63701 4.42741 4.57055 4.5041C4.50409 4.58078 4.45297 4.66769 4.41207 4.76994C5.05624 4.49898 5.67485 4.26892 6.26278 4.08487C6.53886 3.99285 7.16769 3.80879 8.13906 3.52249L8.26176 3.3998C8.33333 3.32823 8.36401 3.26688 8.34867 3.22598L8.35378 3.22086ZM14.5757 10.2659C14.5245 10.455 14.4785 10.5879 14.4274 10.6697C14.3558 10.8027 14.2485 10.8896 14.1104 10.9407C14.0542 10.9407 13.9775 10.9509 13.8906 10.9765C13.6759 11.0327 13.5429 11.0634 13.4867 11.0634C13.3384 11.0634 13.2157 10.9918 13.1186 10.8436C12.863 10.91 12.592 11.0174 12.2955 11.1605C12.183 11.2168 11.9223 11.3599 11.5235 11.59C11.1963 11.7791 10.9356 11.9121 10.7362 11.9939C10.4499 12.1166 10.1636 12.1933 9.8773 12.229C10.138 12.1319 10.4192 11.9939 10.726 11.8252C10.9458 11.7025 11.2065 11.5491 11.498 11.3599C11.8967 11.1145 12.2188 10.9305 12.454 10.8129C12.6892 10.6953 12.9141 10.6033 13.1288 10.5368C13.2209 10.5266 13.3282 10.5726 13.4611 10.6646C13.5941 10.7566 13.6912 10.8078 13.7577 10.818C13.7832 10.7464 13.8139 10.6646 13.8497 10.5828C13.8855 10.501 13.9315 10.4397 13.9928 10.3988L14.0184 10.6186C14.0849 10.6339 14.1309 10.6442 14.1513 10.6442C14.2434 10.6442 14.3098 10.6186 14.3558 10.5624C14.4018 10.5112 14.453 10.4294 14.5092 10.3221C14.5092 10.2965 14.5348 10.2761 14.5808 10.2607L14.5757 10.2659ZM1.59509 1.37015L1.50818 1.60532C1.39571 1.57464 1.30368 1.5542 1.23722 1.5542C1.16564 1.5542 1.10941 1.58487 1.07873 1.65133C1.00716 2.02966 0.935583 2.39775 0.869121 2.76585C0.787321 2.70961 0.700409 2.55113 0.613497 2.2955C0.521472 2.03988 0.414111 1.90696 0.281186 1.90696C0.224949 1.90696 0.173824 1.91718 0.132924 1.93251C0.0408999 1.89161 0 1.82005 0 1.72291C0 1.67178 0.010225 1.62066 0.0255625 1.55931C0.0408999 1.49796 0.0562375 1.43661 0.0766874 1.37015C0.117587 1.30369 0.168712 1.27301 0.235174 1.27301C0.286299 1.27301 0.327198 1.28835 0.357873 1.32414C0.45501 1.43661 0.552147 1.61554 0.654397 1.85583C0.751534 2.09612 0.828221 2.2546 0.874233 2.32618C0.904908 2.07055 0.945808 1.86094 0.99182 1.68712C1.03783 1.51329 1.11452 1.35992 1.21677 1.22188C1.26789 1.21166 1.32924 1.21677 1.40593 1.227C1.48262 1.23722 1.54908 1.28835 1.59509 1.37015ZM4.02352 3.12372C3.95706 3.1135 3.89059 3.05215 3.81902 2.93456C3.74744 2.81698 3.69632 2.7454 3.65542 2.71984L3.49693 2.93967C3.64519 3.97751 3.79346 5.01534 3.95194 6.05829C3.9775 6.32925 3.98773 6.59509 3.98773 6.85583C3.98773 7.26483 3.94683 7.65338 3.87014 8.02147C3.79346 8.38957 3.66564 8.73722 3.49693 9.06442C3.56851 8.6043 3.60941 8.15951 3.60941 7.72495C3.60941 7.12679 3.54806 6.4724 3.42536 5.75665C3.30266 5.0409 3.17996 4.30982 3.05726 3.56851C2.93456 2.82209 2.87321 2.17792 2.87321 1.63088C2.84254 1.56442 2.82209 1.49285 2.82209 1.41105C2.82209 1.27301 2.85276 1.14009 2.91922 1.01228C2.98569 0.884464 3.0726 0.766873 3.19018 0.649286C3.33845 0.976485 3.48671 1.38549 3.6452 1.87629C3.76789 2.29551 3.89571 2.70962 4.02352 3.12884V3.12372ZM1.54397 2.9908C1.50307 3.16462 1.41104 3.30778 1.26278 3.42536C1.11452 3.54295 0.95092 3.62475 0.771984 3.66565L0.736197 3.61452C0.787321 3.55829 0.874233 3.50205 1.00716 3.4407C1.14008 3.37935 1.23211 3.318 1.28834 3.24642C1.19121 3.23109 1.11963 3.21575 1.07362 3.21063C1.02761 3.20041 0.966258 3.20041 0.884458 3.20041C0.654397 3.20041 0.480573 3.26176 0.357873 3.38446C0.327198 3.32823 0.337424 3.26176 0.393661 3.1953C0.449898 3.12372 0.506135 3.05726 0.567485 2.9908C0.756647 2.93456 0.925358 2.90389 1.06851 2.90389C1.23211 2.90389 1.39059 2.93456 1.54908 2.9908H1.54397ZM8.77301 10.818C8.54294 11.1196 8.23108 11.3395 7.8272 11.4673C7.63804 11.5337 7.4182 11.5644 7.16258 11.5644C6.95808 11.5644 6.78425 11.544 6.63599 11.5031C6.52352 11.4366 6.46217 11.3446 6.46217 11.2219C6.46217 11.1657 6.47239 11.1094 6.49796 11.0634C6.61043 10.8998 6.73313 10.7413 6.85583 10.5828C6.74335 10.5266 6.64622 10.455 6.57464 10.3732C6.60532 10.2607 6.66667 10.1534 6.75358 10.0614C6.84049 9.96933 6.94785 9.8773 7.08078 9.78528C7.22904 9.7546 7.31595 9.7955 7.35174 9.90798C7.34151 9.94888 7.33129 9.97955 7.31595 10.0051C7.23415 10.0716 7.18303 10.1176 7.15746 10.138C7.07566 10.0562 6.99898 10.0256 6.92229 10.0409L6.83538 10.1125C6.90695 10.2505 7.03477 10.3221 7.2137 10.3221C7.28016 10.3221 7.33129 10.3119 7.37219 10.2965C7.41309 10.2812 7.47444 10.2556 7.55113 10.2147C7.62781 10.1789 7.69939 10.1585 7.76585 10.1585C7.70961 10.3119 7.52045 10.455 7.19325 10.5828C6.87117 10.7106 6.70757 10.8896 6.70757 11.1145C6.90184 11.227 7.12679 11.2883 7.38241 11.2883C7.60225 11.2883 7.83231 11.2423 8.07771 11.1554C8.318 11.0634 8.54806 10.9509 8.77301 10.8129V10.818ZM1.54397 5.2863C1.54397 5.43457 1.52352 5.55727 1.48262 5.6544C1.44172 5.75154 1.37014 5.82822 1.26278 5.87424C1.04806 5.87424 0.925358 5.76176 0.894683 5.5317C0.894683 5.29653 0.935583 5.06646 1.01227 4.85174C1.08896 4.63702 1.19632 4.4223 1.33947 4.20757C1.23211 4.51943 1.12986 4.82618 1.03272 5.12781C1.03272 5.30164 1.10941 5.43456 1.26789 5.5317C1.33436 5.54193 1.38037 5.51636 1.41104 5.46013C1.44172 5.40389 1.47239 5.34765 1.50307 5.2863H1.55419H1.54397ZM3.2362 7.75051C3.09816 7.98569 2.90389 8.1953 2.65849 8.37424C2.46933 8.5225 2.21881 8.66564 1.90184 8.80368C1.58487 8.94172 1.34458 9.04909 1.17076 9.12066C0.858896 9.25358 0.608384 9.37628 0.424335 9.49898C0.424335 9.36605 0.49591 9.23313 0.644172 9.10021C0.792434 8.96728 0.935583 8.83436 1.07362 8.71166C0.869121 8.61964 0.741309 8.55829 0.695297 8.52761C0.547035 8.43559 0.449898 8.32311 0.398773 8.18508C0.613497 7.76585 0.797546 7.4591 0.950921 7.26483C1.22699 6.90696 1.51329 6.72291 1.79959 6.72291C1.93763 6.72291 2.08078 6.77403 2.22904 6.87117C2.30061 6.92229 2.34151 6.98364 2.34151 7.06544C2.34151 7.13191 2.31084 7.20348 2.2546 7.28528C2.1728 7.3773 2.10634 7.44888 2.06033 7.50001C2.01431 7.55113 1.96319 7.60225 1.91718 7.64827C1.87117 7.69428 1.82004 7.72495 1.7638 7.74029C1.7229 7.65849 1.67178 7.58181 1.60532 7.51534C1.53886 7.44377 1.46728 7.41309 1.38548 7.41309C1.30368 7.41309 1.23722 7.42331 1.18098 7.43865C1.12986 7.45399 1.07873 7.48978 1.02761 7.53579C1.14008 7.72495 1.30368 7.85788 1.51841 7.93456C1.73313 8.01125 1.96319 8.05215 2.21881 8.05215C2.34151 8.05215 2.52045 8.00614 2.75051 7.909C2.98569 7.81697 3.14417 7.76074 3.2362 7.7454V7.75051ZM12.9397 0.501028C12.8988 0.485691 12.8579 0.465236 12.817 0.439673C12.7761 0.414111 12.771 0.383442 12.8067 0.342543C12.863 0.332318 12.909 0.35788 12.9397 0.414117V0.501028ZM9.07464 7.46933L7.73517 7.88855L7.34151 7.36197C7.40798 7.36197 7.77096 7.39264 8.43558 7.44888C8.62474 7.46422 8.83436 7.47444 9.07464 7.47444V7.46933Z" fill="white"/>
</svg>
