<svg width="20" height="14" viewBox="0 0 20 14" fill="none" xmlns="http://www.w3.org/2000/svg">
<path fill-rule="evenodd" clip-rule="evenodd" d="M16.1163 1.53978C16.0536 1.50557 15.9852 1.48275 15.911 1.48275C15.7913 1.48275 15.6715 1.56259 15.5575 1.72797C15.2267 2.1842 15.0442 2.42372 14.9986 2.45223C14.7248 2.68035 14.4397 2.90846 14.1374 3.13088C13.8352 3.35329 13.5557 3.53008 13.2877 3.65555C13.7097 3.30767 14.1317 2.95979 14.5595 2.60051C15.0499 2.16139 15.4206 1.75078 15.6658 1.36869C15.6316 1.33447 15.5232 1.26034 15.3464 1.15768C15.1697 1.05503 15.0613 0.940977 15.0271 0.821216C15.0613 0.621615 15.1297 0.444818 15.2324 0.296544C15.335 0.148269 15.4719 0.045623 15.643 0C15.7457 0 15.8255 0.0342187 15.8825 0.108356C15.9395 0.182494 15.9909 0.279443 16.0251 0.3935C16.008 0.450529 15.9966 0.518955 15.9966 0.598795C15.9966 0.70715 16.0365 0.826925 16.122 0.952389C16.2019 1.07785 16.2475 1.1748 16.2475 1.23753C16.2475 1.31737 16.2076 1.41432 16.122 1.52268L16.1163 1.53978ZM12.706 1.20901C12.7345 1.26604 12.7459 1.31737 12.7459 1.3744C12.7459 1.45424 12.7174 1.54548 12.6661 1.63672C12.6091 1.72797 12.5577 1.81351 12.5007 1.89905C12.4266 1.91616 12.3524 1.93327 12.284 1.95608C12.2555 1.95608 12.2213 1.94467 12.1756 1.91616C12.0502 1.76218 11.9818 1.58541 11.9818 1.39721C11.9818 1.20902 12.0388 0.986598 12.1585 0.71286C12.3524 0.285144 12.4437 0.0627352 12.4437 0.0570323C12.4551 0.0855467 12.4551 0.131164 12.4551 0.193896C12.4551 0.302251 12.4323 0.422008 12.3867 0.547472C12.2669 0.883942 12.2099 1.08354 12.2099 1.15198C12.2099 1.30025 12.2726 1.43142 12.4038 1.55118L12.706 1.22042V1.20901ZM10.8298 0.56458C10.8013 0.712854 10.7841 0.792708 10.7727 0.809817C10.7385 0.912468 10.6758 0.940973 10.596 0.906756C10.5617 0.861133 10.5104 0.82692 10.4477 0.804108C10.3849 0.781297 10.2994 0.758476 10.1853 0.741367C10.077 0.878237 10.0086 1.07784 9.98004 1.34587C9.91731 1.89335 9.82606 2.22412 9.7063 2.33248L8.95352 1.07214C8.93641 1.1748 8.88509 1.22042 8.80525 1.22042C8.78814 1.22042 8.74822 1.20901 8.69689 1.1919C8.63986 1.17479 8.59424 1.15768 8.54862 1.13487C8.50299 1.04362 8.48018 0.952387 8.48018 0.86114C8.48018 0.678648 8.53721 0.507554 8.64557 0.353576C8.9022 0.416307 9.11891 0.598795 9.3014 0.901047C9.44967 1.16338 9.59224 1.42573 9.74052 1.68236C9.78614 1.44284 9.83747 1.2033 9.88879 0.95808C9.96293 0.695747 10.0713 0.490451 10.2196 0.342176C10.2538 0.330771 10.3051 0.330759 10.3678 0.330759C10.5218 0.330759 10.6758 0.410602 10.8355 0.56458H10.8298ZM6.78072 1.3744C6.79783 1.43713 6.78072 1.53978 6.72369 1.67665C6.66667 1.81352 6.63815 1.89336 6.62675 1.91047C6.59253 1.93898 6.54691 1.9732 6.49558 2.01312C6.44425 2.05304 6.39293 2.07586 6.3359 2.07586C6.29028 2.07586 6.25606 2.06444 6.22755 2.04733C6.09068 1.91046 6.02224 1.72226 6.02224 1.48844C6.02224 1.43141 6.03365 1.35158 6.05076 1.24322L6.35301 0.62732C6.35301 0.701458 6.3416 0.775598 6.32449 0.844033C6.26176 1.10066 6.22755 1.24892 6.22755 1.29455C6.22755 1.44282 6.28457 1.5626 6.39293 1.66525C6.48417 1.68236 6.55831 1.65954 6.60964 1.59111C6.66667 1.52267 6.71799 1.45424 6.77502 1.3801L6.78072 1.3744ZM10.0257 5.26376C10.0257 5.43485 10.0086 5.58882 9.96863 5.71428C9.93442 5.83974 9.86598 5.95381 9.77474 6.04506C9.63787 6.09068 9.52381 6.07356 9.43827 5.99942C9.35272 5.91958 9.28999 5.82264 9.25577 5.70288C9.22156 5.58312 9.19874 5.46906 9.19874 5.3607C9.19874 5.17821 9.23296 4.98431 9.3071 4.77331C9.31851 4.7562 9.39264 4.57941 9.54092 4.23724C9.47819 4.40832 9.43827 4.5509 9.41545 4.65355C9.39835 4.7562 9.38694 4.87026 9.38694 4.99002C9.38694 5.12689 9.40405 5.24665 9.43256 5.3436C9.46678 5.44625 9.52381 5.53749 9.60365 5.62874C9.712 5.67436 9.79755 5.65155 9.84887 5.5546C9.9059 5.45765 9.95723 5.36071 10.0143 5.25806L10.0257 5.26376ZM19.9886 6.75792C19.8631 6.19903 19.4582 5.66295 18.7853 5.14399C17.8158 4.38551 17.2854 3.95209 17.1828 3.84374C17.2854 3.78671 17.3881 3.72968 17.4964 3.66695C17.3767 3.53008 17.2113 3.39892 16.9946 3.26776C16.7779 3.14229 16.487 3.00542 16.1106 2.85715L15.8255 3.68976C15.797 3.73539 15.7856 3.77531 15.7856 3.81523C15.7856 3.87796 15.8369 3.9578 15.9338 4.04905C16.1449 4.23154 16.2532 4.35699 16.2646 4.43113C15.7057 4.69346 15.2723 5.09267 14.953 5.62874C14.6336 6.16481 14.4739 6.72939 14.4739 7.3339C14.4397 7.57342 14.2344 7.73311 13.8694 7.81295C13.6698 7.85858 13.3676 7.91559 12.9683 7.97832C12.86 7.57912 12.6262 7.23125 12.2783 6.9461C11.9247 6.66096 11.5426 6.47848 11.1206 6.40434C10.6929 6.48418 10.3621 6.75791 10.134 7.21414C9.98574 7.49928 9.87169 7.91559 9.78044 8.47447C9.91731 8.77672 10.134 8.98204 10.4249 9.09039C10.6359 9.17023 10.9381 9.21586 11.343 9.21586C11.3544 9.21586 11.5027 9.21015 11.7993 9.19304C12.0958 9.18163 12.3296 9.17022 12.5064 9.17022C12.4323 9.36982 12.2669 9.58654 12.016 9.81465C11.6966 10.0998 11.5027 10.2823 11.44 10.3621C10.5446 11.0636 9.83747 11.5597 9.31851 11.8392C8.48589 12.284 7.68748 12.5121 6.9233 12.5121C6.81494 12.5121 6.7237 12.5121 6.64956 12.5064C6.57542 12.5064 6.50128 12.495 6.41574 12.4836C6.12489 12.3753 5.90248 12.1756 5.7428 11.8962C5.58882 11.6111 5.50898 11.3088 5.50898 10.978C5.50898 10.9324 5.50898 10.8697 5.49758 10.7841C5.49758 10.2937 5.76561 9.86598 6.30738 9.5124C7.48218 8.74821 8.09239 8.138 8.1266 7.69318C8.15512 7.5278 8.16652 7.37953 8.16652 7.24266C8.16652 6.54691 7.69889 5.95381 6.76932 5.45195C5.5546 4.79612 4.84175 4.32848 4.61933 4.05474C4.61933 3.94638 4.63644 3.87225 4.66496 3.84374C4.69917 3.80952 4.79042 3.79812 4.9444 3.79812C5.11548 3.79812 5.22384 3.74109 5.25806 3.63273C4.88166 3.49586 4.66496 3.41603 4.60222 3.38751C4.3627 3.28486 4.1517 3.1708 3.9578 3.04534C3.82093 3.07385 3.72398 3.15369 3.67265 3.29056C3.61563 3.53578 3.57 3.78101 3.52438 4.01483C3.81523 4.49958 4.23724 4.9615 4.78472 5.41203C5.13259 5.69717 5.65155 6.05646 6.35301 6.50128C7.04876 6.9461 7.54491 7.28828 7.83576 7.5335C7.35101 7.95551 6.77502 8.34901 6.09638 8.7254C5.58312 9.01054 4.9444 9.3242 4.18021 9.67208C3.13088 10.1454 2.49216 10.442 2.26404 10.5617C2.08155 10.6245 1.88765 10.6872 1.67665 10.7556C1.46564 10.8184 1.27745 10.8526 1.11776 10.8526C0.992301 10.8526 0.866838 10.8298 0.75278 10.7784C0.638723 10.7271 0.541774 10.6473 0.456231 10.5389C0.427716 10.4021 0.41631 10.2766 0.41631 10.1568C0.41631 9.80895 0.518962 9.39265 0.729969 8.9136C1.03222 8.21215 1.1976 7.81865 1.22042 7.73881C0.764186 8.48019 0.496151 8.93641 0.410608 9.1075C0.136869 9.66638 0 10.1853 0 10.6701C0 10.8355 0.0114059 11.0009 0.0399203 11.1605C0.114058 11.3544 0.211007 11.5141 0.325064 11.651C0.444825 11.7878 0.587397 11.8791 0.764186 11.9247C1.43713 11.862 2.25834 11.5939 3.21642 11.1149C4.52238 10.4648 5.28087 10.0998 5.50328 10.02C5.38352 10.3222 5.28657 10.6302 5.21813 10.9495C5.144 11.2689 5.10978 11.5711 5.10978 11.8506C5.10978 12.1072 5.144 12.3524 5.20673 12.592C5.26946 12.8315 5.37211 13.0368 5.50898 13.2193C5.69147 13.3904 5.89107 13.5158 6.11349 13.5957C6.3302 13.6755 6.56972 13.7097 6.82635 13.7097C7.08298 13.7097 7.3339 13.6698 7.57913 13.5843C8.77673 13.128 9.83747 12.5406 10.767 11.8164C11.8506 10.9666 12.6262 10.0257 13.0824 8.98204C13.4474 8.9079 13.8295 8.79955 14.2344 8.64557C14.6336 8.49729 15.0271 8.34902 15.4092 8.20074C15.7571 8.20074 16.2475 8.3205 16.8862 8.55432C17.525 8.79384 17.9983 8.9079 18.3119 8.9079C18.4374 8.9079 18.5857 8.89078 18.7568 8.85086C18.9279 8.81665 19.0761 8.75963 19.2016 8.68549C19.5096 8.53152 19.7149 8.24066 19.8061 7.82435C19.8517 7.59624 19.9145 7.24266 20 6.75792H19.9886ZM2.61762 0.678644L2.52067 1.11776C2.42943 0.946673 2.30396 0.901049 2.13858 0.992296C2.01882 1.11206 1.89906 1.43713 1.785 1.96179C1.72797 2.22412 1.64243 2.41233 1.52267 2.52068C1.45994 2.42943 1.37439 2.25833 1.27745 2.00741C1.17479 1.75648 1.07214 1.574 0.963787 1.46564C0.952381 1.54548 0.929569 1.59111 0.883946 1.59111C0.849729 1.59111 0.781295 1.55119 0.678643 1.46564C0.621614 1.42002 0.581694 1.39721 0.55318 1.39721C0.473339 1.34018 0.427716 1.26604 0.427716 1.16339C0.427716 1.10066 0.450528 1.00941 0.490448 0.895356C0.530368 0.781299 0.55318 0.707165 0.55318 0.667245C0.570288 0.633027 0.610208 0.615915 0.661534 0.62732C0.718563 0.638726 0.764186 0.650136 0.809809 0.667245C0.946678 0.792708 1.06644 0.946673 1.16339 1.11776C1.30026 1.4029 1.43713 1.68236 1.57399 1.9675C1.68235 1.61392 1.76789 1.34018 1.81922 1.14628C1.93898 0.769894 2.10436 0.587396 2.30967 0.587396C2.41232 0.587396 2.50927 0.615919 2.61192 0.667245L2.61762 0.678644ZM2.16709 3.1822C2.16709 3.53578 1.91617 3.83804 1.41431 4.08326C0.96949 4.29997 0.735672 4.41403 0.718563 4.42544C0.7927 4.29998 0.918164 4.18022 1.10066 4.07186C1.60251 3.7525 1.86484 3.58141 1.88195 3.5643C1.71657 3.51868 1.55689 3.49587 1.40291 3.49587C1.14628 3.49587 0.952381 3.5586 0.815512 3.68976C0.844026 3.47876 0.929569 3.33048 1.08355 3.23923C1.23182 3.14799 1.42572 3.10237 1.65384 3.10237C1.72797 3.10237 1.81922 3.11377 1.92757 3.13088C2.03593 3.14798 2.12147 3.1651 2.1728 3.18791L2.16709 3.1822ZM3.78101 7.61904C3.73539 7.95551 3.70117 8.15512 3.68406 8.21214C3.66695 8.26917 3.60992 8.35472 3.51868 8.46307C3.39892 8.48018 3.30197 8.45166 3.21642 8.37182C3.13658 8.29198 3.06815 8.19504 3.02253 8.07528C3.01112 8.01825 3.01112 7.93271 3.01112 7.81295C3.01112 7.43086 3.11377 7.06017 3.32478 6.70659C3.29056 6.82635 3.25634 6.95752 3.22213 7.09438C3.18791 7.23696 3.1765 7.36242 3.1765 7.47078C3.1765 7.69889 3.24494 7.88138 3.38181 8.01825C3.50157 8.04676 3.58141 7.98974 3.62133 7.84717C3.66125 7.7046 3.71258 7.62475 3.78101 7.60764V7.61904ZM15.7571 0.832616C15.6943 0.650123 15.6487 0.547479 15.6202 0.518964C15.5632 0.456232 15.4947 0.43912 15.4035 0.461932C15.3579 0.461932 15.335 0.490455 15.335 0.541781C15.335 0.604512 15.3579 0.644433 15.4035 0.667245C15.4833 0.729976 15.5575 0.781302 15.6145 0.809817C15.6715 0.844034 15.7228 0.849724 15.7571 0.832616ZM19.5096 7.45936C19.3727 7.56201 19.2244 7.63616 19.059 7.68749C18.8936 7.73881 18.7283 7.76161 18.5515 7.76161C18.3348 7.76161 18.0838 7.72741 17.8101 7.65327C17.5364 7.57914 17.274 7.49928 17.0174 7.40804C17.0744 7.22554 17.1657 6.929 17.2911 6.51839C17.3938 6.142 17.4394 5.81694 17.4394 5.5318C17.7303 5.74851 18.0211 5.9652 18.3176 6.17621C18.9222 6.64385 19.3157 7.07157 19.5096 7.46507V7.45936ZM16.9775 6.55831C16.7494 6.68378 16.5441 6.79212 16.3559 6.87196C16.1677 6.9518 15.9681 7.03165 15.7628 7.10578C15.5689 7.04875 15.3978 6.98032 15.2495 6.88907C15.1012 6.79783 14.9758 6.68378 14.8845 6.54691C15.0043 6.3188 15.1697 6.10778 15.3864 5.90818C15.6031 5.71428 15.8141 5.58883 16.0251 5.5318C16.162 5.50329 16.2817 5.51469 16.3787 5.56031C16.4813 5.60593 16.5897 5.68577 16.7094 5.79413C16.8007 5.91389 16.8634 6.03365 16.9033 6.16481C16.9147 6.18192 16.9376 6.31309 16.9832 6.56402L16.9775 6.55831ZM11.9019 8.09239H11.5997C11.2917 8.09239 11.0522 8.06958 10.8868 8.02396C10.6302 7.94982 10.4534 7.81865 10.3507 7.62475C10.4762 7.5335 10.6131 7.48788 10.7613 7.48788C10.8868 7.48788 11.0237 7.5221 11.1719 7.59624C11.4115 7.76162 11.651 7.927 11.8962 8.08668L11.9019 8.09239Z" fill="white"/>
</svg>
