<svg width="20" height="11" viewBox="0 0 20 11" fill="none" xmlns="http://www.w3.org/2000/svg">
<path fill-rule="evenodd" clip-rule="evenodd" d="M19.9399 2.17435L19.494 1.72846C19.494 2.25952 19.5441 2.9008 19.6493 3.6523C19.8798 5.32565 20 6.38778 20 6.82866C20 7.23948 19.9749 7.61523 19.9198 7.96092C19.8697 8.30661 19.7796 8.6523 19.6493 9.00801C19.6493 8.91282 19.6493 8.73246 19.6593 8.46693C19.6693 8.2014 19.6693 8.001 19.6693 7.86573L19.0681 2.54008C19.0681 2.06913 19.0431 1.70841 18.988 1.46793C18.9379 1.22745 18.8577 1.00701 18.7525 0.806613C18.8327 0.556112 18.8828 0.410822 18.9078 0.360722C18.988 0.185371 19.0832 0.0651302 19.1984 0C19.2635 0.170341 19.3838 0.445894 19.5591 0.831665C19.8096 1.36774 19.9299 1.81864 19.9299 2.17936L19.9399 2.17435ZM11.0772 1.38276C11.0471 1.53306 11.017 1.68838 10.992 1.83868C10.9369 2.01403 10.8317 2.12926 10.6814 2.17435C10.6162 2.1994 10.5611 2.20942 10.511 2.20942C10.3758 2.20942 10.2555 2.15932 10.1503 2.05411C10.0952 1.9489 10.0651 1.84369 10.0651 1.72846C10.0651 1.59318 10.1002 1.45291 10.1753 1.30762C10.2254 1.21744 10.3006 1.10221 10.4058 0.956916C10.4208 1.0471 10.4008 1.15731 10.3407 1.28757C10.2806 1.41783 10.2505 1.50802 10.2505 1.55812C10.2505 1.61323 10.2755 1.67835 10.3307 1.75851C10.3808 1.83366 10.4509 1.87375 10.5411 1.87375C10.6112 1.87375 10.6964 1.8487 10.7916 1.80361C10.8868 1.72345 10.9118 1.65331 10.8617 1.58818C10.8317 1.53307 10.7615 1.46293 10.6563 1.37776C10.5511 1.29259 10.501 1.22746 10.501 1.17736C10.501 1.12726 10.5411 1.06713 10.6212 0.986974C10.7114 1.01703 10.7966 1.07214 10.8868 1.14729C10.977 1.22244 11.0371 1.3026 11.0772 1.38276ZM12.9509 3.73748C12.9359 3.84269 12.9208 3.9479 12.9158 4.0481C12.8908 4.15832 12.8407 4.2485 12.7605 4.31363C12.6653 4.35371 12.5852 4.32866 12.525 4.24349C12.4649 4.15331 12.4299 4.09318 12.4148 4.0531C12.4048 4.01302 12.3948 3.92284 12.3948 3.78757C12.3948 3.66733 12.4098 3.53707 12.4349 3.39679C12.4649 3.25651 12.5 3.11623 12.5501 2.98096C12.5601 3.04609 12.5501 3.14629 12.5301 3.28657C12.51 3.42685 12.5 3.52204 12.5 3.56713C12.5 3.71242 12.515 3.80762 12.5501 3.86273C12.5802 3.91283 12.6403 3.96293 12.7204 4.00301C12.7605 3.99299 12.7956 3.9479 12.8307 3.86273C12.8607 3.77756 12.9008 3.73748 12.9509 3.73748ZM16.0772 9.32865C16.0772 9.57915 16.022 9.80962 15.9068 10.02C15.7966 10.2305 15.6413 10.4108 15.4509 10.5561C15.5711 10.3707 15.6613 10.2355 15.7164 10.1453C15.8267 9.96994 15.8868 9.81964 15.8868 9.6994C15.8868 9.58918 15.8517 9.48898 15.7766 9.40882C15.6814 9.38377 15.6263 9.40882 15.6062 9.49399C15.5661 9.46894 15.5561 9.43387 15.5812 9.37876C15.6062 9.32866 15.6313 9.27855 15.6513 9.22846C15.7164 9.13828 15.7816 9.0982 15.8417 9.0982C15.9719 9.0982 16.0471 9.17334 16.0721 9.32865H16.0772ZM8.94789 2.90581C8.96292 3.01603 8.93787 3.11123 8.87775 3.18137C8.84769 3.17135 8.78757 3.1513 8.70741 3.11623C8.62725 3.08116 8.55711 3.06613 8.502 3.07615C8.40681 3.20641 8.3517 3.43687 8.34669 3.77254C8.33667 4.10822 8.29158 4.34369 8.2014 4.48397C8.12124 4.42886 8.01102 4.27354 7.87074 4.01302C7.73046 3.75751 7.58016 3.62225 7.41984 3.60221C7.30962 3.55211 7.23447 3.49198 7.20441 3.41182C7.21944 3.30661 7.23447 3.22144 7.24449 3.14629C7.25451 3.07114 7.28457 3.01603 7.32465 2.97595C7.5 3.00601 7.66032 3.14128 7.80561 3.37174C7.92585 3.57214 8.0511 3.77254 8.17635 3.97294C8.19138 3.91783 8.21643 3.73748 8.25651 3.43187C8.29158 3.12626 8.38176 2.91082 8.52705 2.78056C8.59719 2.75551 8.66733 2.75551 8.72745 2.78056C8.78757 2.80561 8.86272 2.84569 8.94789 2.9008V2.90581ZM10.3206 5.70641C10.3307 5.8016 10.3206 5.89679 10.2956 5.98697C10.2705 6.07715 10.2305 6.1974 10.1753 6.34269C10.1102 6.37275 10.0501 6.37274 9.98998 6.33266C9.92986 6.29258 9.88477 6.23246 9.8497 6.1523C9.83467 6.02204 9.82465 5.92184 9.82465 5.8517C9.82465 5.69138 9.84469 5.54108 9.87976 5.40581C9.91483 5.27054 9.97495 5.11523 10.0551 4.9499C10.0551 5.00501 10.0451 5.08517 10.02 5.19038C9.96493 5.44088 9.93487 5.6012 9.93487 5.68136C9.93487 5.86673 10.015 5.99198 10.1753 6.0521C10.1854 6.04208 10.1954 5.98698 10.2104 5.88177C10.2254 5.77656 10.2605 5.71643 10.3206 5.7014V5.70641ZM17.6202 5.31062C17.6052 5.24048 17.52 4.83968 17.3697 4.10821C17.1944 3.26653 17.0792 2.60521 17.0341 2.12425C17.024 2.08417 17.024 2.02405 17.024 1.94389C17.024 1.82365 17.0541 1.73347 17.1092 1.67836L17.52 2.0491C17.5301 2.00902 17.5301 1.9489 17.5301 1.86874C17.5301 1.69338 17.3597 1.29259 17.024 0.666333C16.8888 0.410823 16.8287 0.19539 16.8437 0.0150294C16.6984 0.12024 16.6032 0.240481 16.5481 0.375751C16.498 0.511022 16.4679 0.666334 16.4679 0.846695C16.4679 0.886775 16.478 1.01202 16.498 1.21743C16.518 1.42785 16.5281 1.58818 16.5281 1.6984C16.5782 2.16433 16.6884 2.82565 16.8637 3.68237C17.0741 4.69439 17.1994 5.3507 17.2495 5.65631C17.3697 6.37775 17.4299 7.04409 17.4299 7.6503C17.2695 7.74549 17.0842 7.79559 16.8788 7.79559C16.6884 7.79559 16.498 7.75551 16.3126 7.67535C16.0471 7.52505 15.8517 7.29459 15.7214 6.98898C15.6563 6.82866 15.5862 6.54309 15.506 6.13727L14.7946 0.330663L14.6743 0.175354C14.5691 0.415835 14.4689 0.651305 14.3737 0.886776C14.484 1.50301 14.5842 2.17435 14.6743 2.9008C14.7645 3.62725 14.8547 4.37876 14.9549 5.16032C15.0551 5.94188 15.1503 6.58317 15.2355 7.07916C15.1703 7.26453 15.0551 7.41483 14.8848 7.53006C14.7144 7.64529 14.5341 7.70541 14.3437 7.70541C14.2084 7.72044 14.0782 7.7004 13.9579 7.64028C13.8377 7.58016 13.7275 7.49499 13.6222 7.37976C13.5822 7.32465 13.5621 7.27455 13.5621 7.23447C13.5621 7.22445 13.5772 7.16934 13.6122 7.06413C13.6423 6.95892 13.6473 6.88377 13.6222 6.83367C13.2114 7.05912 12.7856 7.25952 12.3347 7.43988C11.8838 7.62024 11.4429 7.76052 11.012 7.86573C10.4208 8.001 9.83467 8.07114 9.25852 8.07114C8.86773 8.07114 8.48697 8.04108 8.12625 7.98597C7.71543 7.88076 7.3497 7.7004 7.01904 7.44489C6.6483 7.15431 6.42786 6.82866 6.34769 6.45791C6.24248 5.92184 6.14228 5.26052 6.04208 4.47394C5.94188 3.68737 5.8517 2.94088 5.77154 2.22445C5.66633 1.36774 5.56613 0.671339 5.47094 0.145287C5.36072 0.320638 5.27555 0.485969 5.22044 0.646289C5.16533 0.8016 5.13527 0.96693 5.13527 1.14729C5.13527 1.19739 5.13527 1.2475 5.14529 1.30762C5.15531 1.36774 5.16533 1.42785 5.18036 1.49298C5.22044 1.83868 5.34569 2.62024 5.5511 3.83768C5.83166 5.49098 5.97194 6.80361 5.97194 7.78056C5.79659 7.97094 5.56112 8.17635 5.26052 8.39178C5.1002 8.51202 4.8497 8.68737 4.51403 8.92284C4.16333 9.13326 3.78256 9.30361 3.37174 9.43387C2.96092 9.56413 2.57014 9.63427 2.19439 9.63427C1.91383 9.63427 1.65331 9.59419 1.40782 9.51904C1.16232 9.44389 0.946894 9.32865 0.751503 9.17835C0.606212 9.08817 0.506012 8.98797 0.450902 8.86773C0.395792 8.74749 0.365731 8.6022 0.365731 8.43687C0.365731 8.34168 0.375751 8.19138 0.400801 7.99098C0.425852 7.79058 0.435872 7.64028 0.435872 7.54509C0.501002 7.33467 0.566132 7.12424 0.626252 6.90881C0.716433 6.65831 0.861723 6.54308 1.07214 6.55811C1.24749 6.41282 1.37776 6.2024 1.45792 5.92184C1.498 5.77154 1.54309 5.52104 1.58818 5.17535C1.5481 5.20541 1.50802 5.26052 1.46794 5.33066C1.42786 5.4008 1.40782 5.46593 1.40782 5.52104C1.31764 5.69138 1.19739 5.74148 1.03707 5.67635C0.906814 5.51603 0.816633 5.3507 0.766533 5.18537C0.716433 5.01503 0.686373 4.83467 0.686373 4.63427C0.686373 4.2986 0.776553 3.85772 0.961924 3.31162C1.04208 3.07114 1.12725 2.83567 1.21242 2.6002C0.946894 3.06613 0.746493 3.48196 0.611222 3.85271C0.425852 4.35872 0.335671 4.82465 0.335671 5.24549C0.335671 5.66633 0.425852 6.05711 0.611222 6.42284C0.425852 6.86372 0.315631 7.14429 0.275551 7.26453C0.0901802 7.81062 0 8.31162 0 8.76753C0 9.05812 0.04008 9.33367 0.12024 9.5992C0.320641 9.90982 0.581162 10.1403 0.906814 10.2856C1.23246 10.4309 1.59319 10.501 1.99399 10.501C2.10421 10.501 2.20441 10.496 2.28958 10.481C2.37475 10.4709 2.46493 10.4609 2.56012 10.4509C3.33667 10.3307 4.05812 10.0351 4.72445 9.55912C5.42084 9.06313 5.92184 8.46693 6.22745 7.78056C6.40281 7.97094 6.57816 8.16633 6.75852 8.35671C7.05411 8.56713 7.37976 8.71242 7.72545 8.8026C8.07615 8.89278 8.45691 8.93287 8.87274 8.93287C9.22345 8.93287 9.5992 8.9028 9.99499 8.84268C10.3908 8.78256 10.7715 8.70742 11.1373 8.62225C11.503 8.53207 11.979 8.35671 12.5751 8.09118C13.0862 7.86573 13.3617 7.74549 13.3918 7.73046C13.3617 7.95591 13.4419 8.16132 13.6423 8.35671C13.7776 8.49198 13.9729 8.56212 14.2335 8.56212C14.3036 8.56212 14.3888 8.55211 14.484 8.52706C14.5792 8.50201 14.6593 8.47696 14.7244 8.45692C14.9098 8.36674 15.0551 8.23146 15.1553 8.04609C15.2254 7.91082 15.2856 7.72545 15.3357 7.49499C15.4258 7.71042 15.511 7.89078 15.6012 8.03607C15.7214 8.23647 15.8567 8.38677 16.012 8.48196C16.1222 8.53707 16.2425 8.58216 16.3627 8.61222C16.483 8.64229 16.6082 8.66232 16.7335 8.66232C16.9639 8.66232 17.1743 8.6022 17.3597 8.48196C17.495 8.17134 17.5902 7.87074 17.6403 7.59018C17.6904 7.30962 17.7204 6.99399 17.7204 6.63828C17.7204 6.42786 17.7104 6.20742 17.6854 5.96694C17.6603 5.72645 17.6353 5.50601 17.6002 5.30561L17.6202 5.31062ZM13.1463 9.73446L12.6303 10.4309L11.9188 10.1553L11.3527 10.5762C11.1673 10.5762 11.002 10.5561 10.8517 10.521C10.7014 10.486 10.5611 10.4208 10.4259 10.3206C10.506 10.1754 10.5862 10.0351 10.6663 9.8998C10.7766 9.72945 10.9068 9.64929 11.0521 9.64929C11.1623 9.6994 11.2826 9.74449 11.4028 9.79459C11.523 9.84469 11.6383 9.87976 11.7535 9.90481C11.9238 9.70441 12.0942 9.50902 12.2695 9.31362L13.1463 9.73446ZM3.52705 0.706415L3.47695 0.981967C3.42184 0.941887 3.37675 0.921842 3.34669 0.921842C3.2014 0.921842 3.13126 1.00701 3.13126 1.17234C3.14629 1.23747 3.15631 1.28757 3.15631 1.32765C3.15631 1.39278 3.14629 1.47795 3.12124 1.57815C3.06613 1.81863 3.03607 1.96392 3.03607 2.00902C3.03607 2.16934 3.12625 2.27455 3.31162 2.31964C3.32164 2.3497 3.36172 2.40481 3.43186 2.47495C3.502 2.54509 3.54208 2.60521 3.54208 2.65531C3.54208 2.68036 3.52204 2.72044 3.48196 2.77555C3.44188 2.8006 3.27655 2.83567 2.98096 2.88577C2.69038 2.93587 2.5 3.03106 2.40982 3.17635C2.43988 3.49699 2.53507 3.91282 2.68537 4.42886C2.75551 4.68437 2.83567 4.93988 2.91583 5.18537C2.96593 5.4008 2.99599 5.58116 3.01603 5.72144C3.03607 5.86172 3.04609 6.01703 3.04609 6.18236C3.04609 6.36773 3.03106 6.54809 2.99599 6.72345C2.96593 6.8988 2.90581 7.07415 2.82565 7.25451C2.91583 7.02405 2.95591 6.76854 2.95591 6.498C2.95591 6.24249 2.91082 5.94689 2.82565 5.60621C2.8006 5.501 2.7505 5.32565 2.67034 5.07515C2.52004 4.60421 2.41984 4.26353 2.37475 4.0531C2.32966 3.84268 2.30962 3.62725 2.30962 3.4018C2.30962 3.33667 2.30962 3.27655 2.31463 3.22144C2.31463 3.16633 2.33467 3.0511 2.36974 2.87074C2.42485 2.80561 2.5 2.75551 2.6002 2.71543C2.76052 2.66533 2.92084 2.62024 3.08116 2.57014C3.0511 2.50501 2.99098 2.47495 2.91082 2.47495C2.87074 2.47495 2.82565 2.48497 2.77054 2.5C2.72044 2.51503 2.66032 2.53006 2.59519 2.5501L2.57014 2.57515C2.54008 2.54509 2.54008 2.48998 2.57515 2.41984C2.61022 2.3497 2.63527 2.2996 2.64028 2.27455L2.87074 2.15431C2.84569 2.10421 2.78557 1.98397 2.69038 1.78357C2.62525 1.63828 2.56012 1.51803 2.5 1.42284L2.4499 1.51804C2.38477 1.51804 2.32966 1.49298 2.27455 1.43787C2.22445 1.38777 2.17936 1.32265 2.1493 1.2525C2.13427 1.15731 2.13928 1.07214 2.15932 1.002L2.26954 0.786569C2.42986 0.851699 2.56012 0.986974 2.66533 1.19739C2.8006 1.48798 2.89579 1.6533 2.94088 1.7034C2.96593 1.42284 3.001 1.2024 3.04108 1.04709C3.08617 0.891782 3.17134 0.746496 3.3016 0.606216C3.43186 0.646296 3.502 0.67635 3.51703 0.7014L3.52705 0.706415ZM7.31463 9.43387C7.31463 9.67435 7.26954 9.89479 7.17435 10.0902C7.08417 10.2856 6.94389 10.486 6.75852 10.6864C6.87876 10.4058 6.999 10.1252 7.11924 9.84469C7.11924 9.73948 7.07916 9.64428 6.999 9.5541C6.89379 9.58416 6.83868 9.62926 6.82866 9.68437L6.75852 9.69439C6.75852 9.58918 6.78858 9.49398 6.84369 9.41382C6.8988 9.32865 6.97896 9.27355 7.08417 9.25351C7.13427 9.22846 7.17435 9.24348 7.20942 9.28857C7.24449 9.33867 7.27956 9.38377 7.30962 9.43387H7.31463Z" fill="white"/>
</svg>
