<svg width="20" height="13" viewBox="0 0 20 13" fill="none" xmlns="http://www.w3.org/2000/svg">
<path fill-rule="evenodd" clip-rule="evenodd" d="M19.9949 2.72704C19.964 2.75277 19.9383 2.77335 19.9228 2.78878C19.7839 2.60869 19.645 2.42861 19.5163 2.24338C19.5163 2.72704 19.5678 3.33934 19.6656 4.06998C19.8868 5.72678 20 6.79701 20 7.28068C20 7.8055 19.9588 8.27887 19.8765 8.6905C19.7942 9.10213 19.645 9.50861 19.434 9.9151C19.5421 9.45201 19.609 9.14329 19.6295 8.97864C19.6861 8.63904 19.717 8.30975 19.717 7.99074C19.717 7.85696 19.717 7.75405 19.7067 7.67173C19.6964 7.5894 19.681 7.47105 19.6553 7.31155L18.904 1.42012C18.8732 1.36352 18.8526 1.30177 18.8526 1.23488C18.8526 1.15256 18.8886 1.03936 18.9555 0.900437C19.0275 0.761513 19.1047 0.607152 19.1973 0.442501C19.4289 0.704914 19.609 1.06509 19.7427 1.51788C19.7839 1.66709 19.8714 2.06843 20 2.72704H19.9949ZM15.2663 0.751218C15.256 0.823253 15.1942 0.900437 15.081 0.972472C15.0141 0.921019 14.9524 0.900437 14.8958 0.900437C14.8238 0.900437 14.7209 0.9416 14.5922 1.02907C14.4636 1.11654 14.3761 1.15771 14.3247 1.15771C14.2269 1.15771 14.1394 1.08567 14.0674 0.936451C14.052 0.895288 14.0417 0.828404 14.0417 0.740933C14.0417 0.658607 14.0571 0.565991 14.0828 0.468229C14.1137 0.370468 14.1497 0.272704 14.2012 0.185233C14.1909 0.339594 14.1909 0.463081 14.1909 0.545407C14.1909 0.679186 14.2475 0.761512 14.3658 0.802674C14.515 0.81811 14.6025 0.802674 14.6385 0.746075C14.6694 0.694622 14.69 0.638019 14.69 0.58142C14.6746 0.427059 14.6643 0.308717 14.6643 0.236682C14.6643 0.113193 14.7054 0.0360175 14.7878 0C14.7878 0.0102907 14.798 0.102906 14.8135 0.288139C14.8289 0.473372 14.9061 0.581424 15.0347 0.617441H15.1222C15.1325 0.560842 15.1222 0.478516 15.0965 0.375609C15.0707 0.272702 15.0605 0.21096 15.0605 0.185233C15.0605 0.113198 15.0862 0.0514536 15.1325 0C15.2405 0.0823257 15.292 0.231541 15.292 0.442501C15.292 0.514536 15.2817 0.617438 15.2663 0.751218ZM15.7602 2.16105C15.7191 2.29997 15.6573 2.4286 15.575 2.55209C15.4927 2.67044 15.3846 2.79907 15.256 2.94314L14.5253 2.45948C14.443 2.51608 14.3761 2.59326 14.3298 2.68073C14.1806 2.93799 14.0931 3.07692 14.0725 3.10265L13.2802 2.73218C13.3471 2.55724 13.4139 2.41317 13.486 2.29998C13.558 2.18678 13.6506 2.06843 13.7741 1.95524L14.5511 2.35142L15.0553 1.72369C15.22 1.80602 15.3383 1.86776 15.4155 1.90892C15.5698 1.99125 15.6882 2.07872 15.7602 2.16619V2.16105ZM12.956 0.900437C12.8428 1.28634 12.5958 1.64651 12.2254 1.97582C11.9115 2.25366 11.5462 2.48006 11.1243 2.64471L10.8413 2.53151C10.9545 2.43375 11.1243 2.32055 11.3455 2.19706C11.8395 1.91921 12.1482 1.72884 12.2717 1.63108C12.1636 1.60535 12.0247 1.57962 11.8446 1.54361C11.6697 1.51273 11.5153 1.49215 11.3918 1.49215C11.2272 1.49215 11.0831 1.51273 10.9596 1.55389C10.8361 1.59505 10.7281 1.67224 10.6406 1.79058C10.6818 1.6002 10.7744 1.40983 10.9236 1.2143C11.0728 1.01878 11.2426 0.869563 11.4433 0.761511H12.0247C12.2048 0.761511 12.3746 0.771803 12.5238 0.787239C12.6782 0.802675 12.8171 0.838693 12.9509 0.900437H12.956ZM9.63211 1.63108C9.64754 1.68253 9.65784 1.71855 9.65784 1.74428C9.65784 1.81117 9.64754 1.87291 9.62182 1.92951C9.57036 2.00154 9.53949 2.05814 9.52405 2.08901C9.39028 2.16105 9.29251 2.18163 9.22563 2.14047C9.1999 2.02727 9.18961 1.91407 9.18961 1.80602C9.18961 1.6568 9.21019 1.50759 9.25135 1.36352C9.26679 1.30692 9.3594 1.06509 9.52405 0.632877C9.45716 0.921017 9.39028 1.20916 9.32853 1.4973C9.32853 1.64652 9.38513 1.75457 9.50347 1.81631L9.63725 1.63108H9.63211ZM12.3746 3.90532C12.4055 4.08027 12.3746 4.16259 12.2614 4.16259C12.1893 4.1523 12.1328 4.15231 12.1019 4.15231C11.9887 4.15231 11.9269 4.22948 11.9269 4.38899C11.8755 4.66169 11.8395 4.86236 11.8137 4.99614C11.7623 5.23282 11.6902 5.42835 11.5925 5.57756C11.4278 5.27913 11.2632 4.98584 11.0985 4.68741C11.0162 4.65654 10.9545 4.63082 10.9133 4.61539C10.7795 4.55879 10.7075 4.51247 10.6921 4.4816C10.6921 4.24492 10.7692 4.05453 10.9287 3.91561C11.1088 3.98764 11.2477 4.17803 11.3352 4.4816C11.4278 4.78518 11.5102 4.98584 11.5925 5.07331C11.6491 5.00128 11.716 4.78003 11.788 4.41471C11.86 4.04939 11.9835 3.86417 12.1585 3.86417C12.2254 3.86417 12.2923 3.87959 12.3694 3.91561L12.3746 3.90532ZM18.3123 7.38872C17.5405 7.38872 16.6658 7.32699 15.6933 7.20865C14.7209 7.09031 13.7947 6.97195 12.9148 6.85875C13.311 6.6375 13.6661 6.41112 13.9902 6.17958C14.371 5.90687 14.7003 5.62388 14.9884 5.32545C15.1531 5.32545 15.2869 5.48495 15.3846 5.80911C15.4824 6.12812 15.5853 6.33393 15.6933 6.41626C15.8168 6.52946 15.9609 6.5912 16.1255 6.5912C16.249 6.5912 16.3931 6.56032 16.5578 6.50372C16.6092 6.48829 16.7378 6.43169 16.9539 6.34422C17.1598 6.1384 17.3038 5.91201 17.3862 5.65989C17.4685 5.40777 17.5096 5.12477 17.5096 4.81605C17.5096 4.58451 17.4788 4.27579 17.4222 3.88989C17.309 3.11808 17.2472 2.6087 17.2472 2.37201C17.2472 2.20736 17.2575 2.0427 17.2833 1.87805C17.381 1.94494 17.4685 2.03756 17.5405 2.15591C17.6126 2.27425 17.6846 2.38744 17.7515 2.49549C17.8029 2.46977 17.8235 2.41317 17.8235 2.32055C17.8235 2.23823 17.7824 2.06843 17.7052 1.80602C17.628 1.54875 17.5971 1.37381 17.6126 1.29148C17.4325 0.879853 17.2524 0.468228 17.0826 0.0565992C16.9848 0.0874714 16.8974 0.169795 16.8253 0.303574C16.7842 0.370464 16.7276 0.478513 16.6504 0.638019C16.815 2.23308 16.9848 3.82814 17.1546 5.41806C17.0826 5.44893 16.9694 5.50553 16.8202 5.57756C16.6144 5.65989 16.4188 5.69076 16.2285 5.67533C16.0381 5.56213 15.8992 5.37689 15.8065 5.11962C15.7396 4.89837 15.6728 4.67199 15.611 4.44045C15.4206 4.4919 15.2045 4.61538 14.9576 4.8212C14.3298 5.34602 13.9954 5.62388 13.9439 5.64961C13.8307 5.74222 13.3213 5.9892 12.426 6.40083C11.8086 6.67867 11.4278 7.05428 11.2786 7.52251C12.3591 7.71289 13.5323 7.87239 14.8083 8.00617C13.7896 8.18112 13.0229 8.33032 12.5135 8.4641C11.68 8.68021 10.9648 8.95806 10.3627 9.3028C10.2547 9.34396 9.51891 9.89452 8.15024 10.9596C7.646 11.3455 7.16748 11.5719 6.7044 11.6388C6.46771 11.6388 6.2619 11.5462 6.09725 11.3558C6.01492 11.1397 5.97376 10.9287 5.97376 10.7126C5.97376 10.3525 6.10754 9.94082 6.36995 9.47774C6.60149 9.11756 6.83303 8.74711 7.07486 8.37664C6.81245 8.73681 6.55004 9.09699 6.29792 9.45202C6.00978 9.87908 5.83483 10.2804 5.77824 10.6509C5.77824 10.692 5.76794 10.7589 5.75251 10.8464V11.0316C5.75251 11.2632 5.79367 11.4639 5.87085 11.6439C5.94803 11.8189 6.07667 11.9733 6.2619 12.0967C6.41111 12.1482 6.55004 12.1688 6.68382 12.1688C6.97196 12.1688 7.29097 12.0556 7.63571 11.8343C7.74891 11.7623 8.02676 11.5462 8.46411 11.1912C9.05583 10.7126 9.67842 10.3164 10.337 10.0077C10.9905 9.69384 11.6697 9.44688 12.3746 9.26679C13.0795 9.08671 13.8153 8.93234 14.5922 8.80885C15.364 8.68536 16.1255 8.56701 16.8665 8.44867C17.0466 8.42294 17.2164 8.38692 17.3656 8.33547C17.5199 8.28401 17.6537 8.22228 17.7669 8.13996L18.3123 7.38872ZM7.32184 1.74428C7.33728 1.77515 7.34757 1.8266 7.34757 1.89349C7.34757 2.06843 7.27553 2.21764 7.12632 2.35142C7.05943 2.34113 7.00798 2.29997 6.97196 2.22279C6.93594 2.14561 6.89992 2.06328 6.86905 1.98096C6.86905 1.59506 6.96681 1.29148 7.16748 1.08052C7.11603 1.27604 7.07486 1.47672 7.0337 1.67224C7.0337 1.79573 7.08001 1.89863 7.16748 1.98096L7.32699 1.74428H7.32184ZM10.1106 5.57241C10.1415 5.66503 10.1312 5.7628 10.0746 5.87085C9.98199 5.99434 9.92025 6.08181 9.88938 6.12812C9.83278 6.12812 9.77618 6.10239 9.72987 6.05608C9.68356 6.00977 9.64754 5.95317 9.63725 5.89657C9.62696 5.83998 9.61667 5.78853 9.61667 5.74222V5.64961C9.61667 5.3203 9.699 5.00128 9.86365 4.68741C9.86365 4.75945 9.84307 4.88294 9.80705 5.04759C9.77103 5.21224 9.75045 5.32545 9.75045 5.39234C9.75045 5.48496 9.76074 5.55698 9.78132 5.60844C9.8019 5.65989 9.84307 5.71649 9.90996 5.77309L10.1055 5.57756L10.1106 5.57241ZM16.6298 11.1037C16.4394 11.3506 16.1873 11.5513 15.8683 11.7005C15.5493 11.8549 15.2251 11.9269 14.8855 11.9269C14.7209 11.9269 14.5716 11.8961 14.4327 11.8343C14.2989 11.7726 14.1857 11.6697 14.1034 11.5307C14.1034 11.3095 14.1857 11.1037 14.3504 10.9133C14.4893 10.7589 14.6694 10.62 14.8804 10.5068C14.8495 10.4502 14.798 10.4091 14.7312 10.3833C14.6643 10.3576 14.5716 10.337 14.4482 10.3216C14.335 10.3627 14.2526 10.3782 14.2115 10.373C14.2629 10.2804 14.3144 10.2084 14.3761 10.1466C14.4379 10.0849 14.5048 10.054 14.5819 10.054C14.7312 10.0798 14.8495 10.1003 14.9473 10.1158C15.0399 10.1312 15.1171 10.1724 15.1737 10.2393C15.2045 10.4142 15.0759 10.5994 14.7775 10.795C14.479 10.9905 14.335 11.1345 14.335 11.2169C14.335 11.3249 14.4533 11.4381 14.6951 11.5616C14.8598 11.6028 15.0039 11.6234 15.1273 11.6234C15.4258 11.6234 15.7448 11.5462 16.0895 11.3867C16.1873 11.3455 16.3674 11.2529 16.6195 11.1037H16.6298ZM11.8858 11.0522C11.9115 11.1191 11.9064 11.1911 11.8806 11.2683C11.8498 11.3455 11.8137 11.433 11.7623 11.5359C11.7108 11.5925 11.6594 11.6234 11.6028 11.6234C11.5462 11.6234 11.4896 11.5925 11.4433 11.5359C11.3609 11.3815 11.3198 11.2272 11.3198 11.078C11.3198 10.8618 11.397 10.6046 11.5565 10.301C11.6285 10.1518 11.7108 10.0077 11.7932 9.86879C11.7366 10.018 11.6954 10.1261 11.6697 10.2032C11.5719 10.4759 11.5205 10.6921 11.5205 10.8567C11.5205 11.0368 11.5719 11.1963 11.68 11.3249L11.8909 11.0522H11.8858ZM4.9344 2.93799L4.86236 3.23643C4.7646 3.22614 4.64626 3.21584 4.51762 3.19526C4.38384 3.17468 4.30152 3.16439 4.26035 3.16439C4.13687 3.16439 4.03396 3.17984 3.94649 3.20556C3.85902 3.23643 3.78184 3.28788 3.70466 3.3702C3.73553 3.60174 3.81271 3.93106 3.92591 4.36327C4.0391 4.79548 4.12143 5.13506 4.17288 5.38204C4.19861 5.52096 4.21919 5.6599 4.23463 5.79368C4.25006 5.92746 4.26035 6.06637 4.26035 6.2053C4.26035 6.63236 4.16259 7.03369 3.96192 7.40416C4.02881 7.27038 4.07512 7.12118 4.11114 6.95138C4.14201 6.78159 4.16259 6.63237 4.16259 6.49859C4.16259 6.28248 4.13687 6.07152 4.09056 5.85542C4.0391 5.63931 3.97222 5.40263 3.88474 5.13507C3.79727 4.86751 3.72524 4.62053 3.66864 4.38899C3.61204 4.15745 3.58117 3.95678 3.58117 3.78184C3.58117 3.50399 3.64291 3.25701 3.7664 3.04091C3.823 2.98431 3.91047 2.93285 4.02367 2.89169C4.0391 2.8814 4.1523 2.85052 4.35812 2.79392C4.26036 2.74247 4.16774 2.72189 4.08541 2.72189C4.00309 2.72189 3.94134 2.74248 3.90018 2.78364C3.88474 2.78364 3.86416 2.79907 3.83844 2.8248C3.81271 2.85567 3.78698 2.86597 3.7664 2.85567C3.79213 2.74762 3.823 2.66015 3.85902 2.58811C3.89503 2.51608 3.96192 2.45434 4.06483 2.39774H4.1523C4.05969 2.12503 3.98251 1.92436 3.91562 1.79058C3.79213 1.5436 3.62748 1.43041 3.42166 1.45614C3.30846 1.41497 3.24672 1.3275 3.24672 1.19887C3.24672 1.14227 3.26216 1.06509 3.29817 0.972472C3.32905 0.879856 3.35477 0.807822 3.37021 0.756368C3.51942 0.797531 3.64806 0.895294 3.75096 1.0548C3.88989 1.31207 4.03396 1.55904 4.18318 1.80602C4.21405 1.55904 4.25006 1.31206 4.28094 1.06508C4.33753 0.776945 4.45588 0.581424 4.64111 0.473372C4.79547 0.457936 4.89838 0.488809 4.93954 0.571135L4.90352 0.879852C4.83664 0.838689 4.75431 0.81811 4.65655 0.81811C4.58966 0.81811 4.52791 0.838689 4.47131 0.879852C4.43015 0.946741 4.39928 1.03421 4.38384 1.14741C4.36841 1.26061 4.35812 1.37381 4.35812 1.48701V1.82145C4.35812 1.91407 4.35812 1.99639 4.35297 2.07872C4.35297 2.16105 4.32724 2.24852 4.28608 2.33599C4.39928 2.40802 4.51762 2.50064 4.63597 2.60355C4.75431 2.70646 4.85722 2.81451 4.93954 2.93285L4.9344 2.93799ZM6.30306 6.14869C6.30306 6.22073 6.29277 6.28762 6.27734 6.34422C6.2619 6.40082 6.2053 6.53975 6.10239 6.76614C6.04579 6.8073 5.98919 6.8073 5.92745 6.76614C5.87085 6.72498 5.81425 6.66324 5.76794 6.58092C5.71649 6.44199 5.69591 6.3185 5.69591 6.21045C5.69591 6.0458 5.74222 5.86056 5.82969 5.65474C5.87085 5.55698 5.96347 5.38205 6.10239 5.13507C6.00978 5.43865 5.92745 5.74222 5.84513 6.03551C5.84513 6.21045 5.9223 6.35452 6.08181 6.46772C6.12297 6.45228 6.15385 6.39568 6.17957 6.30306C6.2053 6.21045 6.24646 6.15898 6.30306 6.14869ZM9.21533 9.22562C9.21533 9.22562 9.09699 9.37999 8.90661 9.63211C8.76769 9.82249 8.6442 9.9151 8.53615 9.9151C8.43839 9.9151 8.34062 9.84306 8.25315 9.70413C8.16054 9.63725 8.09879 9.59095 8.05763 9.57037C7.9753 9.51891 7.89812 9.50347 7.82094 9.51891C7.79007 9.59095 7.72833 9.68356 7.646 9.79161C7.60484 9.84307 7.5328 9.92024 7.42475 10.0283C7.29097 9.96141 7.16234 9.89967 7.02856 9.84307C6.8742 9.75045 6.79187 9.65268 6.78158 9.54463C6.87934 9.39542 6.95138 9.28737 6.99254 9.21019C7.08516 9.07126 7.18292 8.96835 7.29097 8.90146C7.44019 8.9735 7.55853 9.03524 7.64085 9.08155C7.72833 9.12786 7.82609 9.18446 7.92899 9.26164L8.41266 8.71624C8.65963 8.85001 8.79856 8.92205 8.83458 8.93748C8.96836 9.00952 9.09185 9.10727 9.21533 9.22047V9.22562ZM10.1775 7.56882L9.94083 8.49499C9.37484 8.26345 8.77798 8.15024 8.16054 8.15024C7.15719 8.15024 6.23617 8.45382 5.40777 9.06612C5.04759 9.27193 4.59995 9.61666 4.07512 10.1055C3.41652 10.7229 2.98945 11.1037 2.78878 11.2426C2.27939 11.6234 1.78029 11.8446 1.29663 11.9115C0.951891 11.8549 0.735786 11.8086 0.65346 11.7777C0.43221 11.6851 0.272704 11.541 0.169797 11.3352C0.113198 11.186 0.0668896 11.0471 0.0411628 10.9081C0.0102907 10.7744 0 10.62 0 10.4554C0 10.0026 0.15436 9.48804 0.457936 8.91176C0.735786 8.43324 1.01878 7.95473 1.29663 7.48135C1.14741 7.24981 1.03936 7.01312 0.967327 6.77129C0.895292 6.52946 0.86442 6.27219 0.86442 5.99949C0.86442 5.50553 0.982763 4.96526 1.22459 4.38384C1.39954 3.96192 1.64651 3.48855 1.96553 2.95343C1.69282 3.52971 1.50759 3.99794 1.40983 4.35297C1.31207 4.71314 1.26061 5.04244 1.26061 5.34602C1.26061 5.57756 1.27605 5.76794 1.31207 5.92745C1.34294 6.08181 1.41497 6.26189 1.52303 6.45742C1.67224 6.63236 1.83689 6.69411 2.01698 6.64266C2.07358 6.60149 2.13018 6.51401 2.18163 6.37509C2.23308 6.24131 2.29997 6.15898 2.37201 6.13326C2.33085 6.478 2.27939 6.74557 2.2125 6.93595C2.11474 7.23438 1.96038 7.46076 1.75457 7.61512C1.68768 7.57396 1.62593 7.55338 1.56933 7.55338C1.47672 7.55338 1.40468 7.60998 1.34294 7.71803C1.28119 7.83123 1.21945 7.93413 1.16285 8.03189C0.972472 8.37149 0.787239 8.70079 0.607152 9.0301C0.401337 9.43143 0.298431 9.79676 0.298431 10.1158C0.298431 10.337 0.344738 10.5531 0.43221 10.7589C0.529971 10.9236 0.668896 11.0368 0.838693 11.1037C1.01363 11.1706 1.20916 11.2014 1.43041 11.2014C1.96553 10.9802 2.59326 10.5686 3.30846 9.96655C3.90018 9.46231 4.49704 8.96321 5.09905 8.45897C5.81425 7.90841 6.47286 7.54824 7.07486 7.38359C7.18806 7.33214 7.33213 7.29096 7.50193 7.26009C7.67173 7.22922 7.85696 7.1932 8.06277 7.16233C7.80036 6.14869 7.53795 5.13506 7.28582 4.12657C7.32699 3.91047 7.3733 3.75096 7.4196 3.64291C7.50193 3.46796 7.59969 3.36506 7.71803 3.3239C7.85696 3.49884 7.99588 3.66864 8.13995 3.84358C8.3046 4.07512 8.38693 4.2655 8.38693 4.42501C8.38693 4.4919 8.37664 4.55879 8.35091 4.62054C8.30975 4.6051 8.24801 4.56908 8.17083 4.50734C8.09365 4.45074 8.03705 4.40956 8.00618 4.38384C8.11937 5.2071 8.20684 5.70105 8.26344 5.8657C8.44353 6.41626 8.76769 6.8073 9.24106 7.03884L10.1775 7.56882ZM2.67044 9.0404C2.63957 9.06612 2.60355 9.13301 2.56753 9.24621C2.53152 9.3594 2.46977 9.40571 2.38745 9.39028C2.32056 9.31824 2.28968 9.22563 2.28968 9.11757C2.28968 9.06612 2.31541 8.96836 2.36172 8.814C2.41317 8.65964 2.43375 8.54128 2.42346 8.44867C2.35657 8.58245 2.30512 8.69565 2.26396 8.79341C2.18163 9.00952 2.14047 9.20504 2.14047 9.38513C2.14047 9.45716 2.14047 9.51376 2.15076 9.54463C2.20736 9.66812 2.29997 9.72987 2.42346 9.72987C2.52122 9.65784 2.59326 9.55493 2.63442 9.4263C2.67559 9.29766 2.68588 9.16902 2.67044 9.03524V9.0404Z" fill="white"/>
</svg>
