<svg width="20" height="10" viewBox="0 0 20 10" fill="none" xmlns="http://www.w3.org/2000/svg">
<path fill-rule="evenodd" clip-rule="evenodd" d="M20 2.36593C19.9369 2.29758 19.8896 2.23975 19.8633 2.19769C19.7371 2.02419 19.6583 1.91903 19.632 1.89274L19.5373 2.05047C19.5373 2.49211 19.5741 3.01262 19.6477 3.61199C19.7213 4.21136 19.795 4.77918 19.8633 5.32071C19.8843 5.50473 19.9054 5.73607 19.9264 6.01472C19.9474 6.29338 19.9579 6.52471 19.9579 6.70872C19.9579 7.03996 19.9369 7.3449 19.9001 7.63407C19.8633 7.92324 19.795 8.21766 19.7056 8.51735C19.7056 7.71293 19.674 6.92955 19.6109 6.17245C19.5478 5.41536 19.4637 4.57413 19.3586 3.65405C19.2534 2.73396 19.1535 1.85594 19.0641 1.01998C19.1325 0.872767 19.1851 0.762357 19.2219 0.683493C19.2902 0.541537 19.3691 0.446899 19.4532 0.399581C19.511 0.588855 19.5952 0.830704 19.7056 1.12513C19.9001 1.65089 20 2.06625 20 2.36593ZM14.5321 0.431125C14.3796 0.55205 14.1746 0.646686 13.9222 0.725551C13.5436 0.830703 13.1703 0.935855 12.7971 1.04101C12.0452 1.29863 11.2986 1.56151 10.5573 1.81914C10.5363 1.77708 10.5468 1.7245 10.5941 1.66141C10.6414 1.59832 10.673 1.551 10.694 1.52471C11.346 1.30915 12.0032 1.08833 12.6604 0.872763C13.4332 0.63617 14.0536 0.488959 14.5321 0.431125ZM15.3417 3.75394C15.3049 3.90641 15.2629 4.0326 15.205 4.13249C15.1262 4.25868 15.0315 4.34806 14.9106 4.39537C14.8843 4.41115 14.8423 4.4164 14.7844 4.4164C14.653 4.4164 14.5531 4.35857 14.49 4.23764C14.4848 4.17981 14.4795 4.13775 14.4795 4.11146C14.4795 3.90641 14.5531 3.7224 14.7003 3.55415C14.7003 3.58044 14.6898 3.64353 14.674 3.73291C14.6583 3.82229 14.6477 3.88538 14.6477 3.92219C14.6477 3.96951 14.653 4.01157 14.6688 4.04837C14.6845 4.08517 14.7161 4.11672 14.7634 4.14301C14.9264 4.16404 15.0526 4.11672 15.1525 4.00631C15.1525 3.94322 15.0946 3.87487 14.9737 3.79601C14.8528 3.71714 14.795 3.65405 14.795 3.60673C14.795 3.56467 14.8423 3.50684 14.9316 3.43849C15.0315 3.47529 15.1157 3.51209 15.184 3.55941C15.2524 3.60673 15.3049 3.66982 15.3417 3.75394ZM13.8591 2.3449C13.8223 2.45531 13.7382 2.59201 13.6067 2.74448C13.5068 2.85489 13.4385 2.93901 13.3964 2.98633L12.755 2.57624C12.7077 2.63407 12.6498 2.70768 12.5868 2.79706C12.5237 2.88644 12.4658 2.97056 12.408 3.04942L11.8086 2.75499C11.8559 2.62355 11.9348 2.49211 12.0347 2.36067C12.1346 2.22923 12.245 2.15562 12.3554 2.13459L12.8496 2.32387L13.3018 1.95584C13.4858 2.08728 13.6698 2.21872 13.8591 2.3449ZM17.9916 8.03365C17.7971 8.04942 17.6341 8.05468 17.5131 8.05994C17.3922 8.05994 17.2818 8.10726 17.1924 8.19138C17.2082 8.29127 17.2292 8.40694 17.266 8.54364C17.3028 8.68034 17.3291 8.78549 17.3449 8.86435C17.3607 8.94322 17.3764 9.00105 17.3817 9.04311C17.387 9.08517 17.3922 9.15352 17.3922 9.2429C17.3922 9.30074 17.3764 9.39012 17.3502 9.5163C17.3344 9.41641 17.3134 9.31651 17.2766 9.21136C17.2082 9.01683 17.1346 8.82229 17.0662 8.63302C17.0505 8.5857 17.04 8.53838 17.0347 8.50158C17.0294 8.46477 17.0242 8.41745 17.0242 8.35962C17.0242 8.14406 17.1241 7.97582 17.3291 7.85489L17.7603 7.78128C17.7129 7.74448 17.6604 7.70767 17.6078 7.67087C17.5552 7.63407 17.4921 7.6183 17.4238 7.62355C17.3659 7.68139 17.3291 7.70768 17.3081 7.70768C17.3081 7.64459 17.3239 7.58149 17.3607 7.51314C17.3975 7.44479 17.4501 7.39748 17.5184 7.37119C17.5815 7.35016 17.6446 7.35541 17.7077 7.3817C17.7129 7.3817 17.8023 7.45005 17.9706 7.58149C18.0494 7.64458 18.0862 7.72345 18.0862 7.81283C18.0862 7.89695 18.0547 7.97056 17.9916 8.03365ZM12.8812 4.30074C12.8601 4.38486 12.8339 4.47424 12.8076 4.56888C12.7813 4.66351 12.7392 4.73186 12.6814 4.77392C12.613 4.79495 12.5499 4.77392 12.5026 4.71083C12.4816 4.6898 12.4553 4.63197 12.4185 4.53207C12.4185 4.23239 12.4921 3.96425 12.6393 3.73291C12.6446 3.796 12.6393 3.89064 12.6078 4.01157C12.5762 4.13249 12.5657 4.21136 12.5657 4.24816C12.5657 4.36909 12.6078 4.45321 12.6919 4.51104C12.7392 4.50578 12.776 4.46898 12.7971 4.40063C12.8181 4.33228 12.8444 4.30074 12.8812 4.30074ZM11.1356 0.389063C10.673 0.509988 10.1735 0.657202 9.64248 0.841219C9.39011 0.925341 8.91693 1.09884 8.21767 1.35647C7.5184 1.61409 7.02944 1.79285 6.74027 1.89274C6.53523 1.97161 6.32492 2.05047 6.1041 2.13985C5.88328 2.22923 5.7571 2.36067 5.73081 2.54469C6.80336 2.12408 7.87592 1.69821 8.94847 1.27234C9.05888 1.23028 9.3428 1.14091 9.80021 0.998949C10.4101 0.814932 10.857 0.615141 11.1356 0.389063ZM9.22187 2.87066C9.18507 2.91798 9.1693 2.9653 9.1693 3.00736C9.12723 3.02313 9.0694 3.00736 9.00105 2.95479C8.9327 2.90747 8.88013 2.88118 8.85384 2.88118C8.82755 2.88118 8.80126 2.89695 8.78023 2.93375C8.78023 3.31756 8.71188 3.66456 8.58044 3.97476C8.51735 3.92744 8.43323 3.76446 8.32282 3.49632C8.21241 3.22818 8.05994 3.09148 7.85489 3.09148C7.80757 3.07571 7.78128 3.03365 7.78128 2.9653C7.78128 2.90747 7.79706 2.85489 7.82334 2.79706C7.87066 2.73922 7.92324 2.68139 7.97056 2.61829C8.12303 2.67613 8.24921 2.81283 8.34911 3.02839C8.49106 3.35962 8.57518 3.53838 8.60147 3.57519C8.62776 3.33859 8.65405 3.13354 8.67508 2.9653C8.69611 2.79706 8.76446 2.66562 8.87487 2.57624C9.02208 2.63407 9.12198 2.68139 9.1693 2.72345C9.21661 2.76551 9.23764 2.81283 9.22187 2.87066ZM18.4753 4.77392C18.4595 4.68454 18.4385 4.60042 18.4069 4.52156C18.3754 4.44269 18.3281 4.3796 18.265 4.32177C18.1441 4.2429 18.0074 4.2061 17.8549 4.2061C17.7287 4.2061 17.5762 4.23239 17.3922 4.29022C17.2923 4.31651 17.1556 4.35857 16.9716 4.4164L16.7823 3.28076C17.04 3.14932 17.2555 3.01788 17.4238 2.89169C17.6393 2.72871 17.8286 2.55521 17.9916 2.36593L18.1283 2.50263C18.1283 2.50263 18.1651 2.45005 18.2019 2.40799C18.2387 2.36593 18.2597 2.32387 18.265 2.28181C18.1756 2.23449 18.1283 2.18191 18.1283 2.12408C18.1283 2.10305 18.1493 2.05047 18.1914 1.96635C18.2597 1.83491 18.2808 1.72976 18.244 1.66141C18.244 1.59832 18.2124 1.54574 18.1546 1.50894C18.0967 1.47214 18.0336 1.45111 17.9706 1.45111C17.8812 1.49317 17.7971 1.54574 17.7287 1.60358C17.6604 1.66141 17.613 1.71924 17.592 1.76656C17.571 1.81388 17.5605 1.8612 17.5605 1.90326C17.5605 1.97161 17.6078 2.05047 17.7024 2.12934C17.7971 2.2082 17.8549 2.26603 17.8759 2.30284C17.7077 2.48685 17.5289 2.64458 17.3396 2.77602C17.1872 2.88643 16.9979 2.99159 16.7718 3.09148C16.7718 2.99159 16.7508 2.82334 16.7087 2.58675C16.6404 2.18717 16.6036 1.91903 16.6036 1.78759V1.64038C16.6088 1.61409 16.6299 1.54048 16.6561 1.43007C16.7035 1.50894 16.7613 1.58254 16.8244 1.66141C16.8875 1.74027 16.9453 1.79285 16.9926 1.81914C16.9506 1.50368 16.8612 1.18297 16.7298 0.86225C16.6299 0.625657 16.4932 0.336488 16.3091 0L15.9727 0.70452C16.0778 1.05678 16.1619 1.49316 16.225 2.01893C16.2618 2.31861 16.3091 2.77077 16.3722 3.36488L16.0358 3.59621C16.0831 3.59621 16.1514 3.58044 16.2303 3.54364C16.3091 3.50683 16.367 3.49632 16.4038 3.50158L16.5615 4.64774C16.3354 4.74763 16.1251 4.85804 15.9201 4.98948C15.715 5.12092 15.5363 5.26814 15.3733 5.43638C15.0158 5.7939 14.7897 6.2408 14.7003 6.78233C14.5163 6.8612 14.3375 6.91904 14.1535 6.9611C13.9695 7.00316 13.796 7.02419 13.6278 7.02419C13.4595 7.02419 13.307 6.9979 13.1546 6.94532C13.0021 6.89275 12.8654 6.81388 12.755 6.70872C12.6551 6.57728 12.6078 6.47214 12.6078 6.39327C12.6078 6.35121 12.6183 6.29863 12.6393 6.23554C12.3607 6.49317 12.082 6.75078 11.8086 7.00315C11.6772 7.13459 11.5247 7.22923 11.3512 7.28707C11.1777 7.3449 10.9937 7.37119 10.7886 7.37119C10.5363 7.37119 10.3102 7.32387 10.1052 7.23449C9.95268 7.15037 9.83701 7.02944 9.76341 6.87171C9.6898 6.71398 9.653 6.54574 9.653 6.37224C10.2629 6.25131 10.878 6.19348 11.4932 6.19348C11.4932 6.13565 11.5142 6.05152 11.5615 5.9306C11.6088 5.80967 11.6772 5.64669 11.7666 5.43638C11.3302 5.43638 10.9096 5.39958 10.5047 5.33123C10.0999 5.26288 9.64774 5.16299 9.15878 5.0368C8.77497 4.93691 8.48055 4.87382 8.28601 4.83701C7.97056 4.77918 7.67087 4.75289 7.39222 4.75289C7.11356 4.75289 6.82965 4.78444 6.54048 4.84753C6.51945 4.84753 6.48791 4.84753 6.44585 4.83701C6.25657 4.83701 6.13039 4.94742 6.0673 5.16298C6.03049 5.28391 5.98318 5.46267 5.92008 5.69926C5.98843 5.71503 6.04101 5.7203 6.07781 5.7203C6.09359 5.7203 6.22503 5.69401 6.47739 5.64669C6.54574 5.63092 6.62461 5.62566 6.70873 5.62566C6.81914 5.56782 6.91903 5.53628 7.00315 5.5205C7.08728 5.50473 7.19243 5.49948 7.31861 5.49948C7.5552 5.49948 7.84437 5.55205 8.18086 5.6572C8.36488 5.71503 8.63302 5.79916 8.99054 5.92008C8.59621 6.10936 8.18612 6.30389 7.75499 6.50368C7.32387 6.70347 6.92429 6.80337 6.56151 6.80337C6.46162 6.80337 6.36172 6.7981 6.25131 6.78233C6.1409 6.76656 6.04101 6.74553 5.94111 6.70872C5.8307 6.68244 5.73081 6.6246 5.65195 6.54574C5.57308 6.46688 5.53102 6.37224 5.53102 6.26709C5.53102 6.22503 5.54153 6.17771 5.56257 6.11987C5.46267 6.18822 5.35752 6.29863 5.24711 6.44584C5.03155 6.74027 4.8633 6.91903 4.75289 6.98212C4.68454 7.01893 4.60042 7.0347 4.51104 7.0347C4.38486 7.0347 4.26393 7.00316 4.15352 6.94532C4.04311 6.88749 3.9327 6.80862 3.82755 6.70872C3.68034 6.62986 3.56467 6.43007 3.48055 6.10936C3.39642 5.78864 3.24395 5.62566 3.02839 5.62566C2.71819 5.8307 2.44479 6.21451 2.19769 6.78759C1.95058 7.36068 1.71399 7.74448 1.48265 7.93901C1.4143 7.97582 1.34595 7.99159 1.28286 7.99159C1.19874 7.99159 1.11462 7.97055 1.03049 7.92323C0.946372 7.87592 0.86225 7.81809 0.778129 7.73922C0.583596 7.52892 0.446898 7.29758 0.373291 7.03996C0.299685 6.78233 0.262881 6.49317 0.262881 6.16194C0.262881 5.99369 0.268139 5.84122 0.283912 5.70452C0.299684 5.56783 0.320715 5.42586 0.347003 5.27865L0.567823 5.33123C0.741325 5.2103 0.872766 5.02629 0.956888 4.77392C1.01998 4.58465 1.05152 4.36908 1.05152 4.12197C1.00946 4.14301 0.962145 4.22187 0.914826 4.35857C0.867508 4.49527 0.783386 4.5531 0.662461 4.53207C0.536278 4.38486 0.452156 4.24816 0.404837 4.12197C0.357519 3.99579 0.336488 3.84332 0.336488 3.66982C0.336488 3.37539 0.44164 2.97056 0.651945 2.46057C0.799159 2.10305 0.888538 1.88223 0.914826 1.79811C0.620399 2.28181 0.415352 2.66561 0.294427 2.94427C0.0998951 3.40168 0 3.82229 0 4.2061C0 4.39537 0.0210308 4.56887 0.0578342 4.7266C0.0946375 4.88433 0.162987 5.04206 0.252366 5.20504C0.173502 5.52576 0.120925 5.80967 0.0841219 6.04627C0.0473185 6.28286 0.031546 6.52997 0.031546 6.78233C0.031546 7.0347 0.0578339 7.26603 0.11041 7.49737C0.162986 7.7287 0.241851 7.93376 0.347003 8.11777C0.578338 8.57519 0.925342 8.80126 1.38801 8.80126C1.61409 8.68034 1.79285 8.50684 1.93481 8.2755C2.01367 8.14932 2.10831 7.9285 2.22397 7.60778C2.33964 7.28707 2.43954 7.06624 2.52366 6.94006C2.66562 6.7245 2.84437 6.56151 3.07045 6.45636C3.1388 6.50368 3.19138 6.57728 3.22818 6.66666C3.24395 6.70872 3.26498 6.79285 3.30179 6.91903C3.36488 7.15563 3.50683 7.37119 3.73291 7.56047C3.95899 7.74974 4.19033 7.85489 4.43743 7.87592C4.64248 7.87592 4.82124 7.77602 4.98423 7.57097C5.09464 7.40273 5.2103 7.22923 5.33123 7.05573C5.39958 7.01893 5.49422 7.08728 5.60463 7.25552C5.71504 7.42377 5.8307 7.5184 5.95163 7.53943C6.07255 7.56046 6.19348 7.57097 6.31966 7.57097C6.74027 7.57097 7.26078 7.4185 7.88643 7.11882C8.62776 6.7613 9.12723 6.551 9.3796 6.48791C9.3428 6.61409 9.32702 6.73502 9.32702 6.84543C9.32702 6.96635 9.33754 7.08728 9.36383 7.20821C9.39011 7.32913 9.43218 7.46057 9.49001 7.60253C9.54784 7.74448 9.653 7.86015 9.79495 7.95479C9.93691 8.04942 10.1735 8.11251 10.4942 8.14932C10.5363 8.15457 10.5941 8.15983 10.673 8.15983C10.9201 8.15983 11.1619 8.08096 11.409 7.92323C11.6562 7.76551 11.9506 7.46583 12.3028 7.02419C12.3712 7.05047 12.4448 7.16088 12.5131 7.35016C12.5499 7.43954 12.592 7.50789 12.6498 7.54995C12.7603 7.63407 12.8759 7.6919 12.9916 7.71819C13.1073 7.74448 13.2334 7.76025 13.3754 7.76025C13.591 7.76025 13.8433 7.71293 14.1325 7.61304C14.3165 7.54995 14.5478 7.45005 14.837 7.31861C14.9579 7.57623 15.0631 7.78128 15.1525 7.9285C15.2944 8.15458 15.4469 8.31756 15.6151 8.42272C15.673 8.43849 15.7098 8.44374 15.7308 8.44374C15.8307 8.44374 15.9253 8.4122 16.0147 8.34911C16.1041 8.28602 16.1882 8.20715 16.2671 8.10725C16.2881 8.04942 16.3933 7.85489 16.5825 7.5184C16.714 7.28181 16.7823 7.08202 16.7823 6.91903C16.7823 6.78759 16.7455 6.65615 16.6667 6.52997C16.5825 6.44585 16.4932 6.38802 16.4038 6.36173C16.3144 6.33544 16.2093 6.31967 16.0883 6.31967C15.9621 6.31967 15.8097 6.34069 15.6257 6.38275C15.5258 6.40379 15.3891 6.44059 15.205 6.48791C15.1998 6.46162 15.1945 6.41956 15.1945 6.36173C15.1945 6.20926 15.2366 6.07256 15.3207 5.95689C15.4048 5.84122 15.5258 5.73607 15.6782 5.64669C15.9937 5.4837 16.3144 5.32597 16.6351 5.16298C16.7666 5.58885 16.8875 5.87802 16.9979 6.01998C17.1083 6.16193 17.2555 6.26708 17.4448 6.33018C17.8233 6.33018 18.0915 6.05678 18.244 5.50999C18.3649 5.08938 18.4385 4.84227 18.4753 4.77392ZM5.64669 1.40904C5.67298 1.55626 5.62566 1.71924 5.49947 1.89274C5.47844 1.90852 5.44164 1.91377 5.39432 1.91377C5.2734 1.91377 5.21031 1.87697 5.19453 1.80337C5.17876 1.72976 5.1735 1.65615 5.1735 1.5878C5.1735 1.33543 5.24711 1.07781 5.39432 0.820188C5.37855 0.90431 5.36803 0.99369 5.35226 1.08307C5.33649 1.17245 5.33123 1.24605 5.33123 1.30389C5.33123 1.40904 5.34175 1.48265 5.35752 1.52471C5.37329 1.56677 5.40484 1.60358 5.4469 1.64038C5.50473 1.64038 5.54153 1.61409 5.56782 1.56151C5.59411 1.50894 5.6204 1.45636 5.64669 1.40904ZM5.18402 3.84858C5.17876 3.93796 5.1367 4.03785 5.06309 4.14301C4.98948 4.24816 4.89485 4.36383 4.78444 4.49001C4.53207 4.39012 4.30599 4.27445 4.10095 4.14301C4.14827 4.02208 4.21136 3.91167 4.27971 3.80126C4.34805 3.69085 4.43218 3.59096 4.53207 3.50158C4.76866 3.5857 4.98948 3.70137 5.18402 3.84858ZM4.02734 2.12408C4.02734 2.12408 3.92744 2.27655 3.78549 2.52366C3.69611 2.69191 3.59096 2.74974 3.48055 2.70242L2.93375 2.46057C2.91798 2.50263 2.86015 2.58149 2.76025 2.70242C2.66036 2.82334 2.58149 2.89695 2.53417 2.93375C2.45005 2.93375 2.36593 2.91798 2.28181 2.88118C2.15037 2.81808 2.01367 2.755 1.88223 2.6919C1.88223 2.57098 1.92955 2.4448 2.02944 2.31336C2.08728 2.23449 2.18191 2.12934 2.32387 1.9979C2.53943 2.09779 2.76025 2.19243 2.97581 2.28181L3.41746 1.80862C3.54364 1.85594 3.64353 1.898 3.7224 1.93481C3.86435 1.9979 3.96425 2.06099 4.02734 2.12408ZM2.92324 1.07256C2.94427 1.25657 2.88644 1.41956 2.75499 1.56677C2.6551 1.50368 2.58149 1.47214 2.52366 1.47214C2.43428 1.47214 2.33438 1.54574 2.22923 1.69296C2.10305 1.86646 2.00841 1.97161 1.94532 1.9979C1.86646 2.04522 1.66667 2.18717 1.34595 2.41851C1.09359 2.60252 0.888539 2.71819 0.736068 2.77602C1.05678 2.52366 1.30915 2.32913 1.48265 2.19769C1.81388 1.94006 2.06099 1.70347 2.22923 1.49316C2.07676 1.44584 1.9979 1.35121 1.9979 1.20926C2.00315 1.19348 2.06099 1.05152 2.16614 0.778126C2.22923 0.604625 2.31861 0.515245 2.43954 0.515245L2.92324 1.07256ZM9.26393 8.99054C9.14301 9.15878 8.98002 9.29022 8.76972 9.39012C8.55941 9.49001 8.33333 9.53733 8.09674 9.53733C7.9653 9.53733 7.84963 9.52155 7.76025 9.49527C7.69716 9.44795 7.64984 9.41115 7.62355 9.39012C7.56572 9.34806 7.54469 9.29548 7.56046 9.23239C7.58149 9.07992 7.67087 8.93796 7.82334 8.81177C7.9285 8.72765 8.07571 8.64353 8.26498 8.55941C8.18612 8.48055 8.07571 8.44374 7.9285 8.44374C7.8286 8.44374 7.74974 8.45952 7.68665 8.4858C7.68665 8.42797 7.71819 8.3754 7.78128 8.32282C7.84437 8.27024 7.89169 8.23344 7.91798 8.21241C7.98633 8.21241 8.08097 8.21241 8.20189 8.22292C8.32282 8.22818 8.41745 8.28076 8.4858 8.37014C8.4858 8.50158 8.37014 8.63828 8.14406 8.77498C7.91798 8.91167 7.80231 9.00631 7.80231 9.05363C7.80231 9.07466 7.81283 9.10095 7.83912 9.13775C7.8654 9.17456 7.92324 9.21661 8.01262 9.26393C8.11251 9.2797 8.18612 9.28497 8.23344 9.28497C8.39642 9.28497 8.57518 9.25342 8.76972 9.19032C8.85384 9.16404 9.01682 9.09569 9.26393 8.99054ZM18.0336 1.9979C17.9916 1.99264 17.9495 1.96109 17.9022 1.91377C17.8549 1.86646 17.8181 1.81914 17.7813 1.77708C17.8023 1.75079 17.8286 1.73502 17.8654 1.73502C17.9495 1.73502 18.0074 1.77708 18.0336 1.8612V1.9979ZM18.0336 5.47844C17.9863 5.50473 17.9232 5.5205 17.8444 5.5205C17.734 5.5205 17.6288 5.49422 17.5394 5.43638C17.3764 5.33123 17.2555 5.18927 17.1714 5.00526C17.2292 4.98948 17.2923 4.97897 17.3607 4.9632C17.429 4.94743 17.4974 4.94217 17.5605 4.94217C17.7129 4.94217 17.8286 4.98423 17.9075 5.06835C17.9548 5.12618 17.9863 5.1735 18.0021 5.21556C18.0074 5.30494 18.0179 5.39432 18.0336 5.47844ZM16.3407 7.50789C16.2986 7.54469 16.2461 7.57624 16.1882 7.60253C16.1304 7.62882 16.0778 7.64458 16.0358 7.64458C15.9727 7.64458 15.9148 7.62355 15.857 7.58149C15.7992 7.53943 15.7466 7.4816 15.6887 7.41325C15.6309 7.3449 15.5626 7.23975 15.4784 7.09779C15.5573 7.0715 15.6519 7.05573 15.7729 7.05573C15.9621 7.05573 16.1041 7.10305 16.1935 7.19243C16.2408 7.22923 16.2776 7.27129 16.2934 7.31861C16.3091 7.36593 16.3249 7.42902 16.3407 7.50789ZM2.70242 1.23028H2.53417L2.54469 1.07256L2.70242 1.23028ZM2.37645 1.15668C2.36067 1.20399 2.32913 1.21451 2.28181 1.17771C2.22397 1.13565 2.20294 1.08307 2.21872 1.01998C2.26078 0.977919 2.29758 0.983173 2.33438 1.04101C2.35016 1.08307 2.36067 1.11987 2.37645 1.15668Z" fill="white"/>
</svg>
