<svg width="20" height="15" viewBox="0 0 20 15" fill="none" xmlns="http://www.w3.org/2000/svg">
<path fill-rule="evenodd" clip-rule="evenodd" d="M20 9.62328C20 10.0521 19.9571 10.4809 19.8652 10.9035C19.7795 11.3262 19.6508 11.7366 19.4855 12.1409C19.5467 11.7121 19.5712 11.2894 19.5712 10.879C19.5712 10.6034 19.559 10.3032 19.5283 9.97243C19.4977 9.64165 19.461 9.317 19.4119 8.99234L18.487 2.22971C18.5054 2.1317 18.5176 2.05819 18.5176 2.00919C18.5176 1.8928 18.5054 1.77642 18.4747 1.65391C18.389 1.31087 18.34 1.12098 18.34 1.0781C18.34 0.931087 18.3828 0.796324 18.4747 0.679938C18.5237 0.551301 18.585 0.42879 18.6524 0.312404C18.7198 0.196019 18.7994 0.104135 18.8851 0.0490045C18.9464 0.2634 19.124 0.722818 19.4303 1.43338C19.6876 2.02144 19.8101 2.46861 19.8101 2.76876C19.8101 2.90352 19.7979 3.00766 19.7795 3.07504C19.7305 3.01378 19.6692 2.91577 19.6018 2.78101C19.5345 2.64625 19.4671 2.53599 19.4119 2.45635L19.1608 2.82389L20 9.61715V9.62328ZM14.9403 0.245023C14.9587 0.343032 14.928 0.447167 14.8423 0.551301C14.7565 0.661562 14.6646 0.735068 14.5544 0.784073C14.0031 0.992342 13.464 1.19449 12.925 1.40276C12.3185 1.64778 11.7979 1.90505 11.3691 2.16845C11.4671 1.79479 11.7672 1.51302 12.2634 1.317C12.6861 1.15773 13.1087 0.998468 13.5436 0.833077C13.9357 0.698315 14.2297 0.588055 14.4257 0.508423C14.6217 0.42879 14.7933 0.343032 14.9403 0.245023ZM14.928 5.23124C14.9464 5.26799 14.9587 5.33537 14.9587 5.42113C14.9587 5.50689 14.9403 5.59265 14.9096 5.67841C14.8729 5.76417 14.8239 5.85605 14.7565 5.96631C14.6401 6.03369 14.5482 6.07044 14.4931 6.07044C14.4441 6.07044 14.3951 6.04594 14.3461 5.99694C14.2971 5.91118 14.2603 5.81317 14.242 5.70291C14.2236 5.59265 14.2113 5.48851 14.2113 5.37825C14.2113 5.19449 14.2481 4.97397 14.3155 4.72894C14.3338 4.64319 14.4012 4.43492 14.5237 4.11026C14.536 4.14089 14.536 4.19602 14.536 4.26953C14.536 4.36754 14.5176 4.51455 14.4747 4.71057C14.438 4.90658 14.4135 5.0536 14.4135 5.15161C14.4135 5.37825 14.4992 5.53139 14.6769 5.62328C14.7075 5.58652 14.7443 5.51302 14.7871 5.41501C14.83 5.317 14.879 5.25574 14.928 5.22511V5.23124ZM10.6217 0C10.6401 0.0612557 10.6217 0.128637 10.5605 0.20827C10.4992 0.287902 10.4441 0.361408 10.3828 0.428789C8.84533 1.09648 7.30781 1.75804 5.78254 2.41348C5.77029 2.32772 5.80092 2.22971 5.86217 2.1317C5.92343 2.03369 5.99081 1.93568 6.05819 1.83767C6.51761 1.5804 7.08116 1.33537 7.74885 1.09035C9.52527 0.422664 10.4809 0.0612557 10.6156 0H10.6217ZM13.3415 4.45329C13.3599 4.5513 13.3721 4.60643 13.3721 4.61256C13.3721 4.71057 13.2741 4.77795 13.0781 4.80857C12.8821 4.84533 12.7718 4.92496 12.7412 5.0536C12.7106 5.12098 12.6922 5.20061 12.6799 5.28637C12.6677 5.37213 12.6677 5.47626 12.6677 5.59265V5.99081C12.6677 6.13782 12.6616 6.24809 12.6432 6.32159C12.6309 6.3951 12.5942 6.47473 12.5329 6.56662C12.2879 6.19296 12.0429 5.81929 11.7979 5.43338C11.7856 5.51914 11.7489 5.56815 11.6815 5.56815C11.5345 5.50689 11.4364 5.47014 11.3874 5.45176C11.3568 5.3905 11.3446 5.317 11.3446 5.23124C11.3446 5.0536 11.4058 4.88208 11.5345 4.71669C11.7427 4.78407 11.9265 4.93721 12.0919 5.16998C12.1715 5.28024 12.294 5.50077 12.4594 5.83155C12.5391 5.45176 12.6003 5.15773 12.6493 4.96171C12.7351 4.60031 12.9005 4.41654 13.1332 4.41654C13.219 4.41654 13.2925 4.42879 13.3415 4.44717V4.45329ZM10.4441 2.71975L9.54977 2.1317L8.94946 2.8974C8.8392 2.87902 8.67994 2.80551 8.46554 2.683C8.25115 2.56049 8.07963 2.48698 7.951 2.46861C7.83461 2.634 7.71822 2.80551 7.59571 2.97703C7.47933 3.14855 7.40582 3.30781 7.37519 3.45482C7.52221 3.54058 7.67534 3.63246 7.84074 3.72435C8 3.81623 8.15926 3.88361 8.31853 3.92037C8.37979 3.85298 8.46554 3.72435 8.58193 3.52833C8.69832 3.33844 8.80245 3.19755 8.88821 3.11179L9.85605 3.73047C10.1317 3.40582 10.3277 3.06891 10.4441 2.71363V2.71975ZM12.294 8.74732C12.2573 9.01072 12.2328 9.15773 12.2205 9.18836C12.1715 9.33537 12.0735 9.43951 11.9265 9.49464C11.8101 9.49464 11.706 9.45176 11.6263 9.37213C11.5406 9.28637 11.5038 9.19449 11.5038 9.08423C11.4855 8.90046 11.4916 8.75344 11.5161 8.64931C11.5467 8.54518 11.6508 8.28178 11.8407 7.84686C11.853 7.92649 11.8407 8.0245 11.8101 8.14089C11.7121 8.47167 11.6631 8.65544 11.6631 8.68606C11.6631 8.84533 11.7305 8.96784 11.8714 9.0536C11.9816 9.09035 12.0674 9.0536 12.1348 8.93721C12.2021 8.82083 12.2573 8.75344 12.294 8.74732ZM5.72129 3.6876C5.73966 3.76723 5.75191 3.82848 5.75191 3.87749C5.75191 4.01225 5.70903 4.15926 5.61715 4.31853C5.58652 4.36753 5.53139 4.39204 5.43951 4.39204H5.26187C5.15161 4.22664 5.1026 4.04288 5.1026 3.84686C5.1026 3.68147 5.13936 3.49158 5.20674 3.28943C5.24349 3.17305 5.317 3.00153 5.42726 2.77488C5.44564 2.86064 5.42726 3.00766 5.366 3.20368C5.30475 3.39969 5.28025 3.54058 5.28025 3.63247C5.28025 3.77948 5.32925 3.89586 5.42726 3.98775C5.50689 4.00612 5.56202 3.98775 5.6049 3.91424C5.64165 3.84686 5.68453 3.77335 5.72129 3.69372V3.6876ZM16.9556 7.11179C16.7106 5.77642 16.4655 4.44717 16.2205 3.11179C16.2021 3.01378 16.1899 2.9464 16.1899 2.90352C16.1899 2.72588 16.2511 2.59724 16.3675 2.50536C16.3798 2.52374 16.4594 2.64012 16.6187 2.86064C16.7167 3.00766 16.8086 3.09954 16.9005 3.14242C16.8392 2.67075 16.7044 2.15008 16.49 1.58652C16.3737 1.28025 16.1654 0.790198 15.8714 0.116385C15.755 0.214394 15.6508 0.373659 15.5651 0.588055C15.5283 0.70444 15.4548 0.888208 15.3568 1.13323C15.4426 1.90505 15.6141 2.93415 15.8714 4.20827C16.2144 5.92343 16.4104 6.93415 16.4594 7.2343C16.6371 8.33078 16.7228 9.35375 16.7228 10.291C16.3614 10.5544 15.9449 10.6891 15.4732 10.6891C15.1669 10.6891 14.9035 10.634 14.6769 10.5299C14.5115 10.4625 14.3767 10.3767 14.2787 10.2787C14.1807 10.1807 14.1317 10.0643 14.1317 9.92343C14.1317 9.8928 14.1317 9.84992 14.144 9.78867C14.1562 9.72741 14.1746 9.67841 14.2052 9.6294C13.8499 9.86217 13.5008 10.1011 13.1455 10.3338C12.3982 10.8239 11.7366 11.0689 11.1608 11.0689C11.1302 11.0689 11.0812 11.0689 11.0138 11.0812H10.7933C10.389 11.0812 10.0153 11.0077 9.66616 10.8668C9.317 10.7259 9.02297 10.5115 8.77795 10.2297C9.18224 10.0521 9.47626 9.72129 9.67228 9.23124C9.80092 8.7902 9.92956 8.34916 10.0704 7.90812C10.0704 7.73047 10.0459 7.56508 9.99081 7.41807C9.93568 7.26493 9.80092 7.00153 9.58652 6.61562C9.39051 6.43185 9.13936 6.33384 8.8392 6.33384C8.59418 6.46248 8.39816 6.634 8.24502 6.84839C8.09188 7.06279 7.96325 7.32619 7.86524 7.63246C7.7611 7.93874 7.69372 8.25115 7.65697 8.56355C7.62021 8.87596 7.60796 9.21286 7.60796 9.5804L6.54824 9.96018C5.99694 10.1562 5.50077 10.4012 5.04747 10.6953C4.66769 10.9525 4.25727 11.2772 3.82848 11.6815C3.03216 12.4472 2.24809 13.2129 1.46401 13.9908C1.35375 14.0214 1.25574 14.0337 1.16998 14.0337C0.875957 14.0337 0.624809 13.9173 0.422665 13.6784C0.306279 13.4456 0.245023 13.2006 0.245023 12.9433C0.245023 12.6861 0.275651 12.4655 0.343032 12.2511C0.404288 12.0368 0.557428 11.6508 0.790199 11.1057C0.826953 11.1179 0.894334 11.1363 0.980092 11.1669H1.24349C1.67228 11.1669 2.1072 11.0138 2.53599 10.7136C2.87902 10.4686 3.21593 10.1256 3.55283 9.68453C3.55283 9.61715 3.56508 9.51914 3.58346 9.3905C3.60184 9.26187 3.61409 9.08423 3.61409 8.84533C3.61409 8.43491 3.55283 8.07351 3.4242 7.77335C3.29556 7.46707 3.06891 7.21593 2.73201 7.00766C2.92802 6.74426 3.13017 6.48086 3.33231 6.21133C3.72435 5.68453 3.92037 5.20061 3.92037 4.77182C3.92037 4.73507 3.92037 4.66769 3.90812 4.58193C3.38132 5.24962 2.78714 5.91118 2.1317 6.56662C2.11332 6.53599 1.89893 6.35834 1.48239 6.02144C1.23737 5.81317 1.13936 5.6049 1.18836 5.3905C1.23737 5.37825 1.2925 5.3905 1.34763 5.43338C1.42726 5.22511 1.26187 5.01685 0.84533 4.80245C0.588055 4.67381 0.422665 4.56968 0.343032 4.49617C0.232772 4.62481 0.165391 4.82083 0.128637 5.08423C0.0918839 5.34763 0.0673813 5.52527 0.0490045 5.61103C0.226646 5.88668 0.447167 6.17458 0.710567 6.48086C0.973966 6.78714 1.24349 7.07504 1.51914 7.35069L1.3415 7.54058C1.06585 7.88361 0.839204 8.2879 0.649311 8.75957C0.465544 9.23124 0.367534 9.66615 0.367534 10.0704C0.367534 10.5115 0.48392 10.8239 0.722818 11.0138C0.563553 11.3936 0.404288 11.7856 0.245023 12.1899C0.0857581 12.5942 0 12.9801 0 13.3538C0 13.5008 0.0183767 13.66 0.0490045 13.8315C0.085758 14.0031 0.171516 14.1623 0.31853 14.3093C0.434916 14.4196 0.600306 14.5237 0.820827 14.634C0.900459 14.683 0.992343 14.7075 1.1026 14.7075C1.21899 14.7075 1.35375 14.6769 1.50077 14.6095C1.64778 14.5482 1.78867 14.487 1.92956 14.4257C2.38285 13.9173 2.81776 13.4701 3.24043 13.0904C3.71822 12.6493 4.18989 12.2695 4.64931 11.9571C5.16998 11.5957 5.69066 11.3017 6.21746 11.075C6.74426 10.8484 7.29556 10.683 7.87136 10.5727C8.00613 10.9035 8.24502 11.2098 8.5758 11.4916C8.90658 11.7734 9.24962 11.9694 9.6049 12.0858C9.91118 12.1531 10.2236 12.1899 10.5482 12.1899C11.173 12.1899 11.7734 12.0613 12.3369 11.7979C12.9005 11.5406 13.415 11.1669 13.8867 10.6891C13.9051 10.7259 13.9173 10.7994 13.9173 10.9096C13.9173 11.0077 13.9296 11.075 13.9479 11.1179C14.1133 11.3752 14.3216 11.5528 14.5727 11.657C14.8239 11.7611 15.1179 11.8101 15.4609 11.8101C15.7672 11.8101 16.049 11.7611 16.3063 11.657C16.5636 11.5528 16.7657 11.3874 16.9005 11.1485C16.9862 10.7933 17.0475 10.4686 17.0781 10.1623C17.1087 9.85605 17.121 9.51302 17.121 9.13323C17.121 8.49617 17.0659 7.82236 16.9617 7.11792L16.9556 7.11179ZM8.10414 4.71669C8.12251 4.79633 8.10413 4.86983 8.06126 4.94334C8.01225 5.01685 7.9755 5.0781 7.94487 5.1271C7.19755 5.42113 6.64625 5.63553 6.28484 5.77642C5.66003 6.02144 5.11485 6.26646 4.65544 6.51149C4.60643 6.46248 4.60643 6.3951 4.66156 6.30322C4.71669 6.21746 4.74119 6.1562 4.74119 6.12557C5.85605 5.6049 6.98315 5.13323 8.11026 4.71669H8.10414ZM14.6156 13.2312C14.5054 13.415 14.4074 13.5743 14.3216 13.7029C14.193 13.8867 14.0643 14.0398 13.9418 14.1562L12.925 13.5253C12.9862 13.3599 13.072 13.1945 13.1822 13.023C13.2925 12.8576 13.4211 12.6983 13.5559 12.5513C13.7029 12.5881 13.8438 12.6554 13.9847 12.7412C14.0214 12.7718 14.2358 12.9311 14.6156 13.2251V13.2312ZM3.60796 1.59265L3.12404 2.59112C2.83002 2.45635 2.59724 2.35222 2.43185 2.28484C2.26646 2.21746 2.1317 2.16233 2.03369 2.12558C2.04594 2.1072 2.03369 2.08882 2.02144 2.07657C2.00306 2.06432 1.97856 2.04594 1.94793 2.02757C1.83767 2.26034 1.76417 2.43798 1.71516 2.55436C1.61715 2.76876 1.47626 2.85452 1.28637 2.80551L0.416539 2.46861C0.416539 2.28484 0.496171 2.07044 0.649311 1.83767C0.777948 1.67228 0.863706 1.54977 0.912711 1.47014C1.25574 1.55589 1.44564 1.6049 1.48851 1.61715C1.67228 1.67841 1.8683 1.75804 2.06432 1.8683L2.54824 1.13323C2.79326 1.21899 2.97703 1.28637 3.09341 1.32312C3.30781 1.40276 3.47933 1.49464 3.60796 1.6049V1.59265ZM6.43185 8.20827C6.43185 8.20827 6.46248 8.2879 6.46248 8.35528C6.46248 8.43492 6.4441 8.51455 6.40123 8.60643C6.33384 8.71669 6.29097 8.7902 6.26646 8.8392C6.20521 8.95559 6.11332 9.01685 5.98469 9.01685C5.9173 9.01685 5.84992 8.99234 5.77642 8.94334C5.69678 8.79632 5.66003 8.64319 5.66003 8.49005C5.66003 8.3124 5.72129 8.09801 5.83767 7.84073C6.00306 7.47933 6.09495 7.26493 6.11945 7.2098C6.11945 7.33844 6.0827 7.51608 6.00306 7.7366C5.92343 7.96325 5.88668 8.12864 5.88668 8.2389C5.88668 8.35528 5.92343 8.47167 5.99081 8.5758C6.10107 8.60643 6.19296 8.5758 6.27259 8.47167C6.32159 8.38591 6.37672 8.29403 6.43185 8.20827ZM7.53446 13.1639C7.4977 13.3783 7.46707 13.5191 7.4487 13.5743C7.38744 13.7335 7.29556 13.8315 7.16692 13.8806C6.88515 13.8438 6.72588 13.6784 6.69525 13.3966C6.69525 13.1639 6.73201 12.925 6.81164 12.6922C6.89127 12.4594 6.99541 12.2083 7.13629 11.9449C7.15467 12.0429 7.11792 12.2205 7.02603 12.4839C6.93415 12.7412 6.88515 12.925 6.88515 13.023C6.88515 13.2374 7.00766 13.3844 7.25268 13.464C7.30168 13.4334 7.35069 13.3783 7.39357 13.2925C7.43645 13.2067 7.48545 13.17 7.53446 13.17V13.1639ZM9.48851 8.71057C9.40276 8.89433 9.22511 9.04135 8.96172 9.15161C8.8147 9.21286 8.58806 9.28637 8.2879 9.38438C8.25115 9.21899 8.2144 9.04135 8.18377 8.86371C8.15314 8.67994 8.14089 8.49617 8.14089 8.3124C8.14089 8.13476 8.17152 7.96937 8.22665 7.80398C8.28178 7.63859 8.37979 7.52833 8.50842 7.46095C8.7902 7.49158 9.01684 7.64472 9.18224 7.93262C9.21286 7.98162 9.317 8.2389 9.48851 8.71057ZM3.16692 8.88821C2.89127 9.21286 2.59112 9.46401 2.26034 9.6539C1.92956 9.83767 1.59877 9.93568 1.25574 9.93568C1.21899 9.93568 1.16386 9.93568 1.09648 9.92343C1.04747 9.92343 0.998468 9.89893 0.949464 9.84992C0.900459 9.80092 0.863706 9.74579 0.833078 9.69066C0.900459 9.38438 1.12098 8.99234 1.49464 8.51455C1.73966 8.20214 1.90505 7.98162 1.99694 7.85299C2.20521 7.95099 2.45636 8.15926 2.76263 8.48392C2.9709 8.69219 3.10567 8.82695 3.17305 8.89433L3.16692 8.88821Z" fill="white"/>
</svg>
