<svg width="20" height="9" viewBox="0 0 20 9" fill="none" xmlns="http://www.w3.org/2000/svg">
<path fill-rule="evenodd" clip-rule="evenodd" d="M20 1.97831L19.981 2.00495L19.6614 1.59406L19.5511 1.7957C19.5511 2.10767 19.5815 2.46528 19.6424 2.87236C19.787 3.85391 19.863 4.47403 19.863 4.73654V5.29199C19.863 5.81701 19.8478 6.2431 19.8174 6.5779C19.787 6.91269 19.7071 7.25509 19.5815 7.60129C19.5815 7.00399 19.5473 6.30778 19.475 5.50885C19.4065 4.70991 19.3342 3.91098 19.2657 3.10824C19.1973 2.3055 19.1592 1.59026 19.1592 0.962526C19.1288 0.924481 19.106 0.890241 19.0945 0.852196C19.0831 0.814152 19.0755 0.779913 19.0755 0.741868C19.0755 0.642953 19.1136 0.536428 19.1858 0.422294C19.2581 0.308161 19.3304 0.197831 19.3951 0.0951113C19.5397 0.429903 19.6614 0.734258 19.7527 1.00818C19.8668 1.34297 19.9505 1.66635 20 1.97451V1.97831ZM16.4771 0.224463L16.4048 0.426098C16.1499 0.540232 15.7542 0.707627 15.2178 0.928286C14.4683 1.23264 14.0727 1.39243 14.0308 1.41145C13.6237 1.58265 13.2319 1.76526 12.8628 1.95929C12.8628 1.89081 12.8971 1.81853 12.9618 1.73863C13.0302 1.65874 13.0987 1.60167 13.171 1.56363C13.5362 1.41145 13.9015 1.25547 14.2667 1.09949C14.5292 0.989157 14.8906 0.840784 15.3548 0.65817C15.8189 0.471752 16.1917 0.327183 16.4771 0.224463ZM16.3135 1.72342C16.2945 1.69298 16.2716 1.67776 16.2412 1.67396C16.2108 1.67396 16.1727 1.66635 16.1309 1.65874C15.9673 1.85277 15.8646 2.10767 15.8189 2.41583C15.758 2.27506 15.6972 2.12669 15.6363 1.9669C15.5754 1.80711 15.4879 1.70439 15.37 1.65494C15.3319 1.72342 15.3053 1.78809 15.2825 1.85277C15.2597 1.91744 15.252 1.97831 15.252 2.03919C15.4118 2.03919 15.526 2.1381 15.5983 2.33213C15.6363 2.43485 15.6896 2.59844 15.7618 2.82671C15.8417 2.74301 15.9026 2.58322 15.9445 2.35115C15.9863 2.11908 16.0167 1.98212 16.0358 1.94027C16.1157 1.9631 16.1803 1.95549 16.2336 1.91364C16.2869 1.87179 16.3097 1.80711 16.3097 1.72342H16.3135ZM15.0276 2.86475L14.689 3.35933C14.6471 3.30607 14.5482 3.22998 14.396 3.13487C14.2439 3.03976 14.1602 2.95225 14.1488 2.86475L14.5406 2.36256C14.6433 2.43104 14.7499 2.49192 14.8602 2.55279C14.9819 2.64409 15.0352 2.74681 15.0238 2.86475H15.0276ZM12.452 1.76146L12.3873 1.80711C12.4406 1.64352 12.471 1.4533 12.471 1.24025C12.471 1.08807 12.452 0.935895 12.4177 0.787521C12.3797 0.639148 12.3226 0.505992 12.2427 0.391858C12.2427 0.319573 12.2922 0.270115 12.3873 0.247288C12.5281 0.441315 12.5965 0.684801 12.5965 0.977744C12.5965 1.23264 12.5471 1.49515 12.452 1.76146ZM17.9228 1.87179C17.7211 1.25547 17.5195 0.639148 17.3217 0.019022C17.2494 0.0875021 17.1885 0.159787 17.1429 0.243485C17.0972 0.327183 17.0515 0.433707 17.0021 0.566862C17.1048 1.33536 17.2075 2.19136 17.3026 3.13867C17.4016 4.08598 17.4929 5.00666 17.5842 5.9007C17.3293 6.12517 17.1314 6.28495 16.9907 6.37626C16.7548 6.53605 16.5227 6.63116 16.2983 6.6692C16.1955 6.69203 16.0738 6.70725 15.933 6.70725C15.4651 6.70725 15.0656 6.53224 14.7384 6.17843C14.9325 6.01864 15.1569 5.9007 15.4042 5.82081C15.4727 5.79798 15.6173 5.75994 15.8417 5.71048C15.9254 5.73331 15.9787 5.74853 15.9977 5.74853C16.1385 5.74853 16.226 5.58874 16.264 5.27297C16.2831 5.10938 16.3097 5.01046 16.3477 4.98003C15.5069 4.74796 15.0466 4.62241 14.9591 4.60719C14.6624 4.54632 14.377 4.51588 14.1107 4.51588C13.8596 4.51588 13.6161 4.55012 13.3803 4.62241C13.1444 4.69089 12.9237 4.80122 12.7221 4.94579C12.684 5.02948 12.6536 5.11699 12.6308 5.20449C12.608 5.29199 12.5927 5.37569 12.5927 5.45558C12.5927 5.50885 12.6003 5.56211 12.6194 5.61157C12.6422 5.58113 12.6688 5.5583 12.6955 5.53928C12.7221 5.52026 12.7563 5.49743 12.802 5.467C12.8552 5.44417 12.9161 5.42895 12.9846 5.42895C13.1368 5.42895 13.2966 5.50885 13.4678 5.66483C13.6009 5.8094 13.7341 5.95397 13.871 6.09473C13.6085 6.25832 13.3917 6.37626 13.2129 6.44094C12.9618 6.53985 12.7183 6.5855 12.4748 6.5855C12.2922 6.56648 12.1248 6.47137 11.9726 6.30398C11.8433 6.16321 11.7481 5.99582 11.6797 5.80179C11.6112 5.2958 11.5655 4.6985 11.5389 4.00228C11.5123 3.30987 11.4894 2.64029 11.4704 2.00114C11.4324 1.25166 11.3753 0.627734 11.2954 0.129351C11.2231 0.178809 11.1547 0.270115 11.0938 0.403271C11.0633 0.475555 11.0139 0.585885 10.9492 0.730454C11.0329 1.1984 11.0938 1.65874 11.1318 2.10386C11.1699 2.55279 11.1851 3.02454 11.1851 3.52292C11.2155 4.15066 11.246 4.77459 11.2764 5.39471C11.3297 6.12517 11.5085 6.68822 11.8052 7.08389C12.0183 7.22846 12.2427 7.30455 12.4824 7.30455C12.7373 7.30455 13.0379 7.20943 13.3879 7.02302C13.6618 6.85943 13.9357 6.69203 14.2096 6.52083C14.3428 6.73388 14.5102 6.91269 14.7118 7.06106C14.8716 7.17519 15.0808 7.28933 15.3434 7.39966C15.4955 7.43009 15.6325 7.44531 15.7542 7.44531C16.0776 7.44531 16.401 7.36161 16.732 7.19041C17.0059 7.04965 17.2874 6.84801 17.5728 6.58931C17.6831 6.323 17.7592 6.04147 17.8048 5.75233C17.8505 5.46319 17.8733 5.16264 17.8733 4.85448C17.8733 4.51969 17.8429 4.08598 17.782 3.54955C17.6527 2.42343 17.5918 1.71961 17.5918 1.44189C17.6146 1.47993 17.6603 1.54461 17.7287 1.63972C17.7972 1.73483 17.8619 1.81472 17.9304 1.8832L17.9228 1.87179ZM12.9085 3.46205C12.8857 3.54575 12.859 3.63325 12.8362 3.72075C12.8134 3.80826 12.7677 3.87293 12.6993 3.91858C12.5965 3.88815 12.5357 3.82728 12.5166 3.73597C12.5166 3.54194 12.5319 3.37835 12.5585 3.249C12.5851 3.11965 12.6384 2.9903 12.7183 2.86856C12.7259 2.91801 12.7183 2.97508 12.6993 3.04356C12.6574 3.23378 12.6346 3.35172 12.6346 3.40118C12.6346 3.51531 12.6764 3.60282 12.7639 3.65608C12.783 3.64466 12.802 3.61042 12.8172 3.54955C12.8362 3.49249 12.8667 3.46205 12.9085 3.46205ZM10.2416 1.18699C10.2416 1.18699 10.2606 1.23645 10.2606 1.2783C10.2606 1.31634 10.2454 1.36199 10.2188 1.42286C10.1921 1.48374 10.1655 1.537 10.1427 1.58646C10.0932 1.60928 10.0476 1.60928 10.0057 1.57885C9.96386 1.54841 9.92201 1.49895 9.88777 1.43428C9.88016 1.40384 9.88016 1.35438 9.88016 1.28971C9.88016 1.05764 9.96386 0.859805 10.1274 0.696214C10.078 0.836978 10.0323 0.977744 9.99049 1.1147C9.99049 1.16797 9.9981 1.20981 10.0095 1.23264L10.1465 1.36199C10.1769 1.30873 10.2111 1.24786 10.2454 1.18699H10.2416ZM9.56439 2.30169C9.48069 2.46528 9.41602 2.58322 9.37417 2.65931C9.29047 2.80008 9.18775 2.85714 9.07362 2.83432L8.66273 2.568C8.71219 2.4767 8.77306 2.37778 8.84915 2.27126C8.92524 2.16473 9.00514 2.06962 9.09264 1.98212C9.17253 2.01255 9.25243 2.05821 9.32851 2.11908C9.40841 2.17995 9.4883 2.24082 9.56439 2.30169ZM10.3215 2.95986C10.1579 2.85714 10.0552 2.79247 10.0095 2.76964C9.90679 2.71638 9.80027 2.67072 9.68994 2.63268L9.27906 3.15389C9.30949 3.2452 9.39699 3.32509 9.54537 3.38977C9.62526 3.42781 9.75081 3.48107 9.92962 3.55336L10.3215 2.95986ZM15.2977 8.11109C15.1455 8.2937 14.9477 8.43827 14.708 8.5486C14.4683 8.65893 14.221 8.71219 13.9623 8.71219C13.8406 8.71219 13.7303 8.70078 13.6352 8.67415C13.5667 8.6323 13.5362 8.56002 13.5362 8.4649C13.5362 8.43447 13.5438 8.39642 13.5553 8.34697L13.8216 7.94369C13.7379 7.89043 13.677 7.82956 13.639 7.76869C13.658 7.65836 13.7074 7.55564 13.7911 7.46433C13.8748 7.37303 13.9699 7.31216 14.0803 7.29694C14.1297 7.27792 14.1792 7.30835 14.2363 7.38824C14.2553 7.43009 14.2477 7.47194 14.2172 7.50618C14.1678 7.54803 14.1335 7.58227 14.1183 7.6051C14.0651 7.55184 14.0042 7.5214 13.9433 7.5214C13.9243 7.5214 13.9015 7.52901 13.871 7.54803C13.852 7.55564 13.8444 7.56705 13.8444 7.58608C13.8444 7.6051 13.852 7.61651 13.871 7.62412C13.9129 7.66597 13.9661 7.6964 14.027 7.71162C14.0879 7.72684 14.1564 7.73445 14.2363 7.73445C14.3161 7.6964 14.3694 7.67358 14.3998 7.66216C14.4683 7.63173 14.5216 7.62792 14.5634 7.65456C14.514 7.75728 14.3542 7.8676 14.0803 7.98174C13.8444 8.08065 13.7227 8.21381 13.7227 8.38501C13.7759 8.41545 13.8482 8.43827 13.9319 8.45729C14.0156 8.47632 14.0917 8.48393 14.1602 8.48393C14.3009 8.48393 14.4379 8.4611 14.571 8.41925C14.7042 8.3774 14.9477 8.27468 15.3015 8.10728L15.2977 8.11109ZM9.50732 0.129351C8.99753 0.262507 8.52958 0.395663 8.11109 0.521209C7.82956 0.604907 7.36542 0.757086 6.71105 0.977744C6.05669 1.1984 5.61537 1.34678 5.39091 1.42667C5.26156 1.47613 5.13601 1.52559 5.00666 1.57124C4.73274 1.68157 4.59578 1.82994 4.59578 2.02016C5.24253 1.70439 6.01864 1.40004 6.93171 1.1071C7.73445 0.871219 8.53719 0.627734 9.34373 0.384249C9.39699 0.365227 9.44265 0.330987 9.48069 0.285334C9.51874 0.235876 9.52635 0.186418 9.50732 0.129351ZM9.19536 3.16911C9.11547 3.34411 9.0622 3.45825 9.03177 3.5077C8.95948 3.62945 8.87198 3.71314 8.77687 3.7626C8.53338 3.70173 8.31273 3.60281 8.11109 3.46205C8.14153 3.37074 8.19859 3.27183 8.28609 3.1615C8.32414 3.11965 8.40403 3.02454 8.53338 2.87997L9.19916 3.17291L9.19536 3.16911ZM5.24253 0.730454C5.24253 0.82937 5.22351 0.924481 5.18166 1.0234C5.14362 1.12231 5.08275 1.19079 5.00285 1.23264C4.94198 1.25166 4.89633 1.22503 4.86589 1.15655C4.83546 1.08807 4.81263 1.03481 4.80122 1.00437C4.80122 0.859806 4.82024 0.719041 4.86209 0.58969C4.90013 0.460338 4.961 0.327182 5.0409 0.194026C5.0409 0.232071 5.02948 0.289139 5.00285 0.369032C4.94959 0.544037 4.91916 0.665779 4.91916 0.72665C4.91916 0.82937 4.9572 0.916873 5.03709 0.992962C5.08655 0.985353 5.1246 0.947308 5.15503 0.875023C5.18547 0.802739 5.2121 0.757085 5.23873 0.738063L5.24253 0.730454ZM7.8638 4.63002C7.87521 4.72132 7.8638 4.80883 7.83336 4.89633C7.79913 4.98003 7.74586 5.05612 7.67358 5.11699C7.62412 5.1246 7.57847 5.09796 7.53662 5.0447C7.49477 4.99144 7.46814 4.94579 7.46053 4.90774C7.45292 4.8697 7.44531 4.83546 7.44531 4.79741C7.44531 4.68708 7.46814 4.58056 7.5176 4.47403C7.56705 4.36751 7.63173 4.26099 7.71923 4.15827C7.71923 4.19631 7.70782 4.24577 7.68119 4.31425C7.6089 4.48925 7.57086 4.59958 7.57086 4.64143C7.57086 4.73274 7.62412 4.79741 7.73445 4.83165C7.75347 4.82024 7.77249 4.786 7.78771 4.73274C7.80673 4.67947 7.82956 4.64524 7.86 4.63382L7.8638 4.63002ZM6.48659 2.97888L6.42191 3.22617L6.21267 3.13487C6.14419 3.23759 6.09854 3.4164 6.07571 3.6751C6.05288 3.93 6.00723 4.10881 5.94636 4.21533C5.8969 4.17729 5.8132 4.0137 5.69146 3.72075C5.60015 3.50009 5.46319 3.40498 5.28058 3.42781C5.22732 3.38977 5.19688 3.34411 5.19688 3.28324C5.19688 3.26042 5.21971 3.19574 5.26156 3.09302C5.28438 3.03215 5.2996 2.9903 5.2996 2.96367C5.45178 2.98649 5.58113 3.09302 5.69146 3.27563C5.80179 3.51151 5.88168 3.6789 5.92733 3.77782C5.96918 3.56477 5.99962 3.40498 6.01864 3.30226C6.06049 3.10824 6.12517 2.96367 6.20886 2.87236C6.28876 2.87997 6.34582 2.88758 6.38387 2.89899C6.42191 2.9104 6.45235 2.93704 6.48278 2.98269L6.48659 2.97888ZM3.93 1.86418C3.86913 1.9631 3.80826 2.06201 3.74358 2.16093C3.6789 2.25984 3.60662 2.34735 3.53053 2.41963L3.04737 2.10767C3.0778 2.02397 3.13867 1.92125 3.22998 1.80711C3.25281 1.77668 3.3327 1.68157 3.46586 1.52558C3.65608 1.57504 3.80826 1.68537 3.93 1.86418ZM10.2568 7.77249C10.2264 7.81434 10.1959 7.8638 10.1655 7.91326C10.1351 7.96652 10.097 7.99315 10.0476 8.00076C9.40841 8.2024 8.76926 8.40403 8.13011 8.61328C8.16055 8.5448 8.19859 8.47632 8.24044 8.40784C8.28229 8.33936 8.33555 8.30131 8.39642 8.2937C8.70839 8.19479 9.02796 8.09587 9.35515 7.99696C9.68233 7.89804 9.98668 7.82195 10.2606 7.77249H10.2568ZM3.28324 0.391858L2.91041 0C2.77725 0 2.67833 0.0760884 2.61746 0.228266C2.53757 0.433707 2.47289 0.559254 2.42724 0.601103C2.41583 0.639147 2.40822 0.661975 2.40822 0.673388C2.40822 0.72665 2.44246 0.783717 2.50713 0.83698C2.54518 0.859806 2.59464 0.890241 2.66312 0.920677C2.43865 1.17557 2.15332 1.43047 1.81472 1.68918C1.6207 1.83375 1.32014 2.0506 0.909264 2.33593C1.3658 2.10006 1.70059 1.90983 1.91364 1.76907C2.26745 1.53319 2.55659 1.26308 2.78105 0.966331C2.83051 0.989158 2.88377 1.01579 2.94465 1.04242C3.00552 1.06905 3.05878 1.08427 3.10063 1.08427C3.1615 1.08427 3.21096 1.05383 3.2452 0.992962C3.28324 0.932091 3.30607 0.875023 3.32129 0.825565C3.3365 0.772303 3.34411 0.715237 3.34411 0.646757C3.34411 0.544037 3.32129 0.456534 3.27944 0.391858H3.28324ZM3.01693 2.01636C2.97508 2.11908 2.91801 2.2218 2.85334 2.31691C2.8229 2.35876 2.75062 2.45387 2.63268 2.59844L2.07723 2.36256C2.11908 2.25223 2.17615 2.14191 2.25224 2.03538C2.3055 1.95549 2.38539 1.86418 2.48811 1.76146C2.60985 1.81092 2.70116 1.84516 2.76203 1.86038C2.87617 1.90223 2.96367 1.95549 3.01693 2.01636ZM10.2948 5.39471C10.1313 5.56972 10.0476 5.78277 10.0476 6.02625C10.0476 6.15941 10.078 6.30398 10.1389 6.45615C10.0399 6.50561 9.93342 6.52844 9.81929 6.52844C9.6557 6.52844 9.51874 6.48278 9.40841 6.39148C9.30949 6.34202 9.26384 6.27734 9.26384 6.20126C9.26384 6.17082 9.28286 6.10614 9.3171 6.01103C9.35515 5.91212 9.36656 5.84364 9.35515 5.80179C9.3171 5.84364 9.22579 5.9844 9.08122 6.22028C8.9709 6.40289 8.85296 6.52463 8.72361 6.5855C8.63991 6.61594 8.56382 6.63877 8.50295 6.65018C8.44208 6.66159 8.36599 6.6692 8.27468 6.6692C8.16435 6.6692 8.06544 6.64638 7.97793 6.60453C7.89043 6.56268 7.82956 6.51322 7.79532 6.45235C7.76108 6.39528 7.74586 6.323 7.74586 6.2393C7.75347 6.1556 7.76108 6.07951 7.76869 6.01103C7.7763 5.94255 7.7801 5.88168 7.77249 5.82081C7.61271 5.9806 7.51379 6.07571 7.47194 6.11375C7.36161 6.21267 7.25128 6.29256 7.13335 6.36104C6.86703 6.47518 6.57029 6.53605 6.24691 6.53605C5.99201 6.53605 5.74472 6.498 5.50885 6.42572C5.36428 6.36485 5.25395 6.25071 5.18166 6.07951C5.1322 5.93494 5.08655 5.78277 5.0447 5.63059C4.99144 5.68005 4.85448 5.83603 4.64143 6.10614C4.48164 6.30778 4.32947 6.44094 4.17729 6.50942C4.105 6.52083 4.05174 6.52844 4.02131 6.52844C3.7588 6.52844 3.51912 6.37246 3.29846 6.06429C3.15389 5.80179 3.00552 5.53928 2.86095 5.28058C2.61746 5.32243 2.41963 5.44037 2.26745 5.62678C2.16854 5.74092 2.06582 5.93875 1.95549 6.22028C1.81092 6.5779 1.71961 6.79475 1.68157 6.86703C1.55983 7.10291 1.41526 7.28552 1.25166 7.40727C1.17938 7.41868 1.12231 7.42629 1.07666 7.42629C0.913068 7.42629 0.783717 7.37303 0.69241 7.2627C0.551645 7.0915 0.448925 6.89367 0.376641 6.6692C0.308161 6.44474 0.270116 6.20506 0.270116 5.94636C0.270116 5.58874 0.327183 5.26536 0.445121 4.98003L0.627734 4.98764C0.76089 4.85828 0.86361 4.68708 0.928286 4.46642C0.958722 4.3561 0.996766 4.15066 1.04622 3.8463C0.992962 3.86532 0.947308 3.92619 0.916873 4.03272C0.886437 4.13924 0.859806 4.20772 0.833175 4.23816C0.810348 4.26859 0.779912 4.28381 0.749477 4.28381C0.707628 4.28381 0.650561 4.25718 0.585885 4.20011C0.502188 4.08979 0.437512 3.97565 0.399467 3.85391C0.361423 3.73217 0.338596 3.60662 0.338596 3.48107C0.338596 3.26041 0.403272 2.99791 0.528819 2.68594C0.639148 2.44246 0.749477 2.19897 0.856001 1.95549C0.654366 2.21039 0.490774 2.46528 0.361423 2.72399C0.232071 2.97889 0.125547 3.26422 0.0342401 3.58379C0.0342401 3.62184 0.0266312 3.6789 0.0076089 3.7588C-1.41727e-09 3.81967 0 3.91858 0 4.05174C0 4.25338 0.0304356 4.43219 0.0913068 4.58436C0.152178 4.74035 0.258703 4.8697 0.410881 4.97242C0.35001 5.02188 0.296747 5.10557 0.254898 5.22731C0.235876 5.28819 0.20544 5.39852 0.159787 5.5545C0.114134 5.71429 0.0836979 5.85505 0.0684801 5.9844C0.0532623 6.11375 0.0456534 6.26213 0.0456534 6.43333C0.0456534 6.76812 0.0989157 7.07628 0.201636 7.36161C0.304356 7.64314 0.467947 7.88282 0.684801 8.07685C0.764695 8.13772 0.859806 8.16816 0.966331 8.16816C1.01959 8.16816 1.06525 8.16816 1.09568 8.16435C1.12612 8.16435 1.18318 8.14913 1.27069 8.13392C1.43047 8.00457 1.55982 7.83336 1.66255 7.61271C1.69298 7.54423 1.76907 7.3464 1.88701 7.01921C2.00495 6.69203 2.13049 6.45235 2.26745 6.30778C2.38159 6.18604 2.52235 6.09473 2.68594 6.03386C2.8191 6.26974 2.95606 6.50561 3.09682 6.73768C3.27183 7.02302 3.47727 7.19802 3.70934 7.25889C3.77782 7.27791 3.83869 7.28552 3.89956 7.28552C4.08979 7.28552 4.2724 7.18661 4.4474 6.98497C4.57676 6.81377 4.7023 6.64257 4.83165 6.47518C4.88492 6.70725 4.961 6.87845 5.05992 6.98497C5.10177 7.02302 5.16264 7.05726 5.24253 7.0953C5.32243 7.13335 5.40613 7.16759 5.49743 7.20563C5.69146 7.22846 5.82462 7.24367 5.8931 7.24748C5.96158 7.24748 6.03766 7.25128 6.11756 7.25128C6.38006 7.25128 6.62355 7.21324 6.84801 7.13335C7.07247 7.05345 7.2627 6.92791 7.41488 6.7491L7.47955 7.02302C7.55184 7.18661 7.68499 7.29313 7.87141 7.34259C7.96272 7.36542 8.13392 7.38063 8.38121 7.38063C8.51056 7.36161 8.6323 7.29694 8.75404 7.179C8.8073 7.12574 8.89861 7.01921 9.02035 6.85943C9.0622 6.96215 9.13449 7.05726 9.2334 7.13715C9.33232 7.22085 9.43504 7.25889 9.53776 7.25889C9.69755 7.25889 9.8307 7.24368 9.94103 7.20944C10.0514 7.1752 10.1389 7.10291 10.2073 6.99639C10.2378 6.89747 10.291 6.73007 10.3709 6.4942C10.4242 6.30017 10.4546 6.12136 10.4546 5.96538C10.4546 5.86266 10.4394 5.76374 10.4128 5.67244C10.3862 5.58113 10.3405 5.49743 10.2796 5.41754L10.2948 5.39471ZM4.26099 4.45501C4.24196 4.6148 4.23055 4.7023 4.22294 4.72132C4.19251 4.82404 4.13544 4.89252 4.04794 4.92296C4.00609 4.92296 3.96424 4.90013 3.91858 4.85068C3.87674 4.80122 3.8501 4.75556 3.83489 4.71372C3.83489 4.55393 3.85391 4.40936 3.89576 4.28001C3.9338 4.15066 3.99467 4.00989 4.07457 3.86532C4.07457 3.90717 4.04794 4.0175 3.99087 4.19251C3.96043 4.29142 3.94522 4.36371 3.94522 4.41316C3.94522 4.51208 3.97946 4.59197 4.04413 4.66045C4.09739 4.66045 4.14305 4.63002 4.18109 4.56534C4.21914 4.50067 4.24196 4.46643 4.25338 4.45882L4.26099 4.45501ZM2.19897 4.15446C2.19897 4.28762 2.18375 4.40175 2.15332 4.49686C2.12288 4.59197 2.06582 4.66426 1.97831 4.70991C1.85657 4.6985 1.78809 4.65665 1.77668 4.58817C1.76527 4.51969 1.75766 4.46642 1.75766 4.43218V4.36371C1.75766 4.04794 1.84135 3.80065 2.01255 3.62564C1.98212 3.70553 1.95168 3.79684 1.91744 3.89956C1.8832 4.00228 1.86799 4.09359 1.86799 4.17348C1.86799 4.2724 1.89462 4.36371 1.95168 4.4474C2.02397 4.45882 2.07343 4.41697 2.09625 4.31805C2.11908 4.21914 2.15332 4.16587 2.19517 4.15446H2.19897ZM5.642 8.04261C5.50124 8.24425 5.34906 8.41545 5.18547 8.56382C5.1246 8.52577 5.00666 8.44969 4.82785 8.32794C4.74796 8.27468 4.67567 8.22522 4.60719 8.18337C4.55393 8.21381 4.49306 8.28229 4.42458 8.39262C4.3561 8.50295 4.28762 8.57523 4.21533 8.61328C4.08218 8.53338 3.98326 8.47251 3.92239 8.43066C3.80065 8.35077 3.72836 8.27849 3.70173 8.21L4.15827 7.70782C4.16968 7.73064 4.28762 7.80673 4.50447 7.93609C4.60719 7.99696 4.67187 8.04641 4.69469 8.08065L5.10557 7.65075L5.63439 8.04261H5.642ZM14.902 5.39471C14.7384 5.50885 14.5749 5.62298 14.4075 5.73331C14.3276 5.642 14.2515 5.54689 14.1792 5.45178C14.1373 5.40232 14.1069 5.34906 14.0879 5.28819L14.902 5.39852V5.39471ZM3.18813 0.802739C3.14628 0.814153 3.09682 0.802739 3.04737 0.764694C2.9941 0.72665 2.96747 0.711432 2.95986 0.711432L3.04356 0.502187C3.06258 0.532623 3.08921 0.574472 3.13106 0.631539C3.16911 0.684801 3.19193 0.745672 3.19193 0.806543L3.18813 0.802739ZM2.83051 0.627734L2.62127 0.563059C2.62127 0.490774 2.65931 0.452729 2.7392 0.452729C2.79247 0.452729 2.8229 0.483165 2.83051 0.544037V0.627734Z" fill="white"/>
</svg>
