<svg width="20" height="14" viewBox="0 0 20 14" fill="none" xmlns="http://www.w3.org/2000/svg">
<path fill-rule="evenodd" clip-rule="evenodd" d="M18.5325 2.10289C18.4425 2.22659 18.3188 2.33905 18.167 2.44026C18.0602 2.51335 17.914 2.58645 17.734 2.65392C17.5541 2.72702 17.3798 2.79448 17.2055 2.85633C17.0368 2.91818 16.8794 2.9969 16.7444 3.08687C16.8175 2.94068 16.9131 2.82259 17.0425 2.727C17.1662 2.63142 17.3292 2.54708 17.526 2.46274C17.7622 2.38964 17.9308 2.33905 18.0377 2.29969C18.2288 2.23784 18.3863 2.17036 18.5212 2.09726L18.5325 2.10289ZM19.9606 2.20972C19.9606 2.20972 19.8932 2.08602 19.8032 1.91172C19.7189 1.74304 19.6401 1.61934 19.5671 1.54625C19.5671 1.9792 19.6008 2.46837 19.6739 3.0194C19.8538 4.39696 19.9438 5.25161 19.9438 5.58335C19.955 5.76328 19.9663 5.93196 19.9775 6.09502C19.9888 6.25808 20 6.44362 20 6.6629C20 7.21955 19.9494 7.71999 19.8538 8.16981C19.7526 8.614 19.5783 9.05257 19.3253 9.48552C19.4152 9.20438 19.4827 8.93448 19.5221 8.66459C19.5614 8.3947 19.5839 8.09108 19.5839 7.75934C19.5839 7.37137 19.5502 6.90469 19.4883 6.35366C19.3421 5.09417 19.2747 4.31824 19.2747 4.02024C19.1285 2.8957 18.9879 1.76552 18.8417 0.635352L19.2184 0C19.2184 0 19.3478 0.241777 19.5839 0.702839C19.8538 1.22575 19.9888 1.64744 19.9888 1.97356C19.9888 2.02979 19.9775 2.1085 19.9606 2.21533V2.20972ZM15.142 0.241773L15.0745 0.500413C14.2086 0.815285 13.3483 1.13015 12.4824 1.44502C11.5266 1.82175 10.7 2.23222 9.99719 2.67079C10.1434 2.32218 10.4695 2.03542 10.9812 1.82175C11.4141 1.64183 11.8302 1.46752 12.235 1.29322C12.6399 1.12454 13.1066 0.938986 13.6407 0.747814C14.1692 0.556641 14.6697 0.387963 15.1364 0.241773H15.142ZM14.9677 4.46442C14.9958 4.56563 14.9902 4.66685 14.9452 4.77931C14.9058 4.89176 14.844 4.98734 14.7653 5.07168C14.6191 5.08855 14.5235 5.01545 14.4672 4.84115C14.4672 4.54315 14.4729 4.32386 14.4897 4.17205C14.501 4.02586 14.5572 3.86843 14.6472 3.70537C14.6584 3.77846 14.6472 3.89653 14.6247 4.06521C14.6022 4.23389 14.5909 4.32949 14.5909 4.3576C14.5909 4.4307 14.5966 4.50378 14.6134 4.57125C14.6247 4.64435 14.6809 4.71183 14.7709 4.77368C14.8159 4.74557 14.8552 4.69496 14.8833 4.61062C14.9171 4.5319 14.9452 4.48129 14.9733 4.46442H14.9677ZM13.7419 2.67079C13.6407 2.59769 13.5283 2.56957 13.3933 2.59206C13.2696 2.68203 13.1853 2.86195 13.1515 3.13184C13.1178 3.40173 13.0897 3.5648 13.0728 3.6154C12.966 3.45234 12.8592 3.28928 12.7636 3.11497C12.6399 2.9238 12.4993 2.78324 12.3475 2.68203C12.2575 2.64829 12.1957 2.65392 12.1676 2.70452C12.1338 2.75513 12.117 2.83384 12.1057 2.94067C12.1057 2.97441 12.1057 3.03064 12.0945 3.10373C12.0945 3.18245 12.1338 3.22743 12.2182 3.23867C12.415 3.23867 12.6005 3.36238 12.7692 3.6154C12.9772 3.93027 13.1066 4.10458 13.1628 4.14394L13.2415 3.21057C13.2303 3.17683 13.2303 3.13185 13.2303 3.08687C13.2303 2.98003 13.2865 2.9238 13.3933 2.9238C13.4495 2.9238 13.5226 2.92381 13.6238 2.93506C13.7307 2.93506 13.7869 2.89006 13.7869 2.8001C13.7869 2.78323 13.7757 2.73826 13.7588 2.66516L13.7419 2.67079ZM18.6674 7.36574C18.5775 7.21393 18.465 7.1071 18.3357 7.05087C18.2064 6.99465 18.0489 6.96091 17.869 6.96091C17.824 6.96091 17.5766 6.99465 17.1268 7.0565C17.0031 7.07337 16.8681 7.08461 16.722 7.08461C16.5701 6.01629 16.4183 4.93674 16.2778 3.85717C16.2778 3.68849 16.2553 3.45234 16.2103 3.15434C16.1203 2.55833 16.0753 2.17598 16.0753 1.99606C16.0753 1.84424 16.0866 1.68681 16.1147 1.52375C16.2328 1.63058 16.3171 1.72055 16.379 1.78802C16.4352 1.85549 16.4914 1.93983 16.5364 2.03542C16.5533 1.85549 16.5027 1.61371 16.3733 1.30446C16.0247 0.46105 15.8448 0.0281074 15.8448 0.0112393C15.7549 0.134939 15.6649 0.269879 15.5693 0.410447C15.4737 0.551015 15.4287 0.691589 15.4287 0.837779C15.4287 0.938988 15.4512 1.02332 15.4962 1.09642L16.2103 6.84284L16.2215 7.25891C15.7717 7.49507 15.4062 7.65813 15.1307 7.75934C14.6922 7.9224 14.2929 8.00111 13.9443 8.00111C13.7307 8.00111 13.5114 7.96177 13.2977 7.88867C13.0841 7.80995 12.8873 7.70874 12.7186 7.5738C13.2303 7.22519 13.7757 7.04526 14.3492 7.04526C14.4054 7.04526 14.4616 7.04525 14.5291 7.05087C14.5966 7.05087 14.6753 7.06212 14.7653 7.07337C14.8552 6.94967 14.9227 6.81472 14.962 6.67977C15.0014 6.54483 15.0239 6.39865 15.0239 6.23559C14.0174 5.81389 13.011 5.60022 11.9989 5.60022C11.476 5.60022 10.9812 5.65645 10.5145 5.77452C10.2446 5.80826 10.0422 5.93196 9.91285 6.14C9.78353 6.34804 9.71605 6.59544 9.71605 6.8822C9.77228 6.91594 9.851 6.89906 9.95221 6.82597C10.0534 6.75287 10.1321 6.71914 10.1884 6.71914C10.4133 6.69102 10.6494 6.77536 10.9024 6.97778C11.0655 7.09585 11.2398 7.27579 11.431 7.51757C10.9924 7.7987 10.537 7.93364 10.0703 7.93364C9.91847 7.93364 9.74979 7.91116 9.56986 7.86617C9.34495 7.77621 9.16503 7.62439 9.0357 7.41635C8.90638 7.20268 8.82204 6.96653 8.78831 6.69664C8.78831 5.3753 8.75457 4.20017 8.69272 3.17683C8.63087 2.1535 8.4903 1.18639 8.27664 0.275508C8.16981 0.365471 8.08547 0.494783 8.01799 0.669087C7.98988 0.730937 7.95052 0.877139 7.89429 1.10205C8.05735 1.81051 8.17543 2.53022 8.2429 3.24993C8.316 3.96964 8.34973 4.68934 8.34973 5.40905C8.36098 5.48215 8.38347 5.96007 8.42283 6.84846C8.46219 7.73685 8.71521 8.35536 9.17065 8.71521C9.4068 8.79393 9.63171 8.83891 9.85662 8.83891C10.1153 8.83891 10.402 8.78829 10.7113 8.68146C11.0205 8.58025 11.4254 8.37784 11.9202 8.07984L12.5668 8.59151C12.7355 8.69834 12.9154 8.77705 13.0953 8.82765C13.2752 8.87826 13.4552 8.90075 13.6351 8.90075C13.9949 8.90075 14.456 8.78268 15.0239 8.55215C15.7605 8.24852 16.199 8.07421 16.334 8.04048C16.3902 8.24852 16.4464 8.45656 16.5083 8.67022C16.5701 8.88388 16.6657 9.05257 16.7894 9.18752C16.9806 9.39556 17.2111 9.49676 17.4923 9.49676C17.5822 9.49676 17.6666 9.48551 17.7509 9.4574C18.0489 9.23249 18.2738 8.96261 18.4313 8.64211C18.5887 8.32162 18.6674 7.98987 18.6674 7.63564C18.6674 7.51756 18.6674 7.43323 18.6562 7.377L18.6674 7.36574ZM9.56986 2.24909C9.65983 1.9792 9.70481 1.69243 9.70481 1.38318C9.70481 1.16952 9.68232 0.978348 9.64296 0.820912C9.6036 0.663476 9.5305 0.50603 9.43492 0.354217L9.54175 0.208038C9.74979 0.421701 9.851 0.71407 9.851 1.07392C9.851 1.32695 9.81164 1.57998 9.7273 1.84425C9.69919 1.92297 9.64858 2.05791 9.56424 2.24909H9.56986ZM10.7731 4.20578C10.7731 4.35197 10.7563 4.47567 10.7169 4.57688C10.6832 4.67809 10.6157 4.76243 10.5145 4.82428C10.3627 4.7793 10.2615 4.67809 10.2165 4.52628C10.2165 4.30137 10.2277 4.12144 10.2502 3.99211C10.2727 3.86279 10.3289 3.72224 10.4189 3.58167C10.4301 3.62665 10.4189 3.72223 10.3964 3.87404C10.3739 4.02023 10.3627 4.12144 10.3627 4.16642C10.3627 4.3351 10.4301 4.45881 10.5651 4.53191C10.5932 4.51504 10.6269 4.46444 10.6663 4.37447C10.7057 4.29013 10.7394 4.23389 10.7675 4.20578H10.7731ZM6.98341 1.33258C7.01715 1.54624 6.93281 1.77115 6.72477 1.99606C6.65167 2.01293 6.57858 1.93983 6.51111 1.78239C6.49424 1.69243 6.48299 1.62496 6.48299 1.57998C6.48299 1.41692 6.52235 1.23137 6.60669 1.02895C6.67979 0.877136 6.73039 0.770312 6.75288 0.702839C6.75288 0.764689 6.73039 0.87713 6.67979 1.04019C6.62918 1.20325 6.60669 1.31571 6.60669 1.37756C6.60669 1.52375 6.67416 1.63059 6.80911 1.70368C6.83722 1.68681 6.86534 1.62497 6.88783 1.52938C6.91594 1.42817 6.94405 1.36631 6.98341 1.33819V1.33258ZM4.98735 0.820912C4.98735 0.820912 4.91988 0.854641 4.85803 0.849018C4.8018 0.837773 4.74557 0.832157 4.68935 0.820912C4.6275 0.820912 4.57689 0.854649 4.54315 0.927745V1.20888C4.54315 1.38881 4.53753 1.54624 4.52066 1.68119C4.50942 1.81613 4.47568 1.93983 4.4307 2.04666C4.35761 1.98481 4.26764 1.84425 4.16081 1.63058C3.98088 1.28198 3.76722 1.12454 3.52544 1.15828C3.50857 1.10205 3.49733 1.05706 3.49733 1.01208C3.49733 0.938987 3.52544 0.843401 3.57605 0.714079C3.59292 0.669097 3.6379 0.646609 3.71099 0.646609C3.74473 0.646609 3.77847 0.66348 3.80658 0.702839C3.92466 0.804048 4.03711 0.938988 4.14394 1.11891C4.25077 1.29884 4.33511 1.43379 4.38572 1.52375C4.39696 1.33258 4.40821 1.14141 4.42508 0.944612C4.45881 0.719703 4.56565 0.573508 4.73433 0.500413C4.76244 0.517281 4.81305 0.545397 4.89739 0.573511C4.9761 0.607247 5.02109 0.646612 5.02109 0.702839C5.02109 0.730953 5.00984 0.770313 4.98173 0.82654L4.98735 0.820912ZM13.0166 9.82289C12.7917 10.0478 12.5555 10.2277 12.3081 10.3627C12.0607 10.4976 11.7965 10.5651 11.5209 10.5651C11.4591 10.5651 11.3635 10.5538 11.2398 10.537C11.1217 10.4751 11.0655 10.3683 11.0655 10.2277C11.0655 10.1715 11.0768 10.1265 11.1049 10.0815L11.4141 9.64857C11.296 9.57547 11.2229 9.49676 11.1836 9.40679C11.2173 9.28872 11.2792 9.1875 11.3635 9.10316C11.4479 9.01882 11.5547 8.94011 11.6784 8.86702C11.6896 8.87826 11.7177 8.89512 11.7683 8.92886C11.8189 8.96259 11.8414 8.99634 11.8414 9.03008C11.8246 9.1088 11.7571 9.18188 11.639 9.24373C11.6278 9.19875 11.5772 9.17626 11.476 9.17626C11.4422 9.23249 11.4254 9.26622 11.4366 9.28309C11.4985 9.31683 11.5659 9.35057 11.639 9.37869C11.7121 9.4068 11.7796 9.41242 11.8414 9.40679C11.9145 9.35057 11.9764 9.30558 12.0214 9.26622C12.072 9.22687 12.1226 9.22124 12.1788 9.24373C12.1451 9.30558 11.937 9.47989 11.5603 9.77227C11.3972 9.89034 11.3073 10.0141 11.2904 10.149C11.3523 10.194 11.4197 10.2277 11.4928 10.2558C11.5659 10.2839 11.6559 10.2952 11.7627 10.2952C11.9426 10.2952 12.1451 10.239 12.37 10.1321C12.5949 10.0253 12.8085 9.91847 13.0166 9.82289ZM1.66995 1.79363C1.57998 1.82737 1.49002 1.81612 1.39443 1.7599C1.29885 1.70367 1.25387 1.62496 1.25387 1.52375C1.22013 1.36069 1.19764 1.23136 1.19764 1.13015C1.19764 0.860264 1.26511 0.624116 1.40006 0.416075C1.38319 0.489171 1.36632 0.573513 1.34383 0.663476C1.32696 0.759063 1.31572 0.843404 1.31572 0.927745C1.31572 1.05144 1.33258 1.1639 1.3607 1.25948C1.39443 1.35507 1.45066 1.43941 1.52938 1.50688C1.61934 1.535 1.68119 1.50689 1.70931 1.43941C1.74304 1.36632 1.77116 1.29322 1.79927 1.22575C1.81614 1.32696 1.81614 1.41691 1.79365 1.49563C1.77116 1.57435 1.72617 1.67555 1.66432 1.79363H1.66995ZM8.01237 9.82289C7.96739 9.94659 7.92803 10.0703 7.88867 10.1884C7.82682 10.3345 7.74248 10.4189 7.63003 10.447C7.49508 10.3121 7.42761 10.1434 7.42761 9.93533C7.42761 9.78914 7.46697 9.62046 7.54006 9.42366C7.61878 9.22686 7.67501 9.0863 7.70874 9.00758C7.70874 9.0863 7.68625 9.21562 7.64689 9.38993C7.60753 9.56423 7.58504 9.68232 7.58504 9.73292C7.58504 9.83413 7.59629 9.90723 7.61878 9.96345C7.64127 10.0197 7.68625 10.0703 7.75935 10.1265C7.79309 10.1153 7.83244 10.0703 7.86618 9.98032C7.89992 9.89036 7.9449 9.83975 8.00112 9.83412L8.01237 9.82289ZM7.51195 5.77452C7.54006 5.72954 7.55131 5.67893 7.55131 5.62833C7.55131 5.50463 7.48383 5.34719 7.35451 5.16726C7.22519 4.98733 7.10149 4.81867 6.98341 4.65561L6.75288 5.07168C6.7079 5.21787 6.68541 5.39218 6.68541 5.60022C6.68541 5.88698 6.76975 6.30867 6.94405 6.85407C7.02277 7.11272 7.09587 7.36013 7.15772 7.58504C6.38178 8.2429 5.41468 8.86702 4.24515 9.46302C3.22182 9.94658 2.19286 10.4358 1.16953 10.9193L2.85634 10.5426C3.47484 10.4864 4.08209 10.3177 4.66685 10.0309C5.33034 9.70481 6.19061 9.1088 7.24206 8.23728C7.36576 8.09108 7.4501 7.95613 7.48946 7.82118C7.52882 7.68624 7.55131 7.51757 7.55131 7.30953C7.55131 7.14647 7.49508 6.78099 7.38825 6.20186C7.34327 5.96008 7.32078 5.75203 7.32078 5.58335C7.36576 5.5946 7.40512 5.6227 7.44448 5.67893C7.45572 5.70704 7.47821 5.74078 7.51195 5.78576V5.77452ZM8.01237 12.2125C7.42761 12.4712 6.85409 12.6961 6.29744 12.8873C5.62272 13.1122 4.98735 13.2584 4.39696 13.3315C4.13832 13.3652 3.84031 13.3877 3.50857 13.3877C2.98566 13.3877 2.49649 13.3202 2.03542 13.1853C1.57436 13.0503 1.15266 12.8367 0.76469 12.5386C0.494799 12.3306 0.298004 12.0832 0.179927 11.7908C0.0562275 11.4985 0 11.1723 0 10.8125C0 10.7225 1.28819e-07 10.6438 0.00562284 10.5707C0.00562284 10.4976 0.0168683 10.4358 0.0281137 10.3795C0.129323 9.60359 0.337363 8.90638 0.663481 8.27664C0.989598 7.64689 1.42817 7.0565 1.98482 6.5111C1.89486 6.40427 1.56874 6.20747 1.01209 5.91509C0.596008 5.70705 0.393591 5.40904 0.393591 5.02669C0.45544 4.76805 0.522913 4.49817 0.596008 4.22828C0.697217 3.93027 0.854653 3.71661 1.07956 3.58167C1.46753 3.4917 1.8555 3.42423 2.24909 3.38487C2.64268 3.34551 3.07563 3.32301 3.55356 3.32301C4.11021 3.32301 4.6275 3.34551 5.10543 3.38487C5.58336 3.42423 6.10627 3.49732 6.68541 3.59291C6.68541 3.87404 6.59545 4.13269 6.41552 4.36884C6.23559 4.605 6.01068 4.79055 5.74079 4.91425L3.99775 5.83075C3.69975 5.99381 3.40174 6.16812 3.09812 6.35929C2.79449 6.55046 2.51335 6.74726 2.24346 6.9553C1.97357 7.18021 1.72055 7.41635 1.49002 7.66375C1.25387 7.91115 1.05707 8.16418 0.894012 8.42845C0.70284 8.72645 0.562272 9.03008 0.466686 9.34495C0.3711 9.65982 0.326118 10.0028 0.326118 10.3683C0.326118 10.8181 0.51729 11.2229 0.905258 11.5828C1.20888 11.8695 1.60247 12.1001 2.08041 12.2688C2.33343 12.3475 2.63143 12.4093 2.98566 12.4487C3.33427 12.488 3.67726 12.5105 4.009 12.5105C4.15519 12.5105 4.30138 12.5105 4.45319 12.5049C4.605 12.5049 4.75682 12.4993 4.91425 12.4993H5.0492C5.39218 12.4993 6.02193 12.4374 6.93843 12.3081C7.39949 12.2463 7.75935 12.2125 8.01799 12.2125H8.01237ZM3.90779 8.46218C3.87405 8.53528 3.80658 8.62523 3.71099 8.73769C3.61541 8.85014 3.55356 8.94011 3.5142 9.00196C3.35114 8.91199 3.23306 8.84453 3.16559 8.79955C3.03064 8.72083 2.92944 8.63085 2.86759 8.54089C3.00253 8.25975 3.17684 8.01798 3.39612 7.80994C3.54793 7.89991 3.66039 7.973 3.73348 8.02361C3.87967 8.13044 3.94715 8.23727 3.94715 8.33285C3.94715 8.36659 3.9359 8.41157 3.90779 8.45655V8.46218ZM18.2682 8.19228C18.2963 8.24851 18.3076 8.28787 18.3076 8.31598C18.3076 8.37783 18.2738 8.42283 18.212 8.45094C18.1108 8.55777 17.9871 8.61399 17.8353 8.61399C17.7903 8.61399 17.7284 8.60275 17.6553 8.58588C17.5766 8.56901 17.5091 8.55214 17.4473 8.54652C17.1662 8.40033 16.9918 8.17543 16.9188 7.8718C16.9918 7.85493 17.0818 7.83806 17.1886 7.81557C17.2955 7.7987 17.3911 7.78745 17.4698 7.78745C17.6385 7.78745 17.8015 7.82119 17.9477 7.88304C18.0939 7.94489 18.2007 8.05172 18.2626 8.19228H18.2682ZM12.9772 6.6123C12.8985 6.64042 12.7973 6.69103 12.6792 6.77537C12.4543 6.93842 12.3081 7.01714 12.235 7.01714C12.1338 7.01714 12.0607 6.97216 12.0045 6.8822C11.9933 6.87095 11.9426 6.81473 11.8414 6.7079C11.7796 6.64605 11.7402 6.57856 11.7177 6.50547C11.9426 6.50547 12.1563 6.51673 12.3587 6.53359C12.5611 6.55046 12.7636 6.57857 12.9716 6.6123H12.9772ZM5.47653 4.31824C4.48693 4.82991 3.46359 5.43154 2.41215 6.11189C2.32218 5.82513 2.10852 5.56086 1.77678 5.31346C1.47877 5.13353 1.18639 4.95361 0.899635 4.77368C0.97273 4.49254 1.20888 4.3351 1.6081 4.29575C2.00731 4.25639 2.23784 4.22827 2.30531 4.20578C3.02502 4.20578 3.62103 4.21141 4.09896 4.22828C4.57689 4.23952 5.03233 4.27326 5.47653 4.31824Z" fill="white"/>
</svg>
