<svg width="20" height="10" viewBox="0 0 20 10" fill="none" xmlns="http://www.w3.org/2000/svg">
<path fill-rule="evenodd" clip-rule="evenodd" d="M19.9874 1.68796C19.9539 1.72147 19.9288 1.73822 19.9079 1.73822C19.8995 1.65864 19.8618 1.57487 19.7906 1.48691C19.7194 1.39895 19.6691 1.33194 19.6356 1.28587L19.5267 1.4576C19.5267 1.8932 19.5686 2.4 19.6482 2.97382C19.7277 3.55183 19.8073 4.10471 19.8911 4.63246C19.912 4.81256 19.9288 4.98848 19.9414 5.16021C19.9539 5.33194 19.9623 5.50785 19.9623 5.68796C19.9623 6.07749 19.9288 6.42932 19.866 6.74764C19.8031 7.06597 19.6901 7.38848 19.5309 7.71937C19.5853 7.27121 19.6105 6.79791 19.6105 6.30367C19.6105 6.07749 19.6021 5.85131 19.5812 5.62932L19.1204 1.56649C19.1204 1.45341 19.1079 1.29843 19.0869 1.09739C19.0618 0.900528 19.0534 0.77906 19.0534 0.728798C19.0534 0.573824 19.0785 0.44398 19.1246 0.33508C19.1707 0.226179 19.2628 0.125655 19.3969 0.0335086C19.4723 0.192671 19.5518 0.393719 19.6398 0.636651C19.6482 0.661782 19.7654 1.01361 20 1.68377L19.9874 1.68796ZM15.2126 2.54241C15.2251 2.62199 15.2126 2.70157 15.1623 2.77697C15.1162 2.85236 15.0702 2.92775 15.0199 3.00314C14.9654 3.02408 14.911 3.00314 14.8607 2.95288C14.8398 2.93194 14.8021 2.87749 14.7393 2.79372C14.7309 2.74764 14.7309 2.68482 14.7309 2.60105C14.7309 2.44608 14.756 2.2911 14.8105 2.12775C14.844 2.02723 14.9068 1.88063 15.0031 1.68377C15.0241 1.77173 15.0031 1.90157 14.9529 2.07749C14.8984 2.25341 14.8733 2.36649 14.8733 2.42094C14.8733 2.54241 14.9236 2.64712 15.0241 2.74346C15.0492 2.73508 15.0785 2.70157 15.1037 2.63874C15.1288 2.57592 15.1665 2.54241 15.2126 2.54241ZM15.4932 0.209424C14.8105 0.431414 14.0775 0.682724 13.2901 0.963352C12.5613 1.22304 11.8325 1.48691 11.1079 1.7466C11.0325 1.7801 10.9738 1.83037 10.9277 1.90157C10.8817 1.97278 10.844 2.04817 10.8188 2.12775C11.2628 1.90576 11.8492 1.66702 12.578 1.41571C12.9717 1.28168 13.5749 1.07644 14.3874 0.804188C14.3958 0.804188 14.6094 0.732984 15.0325 0.594764C15.2921 0.506805 15.4471 0.381156 15.4932 0.213617V0.209424ZM13.2021 2.91519L13.0932 3.12461C13.0513 3.0911 13.022 3.06597 13.001 3.05341C12.934 3.01152 12.867 3.00314 12.8 3.02408C12.6995 3.39267 12.599 3.75707 12.4984 4.12147C12.4775 4.08796 12.4188 3.9665 12.3183 3.76126C12.2597 3.64817 12.1927 3.51833 12.1173 3.38011C12.0963 3.41362 12.067 3.43037 12.0251 3.43037C11.9916 3.43037 11.9497 3.4178 11.8995 3.39686C11.8492 3.37173 11.8031 3.3466 11.7654 3.32147C11.7529 3.30053 11.7445 3.27121 11.7445 3.22932C11.7445 3.18744 11.7613 3.13718 11.7906 3.07435C11.8199 3.01152 11.8408 2.96545 11.8576 2.94032C11.933 2.89424 12 2.8733 12.067 2.88168C12.1424 2.95707 12.2094 3.0534 12.2681 3.17487C12.356 3.35497 12.444 3.53508 12.5277 3.71937C12.5613 3.47644 12.599 3.28377 12.645 3.13718C12.6869 2.99058 12.7707 2.86073 12.8921 2.75602C12.9675 2.75602 13.0304 2.76859 13.0848 2.78953C13.1393 2.81466 13.177 2.85655 13.2063 2.92356L13.2021 2.91519ZM19.0618 5.65026C18.9403 5.57487 18.8021 5.54137 18.6513 5.54137C18.3079 5.61676 17.9686 5.68796 17.6251 5.76335L17.223 3.35079C17.3696 3.24188 17.5246 3.13298 17.6921 3.01571C17.8555 2.89843 17.9895 2.78116 18.0901 2.66807L18.2199 2.79791L18.3288 2.689C18.2953 2.63455 18.2785 2.58011 18.2785 2.52985C18.2785 2.48377 18.2953 2.41675 18.3288 2.32879C18.3958 2.16126 18.4209 2.0356 18.4084 1.95602C18.3749 1.86806 18.2953 1.8178 18.1654 1.80523C18.0524 1.80523 17.9518 1.84712 17.8681 1.93508C17.7843 2.02304 17.7173 2.12775 17.6712 2.24503C17.6963 2.2911 17.734 2.33717 17.7801 2.38743C17.9016 2.5089 17.9686 2.58011 17.9812 2.60943C17.9016 2.67644 17.8052 2.75183 17.7005 2.83979C17.5204 2.9822 17.3571 3.08272 17.2188 3.14974C17.2188 3.00733 17.1895 2.79372 17.1267 2.50472C17.0681 2.21571 17.0346 2.0021 17.0346 1.85969C17.0346 1.71728 17.0597 1.57906 17.1058 1.4576C17.1476 1.4911 17.2021 1.55812 17.2775 1.66283C17.3529 1.76754 17.4115 1.82618 17.4576 1.83874C17.244 1.22722 17.0304 0.615707 16.8126 0C16.712 0.0586387 16.6325 0.154973 16.5696 0.280627C16.5487 0.326701 16.511 0.452355 16.4482 0.653402C16.5277 1.06806 16.6031 1.51623 16.6702 1.98953C16.712 2.28272 16.7707 2.73508 16.8503 3.3466C16.6366 3.52252 16.3812 3.6733 16.088 3.79896C15.9288 3.86597 15.7654 3.93299 15.6063 4C15.7948 4 16.0168 3.94137 16.2681 3.8199C16.5906 3.66493 16.7916 3.57696 16.8712 3.56021L17.2147 5.84293C17.0932 5.889 16.9508 5.91414 16.7832 5.91414C16.7162 5.91414 16.6576 5.91414 16.6073 5.90995C16.5571 5.90995 16.4565 5.89319 16.3099 5.86387C16.201 5.80524 16.1257 5.75497 16.0796 5.71309C16 5.64607 15.9539 5.57068 15.9497 5.4911C15.8702 5.57068 15.8073 5.65026 15.7696 5.73403C15.7571 5.75916 15.7026 5.91414 15.6105 6.19477C15.6901 6.32042 15.7571 6.48377 15.8115 6.67644C15.8366 6.78534 15.8785 6.9487 15.933 7.17068C15.3969 7.70681 14.9403 8.10053 14.5675 8.34765C14.0188 8.70786 13.4869 8.89215 12.9675 8.89215C12.8419 8.89215 12.7079 8.88377 12.5654 8.86283C12.3058 8.70367 12.1382 8.47749 12.0628 8.18848C12.0209 8.08796 12.0042 7.99582 12.0042 7.91623C12.0042 7.76126 12.0796 7.61885 12.2346 7.48482C12.5948 7.17487 12.7916 6.95707 12.8168 6.82304C12.8921 6.93613 12.9843 7.03246 13.0932 7.10367C13.2021 7.17906 13.3194 7.21257 13.4408 7.21257C13.5204 7.21257 13.5958 7.2 13.667 7.17068C13.7382 7.14555 13.801 7.09529 13.8513 7.02827C13.9518 6.84817 14.0272 6.67644 14.0775 6.51728C14.1277 6.35811 14.1529 6.1822 14.1529 5.99372C14.1529 5.78429 14.1152 5.6 14.044 5.43246C13.9016 5.59162 13.8346 5.80942 13.8346 6.08586C13.8346 6.15288 13.8429 6.23246 13.8555 6.3288C13.8094 6.39581 13.7466 6.4377 13.6754 6.45027C13.6209 6.47121 13.5791 6.47958 13.5455 6.47958C13.466 6.47958 13.3864 6.45864 13.3152 6.42094C13.2901 6.40838 13.2524 6.38325 13.2063 6.34974C13.0974 6.27016 13.0471 6.16126 13.0471 6.02722C13.0471 5.98534 13.0555 5.91833 13.0681 5.82618C12.9927 5.85969 12.9382 5.91833 12.9005 5.99791C12.8628 6.07749 12.8209 6.17801 12.7749 6.29948C12.6408 6.4754 12.5194 6.60524 12.4147 6.6932C12.2597 6.81466 12.1047 6.8733 11.9539 6.8733C11.8743 6.8733 11.8115 6.86492 11.7738 6.85236C11.6607 6.78534 11.5853 6.69319 11.5518 6.57173C11.5183 6.45026 11.5016 6.29948 11.5016 6.11937V5.92671C11.3592 5.99372 11.2084 6.1445 11.0492 6.38325C10.8901 6.62199 10.7518 6.77696 10.6387 6.85236C10.5466 6.89424 10.4712 6.91937 10.4209 6.92775C10.3707 6.93613 10.3204 6.9445 10.266 6.9445C10.2115 6.9445 10.1445 6.93194 10.0649 6.90262C9.95183 6.82723 9.85969 6.74346 9.79267 6.65131C9.70471 6.52566 9.62513 6.34555 9.54974 6.11937L9.44921 1.84712L9.23979 0.280627C9.14764 0.305758 9.07225 0.393721 9.0178 0.540318C8.99267 0.619899 8.95078 0.741365 8.89633 0.900527C8.89633 1.10157 8.95079 1.62932 9.0555 2.47958C9.10157 2.85654 9.1267 3.17487 9.1267 3.43455V3.85759C9.1267 4.28482 9.10576 4.66178 9.06806 4.9843C9.02618 5.30681 8.93822 5.6 8.79581 5.86807C8.79581 5.43246 8.67016 4.99686 8.41466 4.56126C8.2555 4.28482 7.97068 3.91204 7.56021 3.43455C6.84817 2.58429 6.46702 2.11937 6.41257 2.04817C6.18639 1.73403 6.01466 1.43665 5.90157 1.1644C5.94346 1.14345 5.97696 1.13508 6.00209 1.13508C6.04398 1.13508 6.1445 1.19372 6.30367 1.31518C6.3623 1.36126 6.42513 1.38639 6.48377 1.38639C6.37068 1.17696 6.14869 0.908905 5.82199 0.573826C5.62932 0.372779 5.4911 0.226177 5.41152 0.129842C5.40314 0.175915 5.36963 0.272254 5.31099 0.414662C5.25236 0.55707 5.21885 0.670161 5.21885 0.749742C5.21885 0.841888 5.25236 0.921471 5.31937 0.98011C5.39476 1.22723 5.48691 1.45759 5.59581 1.67539C5.70471 1.88901 5.83456 2.111 5.98115 2.33717C6.10262 2.52566 6.2534 2.73508 6.43351 2.96964C6.57592 3.14974 6.73927 3.35916 6.93194 3.59372C7.12461 3.82827 7.28377 4.02932 7.40942 4.19686C7.58953 4.43142 7.74031 4.64084 7.86178 4.82095C8.02094 5.0555 8.16335 5.28168 8.28063 5.49948C8.39791 5.71728 8.49005 5.93508 8.55707 6.15707C8.15497 6.62618 7.63979 7.04084 7.00733 7.40524C6.62618 7.62723 6.05236 7.89948 5.29005 8.23037C5.83456 8.07121 6.37906 7.90785 6.92775 7.74869C7.45131 7.62304 7.92042 7.37592 8.33927 7.01571C8.75811 6.6555 9.04293 6.22827 9.18953 5.73822C9.20209 5.8178 9.22304 6.01466 9.25654 6.32042C9.28586 6.63037 9.32775 6.85235 9.3822 6.99476C9.51623 7.22932 9.62094 7.38848 9.69215 7.46806C9.83456 7.62723 9.98953 7.711 10.1654 7.711C10.4 7.73194 10.6178 7.63141 10.8188 7.40942C10.9613 7.21675 11.1037 7.0199 11.2503 6.82723C11.2712 6.94032 11.2921 7.05759 11.3173 7.17906C11.3424 7.30052 11.3885 7.40105 11.4639 7.48063C11.5183 7.53927 11.5812 7.58116 11.6565 7.6021C11.7654 7.61466 11.8743 7.62722 11.9874 7.64398L11.8157 8.17592C11.7948 8.28901 11.7864 8.40209 11.7864 8.50681C11.7864 8.72879 11.8325 8.92566 11.9204 9.10576C12.0126 9.28168 12.1508 9.43665 12.3393 9.5623C12.4482 9.64189 12.5822 9.68377 12.7497 9.68377C12.8293 9.6754 12.9131 9.67121 12.9969 9.66283C13.0806 9.65445 13.1644 9.65445 13.244 9.65445C13.5874 9.51204 13.9099 9.36125 14.2199 9.19372C14.5969 8.98429 14.9152 8.77068 15.1832 8.54869C15.5183 8.25969 15.778 7.97487 15.9581 7.69424C16.1717 7.35079 16.2806 7.00315 16.2806 6.64712C16.6408 6.61362 17.0052 6.58011 17.3654 6.5466C17.4325 6.82723 17.5162 7.0576 17.6168 7.22932C17.7508 7.46388 17.9267 7.62304 18.1487 7.711C18.2031 7.72356 18.2408 7.73194 18.2702 7.73194C18.4251 7.73194 18.5592 7.6733 18.6723 7.56021C18.7602 7.40105 18.8482 7.2377 18.9445 7.07854C19.1455 6.71833 19.2461 6.42095 19.2461 6.19477C19.2461 6.0021 19.1874 5.82199 19.0743 5.66283L19.0618 5.65026ZM11.2419 4.48587C11.2503 4.57801 11.2293 4.67016 11.1832 4.75812C11.1372 4.84607 11.066 4.92985 10.9738 5.00943C10.9194 5.0178 10.8733 5.00942 10.8398 4.9801C10.8021 4.95497 10.777 4.92147 10.7602 4.87958C10.7435 4.8377 10.7351 4.78744 10.7351 4.7288C10.7351 4.5822 10.7853 4.41466 10.8859 4.22618C10.9654 4.10053 11.0241 4.00419 11.0576 3.94555C11.0576 3.99162 11.0283 4.08796 10.9738 4.23037C10.9152 4.37278 10.8901 4.47749 10.8901 4.53613C10.8901 4.63665 10.9487 4.71204 11.0618 4.75812C11.0827 4.6911 11.1037 4.63246 11.133 4.58639C11.1581 4.54031 11.2 4.50681 11.2545 4.48587H11.2419ZM7.87435 1.44084C7.80733 1.65026 7.75288 1.80105 7.71518 1.90157C7.64817 2.06074 7.57277 2.20733 7.48482 2.33299C7.57277 2.15288 7.63979 1.97278 7.68586 1.80105C7.73194 1.62513 7.75707 1.44503 7.75707 1.25654C7.75707 1.12251 7.74031 0.992671 7.70681 0.871205C7.6733 0.74555 7.61466 0.632461 7.5267 0.52356C7.56859 0.464921 7.59791 0.418851 7.61885 0.389532C7.63979 0.360213 7.66492 0.343459 7.69843 0.343459C7.77801 0.519375 7.83665 0.661785 7.87435 0.770685C7.91204 0.879586 7.9288 1.00524 7.9288 1.14765C7.9288 1.22723 7.91204 1.32356 7.87853 1.44084H7.87435ZM3.95393 0.657595L3.88272 0.867019C3.88272 0.867019 3.8199 0.85026 3.75288 0.816753C3.68586 0.783245 3.63141 0.766493 3.59372 0.766493C3.53927 0.766493 3.50157 0.808377 3.48482 0.896335C3.45131 0.988481 3.42199 1.15603 3.39267 1.39896C3.36754 1.64189 3.32147 1.81362 3.26283 1.92252C3.20838 1.88063 3.15393 1.80942 3.10366 1.70052C3.02408 1.54136 2.9445 1.37382 2.8733 1.20628C2.85236 1.23979 2.81885 1.25654 2.77277 1.25654C2.69319 1.25654 2.61361 1.22304 2.52984 1.15603C2.49634 1.10995 2.47958 1.06806 2.47958 1.03456C2.47958 0.988482 2.48796 0.94241 2.50052 0.904714C2.51309 0.862829 2.52984 0.825135 2.55079 0.78325C2.57592 0.75812 2.60942 0.728795 2.64293 0.699476C2.67644 0.670156 2.70995 0.653402 2.74346 0.653402C2.78953 0.653402 2.82304 0.682722 2.84398 0.745549C2.96545 0.946596 3.04084 1.08063 3.07435 1.14765C3.14136 1.2733 3.20419 1.4199 3.26702 1.57906C3.3466 1.14346 3.39267 0.908905 3.40942 0.875398C3.45131 0.749743 3.51832 0.628277 3.61047 0.515188C3.68586 0.502622 3.74869 0.506808 3.80314 0.531939C3.85759 0.55707 3.91204 0.598956 3.9623 0.657595H3.95393ZM6.13613 4.37696C6.11518 4.61152 6.01885 4.78744 5.84293 4.9089C5.80105 4.90052 5.76754 4.8754 5.73822 4.83351C5.7089 4.79163 5.68377 4.74555 5.66283 4.69948C5.66283 4.511 5.68796 4.34765 5.73822 4.20524C5.78848 4.06283 5.87225 3.92461 5.99372 3.7822C5.93927 3.93717 5.89319 4.06283 5.85969 4.15917C5.82199 4.2555 5.80524 4.33508 5.80524 4.39372C5.80524 4.49424 5.84712 4.5822 5.9267 4.6534C5.93508 4.64503 5.9644 4.59477 6.01885 4.49425C6.05236 4.43561 6.09424 4.39372 6.14031 4.37278L6.13613 4.37696ZM11.2419 8.18848C11.2628 8.33508 11.1958 8.46073 11.0408 8.56126C10.8984 8.63665 10.7644 8.71204 10.6304 8.79163C10.5843 8.76649 10.5257 8.74555 10.4586 8.73299C10.3916 8.72042 10.333 8.71204 10.2785 8.71204C10.1445 8.71204 10.0063 8.74555 9.86806 8.81257C9.82199 8.83351 9.73822 8.87958 9.61675 8.95498C9.3822 9.08063 9.21466 9.1644 9.11414 9.20629C8.92565 9.28168 8.73717 9.31519 8.55288 9.31519H8.38115C8.56963 9.26911 8.79162 9.18534 9.04293 9.06387C9.14346 9.0178 9.28168 8.9466 9.4534 8.85445C9.62932 8.7623 9.80523 8.67435 9.98115 8.59477C10.1571 8.51518 10.3288 8.45654 10.488 8.42304C10.5634 8.48168 10.601 8.51519 10.6094 8.52356C10.6639 8.55707 10.7099 8.56126 10.7518 8.53194C10.7979 8.45236 10.8356 8.38115 10.8691 8.3267C10.8984 8.26806 10.9403 8.23037 10.9948 8.20943V8.41885C11.0366 8.41047 11.0785 8.37697 11.1288 8.30995C11.1791 8.24294 11.2168 8.20105 11.2461 8.18848H11.2419ZM4.82932 3.57277C4.71623 3.73194 4.62408 3.84922 4.55707 3.92461C4.49005 4 4.42723 4.03351 4.3644 4.03351C4.29738 4.03351 4.23037 3.98325 4.16335 3.88272L3.84084 3.6733C3.77382 3.72775 3.70262 3.80314 3.63141 3.89948C3.55602 3.99581 3.48901 4.08796 3.43037 4.17592C3.33822 4.15497 3.2377 4.12566 3.13298 4.07958C3.02827 4.0377 2.93194 3.99162 2.8356 3.94555C2.92356 3.70262 3.06178 3.49739 3.25864 3.32147C3.42618 3.39686 3.54764 3.44712 3.62722 3.48063C3.70262 3.51414 3.77801 3.55602 3.8534 3.6021L4.3267 3.0911C4.37277 3.11623 4.4733 3.2 4.62827 3.33403C4.69529 3.41362 4.7623 3.4932 4.82932 3.57697V3.57277ZM4.6199 5.00105C4.61152 5.04712 4.60314 5.10157 4.59058 5.15602C4.57801 5.21466 4.53613 5.25236 4.46911 5.2733C4.46911 5.19791 4.41885 5.14346 4.31832 5.10157C4.29738 5.14346 4.25969 5.27749 4.20105 5.50366C4.14241 5.72984 4.06283 5.88063 3.95393 5.94764C3.90785 5.90157 3.85759 5.79686 3.80314 5.6377C3.71518 5.37801 3.58534 5.26073 3.40942 5.29424C3.36754 5.26911 3.35079 5.23142 3.35079 5.18534C3.40524 5.07225 3.43037 4.98848 3.43037 4.93403C3.47225 4.92147 3.50157 4.9089 3.5267 4.90052C3.55183 4.89215 3.57277 4.88377 3.59372 4.88377C3.6356 4.88377 3.66492 4.90052 3.68586 4.93403C3.75288 5.01361 3.81571 5.1267 3.87853 5.26492C3.96649 5.47435 4.01675 5.59162 4.02932 5.61676C4.08377 5.43665 4.12984 5.28168 4.16335 5.16021C4.20105 5.03456 4.26387 4.92566 4.34764 4.83351C4.40209 4.83351 4.44817 4.84607 4.48168 4.87539C4.51937 4.90052 4.56544 4.9466 4.61571 5.00523L4.6199 5.00105ZM6.60942 6.34974C6.60942 6.47539 6.56335 6.60943 6.46702 6.74346C6.42513 6.8021 6.24084 6.99058 5.91414 7.30471C5.70471 7.45969 5.50366 7.60628 5.30262 7.74869C5.06806 7.91623 4.85445 8.05864 4.65759 8.17173C4.74974 7.94555 4.95497 7.71519 5.26911 7.48901C5.71309 7.16649 5.9644 6.97382 6.03141 6.90681C5.97696 6.90681 5.91832 6.90681 5.8555 6.89843C5.79267 6.89005 5.74241 6.89005 5.7089 6.89005C5.33194 6.89005 4.79581 6.97801 4.09215 7.14974C3.59791 7.27121 3.2712 7.34241 3.11623 7.37173C2.95707 7.3843 2.78115 7.39686 2.59267 7.41361C2.40419 7.42618 2.23246 7.43455 2.08168 7.43455C1.64607 7.43455 1.28168 7.38848 0.984293 7.29215C0.615707 7.17068 0.322513 6.96963 0.108901 6.68901C0.0753928 6.62199 0.0502619 6.53403 0.0293194 6.42932C0.00837704 6.32042 0 6.23246 0 6.15707C0 5.89738 0.0753927 5.60838 0.230367 5.29424C0.309948 5.1267 0.464921 4.8754 0.6911 4.54032C0.590576 4.31833 0.540314 4.09634 0.540314 3.86597C0.540314 3.50995 0.645026 3.13299 0.850262 2.73089C0.996859 2.44189 1.20209 2.13613 1.46178 1.81781C1.42827 1.90576 1.3445 2.08168 1.21047 2.34974C1.00942 2.75183 0.908901 3.07435 0.908901 3.31309C0.908901 3.43456 0.925655 3.53927 0.954974 3.63141C0.984293 3.72356 1.03874 3.8199 1.12251 3.9288C1.21047 3.95393 1.28586 3.91624 1.34869 3.80733C1.41152 3.69843 1.47016 3.64817 1.52461 3.65655C1.52461 3.86597 1.48272 4.05026 1.39895 4.2178C1.31518 4.38534 1.18953 4.52356 1.02199 4.62827C0.875393 4.62827 0.779058 4.60314 0.728796 4.55707C0.569634 4.9466 0.481676 5.16859 0.46911 5.21885C0.423037 5.37382 0.397906 5.51204 0.397906 5.64189C0.397906 5.83456 0.456545 6.01047 0.569634 6.16545C0.791623 6.4 1.06387 6.56754 1.39476 6.66806C1.72147 6.76859 2.07749 6.81885 2.45864 6.81885C2.55079 6.81885 2.64293 6.81885 2.73508 6.81466C2.82723 6.81466 2.94869 6.80209 3.10785 6.78534C3.26702 6.76858 3.91623 6.63455 5.06387 6.38743C5.49948 6.29529 5.8555 6.24503 6.12775 6.24503C6.16126 6.23665 6.18639 6.23665 6.19895 6.23665C6.34555 6.23665 6.47958 6.27854 6.60105 6.35812L6.60942 6.34974ZM2.34555 5.12252C2.34555 5.12252 2.29948 5.17278 2.27016 5.23979C2.24084 5.30262 2.20314 5.34032 2.16545 5.35707C2.06492 5.30262 2.01466 5.23142 2.01466 5.14765C2.01466 5.10157 2.0356 5.03455 2.0733 4.9466C2.14869 4.78743 2.1822 4.68692 2.1822 4.64503C2.14031 4.71205 2.0733 4.81675 1.98115 4.95497C1.91414 5.07644 1.88063 5.19372 1.88063 5.30681C1.88063 5.36126 1.88063 5.39896 1.88901 5.42828C1.90157 5.44084 1.93089 5.47854 1.98115 5.53299C2.02723 5.59163 2.0733 5.61676 2.12356 5.61676C2.20314 5.54136 2.26597 5.46597 2.30367 5.38639C2.34555 5.30681 2.35812 5.21885 2.34555 5.1267V5.12252ZM18.199 2.13613L18.1696 2.33717C18.0817 2.27016 17.9979 2.20314 17.9183 2.13613C17.9267 2.12356 17.9518 2.09843 17.9979 2.06492C18.0733 2.05236 18.1403 2.0733 18.199 2.13613ZM18.8942 6.75184C18.8147 6.86074 18.6848 6.92775 18.5131 6.96126C18.3581 6.96126 18.2199 6.89843 18.0942 6.76859C17.9686 6.64293 17.8764 6.50053 17.8178 6.34555C17.9267 6.29948 18.0105 6.26597 18.0733 6.24921C18.1361 6.23246 18.2241 6.22408 18.3288 6.22408C18.5089 6.22408 18.6513 6.27854 18.7518 6.38325C18.844 6.46283 18.8942 6.5843 18.8942 6.74346V6.75184Z" fill="white"/>
</svg>
