<svg width="20" height="8" viewBox="0 0 20 8" fill="none" xmlns="http://www.w3.org/2000/svg">
<path fill-rule="evenodd" clip-rule="evenodd" d="M20 1.72809L19.7079 1.33519L19.6314 1.43602C19.6314 1.70723 19.6627 2.05494 19.7218 2.47218C19.8609 3.41794 19.9305 4.016 19.9305 4.26634C19.9305 4.86787 19.9096 5.33032 19.8644 5.65021C19.7983 6.14395 19.6627 6.5751 19.4541 6.94367C19.5376 6.79416 19.5932 6.62378 19.6245 6.42907C19.6558 6.23783 19.6697 6.02225 19.6697 5.78234C19.6697 5.61544 19.6697 5.44854 19.6627 5.28512C19.6558 5.1217 19.6523 4.9548 19.6453 4.7879L19.235 0.990962C19.235 0.990962 19.2559 0.963144 19.2594 0.945758C19.2663 0.924896 19.2663 0.910991 19.2663 0.90056C19.2663 0.86579 19.2524 0.824063 19.2211 0.768431C19.1898 0.712798 19.1759 0.671073 19.1759 0.643257C19.1759 0.622394 19.1898 0.591103 19.2177 0.552855C19.3115 0.420727 19.4054 0.281642 19.5028 0.14256C19.6523 0.486788 19.7601 0.747566 19.8192 0.917941C19.9374 1.22392 19.993 1.49513 19.993 1.72809H20ZM16.669 0C16.6759 0.0452017 16.6586 0.0869265 16.6238 0.125174C16.589 0.163422 16.5438 0.194718 16.4951 0.215581C15.532 0.566763 14.5723 0.914468 13.6161 1.2587C13.6161 1.20306 13.6509 1.14395 13.7239 1.08484C13.7587 1.05703 13.8213 1.01878 13.9152 0.96662C14.8331 0.643254 15.751 0.319889 16.669 0ZM15.8171 2.22879C15.7893 2.24965 15.758 2.26356 15.7267 2.26356C15.6885 2.26356 15.6398 2.24966 15.5807 2.22532C15.5216 2.20098 15.4868 2.18707 15.4764 2.18707C15.4207 2.18707 15.386 2.23922 15.3686 2.34701C15.3338 2.40264 15.2712 2.43046 15.1773 2.43046C15.1217 2.43046 15.0835 2.43046 15.0591 2.42351C15.0035 2.3783 14.9618 2.3192 14.9339 2.2427C14.9061 2.16621 14.8922 2.09319 14.8922 2.02017C14.8922 1.90195 14.9235 1.75939 14.9826 1.58554C15.0104 1.51252 15.0382 1.4395 15.0661 1.36996C15.073 1.39082 15.073 1.42559 15.073 1.4708C15.073 1.53338 15.0626 1.61683 15.0452 1.72462C15.0243 1.83241 15.0174 1.90195 15.0174 1.92976C15.0174 2.04798 15.0661 2.13839 15.1599 2.20445C15.2921 2.20445 15.3755 2.15577 15.4103 2.05494C15.4103 1.99931 15.4103 1.93672 15.4033 1.87066C15.3964 1.80459 15.3964 1.76634 15.3964 1.76287C15.3964 1.66899 15.4242 1.58554 15.4798 1.51252C15.4903 1.53338 15.4972 1.5612 15.4972 1.58902V1.67247C15.4972 1.80112 15.5077 1.89152 15.525 1.94715C15.5459 2.00278 15.6085 2.0306 15.7128 2.0306C15.7302 2.01322 15.7371 1.98888 15.7371 1.95411C15.7371 1.91934 15.7302 1.87066 15.7163 1.80807C15.7024 1.74548 15.6954 1.70723 15.6954 1.6968C15.6954 1.63422 15.7232 1.59249 15.7789 1.56467C15.7962 1.63074 15.8136 1.70724 15.8275 1.79068C15.8449 1.87413 15.8519 1.94367 15.8519 1.9993V2.13143C15.8345 2.18011 15.8241 2.21488 15.8171 2.23227V2.22879ZM16.7768 2.99722C16.7768 2.99722 16.7177 3.10501 16.6342 3.27191C16.5716 3.39013 16.5125 3.47705 16.4499 3.53964C16.4221 3.46315 16.3282 3.38317 16.1648 3.30668C16.0049 3.23018 15.9214 3.16064 15.9214 3.09805C15.9214 3.04242 15.9562 2.97983 16.0223 2.91377C16.0396 2.90334 16.0675 2.86161 16.1057 2.7886C16.1718 2.6669 16.2309 2.60431 16.2796 2.60431C16.3143 2.60431 16.3561 2.63213 16.4047 2.68776C16.4951 2.75035 16.5577 2.79207 16.596 2.81989C16.6725 2.87552 16.7316 2.93463 16.7698 2.99374L16.7768 2.99722ZM18.2302 3.76565C18.2128 3.67177 18.1433 3.36579 18.0216 2.84771C17.872 2.19054 17.7782 1.68637 17.7364 1.33867L17.7851 1.19611C17.8234 1.20654 17.9033 1.2726 18.0181 1.38735C18.0668 1.43602 18.112 1.46732 18.1502 1.47775C18.1154 1.2726 18.0181 1.02921 17.8512 0.751044C17.6217 0.368569 17.4965 0.14604 17.4687 0.0904067C17.4618 0.100838 17.4235 0.170376 17.3505 0.299027C17.2601 0.455494 17.2184 0.573713 17.2184 0.657162C17.2184 0.747566 17.2601 0.831015 17.3435 0.907511C17.3887 1.27608 17.4583 1.71071 17.5522 2.21836C17.6078 2.51739 17.6912 2.9555 17.806 3.52921C17.9207 4.10292 18.0007 4.52365 18.0529 4.7879C18.0876 5.01739 18.1189 5.2434 18.1537 5.47288C18.1537 5.56328 18.1328 5.63978 18.0911 5.70237C18.0494 5.76495 17.9798 5.81363 17.879 5.84145C17.7051 5.89013 17.5974 5.92142 17.5522 5.93185C17.4131 5.96662 17.2983 5.98053 17.2114 5.98053C17.1175 5.98053 17.0341 5.9701 16.9645 5.94576C16.895 5.9249 16.8324 5.88317 16.7768 5.82754C16.7559 5.78234 16.742 5.73366 16.742 5.67803C16.742 5.63978 16.7559 5.56676 16.7803 5.46245C16.8046 5.35814 16.8115 5.27469 16.8011 5.21906L16.6168 5.20167C16.3282 5.36162 16.0883 5.49027 15.9006 5.58415C15.6224 5.72323 15.3651 5.82754 15.1321 5.90056C14.8088 5.99444 14.5167 6.04312 14.2559 6.04312C13.9951 6.04312 13.7483 6.00139 13.4875 5.91794C13.1815 5.77191 12.9694 5.51809 12.8547 5.14952C12.7886 4.80877 12.7225 4.47149 12.653 4.13074L12.3018 0.299027C12.2357 0.38943 12.1697 0.476358 12.1106 0.566761C12.0341 0.688458 11.9924 0.799726 11.9924 0.90056C11.9924 0.977055 12.0063 1.04659 12.0341 1.10222L12.4026 4.73922C12.5035 5.31641 12.5904 5.69194 12.6599 5.86579C12.8268 6.2726 13.1015 6.52295 13.4875 6.61683C13.6822 6.66203 13.8561 6.68289 14.0125 6.68289C14.1898 6.68289 14.3602 6.66551 14.5202 6.63421C14.6801 6.59944 14.8713 6.54729 15.0869 6.47079C15.3025 6.3943 15.5946 6.26565 15.9631 6.08136C16.1579 5.98053 16.3317 5.8936 16.4882 5.82406C16.516 5.86231 16.5299 5.90056 16.5299 5.94228C16.5229 5.98053 16.5195 6.01878 16.5125 6.05355C16.5056 6.08832 16.5056 6.13004 16.5056 6.17525C16.5056 6.22393 16.5125 6.26912 16.5264 6.30737C16.5403 6.34562 16.5716 6.38734 16.6238 6.43254C16.6412 6.44993 16.7177 6.49513 16.8567 6.56467C16.9332 6.57511 16.9889 6.58206 17.0236 6.58206H17.1245C17.3296 6.58206 17.5139 6.55077 17.6739 6.4847C17.8338 6.42212 17.9833 6.3178 18.1154 6.17872C18.1989 5.97705 18.258 5.77191 18.2893 5.55633C18.3241 5.34075 18.338 5.12518 18.338 4.90264C18.338 4.72531 18.3275 4.54103 18.3102 4.35327C18.2893 4.16551 18.2615 3.96384 18.2232 3.75174L18.2302 3.76565ZM13.9152 3.07372C13.8491 3.3032 13.783 3.47358 13.7204 3.58832C13.6579 3.70306 13.5848 3.79694 13.5083 3.87692C13.6022 3.7274 13.6822 3.5605 13.7448 3.37969C13.8074 3.19889 13.8421 3.02156 13.8421 2.85119C13.8421 2.65647 13.8004 2.48262 13.717 2.3331C13.6718 2.22879 13.6266 2.121 13.5848 2.01669C13.5848 1.96106 13.6127 1.91585 13.6683 1.88456C13.863 2.10014 13.9604 2.37831 13.9604 2.71906C13.9604 2.83032 13.9465 2.94854 13.9186 3.07719L13.9152 3.07372ZM15.6015 3.96732C15.5841 4.01252 15.5668 4.05772 15.5529 4.09945C15.5355 4.14465 15.5077 4.16551 15.4694 4.16551C15.452 4.16551 15.4277 4.15855 15.3929 4.14117C15.2816 4.18637 15.2086 4.32546 15.1773 4.56189C15.1426 4.79833 15.1078 4.95132 15.0695 5.01739C14.9305 4.78443 14.7949 4.55146 14.6592 4.31502L14.6001 4.42281C14.5515 4.40195 14.5097 4.38456 14.475 4.37413C14.4402 4.3637 14.4228 4.33936 14.4159 4.30807C14.4159 4.20723 14.4193 4.13421 14.4298 4.08554C14.4367 4.03686 14.468 3.99861 14.5167 3.96384C14.6558 4.00904 14.7705 4.11336 14.8574 4.28025C14.9235 4.42629 14.993 4.56537 15.0661 4.70445C15.0661 4.6975 15.1008 4.55841 15.1669 4.2872C15.2051 4.11335 15.2677 3.98818 15.3512 3.90473C15.4555 3.90473 15.5389 3.92559 15.6015 3.96384V3.96732ZM11.2865 2.40612C11.2413 2.5 11.21 2.56954 11.1857 2.61474C11.1474 2.69819 11.0953 2.76078 11.0362 2.80598C11.0153 2.77121 10.9388 2.73296 10.8102 2.68428C10.6815 2.63561 10.6293 2.56606 10.6502 2.47218L10.9006 2.0306C11.0049 2.0758 11.0883 2.10709 11.1439 2.13143C11.2483 2.18011 11.3039 2.2427 11.3039 2.31572C11.3039 2.35397 11.2969 2.38526 11.2865 2.40612ZM10.9353 0.445062C10.8345 0.591098 10.6398 0.702368 10.3512 0.785817C9.95132 0.904037 9.71141 0.980531 9.63491 1.01878C8.89082 1.32476 8.14326 1.63074 7.39917 1.93672C7.39917 1.84284 7.43394 1.76287 7.50695 1.70376C7.52434 1.69333 7.67385 1.61336 7.95897 1.46037C8.16412 1.38735 8.53269 1.25522 9.0612 1.0605C9.86787 0.761475 10.4937 0.552853 10.9388 0.441587L10.9353 0.445062ZM9.47497 2.1071C9.4854 2.0619 9.46453 2.02017 9.4089 1.98192C9.35327 1.94368 9.29068 1.9089 9.21766 1.88109C9.14117 1.94367 9.08206 2.02364 9.04381 2.12448C8.99861 2.28095 8.95341 2.43394 8.91168 2.58345C8.87691 2.48957 8.84562 2.39222 8.81085 2.29138C8.73783 2.08623 8.637 1.96454 8.51182 1.93324C8.46314 1.97149 8.42837 2.02017 8.40751 2.0758C8.38665 2.13143 8.37274 2.17664 8.36231 2.20793C8.51878 2.20793 8.63004 2.29833 8.69611 2.47566C8.80042 2.75383 8.85605 2.89639 8.863 2.89986C8.94645 2.80946 9.016 2.64604 9.07163 2.40612C9.1064 2.26008 9.13421 2.16273 9.16203 2.1071L9.30459 2.19054C9.34284 2.21836 9.37413 2.22184 9.39499 2.20445C9.41586 2.18359 9.44367 2.1523 9.47844 2.1071H9.47497ZM7.11405 1.70723L7.01321 1.9089C7.05146 1.79764 7.08275 1.68637 7.11057 1.5751C7.13839 1.46384 7.14882 1.35605 7.14882 1.24827C7.14882 1.03269 7.09666 0.851877 6.98887 0.705841L7.09666 0.55633C7.20097 0.702366 7.25661 0.88665 7.25661 1.11614C7.25661 1.34562 7.20793 1.53686 7.11405 1.70723ZM10.5111 4.72879C10.1704 4.92351 9.83658 5.11475 9.50278 5.30598C9.1064 5.52851 8.74479 5.63978 8.41794 5.63978C8.29625 5.63978 8.1815 5.62935 8.07719 5.60501C7.86161 5.5007 7.69124 5.34075 7.57302 5.12518C7.4548 4.9096 7.39221 4.68011 7.39221 4.42977C7.56606 4.22462 7.80598 4.06815 8.11892 3.96384C8.43185 3.85953 8.75174 3.80389 9.07858 3.80389C9.11683 3.80389 9.17594 3.8039 9.24896 3.80738C9.32198 3.81085 9.42976 3.82128 9.56885 3.84562C9.50626 3.72393 9.39847 3.63004 9.242 3.57093C9.16551 3.54312 9.02295 3.50835 8.8178 3.4701C8.76912 3.45967 8.69263 3.45271 8.59179 3.45271C8.30668 3.45271 8.03894 3.53964 7.78164 3.71001C7.55216 3.86648 7.34701 4.07858 7.16273 4.35327C7.08623 4.4854 7.04451 4.64186 7.04451 4.81919C7.04451 4.99652 7.07928 5.18081 7.1523 5.36509C7.22531 5.55285 7.31572 5.72671 7.42698 5.89361C7.21141 5.93185 7.02364 5.84145 6.86718 5.61892C6.70723 5.27469 6.59597 4.86092 6.54033 4.38456C6.51252 4.13421 6.49166 3.69959 6.47427 3.08415C6.45688 2.46523 6.42907 2.01669 6.39082 1.73158C6.39082 1.27956 6.33171 0.848404 6.21697 0.438112C6.15438 0.472882 6.09875 0.54242 6.05007 0.646732C5.97705 0.796245 5.93533 0.879695 5.9249 0.89708C6.02921 1.55772 6.1057 2.09319 6.1509 2.5C6.21697 3.10153 6.25174 3.64395 6.25174 4.12726C6.25174 4.67316 6.27608 5.07998 6.32823 5.34423C6.41168 5.77886 6.58206 6.13004 6.83588 6.3943C7.02017 6.49513 7.21836 6.54381 7.43741 6.54381C7.65647 6.54381 7.90334 6.48818 8.20584 6.37692C8.26843 6.35605 8.50487 6.25522 8.92211 6.07789C8.97775 6.03269 9.26287 5.88665 9.77399 5.6363C9.98609 5.53199 10.1426 5.43116 10.2399 5.33728L10.5077 4.72879H10.5111ZM11.9124 6.8637C11.8567 6.9541 11.7768 7.03755 11.669 7.11405C11.5855 7.17664 11.4812 7.23575 11.3595 7.29833C11.13 7.39221 10.9075 7.4861 10.685 7.58345C10.7476 7.5 10.831 7.4235 10.9353 7.35049C11.0118 7.30181 11.1231 7.2427 11.2656 7.18011C11.4082 7.11753 11.516 7.06885 11.5855 7.03408C11.7177 6.97149 11.8289 6.91585 11.9124 6.86718V6.8637ZM11.6551 5.35466C11.6551 5.75105 11.516 6.0918 11.2378 6.38039C11.0535 6.57511 10.7441 6.79069 10.3129 7.02365C9.80529 7.30181 9.48887 7.48957 9.36022 7.58345C8.66481 7.71558 7.97288 7.85466 7.28095 7.99374C8.04242 7.69819 8.75174 7.37483 9.4089 7.01669C10.1391 6.62031 10.7997 6.18568 11.3943 5.70584C11.3004 5.42768 11.2065 5.14952 11.1196 4.87135C11.064 4.69402 11.0292 4.55494 11.0188 4.45411C11.0083 4.35327 11.0014 4.26982 11.0014 4.20376C11.0014 4.08554 11.0153 3.97775 11.0431 3.87692C11.0709 3.77608 11.1196 3.67525 11.1857 3.57789C11.3317 3.6822 11.4499 3.81433 11.5438 3.96732C11.6377 4.12031 11.6759 4.26287 11.6516 4.39847C11.6307 4.4089 11.6029 4.39847 11.5751 4.3637C11.5473 4.32893 11.5229 4.31502 11.4986 4.31502C11.4777 4.37761 11.4638 4.4402 11.4638 4.50626C11.4638 4.59666 11.4951 4.73574 11.5542 4.92351C11.6168 5.11127 11.6446 5.2573 11.6446 5.35814L11.6551 5.35466ZM4.9548 1.14743C4.9548 1.21349 4.94437 1.2726 4.92698 1.32128C4.90612 1.36996 4.88526 1.41864 4.85744 1.46384C4.82267 1.48123 4.79485 1.48818 4.76704 1.48818C4.72184 1.48818 4.68359 1.47427 4.64882 1.44298C4.61405 1.41169 4.58623 1.37344 4.56537 1.32128C4.55841 1.28651 4.55841 1.23783 4.55841 1.17177C4.55841 0.938807 4.61405 0.751046 4.72531 0.611964C4.70793 0.684982 4.69402 0.751047 4.68359 0.813634C4.67316 0.876221 4.6662 0.931852 4.6662 0.980531C4.6662 1.05703 4.67663 1.11961 4.69402 1.16134C4.71488 1.20306 4.7427 1.23783 4.78095 1.26565C4.81919 1.28303 4.84701 1.27608 4.8644 1.24827C4.88178 1.22045 4.89917 1.19263 4.92351 1.16481L4.95828 1.14743H4.9548ZM3.34492 0.587623L3.31015 0.771906C3.27191 0.782337 3.21975 0.764952 3.16064 0.723227C3.09805 0.678026 3.0459 0.660641 3.0007 0.674549C2.95202 0.775383 2.91377 0.956189 2.89291 1.21697C2.87204 1.47775 2.82337 1.65508 2.75035 1.75244C2.67385 1.56815 2.61474 1.43255 2.5765 1.34214C2.50348 1.1822 2.43046 1.05007 2.35049 0.949239C2.3331 0.99444 2.29833 1.0153 2.2427 1.0153C2.18707 1.0153 2.14534 1.00139 2.11752 0.973575C2.10709 0.917943 2.10014 0.869266 2.10014 0.824065C2.10014 0.72323 2.12448 0.643254 2.17663 0.580667C2.35396 0.629346 2.5 0.792772 2.61127 1.06398C2.68776 1.25174 2.75035 1.37691 2.79555 1.4395C2.81294 1.26217 2.83032 1.07789 2.85466 0.883174C2.87552 0.691936 2.93115 0.535469 3.02156 0.410295C3.07719 0.410295 3.1363 0.434633 3.20236 0.479835C3.26495 0.528513 3.31363 0.563285 3.3484 0.584147L3.34492 0.587623ZM4.76356 2.54868C4.72531 2.6217 4.67316 2.70167 4.60362 2.79207C4.56537 2.84075 4.4993 2.92073 4.40195 3.02504C4.1968 2.91377 3.99166 2.80251 3.78303 2.69124C3.69263 2.80251 3.62309 2.88248 3.57441 2.93463C3.48401 3.02851 3.40056 3.07719 3.32406 3.07719C3.258 3.07719 3.18846 3.04242 3.11544 2.9694C3.10501 2.95202 3.06328 2.92768 2.99026 2.89291C2.91725 2.85814 2.88248 2.83032 2.88248 2.80251C2.88248 2.76774 2.89638 2.73992 2.9242 2.71558C2.95202 2.69124 2.99374 2.63909 3.04937 2.56259C3.13978 2.44437 3.21627 2.37135 3.28234 2.33658L3.83171 2.60431L4.25591 2.30529L4.75661 2.55563L4.76356 2.54868ZM2.84423 4.39152C2.84423 4.4854 2.82684 4.57232 2.79555 4.64534C2.76078 4.72184 2.70862 4.77747 2.63561 4.81572C2.58693 4.81572 2.54172 4.79486 2.50695 4.75661C2.47218 4.71836 2.43741 4.66968 2.4096 4.61405C2.40264 4.58623 2.40264 4.54451 2.40264 4.48887C2.40264 4.36022 2.44089 4.21766 2.52086 4.05424C2.58693 3.93602 2.63213 3.85257 2.65299 3.80389C2.60431 3.97775 2.55216 4.14812 2.50348 4.32198C2.50348 4.42629 2.54868 4.51321 2.63561 4.57928C2.69124 4.58971 2.73296 4.57233 2.76078 4.52365C2.7886 4.47497 2.81641 4.42976 2.84423 4.38456V4.39152ZM5.60501 5.68498C5.53199 5.67455 5.4694 5.66759 5.41725 5.66759H5.25383C4.92003 5.66759 4.4541 5.72323 3.85257 5.83449C3.41446 5.91794 3.10501 5.97357 2.93115 5.99791C2.7573 6.02225 2.62517 6.03964 2.54172 6.04659C2.45828 6.05355 2.3331 6.0605 2.1662 6.0605C1.86718 6.0605 1.5751 6.01878 1.29694 5.93533C1.01878 5.85188 0.761474 5.71975 0.528512 5.54242C0.396384 5.4242 0.326843 5.27816 0.326843 5.10083C0.326843 4.97218 0.375522 4.80876 0.469402 4.60709C0.518081 4.50278 0.591099 4.3498 0.684979 4.15508C0.71975 4.19333 0.806676 4.21419 0.952712 4.21419C1.07441 4.14117 1.17177 4.01252 1.24478 3.83171C1.28303 3.73088 1.33866 3.57441 1.41168 3.36579C1.36648 3.36579 1.32823 3.40056 1.28999 3.46662C1.25522 3.53268 1.22045 3.57789 1.19263 3.59527C1.16481 3.61614 1.13004 3.62309 1.08484 3.62309C0.99096 3.62309 0.914465 3.57093 0.858832 3.46315C0.824061 3.33449 0.810153 3.2128 0.810153 3.09458C0.810153 2.86162 0.87274 2.59736 0.994437 2.30181C1.0605 2.13491 1.17177 1.88804 1.32823 1.55772C1.04312 2.05146 0.858832 2.40612 0.768428 2.61822C0.591099 3.04242 0.500695 3.44576 0.500695 3.83519C0.511127 3.89082 0.518081 3.92907 0.518081 3.95341C0.518081 4.06468 0.472879 4.1968 0.385953 4.35327C0.163421 4.74965 0.0452017 4.97218 0.0347705 5.02086C0.0347705 5.04868 0.0278164 5.09041 0.0173853 5.14256C0.0069541 5.19472 0 5.27469 0 5.379C0 5.57371 0.0347705 5.75452 0.100835 5.91794C0.166898 6.08136 0.278164 6.21001 0.434631 6.30737C0.664117 6.42559 0.879694 6.50209 1.08832 6.54381C1.29694 6.58554 1.53686 6.6064 1.81154 6.6064C2.7573 6.46732 3.70654 6.32476 4.65577 6.1822C4.6662 6.1822 4.71488 6.17872 4.79833 6.16829C4.88178 6.16134 4.94437 6.15439 4.98957 6.15439C5.10083 6.15439 5.18776 6.19263 5.24687 6.2726C5.17038 6.37344 5.01391 6.5299 4.78095 6.74896C4.41238 7.08971 4.20723 7.3783 4.16203 7.61822C4.54103 7.24965 4.92003 6.88456 5.30598 6.516C5.36161 6.44298 5.42072 6.36996 5.47983 6.28999C5.59805 6.13005 5.65369 5.99096 5.65369 5.87969C5.65369 5.80668 5.63282 5.74061 5.59458 5.67803L5.60501 5.68498Z" fill="white"/>
</svg>
