<svg width="20" height="17" viewBox="0 0 20 17" fill="none" xmlns="http://www.w3.org/2000/svg">
<path fill-rule="evenodd" clip-rule="evenodd" d="M13.1207 0.685871C13.155 0.775034 13.1207 0.864193 13.011 0.960215C12.9081 1.05624 12.8052 1.11798 12.7092 1.15227C12.1811 1.38547 11.4609 1.66667 10.535 2.00961C9.50617 2.3937 8.76543 2.68176 8.32648 2.86695C8.3059 2.79836 8.31962 2.72291 8.36763 2.62689C8.41564 2.53087 8.51166 2.46227 8.65569 2.4074C9.65707 2.04389 10.3978 1.76955 10.8916 1.58436C11.6598 1.29629 12.4005 1.00137 13.1139 0.692731L13.1207 0.685871ZM12.6612 3.71742C12.6063 3.738 12.5652 3.79286 12.5377 3.87517C12.5103 3.95747 12.4623 4.00549 12.4005 4.01235C12.2497 3.90261 12.1674 3.76543 12.1674 3.60082C12.1674 3.51166 12.1879 3.3882 12.2359 3.22359C12.2771 3.05898 12.3045 2.93553 12.3045 2.86008C12.085 3.13443 11.9753 3.45679 11.9753 3.83402C11.9753 3.97805 11.989 4.08094 12.0096 4.14952C12.0508 4.21811 12.1056 4.27983 12.1605 4.34842C12.2154 4.41701 12.284 4.43073 12.3594 4.39644C12.4829 4.32785 12.5652 4.23868 12.6063 4.12208C12.6475 4.00548 12.6749 3.87517 12.6749 3.71742H12.6612ZM7.31139 1.44719C7.34568 1.5775 7.3251 1.72154 7.26337 1.88615C7.19479 2.0439 7.09877 2.16736 6.96845 2.25652C6.87929 2.2771 6.8107 2.25652 6.75583 2.20851C6.70096 2.15364 6.65295 2.08505 6.60494 1.99589C6.60494 1.77641 6.63237 1.57065 6.6941 1.38546C6.75583 1.20028 6.84499 0.994516 6.96845 0.775038C6.96845 0.843625 6.94102 0.967084 6.893 1.15227C6.84499 1.33745 6.81756 1.46776 6.81756 1.55006C6.81756 1.64609 6.85185 1.74897 6.91358 1.84499C7.02332 1.85871 7.11934 1.78327 7.19479 1.63238C7.23594 1.53635 7.27709 1.47462 7.31139 1.45404V1.44719ZM20 9.06722C19.9451 9.0535 19.8217 9.03978 19.6365 9.0192C19.4513 8.99862 19.321 8.95747 19.2387 8.9026C19.2387 8.28532 19.0878 6.90673 18.7929 4.75309C18.6626 3.79973 18.594 2.98354 18.594 2.29767C18.6283 2.31825 18.6763 2.37998 18.7449 2.48972C18.8134 2.5926 18.882 2.65432 18.9575 2.68176C18.8066 1.82442 18.5597 1.03567 18.2167 0.308645C18.0521 0.569276 17.8944 0.836767 17.7366 1.0974C17.7366 1.77641 17.8121 2.59945 17.9698 3.55967C18.1207 4.51989 18.2785 5.4664 18.4294 6.39232C18.5802 7.31825 18.6626 8.155 18.6626 8.9026C18.0933 8.84773 17.5995 8.77915 17.1811 8.70371C16.5981 8.59397 15.823 8.40193 14.8628 8.12758C14.9931 7.81893 15.0823 7.54458 15.1372 7.29767C15.192 7.05075 15.2126 6.75583 15.2126 6.41975C15.2126 6.03567 15.1783 5.64472 15.1166 5.25377C15.096 5.05487 15.0069 4.5679 14.856 3.78601C14.7462 3.21674 14.6776 2.72977 14.6433 2.33882C14.6845 2.1605 14.7325 2.07819 14.7737 2.07819C14.7942 2.07819 14.8697 2.15364 14.9863 2.29767C15.1029 2.44171 15.2195 2.48971 15.3155 2.43484C15.2606 2.25652 15.096 1.85871 14.8217 1.23457C14.6228 0.775036 14.4787 0.363512 14.3759 0C14.1015 0.294925 13.9163 0.631006 13.8134 1.00138C13.8546 1.47463 14.0398 2.53772 14.3553 4.19753C14.5953 5.45953 14.7188 6.52263 14.7188 7.39369C14.3347 7.51715 13.9575 7.58574 13.594 7.61317C13.2236 7.64061 12.7572 7.65432 12.1879 7.65432H11.8244C11.6804 7.94925 11.5981 8.13443 11.5775 8.19616C11.5089 8.38134 11.4815 8.56653 11.4815 8.738C12.0645 8.738 12.7298 8.82031 13.4705 8.98491C13.8957 9.07408 14.5405 9.22497 15.3978 9.44445C14.8285 9.6845 14.2524 9.90398 13.6763 10.1029C13.1001 10.3018 12.4623 10.5007 11.7558 10.7133C10.6036 11.0082 9.86283 11.1934 9.53361 11.2551C8.68999 11.4198 7.90809 11.5021 7.19479 11.5021C6.63237 11.5021 6.09054 11.4403 5.55556 11.31C5.02058 11.1866 4.54733 10.9877 4.12894 10.727C3.8203 10.5281 3.6214 10.3086 3.51852 10.0617C3.41564 9.81481 3.36763 9.51303 3.36763 9.16324C3.36763 9.06722 3.36763 8.90947 3.38134 8.69685C3.39506 8.48423 3.39506 8.31962 3.39506 8.20988C3.25103 8.3059 3.13443 8.57339 3.03155 9.00549C2.93553 9.43759 2.88066 9.82854 2.88066 10.1852C2.88066 10.6036 3.03155 11.0082 3.34019 11.3923C3.64883 11.7833 4.0192 12.0439 4.4513 12.1811C4.8834 12.3182 5.29493 12.4143 5.68587 12.476C6.07682 12.5377 6.50206 12.5652 6.96159 12.5652C7.38683 12.5652 7.83265 12.5377 8.29218 12.4829C8.75171 12.428 9.24554 12.3388 9.7668 12.2085C10.2881 12.0851 10.9054 11.9067 11.6187 11.6872C12.0439 11.5432 12.476 11.3992 12.9012 11.262C13.7449 10.9739 14.465 10.7545 15.0549 10.6036C15.7682 10.4047 16.3923 10.2606 16.9342 10.1577C17.4691 10.0617 18.0453 10.0069 18.6488 10.0069C18.7174 10.1372 18.7449 10.2675 18.7449 10.4047C18.7449 10.5281 18.6968 10.7407 18.6077 11.0494C18.5117 11.358 18.4705 11.5912 18.4705 11.7558C18.6488 11.5501 18.786 11.3032 18.882 11.0288C18.9506 10.8436 19.0123 10.5693 19.0809 10.2058C19.0947 10.1097 19.1495 10.0549 19.2455 10.0549C19.3141 10.0549 19.417 10.0686 19.561 10.1029C19.6914 9.97942 19.7942 9.82853 19.856 9.64335C19.9246 9.45816 19.9657 9.25926 19.9863 9.0535L20 9.06722ZM10.8779 5.06859C10.8642 5.17833 10.823 5.28806 10.7476 5.3978C10.7064 5.41152 10.6241 5.38409 10.5144 5.32922C10.4047 5.27435 10.3361 5.24691 10.3155 5.24691C10.2606 5.24691 10.2195 5.28807 10.1989 5.37037C10.1783 5.45268 10.1509 5.68588 10.1235 6.06996C10.096 6.45405 10.0206 6.72154 9.90398 6.87929C9.79424 6.80384 9.66392 6.5775 9.51989 6.21399C9.369 5.84362 9.15638 5.66529 8.86831 5.66529C8.74486 5.5967 8.68999 5.5144 8.68999 5.41838C8.68999 5.36351 8.7037 5.30178 8.738 5.22633C8.77229 5.15775 8.81344 5.07545 8.86831 4.98629C9.12209 4.98629 9.33471 5.13718 9.51303 5.44582C9.64335 5.70645 9.77366 5.97393 9.91084 6.23457C9.96571 5.81618 10.0069 5.56242 10.0274 5.48011C10.1029 5.19205 10.2332 4.97256 10.4047 4.82167C10.5144 4.86282 10.6104 4.90398 10.6859 4.93827C10.7613 4.97256 10.8299 5.01372 10.8848 5.06859H10.8779ZM18.0521 12.7366C17.7778 13.107 17.38 13.3745 16.8519 13.5254C16.4678 13.6351 15.9534 13.69 15.3018 13.69C15.2126 13.6557 15.1509 13.6283 15.1029 13.6077C14.9726 13.5391 14.8903 13.4499 14.856 13.3265C14.856 13.1207 14.952 12.915 15.1509 12.7161C15.2812 12.572 15.4733 12.428 15.727 12.2702C15.6859 12.2016 15.6173 12.1605 15.5213 12.1399C15.4252 12.1193 15.3635 12.1056 15.3292 12.1056C15.2195 12.2154 15.1303 12.2565 15.0686 12.2359C15.1029 12.1399 15.1646 12.0439 15.2469 11.9547C15.3361 11.8656 15.4252 11.8038 15.5075 11.7558C15.6036 11.7558 15.727 11.7901 15.8779 11.8656C16.0288 11.9342 16.1454 11.9753 16.2346 11.989C16.2551 12.1742 16.0905 12.3731 15.7407 12.5926C15.3909 12.8052 15.2126 12.9492 15.2126 13.0316C15.2126 13.1207 15.3361 13.2167 15.5761 13.3265C15.6516 13.3402 15.7613 13.3402 15.9054 13.3402C16.2757 13.3402 16.6392 13.2853 16.989 13.1824C17.3388 13.0796 17.6886 12.9287 18.0453 12.7298L18.0521 12.7366ZM5.21262 0.871059C5.25377 1.00137 5.28121 1.15912 5.28121 1.33059C5.28121 1.63923 5.18519 1.86557 4.98628 2.02332H4.73937C4.65021 2.02332 4.58848 1.99589 4.56104 1.94102C4.41701 2.17421 4.24554 2.30453 4.03292 2.33882C3.79287 2.30453 3.63512 2.18107 3.57339 1.96159C3.58711 1.92044 3.61454 1.74211 3.65569 1.43347C3.69685 1.12483 3.77915 0.905353 3.90261 0.775038C3.92318 0.850483 3.91632 0.987651 3.86831 1.18655C3.82716 1.38546 3.79973 1.50205 3.79973 1.55006C3.79973 1.74897 3.89575 1.87928 4.09465 1.94787C4.27984 1.94787 4.41015 1.845 4.47188 1.63238C4.4856 1.57751 4.4856 1.51578 4.47874 1.44033C4.47874 1.37175 4.47188 1.2963 4.47188 1.22085C4.47188 1.06996 4.52675 0.960225 4.63649 0.905355V1.36489C4.63649 1.54321 4.71193 1.62551 4.86968 1.62551C4.97942 1.64609 5.06173 1.62551 5.1166 1.54321C5.09602 1.36488 5.0823 1.23457 5.0823 1.1454C5.0823 1.01509 5.12346 0.919063 5.21262 0.864194V0.871059ZM9.93827 8.7723C9.95885 8.81345 9.96571 8.88889 9.95199 8.98491C9.93827 9.08094 9.9177 9.17009 9.8834 9.24554C9.75309 9.41015 9.62277 9.45816 9.4856 9.39643C9.35528 9.19067 9.28669 8.95062 9.28669 8.68999C9.28669 8.47051 9.32785 8.25103 9.40329 8.02469C9.47874 7.79835 9.58162 7.56516 9.71879 7.32511C9.70508 7.36626 9.65021 7.61317 9.55418 8.05213C9.51303 8.23732 9.4856 8.3882 9.4856 8.49794C9.4856 8.7037 9.54733 8.88889 9.66392 9.03979C9.75309 9.03979 9.84225 8.95062 9.92455 8.77915L9.93827 8.7723ZM6.8107 8.80658C6.8107 8.97119 6.79012 9.10837 6.75583 9.21811C6.71468 9.32785 6.64609 9.42387 6.55007 9.51303C6.42661 9.51303 6.33745 9.47188 6.26886 9.39643C6.20028 9.32099 6.14541 9.21811 6.09054 9.08094C6.09054 8.58711 6.20713 8.12757 6.43347 7.69547C6.43347 7.77092 6.41975 7.87381 6.38546 8.01098C6.31001 8.31962 6.26886 8.51852 6.26886 8.6214C6.26886 8.8546 6.36488 9.0192 6.55007 9.12894C6.60494 9.10837 6.65295 9.04664 6.70096 8.95747C6.74211 8.86145 6.78327 8.81344 6.81756 8.79973L6.8107 8.80658ZM10.583 14.8285C9.78052 15.1989 9.06722 15.5007 8.44307 15.7339C7.6406 16.0219 6.85871 16.2209 6.09054 16.3443C5.83676 16.3786 5.59671 16.406 5.36351 16.4266C5.13032 16.4472 4.90398 16.4609 4.67078 16.4609C4.08093 16.4609 3.51166 16.3923 2.97668 16.2551C2.4417 16.118 1.9273 15.8985 1.44719 15.5967C0.967079 15.2949 0.603567 14.9108 0.363512 14.4376C0.123457 13.9643 0 13.4568 0 12.9081C0 12.7572 3.14273e-07 12.6338 0.0137177 12.5446C0.0274352 12.4554 0.0480115 12.3114 0.0823051 12.1193C0.281208 11.3306 0.521262 10.6447 0.809328 10.0617C1.13855 9.369 1.56379 8.74486 2.07819 8.18245C1.98217 8.07271 1.5775 7.8395 0.877915 7.47599C0.349795 7.20164 0.089164 6.86557 0.089164 6.47462C0.089164 6.43347 0.102881 6.33059 0.123457 6.17969C0.253772 5.81618 0.384088 5.45268 0.521262 5.09603C0.720165 4.69136 1.04938 4.4513 1.51578 4.369C1.98217 4.29355 2.46228 4.23182 2.95611 4.19067C3.44993 4.14952 3.99177 4.12208 4.58848 4.12208C5.65158 4.12208 6.71468 4.21125 7.76406 4.38272C7.91495 4.4513 7.99726 4.5679 7.99726 4.74623C7.99726 4.78052 7.98354 4.82853 7.96296 4.89712C7.83265 5.39095 7.46914 5.76818 6.87929 6.03567C6.37174 6.25515 5.87106 6.47462 5.36351 6.6941C4.52675 7.22908 3.7037 7.77092 2.88066 8.3059L2.72977 8.73114L2.53086 8.56653C2.18793 8.80659 1.89986 9.06035 1.65295 9.32098C1.40604 9.58162 1.19342 9.87654 1.02195 10.192C0.843621 10.5075 0.720165 10.8505 0.63786 11.2209C0.555556 11.5912 0.514403 11.989 0.514403 12.4143C0.514403 12.8395 0.658437 13.2716 0.939644 13.6625C1.19342 14.0261 1.53635 14.3347 1.97531 14.6022C2.52401 14.9726 3.19616 15.2263 3.98491 15.3567C4.51989 15.4458 5.26063 15.487 6.19342 15.487C6.78327 15.487 7.53772 15.3978 8.44993 15.2263C9.71193 14.9863 10.4321 14.856 10.6036 14.8285H10.583ZM3.90261 13.1481L3.39506 13.8546C3.05213 13.7311 2.75034 13.5597 2.48971 13.3265L3.06584 12.4074C3.25103 12.5171 3.44993 12.6269 3.66941 12.7366C3.88203 12.8464 3.96434 12.9835 3.90947 13.1481H3.90261ZM6.48834 5.29493C5.75446 5.67901 5.1166 6.0288 4.58162 6.35116C3.88889 6.75583 3.27846 7.16049 2.7572 7.55144C2.63375 7.29081 2.17421 6.92043 1.37174 6.44718C1.02195 6.24142 0.795611 6.00823 0.699589 5.75446C1.20713 5.5487 1.70096 5.41153 2.19479 5.34294C2.68862 5.27435 3.3059 5.24691 4.03978 5.24691C4.0535 5.24691 4.369 5.25377 4.98628 5.27435C5.60357 5.28807 6.11111 5.30178 6.4952 5.30178L6.48834 5.29493Z" fill="white"/>
</svg>
