<svg width="20" height="10" viewBox="0 0 20 10" fill="none" xmlns="http://www.w3.org/2000/svg">
<path fill-rule="evenodd" clip-rule="evenodd" d="M14.8287 0.207685C14.7715 0.306335 14.7352 0.368639 14.7144 0.394599C14.6573 0.462097 14.595 0.503634 14.5171 0.508826L10.1661 1.973C10.1921 1.78608 10.3011 1.66667 10.4881 1.61994C11.054 1.4486 11.5992 1.27207 12.1184 1.10073C13.7747 0.555555 14.6781 0.254414 14.8287 0.207685ZM13.8629 2.77258L13.8214 3.00104C13.785 3.00623 13.7435 3.00104 13.6968 2.99065C13.5774 2.95431 13.5151 2.93873 13.4995 2.93873C13.4579 2.93873 13.4268 2.94392 13.406 2.9595C13.3385 3.06334 13.2918 3.23468 13.2658 3.47352C13.2399 3.71236 13.2035 3.8837 13.1568 3.98754C13.0997 3.93043 12.9958 3.76428 12.8453 3.4891C12.7674 3.34891 12.6947 3.24507 12.6272 3.16718C12.6272 3.2243 12.6012 3.24507 12.5493 3.22949C12.4974 3.21392 12.4455 3.20353 12.3988 3.18795C12.3364 3.15161 12.3053 3.11007 12.3053 3.06334C12.3624 2.93354 12.3884 2.83489 12.3884 2.77258C12.4247 2.70509 12.4714 2.66874 12.5337 2.66874C12.5701 2.66874 12.5961 2.68432 12.6168 2.72066C12.7259 2.81931 12.8297 2.95431 12.918 3.13603C13.0582 3.41122 13.136 3.56698 13.1568 3.59294C13.1983 3.38525 13.2399 3.17238 13.2814 2.9595C13.3281 2.81412 13.4008 2.70509 13.4995 2.62721C13.567 2.60644 13.6345 2.61682 13.6916 2.65836C13.7487 2.6999 13.8058 2.73624 13.8629 2.77258ZM20 2.1703C19.7352 1.4486 19.4756 0.726895 19.2108 0C19.1018 0.0623053 19.0135 0.166147 18.9512 0.311526C18.9045 0.451713 18.8577 0.586709 18.8162 0.716511C18.92 1.55244 19.0291 2.42471 19.1381 3.32814C19.2471 4.23157 19.3043 5.03115 19.3043 5.73209C18.8474 5.73209 18.2503 5.63344 17.5078 5.44133C16.9626 5.29595 16.6096 5.20768 16.4486 5.17134C16.5265 4.96365 16.5628 4.73001 16.5628 4.4756C16.4174 3.76947 16.2773 3.06334 16.1371 2.35722C16.1319 2.31568 16.1059 2.23261 16.0696 2.108C16.0332 1.98339 16.0125 1.88993 16.0125 1.82762C16.0125 1.74455 16.0384 1.66667 16.0852 1.59917L16.5317 2.04569C16.4538 1.71339 16.3396 1.37072 16.189 1.01765C16.0384 0.664589 15.8619 0.327103 15.6698 0C15.5711 0.0778816 15.4933 0.176531 15.4361 0.29595C15.379 0.415368 15.3375 0.555556 15.3167 0.716511C15.3531 0.929388 15.54 1.80166 15.8878 3.32295C16.0125 3.8837 16.1111 4.39772 16.1786 4.85981C15.8619 4.89616 15.6075 4.91692 15.4206 4.92731C15.2336 4.93769 14.9221 4.94288 14.486 4.94288C14.3977 5.0623 14.325 5.18692 14.2731 5.3271C14.2212 5.46729 14.1952 5.60228 14.1952 5.73209C14.6469 5.73209 15.0675 5.76324 15.4621 5.83074C15.8567 5.89824 16.2669 5.99689 16.6874 6.12669C16.2721 6.3188 15.9086 6.47456 15.5971 6.59398C15.1973 6.74455 14.7975 6.87435 14.4081 6.98338C14.0187 7.09242 13.6345 7.1703 13.2606 7.22741C12.8868 7.28453 12.4766 7.31049 12.0249 7.31049C11.4434 7.31049 10.9657 7.15472 10.5919 6.8432C10.3011 6.59917 10.0415 6.22015 9.81308 5.70094C9.63136 5.22845 9.45483 4.76116 9.28349 4.28868C9.07061 3.72793 8.84216 3.30737 8.60852 3.02181C8.50467 3.18276 8.45275 3.3541 8.45275 3.54102C8.45275 3.6812 8.47871 3.8162 8.52544 3.95119C8.57217 4.08619 8.64486 4.23676 8.73832 4.40291C8.83178 4.56906 8.93043 4.7352 9.03427 4.90135C9.23676 5.23884 9.35099 5.5296 9.37695 5.77362C9.15369 6.30841 8.77466 6.73416 8.23468 7.05088C7.77259 7.32606 7.22741 7.5026 6.60436 7.57009C6.44341 7.47144 6.36552 7.33645 6.36552 7.15472C6.4486 6.82762 6.53167 6.50571 6.61475 6.17861H6.55244C6.42264 6.41225 6.3188 6.64071 6.2513 6.86397C6.1838 7.08723 6.14746 7.31568 6.14746 7.55971C6.14746 7.83489 6.20457 8.0893 6.32399 8.31775C6.42783 8.36448 6.55244 8.39044 6.69782 8.39044C6.80685 8.39044 6.9055 8.39044 6.98339 8.37487C7.06127 8.36448 7.1703 8.33853 7.3001 8.29699C7.92316 8.04258 8.39564 7.77259 8.72274 7.4974C9.20042 7.09761 9.43925 6.63032 9.43925 6.10592C9.54829 6.34995 9.66251 6.58878 9.78193 6.82243C9.92731 7.11319 10.0883 7.33645 10.2596 7.48702C10.4829 7.72066 10.7477 7.88681 11.0592 7.98546C11.3707 8.08411 11.7186 8.13084 12.0976 8.13084C12.3105 8.13084 12.5078 8.12046 12.6791 8.10488C12.8505 8.0893 13.0685 8.05815 13.3333 8.01661C13.7227 7.95431 14.0862 7.86604 14.4237 7.75701C14.4808 7.73624 15.0415 7.51298 16.1163 7.08203C16.5888 6.89512 17.0613 6.74974 17.5441 6.65109C18.027 6.55244 18.5306 6.50052 19.055 6.50052C19.0914 6.46417 19.1277 6.39668 19.1745 6.28764C19.2212 6.17861 19.2783 6.1215 19.3458 6.10592C19.3458 6.13188 19.351 6.18899 19.3666 6.27207V6.5109C19.3614 6.67705 19.3562 6.83801 19.3562 6.99896V7.46625C19.3562 7.71028 19.3614 7.84008 19.3769 7.86085C19.4756 7.81931 19.5483 7.70509 19.595 7.51817C19.6158 7.45068 19.6469 7.27414 19.6885 6.98858C19.73 6.70301 19.7508 6.3811 19.7508 6.01246C19.7508 5.55036 19.6937 4.87539 19.5846 3.99792C19.4756 3.12046 19.4185 2.46106 19.4185 2.02492C19.4029 1.94704 19.4185 1.87435 19.4444 1.80685C19.4756 1.73936 19.5171 1.67705 19.5639 1.61994C19.6054 1.67705 19.6521 1.74974 19.7092 1.84839C19.7975 2.01454 19.8962 2.12357 20 2.1703ZM18.1412 8.6189C18.001 8.84216 17.7934 9.01869 17.5078 9.14849C17.2741 9.25753 16.999 9.3406 16.6874 9.38733C16.5888 9.36656 16.4953 9.34579 16.3967 9.32502C16.2876 9.28868 16.215 9.22637 16.1786 9.13811C16.1994 8.98754 16.2721 8.84216 16.3967 8.70197C16.4953 8.59294 16.6251 8.4839 16.7913 8.38006C16.729 8.3541 16.6822 8.33333 16.6563 8.31775C16.568 8.28141 16.4694 8.26583 16.3655 8.26583C16.3448 8.2243 16.3448 8.18795 16.3655 8.16199C16.4538 8.09969 16.5109 8.05296 16.5317 8.01661C16.6147 8.01661 16.703 8.03219 16.7965 8.06854C16.8899 8.10488 16.9626 8.13084 17.0197 8.15161C17.0561 8.29179 16.9626 8.43198 16.7497 8.58255C16.5369 8.73312 16.4278 8.83178 16.4278 8.88889C16.4278 8.95119 16.4953 9.01869 16.6251 9.08619C16.6719 9.09138 16.7445 9.09657 16.8328 9.09657C17.0561 9.09657 17.2793 9.05503 17.5026 8.96677C17.7259 8.8785 17.9387 8.76428 18.1412 8.6189ZM11.433 4.17446C11.433 4.32503 11.4278 4.43925 11.4123 4.51194C11.3967 4.58463 11.3551 4.64693 11.2773 4.70405C11.1942 4.70405 11.1215 4.6729 11.0592 4.61059C10.9969 4.54829 10.9657 4.48079 10.9657 4.40291C10.9657 4.26272 11.0021 4.10176 11.0748 3.90966C11.1475 3.71755 11.189 3.61371 11.1942 3.59294C11.215 3.65005 11.2098 3.72274 11.1838 3.82139C11.1578 3.92004 11.1267 4.02389 11.1007 4.1433C11.1007 4.25234 11.1578 4.3406 11.2669 4.40291C11.3032 4.39772 11.324 4.35618 11.3396 4.28868C11.3551 4.22118 11.3863 4.17965 11.433 4.17446ZM7.45587 1.42264C7.4974 1.46417 7.4974 1.52129 7.45587 1.59917C7.41952 1.67705 7.38837 1.73936 7.3676 1.79128C7.34683 1.8432 7.31568 1.87954 7.26895 1.90031C7.22222 1.92108 7.17549 1.91589 7.12876 1.88993C7.06646 1.78608 7.03531 1.65628 7.03531 1.50571C7.03531 1.3811 7.07684 1.19938 7.15473 0.965732C7.23261 0.732087 7.27934 0.586709 7.29491 0.53998C7.25337 0.784009 7.21703 1.02284 7.18069 1.25649C7.18069 1.42264 7.22742 1.53686 7.32607 1.59917L7.45068 1.42264H7.45587ZM6.02285 0.353063C6.00208 0.430945 5.9865 0.493251 5.97092 0.53998C5.95535 0.586709 5.919 0.591901 5.8567 0.550364C5.79439 0.514019 5.74247 0.49325 5.70613 0.488057C5.66978 0.482865 5.63344 0.488058 5.59709 0.508826C5.51402 0.617861 5.4621 0.809969 5.44133 1.08515C5.42056 1.36033 5.37902 1.55244 5.31672 1.67186C5.23364 1.60436 5.15057 1.45898 5.0675 1.24091C4.98442 1.02284 4.90654 0.872274 4.82866 0.789201C4.83385 0.877466 4.8027 0.924195 4.72482 0.924195C4.68847 0.924195 4.64694 0.919002 4.58982 0.903426C4.52233 0.861889 4.48598 0.804776 4.48598 0.737278C4.48598 0.690549 4.50675 0.61786 4.54309 0.524402C4.57944 0.430944 4.6054 0.373832 4.61059 0.353063L4.72482 0.249221C4.83385 0.332295 4.92731 0.441328 5.00519 0.571131C5.10903 0.794392 5.21288 1.01246 5.31672 1.22534C5.35306 0.950156 5.37902 0.763239 5.39979 0.674974C5.44652 0.472481 5.53998 0.316719 5.66978 0.207685C5.83074 0.17134 5.94496 0.223261 6.02285 0.353063ZM7.35203 3.4891C7.37799 3.51506 7.37799 3.56179 7.35203 3.6189C7.32087 3.67601 7.3053 3.72274 7.3053 3.7487C7.08204 3.70717 6.96262 3.85774 6.93666 4.20561C6.9107 4.55348 6.86397 4.75597 6.78609 4.81827C6.76012 4.78193 6.69782 4.65732 6.59917 4.44444C6.53167 4.28349 6.45379 4.2108 6.37072 4.21599H6.15265C6.07477 4.20042 6.02285 4.16407 5.99688 4.10177C6.01246 4.0135 6.02804 3.91485 6.04361 3.8162C6.05919 3.71755 6.10592 3.63967 6.1838 3.59294C6.34995 3.61371 6.47975 3.71755 6.5784 3.90446C6.65628 4.06542 6.72897 4.22118 6.80685 4.37175C6.82762 4.20561 6.85358 4.03427 6.88474 3.85774C6.91589 3.6812 6.98339 3.53583 7.08723 3.41641C7.17549 3.41122 7.26895 3.43198 7.35722 3.4891H7.35203ZM9.62617 8.77466C9.62617 8.96677 9.57425 9.1433 9.47041 9.30426C9.39252 9.33022 9.32503 9.33022 9.25753 9.29387C9.19003 9.25753 9.1433 9.20561 9.11734 9.13811C9.11734 8.95638 9.16407 8.74351 9.25234 8.49429C9.38214 8.12565 9.45483 7.91796 9.47041 7.87123C9.4756 7.89719 9.48079 7.93873 9.48079 7.98546C9.48079 8.06853 9.44964 8.19834 9.38733 8.36968C9.32503 8.54102 9.29387 8.66563 9.29387 8.74351C9.29387 8.86812 9.3406 8.96677 9.43925 9.03427C9.4756 9.01869 9.50675 8.97715 9.5379 8.90447C9.56906 8.83178 9.60021 8.79024 9.62617 8.77466ZM0.903427 1.54725C0.924195 1.77051 0.872274 1.93666 0.747663 2.04569C0.680166 2.04569 0.612669 2.02492 0.555555 1.98858C0.498442 1.95223 0.46729 1.89512 0.46729 1.82762C0.462097 1.78089 0.456906 1.7082 0.456906 1.61994C0.456906 1.46937 0.477674 1.3136 0.524403 1.15265C0.571132 0.991693 0.633437 0.841121 0.716511 0.695742C0.716511 0.773624 0.69055 0.893042 0.638629 1.06438C0.586708 1.23572 0.560748 1.35514 0.560748 1.42264C0.560748 1.54725 0.607476 1.65628 0.706127 1.74455C0.768432 1.74455 0.820353 1.68744 0.86189 1.5784L0.903427 1.54725ZM5.45171 7.3001C5.41018 7.49221 5.32191 7.66874 5.18172 7.8297C5.04154 7.99065 4.87539 8.0893 4.68328 8.13084C4.64175 8.14641 4.58463 8.15161 4.51713 8.15161C4.37176 8.15161 4.22118 8.0893 4.07061 7.96469C3.96158 7.87643 3.83697 7.74143 3.70717 7.57009C3.63967 7.41952 3.57736 7.26376 3.52025 7.1028C3.4216 6.83801 3.32814 6.5784 3.23988 6.3136C3.23988 6.73416 3.03219 7.12357 2.61682 7.47664C2.34683 7.70509 1.95223 7.93873 1.43302 8.18276C1.3136 8.21911 1.17861 8.25026 1.01765 8.2866C0.856698 8.32295 0.732087 8.33852 0.633437 8.33852C0.446521 8.33852 0.290758 8.29179 0.166147 8.19314C0.109034 8.11007 0.0674974 8.01142 0.0415368 7.8972C0.0155763 7.78297 0 7.67913 0 7.58048C0 7.35202 0.0623051 7.07684 0.186916 6.74974C0.275182 6.53686 0.337487 6.3811 0.373832 6.29284C0.373832 6.37072 0.358256 6.45898 0.332295 6.56282C0.254413 6.84839 0.218069 7.02492 0.218069 7.1028C0.218069 7.20145 0.238837 7.28453 0.280374 7.35722C0.321911 7.4299 0.389408 7.48702 0.488058 7.52856C1.04361 7.52856 1.55763 7.38318 2.0405 7.09761C2.52336 6.81204 2.88681 6.42264 3.13603 5.93977C3.13603 5.69055 3.04258 5.3946 2.85566 5.05711C2.75701 4.89096 2.66355 4.72482 2.5649 4.55867C2.48183 4.38733 2.41952 4.24195 2.37799 4.12772C2.33645 4.0135 2.31568 3.88889 2.31568 3.7487C2.31568 3.56179 2.37279 3.37487 2.49221 3.18795C2.73624 3.54621 2.95431 4.0135 3.1568 4.58982C3.63967 6.00207 3.94081 6.81204 4.06023 7.01973C4.23157 7.21184 4.42887 7.31049 4.65213 7.31049C4.71443 7.31049 4.76116 7.31049 4.78712 7.3001C4.85462 7.27414 4.92731 7.2378 5 7.20145C5.07269 7.16511 5.1298 7.11838 5.17134 7.06127C5.04673 6.81204 4.92731 6.56282 4.80789 6.3136L4.98442 5.66978C5.14538 5.77881 5.26999 5.94496 5.36345 6.16303C5.45691 6.3811 5.50363 6.61475 5.50363 6.86397C5.50363 6.99377 5.48806 7.13915 5.45171 7.3001ZM5.75286 9.10696L5.37902 9.68847C5.12461 9.54309 4.86501 9.4029 4.61059 9.26272L4.07061 9.69886C3.92523 9.62098 3.81101 9.56905 3.72793 9.53271C3.56698 9.45483 3.4891 9.38214 3.4891 9.30426C3.51506 9.2783 3.59813 9.16926 3.73832 8.98235C3.82658 8.85774 3.93043 8.79024 4.03946 8.77466L4.71443 9.04465L5.14019 8.6812L5.75286 9.10696Z" fill="white"/>
</svg>
