<svg width="20" height="10" viewBox="0 0 20 10" fill="none" xmlns="http://www.w3.org/2000/svg">
<path fill-rule="evenodd" clip-rule="evenodd" d="M16.3565 0C16.2429 0.0940255 16.1097 0.180215 15.953 0.254652C15.4829 0.419197 15.0167 0.579824 14.5504 0.744368C14.6445 0.642507 14.7385 0.564153 14.8325 0.501469C15.001 0.387855 15.2321 0.29383 15.522 0.219393C15.8119 0.144956 16.0901 0.0705191 16.3526 0.00391773L16.3565 0ZM19.9961 6.17826C19.9961 6.69931 19.9804 7.12243 19.9491 7.4476C19.9177 7.77277 19.8433 8.12145 19.7218 8.48972C19.7218 7.71792 19.667 6.86778 19.5612 5.93144C19.5064 5.46131 19.3888 4.63075 19.2086 3.43585C19.0284 2.24094 18.9109 1.38296 18.856 0.865818C18.8756 0.842312 18.9109 0.767875 18.9696 0.650343C19.0519 0.474045 19.1342 0.376102 19.2243 0.360431C19.2987 0.599412 19.3732 0.807052 19.4515 0.979432C19.714 1.60627 19.855 1.94711 19.8746 2.00588C19.8315 2.00588 19.7571 1.95103 19.6592 1.84525C19.5573 1.73947 19.4868 1.70813 19.4437 1.75122C19.6239 3.23213 19.8119 4.70519 20 6.17826H19.9961ZM16.2625 3.57297C16.2116 3.62782 16.1489 3.65916 16.0744 3.65916C16.0509 3.65916 16.0196 3.65132 15.9804 3.63957L15.9256 3.59256C15.8825 3.66699 15.8511 3.72184 15.8315 3.75318C15.7884 3.81587 15.7336 3.84721 15.6709 3.84721C15.5455 3.85896 15.4711 3.80411 15.4437 3.67875C15.4515 3.62782 15.4515 3.55338 15.4437 3.45935C15.4358 3.36141 15.4358 3.30656 15.4358 3.29481C15.4358 3.24388 15.4398 3.19295 15.4515 3.13418C15.4594 3.07933 15.4946 3.0284 15.5495 2.98531C15.5573 3.0284 15.5573 3.095 15.5495 3.1812C15.5416 3.26739 15.5416 3.3144 15.5416 3.32223C15.5416 3.43976 15.5808 3.52595 15.6552 3.57689C15.7258 3.56513 15.7728 3.54163 15.8002 3.50637C15.8276 3.47111 15.8433 3.42801 15.8433 3.381C15.8433 3.3379 15.8355 3.2713 15.8198 3.18903C15.8041 3.10284 15.7963 3.05191 15.7963 3.03232C15.7963 2.95005 15.8198 2.88345 15.8707 2.83643C15.8942 2.87953 15.9099 2.94221 15.9099 3.02449V3.16552C15.9099 3.2478 15.9177 3.3144 15.9334 3.36141C15.9491 3.41234 16.0157 3.42801 16.1371 3.40842C16.1489 3.38883 16.1567 3.35749 16.1567 3.3144C16.1567 3.29089 16.141 3.23604 16.1136 3.15769C16.0862 3.07933 16.0705 3.02057 16.0705 2.98531C16.0705 2.93046 16.094 2.87953 16.1371 2.83643C16.239 2.97356 16.286 3.14985 16.286 3.36141C16.286 3.46327 16.2782 3.53379 16.2664 3.57689L16.2625 3.57297ZM14.2135 2.74633C14.2135 2.85211 14.1939 2.95788 14.1508 3.06758C14.1117 3.17336 14.0451 3.24388 13.9589 3.27522C13.8844 3.30656 13.8139 3.26739 13.7512 3.15377C13.7395 3.07933 13.7316 3.02057 13.7316 2.98531C13.7316 2.88345 13.7434 2.79726 13.763 2.72282C13.7865 2.64838 13.8492 2.49951 13.9549 2.28012C13.9471 2.31146 13.9314 2.3859 13.9001 2.49951C13.8688 2.61704 13.8531 2.70323 13.8531 2.76592C13.8531 2.87169 13.8883 2.95788 13.9549 3.02057C14.0372 3.03232 14.0921 2.99314 14.1195 2.90304C14.1469 2.81293 14.1783 2.762 14.2096 2.74633H14.2135ZM13.4339 0.227228C13.4025 0.372184 13.2968 0.46621 13.1126 0.513222C12.9324 0.560235 12.7561 0.60333 12.5877 0.63859C11.5847 0.952008 10.9187 1.1714 10.5896 1.30069C10.2605 1.42997 9.89226 1.59843 9.48482 1.81391C9.5906 1.58276 9.87659 1.38296 10.3389 1.21058C10.5504 1.13614 10.7698 1.05779 10.9892 0.975514C11.5299 0.795299 11.9295 0.658178 12.192 0.571988C12.6738 0.407444 13.0891 0.29383 13.4339 0.22331V0.227228ZM16.1332 4.76787C16.1019 4.86974 16.047 4.97551 15.9647 5.08913C15.8472 5.25759 15.7767 5.35945 15.7571 5.39079C15.6709 5.28893 15.5495 5.20274 15.3967 5.12439C15.2439 5.04603 15.1263 4.98335 15.0441 4.94025C15.0127 5.02644 14.9736 5.1048 14.9305 5.16748C14.8443 5.2811 14.7542 5.39079 14.668 5.49657L14.0294 5.2145C14.1234 5.02644 14.1861 4.90891 14.2174 4.86582C14.3193 4.7287 14.429 4.65818 14.5465 4.65818L15.0637 4.93242L15.5534 4.31342C15.5534 4.31342 15.6748 4.39961 15.8629 4.52889C15.9961 4.61508 16.0862 4.69736 16.1371 4.77179L16.1332 4.76787ZM17.6376 5.94319C17.6376 5.59843 17.5005 4.74045 17.2223 3.36533C17.1048 2.76983 17.0421 2.25269 17.0421 1.81391C17.0656 1.8335 17.1283 1.9001 17.2223 2.00979C17.285 2.09207 17.3516 2.13908 17.4182 2.15083C17.2419 1.51224 17.0343 0.89716 16.7875 0.309501C16.6817 0.403526 16.6112 0.497551 16.5759 0.591577C16.5406 0.685602 16.525 0.799216 16.525 0.928501C16.525 1.01077 16.5367 1.14006 16.5642 1.32419C16.5877 1.50441 16.6033 1.64545 16.6033 1.74731L17.3164 5.89226L17.4104 6.68364C17.2615 6.7855 17.097 6.86386 16.9167 6.91871C16.7365 6.97356 16.5563 7.0049 16.3761 7.0049C16.1645 7.0049 15.9765 6.96964 15.8119 6.90304C15.7101 6.85994 15.6474 6.79726 15.6161 6.7189C15.5847 6.64055 15.5691 6.5426 15.5691 6.42116V6.22527C15.4554 6.26445 15.3262 6.35847 15.1734 6.51518C14.9931 6.70323 14.8678 6.82076 14.8051 6.86386C14.6366 6.99706 14.4721 7.09109 14.3115 7.14985C14.1508 7.20862 13.9902 7.23996 13.8257 7.23996C13.4065 7.23996 12.8972 6.97356 12.3017 6.44074C11.5064 5.72772 11.0284 5.32419 10.8717 5.238C10.7894 5.18707 10.4956 5.03036 9.98629 4.76787C9.62194 4.57982 9.3477 4.39177 9.15965 4.20372C9.15181 4.12928 9.18315 4.05485 9.24584 3.97649C9.27718 3.93732 9.33203 3.87855 9.4143 3.79628C9.95495 3.49461 10.5426 3.21645 11.1812 2.95788C11.7532 2.72674 12.3604 2.50343 13.0069 2.29187C13.1126 2.25269 13.7356 2.06072 14.8678 1.70813C14.8874 1.70813 14.9305 1.70029 15.0049 1.68462C15.0754 1.66895 15.1342 1.66112 15.1773 1.66112C15.2713 1.66112 15.3418 1.68854 15.3928 1.74731C15.4123 1.81783 15.4202 1.88443 15.4202 1.95495C15.4202 2.03722 15.4045 2.10382 15.3732 2.15083C15.0362 2.59745 14.6954 3.03624 14.3585 3.47502C13.9628 3.99608 13.6768 4.43879 13.4927 4.81097L14.7816 3.21254C15.0519 2.84819 15.2282 2.60529 15.3066 2.47992C15.6004 2.00979 15.7493 1.55534 15.7493 1.11655C15.7179 1.02253 15.6396 0.975514 15.5142 0.975514C15.1459 1.0382 14.7228 1.14006 14.2527 1.27718C13.9785 1.35945 13.5788 1.48874 13.0578 1.67287C12.5367 1.85309 12.1254 1.99412 11.8159 2.09598C11.3771 2.26053 10.9422 2.42116 10.5073 2.5857C9.5906 2.9383 9.04212 3.43193 8.8619 4.07052C8.6621 2.77767 8.45054 1.58668 8.23115 0.497551C8.1763 0.560235 8.12537 0.642507 8.08227 0.740451C8.03918 0.842311 7.99608 0.944172 7.96082 1.04995C8.08619 1.72772 8.21548 2.41724 8.3526 3.11851C8.4858 3.81978 8.59158 4.49755 8.66601 5.14789C8.74045 5.79824 8.81489 6.46425 8.89324 7.14202C8.97551 7.58864 9.14398 7.9334 9.40255 8.18413C9.57884 8.31734 9.78648 8.38002 10.0215 8.38002C10.1978 8.38002 10.3859 8.34868 10.5857 8.28208C10.7855 8.21548 10.9892 8.1332 11.1929 8.03918C11.3967 7.94123 11.5573 7.78844 11.6787 7.57297C11.7806 7.39667 11.8433 7.17728 11.8668 6.91479C12.1685 7.2047 12.4427 7.42409 12.6934 7.5808C13.0069 7.78061 13.3164 7.91381 13.6259 7.97649C13.951 7.97649 14.2527 7.89814 14.523 7.74143C14.7973 7.58472 15.0362 7.36925 15.2439 7.09109C15.3457 7.05975 15.4202 7.13026 15.4711 7.30656C15.522 7.48286 15.6004 7.5808 15.7062 7.59647C15.9256 7.66699 16.1528 7.69833 16.3918 7.69833C16.6112 7.69833 16.8071 7.66699 16.9794 7.60823C17.1518 7.54946 17.2968 7.45152 17.4182 7.31048C17.5005 7.08325 17.5553 6.85602 17.5867 6.6288C17.618 6.40157 17.6337 6.1665 17.6337 5.92752L17.6376 5.94319ZM13.0578 3.81978C13.0695 3.89422 13.0774 3.93732 13.0774 3.94123C13.0774 4.01175 13.046 4.0431 12.9833 4.0431C12.8893 4.02351 12.8188 4.01567 12.7757 4.01567C12.7013 4.01567 12.6621 4.07052 12.6621 4.1763C12.619 4.3761 12.5837 4.52498 12.5602 4.619C12.5171 4.78746 12.4584 4.91675 12.38 5.00294C12.3369 4.96376 12.2703 4.84231 12.1881 4.63467C12.1019 4.42703 12.0039 4.32517 11.8903 4.32517C11.859 4.32517 11.8198 4.33301 11.7689 4.3526L11.6552 4.26641C11.6748 4.18413 11.6983 4.10186 11.7297 4.01175C11.761 3.92556 11.8237 3.87463 11.9177 3.86288C12.0235 3.94515 12.1175 4.05877 12.1998 4.21156C12.2429 4.28599 12.3095 4.42311 12.3957 4.62684C12.4388 4.58374 12.4976 4.42703 12.5642 4.16063C12.6347 3.89422 12.7287 3.76102 12.8541 3.76102C12.9089 3.76102 12.9755 3.78061 13.05 3.81587L13.0578 3.81978ZM9.21058 1.45739C9.14006 1.77081 9.02253 2.06464 8.85406 2.3428C8.9285 2.2096 8.98727 2.07248 9.03428 1.9236C9.07738 1.77473 9.10088 1.62586 9.10088 1.46915C9.10088 1.33595 9.08521 1.21841 9.05387 1.10872C9.02253 0.999021 8.96768 0.901077 8.89324 0.81097C8.905 0.748286 8.92067 0.697356 8.93634 0.662096C8.95201 0.622919 8.98335 0.60333 9.02645 0.595495C9.10872 0.697356 9.15965 0.818805 9.18315 0.963761C9.20666 1.10872 9.2145 1.27326 9.2145 1.46131L9.21058 1.45739ZM13.8374 5.99804C13.8257 6.06856 13.8139 6.13516 13.7982 6.20568C13.7669 6.32321 13.712 6.43291 13.6298 6.52693C13.5671 6.55044 13.5122 6.53477 13.4691 6.47992C13.4613 6.47209 13.4378 6.42116 13.3947 6.31929C13.3869 6.2762 13.3869 6.20568 13.3869 6.11166C13.3869 5.80999 13.4535 5.52008 13.5828 5.238C13.5514 5.44956 13.5201 5.66503 13.4887 5.87659C13.4887 5.97845 13.5005 6.05681 13.5201 6.11557C13.5436 6.17434 13.5906 6.22527 13.665 6.27228L13.7865 5.99804H13.8335H13.8374ZM15.6043 8.32125C15.6043 8.51714 15.5651 8.69344 15.4868 8.85798C15.4084 9.02253 15.287 9.15181 15.1263 9.25367C15.1459 9.2145 15.2125 9.11655 15.334 8.95201C15.428 8.82664 15.475 8.71694 15.475 8.62292C15.475 8.54848 15.4515 8.47405 15.4006 8.39569C15.3692 8.3761 15.3301 8.3761 15.2831 8.39569C15.236 8.41528 15.2047 8.44662 15.1929 8.48972C15.1812 8.40744 15.1929 8.33301 15.24 8.26249C15.2831 8.19197 15.3301 8.14496 15.381 8.12145C15.4437 8.1097 15.4946 8.12145 15.5299 8.16455C15.569 8.20372 15.5926 8.25857 15.6043 8.32125ZM6.59745 0.423115C6.57787 0.462292 6.57003 0.497551 6.57003 0.536729C6.57003 0.579824 6.58962 0.63859 6.62488 0.705191C6.66405 0.77571 6.67973 0.826641 6.67973 0.865818C6.67973 0.920666 6.64447 0.971596 6.57787 1.01469C6.47209 1.02644 6.36631 1.11655 6.25661 1.27718C6.11949 1.48482 6.01371 1.6141 5.94711 1.66112C5.82958 1.79824 5.69246 1.9236 5.54358 2.03722C5.43781 2.11166 5.19099 2.26445 4.79922 2.48776C4.8619 2.43291 5.07737 2.25269 5.44956 1.95103C5.91969 1.56709 6.22919 1.22233 6.38198 0.908913C6.35847 0.885406 6.2762 0.846229 6.13908 0.795299C6.00196 0.744368 5.93144 0.681685 5.93144 0.607248C5.93144 0.583741 5.93928 0.544564 5.95886 0.489716C5.97845 0.434868 6.01371 0.383937 6.07248 0.333007C6.08423 0.321254 6.17434 0.262488 6.34672 0.164545C6.42899 0.144956 6.48776 0.164545 6.52693 0.231146C6.56611 0.317336 6.58962 0.38002 6.60137 0.419197L6.59745 0.423115ZM6.95397 2.17042C6.85211 2.11557 6.75025 2.05289 6.64838 1.99021C6.54652 1.92752 6.44466 1.88443 6.3428 1.857C6.25661 1.94319 6.17826 2.04114 6.11557 2.14691C6.09598 2.17826 6.04505 2.28012 5.95495 2.45642C6.06856 2.52693 6.17434 2.58178 6.26836 2.6288C6.36631 2.67581 6.46817 2.7189 6.57395 2.75416C6.73849 2.55436 6.86386 2.35455 6.95005 2.16259L6.95397 2.17042ZM7.49853 2.762C7.40451 2.67581 7.31832 2.60529 7.23604 2.55436C7.15377 2.50343 7.06758 2.46817 6.97356 2.4525C6.81685 2.75808 6.64055 2.91479 6.44858 2.91479C6.33105 2.91479 6.17826 2.85994 5.99804 2.74633C5.91185 2.80901 5.84917 2.86778 5.81783 2.92654C5.78648 2.98139 5.72772 3.12635 5.63761 3.35749C5.7238 3.42801 5.81783 3.48286 5.91577 3.52204C6.01371 3.56121 6.10774 3.60039 6.20176 3.63957C6.25661 3.57689 6.31146 3.50245 6.36239 3.41234C6.46817 3.23213 6.54652 3.11459 6.59745 3.06366L7.10676 3.35358C7.18903 3.25955 7.25955 3.16552 7.32223 3.0715C7.36141 3.00882 7.42018 2.90695 7.50245 2.762H7.49853ZM4.16063 1.55926C4.16063 1.7238 4.12537 1.857 4.05877 1.96278C4.00784 1.98237 3.9569 1.97062 3.89814 1.93536C3.84329 1.89618 3.80411 1.84917 3.78452 1.78648C3.75318 1.71596 3.73751 1.63761 3.73751 1.55142C3.73751 1.43781 3.77277 1.3046 3.83937 1.14789C3.89422 1.04212 3.9334 0.963761 3.95299 0.912831C3.94515 0.955926 3.92556 1.03428 3.8903 1.14789C3.85504 1.26151 3.83937 1.34378 3.83937 1.39079C3.83937 1.46131 3.85504 1.524 3.88639 1.57884L4.02742 1.72772L4.16063 1.55926ZM3.99216 3.95691C4.00392 4.03134 4 4.1097 3.98433 4.19197C3.96474 4.27424 3.92165 4.34084 3.85113 4.38786C3.78844 4.38786 3.73751 4.36043 3.70225 4.3095C3.66308 4.25465 3.63565 4.19197 3.61606 4.12145C3.59647 4.05093 3.58864 3.97258 3.58864 3.8903C3.58864 3.78844 3.60431 3.68658 3.63957 3.5808C3.67483 3.47502 3.72184 3.36925 3.78452 3.2713C3.76494 3.32615 3.74535 3.39667 3.72968 3.47894C3.71009 3.56121 3.70225 3.63173 3.70225 3.69442C3.70225 3.86288 3.75318 4.00784 3.85113 4.12537C3.8903 4.12537 3.92165 4.09794 3.94515 4.04701C3.96866 3.99216 3.98433 3.96474 3.99216 3.95691ZM6.88737 8.30167C6.86386 8.40353 6.84035 8.50147 6.82076 8.60333C6.78159 8.72086 6.71499 8.80313 6.61312 8.84623C6.56219 8.85798 6.52302 8.84623 6.49168 8.81881C6.43683 8.72478 6.39765 8.6621 6.37806 8.63075C6.36631 8.55632 6.35847 8.50147 6.35847 8.47013C6.35847 8.33692 6.38981 8.19589 6.4525 8.0431C6.51518 7.8903 6.57787 7.74535 6.64055 7.60431C6.64055 7.66699 6.62488 7.74535 6.59354 7.83937C6.5191 8.0666 6.47992 8.21156 6.47992 8.28208C6.47992 8.32125 6.48384 8.36043 6.49559 8.40744C6.50343 8.45446 6.53869 8.5093 6.59354 8.57199C6.64447 8.57982 6.68756 8.56415 6.72674 8.52498C6.76592 8.4858 6.78942 8.4427 6.80118 8.39177C6.79334 8.38002 6.80901 8.34868 6.84819 8.29775H6.88737V8.30167ZM2.51518 1.05387L2.46033 1.26934C2.39765 1.23017 2.35455 1.20274 2.32713 1.18315C2.2762 1.14398 2.22527 1.14006 2.17826 1.16357C2.10382 1.26543 2.05289 1.42605 2.02155 1.65328C1.99021 1.88051 1.96278 2.12341 1.93144 2.3859C2.04505 2.44858 2.13516 2.50343 2.20568 2.55436C2.29971 2.6288 2.37023 2.71499 2.41332 2.80901C2.38198 2.93438 2.20176 3.01273 1.87659 3.04407C1.55142 3.07542 1.37512 3.19295 1.35162 3.40059C1.48874 4.20372 1.62977 5.00294 1.77473 5.79824C1.77473 6.143 1.75906 6.39373 1.7238 6.55436C1.68854 6.71499 1.62977 6.88345 1.55142 7.05583C1.6141 6.87561 1.65328 6.66405 1.66895 6.42507C1.68462 6.18609 1.69246 6.04114 1.69246 5.98237C1.69246 5.69246 1.64936 5.35945 1.55926 4.97551C1.35162 4.07835 1.24976 3.51028 1.24976 3.27522C1.24976 3.1381 1.32027 3.02449 1.45739 2.9383C1.55142 2.87561 1.68071 2.82076 1.84133 2.77767C1.86484 2.78942 1.89618 2.7855 1.93536 2.76983C1.97453 2.75024 1.99412 2.74241 2.00196 2.74241C1.93144 2.67189 1.85309 2.64055 1.7669 2.64055C1.72772 2.64055 1.69246 2.64838 1.65328 2.66797L1.49265 2.80901C1.4809 2.7855 1.4809 2.75024 1.49265 2.70715C1.53575 2.62096 1.56317 2.55828 1.56709 2.5191L1.80215 2.35847C1.75906 2.30754 1.67287 2.143 1.5475 1.86092C1.45348 1.64936 1.33595 1.53967 1.19882 1.53967C1.17532 1.53967 1.13614 1.5475 1.08521 1.55926C1.01469 1.52791 0.98335 1.47307 0.98335 1.39079C0.98335 1.35162 0.991185 1.29677 1.00686 1.22625C1.02253 1.15573 1.03036 1.11263 1.03036 1.10088C1.05387 1.0382 1.09305 1.00686 1.14398 1.00686C1.16748 1.00686 1.19491 1.01469 1.21841 1.02644C1.24192 1.0382 1.26151 1.04995 1.27326 1.05387C1.36729 1.14789 1.45348 1.26934 1.52791 1.42214C1.63369 1.64153 1.74339 1.857 1.857 2.07248C1.9001 1.78257 1.93144 1.55926 1.95103 1.39471C1.99412 1.08913 2.08423 0.932419 2.22527 0.932419C2.31146 0.932419 2.4094 0.971597 2.51518 1.05387ZM7.80803 5.3046C7.72184 5.28501 7.64349 5.27718 7.57297 5.27718C7.39667 5.27718 7.18903 5.3477 6.94221 5.48482C6.44074 5.7669 6.09598 5.90793 5.90793 5.90793C5.8335 5.90793 5.75906 5.9001 5.68071 5.88051C5.53183 5.82958 5.4143 5.73555 5.33595 5.59452C5.25759 5.45348 5.21058 5.29677 5.19099 5.12047C5.10872 5.17532 5.04212 5.26934 4.98335 5.40255C4.90108 5.5906 4.85015 5.69638 4.83448 5.7238L5.21841 7.06758C4.76787 7.42018 4.21547 7.74143 3.56513 8.03526C3.16552 8.21548 2.57003 8.44662 1.77865 8.72086C0.987267 8.9951 0.395691 9.22625 0 9.40646C0.333007 9.35553 0.677767 9.3046 1.0382 9.24976C1.39863 9.19491 1.71988 9.1714 2.00196 9.1714C3.23213 8.74437 3.96866 8.46621 4.21156 8.33301C5.01861 7.89422 5.48874 7.30656 5.62194 6.57395C5.77865 6.53477 6.04505 6.42899 6.42116 6.25269C6.75416 6.10382 7.02449 6.00196 7.23996 5.95103C7.37708 5.97453 7.4476 6.0333 7.4476 6.11949C7.4476 6.16259 7.39275 6.26836 7.28697 6.44074C7.1812 6.60921 7.14202 6.73849 7.17336 6.82468C7.36141 6.64838 7.51812 6.46817 7.64349 6.28012C7.79236 6.04897 7.87072 5.8335 7.87072 5.62977C7.87072 5.50441 7.84721 5.39471 7.80411 5.30069L7.80803 5.3046ZM6.37806 0.591577V0.497551C6.37806 0.446621 6.35455 0.423115 6.30362 0.423115C6.2331 0.423115 6.18609 0.446621 6.16259 0.497551L6.37806 0.591577ZM11.6513 6.75808C11.6004 7.00098 11.4319 7.20078 11.142 7.34966C10.9775 7.43585 10.7111 7.52987 10.3428 7.6239C10.2723 7.64349 10.2057 7.65132 10.1352 7.65132C10.0215 7.65132 9.91577 7.63565 9.82174 7.60039C9.7238 7.56513 9.62194 7.51812 9.51616 7.45544C9.28502 7.19295 9.14789 6.82468 9.10872 6.35455C9.06954 5.88443 9.03036 5.43389 8.99902 4.99902C9.21058 5.17924 9.50441 5.36729 9.87267 5.55534C10.6249 5.93928 11.1146 6.23702 11.3379 6.45642C11.3614 6.48776 11.428 6.55044 11.5338 6.64447C11.5847 6.68756 11.62 6.72674 11.6474 6.75808H11.6513Z" fill="white"/>
</svg>
