<svg width="20" height="8" viewBox="0 0 20 8" fill="none" xmlns="http://www.w3.org/2000/svg">
<path fill-rule="evenodd" clip-rule="evenodd" d="M20 1.84403C19.9483 1.8268 19.888 1.7751 19.8234 1.68893C19.7587 1.60276 19.7027 1.54675 19.6639 1.52521C19.6639 1.53813 19.651 1.55537 19.6209 1.57691C19.5907 1.59845 19.5821 1.62 19.595 1.63723L19.5692 1.62861C19.5692 1.99052 19.6036 2.42138 19.6726 2.91685C19.7415 3.41233 19.8104 3.89057 19.8794 4.35157C19.8966 4.50237 19.9095 4.65317 19.9224 4.80827C19.9354 4.96338 19.9397 5.11418 19.9397 5.26497C19.9397 5.59673 19.9138 5.90263 19.8578 6.18268C19.8018 6.46273 19.707 6.74279 19.5692 7.02284C19.6079 6.8505 19.6381 6.66523 19.6553 6.46273C19.6726 6.26023 19.6812 6.06204 19.6812 5.86816C19.6812 5.40284 19.6252 4.76088 19.5088 3.94658C19.427 3.38216 19.3796 3.00302 19.3623 2.80914C19.246 2.09824 19.134 1.38302 19.0263 0.672123C19.0478 0.53856 19.0866 0.422241 19.134 0.318837C19.1814 0.215433 19.246 0.124951 19.3279 0.0517063C19.3839 0.202503 19.483 0.426537 19.6209 0.723823C19.832 1.17621 19.9612 1.55105 20 1.84403ZM16.7945 0.430849C16.7299 0.538561 16.648 0.629037 16.5403 0.697973C16.4326 0.766909 16.299 0.831537 16.131 0.887547C15.9629 0.943558 15.838 0.990954 15.7518 1.02542C15.5967 1.08143 15.4718 1.15036 15.3727 1.22361C15.4244 1.10297 15.5019 1.00388 15.6097 0.922023C15.7174 0.840161 15.8509 0.775534 16.019 0.719523C16.187 0.663513 16.3119 0.624733 16.3981 0.594573C16.5575 0.538563 16.6911 0.482551 16.7945 0.430849ZM16.8031 1.5683C16.7686 1.71909 16.6394 1.83543 16.4153 1.92159C16.1008 2.04223 15.9156 2.12409 15.8639 2.16287C15.8639 2.1284 15.8854 2.08531 15.9285 2.03361C15.9716 1.9819 15.9974 1.93883 16.0017 1.90436C15.894 1.86558 15.838 1.78802 15.838 1.68031C15.838 1.61568 15.8682 1.55106 15.9328 1.48643C15.9974 1.42181 16.0534 1.3658 16.1051 1.32702C16.1784 1.27101 16.2516 1.24085 16.3206 1.24085C16.3895 1.24085 16.4455 1.26669 16.4929 1.3184C16.4757 1.42611 16.4326 1.49935 16.3636 1.53382C16.3162 1.49935 16.2645 1.48212 16.1999 1.48212C16.1482 1.48212 16.1094 1.49505 16.0793 1.52521L16.0362 1.5683C16.0534 1.62 16.0965 1.65877 16.1698 1.68031C16.243 1.70185 16.2947 1.71909 16.3292 1.73202L16.8031 1.5683ZM18.2249 1.82681C18.2249 1.55106 18.1474 1.24516 17.9922 0.904785C17.9362 0.779839 17.7811 0.495481 17.5269 0.0517063C17.4709 0.150802 17.4149 0.249895 17.3589 0.353299C17.3029 0.456703 17.277 0.551491 17.277 0.637661C17.277 0.702288 17.2857 0.745376 17.3029 0.775536C17.3244 0.943567 17.4494 1.69324 17.6734 3.03318C17.7553 3.52865 17.8199 3.98105 17.8716 4.39466C17.8716 4.49376 17.8845 4.63162 17.9147 4.81689C17.9449 5.00215 17.9578 5.14003 17.9578 5.23051C17.9578 5.36407 17.9362 5.48041 17.8975 5.58381C17.8113 5.29514 17.6691 5.00646 17.4666 4.71349C17.2986 4.47221 17.0918 4.21801 16.8376 3.95519C16.7902 3.90349 16.6092 3.72254 16.2861 3.41233C15.9026 3.03749 15.6053 2.73158 15.3985 2.49031C15.3425 2.40844 15.2003 2.24903 14.9763 2.00776C14.6661 1.66739 14.4808 1.38302 14.4248 1.15467L14.7523 1.13745C14.455 0.861704 14.1534 0.585955 13.8561 0.310212C13.7915 0.383456 13.7527 0.478244 13.7311 0.594573C13.7096 0.710903 13.701 0.844467 13.701 0.999572C13.8346 1.29686 14.0069 1.59845 14.218 1.90436C14.4076 2.1801 14.6273 2.46015 14.8729 2.7402C15.028 2.91685 15.2736 3.18398 15.614 3.53296C15.9371 3.86472 16.1913 4.13184 16.3809 4.32573C16.6911 4.65317 16.9324 4.92029 17.1047 5.1271C17.3503 5.42438 17.5571 5.70444 17.7251 5.96294C17.4838 6.26885 17.1607 6.56182 16.7514 6.85049C16.4024 7.07884 16.0491 7.3115 15.7001 7.53985C15.8897 7.49246 16.0922 7.44507 16.3033 7.39337C16.5144 7.34166 16.6911 7.28566 16.829 7.22103C17.3287 6.98406 17.6863 6.63939 17.8975 6.187C18.0741 5.80785 18.1646 5.32529 18.1646 4.73934C18.031 3.7053 17.9018 2.66695 17.7768 1.62861C17.7984 1.56398 17.8285 1.53382 17.863 1.53382C17.8802 1.53382 17.9535 1.60707 18.087 1.75787C18.1387 1.81388 18.1861 1.83973 18.2249 1.82681ZM12.8307 0.775536C12.8479 0.866014 12.8436 0.952173 12.8134 1.03403C12.7833 1.1159 12.7316 1.17622 12.6497 1.22361C12.6153 1.23653 12.5851 1.22361 12.5549 1.19776C12.5032 1.15037 12.4731 1.12452 12.4688 1.12021C12.4688 0.965104 12.486 0.822928 12.5248 0.693673C12.5635 0.564419 12.6196 0.435158 12.6928 0.310212C12.723 0.379147 12.71 0.47394 12.6626 0.598886C12.6153 0.723832 12.5894 0.792764 12.5894 0.809998C12.5894 0.874625 12.6282 0.917705 12.71 0.939247C12.7273 0.926322 12.7402 0.900479 12.7531 0.853085C12.766 0.805692 12.7919 0.779844 12.8307 0.775536ZM12.9255 2.05084C12.9384 2.11547 12.9255 2.1801 12.891 2.24473C12.8565 2.30936 12.8221 2.37398 12.7876 2.42999C12.6626 2.54632 12.5248 2.60233 12.374 2.60233C12.3352 2.60233 12.3007 2.60233 12.2792 2.59372C12.1715 2.54202 12.1155 2.44291 12.1155 2.30073C12.1155 2.2361 12.1198 2.19303 12.1327 2.16287C12.1456 2.13271 12.1542 2.11547 12.1586 2.10254L12.4257 1.63723C12.4257 1.67601 12.3955 1.77941 12.3395 1.93882C12.305 2.03791 12.2878 2.10686 12.2878 2.14563C12.2878 2.22749 12.318 2.29643 12.3826 2.35244C12.4558 2.36537 12.5162 2.36106 12.5635 2.34813C12.6109 2.33521 12.6713 2.30504 12.7531 2.26627C12.766 2.21026 12.71 2.14994 12.5851 2.08962C12.4601 2.0293 12.3998 1.9776 12.3998 1.93021C12.3998 1.88281 12.4343 1.83111 12.5032 1.76648C12.6196 1.80095 12.6971 1.83112 12.7359 1.85266C12.8264 1.90436 12.891 1.96898 12.9255 2.05084ZM14.2008 2.8953C14.2309 2.92546 14.2309 2.96425 14.2094 3.01164C14.1879 3.05904 14.1663 3.09781 14.1491 3.12797C14.1189 3.12797 14.0801 3.11935 14.0327 3.10643C13.9854 3.0935 13.9552 3.08488 13.9509 3.08488C13.9121 3.08488 13.8776 3.09781 13.8561 3.12797C13.8346 3.18398 13.8001 3.30031 13.7527 3.46834C13.7053 3.63637 13.6622 3.76993 13.6234 3.86903C13.5847 3.83456 13.533 3.72253 13.4726 3.52865C13.4123 3.33477 13.3089 3.25291 13.1581 3.27445C13.1107 3.24429 13.0892 3.20983 13.0892 3.17105C13.0892 3.14089 13.1021 3.10211 13.1323 3.05472C13.1624 3.00732 13.1797 2.96855 13.184 2.93839C13.2141 2.8393 13.2615 2.82206 13.3305 2.87807C13.4123 2.947 13.4769 3.03749 13.5287 3.15382C13.5459 3.19259 13.5847 3.30462 13.6407 3.48127C13.6622 3.44249 13.701 3.33908 13.757 3.17535C13.813 3.01163 13.8733 2.89962 13.9423 2.83499C14.0629 2.83499 14.1491 2.85653 14.2008 2.8953ZM11.7191 0C11.7191 0.0689358 11.6932 0.133568 11.6372 0.193887C11.5812 0.254206 11.5209 0.292978 11.452 0.310212C10.3533 0.706593 9.25894 1.10298 8.16028 1.49936C8.14735 1.43042 8.16889 1.36149 8.21629 1.28825C8.26368 1.215 8.32831 1.15899 8.40155 1.12021C8.82809 0.982338 9.23309 0.848774 9.62516 0.71521C10.9177 0.271436 11.6157 0.0344679 11.7191 0ZM10.685 1.68893C10.5127 1.55537 10.3231 1.44765 10.1163 1.36148C9.99138 1.49936 9.90952 1.58983 9.87505 1.62861C9.80612 1.71909 9.75011 1.82249 9.71133 1.93021C9.75011 1.96037 9.85351 2.01207 10.0215 2.09393C10.1465 2.15856 10.2499 2.21457 10.3231 2.26627C10.405 2.17579 10.4696 2.08531 10.5213 1.99483C10.573 1.90435 10.629 1.80526 10.685 1.68893ZM16.7255 5.06679C16.3421 5.06679 15.9371 5.01508 15.5106 4.91167C15.2003 4.83843 14.8212 4.7221 14.3774 4.56269C13.9337 4.40327 13.6191 4.30418 13.4425 4.25679C13.1021 4.17062 12.7747 4.12754 12.4515 4.12754C12.2792 4.12754 12.1241 4.14046 11.9862 4.162C11.9647 4.162 11.9302 4.16201 11.8914 4.15339C11.6889 4.15339 11.5338 4.23956 11.4261 4.4119C11.3701 4.50238 11.3055 4.67903 11.2365 4.93754C11.3012 4.95477 11.3615 4.96339 11.4261 4.96339C11.439 4.96339 11.5769 4.94184 11.8397 4.90306C11.913 4.89014 11.9991 4.88582 12.0896 4.88582C12.1758 4.88582 12.2404 4.89014 12.2792 4.90306C12.3998 4.86859 12.5205 4.85136 12.6411 4.85136C12.8695 4.85136 13.1883 4.92892 13.5976 5.08402C13.869 5.18743 14.05 5.25205 14.1491 5.28221C14.1189 5.30375 14.0801 5.3253 14.0241 5.33822C13.9681 5.35115 13.938 5.36408 13.925 5.36838C13.2917 5.59673 12.6626 5.82508 12.0379 6.04912C11.7923 6.12236 11.5812 6.17837 11.4132 6.20853C11.2452 6.23869 11.0513 6.25593 10.8402 6.25593C10.5687 6.25593 10.3059 6.21715 10.0474 6.14391C10.1637 6.04481 10.2499 5.92417 10.3145 5.77337C10.3619 5.65704 10.3964 5.52348 10.4179 5.37268C10.4395 5.22189 10.4524 5.08833 10.4524 4.972C10.4524 4.76088 10.4222 4.57562 10.3662 4.42483C10.3102 4.27403 10.2025 4.14477 10.0474 4.04136C9.94399 3.98966 9.8492 3.96381 9.76303 3.96381C9.71133 3.96381 9.65532 3.97674 9.59931 4.0069C9.40543 4.22663 9.25463 4.45929 9.14692 4.70487C9.03921 4.95046 8.9875 5.21328 8.9875 5.48902C8.9875 5.6829 9.01766 5.86817 9.07367 6.04051C8.9832 6.10513 8.87548 6.14391 8.75916 6.15683C8.64283 6.16976 8.50065 6.17837 8.34123 6.17837C8.16458 6.12236 8.00948 6.00603 7.88022 5.82938C7.75097 5.65274 7.66911 5.47178 7.63464 5.28221L7.09177 0.922023L6.94528 0.0603251C6.87635 0.116335 6.81603 0.202504 6.76433 0.314524C6.71262 0.426545 6.66523 0.529953 6.62645 0.629049L7.07454 3.54158C7.13055 4.12322 7.19087 4.70057 7.25549 5.2736C7.35459 5.94141 7.57863 6.4412 7.93623 6.78157C8.07841 6.87205 8.23352 6.91943 8.39293 6.91943C8.53511 6.91943 8.70314 6.88066 8.89703 6.80311C9.09091 6.72555 9.26756 6.648 9.43559 6.57476C9.52176 6.66093 9.62516 6.73417 9.7458 6.79879C9.83197 6.84619 9.93968 6.89358 10.0732 6.94528C10.3705 6.94528 10.6635 6.93236 10.9522 6.90221C11.2408 6.87205 11.495 6.82896 11.7191 6.76864C11.9431 6.70832 12.2103 6.62215 12.5162 6.51013C12.8221 6.39811 13.0935 6.2947 13.3218 6.20422C13.701 6.06204 13.8949 5.98449 13.9078 5.98018C14.2352 5.86385 14.5584 5.77768 14.8729 5.72167C15.0108 5.69151 15.153 5.66997 15.2951 5.65273C15.4373 5.6355 15.5752 5.62688 15.7001 5.62688C15.8251 5.62688 15.9673 5.6355 16.1094 5.65273C16.2516 5.66997 16.3852 5.69151 16.5101 5.72167C16.6609 5.5321 16.7342 5.34684 16.7342 5.16157C16.7342 5.11418 16.7342 5.08402 16.7255 5.06679ZM11.2796 3.07627C11.2796 3.16244 11.271 3.23567 11.2495 3.29599C11.2279 3.35631 11.1935 3.43386 11.1417 3.52434C11.09 3.53727 11.0383 3.52434 10.9866 3.5028C10.9349 3.47695 10.9005 3.43818 10.8875 3.38217C10.8746 3.32615 10.866 3.27446 10.866 3.22275C10.866 3.15382 10.8789 3.08058 10.9091 2.99872C10.9134 2.98579 10.9479 2.91254 11.0125 2.77467C10.9953 2.88238 10.9866 2.96855 10.9866 3.03318C10.9866 3.14951 11.0211 3.22706 11.09 3.27445C11.1374 3.27876 11.1719 3.25291 11.2021 3.18828C11.2322 3.12365 11.2581 3.08919 11.2796 3.07627ZM9.67686 1.80094C9.60362 1.96898 9.5433 2.08962 9.50452 2.16287C9.43128 2.30074 9.3408 2.36967 9.2374 2.36967C9.12969 2.32227 9.02197 2.27919 8.91857 2.23179C8.79362 2.16286 8.729 2.08962 8.729 2.00776L9.12538 1.60276L9.67686 1.80094ZM14.6661 7.24688C14.5282 7.38475 14.3602 7.50108 14.1663 7.59587C13.9724 7.69065 13.7742 7.73805 13.5804 7.73805C13.4554 7.73805 13.3348 7.7165 13.2184 7.67773C13.1323 7.63033 13.0892 7.56571 13.0892 7.47954C13.0892 7.44076 13.1021 7.39768 13.1323 7.3589C13.1667 7.28997 13.2314 7.21672 13.3218 7.14348C13.3692 7.1047 13.4468 7.04438 13.5631 6.96252C13.4899 6.91082 13.4209 6.88497 13.3649 6.88497C13.3003 6.88497 13.2529 6.91082 13.2184 6.96252C13.2184 6.89789 13.2357 6.84188 13.2744 6.79018C13.3132 6.73848 13.3606 6.6997 13.4252 6.67816C13.6105 6.67816 13.7527 6.72555 13.8561 6.82464C13.8561 6.94959 13.7355 7.06593 13.4942 7.16933C13.3779 7.22103 13.3218 7.26842 13.3218 7.31582C13.3218 7.36321 13.3563 7.41491 13.4252 7.47954C13.5114 7.50108 13.6019 7.514 13.701 7.514C13.8216 7.514 13.9466 7.49677 14.0715 7.4623C14.106 7.44938 14.3042 7.38044 14.6661 7.24688ZM8.64283 3.82594C8.60405 3.96381 8.55235 4.08875 8.48772 4.20078C8.42309 4.3128 8.34123 4.42912 8.23783 4.54976C8.45756 4.27402 8.56527 3.9595 8.56527 3.61051C8.56527 3.40802 8.51788 3.22706 8.4274 3.05903L8.34123 2.99872L8.48772 2.7402C8.6299 2.94701 8.70315 3.18398 8.70315 3.45542C8.70315 3.58898 8.6816 3.70961 8.64283 3.82594ZM6.02327 0.835848C6.00603 0.934943 5.98018 1.0168 5.94571 1.09005C5.91124 1.16329 5.86385 1.22792 5.79922 1.28393C5.74321 1.28824 5.69151 1.27962 5.64843 1.24946C5.60534 1.2193 5.57087 1.15899 5.54071 1.0599C5.52779 0.978036 5.52348 0.922015 5.52348 0.887547C5.52348 0.76691 5.54502 0.650582 5.5838 0.538561C5.62258 0.42654 5.68289 0.301596 5.75614 0.163725C5.72167 0.267128 5.69582 0.353301 5.67859 0.422237C5.66135 0.491172 5.65274 0.573032 5.65274 0.663511C5.65274 0.801382 5.6872 0.913402 5.75614 0.999572C5.77337 1.03404 5.79492 1.04696 5.82507 1.03403C5.85523 1.02111 5.88109 1.00388 5.90263 0.973722C5.93279 0.956488 5.95002 0.93494 5.95433 0.913397C5.95864 0.891855 5.96726 0.866007 5.97156 0.835848H6.02327ZM5.00646 1.5683C4.95045 1.77941 4.84274 1.98622 4.68763 2.18872C4.6704 2.17579 4.57131 2.12409 4.38604 2.02499C4.26109 1.96037 4.19647 1.88711 4.19647 1.80094C4.26971 1.68031 4.32572 1.58983 4.36019 1.53382C4.42482 1.43042 4.49375 1.34856 4.567 1.28393C4.64024 1.32271 4.71779 1.36148 4.79535 1.40026C4.8729 1.43903 4.94183 1.49505 5.00646 1.5683ZM3.59328 0.387761L3.53296 0.629049C3.49418 0.62474 3.45972 0.616111 3.42956 0.603186C3.34769 0.573026 3.28738 0.564415 3.2486 0.568723C3.20982 0.672127 3.17966 0.805691 3.16243 0.973722C3.12365 1.33994 3.08488 1.5726 3.05041 1.66308C2.97716 1.64585 2.86945 1.49935 2.73158 1.22361C2.66695 1.09005 2.59371 1.0168 2.51185 0.99526C2.42999 0.973717 2.36536 0.952182 2.31797 0.922023C2.27057 0.891863 2.24041 0.844471 2.22318 0.775536C2.2361 0.67644 2.24903 0.57734 2.26626 0.473936C2.28781 0.409309 2.32658 0.379149 2.37829 0.379149C2.40844 0.379149 2.44291 0.392082 2.48169 0.413624C2.58509 0.504103 2.67557 0.633346 2.74882 0.79276C2.82206 0.952174 2.8953 1.10729 2.96424 1.25808C2.9944 1.20207 3.02456 1.05127 3.06333 0.805685C3.10211 0.560101 3.16674 0.396381 3.26583 0.310212C3.3994 0.292978 3.50711 0.318825 3.59328 0.387761ZM3.99828 3.50712C4.0112 3.52866 4.01551 3.56312 4.01551 3.61051C4.01551 3.66652 4.00689 3.72254 3.98535 3.77424C3.96381 3.82594 3.94227 3.87764 3.92072 3.92934C3.88195 3.96811 3.83455 3.98966 3.78285 3.98966C3.74408 3.98966 3.70961 3.97674 3.68807 3.94658C3.62344 3.86041 3.59328 3.757 3.59328 3.63636C3.59328 3.53727 3.61482 3.42525 3.66221 3.29169C3.72684 3.14089 3.76993 3.03748 3.79147 2.97285C3.80439 3.02456 3.80009 3.08058 3.78285 3.1452C3.73546 3.35201 3.71392 3.45971 3.71392 3.47264C3.71392 3.58897 3.76131 3.67514 3.8604 3.73115L3.99828 3.50712ZM3.48988 2.12839C3.48557 2.20164 3.47695 2.25765 3.46402 2.29212C3.4511 2.32659 3.42525 2.35243 3.38647 2.36967C3.1495 2.36967 2.99009 2.3826 2.90392 2.40414C2.73158 2.45154 2.61094 2.54632 2.54201 2.69712C2.62387 2.98579 2.68419 3.21413 2.72727 3.39078C2.77036 3.56743 2.80483 3.74408 2.82637 3.92073C2.84791 4.09737 2.87376 4.29557 2.90392 4.5153C2.90392 4.61439 2.891 4.70487 2.86514 4.79535C2.83929 4.88583 2.7919 4.97631 2.72296 5.06679C2.78759 4.94184 2.81775 4.79536 2.81775 4.62732C2.81775 4.45068 2.77897 4.23955 2.70573 3.99828C2.63249 3.78716 2.55924 3.57174 2.49031 3.36063C2.46876 3.27877 2.45153 3.21845 2.4386 3.17105C2.40844 3.05472 2.39552 2.95131 2.39552 2.85222C2.39552 2.67988 2.45153 2.52909 2.55924 2.40414C2.66695 2.2792 2.85653 2.17579 3.12796 2.10254C3.07626 2.06808 3.03318 2.04223 2.99871 2.02931C2.96424 2.01638 2.92977 2.00776 2.8953 2.00776C2.84791 2.00776 2.81344 2.02068 2.78328 2.05084C2.71866 2.11547 2.67988 2.14994 2.66265 2.15424C2.65834 2.10254 2.66265 2.05515 2.67557 2.01207C2.6885 1.96898 2.71866 1.91297 2.76605 1.84403C2.83068 1.7751 2.89961 1.74063 2.97286 1.74063C3.05472 1.74063 3.1452 1.78803 3.2486 1.87851C3.36493 1.99915 3.44248 2.081 3.48988 2.12839ZM1.0685 3.1452C1.0685 3.36494 1.04265 3.55451 0.990952 3.72254C0.93925 3.89057 0.844464 4.03705 0.706592 4.162C0.672124 4.17923 0.641965 4.18785 0.611805 4.18785C0.577337 4.18785 0.534252 4.17493 0.486859 4.14908C0.439466 4.12322 0.400689 4.10599 0.379147 4.09306C0.310211 3.9595 0.262818 3.82594 0.232658 3.68806C0.202499 3.55019 0.189573 3.40801 0.189573 3.25722C0.189573 2.91254 0.280052 2.54632 0.4567 2.15424C0.590263 1.86558 0.788453 1.54245 1.05127 1.18053C1.01249 1.30117 0.930633 1.48643 0.809996 1.74063C0.603188 2.18872 0.499785 2.53339 0.499785 2.77467C0.499785 2.91685 0.517019 3.0418 0.555795 3.1452C0.594571 3.24861 0.663507 3.36063 0.766911 3.48127C0.848772 3.48127 0.904782 3.42957 0.943559 3.32185C0.982335 3.21414 1.02111 3.15813 1.0685 3.1452ZM6.11805 4.24818C5.99741 4.01983 5.82938 3.81733 5.61396 3.64499C5.39853 3.47265 5.17018 3.37355 4.92891 3.34339C4.64024 3.46834 4.42913 3.68806 4.29125 3.99828C4.17492 4.25678 4.11891 4.55838 4.11891 4.90306C4.18354 5.06247 4.27833 5.1745 4.40327 5.23912C4.49375 5.28652 4.62301 5.30806 4.78242 5.30806C4.81258 5.30806 4.89875 5.29945 5.04955 5.28652C5.20034 5.2736 5.31237 5.26497 5.39423 5.26497C5.52779 5.26497 5.63981 5.28221 5.73029 5.31237C5.82077 5.34253 5.89832 5.40715 5.96295 5.50625C5.66997 5.71305 5.37268 5.87678 5.0754 5.99742C4.77811 6.11806 4.43774 6.22576 4.0586 6.32486C3.92072 6.35932 3.58035 6.43688 3.03318 6.55752C2.87807 6.57906 2.73589 6.5963 2.60233 6.60492C2.46876 6.61354 2.34813 6.61784 2.2318 6.61784C1.80095 6.61784 1.43903 6.55322 1.14606 6.42827C0.79707 6.27316 0.529944 6.02326 0.353296 5.67858C0.280052 5.52779 0.241275 5.35976 0.241275 5.17019C0.241275 5.028 0.262818 4.86859 0.305903 4.69625C0.348987 4.52391 0.400689 4.36881 0.4567 4.23094C0.150797 4.73503 0 5.29514 0 5.90263C0 6.15683 0.0861698 6.3938 0.262818 6.61784C0.439466 6.84189 0.641965 6.99268 0.874623 7.07454C1.10728 7.1564 1.32271 7.20811 1.51659 7.23827C1.71047 7.26843 1.92589 7.28134 2.15424 7.28134C2.38259 7.28134 2.61525 7.26411 2.86514 7.22964C3.11504 7.19517 3.352 7.15209 3.57604 7.10039C4.0112 6.99699 4.42912 6.8548 4.82551 6.67816C5.22189 6.50151 5.61396 6.28608 5.99741 6.03188C6.08789 5.87247 6.16114 5.70014 6.20853 5.51487C6.25592 5.32961 6.28177 5.14865 6.28177 4.96339C6.28177 4.82121 6.26885 4.69195 6.24731 4.58424C6.22576 4.47652 6.18268 4.3645 6.11805 4.24818ZM1.85265 4.78242C1.85265 4.88583 1.83972 4.972 1.81818 5.04525C1.79664 5.11849 1.74494 5.19173 1.67169 5.26497C1.61568 5.26066 1.56398 5.24344 1.51659 5.21759C1.46919 5.19173 1.44334 5.15295 1.43042 5.10125C1.43042 4.92891 1.45196 4.76519 1.49935 4.61009C1.5209 4.52823 1.58121 4.39035 1.67169 4.18785C1.676 4.24386 1.65446 4.34296 1.60707 4.47652C1.55967 4.61009 1.53382 4.70918 1.53382 4.77381C1.53382 4.87722 1.58121 4.95907 1.67169 5.0237C1.71909 5.00646 1.75355 4.96338 1.7751 4.89445C1.79664 4.82551 1.82249 4.78673 1.85265 4.78242ZM10.1077 5.42008L9.57346 5.76476C9.47436 5.59242 9.41405 5.47609 9.38389 5.41146C9.32788 5.27359 9.29772 5.14003 9.29772 5.01509C9.29772 4.89014 9.33218 4.76949 9.40112 4.6704C9.41835 4.66609 9.44851 4.66179 9.48729 4.66179C9.59069 4.66179 9.68548 4.69195 9.77165 4.75657C9.81043 4.78673 9.85782 4.82551 9.90952 4.87721C10.0086 5.02801 10.0732 5.20897 10.1077 5.42008ZM5.52348 4.54976C5.45885 4.56269 5.38561 4.57131 5.29944 4.58424C5.21327 4.59716 5.13572 4.60146 5.06678 4.60146C4.90737 4.60146 4.7695 4.57131 4.66178 4.5153C4.61439 4.47652 4.57131 4.43343 4.52822 4.38604C4.48514 4.33864 4.46359 4.29556 4.46359 4.25679C4.46359 4.21801 4.48514 4.17923 4.52391 4.14476C4.57131 4.08014 4.63162 4.04998 4.70487 4.04998C4.81258 4.08444 4.9246 4.1146 5.03231 4.14476C5.10556 4.18354 5.18742 4.24386 5.27359 4.32573C5.35976 4.40759 5.44162 4.48083 5.52348 4.54976Z" fill="white"/>
</svg>
