<svg width="20" height="11" viewBox="0 0 20 11" fill="none" xmlns="http://www.w3.org/2000/svg">
<path fill-rule="evenodd" clip-rule="evenodd" d="M20 2.41631C19.9158 2.43848 19.8404 2.38528 19.7783 2.2567C19.6941 2.09266 19.6231 1.99512 19.5655 1.95965L19.4502 2.09709C19.4857 2.54932 19.5611 3.16559 19.6808 3.94148C19.7961 4.71736 19.8714 5.27599 19.898 5.61738V6.17158C19.898 6.97406 19.8626 7.56374 19.7916 7.94946C19.7207 8.33075 19.601 8.6943 19.4281 9.03569C19.499 8.86722 19.5522 8.67214 19.5832 8.45489C19.6143 8.23764 19.632 8.01153 19.632 7.76768C19.632 7.58147 19.632 7.39525 19.6231 7.20904C19.6143 7.02283 19.6098 6.83662 19.601 6.65041L19.0468 2.23454C19.0246 2.06606 19.0113 1.93749 19.0024 1.85325C18.967 1.57837 18.9271 1.36999 18.8872 1.23698C18.967 1.01087 19.0113 0.877858 19.0246 0.842389C19.0867 0.700514 19.1709 0.589671 19.2685 0.5143C19.4015 0.775883 19.5389 1.09067 19.6719 1.44979C19.7562 1.67591 19.867 1.99956 20 2.41631ZM15.828 1.89315C15.6728 1.89315 15.5309 1.92862 15.4023 1.99955C15.2959 2.07049 15.2161 2.1237 15.1674 2.15916C15.0831 2.18577 15.0166 2.1769 14.9634 2.12813C14.9147 2.07936 14.8792 2.00843 14.857 1.91532C14.8703 1.72468 14.8792 1.56507 14.8836 1.43649C14.8836 1.30792 14.9191 1.19707 14.9856 1.1084C15.0122 1.16604 15.0299 1.23255 15.0299 1.31235C15.0299 1.36999 15.0299 1.42762 15.0211 1.48082C15.0122 1.53846 15.0078 1.5961 14.9989 1.6493C14.9989 1.80004 15.0876 1.86655 15.2649 1.85325C15.3491 1.80448 15.3935 1.72024 15.3935 1.5961C15.3802 1.46309 15.3713 1.36112 15.3713 1.29905C15.3713 1.20151 15.3979 1.11727 15.4556 1.0552C15.4777 1.0818 15.491 1.13057 15.4999 1.19707C15.5088 1.26358 15.5088 1.30348 15.5088 1.32121C15.5088 1.44979 15.5176 1.53846 15.5309 1.58723C15.5442 1.636 15.5841 1.6626 15.6462 1.6626C15.6595 1.6626 15.695 1.65373 15.7526 1.64043C15.7748 1.5961 15.7703 1.53403 15.7482 1.44979C15.7216 1.36555 15.7127 1.31235 15.7127 1.29018C15.7127 1.23254 15.7393 1.18821 15.7969 1.15274C15.8679 1.24585 15.9033 1.36999 15.9033 1.52516C15.9033 1.65817 15.8767 1.78231 15.828 1.89758V1.89315ZM16.2093 0C15.061 0.354689 13.9127 0.704946 12.7732 1.0552C12.4052 1.18821 12.0372 1.32122 11.6781 1.44979C11.2436 1.61827 10.9421 1.82221 10.7648 2.05719C11.288 1.80004 11.8599 1.5695 12.4762 1.35668C12.8752 1.22367 13.4649 1.03746 14.254 0.802482C15.1984 0.527598 15.7881 0.350255 16.0186 0.27045C16.0674 0.243849 16.1162 0.199513 16.1561 0.14631C16.2004 0.0931066 16.2181 0.0443336 16.2093 0.00443117V0ZM16.0497 3.00155L15.6019 3.58679C15.6861 3.65772 15.7748 3.72867 15.8679 3.7996C15.9876 3.89714 16.0497 3.98582 16.0497 4.05675C16.0497 4.08336 16.0408 4.11882 16.0186 4.15429C15.992 4.17646 15.9166 4.26957 15.7969 4.42918C15.7127 4.54445 15.6285 4.59322 15.5398 4.57992C15.3846 4.43804 15.2294 4.29173 15.0831 4.14542C15.0831 4.08779 15.1319 4.02571 15.2339 3.95478C15.2826 3.92817 15.3314 3.87054 15.3846 3.7863C15.4334 3.70207 15.4822 3.64443 15.5354 3.61782C15.5132 3.53802 15.429 3.44934 15.2738 3.35181C15.123 3.25427 15.061 3.16116 15.0876 3.07692L15.6418 2.50055L16.0585 3.01042L16.0497 3.00155ZM14.2186 4.32277C14.2274 4.3937 14.2186 4.47351 14.2008 4.56662C14.1831 4.65972 14.1565 4.76169 14.121 4.87697C14.0767 4.89914 14.0412 4.90801 14.0146 4.90801C13.957 4.90801 13.9082 4.8814 13.8639 4.83264C13.8196 4.78387 13.7929 4.72179 13.7796 4.65086C13.7796 4.41587 13.7885 4.22523 13.8063 4.08335C13.824 3.93705 13.8639 3.773 13.9304 3.58679C13.9393 3.66659 13.9304 3.78187 13.9082 3.93704C13.8861 4.09222 13.8772 4.18532 13.8772 4.21193C13.8772 4.31833 13.8905 4.40257 13.9215 4.46908C13.9481 4.53115 14.0013 4.58435 14.0811 4.62869L14.2186 4.31834V4.32277ZM13.9969 1.69364L13.9348 1.83108C12.7067 2.35425 11.4786 2.88185 10.2549 3.40501C10.4101 3.1124 10.7692 2.87298 11.3279 2.68233C11.7269 2.54933 11.9796 2.44735 12.0949 2.38528C12.7245 2.15917 13.3629 1.92862 14.0013 1.69364H13.9969ZM13.0304 3.52472C12.9151 3.44491 12.7998 3.36511 12.6845 3.28087C12.5693 3.19663 12.454 3.14786 12.3476 3.13013C12.2279 3.26313 12.1436 3.36954 12.0904 3.44048C12.0062 3.56018 11.9486 3.67989 11.922 3.79074L12.3919 4.05675C12.4496 4.09222 12.5072 4.10996 12.5604 4.10996C12.6535 4.10996 12.7422 4.02128 12.8264 3.84394C12.9107 3.66659 12.9772 3.56018 13.0304 3.52472ZM17.7743 2.42961C17.7256 2.19463 17.6458 1.93305 17.5349 1.636C17.4241 1.34338 17.2379 0.931057 16.9763 0.407891C16.8832 0.49213 16.8255 0.558637 16.7945 0.61184C16.7679 0.66061 16.7058 0.829082 16.6127 1.11283C16.6704 1.61826 16.7856 2.29661 16.963 3.15673C17.1758 4.19862 17.3088 4.87697 17.3576 5.18732C17.4773 5.93216 17.5393 6.62825 17.5393 7.27112C17.3709 7.39083 17.2556 7.4662 17.2024 7.4928C17.1492 7.5194 17.0783 7.546 16.9851 7.56817C16.7103 7.56817 16.5063 7.55487 16.3777 7.52383C16.1561 7.47506 15.9832 7.37309 15.8546 7.21348C15.7925 7.16914 15.757 7.11594 15.757 7.045C15.757 7.02283 15.7703 6.9652 15.7925 6.86766C15.8191 6.77012 15.828 6.69918 15.8191 6.65041C15.7127 6.72135 15.4955 6.92529 15.1718 7.25781C14.9102 7.51939 14.6797 7.70117 14.4846 7.80758C14.2895 7.90955 14.0767 7.96276 13.8506 7.96276C13.425 7.96276 13.0747 7.83419 12.7954 7.58147C13.1235 7.35536 13.3496 7.20904 13.4782 7.14697C13.7353 7.01396 13.9792 6.92973 14.2141 6.90313C14.2407 6.84106 14.2895 6.73909 14.3516 6.60608C14.3959 6.4908 14.4137 6.3844 14.4137 6.28686C14.4137 6.26026 14.4048 6.20705 14.3915 6.13611C14.2008 6.09177 13.8861 6.02084 13.456 5.91443C12.8309 5.78142 12.2944 5.71049 11.851 5.71049C11.5939 5.71049 11.3456 5.73709 11.0973 5.78586C10.849 5.83463 10.6229 5.91443 10.4145 6.02084C10.2727 6.07848 10.1884 6.18045 10.1574 6.33119C10.1308 6.48193 10.1042 6.65928 10.082 6.87209C10.1042 6.86322 10.1973 6.82776 10.3569 6.75682C10.4544 6.71248 10.552 6.68145 10.6451 6.65928C10.8579 6.73022 11.0574 6.86322 11.2392 7.05387C11.3545 7.17358 11.5008 7.35979 11.687 7.60807C11.4963 7.72334 11.3057 7.80758 11.1195 7.86522C10.9333 7.92286 10.7293 7.94946 10.5076 7.94946C10.2727 7.94946 10.0599 7.86522 9.86921 7.70117C9.67856 7.5327 9.53225 7.33762 9.43471 7.11151C9.36378 6.77012 9.31501 6.4376 9.29284 6.10951C9.26624 5.78142 9.25737 5.40457 9.25737 4.97008C9.25737 4.92574 9.26624 4.60652 9.27954 4.00798C9.29284 3.40945 9.30171 2.97938 9.30171 2.71337C9.30171 2.34538 9.29284 1.99069 9.27067 1.65373C9.2485 1.31678 9.2086 0.997562 9.1554 0.700511C9.09776 0.758148 9.04012 0.846822 8.97362 0.96653C8.88052 1.14387 8.82731 1.24585 8.81401 1.27688C8.87608 1.71137 8.92042 2.14587 8.94702 2.58479C8.97362 3.02372 8.98249 3.51141 8.98249 4.04345C8.98249 4.28286 8.98249 4.65085 8.97362 5.13855C8.96475 5.62625 8.96475 5.99867 8.96475 6.24695C8.98692 6.45976 9.01352 6.78785 9.04899 7.22678C9.1288 7.86522 9.35934 8.31745 9.7495 8.57903C9.96231 8.67214 10.184 8.71647 10.419 8.71647C10.716 8.71647 11.0086 8.6544 11.2924 8.53026C11.5761 8.40612 11.8599 8.24207 12.1436 8.03369C12.4407 8.27311 12.6712 8.44159 12.8353 8.53469C13.0924 8.68544 13.3496 8.76967 13.6112 8.79184C13.9171 8.79184 14.2053 8.7076 14.4846 8.53469C14.8127 8.33075 15.1585 7.96719 15.5265 7.44846L15.6019 7.85192C15.7216 8.0736 15.9078 8.21547 16.1561 8.28641C16.3068 8.33075 16.5462 8.34848 16.8787 8.34848C17.2556 8.21547 17.5216 7.98936 17.6768 7.67901C17.8054 7.43073 17.8674 7.0982 17.8674 6.67701C17.8674 6.4509 17.8098 5.9366 17.699 5.13412C17.6502 4.7883 17.6236 4.50455 17.6236 4.29173C17.6147 4.2341 17.5526 3.91044 17.4329 3.3252C17.3531 2.94391 17.3177 2.62469 17.3177 2.36754C17.3177 2.27 17.3177 2.19463 17.3265 2.14586C17.3886 2.17247 17.4595 2.22567 17.5393 2.30547C17.6458 2.42075 17.7078 2.48282 17.73 2.49612L17.7743 2.43405V2.42961ZM10.3569 1.86655C10.3126 1.86655 10.286 1.89315 10.2727 1.94192C10.2594 1.99069 10.2461 2.02173 10.2283 2.02616C10.1219 1.96852 10.0687 1.87099 10.0687 1.72911C10.0687 1.66704 10.0776 1.57837 10.0998 1.46309C10.1219 1.34782 10.1308 1.27688 10.1308 1.24141C10.051 1.42762 10.0066 1.54733 9.99335 1.60496C9.95788 1.72467 9.94015 1.85325 9.94015 1.98625C9.94015 2.01286 9.94015 2.06163 9.94901 2.1237C10.0111 2.25228 10.0732 2.31878 10.1308 2.32764C10.2106 2.29217 10.2594 2.23897 10.2815 2.1636C10.3037 2.08823 10.3259 1.99069 10.3569 1.87098V1.86655ZM16.1561 9.43028C16.1782 9.48792 16.1782 9.54556 16.1561 9.59876C16.1339 9.6564 16.0674 9.7495 15.9521 9.88694C15.8945 9.87808 15.8546 9.85148 15.8235 9.79827C15.7969 9.74507 15.7792 9.69186 15.7792 9.63422C15.7659 9.51452 15.7792 9.38594 15.8324 9.25293C15.8457 9.21747 15.9033 9.1022 16.0009 8.91155C15.9654 9.00909 15.9388 9.08889 15.9255 9.15096C15.9122 9.21303 15.9033 9.27511 15.9033 9.34604C15.9033 9.44358 15.9344 9.53226 16.0009 9.61206C16.0364 9.6032 16.063 9.58103 16.0851 9.54112C16.1073 9.50122 16.1295 9.46575 16.1472 9.43028H16.1561ZM10.2948 5.03658C10.2372 5.15628 10.1973 5.24052 10.1663 5.29373C10.1086 5.38683 10.0554 5.45777 10.0066 5.50654C10.1352 5.32033 10.1973 5.11195 10.1973 4.87697C10.1973 4.60208 10.1219 4.3405 9.97561 4.10109C9.96231 4.05675 9.97561 4.00798 10.0199 3.95035C10.0643 3.89271 10.0865 3.86167 10.0953 3.85281C10.2638 4.05675 10.3525 4.32277 10.3525 4.64199C10.3525 4.76169 10.3347 4.8947 10.2993 5.03658H10.2948ZM7.71004 2.02616C7.71004 2.02616 7.65241 1.99513 7.60364 1.95079C7.55487 1.89315 7.51496 1.86212 7.48836 1.85325C7.23121 2.21681 6.92529 2.53602 6.56174 2.8109C6.23365 3.06805 5.86566 3.28087 5.45334 3.44935C5.79472 3.24983 6.11838 3.02372 6.43316 2.76657C6.80115 2.46065 7.11594 2.1503 7.36865 1.83108C7.34205 1.77344 7.25781 1.69807 7.12037 1.5961C6.98293 1.49856 6.91199 1.40989 6.91199 1.33008C6.91199 1.28131 6.94303 1.21481 7.00953 1.12614C7.11594 0.984264 7.24451 0.882286 7.39082 0.815782C7.47506 0.793614 7.546 0.815787 7.60364 0.86899C7.66127 0.926627 7.69674 1.002 7.71004 1.10397C7.6524 1.18821 7.6258 1.27245 7.6258 1.34782C7.6258 1.40989 7.6524 1.4897 7.71004 1.5828C7.76768 1.67591 7.79428 1.75128 7.79428 1.80448C7.79428 1.86655 7.76768 1.93749 7.71004 2.01729V2.02616ZM7.31545 3.8129C7.31545 3.8129 7.27555 3.8794 7.24008 3.96808C7.20461 4.05675 7.15584 4.10109 7.08934 4.10109C7.00953 4.01685 6.97406 3.906 6.97406 3.773C7.00067 3.60895 7.0317 3.44491 7.0583 3.2853C6.9785 3.44935 6.92973 3.56019 6.90756 3.62669C6.86322 3.75527 6.84549 3.87497 6.84549 3.99025C6.84549 4.00355 6.85436 4.05675 6.86766 4.14542C6.88096 4.2341 6.91199 4.30503 6.95189 4.36267C7.00066 4.38927 7.05387 4.38927 7.10707 4.35824C7.16027 4.3272 7.19574 4.2873 7.21791 4.2474C7.24008 4.20306 7.26668 4.14986 7.29772 4.08779C7.32875 4.02572 7.34649 3.97251 7.34649 3.92818C7.34649 3.89271 7.33762 3.85724 7.31545 3.82177V3.8129ZM13.6998 9.50565C13.558 9.63423 13.4294 9.7362 13.3186 9.82044C13.2033 9.90025 13.0791 9.97561 12.9373 10.0377C12.7954 10.0998 12.6624 10.1485 12.5427 10.1796C12.423 10.2106 12.29 10.2283 12.1481 10.2283C12.0771 10.2283 12.0106 10.2239 11.9441 10.2106C11.8821 10.2017 11.8111 10.1707 11.7358 10.1219C11.6604 10.0732 11.6249 10.0066 11.6249 9.91798C11.6249 9.87364 11.6382 9.82931 11.6604 9.78497C11.687 9.74064 11.7313 9.6697 11.7934 9.57659C11.8555 9.48349 11.922 9.40812 11.984 9.35491C11.9264 9.31944 11.8865 9.29284 11.8555 9.27067C11.8289 9.2485 11.7934 9.2219 11.7579 9.18643C11.7579 9.09333 11.8023 9.00022 11.8865 8.89825L12.1215 8.66327C12.2146 8.66327 12.2722 8.68544 12.29 8.72534C12.2988 8.76968 12.2855 8.80958 12.2545 8.85391C12.2235 8.89825 12.1924 8.93815 12.1658 8.98248C12.1436 8.98248 12.1215 8.96032 12.1037 8.92041C12.0816 8.87608 12.055 8.86721 12.0195 8.88938L11.9441 8.95145C11.9796 9.01352 12.0328 9.06229 12.1082 9.08889C12.1835 9.11549 12.2368 9.13766 12.2722 9.15096C12.3786 9.09333 12.485 9.03569 12.5914 8.98248C12.5781 9.08889 12.4451 9.21303 12.1969 9.35934C11.9486 9.50565 11.8244 9.62093 11.8244 9.70516C11.8244 9.7894 11.8909 9.87364 12.0284 9.94901C12.1126 9.97118 12.1969 9.98005 12.2855 9.98005C12.5072 9.98005 12.7511 9.91798 13.0215 9.79827C13.4383 9.60763 13.6688 9.50566 13.7043 9.50122L13.6998 9.50565ZM5.01884 0.886721C4.92574 1.17934 4.78386 1.43205 4.59322 1.65373C4.3671 1.91532 4.11882 2.0705 3.84837 2.1237C3.66216 2.14587 3.48481 2.16804 3.30747 2.18577L3.88384 1.89758C4.11882 1.77788 4.30947 1.65817 4.46021 1.53403C4.18532 1.50743 3.91044 1.47196 3.63999 1.43649C3.40058 1.43649 3.2055 1.49412 3.06362 1.60496C3.11239 1.30791 3.2454 1.09953 3.45821 0.984261C3.67103 0.868987 3.93704 0.80692 4.25626 0.80692C4.37597 0.80692 4.49568 0.815781 4.61095 0.829082C4.72622 0.842383 4.86367 0.860122 5.01884 0.88229V0.886721ZM2.03059 1.55619C2.05276 1.6759 2.03946 1.79561 1.98626 1.90645C1.93749 2.02173 1.85768 2.1104 1.75127 2.18133C1.69364 2.17247 1.6493 2.14587 1.61383 2.09266C1.57836 2.03946 1.55176 1.98182 1.53846 1.92418C1.52516 1.86211 1.51629 1.80005 1.51629 1.72911C1.51629 1.58724 1.53403 1.46309 1.5695 1.35668C1.60497 1.25028 1.66704 1.12614 1.75127 0.984261C1.72911 1.06407 1.70694 1.16161 1.6892 1.28575C1.66704 1.40989 1.65817 1.48969 1.65817 1.52516C1.65817 1.61827 1.66704 1.68477 1.68477 1.73354C1.7025 1.77788 1.73797 1.83551 1.79561 1.89758C1.85768 1.88872 1.90202 1.83995 1.92862 1.74241C1.95522 1.64487 1.98626 1.5828 2.03059 1.55619ZM3.92374 4.15429C3.88827 4.19862 3.8395 4.29617 3.773 4.45134C3.71093 4.60652 3.63556 4.71736 3.55132 4.77943C3.45821 4.75283 3.35181 4.69519 3.2321 4.61095C3.05475 4.49125 2.95278 4.42474 2.92175 4.40701C2.92175 4.29173 2.96608 4.16759 3.05032 4.03458C3.08579 3.97695 3.17003 3.86611 3.30747 3.6932C3.40501 3.7198 3.51142 3.78187 3.61782 3.87941C3.72423 3.97695 3.8262 4.06562 3.92818 4.14986L3.92374 4.15429ZM8.06473 9.25293C8.00266 9.2884 7.92286 9.38594 7.83418 9.54555C7.74551 9.70516 7.66571 9.78497 7.59477 9.78497C7.546 9.78497 7.4928 9.75837 7.43516 9.7096C7.42629 9.70074 7.33762 9.63866 7.16914 9.51895C7.06274 9.43915 7.00953 9.36821 7.00953 9.29727L7.46619 8.7342C7.5992 8.82731 7.74108 8.92042 7.88295 9.00909C7.97606 9.0889 8.03369 9.1687 8.06473 9.25293ZM5.06318 6.77455C5.06318 6.92973 5.01884 7.0716 4.9346 7.20018C4.87697 7.21348 4.83707 7.20904 4.80603 7.19131C4.77943 7.16914 4.73066 7.09821 4.66859 6.9785C4.64642 6.89426 4.63755 6.81002 4.63755 6.73465C4.63755 6.63711 4.65085 6.53513 4.67302 6.43316C4.69962 6.33119 4.73066 6.22922 4.77499 6.13168C4.76169 6.24695 4.75283 6.35779 4.75283 6.47307C4.75283 6.57947 4.76613 6.66815 4.7883 6.74352C4.8149 6.81889 4.85923 6.87209 4.93017 6.90756C4.95677 6.89869 4.97451 6.87209 4.98337 6.82776C4.99224 6.78342 5.01441 6.76569 5.05875 6.77899L5.06318 6.77455ZM7.86078 4.15873C7.70561 4.33607 7.6258 4.55775 7.6258 4.81933C7.68344 5.18288 7.74108 5.53758 7.80758 5.89227C7.60364 6.00754 7.46176 6.07848 7.39082 6.10508C7.24008 6.16271 7.08934 6.18932 6.93416 6.18932C6.89869 6.18932 6.84992 6.18932 6.79229 6.18045C6.73022 6.17158 6.67258 6.15828 6.61494 6.13611C6.4376 6.13611 6.30902 6.04301 6.23365 5.86123C6.18931 5.76369 6.13611 5.60851 6.06517 5.40457C5.95877 5.51097 5.88783 5.61738 5.84793 5.72822C5.80802 5.83906 5.79029 5.95877 5.79029 6.08291C5.79029 6.20262 5.87896 6.53513 6.05631 7.0849C6.13611 7.32432 6.17158 7.52827 6.17158 7.69231C5.86566 8.0736 5.45334 8.39725 4.92574 8.65883C4.62868 8.80958 4.13656 8.99135 3.44491 9.21303C3.15229 9.2618 2.92618 9.29727 2.76214 9.31944C2.59809 9.34161 2.42518 9.35047 2.23897 9.35047C1.88428 9.35047 1.57393 9.29727 1.30348 9.19086C1.03303 9.08446 0.806916 8.89825 0.620705 8.6278C0.514298 8.49923 0.438927 8.36178 0.390157 8.2066C0.345821 8.05586 0.31922 7.88296 0.31922 7.69231C0.31922 7.5593 0.323653 7.45289 0.336954 7.37309C0.350255 7.29328 0.372423 7.16915 0.416759 7.00067C0.461095 6.95633 0.496564 6.84549 0.532033 6.66371C0.567502 6.48193 0.669475 6.41543 0.842385 6.45533C1.00643 6.36222 1.13057 6.22478 1.21924 6.04744C1.30791 5.86566 1.35225 5.59521 1.35225 5.23166C1.32565 5.28043 1.29461 5.3292 1.26801 5.3691C1.18377 5.49767 1.13057 5.57304 1.1084 5.59078C1.0286 5.67058 0.953226 5.69275 0.873421 5.66615C0.767014 5.54644 0.691643 5.4223 0.642873 5.29816C0.598537 5.17402 0.571935 5.04101 0.571935 4.89914C0.76258 4.30947 0.957659 3.7198 1.15717 3.13456C0.829085 3.57349 0.598537 3.92818 0.456662 4.19863C0.22168 4.63755 0.106407 5.03658 0.106407 5.39127C0.106407 5.58191 0.141876 5.76812 0.217247 5.94547C0.292618 6.12281 0.403458 6.28685 0.554201 6.43316C0.412325 6.72578 0.310353 6.96076 0.243848 7.14697C0.15961 7.38639 0.0886722 7.64354 0.0310353 7.91399C0.00886729 8.05587 0 8.19331 0 8.33075C0 8.5879 0.0487697 8.82731 0.141875 9.04899C0.234981 9.27067 0.38129 9.46132 0.571935 9.61649C0.81135 9.8027 1.06407 9.93571 1.32565 10.0155C1.58723 10.0953 1.87098 10.1397 2.1769 10.1397C2.62913 10.1397 3.11683 10.0554 3.63556 9.88251C4.03902 9.74951 4.47351 9.55886 4.9346 9.31944C5.4223 9.1421 5.80802 8.81401 6.08291 8.33961C6.30902 7.95832 6.4642 7.4795 6.53957 6.90313C6.62381 6.92973 6.71248 6.94746 6.80559 6.94746C6.95633 6.94746 7.10707 6.91642 7.25781 6.84992C7.40856 6.78785 7.5593 6.72135 7.70117 6.65928C7.85635 6.5174 7.96719 6.3578 8.03813 6.17602C8.10463 5.99424 8.1401 5.79029 8.1401 5.56418C8.1401 5.35136 8.1135 5.12081 8.05586 4.8681C7.99823 4.61538 7.93172 4.38041 7.85192 4.15873H7.86078ZM3.84837 6.4775C3.85724 6.5573 3.83507 6.63268 3.7863 6.71248L3.47595 6.5307C3.33407 6.95633 3.19663 7.38196 3.05919 7.80758C3.00155 7.65241 2.94835 7.5061 2.89958 7.37752C2.85081 7.24451 2.77544 7.08047 2.6779 6.88096L2.61583 6.99623C2.55819 6.97406 2.50055 6.9519 2.43405 6.92086C2.37198 6.89426 2.34538 6.84106 2.35868 6.77012C2.37198 6.68588 2.38528 6.61494 2.39415 6.56174C2.40301 6.50854 2.42962 6.4642 2.47395 6.42873C2.66016 6.4775 2.78874 6.61051 2.86854 6.82332C2.94835 7.03613 3.02372 7.24008 3.10352 7.43959C3.13899 7.36865 3.1789 7.20018 3.2188 6.92973C3.28974 6.51297 3.43161 6.29129 3.64442 6.26912C3.66659 6.29572 3.70206 6.33119 3.75083 6.36666C3.7996 6.40213 3.83064 6.4376 3.84837 6.47307V6.4775ZM7.51053 1.46752V1.33895C7.5194 1.27688 7.50166 1.22368 7.45733 1.17934C7.41299 1.135 7.36422 1.11727 7.30658 1.11727C7.25781 1.11727 7.20018 1.14387 7.13811 1.19264C7.15141 1.25471 7.20904 1.31235 7.31545 1.35668C7.41742 1.40102 7.48393 1.44092 7.51053 1.46752ZM13.119 6.68145C12.986 6.77455 12.8486 6.86766 12.7156 6.95633C12.5826 7.04944 12.454 7.12481 12.3343 7.17801L11.7712 6.54844C12.0683 6.54844 12.3166 6.5573 12.5161 6.57504C12.7156 6.59277 12.9151 6.62824 13.1235 6.67701L13.119 6.68145Z" fill="white"/>
</svg>
