<svg width="20" height="13" viewBox="0 0 20 13" fill="none" xmlns="http://www.w3.org/2000/svg">
<path fill-rule="evenodd" clip-rule="evenodd" d="M20 2.65675C19.9044 2.5983 19.8193 2.48141 19.7396 2.31137C19.6599 2.14134 19.5855 2.02444 19.5165 1.95536L19.4155 2.18386C19.458 2.6355 19.5271 3.36344 19.6174 4.37832C19.7131 5.38788 19.7768 6.19022 19.8087 6.77471C19.8406 7.35919 19.8619 8.02869 19.8619 8.77789C19.8193 9.09139 19.7556 9.373 19.6759 9.62805C19.5962 9.87779 19.4793 10.1807 19.3252 10.526C19.3783 10.3241 19.4102 10.1116 19.4315 9.89373C19.4527 9.67587 19.4633 9.42084 19.4633 9.12328C19.4633 8.84166 19.4633 8.56004 19.4527 8.28374C19.4421 8.00212 19.4368 7.72051 19.4261 7.44421L18.7992 1.38683C18.7141 1.30181 18.6716 1.20616 18.6716 1.09458C18.6716 0.982995 18.7248 0.839527 18.8363 0.658868C18.9798 0.430388 19.0595 0.286935 19.0808 0.239114C19.2614 0.632313 19.4474 1.04144 19.6493 1.47715C19.8512 1.91286 19.9681 2.30606 20 2.66207V2.65675ZM18.3156 3.0287C18.1456 3.1456 17.9915 3.24123 17.848 3.31562C17.7099 3.39001 17.4708 3.48566 17.1413 3.61319C16.8863 3.70883 16.6366 3.79916 16.3868 3.8948C16.4878 3.7779 16.6259 3.66631 16.796 3.56535C17.0191 3.42189 17.2689 3.28906 17.5558 3.17748C17.8427 3.06058 18.0553 3.00744 18.1987 3.00744C18.2412 3.00744 18.2784 3.01806 18.3156 3.034V3.0287ZM17.7524 6.12646C17.6939 6.29649 17.6461 6.41871 17.6142 6.49841C17.5452 6.64188 17.4336 6.70032 17.2848 6.66313C17.1892 6.51966 17.1467 6.34431 17.1467 6.1424C17.1467 5.98831 17.1679 5.83953 17.2157 5.69075C17.2636 5.54197 17.3326 5.39851 17.4283 5.26568C17.4017 5.36663 17.3751 5.48353 17.3539 5.61637C17.3273 5.74921 17.3167 5.85016 17.3167 5.92986C17.3167 6.0999 17.3539 6.23804 17.4336 6.339C17.492 6.38151 17.5558 6.36026 17.6249 6.26994C17.6939 6.17961 17.7418 6.1371 17.763 6.1371L17.7524 6.12646ZM14.0011 1.24336L13.8629 1.55155C13.0659 1.81722 12.2635 2.07227 11.4665 2.32731C10.4623 2.65675 9.67056 2.93305 9.09671 3.15622C8.31562 3.45377 7.53985 3.78321 6.77471 4.14984C6.79065 4.03294 6.83847 3.92667 6.91286 3.83634C6.98725 3.74602 7.0882 3.66631 7.2051 3.58661C8.39532 3.13496 9.52179 2.72583 10.5845 2.34857C11.8332 1.91287 12.9756 1.54624 14.0011 1.23805V1.24336ZM13.3634 4.22954C13.2784 4.19766 13.1934 4.15515 13.1084 4.11264C13.0234 4.07013 12.9384 4.05421 12.8533 4.05952C12.6727 4.18704 12.5558 4.4102 12.5027 4.73433C12.4495 5.05845 12.4017 5.26036 12.3698 5.34538C12.2582 5.1169 12.1467 4.8778 12.0244 4.62275C11.9075 4.37301 11.7269 4.21892 11.4878 4.1711L11.3709 4.30925C11.3549 4.36239 11.3337 4.41551 11.3124 4.47927C11.2912 4.54304 11.2806 4.61212 11.2806 4.69183C11.2806 4.77153 11.3124 4.82997 11.3709 4.8831C11.3975 4.89904 11.4346 4.91499 11.4878 4.93624C11.5409 4.95218 11.5834 4.9628 11.6153 4.9628C11.7109 4.9628 11.7694 4.93092 11.796 4.86185C11.9926 5.21785 12.1892 5.57386 12.3964 5.93518C12.492 5.79703 12.5558 5.55261 12.5877 5.20192C12.6196 4.85123 12.678 4.6015 12.7524 4.45803C12.779 4.44209 12.8162 4.43145 12.8693 4.43145C12.9384 4.43145 13.0234 4.45803 13.1243 4.50585C13.1562 4.53773 13.1934 4.55899 13.2253 4.55899C13.2678 4.55899 13.2997 4.5271 13.3263 4.46865C13.3369 4.39426 13.3475 4.30925 13.3634 4.22424V4.22954ZM8.32625 1.05208C8.1881 0.913927 8.05526 0.850163 7.91711 0.850163C7.65143 0.945806 7.4814 1.22741 7.39639 1.70563C7.34325 2.01381 7.29543 2.22105 7.2423 2.33263C7.13071 2.05102 7.05101 1.86505 6.99788 1.7694C6.88629 1.54624 6.77471 1.3762 6.6525 1.24867C6.60999 1.19554 6.55685 1.17428 6.49841 1.17428C6.44527 1.17428 6.39745 1.20085 6.34432 1.24867C6.34432 1.28056 6.32306 1.34432 6.28055 1.43465C6.23804 1.52498 6.21679 1.59405 6.21679 1.64719C6.21679 1.70032 6.23804 1.75346 6.28055 1.8119C6.32306 1.80128 6.3762 1.80128 6.44527 1.80128C6.67375 1.80128 6.85441 1.98725 6.98193 2.36451C7.05632 2.60362 7.12009 2.7524 7.17322 2.81084C7.34325 2.29012 7.5186 1.77472 7.69394 1.25399C7.74708 1.22743 7.78959 1.2168 7.83209 1.2168C7.88523 1.2168 7.9543 1.23274 8.04463 1.26993C8.13496 1.30181 8.1881 1.32307 8.20404 1.33369L8.32094 1.06802L8.32625 1.05208ZM18.3103 8.14028C18.2147 7.97025 18.1084 7.85335 17.9809 7.79491C17.8533 7.73646 17.6939 7.70457 17.4973 7.70457C17.3592 7.70457 17.136 7.73645 16.8278 7.80021C16.5197 7.86397 16.2965 7.89586 16.169 7.89586L15.4038 2.29543L15.5685 2.13072C15.6429 2.22636 15.712 2.322 15.7705 2.42295C15.8023 2.4814 15.8608 2.57704 15.9352 2.70457C15.9086 2.39107 15.7917 1.95005 15.5792 1.37619C15.2976 0.621677 15.1382 0.159405 15.0956 0C14.9787 0.0956429 14.8831 0.21786 14.8193 0.371951C14.7556 0.526043 14.6971 0.674819 14.6493 0.818283C14.8034 1.78534 14.9256 2.59299 15.0213 3.24124C15.0372 3.37939 15.1488 4.18704 15.3507 5.66419C15.5526 7.14134 15.6642 7.94899 15.6801 8.08714C15.186 8.27311 14.8193 8.40595 14.5696 8.48034C14.1339 8.60786 13.7513 8.67163 13.4113 8.67163C13.0978 8.67163 12.8108 8.6238 12.5558 8.53347C12.5399 8.47503 12.5452 8.39533 12.5824 8.28906C12.6142 8.1881 12.6355 8.1084 12.6355 8.06058C12.5824 8.10309 12.4761 8.2625 12.3167 8.54411C12.1892 8.76728 12.0351 8.90011 11.8597 8.95324C11.7906 8.97981 11.7269 8.99044 11.6684 8.99044C11.5569 8.99044 11.4559 8.95855 11.3549 8.90011C11.2593 8.84166 11.1637 8.76196 11.068 8.67163C11.0149 8.62912 10.9936 8.57067 10.9936 8.49097C11.0202 8.37408 11.0468 8.25186 11.068 8.13496C10.797 8.40595 10.526 8.67694 10.2657 8.95324C10.1063 9.01169 9.98406 9.05421 9.90967 9.07546C9.83528 9.09671 9.72901 9.10734 9.60149 9.10734C9.44208 9.10734 9.30393 9.07546 9.19235 9.00638C9.07545 8.96387 8.99575 8.8948 8.95856 8.79385C8.92136 8.6982 8.90011 8.58661 8.90011 8.46971C8.90011 8.41127 8.90011 8.32624 8.91073 8.21466C8.62381 8.41657 8.33156 8.61849 8.04463 8.81509C7.69394 9.04357 7.37513 9.16046 7.0882 9.16046C6.99256 9.16046 6.89692 9.14985 6.79596 9.12328C6.60999 9.03826 6.43464 8.91605 6.28055 8.75133C6.12115 8.59192 5.98831 8.41126 5.87673 8.21466C5.66419 7.60892 5.45165 7.00319 5.23911 6.39214C4.98406 5.68544 4.73433 5.09034 4.48459 4.60681C4.17109 3.97982 3.8204 3.43252 3.43783 2.97556C3.37938 3.0712 3.33688 3.19342 3.31031 3.34751C3.28374 3.5016 3.25186 3.69288 3.20935 3.92136C3.66631 4.5271 4.02763 5.08503 4.29331 5.60575C4.60149 6.2168 4.79809 6.82785 4.89373 7.44421C4.46865 8.31031 3.85228 9.03295 3.04463 9.60681C2.23698 10.1807 1.38682 10.4676 0.494155 10.4676C0.377258 10.3666 0.297556 10.2604 0.260361 10.1541C0.223167 10.0478 0.201913 9.92029 0.201913 9.77683C0.201913 9.63868 0.276302 9.30924 0.430393 8.78321C0.499469 8.55473 0.53135 8.36876 0.53135 8.21998C0.435707 8.47503 0.350691 8.72477 0.265675 8.9745C0.0850159 9.50054 0 9.94156 0 10.2869C0 10.4888 0.0265674 10.6801 0.0850159 10.8608C0.138151 11.0414 0.22848 11.2062 0.345377 11.3603C0.430393 11.4346 0.54729 11.4772 0.690755 11.4772C0.75983 11.4772 0.850159 11.4665 0.97237 11.4506C1.08927 11.4347 1.1796 11.424 1.23804 11.424C2.17322 11.1424 2.98619 10.6907 3.67163 10.0744C4.45271 9.37832 4.92561 8.58661 5.08502 7.70457C5.48353 8.7407 5.71201 9.30394 5.75983 9.38895C5.97237 9.71839 6.23805 9.96281 6.56217 10.1169C6.66313 10.1435 6.76408 10.1541 6.85441 10.1541C7.13603 10.1541 7.4389 10.0584 7.75771 9.86185C8.02338 9.68119 8.28374 9.50585 8.54942 9.3252C8.56004 9.41021 8.57598 9.50054 8.60255 9.59087C8.62912 9.68651 8.69288 9.77152 8.79915 9.84591C8.90542 9.9203 9.017 9.98406 9.13921 10.0266C9.25611 10.0425 9.35175 10.0531 9.42083 10.0531C9.94155 10.0531 10.3401 9.82996 10.6217 9.37832C10.7651 9.70244 11.0149 9.8831 11.3762 9.92561C11.4028 9.93623 11.4453 9.93624 11.5037 9.93624C11.7056 9.93624 11.8969 9.83528 12.0669 9.62805C12.1838 9.45802 12.3061 9.28269 12.423 9.10734C12.6036 9.26143 12.7736 9.36239 12.9384 9.42083C13.1031 9.47397 13.2944 9.50585 13.5069 9.50585C13.8045 9.50585 14.1923 9.43145 14.6652 9.27736C15.2763 9.08076 15.6429 8.96918 15.7598 8.94793C15.7758 9.00637 15.8289 9.14984 15.9139 9.38364C15.9671 9.5271 16.0149 9.67057 16.068 9.80341C16.2062 10.0266 16.3549 10.1966 16.5197 10.3241C16.6844 10.4516 16.8757 10.5154 17.0882 10.5154C17.1626 10.5154 17.221 10.5154 17.2529 10.5048C17.6249 10.2657 17.9012 9.92561 18.0818 9.48459C18.2359 9.10202 18.3103 8.661 18.3103 8.15622V8.14028ZM8.52816 6.45589C8.43252 6.48246 8.35813 6.46653 8.29968 6.40277C8.24123 6.33901 8.20404 6.26461 8.18278 6.15834C8.18278 5.97237 8.20935 5.7864 8.2678 5.61105C8.32094 5.43039 8.40064 5.26036 8.50159 5.10096C8.49097 5.1169 8.46971 5.21254 8.42721 5.38257C8.3847 5.55261 8.36344 5.67482 8.36344 5.75453C8.36344 5.90862 8.41127 6.03082 8.50159 6.12646C8.56004 6.15303 8.61849 6.13708 8.66631 6.08926C8.71945 6.01487 8.75133 5.96175 8.76727 5.93518C8.75664 5.9033 8.76727 5.87141 8.7779 5.84485C8.79384 5.81828 8.80978 5.80233 8.81509 5.79171C8.81509 5.9458 8.79384 6.07864 8.75133 6.19554C8.70882 6.31244 8.63443 6.39745 8.52285 6.45589H8.52816ZM11.9182 10.6908C11.8172 10.9564 11.7588 11.1052 11.7375 11.1371C11.6419 11.2965 11.5197 11.3815 11.3656 11.3815C11.2699 11.3549 11.1371 11.3921 10.9617 11.4878C10.7864 11.5834 10.6695 11.6366 10.6111 11.6366C10.542 11.6366 10.4888 11.6153 10.4516 11.5781C10.4145 11.5409 10.3719 11.4559 10.3294 11.3284C10.0319 11.3284 9.69713 11.4506 9.31987 11.7003C8.83635 12.0244 8.52285 12.2051 8.37407 12.2476C8.04995 12.3858 7.80553 12.4814 7.6355 12.5399C7.34857 12.6514 7.09352 12.7205 6.87035 12.7577C7.15728 12.6461 7.51328 12.4814 7.92774 12.2582C8.08183 12.1839 8.44846 11.9819 9.02232 11.6578C9.27736 11.4984 9.53773 11.3337 9.79809 11.1743C9.97875 11.0786 10.1647 11.0149 10.3613 10.983C10.4357 10.983 10.5314 11.0361 10.6429 11.1371C10.7545 11.238 10.8342 11.2912 10.8874 11.2912C10.9564 11.2912 11.0202 11.2168 11.0786 11.0733C11.1052 10.9724 11.153 10.898 11.2168 10.8555C11.2434 10.8714 11.2487 10.9033 11.2434 10.9458C11.2327 10.9883 11.2115 11.0414 11.169 11.1105C11.3231 11.1265 11.4612 11.0999 11.5887 11.0202C11.6312 11.0042 11.6791 10.9458 11.7375 10.8502C11.7906 10.7545 11.8491 10.7014 11.9075 10.6908H11.9182ZM2.31668 1.26461C2.27418 1.34963 2.25292 1.40276 2.25292 1.42933C2.19979 1.43996 2.14134 1.42933 2.06695 1.39213C1.99256 1.36025 1.95005 1.339 1.93411 1.339C1.90223 1.339 1.85972 1.34963 1.81722 1.37619C1.67375 1.54623 1.57279 1.82785 1.52497 2.21573C1.47184 2.60893 1.42933 2.84273 1.39745 2.92774C1.58342 2.97025 1.75345 3.05525 1.90755 3.18278C2.02444 3.29968 2.11477 3.3847 2.17322 3.43783C2.13071 3.6238 1.90755 3.75133 1.50372 3.82041C1.09989 3.88948 0.855473 4.03295 0.770457 4.25612C0.940489 5.1169 1.11583 5.96706 1.29118 6.81722C1.29118 7.0457 1.27524 7.25292 1.24867 7.43358C1.21679 7.61423 1.16366 7.80021 1.08927 7.98618C1.12115 7.89054 1.14772 7.78427 1.16366 7.66737C1.1796 7.55047 1.19022 7.42827 1.19022 7.31138V7.13072C1.17428 7.0457 1.16366 6.98726 1.16366 6.95006C0.993624 6.13178 0.828905 5.31881 0.664187 4.50053C0.664187 4.38364 0.664187 4.27206 0.674814 4.17642C0.685441 4.08077 0.706695 3.97982 0.738576 3.87886C0.834219 3.74071 0.961743 3.63975 1.13177 3.57067C1.35494 3.50159 1.50903 3.45377 1.60468 3.43251C1.5728 3.40595 1.53029 3.37939 1.48778 3.35813C1.40276 3.305 1.32306 3.28374 1.24336 3.28374C1.15834 3.28374 1.08927 3.31031 1.04145 3.35813C0.98831 3.39001 0.945802 3.42721 0.903294 3.45909C0.892667 3.35813 0.924548 3.25186 0.998937 3.14028C1.07333 3.02869 1.16366 2.95962 1.27524 2.92242C1.2221 2.84803 1.11583 2.63018 0.945802 2.27418C0.871413 2.11477 0.791711 1.97663 0.717322 1.86504L0.579171 2.0829C0.356004 2.02976 0.249734 1.89161 0.249734 1.66313C0.249734 1.56748 0.281615 1.48247 0.340064 1.39745C0.356004 1.34432 0.398512 1.31243 0.467588 1.29649C0.536663 1.28055 0.589798 1.27525 0.632306 1.28587C0.770457 1.42934 0.897981 1.62592 1.0255 1.87034C1.12646 2.07226 1.22742 2.2795 1.33369 2.48141C1.4187 2.11478 1.47715 1.84379 1.51435 1.66313C1.58874 1.33369 1.7322 1.0999 1.93411 0.972379C2.06164 0.998946 2.16791 1.02551 2.25292 1.04676C2.33794 1.07333 2.35919 1.1424 2.31668 1.24867V1.26461ZM3.31031 6.99256C3.34219 7.07758 3.34219 7.17322 3.29968 7.27418C3.28905 7.30075 3.23592 7.39107 3.13496 7.55579C3.06057 7.57173 3.00213 7.55579 2.96493 7.51859C2.92774 7.47609 2.88523 7.40169 2.84272 7.30074C2.84272 6.91817 2.92774 6.55686 3.09777 6.2168C3.09777 6.27525 3.08183 6.38152 3.04463 6.53561C3.01275 6.6897 2.9915 6.80128 2.9915 6.88098C2.9915 7.05102 3.05526 7.1679 3.18278 7.23698L3.31031 6.99256ZM4.94155 11.1637C4.95218 11.2593 4.9203 11.3709 4.85654 11.5037C4.79277 11.6366 4.70776 11.7375 4.6068 11.8172C4.53241 11.8332 4.46865 11.8066 4.41552 11.7269C4.37301 11.6312 4.34113 11.5675 4.32519 11.5356C4.32519 11.1955 4.42614 10.8661 4.63337 10.5526C4.60149 10.6695 4.56961 10.7758 4.54835 10.8608C4.5271 10.9458 4.51647 11.0361 4.51647 11.1265C4.51647 11.2646 4.55367 11.3815 4.63337 11.4825C4.70776 11.4825 4.77152 11.4453 4.81403 11.3762C4.85654 11.3018 4.89904 11.2327 4.94155 11.1637ZM17.8587 9.288C17.7152 9.44209 17.5399 9.51647 17.3379 9.51647C17.2848 9.51647 17.221 9.50585 17.136 9.48991C16.9926 9.4474 16.8491 9.34644 16.7003 9.18172C16.5887 9.06482 16.4931 8.91604 16.4081 8.74601C16.4612 8.73538 16.5515 8.71946 16.6897 8.69289C16.8278 8.66632 16.9607 8.65569 17.0988 8.65569C17.1732 8.65569 17.2742 8.66632 17.3964 8.68757C17.5186 8.70882 17.6302 8.75664 17.7205 8.83635C17.7949 8.94793 17.8427 9.03295 17.8587 9.0914C17.8746 9.14985 17.8746 9.2136 17.8587 9.28268V9.288Z" fill="white"/>
</svg>
