<svg width="20" height="11" viewBox="0 0 20 11" fill="none" xmlns="http://www.w3.org/2000/svg">
<path fill-rule="evenodd" clip-rule="evenodd" d="M19.9699 0C19.9914 0.0558659 19.9785 0.111732 19.9269 0.171896C19.8797 0.232059 19.8324 0.283627 19.7937 0.330898C19.6648 0.489901 19.3769 0.580147 18.9385 0.597337C18.5002 0.618824 18.2295 0.743448 18.1349 0.979803C18.2037 0.799313 18.2467 0.696176 18.2682 0.661797C18.3369 0.532875 18.4143 0.434036 18.5045 0.373873C18.8354 0.373873 19.1147 0.348088 19.3468 0.300817C19.5789 0.253546 19.7851 0.154706 19.9699 0ZM20 3.05114C19.9312 3.03825 19.841 2.9566 19.7336 2.81478C19.6777 2.73743 19.6218 2.68586 19.5574 2.66008C19.5445 2.67297 19.523 2.70735 19.4972 2.75892C19.4714 2.81049 19.437 2.83627 19.4027 2.83627L19.755 7.0434C19.755 7.52471 19.7293 7.91577 19.682 8.22089C19.6132 8.63344 19.4929 8.99871 19.321 9.31242C19.4113 8.844 19.4542 8.34121 19.4542 7.79544C19.4542 7.32273 19.4199 6.77267 19.3554 6.14525C19.2909 5.51784 19.2265 4.9162 19.1663 4.34035C19.0546 3.4465 18.9471 2.55264 18.8354 1.65879C18.93 1.474 18.9901 1.36227 19.0116 1.32789C19.089 1.19897 19.1577 1.10443 19.2265 1.04856C19.2394 1.09154 19.3425 1.33219 19.5359 1.77912C19.7679 2.32918 19.9226 2.75032 20 3.04684V3.05114ZM15.78 1.27632C15.8015 1.37946 15.7972 1.44392 15.7757 1.474C15.7499 1.49979 15.7069 1.51698 15.6468 1.51698C15.5565 1.51698 15.4921 1.52557 15.4491 1.54276C15.4061 1.55995 15.3889 1.62011 15.3889 1.72325C15.3631 1.88225 15.333 2.01547 15.3073 2.1272C15.2815 2.23893 15.2342 2.34207 15.174 2.43661C15.1483 2.30769 15.0494 2.16158 14.8818 1.99828C14.7142 1.83498 14.6283 1.69317 14.6283 1.56854C14.6541 1.45681 14.6841 1.39665 14.7099 1.38376C14.8217 1.43103 14.9162 1.52987 14.9979 1.67168C15.058 1.8006 15.1268 1.92952 15.1955 2.05415C15.2514 1.83928 15.2944 1.68457 15.3287 1.58144C15.3889 1.39665 15.492 1.27202 15.6296 1.21186C15.6725 1.22475 15.7026 1.23335 15.7241 1.23765C15.7456 1.23765 15.7671 1.25484 15.7843 1.28492L15.78 1.27632ZM13.2617 1.82209C13.2746 1.87796 13.2703 1.93812 13.2531 2.00688C13.2316 2.07563 13.1972 2.1358 13.15 2.19166C13.0941 2.23893 13.0425 2.23464 12.9953 2.18307C12.948 2.10142 12.9136 2.04555 12.8921 2.01977C12.8921 1.90374 12.9093 1.79631 12.9394 1.69317C12.9695 1.59433 13.0125 1.48689 13.0683 1.37946C13.0769 1.40524 13.0769 1.44392 13.0683 1.49119C13.0425 1.65449 13.0254 1.74044 13.0254 1.74903C13.0254 1.85217 13.0683 1.92523 13.15 1.9639L13.2617 1.81779V1.82209ZM11.7748 1.55565C11.7748 1.71895 11.6975 1.88225 11.5471 2.04125C11.3966 2.18737 11.2462 2.32488 11.1044 2.4624C10.8638 2.53116 10.6231 2.59562 10.3825 2.66008C10.4598 2.59132 10.5544 2.52686 10.6704 2.4624C11.0056 2.27761 11.1904 2.17447 11.2162 2.15299C11.113 2.11861 11.0099 2.09282 10.9024 2.07563C10.795 2.05844 10.679 2.04985 10.5587 2.04985C10.4383 2.04985 10.3266 2.06704 10.2278 2.09712C10.1332 2.1272 10.0473 2.18307 9.96992 2.25612C10.0473 2.05844 10.1418 1.88655 10.2578 1.74903C10.4168 1.55565 10.5844 1.46111 10.7649 1.46111C10.8079 1.45251 10.8681 1.45251 10.9497 1.45251C11.0615 1.45251 11.2119 1.4697 11.4095 1.49979C11.6072 1.52987 11.7275 1.55135 11.7748 1.55565ZM10.3825 0.945424C9.96132 1.13021 9.54448 1.315 9.12333 1.49119C8.86119 1.61581 8.60335 1.73614 8.34981 1.85217C8.1994 1.94671 8.12205 2.07993 8.12205 2.24323C8.37559 2.09282 8.73227 1.90804 9.19639 1.68457C9.43704 1.57284 9.80662 1.40095 10.3008 1.16889L10.3825 0.941127V0.945424ZM16.1495 7.52471C16.0206 7.75677 15.8101 7.95445 15.5221 8.11345C15.2342 8.27246 14.9463 8.34981 14.667 8.34981C14.5037 8.34981 14.379 8.28964 14.2974 8.16502C14.2974 8.0361 14.3318 7.91577 14.4005 7.81263C14.4693 7.7095 14.5724 7.60206 14.7099 7.49463C14.6841 7.48174 14.6498 7.45165 14.6068 7.40868C14.5638 7.36571 14.5337 7.33563 14.5122 7.32273C14.5681 7.19811 14.624 7.09927 14.6755 7.02192C14.7658 6.90589 14.8646 6.82424 14.9764 6.78556C15.0881 6.77267 15.1526 6.79845 15.174 6.86721C15.1826 6.91448 15.1654 6.95746 15.1225 6.99184C15.0623 7.052 15.0279 7.08638 15.0193 7.09497C14.9979 7.09497 14.9678 7.08208 14.9205 7.052C14.8775 7.02622 14.8346 7.02192 14.8002 7.0434L14.7271 7.11646C14.7529 7.17662 14.8002 7.2196 14.8646 7.24538C14.9291 7.27116 15.0021 7.27976 15.0752 7.27976C15.2127 7.23249 15.3502 7.18092 15.4878 7.12505C15.4448 7.24108 15.2213 7.40438 14.8174 7.61066C14.6455 7.7009 14.5595 7.78685 14.5595 7.8685C14.5595 7.92437 14.5939 7.98883 14.6627 8.06618C14.9506 8.06618 15.2213 8.02321 15.4706 7.93726C15.7198 7.85131 15.9476 7.7138 16.1453 7.52901L16.1495 7.52471ZM10.0344 3.73012C10.0086 3.82037 9.97851 3.90632 9.95273 3.98797C9.87538 3.9407 9.78513 3.91491 9.6734 3.91491C9.59175 4.07821 9.51869 4.27589 9.46283 4.50365C9.40266 4.73141 9.3468 4.95058 9.29093 5.16545C9.20928 5.07521 9.13193 4.9162 9.05887 4.68414C8.98582 4.45208 8.91276 4.29308 8.83541 4.20284C8.83541 4.2716 8.82252 4.31457 8.79244 4.33606C8.74946 4.34895 8.71508 4.35754 8.6807 4.35754C8.59905 4.35754 8.54749 4.31887 8.526 4.24581C8.53889 4.12119 8.55608 4.03094 8.57757 3.96648C8.59905 3.90632 8.63773 3.83756 8.70219 3.7688C8.88268 3.81607 9.0116 3.94929 9.09325 4.17276C9.15342 4.36614 9.22217 4.55952 9.29093 4.7486C9.33391 4.67985 9.38548 4.50365 9.44564 4.21573C9.5058 3.9321 9.60894 3.73872 9.74645 3.64418C9.87108 3.62269 9.96562 3.65277 10.0344 3.72583V3.73012ZM17.8126 2.92652C17.5634 2.33348 17.3184 1.74474 17.0692 1.1517C16.9789 1.23335 16.9059 1.33219 16.8414 1.44392C16.777 1.55565 16.7469 1.66738 16.7469 1.77912V1.82639C16.7469 1.85217 16.7469 1.87366 16.7555 1.89514L17.572 6.68242L17.5806 7.44736C17.0047 7.96304 16.4418 8.34981 15.9003 8.60335C15.2686 8.89987 14.6068 9.04598 13.9192 9.04598C13.7344 9.04598 13.5539 8.97293 13.3777 8.82252C13.2015 8.67641 13.0769 8.50451 12.9996 8.31543C12.9222 8.12634 12.8878 7.92007 12.8878 7.69231C12.8878 7.3743 12.9652 7.12935 13.1156 6.94886C13.309 6.90159 13.5281 6.82854 13.7774 6.7254C14.0266 6.62656 14.263 6.52772 14.4908 6.43318C14.6154 6.33863 14.9549 6.15814 15.5135 5.896C15.9519 5.68973 16.2613 5.47916 16.4418 5.26859L16.7211 4.55522C16.2957 4.80877 15.8702 5.06231 15.4405 5.32016C14.9377 5.60378 14.4779 5.7413 14.0567 5.7413C13.945 5.7413 13.8247 5.7327 13.6872 5.71122C13.3348 5.59519 13.0683 5.38032 12.8878 5.06661C12.7073 4.7529 12.6128 4.40052 12.6128 4.00945C13.0125 3.78169 13.382 3.6098 13.7258 3.49377C14.147 3.34766 14.5423 3.2789 14.9205 3.2789C15.1826 3.2789 15.4276 3.31328 15.6639 3.38204H15.737C15.7241 3.35625 15.7069 3.31758 15.6854 3.27031C15.3502 3.01676 14.9205 2.88784 14.4048 2.88784C13.9923 2.88784 13.6227 2.96519 13.2918 3.12419C13.0769 3.24882 12.8964 3.40352 12.7417 3.58831C12.587 3.7731 12.4796 3.97508 12.4151 4.18565C12.3249 4.36614 12.2819 4.55092 12.2819 4.74431C12.2819 4.99355 12.3593 5.26429 12.5097 5.56081C12.6343 5.80146 12.7976 6.04212 13.0039 6.28277C12.6515 6.3945 12.3034 6.44607 11.951 6.44607C11.4353 6.44607 10.9884 6.33434 10.6102 6.10657C10.5758 6.08079 10.5587 6.01203 10.5587 5.9003C10.5587 5.82295 10.5372 5.77568 10.4985 5.75419L10.2836 6.2269C9.81091 6.2269 9.3468 6.36442 8.89128 6.63945C8.57327 6.83283 8.1951 7.15084 7.74817 7.59776C7.48174 7.88139 7.2153 8.15643 6.95316 8.43146C6.40309 9.00731 5.93468 9.41556 5.55221 9.64762C5.49205 9.6691 5.42329 9.6777 5.35453 9.6777C5.15685 9.6777 4.99785 9.60464 4.88182 9.46283C4.82596 9.40696 4.78728 9.3511 4.7572 9.29953C4.73141 9.24366 4.72282 9.1878 4.73571 9.13623C5.29437 8.78384 5.69832 8.47873 5.95187 8.21659C6.35153 7.80404 6.54921 7.36571 6.54921 6.89729C6.54921 6.80275 6.54921 6.7297 6.54061 6.68242C6.54061 6.57929 6.51483 6.43318 6.45896 6.2398C6.35582 5.88311 6.30425 5.65105 6.30425 5.54792C6.30425 5.45337 6.32574 5.35453 6.36442 5.25999C6.3902 5.30296 6.47185 5.32016 6.60077 5.32016C6.57499 5.18264 6.52342 5.05372 6.45466 4.93769C6.44607 4.92479 6.30855 4.7529 6.04211 4.422C5.95187 4.54663 5.89171 4.67555 5.85733 4.81307C5.82295 4.95058 5.80576 5.09239 5.80576 5.23421C5.95187 5.91319 6.09798 6.59218 6.24839 7.26687C6.0679 7.48174 5.85303 7.67942 5.59948 7.8642C5.42759 7.98883 5.18694 8.14783 4.87752 8.34981C4.89901 8.24667 4.94628 8.10056 5.02364 7.90718C5.16115 7.55049 5.2385 7.30555 5.25999 7.17662C5.14396 7.33992 5.02793 7.55479 4.9205 7.81693C4.9119 7.83842 4.82596 8.06618 4.65406 8.50881C4.35754 8.6936 4.08681 8.84401 3.83326 8.95574C3.58401 9.06747 3.30468 9.16631 3.00387 9.24796C2.76321 9.30383 2.53545 9.32961 2.32488 9.32961C1.94671 9.32961 1.59862 9.25655 1.28492 9.10615C0.96691 8.96004 0.700473 8.72798 0.481306 8.41857C0.403954 8.30683 0.356682 8.20799 0.330898 8.11775C0.305114 8.0275 0.296519 7.92007 0.296519 7.78685C0.412548 7.30554 0.528578 6.81994 0.648904 6.33433C0.44263 6.7125 0.296519 7.01762 0.206274 7.25398C0.068758 7.61066 0 7.93726 0 8.23378C0 8.32402 1.76099e-08 8.40997 0.00859477 8.49162C0.0171895 8.57327 0.0300817 8.65062 0.0515686 8.71938C0.120327 8.96863 0.266437 9.19209 0.485604 9.39837C0.666094 9.56167 0.88526 9.71637 1.1474 9.85389C1.3193 9.94843 1.4826 10.0172 1.6416 10.0516C1.8006 10.0859 1.9725 10.1031 2.15728 10.1031C2.50107 10.1031 2.90073 10.0215 3.35196 9.85389C3.53245 9.78513 3.89772 9.63042 4.45638 9.38977C4.45638 9.44993 4.47787 9.53159 4.52514 9.63043C4.56811 9.72927 4.5939 9.79803 4.60249 9.8324C4.68414 9.98281 4.79158 10.0988 4.9205 10.1848C5.04942 10.2664 5.19983 10.3094 5.36313 10.3094C5.42329 10.3094 5.47056 10.3094 5.49635 10.3008C5.84873 10.1203 6.2312 9.82381 6.65234 9.40267C7.00473 9.03309 7.35281 8.66352 7.7052 8.29824C8.13064 7.8642 8.50881 7.55479 8.83971 7.37C9.27804 7.12076 9.75075 7.00043 10.2535 7.00043C10.3782 7.30984 10.52 7.59347 10.6747 7.84701C10.8681 8.14783 11.0786 8.40138 11.315 8.59906C11.431 8.40567 11.5213 8.2037 11.59 7.98883C11.6545 7.77396 11.6889 7.56339 11.6889 7.34852C11.6889 7.25827 11.6889 7.19381 11.6803 7.15084C11.7232 7.15943 11.7877 7.15943 11.878 7.15943C12.0069 7.15943 12.196 7.14224 12.4366 7.10786C12.6773 7.07349 12.8535 7.05629 12.9609 7.05629C12.832 7.31843 12.7202 7.61496 12.63 7.95445C12.6085 8.07048 12.5999 8.18221 12.5999 8.28535C12.5999 8.57327 12.6644 8.83971 12.789 9.08036C12.9179 9.32102 13.0984 9.5101 13.3305 9.64762C13.4895 9.70348 13.6356 9.74216 13.7688 9.75935C13.902 9.78083 14.0438 9.78943 14.1985 9.78943C14.6111 9.78943 15.0365 9.69059 15.4792 9.48861C15.9519 9.26945 16.5836 8.844 17.3657 8.20799C17.5591 7.92007 17.6923 7.63214 17.7697 7.35281C17.847 7.06919 17.8814 6.75548 17.8814 6.40309C17.8814 6.2226 17.8728 6.0593 17.8599 5.91319C17.847 5.76708 17.8255 5.60378 17.7997 5.43189C17.7095 4.95058 17.6193 4.44779 17.5333 3.91921C17.4431 3.39493 17.4001 2.93941 17.4001 2.56124C17.4431 2.60851 17.4989 2.67727 17.5763 2.76751C17.6536 2.85776 17.7396 2.90503 17.8341 2.91362L17.8126 2.92652ZM7.58058 2.76321C7.51182 2.789 7.45165 2.75462 7.39579 2.65578C7.33992 2.55694 7.28406 2.50108 7.23249 2.48389C7.23249 2.73743 7.27976 3.26601 7.3786 4.06102C7.42587 4.46068 7.45165 4.77869 7.45165 5.01934V5.33734C7.45165 5.80576 7.43446 6.20541 7.40009 6.54061C7.36571 6.87581 7.28835 7.20241 7.16373 7.52471C7.2067 7.15943 7.22389 6.80275 7.22389 6.45037C7.22389 5.82295 7.16373 5.09669 7.0477 4.2673C6.93167 3.4379 6.81994 2.64719 6.7168 1.89085C6.69102 1.83498 6.67383 1.77912 6.67383 1.71465C6.67383 1.6373 6.69102 1.55995 6.7297 1.4783C6.76837 1.39665 6.85002 1.26773 6.98324 1.09583C7.15514 1.46111 7.27546 1.72755 7.34422 1.89944C7.46884 2.20026 7.5462 2.48818 7.58058 2.75462V2.76321ZM5.87022 2.81478C5.89171 2.86206 5.88741 2.92222 5.85303 2.99098C5.82295 3.05973 5.79287 3.12419 5.76708 3.18866C5.67684 3.2789 5.58659 3.30468 5.48775 3.27031C5.4104 3.17576 5.37602 3.06403 5.37602 2.93941C5.37602 2.82338 5.4018 2.69446 5.45767 2.55694C5.53932 2.38505 5.59948 2.26472 5.63386 2.19596C5.63386 2.25612 5.60808 2.35496 5.55651 2.48818C5.50494 2.6214 5.47916 2.71594 5.47916 2.77181C5.47916 2.84057 5.50494 2.90933 5.55221 2.97808C5.58659 2.99957 5.61667 3.00816 5.64676 3.00816C5.70262 3.00816 5.74989 2.99098 5.78427 2.9523C5.82295 2.91362 5.85303 2.86635 5.87022 2.81478ZM4.44779 1.58573C4.43919 1.6459 4.39622 1.68027 4.31457 1.68027C4.22432 1.66738 4.15986 1.65879 4.11689 1.65879C4.01375 1.65879 3.95359 1.71036 3.9321 1.81349C3.85045 2.16588 3.7688 2.51397 3.69575 2.86635C3.63558 2.81908 3.53674 2.63 3.40782 2.2991C3.30468 2.04555 3.15428 1.91663 2.9523 1.91663C2.91792 1.88225 2.90073 1.84787 2.90073 1.81349C2.90073 1.77052 2.91792 1.71465 2.9523 1.6416C2.98668 1.56854 3.00387 1.52127 3.00387 1.49119L3.1156 1.40954C3.19295 1.45681 3.33047 1.70176 3.52815 2.1401C3.59691 2.2991 3.67426 2.35496 3.75591 2.31629C3.79888 2.00688 3.83326 1.8049 3.85905 1.71465C3.88483 1.62011 3.9364 1.52557 4.00516 1.43103C4.06532 1.38805 4.14697 1.37086 4.24151 1.37086C4.31887 1.37086 4.37473 1.38805 4.41771 1.42243C4.46068 1.45681 4.46927 1.51268 4.44779 1.58573ZM10.6446 8.78384C10.6446 8.89557 10.6188 8.96863 10.5673 9.0073C10.5157 9.04598 10.4426 9.06317 10.3438 9.06317C10.2278 9.05458 10.1375 9.05458 10.0774 9.05458C9.96132 9.05458 9.89257 9.05458 9.87538 9.05887C9.85819 9.05887 9.82381 9.08896 9.77654 9.13623C9.77654 9.22647 9.79802 9.36829 9.8367 9.57026C9.87967 9.76794 9.89686 9.92265 9.89686 10.0258C9.89686 10.1418 9.87967 10.2407 9.84529 10.3137C9.84529 10.1977 9.81091 10.0215 9.74645 9.79373C9.68199 9.56167 9.64761 9.39837 9.64761 9.30382C9.64761 9.21358 9.65191 9.14912 9.6648 9.10615C9.6734 9.06317 9.69918 9.0116 9.74216 8.94285C9.86678 8.8526 10.0301 8.79244 10.2364 8.75806C10.1805 8.6979 10.1117 8.66352 10.0301 8.66352C10.0043 8.66352 9.96992 8.67211 9.92694 8.685L9.84529 8.77954C9.81091 8.74516 9.81091 8.69789 9.841 8.64203C9.87108 8.58187 9.88827 8.53889 9.88827 8.51311C9.98281 8.45724 10.0559 8.41427 10.1031 8.37989C10.2149 8.37989 10.318 8.42716 10.4125 8.526C10.5157 8.65492 10.593 8.74516 10.6403 8.79244L10.6446 8.78384ZM4.18994 4.48217C4.06532 4.66695 3.94499 4.85174 3.82896 5.04083L3.26171 4.63687C3.28749 4.54233 3.34336 4.4306 3.42501 4.30597C3.48088 4.22432 3.55393 4.11689 3.65277 3.98797C3.7645 4.04813 3.87624 4.11259 3.99226 4.17276C4.12119 4.263 4.18994 4.36614 4.18994 4.48217ZM8.44865 9.5058C8.44865 9.60034 8.43146 9.69059 8.40137 9.77224C8.37129 9.85389 8.31543 9.92694 8.24237 9.98711C8.16072 10.0086 8.09196 9.97851 8.0361 9.90546C8.01461 9.87108 8.00172 9.8281 7.98883 9.78083C7.98023 9.73356 7.97164 9.6734 7.97164 9.60464C7.97164 9.45423 7.99742 9.29953 8.05329 9.14053C8.06188 9.11904 8.09626 9.02879 8.16502 8.87409C8.15213 8.92995 8.13494 9.00731 8.11345 9.10615C8.09196 9.20499 8.08337 9.28234 8.08337 9.3382C8.08337 9.49721 8.13064 9.62183 8.22948 9.72067C8.27675 9.72927 8.31543 9.70778 8.34121 9.66051C8.367 9.61324 8.40137 9.56167 8.44435 9.5058H8.44865ZM1.44392 5.23421C1.40954 5.50924 1.37516 5.71551 1.34078 5.85303C1.28062 6.10228 1.16029 6.26988 0.979802 6.36012C0.739149 6.38161 0.571551 6.28707 0.472712 6.08079C0.42544 5.88741 0.399656 5.68113 0.399656 5.46197C0.399656 5.0838 0.485604 4.68414 0.657499 4.2673C0.782123 3.96648 0.975505 3.6055 1.23335 3.18436C1.12162 3.4465 1.01848 3.70434 0.915342 3.95789C0.790718 4.29308 0.730554 4.5853 0.730554 4.82596C0.730554 4.98496 0.747744 5.12248 0.78642 5.2428C0.825097 5.36313 0.893855 5.48346 0.996992 5.60808C1.05716 5.65105 1.12591 5.64246 1.19897 5.59089C1.27202 5.53932 1.3193 5.47486 1.34938 5.4018C1.35797 5.37602 1.36657 5.34594 1.38376 5.32016C1.40095 5.29437 1.41814 5.26429 1.43962 5.23851L1.44392 5.23421ZM3.61839 6.36012C3.63128 6.44177 3.63988 6.48904 3.63988 6.50623C3.63988 6.58788 3.59691 6.63086 3.50666 6.63086C3.40352 6.61796 3.32617 6.60937 3.27031 6.60937C3.15428 6.60937 3.08552 6.68672 3.06833 6.84572C3.05114 7.00473 3.02965 7.14654 2.99957 7.27546C2.97379 7.40438 2.92222 7.50752 2.85346 7.58917C2.82768 7.56339 2.75892 7.42587 2.65578 7.17662C2.57843 6.99184 2.49248 6.89729 2.39794 6.89729C2.35496 6.89729 2.31199 6.91018 2.26472 6.94027C2.17018 6.96605 2.11861 6.93167 2.11861 6.82853C2.14439 6.7254 2.16588 6.63515 2.17877 6.5621C2.19166 6.48475 2.23464 6.42029 2.3034 6.36442C2.44951 6.42458 2.56983 6.5535 2.66437 6.74689C2.74173 6.91019 2.81478 7.07778 2.89214 7.24108C2.948 6.98754 2.99098 6.79416 3.02535 6.66523C3.09411 6.42458 3.20584 6.30425 3.36485 6.30425C3.45509 6.30425 3.53674 6.32574 3.6141 6.36442L3.61839 6.36012Z" fill="white"/>
</svg>
