<svg width="20" height="14" viewBox="0 0 20 14" fill="none" xmlns="http://www.w3.org/2000/svg">
<path fill-rule="evenodd" clip-rule="evenodd" d="M19.3402 0C19.3182 0.227273 19.1569 0.381231 18.8563 0.469208C18.3871 0.593841 18.1305 0.674492 18.0938 0.703817C17.3534 0.989741 16.6056 1.26834 15.8651 1.55426C15.0367 1.88417 14.3035 2.2214 13.6804 2.55132C13.7463 2.38269 13.8123 2.26539 13.871 2.18475C13.9663 2.04545 14.0836 1.97214 14.2082 1.95015C15.3299 1.48094 16.1804 1.13637 16.7449 0.909095C17.7126 0.527863 18.5777 0.227273 19.3402 0ZM18.0352 3.79766C18.0059 3.95162 17.9765 4.10557 17.9472 4.2522C17.8886 4.42815 17.7786 4.52346 17.6246 4.54545C17.5586 4.55278 17.5 4.52347 17.4633 4.45015C17.4267 4.37684 17.3974 4.32551 17.3754 4.29619C17.346 4.18622 17.3314 4.08358 17.3314 3.97361C17.3314 3.77566 17.3754 3.57038 17.4633 3.34311C17.4853 3.29179 17.5367 3.17449 17.6246 2.9912C17.6026 3.13783 17.588 3.28446 17.566 3.43109C17.544 3.57772 17.5367 3.67302 17.5367 3.70968C17.5367 3.8783 17.566 4.01027 17.6246 4.10558C17.7346 4.16423 17.8152 4.12757 17.8739 4.00294C17.9326 3.8783 17.9839 3.80499 18.0352 3.79766ZM16.5543 2.90323C16.4443 2.80792 16.349 2.71995 16.261 2.65397C16.085 2.50734 15.9238 2.40469 15.7771 2.34604L15.2933 2.93255C15.1979 3.02786 15.1466 3.11584 15.1466 3.19648C15.1466 3.29179 15.2639 3.40176 15.5059 3.52639C15.7478 3.65102 15.8871 3.761 15.9384 3.85631C16.2097 3.58505 16.415 3.26247 16.5543 2.90323ZM19.6628 8.56306C19.5455 8.59971 18.9443 8.89296 17.8592 9.42815C17.1041 9.80205 16.4809 9.98534 15.9824 9.98534C15.7845 9.98534 15.5938 9.96335 15.3959 9.91203C15.1979 9.86071 15.0073 9.78006 14.824 9.66276C14.4795 9.40616 14.2155 9.12024 14.0323 8.80499C13.849 8.48974 13.7537 8.13783 13.7537 7.7566C13.7537 7.64663 13.7537 7.56599 13.7683 7.50734C14.6114 7.18475 15.2786 6.97215 15.7845 6.86951C16.2903 6.76687 16.7595 6.71554 17.1994 6.71554C17.5147 6.71554 17.8226 6.74487 18.1378 6.80352C17.8666 6.48827 17.5073 6.28299 17.0674 6.18768C16.8328 6.13636 16.415 6.11437 15.8211 6.11437C15.2273 6.11437 14.6554 6.34164 14.1202 6.80352C13.6437 7.21408 13.2918 7.71262 13.0792 8.29912C13.0792 9.20088 13.4384 9.96335 14.1496 10.6012C13.8343 10.6012 13.5484 10.5425 13.2845 10.4252C13.0205 10.3079 12.8079 10.1246 12.654 9.86804C12.4194 8.98094 12.2507 7.91056 12.1408 6.67156C12.1114 6.34165 12.0528 5.35923 11.9721 3.73167C11.8915 2.1041 11.7815 0.887104 11.6422 0.0879841C11.5029 0.183292 11.3856 0.329913 11.2757 0.52786C11.195 0.703813 11.1217 0.879767 11.0411 1.05572C11.2537 2.30939 11.3856 3.10117 11.4223 3.44575C11.5323 4.28885 11.5836 5.10265 11.5836 5.89443C11.6496 6.83285 11.7302 7.80792 11.8255 8.81965C11.9208 9.83138 12.1481 10.6525 12.522 11.2757C12.7199 11.4443 12.9252 11.5616 13.1452 11.6349C13.3651 11.7082 13.5997 11.7449 13.8416 11.7449C14.2595 11.7449 14.8534 11.5909 15.6158 11.2903C16.063 11.1144 16.3856 10.9897 16.5836 10.9238C16.8182 10.7478 17.1481 10.5792 17.5806 10.4106C18.4824 10.0586 19.0323 9.78739 19.2375 9.58944L19.6628 8.56306ZM13.7097 4.86803C13.5704 5.30059 13.4971 5.52053 13.4897 5.54252C13.4238 5.68915 13.3358 5.81378 13.2405 5.92375C13.3578 5.80645 13.4384 5.68182 13.4751 5.54986C13.5117 5.41789 13.5337 5.2566 13.5337 5.07331C13.5337 4.90469 13.4897 4.55279 13.4018 4.00294C13.3651 3.74634 13.3504 3.56305 13.3578 3.44575C13.5117 3.58504 13.6144 3.761 13.651 3.98094C13.6877 4.20089 13.7097 4.49413 13.7097 4.86803ZM10.2786 0.425221C10.1393 0.667157 10.0513 0.857772 10 0.997068C9.91202 1.22434 9.86804 1.43695 9.86804 1.64223C9.86804 1.81085 9.91202 1.97214 10 2.14076C10.0587 2.13343 10.1026 2.08945 10.1246 2.0088C10.1466 1.92816 10.1833 1.88416 10.2199 1.87683C10.1979 2.04545 10.1686 2.17742 10.132 2.28006C10.0953 2.3827 10.022 2.45601 9.92669 2.50733C9.86804 2.51466 9.81672 2.50733 9.78006 2.46334C9.7434 2.42669 9.69941 2.36071 9.64809 2.27273C9.64076 2.18476 9.63343 2.11877 9.63343 2.06745C9.63343 1.76687 9.69208 1.46628 9.80938 1.18035C9.92669 0.894429 10.0806 0.637831 10.2786 0.425221ZM20 12.0381C19.8021 12.2361 19.6041 12.4047 19.3915 12.5513C19.1789 12.698 18.9443 12.8152 18.6877 12.9106C18.4311 13.0059 18.1745 13.0499 17.9326 13.0499C17.6906 13.0499 17.4487 12.9985 17.1847 12.8886C17.1041 12.8592 17.0674 12.7933 17.0674 12.698C17.0674 12.6173 17.0968 12.5513 17.1554 12.4927C17.2654 12.3094 17.412 12.1188 17.5953 11.9355C17.5587 11.9282 17.522 11.9062 17.4927 11.8768C17.4633 11.8475 17.4267 11.8035 17.3754 11.7449C17.4047 11.6056 17.4707 11.4809 17.5733 11.3563C17.676 11.2317 17.8006 11.129 17.9472 11.0411C18.0425 11.0337 18.1452 11.063 18.2405 11.1437C18.2331 11.195 18.2038 11.239 18.1525 11.2903C18.1012 11.3416 18.0572 11.3856 18.0059 11.437C17.9106 11.4003 17.8446 11.3783 17.8152 11.3783C17.7786 11.3783 17.7346 11.4076 17.6833 11.4663C17.7933 11.5909 17.9252 11.6569 18.0792 11.6569C18.1305 11.6569 18.1818 11.6422 18.2478 11.6129C18.3138 11.5836 18.3798 11.5543 18.4457 11.5176C18.5117 11.4809 18.5704 11.4663 18.6217 11.4663C18.563 11.6349 18.2918 11.8402 17.8006 12.0821C17.5733 12.1921 17.434 12.3314 17.3754 12.5073C17.4927 12.588 17.61 12.6393 17.7199 12.6686C17.8299 12.6979 17.9545 12.7126 18.0938 12.7126C18.3651 12.7126 18.695 12.632 19.0762 12.4633C19.3768 12.3167 19.6847 12.1774 20 12.0381ZM8.72434 2.65397C8.60704 2.92523 8.54106 3.08652 8.51906 3.12317C8.42375 3.30646 8.32111 3.45308 8.21114 3.56305C8.09384 3.52639 7.93988 3.45308 7.74927 3.34311C7.55865 3.23314 7.44868 3.17449 7.41935 3.15249C7.44868 3.00587 7.51466 2.84457 7.62463 2.66862C7.7346 2.49267 7.83724 2.32405 7.93255 2.15543C8.19648 2.22141 8.46041 2.39004 8.72434 2.65397ZM7.09677 1.77419C7.06745 2.06012 7.03812 2.23607 7.00147 2.31672C6.96481 2.39736 6.90616 2.45601 6.81818 2.50733C6.70088 2.55865 6.6129 2.544 6.56158 2.47068C6.51026 2.39737 6.47361 2.33138 6.46628 2.27273C6.46628 2.0308 6.4956 1.78153 6.55425 1.53959C6.56158 1.48094 6.69355 1.10704 6.93548 0.425221C6.92815 0.505866 6.87683 0.689151 6.78886 0.975075C6.70088 1.261 6.65689 1.48094 6.65689 1.62757C6.65689 1.86217 6.73754 2.02346 6.90616 2.11144C6.93548 2.08211 6.96481 2.02346 6.99414 1.93548C7.02346 1.84751 7.06012 1.79619 7.09677 1.77419ZM5.61584 0.659831C5.59384 0.718482 5.57918 0.762465 5.55718 0.79179C5.52053 0.799122 5.46188 0.791788 5.38856 0.755131C5.31525 0.718474 5.26393 0.703817 5.2346 0.703817C5.20528 0.703817 5.16862 0.718478 5.1173 0.747804C5.05132 0.8871 5.00733 1.13637 4.98534 1.49561C4.96334 1.85484 4.93402 2.11877 4.8827 2.27273C4.77273 2.18476 4.67009 2.06012 4.57478 1.8915C4.31085 1.42229 4.16422 1.17302 4.1349 1.14369L4.09091 1.27566C3.94428 1.23901 3.84897 1.20235 3.80499 1.18035C3.761 1.15836 3.71701 1.09971 3.66569 1.01173C3.68768 0.8871 3.70235 0.755129 3.72434 0.615833C3.761 0.461874 3.84897 0.40323 3.97361 0.439887C4.14956 0.579183 4.30352 0.762471 4.44281 1.00441C4.58211 1.24634 4.71408 1.47361 4.83871 1.70089C4.83871 1.261 4.84604 0.989737 4.86803 0.894429C4.92669 0.601174 5.06598 0.403232 5.29325 0.293262C5.38856 0.315256 5.47654 0.344578 5.54985 0.381235C5.62317 0.417892 5.65982 0.476544 5.65982 0.542526C5.65982 0.571851 5.64516 0.608511 5.61584 0.659831ZM5.55718 2.8739L5.46921 3.25513C5.32991 3.20381 5.2346 3.18182 5.18328 3.18182H5.05865C4.77273 3.18182 4.53079 3.26979 4.32551 3.44575C4.32551 3.739 4.3695 4.07625 4.46481 4.45015C4.56012 4.82405 4.65542 5.18329 4.75073 5.52787C4.78006 5.68182 4.80938 5.8651 4.83871 6.07038C4.86804 6.27566 4.8827 6.45895 4.8827 6.61291C4.8827 6.98681 4.81672 7.33871 4.67742 7.66863C4.70675 7.57332 4.72874 7.44868 4.73607 7.30206C4.7434 7.15543 4.75073 7.07478 4.75073 7.06745C4.75073 6.82551 4.73607 6.62757 4.70674 6.47361C4.67742 6.31965 4.56745 5.91643 4.3695 5.26394C4.30352 5.03666 4.23754 4.80938 4.18622 4.56745C4.1349 4.32551 4.10557 4.12024 4.10557 3.94428C4.10557 3.6217 4.17888 3.33578 4.32551 3.09384C4.3915 3.00587 4.49414 2.93989 4.61877 2.90323C4.7434 2.86657 4.83871 2.83724 4.89736 2.81525C4.78739 2.74926 4.69941 2.71261 4.61877 2.71261C4.56012 2.71261 4.5088 2.7346 4.45748 2.77126L4.32551 2.90323C4.32551 2.90323 4.30352 2.84458 4.31085 2.75661C4.31818 2.66863 4.34751 2.58798 4.39883 2.50733C4.45015 2.3827 4.56745 2.31672 4.7654 2.31672C4.84604 2.31672 4.93402 2.32404 5.02933 2.34604C5.05865 2.37536 5.15396 2.45602 5.30792 2.59531C5.43255 2.70528 5.52053 2.79325 5.55718 2.8739ZM5.68915 8.97361C5.6085 9.14956 5.47654 9.23754 5.27859 9.23754C5.21261 9.23754 5.15396 9.2302 5.1173 9.20821C5.05865 9.14956 5.02199 9.06158 5 8.94428C4.97801 8.82698 4.97067 8.76099 4.97067 8.739C4.97067 8.57038 5.00733 8.40176 5.07331 8.23313C5.1393 8.06451 5.22727 7.89589 5.33724 7.74193C5.34457 7.82991 5.33724 7.92522 5.30792 8.0352C5.21261 8.35044 5.16129 8.51906 5.16129 8.54839C5.16129 8.67302 5.21994 8.77566 5.33724 8.85631C5.41789 8.85631 5.4912 8.81232 5.55718 8.72435C5.57918 8.69502 5.62317 8.62171 5.68915 8.5044C5.75513 8.54106 5.79179 8.59971 5.79179 8.66569C5.79179 8.71701 5.79179 8.75366 5.77713 8.78299C5.72581 8.8783 5.69648 8.94429 5.68915 8.97361ZM10.4399 10.9238C10.4106 11.1584 10.2419 11.327 9.92669 11.437C9.47947 11.5909 9.22287 11.6936 9.16422 11.7449C8.33578 12.1188 7.55132 12.4853 6.81818 12.8592C6.90616 12.566 7.14809 12.3387 7.55132 12.1701C8.11584 11.9355 8.44575 11.7815 8.53372 11.7155C8.76833 11.6349 9.01026 11.5469 9.2522 11.437C9.96334 11.1217 10.3592 10.9531 10.4399 10.9238ZM9.83871 6.71554C9.69208 6.4003 9.47214 6.14369 9.18622 5.94575C8.90029 5.7478 8.58504 5.62317 8.25513 5.57185C7.79325 5.57185 7.45601 5.81379 7.22874 6.30499C7.11144 6.56892 6.96481 6.98681 6.78886 7.56599C6.85484 7.8959 7.02346 8.12317 7.28739 8.24047C7.48534 8.32845 7.76393 8.37243 8.12317 8.37243C8.2478 8.37243 8.37243 8.37243 8.49707 8.37243C8.6217 8.37243 8.739 8.3651 8.8563 8.3651C8.91496 8.3651 8.98094 8.3651 9.06158 8.37243C9.14223 8.37243 9.2302 8.38709 9.32551 8.39443C9.40616 8.39443 9.46481 8.43842 9.50147 8.51907C9.53812 8.59971 9.58211 8.68035 9.61877 8.76099C8.58504 9.12023 7.55132 9.47947 6.52493 9.83138C6.05572 9.91936 5.57918 10.1246 5.08798 10.4472C4.79472 10.6452 4.37683 10.9824 3.82698 11.4589C3.21114 11.9941 2.79326 12.346 2.58065 12.5C2.11144 12.8446 1.64956 13.0719 1.18768 13.1892C0.894428 13.1598 0.63783 13.0352 0.410557 12.8079C0.322581 12.7199 0.26393 12.6246 0.227273 12.5293C0.190616 12.434 0.175953 12.3167 0.175953 12.1774C0.175953 12.0088 0.190616 11.8695 0.227273 11.7449C0.26393 11.6202 0.31525 11.4809 0.381232 11.3123C0.703813 10.8504 1.02639 10.3959 1.34897 9.93402C1.73754 9.40616 2.1261 9.04692 2.50733 8.86363C2.62463 8.70967 2.71994 8.54106 2.79326 8.35778C2.86657 8.17449 2.90323 7.99853 2.90323 7.82258C2.90323 7.80058 2.90323 7.74194 2.88856 7.64663C2.88123 7.55132 2.85924 7.47067 2.82991 7.41202C2.74927 7.44135 2.69062 7.50733 2.65396 7.6173C2.58798 7.84457 2.51466 7.96921 2.44135 7.99121C2.36804 8.0132 2.31672 8.02786 2.28739 8.02786C2.11877 8.02786 2.00147 7.96188 1.93548 7.83724C1.8695 7.66129 1.81818 7.50733 1.79619 7.37536C1.77419 7.2434 1.75953 7.08211 1.75953 6.89883C1.75953 6.46628 1.89883 5.90176 2.18475 5.19794C2.51466 4.3695 2.71261 3.82699 2.77126 3.57039C2.59531 3.82699 2.44135 4.07625 2.31672 4.31818C2.14809 4.64076 1.95015 5.10265 1.71554 5.71115C1.62023 6.05572 1.5176 6.41496 1.40762 6.79619C1.29765 7.17742 1.24633 7.51467 1.24633 7.80792C1.24633 8.06452 1.29032 8.29912 1.37097 8.51173C1.45161 8.72434 1.58358 8.91496 1.75953 9.08358C1.42962 9.50146 1.09971 9.91935 0.777126 10.3299C0.403226 10.8211 0.168622 11.2757 0.0733141 11.6935C0.0439885 11.8328 0.0219945 11.9355 0.0146631 12.0161C0.00733171 12.0968 0 12.1994 0 12.324C0 12.522 0.029326 12.6906 0.0806456 12.8372C0.131965 12.9839 0.227273 13.1085 0.351907 13.2185C0.535191 13.3651 0.703813 13.4677 0.843109 13.5191C0.982405 13.5704 1.1437 13.5997 1.31965 13.5997C1.53226 13.5997 1.7522 13.5484 1.97214 13.4457C2.19208 13.3431 2.41202 13.2111 2.62463 13.0572C2.96921 12.7639 3.31378 12.478 3.66569 12.1921C4.08358 11.8475 4.44282 11.6276 4.73607 11.5323C4.82405 11.4736 5.8871 11.085 7.93255 10.3592C8.67302 10.0953 9.25953 9.7654 9.67742 9.36217C9.82405 9.10557 9.93402 8.8563 10.0073 8.5997C10.0806 8.34311 10.1173 8.07919 10.1173 7.80792C10.1173 7.41936 10.022 7.05278 9.83871 6.72287V6.71554ZM8.91496 7.2434C8.79032 7.2654 8.68768 7.28006 8.60704 7.28739C8.52639 7.29472 8.44575 7.30206 8.35777 7.30206C8.15249 7.30206 7.96188 7.27273 7.79326 7.20675C7.62463 7.14076 7.48534 7.0308 7.39003 6.87684C7.41935 6.79619 7.46334 6.74487 7.52933 6.72287C7.59531 6.70088 7.67595 6.67889 7.77126 6.65689C7.98387 6.65689 8.18182 6.70822 8.3651 6.81086C8.54839 6.9135 8.73167 7.06012 8.91496 7.2434Z" fill="white"/>
</svg>
