<svg width="20" height="15" viewBox="0 0 20 15" fill="none" xmlns="http://www.w3.org/2000/svg">
<path fill-rule="evenodd" clip-rule="evenodd" d="M13.6204 1.51953C13.6204 1.81483 13.5835 2.03014 13.5035 2.15934C13.4236 2.29468 13.3067 2.38696 13.1467 2.44848C13.0298 2.43002 12.9376 2.36235 12.8822 2.23931C12.8699 2.15318 12.8699 2.07936 12.8699 2.03014C12.8699 1.64872 12.9806 1.30421 13.1959 0.996616C13.1652 1.12581 13.1406 1.24885 13.1221 1.37189C13.1037 1.49492 13.0914 1.58105 13.0914 1.63027C13.0914 1.79637 13.1344 1.92556 13.2267 2.01169C13.3436 2.01169 13.4297 1.93787 13.4789 1.78407C13.5281 1.63027 13.5774 1.53799 13.6266 1.51338L13.6204 1.51953ZM20 1.38419H19.9385L13.116 2.93448L9.16026 3.93725C9.08028 3.97416 8.6681 4.07874 7.91756 4.24485C7.4131 4.35558 7.0932 4.57705 6.94556 4.92156C8.77884 4.38019 10.6736 3.86958 12.63 3.39588C14.5863 2.91603 16.5672 2.46693 18.5666 2.04245C18.6835 1.95632 18.9542 1.88865 19.3725 1.85174C19.7908 1.81483 20 1.65488 20 1.37804V1.38419ZM16.6349 6.13965C16.6656 6.27499 16.6472 6.42264 16.5734 6.58259C16.5057 6.74254 16.4134 6.87173 16.2904 6.98247C16.1243 6.92095 16.0135 6.81021 15.9643 6.64411C15.952 6.58259 15.952 6.50261 15.952 6.39188C15.952 5.96739 16.0751 5.62289 16.3211 5.35835C16.2596 5.5183 16.2165 5.6598 16.1796 5.78899C16.1427 5.91818 16.1304 6.01661 16.1304 6.08428C16.1304 6.17041 16.155 6.27499 16.2042 6.39188L16.3642 6.55183C16.4257 6.52107 16.4749 6.4657 16.5118 6.37958C16.5488 6.29345 16.5918 6.21347 16.6287 6.1335L16.6349 6.13965ZM11.4672 0.885881C11.3504 1.08274 11.0981 1.22424 10.7167 1.31652C10.3353 1.40265 10.1015 1.47647 10.0215 1.52568C9.77545 1.60566 9.09874 1.82098 7.98524 2.17779C7.01938 2.48539 6.34266 2.70686 5.94894 2.8422C5.25992 3.08828 4.60166 3.35281 3.96801 3.64196C3.9311 3.57429 3.9434 3.49431 4.01107 3.41433C4.07874 3.32821 4.15257 3.24208 4.23254 3.15595C5.01999 2.87911 5.8136 2.60228 6.6072 2.33159C7.65303 1.96863 8.45278 1.70409 9.01261 1.53184C9.89849 1.2673 10.7167 1.05198 11.4611 0.898185L11.4672 0.885881ZM19.3787 9.1418L19.0957 9.9108L19.1695 10.7229C19.0526 10.7598 18.905 10.7844 18.7265 10.7844C18.5789 10.7844 18.4436 10.7598 18.3144 10.7167C18.1852 10.6736 18.0806 10.606 17.9883 10.526C17.9022 10.4399 17.853 10.3537 17.853 10.2676C17.853 10.2307 17.8714 10.1446 17.9022 10.0215C17.9391 9.89849 17.9391 9.80006 17.9083 9.73239C17.3485 10.4829 17.0348 10.8767 16.9794 10.9259C16.7333 11.135 16.4503 11.2335 16.1366 11.2335C15.9213 11.1843 15.7552 11.1289 15.6321 11.0735C15.466 10.9874 15.343 10.8643 15.263 10.7167C15.2138 10.6552 15.1892 10.5814 15.1892 10.4952C15.2568 10.3353 15.3307 10.1753 15.4106 10.0092C15.4599 9.89849 15.466 9.79391 15.4229 9.68317C14.8139 10.0154 14.2295 10.2984 13.6635 10.526C13.1037 10.7536 12.5008 10.9382 11.861 11.0858C11.0551 11.2827 10.2369 11.3811 9.41249 11.3811C8.90188 11.3811 8.40972 11.3442 7.93602 11.2765C7.60381 11.1473 7.06244 10.9566 6.3119 10.6982C5.70286 10.4214 5.29683 10.0523 5.09997 9.5909C5.06306 9.62166 4.81083 9.90464 4.34943 10.446C4.05414 10.7905 3.75269 10.9628 3.45125 10.9628C3.40203 10.9628 3.34666 10.9628 3.27899 10.9505C3.21747 10.9382 3.15595 10.9259 3.10674 10.9074C2.89757 10.7967 2.73762 10.649 2.62688 10.4522C2.51615 10.2553 2.42387 10.0215 2.3562 9.74469C2.3562 8.502 2.35005 7.44386 2.33159 6.57029C2.31929 5.69671 2.27622 4.74316 2.20855 3.72193C2.14088 2.70071 2.0363 1.80252 1.90095 1.03353C1.79022 1.14426 1.70409 1.26115 1.64257 1.39649C1.58105 1.53184 1.50108 1.70409 1.41495 1.91941C1.54414 2.88527 1.63642 3.765 1.70409 4.56475C1.76561 5.3645 1.80252 6.18887 1.80252 7.04399C1.85174 7.25315 1.8825 7.4131 1.90095 7.53614C1.91326 7.65918 1.92556 7.88065 1.92556 8.20671C1.92556 8.34205 1.92556 8.55122 1.91326 8.8342C1.90095 9.11719 1.90095 9.32636 1.90095 9.4617C1.90095 10.1323 1.96247 10.6552 2.09166 11.0243C2.27007 11.5288 2.59612 11.8979 3.06367 12.1317C3.18056 12.1501 3.26054 12.1624 3.29745 12.1624C3.66041 12.1624 4.04799 11.904 4.46632 11.3811C4.74931 11.0181 4.93387 10.7967 5.01384 10.7167C5.13073 10.9505 5.22301 11.1166 5.27838 11.2027C5.37681 11.3627 5.49985 11.4857 5.64749 11.5718C6.15195 11.9163 6.68102 12.1624 7.2347 12.3039C7.78837 12.4454 8.40357 12.5192 9.07413 12.5192C9.49862 12.5192 9.91695 12.4885 10.3291 12.4331C11.1289 12.3224 11.9163 12.1255 12.6976 11.8425C13.4789 11.5595 14.1987 11.2212 14.8447 10.8397C14.8447 10.9074 14.8324 10.9997 14.8139 11.1227C14.7954 11.2396 14.7831 11.3319 14.7831 11.3873C14.7831 11.4857 14.8016 11.5718 14.8447 11.6518C14.9554 11.8856 15.1153 12.0701 15.3368 12.1932C15.5583 12.3162 15.7921 12.3777 16.0381 12.3777C16.3457 12.3777 16.6226 12.267 16.881 12.0517C17.0655 11.8917 17.2624 11.658 17.4715 11.3442C17.6007 11.6026 17.8038 11.7687 18.0744 11.8487C18.1237 11.861 18.1975 11.8733 18.3021 11.8917C18.4066 11.9102 18.5174 11.9225 18.6343 11.9225C18.7819 11.9225 18.9173 11.904 19.0403 11.861C19.1633 11.8241 19.2618 11.7502 19.3417 11.6518C19.4525 11.418 19.5325 11.1781 19.594 10.9443C19.6555 10.7106 19.6801 10.4583 19.6801 10.1938C19.6801 9.98462 19.6555 9.79391 19.6063 9.60935C19.5571 9.42479 19.4771 9.27099 19.3725 9.1418H19.3787ZM11.701 6.52722L11.5964 6.85328C11.5288 6.85328 11.4426 6.80406 11.338 6.69948C11.2335 6.59489 11.1412 6.55183 11.0674 6.55798C11.0181 6.69333 10.9628 6.95171 10.8951 7.32698C10.8336 7.70225 10.7475 7.97908 10.6367 8.15134C10.5568 8.05291 10.4768 7.91141 10.3845 7.7207C10.2553 7.46232 10.1323 7.20394 10.0154 6.9394C10.0154 7.02553 9.97847 7.07475 9.9108 7.07475C9.77545 7.02553 9.68317 6.99477 9.64626 6.98862C9.56013 6.9394 9.51092 6.87173 9.51092 6.77945C9.52938 6.65026 9.54783 6.52107 9.57244 6.39803C9.62166 6.34882 9.67087 6.2996 9.72624 6.25038C9.78161 6.20117 9.84313 6.18886 9.9108 6.21962C10.0769 6.36727 10.2184 6.58874 10.3414 6.88404C10.5075 7.27776 10.6183 7.51769 10.6675 7.60997C10.7659 7.13011 10.852 6.75484 10.9259 6.49031C10.9997 6.22578 11.0981 6.09043 11.2273 6.09043C11.3442 6.09043 11.5042 6.23808 11.701 6.53337V6.52722ZM4.39249 1.75946C4.32482 1.75946 4.2633 1.80867 4.20794 1.90711C4.15257 2.00554 4.11566 2.06706 4.0972 2.08551C3.93725 2.00554 3.86343 1.88865 3.86343 1.7287C3.86343 1.66103 3.89419 1.53184 3.94955 1.35343C4.01107 1.16887 4.03568 1.03353 4.02338 0.947401C3.96186 1.10735 3.90649 1.26115 3.84497 1.4211C3.73424 1.71639 3.68502 1.98093 3.68502 2.22085C3.72193 2.30083 3.7773 2.3685 3.84497 2.43617C3.91264 2.49769 3.98647 2.52845 4.06644 2.51615C4.21409 2.43002 4.30637 2.28237 4.34943 2.08551C4.36173 2.02399 4.37404 1.91941 4.39249 1.75946ZM18.4313 12.7592C18.4436 12.8391 18.4313 12.9068 18.4066 12.9683C18.382 13.0298 18.2898 13.1529 18.136 13.3374C18.0252 13.3374 17.8899 13.3805 17.7238 13.4728C17.3485 13.6696 17.1209 13.7681 17.0471 13.7681C16.9732 13.7681 16.8994 13.7496 16.8379 13.7189C16.7764 13.6819 16.721 13.6204 16.6595 13.522C16.3765 13.5897 16.0504 13.7066 15.6875 13.8604C15.5767 13.9096 15.263 14.0572 14.7401 14.3033C14.3833 14.4632 14.0572 14.574 13.7496 14.6478C13.442 14.7216 13.0975 14.7585 12.7161 14.7585C13.0606 14.7585 13.442 14.6601 13.8542 14.4632C14.0018 14.3956 14.3525 14.1987 14.9 13.8727C15.3061 13.645 15.6506 13.4851 15.9336 13.3867C16.2904 13.2575 16.6349 13.1959 16.9794 13.1959C17.0286 13.3313 17.1209 13.4051 17.2624 13.4051C17.3116 13.4051 17.3608 13.3928 17.41 13.362C17.4592 13.3313 17.5208 13.2452 17.6007 13.0975C17.6807 12.9499 17.7607 12.8637 17.8345 12.833V13.1406C17.9514 13.1898 18.056 13.1652 18.1544 13.0667C18.2467 12.9683 18.339 12.8699 18.4251 12.7715L18.4313 12.7592ZM1.67948 0.664411C1.53184 0.898185 1.27345 1.11966 0.898185 1.32882C0.406029 1.61181 0.104583 1.80252 0 1.88865C0.0184559 1.75946 0.0615194 1.64257 0.123039 1.54414C0.184558 1.43956 0.276838 1.37189 0.393725 1.32882C0.264534 1.21809 0.141495 1.1135 0.0246078 1.00277C0.0615195 0.81821 0.141495 0.627499 0.258382 0.442941C0.375269 0.258382 0.516764 0.110735 0.689019 0C0.81821 0.0492156 0.922793 0.123039 1.01507 0.22147C1.03353 0.301446 1.01507 0.369117 0.972009 0.436789C0.922793 0.498308 0.879729 0.559828 0.836665 0.621347C0.805906 0.609043 0.75669 0.572132 0.682867 0.50446C0.609043 0.436789 0.559828 0.399877 0.529068 0.399877C0.492156 0.399877 0.455244 0.418333 0.424485 0.461397C0.344509 0.541372 0.31375 0.621347 0.338358 0.713627C0.375269 0.793602 0.436789 0.84897 0.510612 0.885881C0.584436 0.922793 0.676715 0.935097 0.781298 0.935097C0.842817 0.935097 0.904337 0.935097 0.965856 0.922793C1.02738 0.910489 1.09505 0.904337 1.16272 0.892033C1.31037 0.781298 1.4211 0.713627 1.49492 0.676715C1.56875 0.639803 1.63027 0.639803 1.67948 0.670563V0.664411ZM4.88465 6.85328C4.88465 7.03168 4.86004 7.19779 4.80468 7.35774C4.74931 7.51769 4.65703 7.65303 4.51553 7.76992C4.44786 7.78222 4.38019 7.76992 4.31867 7.72685C4.25715 7.68994 4.20178 7.59151 4.16487 7.44386C4.16487 7.00092 4.2633 6.6072 4.46017 6.26269C4.42941 6.37958 4.4048 6.49646 4.38634 6.60105C4.36789 6.71178 4.35558 6.82252 4.35558 6.9394C4.35558 7.09935 4.39865 7.22855 4.49093 7.33928C4.62012 7.33928 4.70624 7.28391 4.74931 7.17933C4.79237 7.06859 4.84159 6.96401 4.8908 6.85328H4.88465ZM5.69671 13.645L5.06306 14.4263C4.81698 14.2971 4.5709 14.1679 4.32482 14.0449C4.17718 13.9342 4.10335 13.8111 4.10335 13.6758L4.94617 12.9068L5.69671 13.645Z" fill="white"/>
</svg>
