<svg width="20" height="9" viewBox="0 0 20 9" fill="none" xmlns="http://www.w3.org/2000/svg">
<path fill-rule="evenodd" clip-rule="evenodd" d="M19.9786 1.70653C19.9429 1.67083 19.9072 1.61728 19.8679 1.5423C19.7929 1.39236 19.7215 1.29597 19.6537 1.24955L19.6037 1.29954L19.9714 5.191C19.9714 5.51231 19.9286 5.81935 19.8393 6.11567C19.7501 6.412 19.6287 6.69404 19.4752 6.95466C19.543 6.82256 19.593 6.66547 19.6251 6.47983C19.6573 6.29418 19.6715 6.10853 19.6715 5.91931C19.6715 5.84077 19.6715 5.71582 19.6644 5.55159C19.6573 5.38736 19.6573 5.26597 19.6573 5.191L19.2217 0.856835C19.2217 0.810423 19.211 0.756875 19.1931 0.699752C19.1717 0.63906 19.1646 0.603357 19.1646 0.592647C19.1646 0.546235 19.1789 0.506961 19.211 0.467689C19.2431 0.431988 19.2931 0.349877 19.3609 0.224921C19.4109 0.121387 19.4716 0.0606948 19.5395 0.0357037C19.6466 0.396289 19.7572 0.753305 19.8643 1.10675C19.8643 1.15673 19.8929 1.25669 19.95 1.40664C19.9857 1.49947 20 1.56373 20 1.603C20 1.62442 19.9929 1.66012 19.9821 1.70653H19.9786ZM16.7583 0.121384L16.6798 0.299892L15.0339 1.0889C15.1267 0.963943 15.241 0.853267 15.3838 0.753303C15.4873 0.68547 15.6337 0.603357 15.8194 0.514103C16.1264 0.382007 16.4406 0.249909 16.7547 0.121384H16.7583ZM16.4655 1.59586C16.4655 1.63156 16.4548 1.66726 16.4298 1.70653C16.3906 1.77437 16.3692 1.81364 16.3692 1.81721C16.3513 1.79579 16.3335 1.77079 16.3192 1.74937C16.2692 1.68511 16.2156 1.66012 16.1657 1.67083C16.1371 1.82078 16.1085 1.97073 16.0764 2.12067C16.0443 2.27062 15.9979 2.40628 15.9336 2.52053C15.9157 2.50268 15.8551 2.38129 15.7444 2.1528C15.6658 1.99215 15.5623 1.89575 15.4373 1.86005C15.4159 1.83149 15.4016 1.79579 15.4016 1.75651C15.4016 1.72795 15.4159 1.68511 15.4409 1.62442C15.4659 1.56373 15.4838 1.52445 15.498 1.49946C15.6016 1.5673 15.6908 1.66726 15.7729 1.79935C15.7944 1.83863 15.8551 1.96002 15.9514 2.15994C15.9514 2.1528 15.9764 2.02785 16.03 1.78151C16.0657 1.62085 16.1228 1.50303 16.2085 1.43163C16.3442 1.43163 16.4298 1.48518 16.4655 1.59586ZM19.0968 5.03034C18.9647 4.95537 18.8218 4.91967 18.6683 4.91967C18.5469 4.91967 18.422 4.93752 18.2863 4.96965C18.1507 5.00535 18.015 5.0482 17.8722 5.09818C17.7365 4.53766 17.6651 4.01999 17.6651 3.53802C17.8186 3.43449 17.9686 3.32024 18.1114 3.19529C18.2756 3.04534 18.4113 2.90611 18.5148 2.77401L18.6505 2.90254C18.6969 2.85612 18.7219 2.82042 18.729 2.79186C18.7362 2.7633 18.7397 2.7276 18.7469 2.68833C18.6505 2.64191 18.6005 2.58122 18.6005 2.50982C18.6005 2.47412 18.6184 2.417 18.6505 2.33845C18.6862 2.25991 18.7005 2.19922 18.7005 2.15994C18.7005 2.12067 18.6933 2.0814 18.6755 2.04927C18.6648 1.97073 18.6112 1.92788 18.5112 1.92788C18.3042 1.95644 18.1649 2.06355 18.09 2.24562C18.0721 2.28133 18.065 2.30989 18.065 2.33845C18.065 2.40628 18.1185 2.47412 18.2221 2.54552C18.3292 2.61335 18.3934 2.6669 18.4149 2.69904C18.2828 2.86326 18.1649 2.99893 18.0543 3.10246C17.8936 3.25598 17.7472 3.35952 17.6187 3.4095L17.4223 1.39593L17.508 1.22456C17.5652 1.29953 17.6294 1.37451 17.6973 1.45305C17.7651 1.53159 17.8329 1.58158 17.8936 1.61014C17.8365 1.45662 17.7437 1.19957 17.6116 0.838988C17.4795 0.478403 17.3545 0.199929 17.2331 0L16.9689 0.478399C17.0903 1.26026 17.1653 1.78865 17.201 2.06355C17.2688 2.64548 17.3045 3.18101 17.3045 3.66655L17.0403 3.8629L17.3331 3.77722L17.5116 5.2517C17.2653 5.37665 17.076 5.4659 16.9368 5.51589C16.7083 5.60157 16.5012 5.64441 16.312 5.64441C16.1407 5.64441 15.9729 5.60871 15.8051 5.53374C15.8158 5.44091 15.8265 5.35166 15.8408 5.25883C15.698 5.40878 15.5587 5.55159 15.4195 5.69439C15.241 5.87647 15.0696 5.9693 14.9054 5.9693C14.8768 5.9693 14.834 5.96216 14.7769 5.95145C14.6341 5.90146 14.5162 5.79436 14.427 5.6337C14.3699 5.53731 14.3056 5.3945 14.2378 5.20528C14.1878 4.74116 14.1485 4.21278 14.1271 3.61657C14.1057 3.02035 14.0843 2.4277 14.0628 1.83863C14.0414 1.24955 14.0057 0.71403 13.9557 0.22849C13.8772 0.285612 13.8058 0.367723 13.7415 0.471257C13.6773 0.578362 13.6487 0.678329 13.6487 0.774723C13.713 1.67083 13.7772 2.56694 13.8451 3.46662C13.8843 3.6844 13.9057 3.93074 13.9057 4.20207V4.31275C13.9057 4.96251 13.9272 5.39093 13.9664 5.598C14.0521 6.04784 14.2592 6.37987 14.5912 6.59051C14.6591 6.60122 14.7126 6.60835 14.7447 6.60835C14.9232 6.60835 15.1053 6.51553 15.2945 6.33345C15.4302 6.1728 15.573 6.01214 15.7158 5.85505C15.8194 5.94073 15.9265 6.00143 16.0371 6.0407C16.1478 6.0764 16.2656 6.09782 16.3941 6.09782C16.5762 6.09782 16.7869 6.05855 17.0296 5.97644C17.2224 5.90147 17.4188 5.82649 17.6116 5.75509C17.658 5.96215 17.7187 6.12995 17.8008 6.26205C17.9043 6.44055 18.04 6.55837 18.2114 6.62264C18.2328 6.62978 18.272 6.62977 18.322 6.62977C18.5005 6.62977 18.6541 6.54409 18.7861 6.37273C18.7969 6.35131 18.8825 6.18351 19.0432 5.87647C19.1503 5.66941 19.2074 5.49804 19.2074 5.36237C19.2074 5.23742 19.1717 5.12674 19.1039 5.02678L19.0968 5.03034ZM15.0518 2.64905C15.0018 2.77401 14.9589 2.87041 14.9304 2.9311C14.8804 3.04534 14.8197 3.12746 14.7519 3.18101C14.8197 3.0739 14.8733 2.96323 14.909 2.85612C14.9447 2.74902 14.9661 2.63477 14.9661 2.51339C14.9661 2.37058 14.934 2.24919 14.8733 2.14566C14.834 2.05284 14.7947 1.96001 14.7519 1.86362C14.7519 1.82435 14.7769 1.78151 14.8304 1.73509C15.0018 1.88504 15.0875 2.09925 15.0875 2.38486C15.0875 2.48839 15.0768 2.57765 15.0518 2.64905ZM16.08 3.47019C16.0514 3.49875 16.0014 3.57372 15.93 3.69868C15.8586 3.82006 15.7872 3.90932 15.7122 3.9593L15.2588 3.60943C15.2874 3.56301 15.3302 3.49875 15.3874 3.41307C15.4802 3.27026 15.5659 3.16672 15.6444 3.10603C15.7515 3.17387 15.8336 3.22742 15.8836 3.25955C15.9871 3.32738 16.0514 3.39878 16.08 3.47376V3.47019ZM12.1885 0.564085L12.1028 0.742593C12.0635 0.731882 12.01 0.71403 11.9493 0.685469C11.885 0.660478 11.8386 0.646197 11.8029 0.646197C11.7922 0.674758 11.7601 0.803286 11.7137 1.02821C11.6637 1.25313 11.603 1.41735 11.528 1.52088C11.4888 1.47447 11.4459 1.3995 11.3995 1.28883C11.296 1.04248 11.2317 0.89968 11.2031 0.860408C11.196 0.917531 11.1674 0.946088 11.1175 0.946088C11.071 0.946088 11.0246 0.928238 10.9818 0.896107C10.9639 0.860405 10.9568 0.824704 10.9568 0.785433C10.9568 0.72831 10.9711 0.674761 10.9996 0.621209C11.0068 0.610498 11.0389 0.560515 11.1032 0.474831C11.2281 0.521243 11.3245 0.628349 11.3959 0.799716C11.4923 1.04963 11.553 1.19243 11.5744 1.22099C11.5959 1.17101 11.628 1.03892 11.6637 0.831846C11.6994 0.624777 11.7779 0.48197 11.8993 0.406997C11.9493 0.424848 11.9886 0.435561 12.01 0.442701C12.0885 0.471262 12.1492 0.510533 12.1885 0.564085ZM12.5241 1.88504C12.5241 1.98857 12.4813 2.09211 12.3956 2.19207C12.3313 2.27062 12.2456 2.34559 12.1385 2.41342C12.0921 2.3563 12.035 2.31346 11.9672 2.28133C11.8993 2.2492 11.8315 2.21707 11.7708 2.18136C11.7994 2.08497 11.8422 1.99572 11.8993 1.91003C11.9564 1.82792 12.0314 1.73866 12.1207 1.6387C12.2528 1.68511 12.342 1.72081 12.3849 1.74937C12.4313 1.77793 12.4777 1.82078 12.5205 1.8779L12.5241 1.88504ZM17.7508 6.93324C17.7615 6.97965 17.7687 7.00821 17.7687 7.01892C17.7687 7.0689 17.7544 7.11888 17.7222 7.1653C17.6901 7.21171 17.6616 7.25812 17.633 7.30096C17.6151 7.31167 17.5901 7.31881 17.5544 7.31881C17.5259 7.31881 17.483 7.30453 17.4259 7.2724C17.3688 7.24027 17.3295 7.22599 17.3045 7.22599C17.276 7.22599 17.2474 7.2367 17.2189 7.26169C17.076 7.44377 16.8583 7.58657 16.5691 7.69011C16.2263 7.79364 15.9729 7.86862 15.8051 7.92217C16.262 7.68297 16.7226 7.44377 17.1831 7.21171C17.1831 7.10817 17.201 7.01178 17.2403 6.91896C17.276 6.82614 17.3402 6.75473 17.4259 6.70475C17.5009 6.69404 17.5616 6.70832 17.6151 6.75116C17.6687 6.794 17.7115 6.85469 17.7508 6.93681V6.93324ZM11.0675 3.00964C11.0746 3.0739 11.0603 3.1453 11.0246 3.22385C10.9889 3.30239 10.9461 3.36665 10.889 3.41307C10.8318 3.3845 10.7854 3.33809 10.7533 3.2774C10.7176 3.21314 10.7033 3.15244 10.7033 3.08818C10.714 2.9668 10.739 2.85969 10.7712 2.75973C10.8069 2.65976 10.8568 2.56337 10.9247 2.47411C10.9032 2.56694 10.8854 2.63834 10.8747 2.68833C10.8461 2.78472 10.8318 2.86683 10.8318 2.93823C10.8318 3.04534 10.8675 3.13102 10.9425 3.18814C10.9818 3.13102 11.0246 3.0739 11.071 3.01678L11.0675 3.00964ZM10.357 2.06712C10.3177 2.08854 10.2535 2.1778 10.1678 2.32774C10.0821 2.47769 10.0036 2.55623 9.93574 2.55623C9.87861 2.55623 9.81792 2.51696 9.75723 2.43484C9.73581 2.38843 9.68583 2.3563 9.61085 2.33131C9.47876 2.2849 9.41807 2.23848 9.43235 2.18493C9.46805 2.15637 9.52874 2.07426 9.62156 1.93502C9.69654 1.82792 9.76437 1.7708 9.82863 1.7708C9.85719 1.7708 9.89647 1.78151 9.95002 1.8065C10 1.82792 10.0643 1.86362 10.1392 1.90646C10.2142 1.9493 10.2892 2.00286 10.3606 2.06355L10.357 2.06712ZM9.37879 2.15994C9.32881 2.24563 9.27526 2.33131 9.22171 2.417C9.16815 2.50268 9.09675 2.58479 9.01107 2.6669C8.86112 2.60978 8.75402 2.56694 8.68618 2.53838C8.55409 2.48126 8.49339 2.40985 8.50768 2.32417C8.55409 2.30275 8.61121 2.22778 8.68261 2.10282C8.75402 1.97786 8.81828 1.9136 8.8754 1.9136C8.92181 1.9136 8.97537 1.94217 9.03963 1.99929L9.38236 2.16351L9.37879 2.15994ZM8.63263 1.25312C8.66833 1.21385 8.68261 1.16387 8.68261 1.10675C8.68261 1.07105 8.64691 0.98893 8.57908 0.856835C8.55052 0.806853 8.53624 0.753303 8.53624 0.703321C8.53624 0.635488 8.55409 0.571225 8.58622 0.514103C8.56837 0.485542 8.54338 0.435558 8.50768 0.367725C8.4684 0.317743 8.42199 0.292751 8.37201 0.299892C8.18993 0.464119 8.09354 0.553374 8.07926 0.564085C8.03284 0.628348 8.01142 0.699747 8.01142 0.778291C8.04713 0.853264 8.09711 0.913962 8.16851 0.967514C8.23991 1.0175 8.31132 1.0639 8.38629 1.10318C8.21492 1.45305 7.89361 1.81007 7.42592 2.17422C6.82613 2.64905 6.45841 2.96323 6.31917 3.11674C6.71189 2.82399 7.11175 2.53481 7.5116 2.24206C7.96858 1.88861 8.29704 1.52445 8.49696 1.15316C8.50768 1.1603 8.52553 1.17815 8.55409 1.21028C8.57908 1.24241 8.60407 1.25312 8.62549 1.24955L8.63263 1.25312ZM6.63692 1.3031C6.64763 1.41021 6.6262 1.50303 6.56908 1.57801C6.53338 1.62799 6.47626 1.65655 6.39772 1.65655C6.37629 1.65655 6.3513 1.64941 6.32988 1.6387C6.25491 1.56016 6.21921 1.46376 6.21921 1.35666C6.21921 1.26027 6.25491 1.13174 6.32988 0.971082C6.36558 0.896109 6.39772 0.821137 6.43342 0.749734C6.44056 0.796146 6.43342 0.849696 6.41557 0.913958C6.35844 1.09604 6.32988 1.19957 6.32988 1.22099C6.32988 1.29954 6.36558 1.37094 6.43342 1.4352C6.5191 1.42449 6.57622 1.38522 6.60478 1.32453L6.64049 1.30668L6.63692 1.3031ZM13.2417 6.82256C13.2524 6.86898 13.2417 6.91539 13.2024 6.96894C13.1667 7.01892 13.1167 7.05105 13.0596 7.06176C12.8597 7.13674 12.6276 7.22599 12.3599 7.33667C12.0957 7.44377 11.7208 7.608 11.2424 7.82578C11.2496 7.76865 11.2674 7.71867 11.3031 7.6794C11.3388 7.64013 11.3816 7.60086 11.4388 7.55801C11.8386 7.38665 12.135 7.26169 12.3313 7.17958C12.7312 7.00821 13.0346 6.88683 13.2381 6.81899L13.2417 6.82256ZM8.40771 3.67012C8.38629 3.80221 8.36844 3.88433 8.35773 3.92003C8.32203 4.00571 8.26847 4.06284 8.1935 4.0914C8.1578 4.10925 8.1221 4.09497 8.0864 4.05213C8.0507 4.00928 8.0257 3.98072 8.01499 3.96287C7.98643 3.89504 7.97215 3.83077 7.97215 3.77365C7.97215 3.68797 7.99357 3.59872 8.03285 3.50946C8.09711 3.38808 8.13995 3.30239 8.16137 3.25241C8.15066 3.30953 8.13638 3.37379 8.1221 3.44163C8.10782 3.50946 8.10068 3.57015 8.10068 3.62014C8.10068 3.75223 8.14352 3.84149 8.2292 3.88433C8.2649 3.87362 8.29704 3.83792 8.32917 3.77722C8.3613 3.71653 8.38629 3.68083 8.41128 3.67012H8.40771ZM3.92717 0.439127C3.94502 0.467689 3.94859 0.503389 3.93431 0.549801C3.91289 0.596213 3.89861 0.628348 3.89147 0.653339C3.80578 0.631918 3.74509 0.617635 3.71296 0.617635C3.68083 0.617635 3.6487 0.628348 3.62014 0.653339C3.52374 0.746163 3.47019 0.917529 3.46662 1.17101C3.45948 1.42449 3.43449 1.59586 3.38808 1.68154C3.33095 1.63513 3.24884 1.49232 3.13816 1.25312C3.05248 1.06033 2.94538 0.960372 2.81328 0.960372C2.69904 0.931811 2.64191 0.853264 2.64191 0.728309C2.64191 0.689037 2.64548 0.660478 2.65619 0.646197C2.66333 0.631916 2.67404 0.603357 2.68119 0.564085C2.68833 0.524813 2.70975 0.506963 2.74545 0.514103C2.84898 0.553375 2.94538 0.631916 3.0382 0.746161C3.06676 0.781862 3.17387 0.967509 3.35594 1.3031C3.39165 1.05676 3.42021 0.871116 3.44163 0.746161C3.48804 0.517671 3.59157 0.403429 3.74866 0.403429C3.80578 0.403429 3.86648 0.414136 3.92717 0.439127ZM8.88968 7.25812C8.86826 7.36523 8.8397 7.45448 8.81114 7.51874C8.78258 7.583 8.72902 7.64013 8.64691 7.68654C8.53981 7.68654 8.47197 7.63656 8.44698 7.53659C8.42199 7.43663 8.40771 7.35094 8.40771 7.28311C8.40771 7.06176 8.48268 6.84042 8.62906 6.62264C8.62906 6.66905 8.62192 6.72974 8.60407 6.81185C8.5648 7.00107 8.54338 7.12246 8.54338 7.17958C8.54338 7.30453 8.58265 7.40093 8.66476 7.46162C8.71117 7.46162 8.75045 7.42949 8.78615 7.36165C8.82185 7.29739 8.85398 7.26169 8.88968 7.25455V7.25812ZM12.9168 4.59479C12.8026 4.32702 12.6383 4.10211 12.4206 3.92717C12.1814 3.73438 11.9243 3.63441 11.6494 3.63441C11.4102 3.74866 11.221 3.92717 11.0889 4.17351C10.9532 4.41985 10.889 4.68047 10.889 4.9518C10.9282 5.02677 10.9711 5.08747 11.0139 5.13745C11.0568 5.18743 11.1067 5.22314 11.1639 5.2517C11.221 5.29811 11.2853 5.33024 11.3602 5.35166C11.4352 5.37308 11.5137 5.38022 11.5994 5.38022C11.628 5.38022 11.7137 5.37308 11.8565 5.3588C11.9993 5.34452 12.1064 5.33738 12.1814 5.33738C12.3063 5.33738 12.4099 5.3588 12.4848 5.39807C12.5634 5.43734 12.6241 5.50875 12.6705 5.61228C12.2706 5.84077 11.8708 6.01928 11.4745 6.1478C11.0782 6.27633 10.6676 6.34059 10.2463 6.34059C10.0536 6.31203 9.87504 6.24063 9.71082 6.12281C9.54659 6.005 9.43235 5.85862 9.36451 5.68012L9.80007 5.44092C9.98929 5.29097 10.1321 5.10889 10.2321 4.88754C10.332 4.66619 10.382 4.44127 10.382 4.20564C10.3177 4.01642 10.2321 3.85934 10.125 3.73438C9.99286 3.58087 9.84291 3.49161 9.67155 3.47019C9.43592 3.52731 9.25027 3.69511 9.1146 3.97715C9.10746 3.98429 9.02178 4.22706 8.85041 4.7126C8.81471 4.76258 8.80043 4.82328 8.80043 4.89111C8.80043 4.91253 8.80757 4.96966 8.82185 5.05534C8.83613 5.14102 8.84327 5.20528 8.84327 5.24456C8.84327 5.31953 8.82185 5.37308 8.77901 5.40878C8.73617 5.44448 8.65762 5.45519 8.54338 5.44448C8.45055 5.51232 8.37558 5.54802 8.31132 5.54802C8.24348 5.54802 8.18993 5.4909 8.1578 5.37665C8.07212 5.10175 7.98643 4.9518 7.90075 4.92324C7.82221 4.84827 7.72938 4.79472 7.62585 4.76616C7.52231 4.73403 7.39379 4.70903 7.24027 4.68404C7.02963 4.79114 6.86898 4.96251 6.76187 5.191C6.6869 5.35166 6.6262 5.57658 6.57265 5.86933C6.61906 6.01214 6.70118 6.10853 6.81542 6.16208C6.93324 6.21207 7.07961 6.24063 7.25812 6.24063C7.35095 6.24063 7.47947 6.23349 7.6437 6.21564C7.80793 6.19779 7.92217 6.19064 7.98643 6.19064C7.69368 6.48697 7.37237 6.7583 7.01892 7.00107C6.66548 7.24384 6.30132 7.43663 5.93003 7.57943C5.82292 7.60085 5.70868 7.62942 5.59086 7.65798C5.47305 7.68654 5.36951 7.70082 5.27669 7.70082C5.16958 7.70082 5.06962 7.6794 4.97679 7.63656C4.88397 7.59372 4.81257 7.52945 4.75544 7.4402C4.69832 7.35094 4.65905 7.27597 4.6412 7.21885C4.61978 7.15816 4.61264 7.09033 4.61264 7.01892C4.61264 6.9261 4.62692 6.84756 4.65905 6.77972C4.69118 6.71189 4.74473 6.63691 4.81614 6.55837C4.83756 6.52981 5.05177 6.34773 5.45876 6.00857C5.60871 5.88361 5.72296 5.7658 5.8015 5.6587C5.9086 5.52303 5.98715 5.36951 6.03713 5.20171C6.08711 5.03391 6.10853 4.85541 6.10853 4.66619C6.10853 4.47697 6.09425 4.30203 6.06212 4.11639C6.02999 3.93431 5.96216 3.68083 5.85148 3.35237C5.88004 3.31667 5.90503 3.30239 5.93003 3.30239C5.95859 3.30239 5.99786 3.31667 6.05141 3.34523C6.07997 3.34523 6.10139 3.32024 6.11924 3.26669C6.09782 3.25955 6.06926 3.25598 6.03356 3.24884C6.05141 3.1703 6.01214 3.05605 5.91217 2.9061C5.78722 2.71689 5.71582 2.60264 5.69796 2.56337C5.63013 2.59907 5.57301 2.66691 5.5266 2.77401C5.48019 2.88112 5.44091 2.97751 5.40521 3.07033C5.44091 3.27026 5.49447 3.52731 5.56944 3.84148C5.72296 4.50553 5.81935 4.93038 5.85148 5.1196C5.53731 5.41235 5.2267 5.65869 4.92324 5.86576C4.61621 6.07283 4.27704 6.26562 3.89861 6.4477C3.62371 6.57979 3.33095 6.68333 3.01678 6.76544C2.70261 6.84398 2.39557 6.88682 2.09211 6.88682C1.78865 6.88682 1.52089 6.84042 1.25312 6.75116C0.985362 6.65834 0.760443 6.52267 0.574795 6.34059C0.46055 6.20492 0.382006 6.06212 0.339165 5.91931C0.296323 5.77651 0.274902 5.61228 0.274902 5.42306C0.274902 5.20171 0.317744 4.93038 0.403427 4.61621C0.424848 4.53766 0.503392 4.28061 0.635487 3.85219C0.428418 4.29846 0.289182 4.62335 0.214209 4.83042C0.0714031 5.23027 0 5.58729 0 5.90146C0 6.1121 0.0357015 6.31203 0.107105 6.50125C0.178508 6.69047 0.289182 6.86183 0.435559 7.01535C0.653338 7.19386 0.888968 7.31881 1.14602 7.39736C1.40307 7.4759 1.67797 7.5116 1.96715 7.5116C2.38486 7.5116 2.82399 7.43663 3.28811 7.29025C3.68083 7.1653 4.07354 6.99393 4.46269 6.77615C4.41271 6.89753 4.37701 7.01178 4.35559 7.12603C4.33417 7.24027 4.32703 7.37594 4.32703 7.52945C4.34845 7.70796 4.42342 7.87219 4.54481 8.02213C4.66619 8.17208 4.81614 8.27205 4.9875 8.31846C5.36594 8.31846 5.73724 8.23992 6.10139 8.07926C6.40843 7.94359 6.73331 7.74366 7.0689 7.47947C7.29739 7.29739 7.59015 7.0332 7.95073 6.69047C7.99 6.45484 8.10782 6.26919 8.30061 6.13352C8.45055 6.02999 8.65405 5.95502 8.91824 5.90146C8.98251 6.06212 9.05391 6.21207 9.13959 6.35487C9.22528 6.49768 9.32167 6.61907 9.43235 6.7226C9.70725 6.87255 10.0071 6.94395 10.332 6.94395C10.6926 6.94395 11.0996 6.85113 11.5566 6.66191C11.8993 6.5191 12.2778 6.32631 12.6883 6.07997C12.7919 5.90146 12.8704 5.73367 12.9275 5.57301C12.9846 5.41235 13.0132 5.24456 13.0132 5.06605C13.0132 4.88754 12.9811 4.74473 12.9204 4.61264L12.9168 4.59479ZM3.49875 2.69189C3.47733 2.77758 3.43449 2.8704 3.37737 2.9668C3.35594 3.00607 3.29525 3.09532 3.19886 3.23099C3.1703 3.21314 3.09532 3.181 2.97751 3.12745C2.80614 3.05248 2.71689 2.97394 2.71332 2.88825L3.00607 2.417C3.18815 2.49197 3.35594 2.58122 3.50232 2.69189H3.49875ZM4.70546 4.06997C4.68404 4.15566 4.66262 4.21278 4.6412 4.24491C4.61978 4.27704 4.58765 4.27704 4.54123 4.24848C4.51267 4.23063 4.49125 4.21992 4.4734 4.20921C4.45555 4.20207 4.4377 4.1985 4.41271 4.20564C4.37344 4.27347 4.33417 4.38058 4.30203 4.52338C4.22706 4.87326 4.18422 5.05891 4.17351 5.08033C4.04855 4.86255 3.9236 4.64477 3.79507 4.43056C3.74866 4.51625 3.70225 4.53767 3.6487 4.4984C3.59157 4.47697 3.56301 4.43413 3.56301 4.36987C3.56301 4.33417 3.57015 4.29489 3.58443 4.24848C3.59871 4.20207 3.60943 4.16994 3.613 4.15566C3.66298 4.0914 3.7201 4.06997 3.77722 4.08782C3.94859 4.25919 4.07354 4.46626 4.15566 4.70546C4.20564 4.51624 4.24491 4.37344 4.26633 4.27704C4.31632 4.08782 4.39486 3.995 4.49839 3.995C4.54838 3.995 4.61978 4.01999 4.70546 4.07355V4.06997ZM1.38165 2.99179C1.32453 3.21314 1.27811 3.37737 1.24598 3.4809C1.18172 3.67012 1.09604 3.80222 0.981792 3.88433C0.856837 3.90575 0.746162 3.87362 0.656908 3.78079C0.560514 3.54516 0.510532 3.30239 0.510532 3.04534C0.510532 2.71332 0.589075 2.35273 0.749732 1.96715C0.853267 1.71724 1.02463 1.38879 1.26383 0.981792C1.22813 1.10318 1.15673 1.29954 1.04963 1.57444C0.878258 2.01357 0.792574 2.35273 0.792574 2.5955C0.792574 2.81685 0.842556 3.02392 0.946091 3.21314C0.974652 3.25955 1.01392 3.28097 1.06748 3.28097C1.10675 3.28097 1.14602 3.27026 1.18172 3.24527C1.21742 3.22385 1.24955 3.17744 1.27454 3.10961C1.29954 3.04177 1.33524 3.0025 1.38165 2.99893V2.99179ZM2.20278 4.88397C2.2135 4.9518 2.20278 5.02677 2.15994 5.10175C2.12067 5.18029 2.08854 5.23741 2.06712 5.27669C2.03856 5.30525 2.00286 5.31953 1.96358 5.31953C1.92431 5.31953 1.89575 5.30525 1.8779 5.27669C1.81364 5.18029 1.78508 5.07676 1.78508 4.96965C1.78508 4.86612 1.81721 4.7483 1.8779 4.61264C1.94216 4.47697 1.99929 4.35202 2.05641 4.23063C2.06355 4.28776 2.04927 4.36273 2.01357 4.45198C1.92074 4.68761 1.8779 4.82328 1.8779 4.86255C1.8779 4.90182 1.88504 4.94109 1.90289 4.98394C1.92074 5.02321 1.97072 5.06248 2.05641 5.09461C2.07426 5.07676 2.09211 5.03749 2.1171 4.98036C2.13852 4.91967 2.16708 4.88754 2.20278 4.8804V4.88397ZM18.5255 2.43484C18.4613 2.39914 18.4113 2.37058 18.3684 2.34202C18.3256 2.31346 18.2863 2.27776 18.2542 2.23135C18.3006 2.19564 18.347 2.18136 18.3899 2.18136C18.5041 2.18136 18.5505 2.24563 18.5255 2.37058V2.43842V2.43484ZM18.8683 5.75866C18.8683 5.80864 18.8397 5.85148 18.7826 5.88719C18.754 5.90504 18.704 5.93359 18.6362 5.97287C18.6148 5.98358 18.5755 5.99072 18.5255 5.99072C18.4684 5.99072 18.4113 5.97644 18.3577 5.95145C18.3042 5.92645 18.2506 5.89075 18.2006 5.84434C18.1507 5.80864 18.1114 5.76937 18.0864 5.71939C18.0614 5.6694 18.04 5.62299 18.0221 5.57658C18.0614 5.56944 18.1292 5.55873 18.2292 5.53731C18.3256 5.51588 18.4077 5.50874 18.4684 5.50874C18.5648 5.50874 18.6469 5.5266 18.7183 5.56587C18.7861 5.60157 18.8397 5.66584 18.8718 5.75866H18.8683ZM17.5402 7.04391C17.5187 7.00464 17.4902 6.97608 17.4616 6.95823C17.4331 6.92967 17.3938 6.92253 17.3402 6.93324C17.3295 6.96894 17.3545 6.99393 17.4223 7.01178C17.4866 7.02963 17.5259 7.04034 17.5366 7.04748L17.5402 7.04391ZM8.4327 0.838988C8.38272 0.828278 8.33274 0.803282 8.2899 0.767581C8.24705 0.731879 8.20778 0.69261 8.17565 0.653339C8.21135 0.589076 8.25776 0.560511 8.32203 0.560511C8.37915 0.560511 8.41485 0.592646 8.4327 0.653339V0.842556V0.838988ZM12.2813 4.70189C12.2456 4.70903 12.1921 4.71617 12.1171 4.72331C12.0421 4.73045 11.9779 4.7376 11.9207 4.7376C11.7994 4.7376 11.6851 4.71974 11.5709 4.68761C11.4566 4.65191 11.3638 4.59836 11.296 4.52338C11.2853 4.48768 11.2781 4.46269 11.2781 4.44484C11.2781 4.40914 11.296 4.37344 11.3352 4.3306C11.3709 4.28776 11.4388 4.26633 11.5352 4.26633C11.5744 4.26633 11.628 4.27347 11.6994 4.28418C11.9172 4.35916 12.11 4.49839 12.2813 4.70546V4.70189ZM10.0286 4.80543C9.93574 4.87326 9.83577 4.93752 9.72153 4.99465C9.60728 5.05177 9.42877 5.13031 9.18958 5.2267C9.16101 5.06248 9.14316 4.94823 9.13245 4.88397C9.12531 4.8197 9.11817 4.73045 9.11817 4.60907C9.11817 4.53053 9.12531 4.45198 9.13602 4.37701C9.14673 4.30203 9.16458 4.24134 9.186 4.18779C9.22528 4.14852 9.26455 4.11996 9.30025 4.10568C9.33595 4.0914 9.37879 4.08426 9.42521 4.08426C9.58586 4.10568 9.72153 4.1985 9.83577 4.35916C9.9286 4.48412 9.98929 4.63406 10.025 4.80543H10.0286ZM7.6794 5.57658C7.62228 5.57658 7.52945 5.57658 7.39736 5.58372C7.2724 5.58372 7.1653 5.56944 7.07604 5.54445C6.98679 5.51946 6.91896 5.4659 6.86541 5.38736C6.90468 5.31239 6.97251 5.27669 7.07247 5.27669C7.10818 5.27669 7.15102 5.28383 7.201 5.29454C7.25098 5.30525 7.29382 5.31596 7.32238 5.31953C7.38665 5.35523 7.45091 5.39093 7.52231 5.43021C7.59372 5.46948 7.64727 5.51946 7.6794 5.57658Z" fill="white"/>
</svg>
