<svg width="20" height="10" viewBox="0 0 20 10" fill="none" xmlns="http://www.w3.org/2000/svg">
<path fill-rule="evenodd" clip-rule="evenodd" d="M19.9957 1.82527C19.9697 1.83394 19.9393 1.83827 19.9133 1.84695C19.8352 1.72988 19.7832 1.64318 19.7485 1.58682C19.6792 1.48277 19.6098 1.4264 19.5404 1.42207C19.5318 1.49144 19.5274 1.56948 19.5231 1.65185C19.5231 1.73423 19.5188 1.79926 19.5188 1.83828C19.5188 2.05939 19.5361 2.31519 19.5708 2.597C19.6532 3.28203 19.6965 3.71558 19.6965 3.89768C19.7572 4.45263 19.8006 4.82982 19.8179 5.0336C19.8352 5.23303 19.8439 5.44114 19.8439 5.65792C19.8439 5.97008 19.8222 6.25623 19.7746 6.51203C19.7312 6.76783 19.6488 7.01929 19.5318 7.26209C19.5318 7.1667 19.5404 6.98461 19.5534 6.7158C19.5664 6.44699 19.5751 6.29525 19.5751 6.25189L19.1372 1.59983C19.1372 1.46976 19.1372 1.36136 19.1286 1.27899C19.1025 0.958154 19.0852 0.793405 19.0852 0.780398C19.0852 0.615646 19.1112 0.468237 19.1589 0.346841C19.2066 0.225445 19.2976 0.108389 19.4277 0C19.5578 0.346846 19.6965 0.689358 19.8352 1.03187C19.8222 1.07522 19.8136 1.1099 19.8136 1.13592C19.8136 1.20529 19.8483 1.32668 19.9176 1.5001C19.909 1.52612 19.9176 1.57381 19.9436 1.63451C19.9697 1.6952 19.9783 1.74289 19.9783 1.76891L20 1.82961L19.9957 1.82527ZM16.5922 1.90765C16.5229 2.12876 16.3971 2.31953 16.2194 2.47995C16.1934 2.44526 16.1023 2.38456 15.9549 2.29785C15.8075 2.21114 15.7295 2.13309 15.7295 2.06372C15.7295 2.02904 15.7468 1.98568 15.7815 1.92932L16.085 1.49144C16.085 1.49144 16.1847 1.5608 16.3668 1.67787C16.4795 1.75591 16.5532 1.82961 16.5966 1.90765H16.5922ZM15.6037 2.09408L15.2092 2.45826L14.6976 2.27184C14.6976 2.1938 14.7193 2.12009 14.7583 2.04205C14.7713 2.01604 14.8667 1.89031 15.0401 1.6692C15.2699 1.74724 15.4216 1.81227 15.491 1.86863C15.5647 1.92499 15.5994 1.9987 15.5994 2.09842L15.6037 2.09408ZM15.9679 3.50748C15.9896 3.6202 15.9549 3.73293 15.8639 3.84999C15.8422 3.85866 15.8205 3.87166 15.7902 3.89334C15.7295 3.9497 15.6774 3.95837 15.6428 3.92369C15.5517 3.84131 15.5083 3.72859 15.5083 3.58985C15.5083 3.51181 15.517 3.45979 15.53 3.4251C15.543 3.39042 15.556 3.3644 15.5604 3.35139L15.7988 2.88315C15.7988 2.92651 15.7815 3.01755 15.7425 3.16496C15.7034 3.31237 15.6861 3.40776 15.6861 3.45545C15.6861 3.55084 15.7121 3.62888 15.7685 3.68524C15.8032 3.67657 15.8379 3.65055 15.8769 3.59852C15.9159 3.54649 15.9462 3.51615 15.9636 3.51182L15.9679 3.50748ZM15.3956 0.16908C15.1312 0.23845 14.5415 0.403204 13.6267 0.659002C12.4258 0.992842 11.4503 1.27899 10.7045 1.52178C10.5918 1.54346 10.5008 1.58247 10.4227 1.64317C10.3447 1.70387 10.3013 1.77758 10.2883 1.86863C11.4936 1.50878 12.7032 1.14893 13.9085 0.784738C13.9866 0.750053 14.2467 0.672013 14.6976 0.554953C15.0184 0.472577 15.2482 0.342503 15.3956 0.16908ZM10.4964 0.719707C10.5311 0.754391 10.5268 0.806412 10.4878 0.875781C10.4184 0.979835 10.375 1.04054 10.362 1.05788C10.349 1.07522 10.3273 1.08389 10.3013 1.08389C10.232 1.08389 10.1713 1.02753 10.1236 0.91914C10.1236 0.767394 10.1539 0.619981 10.2189 0.481242C10.2623 0.390195 10.3403 0.264471 10.4574 0.0953832C10.401 0.268806 10.349 0.442221 10.3013 0.615644C10.3013 0.706691 10.3273 0.780395 10.3837 0.845429L10.4964 0.719707ZM12.9417 2.72707L12.8376 2.92651C12.7769 2.89183 12.7292 2.86581 12.7032 2.8528C12.6469 2.81812 12.5948 2.80945 12.5472 2.83113C12.5038 2.92218 12.4648 3.09993 12.4258 3.36874C12.3867 3.63754 12.326 3.83265 12.2437 3.95838C12.1743 3.88034 12.1093 3.78495 12.0442 3.66789C11.9532 3.49447 11.8621 3.31671 11.7754 3.13895C11.7537 3.19965 11.7234 3.23433 11.68 3.23433C11.6454 3.23433 11.602 3.21699 11.5456 3.18231C11.5023 3.13895 11.4849 3.09993 11.4849 3.05657C11.4849 3.02189 11.4936 2.97853 11.5109 2.93084C11.5283 2.88315 11.5456 2.83546 11.5673 2.78343C11.628 2.72273 11.6887 2.69238 11.7451 2.70105C11.8361 2.77909 11.9098 2.88315 11.9749 3.01322C12.0659 3.20832 12.1569 3.39909 12.2567 3.58551C12.2914 3.40342 12.326 3.22133 12.3607 3.0349C12.4171 2.82679 12.5125 2.67071 12.6512 2.56665C12.7076 2.57532 12.7596 2.584 12.8116 2.60134C12.8636 2.61869 12.907 2.66204 12.9417 2.73141V2.72707ZM8.4457 0.862775C8.4587 0.932144 8.4457 1.00585 8.41535 1.07955C8.40668 1.09256 8.36766 1.16193 8.28962 1.28767C8.22025 1.28767 8.16389 1.26165 8.12486 1.20529C8.08151 1.14893 8.0555 1.08823 8.04249 1.01886C8.04249 0.672017 8.13787 0.3425 8.33297 0.030339C8.28962 0.134393 8.25493 0.238447 8.22892 0.342501C8.2029 0.446555 8.18556 0.550609 8.18556 0.654663C8.18556 0.806408 8.22892 0.927815 8.31129 1.01886C8.33731 1.01019 8.35899 0.984168 8.37199 0.940812C8.385 0.897456 8.41101 0.871446 8.4457 0.862775ZM5.88771 0.676348C5.85302 0.80208 5.82701 0.875784 5.814 0.906133C5.77932 0.984174 5.72296 1.03619 5.64925 1.06221C5.58855 1.07521 5.52786 1.02752 5.47149 0.9148C5.47149 0.624316 5.5452 0.338168 5.68827 0.0606912C5.70128 0.108382 5.68827 0.195092 5.64492 0.316488C5.60156 0.437885 5.58422 0.524603 5.58422 0.580965C5.58422 0.676348 5.64058 0.750053 5.74897 0.797744C5.77065 0.789073 5.78799 0.763063 5.80533 0.719707C5.82268 0.676351 5.84869 0.659002 5.88337 0.672009L5.88771 0.676348ZM18.3005 1.84262C18.2658 1.53913 18.1921 1.22697 18.0837 0.906133C18.023 0.73271 17.9016 0.442218 17.7282 0.030339C17.6371 0.169077 17.5461 0.307825 17.4594 0.446564C17.4594 0.897463 17.481 1.33101 17.5201 1.75156C17.5591 2.17211 17.6241 2.63602 17.7108 3.13895C17.7975 3.64621 17.8799 4.12746 17.9623 4.59137C18.0403 5.05094 18.1054 5.51051 18.153 5.97008C17.9883 6.1435 17.8019 6.28225 17.5981 6.38197C17.3943 6.48168 17.1819 6.5337 16.9564 6.5337C16.861 6.5337 16.757 6.52504 16.6529 6.50336C16.7223 6.34294 16.7787 6.17386 16.8264 5.98743C16.8697 5.80533 16.8957 5.62323 16.8957 5.44981C16.8957 5.12464 16.822 4.86018 16.679 4.66074C16.5966 4.57837 16.4752 4.53501 16.3148 4.53501C16.0113 4.7778 15.7772 5.06395 15.6167 5.38912C15.5344 5.56254 15.478 5.73163 15.4433 5.89204C15.413 6.0568 15.3956 6.24322 15.3956 6.46C15.1181 6.57706 14.8147 6.63776 14.4895 6.63776C14.6369 6.3863 14.7843 6.13917 14.936 5.8877C15.0184 5.72729 15.0661 5.56687 15.0835 5.41079C15.0574 5.21135 14.9534 5.03794 14.78 4.89053C14.6412 4.77347 14.4765 4.67809 14.2857 4.60872C14.0949 4.53935 13.9172 4.50465 13.7481 4.50465C13.4923 4.50465 13.2365 4.57836 12.9764 4.72143C12.7206 4.86884 12.4865 5.05528 12.2783 5.28507C12.1526 5.38045 12.0009 5.53218 11.8144 5.73596C11.6323 5.93973 11.4546 6.10882 11.2898 6.23888C11.2075 6.16951 11.1251 6.10015 11.0514 6.03079C10.8649 5.86603 10.7956 5.72295 10.8433 5.60589C10.6222 5.82701 10.3837 5.9961 10.1236 6.10882C9.86777 6.22155 9.59029 6.29959 9.29113 6.34295C9.59029 6.0568 9.81574 5.70994 9.96748 5.3024C9.96748 5.16366 9.91546 5.0336 9.8114 4.91654C9.73336 4.83416 9.55127 4.69976 9.26079 4.522C9.10904 4.43095 8.9703 4.36592 8.84457 4.33123C8.71884 4.29221 8.58877 4.27487 8.45003 4.27487C7.99046 4.27487 7.43984 4.5827 6.79384 5.20269C6.28225 5.69694 5.98743 5.97008 5.91806 6.02644C5.78799 5.9484 5.66226 5.85302 5.54953 5.7403C5.43681 5.62757 5.35443 5.50618 5.30674 5.38045L5.12031 6.06546C5.13332 6.15651 5.168 6.28225 5.22437 6.45134C5.31975 6.74182 5.37178 6.96292 5.37178 7.106C5.37178 7.17537 5.37178 7.2274 5.3631 7.26209C5.02493 7.63061 4.64774 7.93409 4.24019 8.17689C3.87167 8.398 3.44678 8.58444 2.9612 8.74052C2.67505 8.82289 2.38457 8.86624 2.08541 8.86624C1.76024 8.86624 1.45675 8.81422 1.17494 8.70583C0.893128 8.59744 0.654671 8.42835 0.463906 8.18989C0.338175 7.92542 0.277477 7.65228 0.277477 7.36614C0.277477 7.07999 0.329504 6.77216 0.433557 6.46C0.515933 6.21721 0.637329 5.94841 0.797746 5.64925C0.576631 5.98309 0.398873 6.31259 0.268806 6.63776C0.138738 6.96293 0.0476913 7.30977 0 7.6783C0 8.07283 0.0346845 8.37632 0.104054 8.58443C0.199436 8.87491 0.385866 9.09603 0.654672 9.25211C0.841101 9.36484 1.0362 9.44287 1.24431 9.49056C1.44808 9.53826 1.66486 9.56427 1.89465 9.56427C2.27618 9.56427 2.64904 9.50792 3.00889 9.39085C3.36874 9.27813 3.70692 9.12205 4.01908 8.92694C4.49165 8.67548 4.86885 8.38499 5.155 8.05115C5.50184 7.64794 5.67527 7.22306 5.67527 6.77216C5.8617 6.81552 6.06547 6.85454 6.29092 6.8979C6.51203 6.94126 6.7158 6.95859 6.89356 6.95859C6.92825 6.95859 6.97594 6.95859 7.04097 6.95425C7.10167 6.95425 7.16237 6.94559 7.21873 6.93692C7.41817 6.90223 7.61327 6.88489 7.79536 6.88055C7.97746 6.88055 8.16822 6.87621 8.36332 6.87621H9.07002C9.40819 6.87621 9.71602 6.81985 9.98483 6.71146C10.2536 6.59873 10.4834 6.41231 10.6698 6.14784C10.6785 6.21721 10.7219 6.33427 10.8042 6.49468C10.8866 6.6551 10.93 6.78517 10.93 6.87621C10.93 6.98894 10.8866 7.08433 10.7956 7.1667C10.8866 7.04097 10.995 6.98028 11.1294 6.98028C11.1554 6.98028 11.3809 7.05832 11.7971 7.21006C11.9575 7.26642 12.0919 7.28376 12.2046 7.26209C12.352 7.21873 12.5038 7.19272 12.6685 7.17971C12.8333 7.1667 12.998 7.15802 13.1715 7.15802C13.3449 7.16669 13.5227 7.17104 13.7004 7.17971C13.8825 7.18838 14.0559 7.18838 14.2294 7.18838C14.2901 7.18838 14.3811 7.18837 14.4938 7.18404C14.6065 7.18404 14.7106 7.17537 14.8016 7.1667C14.9144 7.1667 15.0705 7.12335 15.2786 7.0323C15.4867 6.94125 15.6384 6.8979 15.7381 6.8979C15.8075 6.8979 15.8769 6.91524 15.9462 6.94992C16.0156 6.98461 16.0763 7.03663 16.1327 7.106C16.3321 7.19705 16.5402 7.2404 16.757 7.2404C17.0085 7.2404 17.2512 7.18404 17.494 7.06698C17.7368 6.95426 17.9536 6.80251 18.14 6.61608C18.2354 6.42098 18.3048 6.22588 18.3395 6.02211C18.3742 5.82267 18.3915 5.60156 18.3915 5.36744C18.3915 5.16801 18.3828 4.98157 18.3655 4.81682C18.3481 4.65206 18.3178 4.43963 18.2788 4.18383C18.1834 3.67223 18.088 3.15195 17.997 2.63168C17.9406 2.29784 17.9146 1.99869 17.9146 1.72555C17.9146 1.68219 17.9146 1.63017 17.9189 1.56948C17.9189 1.50878 17.9276 1.43507 17.9363 1.3527L18.3091 1.84262H18.3005ZM7.47886 2.62302L7.37481 2.83113C7.29243 2.80512 7.21006 2.77477 7.12335 2.74875C7.06265 2.74875 7.02363 2.80078 7.01062 2.90917C6.99762 3.01756 6.98027 3.13028 6.9586 3.25168C6.93692 3.37308 6.8979 3.50314 6.83286 3.64188C6.76349 3.60719 6.68112 3.48146 6.5814 3.26035C6.48602 3.04357 6.36462 2.93084 6.22588 2.93084C6.18253 2.93084 6.15218 2.93085 6.1305 2.93952C6.08714 2.90483 6.0698 2.87448 6.0698 2.84414C6.0698 2.81379 6.08714 2.77043 6.12617 2.70973C6.16519 2.64904 6.18253 2.60135 6.18253 2.57533C6.19553 2.53198 6.22588 2.51463 6.2649 2.51463C6.32127 2.54931 6.37763 2.58399 6.44266 2.61868C6.51203 2.70105 6.5814 2.80945 6.65077 2.93518C6.72014 3.06525 6.77217 3.16063 6.80685 3.22999C6.85021 3.09993 6.89356 2.96119 6.94125 2.81378C6.98894 2.66637 7.05831 2.55365 7.14936 2.47127C7.20572 2.47127 7.25775 2.48428 7.30978 2.50596C7.3618 2.53197 7.41383 2.56666 7.47019 2.61435L7.47886 2.62302ZM13.1411 7.71298C13.0978 7.86039 13.0197 7.98178 12.9027 8.0815C12.7856 8.18122 12.6512 8.23325 12.5081 8.23325C12.4388 8.24626 12.3737 8.24193 12.3087 8.22458C12.2046 8.18123 12.1006 8.14654 11.9965 8.11186C11.9185 8.11186 11.8578 8.13354 11.8101 8.17256C11.5586 8.372 11.2682 8.55842 10.9343 8.72317C10.7609 8.80121 10.6048 8.86191 10.4617 8.9096C10.3187 8.95729 10.1582 9.00065 9.97616 9.03533C10.3317 8.92261 10.6742 8.76653 11.008 8.55842L11.9965 7.93409C12.0789 7.92109 12.1439 7.91242 12.183 7.91242C12.287 7.91242 12.3694 7.93844 12.4344 7.9948C12.5038 7.91242 12.5645 7.83871 12.6209 7.78235C12.6772 7.72165 12.7292 7.67396 12.7813 7.63494C12.8333 7.59592 12.8897 7.57857 12.9547 7.57857C13.0327 7.57857 13.0934 7.62193 13.1411 7.71298ZM3.81964 0.251457C3.83265 0.320827 3.84132 0.359851 3.84132 0.364187C3.84132 0.424885 3.8023 0.45957 3.72859 0.45957H3.52049C3.47713 0.481248 3.45112 0.524602 3.43811 0.593971C3.41643 0.650334 3.39475 0.819418 3.36874 1.10557C3.34273 1.39171 3.28636 1.56947 3.19532 1.64751L2.73575 0.949492L2.66204 1.06221C2.59267 1.01452 2.54498 0.979836 2.51463 0.958158C2.45393 0.910467 2.41058 0.862777 2.3889 0.81075C2.3889 0.663341 2.41925 0.528937 2.48428 0.403205C2.63603 0.446561 2.77477 0.55929 2.9005 0.745719C2.99588 0.906135 3.0956 1.06654 3.19098 1.22262C3.25168 0.953816 3.29937 0.745716 3.32539 0.606978C3.38608 0.351179 3.50314 0.221105 3.66789 0.221105C3.72859 0.221105 3.78062 0.229784 3.8153 0.242791L3.81964 0.251457ZM3.81097 2.17645C3.83698 2.20247 3.83698 2.24149 3.81097 2.28918C3.78496 2.33687 3.76328 2.37589 3.75027 2.4019H3.45979C3.27769 2.4019 3.13028 2.41925 3.01322 2.45394C2.89616 2.48862 2.79644 2.56666 2.70973 2.68372C2.70973 2.85714 2.74008 3.06958 2.80512 3.31671C2.9005 3.69824 2.95686 3.93236 2.96987 4.02341C2.98287 4.11446 2.99588 4.18816 3.00022 4.24019C3.00889 4.29655 3.00889 4.38327 3.00889 4.50033C3.00889 4.61739 2.99588 4.73878 2.96553 4.86017C2.93952 4.98157 2.89183 5.10296 2.83113 5.22002C2.85714 5.15065 2.87882 5.06828 2.89183 4.97723C2.90483 4.88185 2.91351 4.79514 2.91351 4.71277C2.91351 4.56102 2.89183 4.39627 2.85281 4.22284C2.8398 4.16648 2.79644 4.01908 2.72708 3.78062C2.65771 3.54216 2.61869 3.40342 2.61435 3.36874C2.58834 3.23867 2.571 3.10426 2.571 2.9742C2.571 2.86147 2.584 2.76176 2.60568 2.66638C2.63169 2.57099 2.67071 2.47561 2.72708 2.37156C2.79644 2.30219 2.89616 2.25017 3.03057 2.21115C3.16063 2.17213 3.25168 2.1461 3.29937 2.1331C3.26469 2.0854 3.22567 2.05505 3.18665 2.05072C3.14329 2.04205 3.08693 2.04205 3.00889 2.05072C2.98287 2.0854 2.95686 2.1201 2.93518 2.15478C2.9005 2.18947 2.85714 2.21114 2.80945 2.21547C2.80945 2.1331 2.83547 2.05073 2.89183 1.96401C2.94819 1.88164 3.01322 1.82527 3.09126 1.79926C3.23 1.77758 3.38175 1.83395 3.55084 1.96401C3.63321 2.03338 3.71992 2.10274 3.81097 2.17211V2.17645ZM2.98721 6.65944C2.91784 6.88922 2.87882 7.01061 2.87449 7.02362C2.82679 7.09299 2.76176 7.12768 2.67505 7.12768C2.61435 7.03664 2.57967 6.92391 2.57967 6.78517C2.57967 6.68112 2.59701 6.56839 2.63169 6.44266C2.66638 6.31693 2.70973 6.1912 2.7661 6.0568C2.77477 6.12617 2.7661 6.22154 2.74008 6.34727C2.71407 6.473 2.7054 6.55539 2.7054 6.59874C2.7054 6.72881 2.74875 6.82419 2.83113 6.88055C2.84414 6.86755 2.86148 6.82853 2.88316 6.75916C2.90483 6.69412 2.93952 6.65944 2.98721 6.65944ZM16.5055 5.51485C16.5402 5.57555 16.5619 5.62757 16.5749 5.66226C16.5879 5.69694 16.5922 5.74463 16.5922 5.80967C16.5922 6.04379 16.4362 6.18252 16.124 6.22588C15.9246 6.17819 15.7772 6.04378 15.6861 5.83134C15.6601 5.74029 15.6818 5.65359 15.7555 5.56688C15.8292 5.48016 15.8985 5.40212 15.9636 5.33709C16.0286 5.27206 16.0937 5.23737 16.1543 5.23737C16.2237 5.23737 16.2931 5.26338 16.3581 5.31974C16.4232 5.37611 16.4752 5.44114 16.5099 5.51918L16.5055 5.51485ZM14.6239 5.8877C14.4028 6.08714 14.121 6.24322 13.7828 6.34727C13.4446 6.45133 12.9157 6.50336 12.2003 6.50336L11.5847 6.36896C11.9532 5.96575 12.2176 5.69693 12.3867 5.5582C12.7119 5.29373 13.0371 5.16367 13.3536 5.16367C13.4793 5.16367 13.6137 5.18534 13.7611 5.22436C13.9779 5.27205 14.1643 5.3501 14.3247 5.45849C14.4852 5.56688 14.5849 5.70995 14.6282 5.89204L14.6239 5.8877ZM12.9287 7.8734C12.8116 7.91676 12.6946 7.96011 12.5732 8.00781C12.5645 7.96445 12.5775 7.9341 12.6078 7.90808C12.6382 7.88207 12.6816 7.85605 12.7379 7.82137H12.8506C12.8983 7.82137 12.9243 7.83872 12.9243 7.8734H12.9287ZM9.48623 5.77065C9.13072 5.92239 8.76653 6.04378 8.39367 6.13049C8.02081 6.21721 7.65229 6.26057 7.29243 6.26057C6.90223 6.26057 6.54238 6.21288 6.20854 6.11316C6.41665 5.92673 6.62909 5.73596 6.84154 5.54086C7.30111 5.13765 7.70431 4.93821 8.05983 4.93821C8.25493 4.93821 8.43703 4.98157 8.61045 5.06395C9.00065 5.25905 9.21309 5.37178 9.25645 5.40646C9.38218 5.51051 9.45589 5.63191 9.48623 5.77065Z" fill="white"/>
</svg>
