<svg width="20" height="13" viewBox="0 0 20 13" fill="none" xmlns="http://www.w3.org/2000/svg">
<path fill-rule="evenodd" clip-rule="evenodd" d="M19.9128 6.21025C19.9385 6.42563 19.959 6.64101 19.9744 6.86153C19.9897 7.08204 20 7.30256 20 7.51282C20 8.01538 19.959 8.47692 19.8718 8.90256C19.7846 9.3282 19.6359 9.74872 19.4205 10.159C19.518 9.92308 19.5897 9.67691 19.6359 9.42563C19.6821 9.17435 19.7026 8.90256 19.7026 8.60513C19.7026 8.26154 19.6718 7.8718 19.6051 7.4359C19.5385 7 19.4769 6.57949 19.4205 6.16923C19.1231 4.48718 18.8308 2.79999 18.5333 1.11281C18.5487 0.979478 18.5795 0.866667 18.6205 0.769231C18.6359 0.728205 18.7436 0.548719 18.9385 0.225642C18.9949 0.415386 19.0667 0.605117 19.1487 0.789732C19.2718 1.02563 19.3641 1.21024 19.4205 1.33332L19.4462 1.30769C19.4462 1.44102 19.5077 1.62563 19.6256 1.86153C19.7436 2.09742 19.8051 2.27691 19.8051 2.38973C19.8051 2.44614 19.7949 2.50769 19.7692 2.57435L19.3385 2.02051L19.2513 2.15384C19.3026 2.60512 19.3744 3.09743 19.4718 3.63076C19.7333 5.10769 19.8821 5.96409 19.9128 6.20512V6.21025ZM14.6821 3.44102C14.5077 3.44102 14.3282 3.50769 14.1385 3.6359C14.0051 3.7282 13.8923 3.78974 13.7949 3.83077C13.5641 3.85641 13.4205 3.75384 13.3641 3.52307C13.3538 3.47179 13.3538 3.4 13.3538 3.30257C13.3538 3.13846 13.3744 2.97435 13.4103 2.81538C13.4462 2.65641 13.4769 2.52819 13.5026 2.44102H13.5641C13.5487 2.56409 13.5333 2.68205 13.5128 2.78975C13.4974 2.90257 13.4872 2.97435 13.4872 3.00512C13.4872 3.22051 13.5538 3.36923 13.6821 3.46154C13.8718 3.49231 14 3.43588 14.0769 3.28717C14.0872 3.23076 14.0872 3.14358 14.0769 3.03076C14.0667 2.91794 14.0667 2.83076 14.0667 2.77435C14.0667 2.5846 14.118 2.4564 14.2256 2.39486C14.2154 2.54358 14.2154 2.65127 14.2154 2.72819C14.2154 2.84101 14.2308 2.93332 14.2564 2.99999C14.2872 3.06665 14.3385 3.11281 14.4205 3.14871H14.5692C14.5692 3.0923 14.559 3.01024 14.5333 2.90255C14.5077 2.79486 14.4974 2.71282 14.4974 2.65641C14.4974 2.55897 14.5282 2.47179 14.5949 2.4C14.6462 2.54871 14.6872 2.67691 14.7179 2.77948C14.7487 2.88717 14.7692 2.99486 14.7692 3.09742C14.7692 3.2205 14.7385 3.33333 14.6821 3.44102ZM14.9897 0.276912C14.9077 0.328194 14.8308 0.358964 14.7641 0.374349C14.6923 0.389734 14.6205 0.405121 14.5487 0.425634L8.81539 2.58974C8.70257 2.67179 8.57949 2.75383 8.45641 2.84101C8.33333 2.92819 8.26154 3.02563 8.24615 3.14358C8.95897 2.84614 9.68205 2.5487 10.4205 2.24614C11.1538 1.94358 11.8718 1.66154 12.5692 1.39487C13.3487 1.09744 14.0821 0.846144 14.7744 0.630759C14.8564 0.564093 14.9026 0.528194 14.9077 0.517938C14.9897 0.42563 15.0205 0.343589 14.9949 0.271794L14.9897 0.276912ZM10.1385 1.13846C10.1128 1.2718 10.0923 1.39487 10.0769 1.51794C10.0256 1.68205 9.92821 1.78461 9.77949 1.82564C9.72308 1.8359 9.6718 1.82564 9.63077 1.78974C9.55898 1.68205 9.50769 1.61026 9.48205 1.56923C9.4718 1.48718 9.4718 1.42563 9.4718 1.38461C9.4718 1.03076 9.5641 0.723074 9.75385 0.461535C9.72821 0.543587 9.70257 0.641021 9.6718 0.748714C9.64103 0.861534 9.63077 0.953841 9.63077 1.03589C9.63077 1.21025 9.68205 1.34872 9.77949 1.45641C9.87692 1.48205 9.94872 1.45641 9.99487 1.37436C10.041 1.29743 10.0872 1.21538 10.1385 1.13333V1.13846ZM12.3282 4.17948C12.3282 4.30256 12.3026 4.43076 12.2564 4.56922C12.2051 4.70255 12.1282 4.8 12.0205 4.85641C11.9538 4.86667 11.8974 4.84102 11.8462 4.78461C11.8051 4.70256 11.7744 4.64615 11.759 4.61025C11.759 4.14871 11.8615 3.72307 12.0667 3.3282C12.0103 3.58461 11.9538 3.83589 11.8923 4.0923C11.8923 4.2564 11.9436 4.38974 12.041 4.48718C12.1077 4.47692 12.1641 4.43077 12.2154 4.33846C12.2667 4.24615 12.3026 4.19487 12.3282 4.17948ZM9.04103 0.205125C9.06667 0.246151 9.04103 0.297432 8.97949 0.364098C8.91282 0.430765 8.87692 0.476923 8.86667 0.512821C7.83077 0.85641 7.25128 1.05641 7.11795 1.10256C6.44615 1.33846 5.85128 1.56922 5.33846 1.78461C4.82564 1.99999 4.29231 2.26667 3.74359 2.57949C4.06154 2.14359 4.70769 1.75385 5.67692 1.41026C6.37436 1.1641 6.81538 0.989739 7.00513 0.892303C7.67692 0.661533 8.35385 0.430766 9.0359 0.205125H9.04103ZM8.91795 4.46153C8.93333 4.56922 8.90769 4.67691 8.84615 4.79486C8.74872 4.92819 8.67692 5.02564 8.6359 5.0923C8.52308 5.18461 8.41026 5.25128 8.29744 5.29743C8.18462 5.34358 8.0718 5.35384 7.95897 5.3282C7.82051 5.2564 7.74872 5.13333 7.74872 4.95897C7.74872 4.90256 7.75898 4.84102 7.78462 4.77436C7.85128 4.59487 7.89744 4.4564 7.93333 4.36923C8 4.19487 8.08205 4.08718 8.17949 4.0359C8.10769 4.25641 8.05641 4.40513 8.03077 4.48718C8.00513 4.5641 7.99487 4.63589 7.99487 4.70256C7.99487 4.79486 8.01026 4.86665 8.0359 4.92306C8.06667 4.97948 8.11795 5.01025 8.2 5.01025C8.25128 5.01025 8.32308 4.98974 8.42051 4.94358C8.51795 4.89743 8.57949 4.87179 8.60513 4.86153L8.69231 4.77436C8.65128 4.67692 8.57436 4.58462 8.45641 4.50256C8.40513 4.47179 8.30257 4.41025 8.14872 4.31794L8.32308 4.01024C8.4359 4.04101 8.55385 4.09743 8.66667 4.17435C8.77949 4.25127 8.86154 4.34871 8.91282 4.46153H8.91795ZM16.7333 9.98973C16.7436 10.0872 16.7231 10.1897 16.6718 10.2974C16.5795 10.4872 16.5385 10.5846 16.5385 10.5949C16.4154 10.7077 16.2821 10.7538 16.1436 10.7282C16.1436 10.6974 16.1436 10.6667 16.1385 10.641C16.1385 10.6154 16.1231 10.6 16.1077 10.5897C16.0667 10.682 16.0205 10.7538 15.9744 10.8103C15.9026 10.9026 15.8205 10.9487 15.7282 10.959C15.5641 10.8256 15.4 10.7641 15.2359 10.7641C15.0564 10.7641 14.8667 10.8462 14.6718 11.0103C14.3692 11.2564 14.0667 11.5077 13.759 11.759C13.6872 11.7897 13.5385 11.8667 13.318 11.9795C13 12.1538 12.7333 12.2564 12.5282 12.2974C12.7487 12.2051 12.9897 12.0718 13.241 11.8923C13.3487 11.8205 13.5744 11.641 13.9231 11.359C14.2718 11.0769 14.5436 10.8718 14.7436 10.7436C14.9385 10.6154 15.1282 10.5179 15.3077 10.441C15.3795 10.4308 15.4872 10.4667 15.6256 10.5385C15.7179 10.5897 15.7795 10.6103 15.8103 10.6103C15.8769 10.6103 15.9385 10.5795 15.9949 10.5231C16.0359 10.4103 16.0667 10.3282 16.0872 10.282C16.1077 10.2359 16.1436 10.1949 16.1897 10.1538V10.4615C16.3128 10.4462 16.4154 10.3846 16.4974 10.2769C16.5795 10.1692 16.6564 10.0718 16.7333 9.97948V9.98973ZM7.24615 2.66666C7.19487 2.56922 7.13846 2.4923 7.06667 2.43076C6.99487 2.37435 6.91795 2.35897 6.82564 2.37948C6.73333 2.5282 6.6718 2.70256 6.64103 2.90768C6.62564 3.10256 6.61026 3.29743 6.58974 3.48717C6.57949 3.47692 6.4718 3.27692 6.25641 2.88205C6.18974 2.75897 6.10256 2.64614 6 2.53845C5.94872 2.51281 5.91795 2.50255 5.90256 2.50255C5.85128 2.50255 5.82051 2.5282 5.80513 2.57435C5.80513 2.60512 5.79487 2.65641 5.76923 2.72308C5.71795 2.84615 5.69744 2.92819 5.69744 2.96922C5.69744 3.03589 5.72821 3.09229 5.78462 3.14358C5.81539 3.15383 5.87692 3.17436 5.96923 3.20513C6.01026 3.20513 6.03077 3.17435 6.03077 3.11794C6.14359 3.31281 6.26667 3.51281 6.38974 3.70768C6.46154 3.83076 6.54359 3.91794 6.6359 3.96409C6.69231 3.88204 6.72821 3.80512 6.73846 3.73845C6.74872 3.66666 6.75898 3.55897 6.75898 3.41025V3.21538C6.75898 3.12307 6.75898 3.0359 6.76923 2.94872C6.77949 2.86154 6.79487 2.78974 6.82051 2.73333C6.87692 2.73333 6.94359 2.76922 7.01539 2.84615C7.08718 2.92307 7.13846 2.95896 7.1641 2.96922L7.25128 2.66154L7.24615 2.66666ZM16.9795 4.38974C16.9487 4.21538 16.8462 3.7846 16.6821 3.09742C16.559 2.57948 16.4821 2.15896 16.4462 1.83076C16.5436 1.91281 16.641 1.99487 16.7436 2.07692C16.8103 2.1282 16.8718 2.15385 16.9282 2.1641C16.7128 1.4359 16.4051 0.712821 15.9949 0C15.8308 0.25641 15.6974 0.543586 15.5897 0.861535C16.1231 2.89743 16.4051 3.9846 16.441 4.12307C16.5795 4.72819 16.7077 5.39999 16.8205 6.1282C16.6872 6.21025 16.559 6.27179 16.4308 6.30769C16.3026 6.34358 16.1641 6.36409 16.0205 6.36409C15.9128 6.36409 15.8103 6.35384 15.7077 6.33845C15.6051 6.32307 15.4821 6.30256 15.3436 6.28205C15.2051 6.26154 15.1333 6.17435 15.1333 6.01538C15.1333 5.94358 15.1436 5.83589 15.159 5.69743C15.0769 5.7641 15.0051 5.87178 14.9385 6.03076C14.8 6.34358 14.6821 6.53333 14.5949 6.61025C14.4821 6.67692 14.3744 6.72307 14.2769 6.75384C14.1795 6.78461 14.0821 6.79487 13.9795 6.79487C13.8974 6.79487 13.8205 6.78461 13.7436 6.75897C13.5282 6.73333 13.4256 6.66154 13.4256 6.53846C13.4256 6.4718 13.4564 6.36922 13.518 6.22563C13.5795 6.08204 13.6051 5.97948 13.6 5.92307C13.4256 6.10256 13.2615 6.28204 13.0974 6.46666C12.8821 6.68204 12.6872 6.81538 12.5077 6.87179C12.4103 6.90256 12.3077 6.92308 12.2 6.92308C11.8872 6.92308 11.6462 6.67692 11.4718 6.18461C11.2974 5.69231 11.1282 5.41025 10.9538 5.33333C10.4718 5.82564 9.85128 6.30769 9.09744 6.77435C8.66154 7.03589 8 7.42051 7.11795 7.93333C7.06667 8.02564 7.02051 8.11794 6.96923 8.21538C6.91795 8.31282 6.90256 8.39999 6.91795 8.47179C6.98462 8.48205 7.68718 8.61538 9.0359 8.87692C9.51282 8.96923 9.93333 9.04615 10.3026 9.11282C9.71795 9.37435 9.33846 9.53845 9.15898 9.60512C8.69231 9.76922 8.2718 9.85128 7.90256 9.85128C7.66667 9.85128 7.44616 9.82051 7.25128 9.75897C7.05641 9.69744 6.8718 9.59487 6.69744 9.45641C6.45128 9.06154 6.24103 8.59486 6.0718 8.05127C6 7.83076 5.86667 7.36923 5.67692 6.66667C5.48718 5.9641 5.31795 5.44615 5.15898 5.10769C4.92821 4.6 4.6359 4.16923 4.28718 3.81539C4.18974 3.88205 4.11795 4 4.0718 4.17948C4.02564 4.35384 4.00513 4.53846 4.00513 4.72821C4.4 5.14872 4.71282 5.63076 4.95385 6.17948C5.13333 6.59999 5.30769 7.13334 5.4718 7.78975C4.99487 8.62051 4.34359 9.27692 3.51282 9.75897C3.07692 10.0154 2.64103 10.2103 2.21026 10.3487C1.77436 10.4872 1.33846 10.559 0.892308 10.559C0.769231 10.4769 0.682052 10.3846 0.635898 10.282C0.584616 10.1795 0.564103 10.0718 0.564103 9.95383C0.564103 9.78973 0.635898 9.53333 0.774359 9.17948C0.912821 8.82564 0.984616 8.56922 0.984616 8.40512C0.769231 8.75897 0.610257 9.1282 0.497436 9.51795C0.384616 9.90769 0.333334 10.3077 0.333334 10.7179V10.9333C0.333334 11.0256 0.34359 11.1128 0.358975 11.1846C0.415385 11.3179 0.512821 11.4205 0.641026 11.4974C0.774359 11.5744 0.907693 11.6154 1.04615 11.6154C1.49744 11.5333 1.96923 11.3949 2.45641 11.2051C2.94359 11.0102 3.37949 10.7897 3.76923 10.5333C4.20513 10.2461 4.57436 9.9282 4.87692 9.57435C5.21538 9.17948 5.46154 8.75384 5.62564 8.2923C5.68205 8.51281 5.77949 8.87692 5.90769 9.38974C6.13846 10.1179 6.51282 10.5744 7.02564 10.7538C7.05128 10.7538 7.09231 10.7538 7.14872 10.7641H7.35897C7.79487 10.7641 8.27692 10.6872 8.81026 10.5282C8.97436 10.4769 9.4359 10.3179 10.1897 10.0462C10.6564 9.88205 11.0103 9.76923 11.2462 9.71282C11.6154 9.62051 11.9744 9.57948 12.3282 9.57948C12.4821 9.57948 12.6615 9.58974 12.8564 9.61539C13.0513 9.64103 13.2359 9.67692 13.4 9.72821C13.4974 9.57949 13.5744 9.44102 13.6205 9.30256C13.6718 9.16922 13.718 8.99487 13.7692 8.77948C13.6154 8.74872 12.9538 8.63076 11.7897 8.43589C10.4359 8.19999 9.35385 7.97948 8.53846 7.78461C9.2359 7.26154 9.93333 6.73333 10.6308 6.21025C10.7436 6.33333 10.8462 6.50768 10.9282 6.73845C11.1026 7.24102 11.2564 7.55384 11.4 7.68204C11.5436 7.81025 11.7282 7.87178 11.959 7.87178C12.0513 7.87178 12.1385 7.86154 12.2308 7.8359C12.559 7.7282 12.8359 7.51281 13.0564 7.18461C13.0718 7.32307 13.1077 7.43588 13.1692 7.51794C13.2 7.56922 13.2513 7.61025 13.318 7.64102C13.4974 7.70769 13.6718 7.73846 13.8359 7.73846C14.0103 7.73846 14.1795 7.70769 14.3538 7.64102C14.5077 7.54872 14.6308 7.39999 14.7231 7.18461C14.7744 7.07178 14.8359 6.88717 14.9179 6.64102C14.9487 6.66666 14.959 6.70769 14.9385 6.7641C14.9179 6.82051 14.9128 6.86154 14.9179 6.88718C14.9436 6.96923 14.9949 7.04102 15.0769 7.09743C15.0923 7.10769 15.1641 7.14871 15.2872 7.23076C15.4769 7.31281 15.6769 7.35384 15.8923 7.35384C16.2615 7.35384 16.6 7.23589 16.9026 6.99486C16.9846 6.77435 17.0462 6.55384 17.0821 6.33845C17.118 6.12307 17.1385 5.88718 17.1385 5.64103C17.1385 5.24103 17.0923 4.82051 17.0051 4.38461L16.9795 4.38974ZM2.63077 1.00512L2.22564 1.87691C2.08718 1.81024 1.95385 1.74871 1.83077 1.68717C1.70769 1.62563 1.55385 1.54358 1.37436 1.43589C1.27692 1.67179 1.22051 1.79999 1.21539 1.81537C1.12308 1.96922 1.02564 2.05128 0.917949 2.05128C0.851283 2.05128 0.764103 2.00512 0.661539 1.91794C0.538462 1.84615 0.415385 1.7641 0.292308 1.68205C0.348718 1.50256 0.410257 1.34359 0.476923 1.21538C0.54359 1.08205 0.630769 0.958961 0.748718 0.835884L1.4 1.05641L1.86667 0.615375C2.00513 0.646145 2.13846 0.697431 2.26154 0.764098C2.31795 0.794867 2.44103 0.876924 2.63077 1.01026V1.00512ZM11.7282 11.2462C11.6769 11.3692 11.6051 11.5077 11.5077 11.6667C11.4513 11.759 11.3538 11.882 11.2256 12.0461C11.1692 11.9897 11.0103 11.8923 10.7436 11.759C10.4821 11.6256 10.3487 11.4974 10.3487 11.3846C10.3487 11.3282 10.3744 11.2615 10.4205 11.1897L10.8615 10.6461C11.1487 10.841 11.4359 11.0462 11.7231 11.2513L11.7282 11.2462ZM3.84103 7.66666C3.84103 7.81538 3.82051 7.94359 3.77949 8.05641C3.73846 8.16923 3.66667 8.24615 3.55897 8.29743C3.40513 8.32307 3.30769 8.24615 3.27692 8.07692C3.27692 7.77949 3.34872 7.42051 3.49744 6.99486C3.56923 6.78974 3.64615 6.57948 3.71795 6.36922C3.71795 6.44102 3.64615 6.67178 3.49744 7.0564C3.42564 7.24614 3.38462 7.39487 3.38462 7.51282C3.38462 7.71795 3.47692 7.85641 3.66667 7.93333L3.84103 7.67692V7.66666ZM2.75898 2.97949C2.70256 3.33846 2.61539 3.66666 2.50256 3.96409C2.38974 4.26153 2.23077 4.5282 2.0359 4.77436C2.25641 4.96923 2.42051 5.14872 2.52821 5.30256C2.66667 5.51795 2.73846 5.73845 2.73846 5.96922C2.73846 6.06666 2.71795 6.18461 2.67692 6.3282C2.67692 6.63077 2.6359 6.88717 2.55385 7.0923C2.44615 7.34871 2.27692 7.55385 2.0359 7.70769C1.84103 7.84103 1.64103 7.96922 1.44615 8.10256C1.2 8.25128 0.979487 8.32307 0.779487 8.32307C0.671795 8.32307 0.594872 8.31282 0.54359 8.29743C0.405128 8.2 0.302564 8.07692 0.241026 7.9282C0.179487 7.77948 0.148718 7.61539 0.148718 7.4359C0.148718 7.28205 0.164103 7.1282 0.2 6.97948C0.230769 6.83076 0.312821 6.53845 0.446154 6.09229C0.6 5.75383 0.8 5.45127 1.0359 5.17947C0.882052 5.06665 0.697436 4.88717 0.492308 4.65127C0.25641 4.37435 0.0923077 4.19486 0 4.12307C0 3.77948 0.0974364 3.47691 0.297436 3.21025L1.0359 3.64101C1.0359 3.64101 1.02564 3.6923 1 3.7282C0.928206 3.79999 0.88718 3.84615 0.88718 3.86154L1.55385 4.46666C1.74872 4.30256 1.9641 4.06666 2.19487 3.75383C2.38462 3.49742 2.57436 3.24102 2.75898 2.97949ZM5.66154 11.0154C5.67692 11.1385 5.66154 11.2513 5.6 11.359C5.54359 11.4667 5.46154 11.5436 5.35385 11.5949C5.30256 11.6359 5.25128 11.6359 5.18974 11.5897C5.12821 11.5436 5.08718 11.4769 5.0718 11.3846C5.05641 11.2923 5.04615 11.2154 5.04615 11.1487C5.04615 10.9436 5.08205 10.7282 5.15898 10.5077C5.18462 10.4256 5.2718 10.2256 5.41539 9.90256C5.34872 10.1385 5.30256 10.3333 5.26667 10.4872C5.2359 10.641 5.21538 10.7538 5.21538 10.8359C5.21538 10.9333 5.22051 11.0051 5.2359 11.0513C5.24615 11.0974 5.27692 11.159 5.32821 11.241C5.37949 11.241 5.43077 11.2154 5.48205 11.1692C5.53333 11.1179 5.59487 11.0667 5.66154 11.0103V11.0154ZM2.31282 6.37436C2.13333 6.52307 1.95385 6.67178 1.78462 6.81537C1.42564 7.11281 1.10256 7.25641 0.825641 7.25641C0.769231 7.25641 0.692308 7.24614 0.589744 7.23076C0.548718 7.13332 0.528206 7.04614 0.528206 6.97435C0.528206 6.76922 0.641026 6.5282 0.871795 6.24615C0.994872 6.0923 1.18462 5.86154 1.4359 5.55897C1.58974 5.69231 1.75897 5.82563 1.93333 5.96409C2.10769 6.10255 2.2359 6.24102 2.30769 6.36922L2.31282 6.37436Z" fill="white"/>
</svg>
