<svg width="20" height="18" viewBox="0 0 20 18" fill="none" xmlns="http://www.w3.org/2000/svg">
<path fill-rule="evenodd" clip-rule="evenodd" d="M20 3.60395C19.8786 3.58118 19.7648 3.48255 19.651 3.30046C19.5448 3.12595 19.4537 3.01214 19.393 2.96662C19.3096 3.12595 19.264 3.29287 19.264 3.47496C19.264 3.61153 19.2792 3.78605 19.3096 4.01366C19.3399 4.24128 19.3551 4.37026 19.3551 4.40819C19.3551 4.79514 19.4006 5.28832 19.4841 5.88012C19.6813 7.23824 19.7724 8.10319 19.7724 8.46738C19.7724 9.39302 19.7496 10.0607 19.6965 10.4856C19.613 11.214 19.4234 11.8361 19.1351 12.3596C19.2944 11.7754 19.3703 11.1457 19.3703 10.4628C19.3703 9.91655 19.3247 9.24128 19.2261 8.44462C19.0061 6.62368 18.8998 5.49317 18.8998 5.0607C18.7405 3.94537 18.5888 2.82245 18.4446 1.69195C18.4901 1.63126 18.5584 1.47952 18.6419 1.23673C18.7253 0.993934 18.8391 0.834605 18.9681 0.76632C19.1654 1.23673 19.3627 1.72989 19.5751 2.23824C19.7876 2.74658 19.9241 3.20182 19.9848 3.60395H20ZM14.044 0C14.044 0.0758725 14.0061 0.144164 13.9226 0.220037C13.8467 0.295909 13.7936 0.341423 13.7709 0.364185C12.5341 0.804246 11.6085 1.12291 11.0015 1.32777C9.84826 1.72989 8.93778 2.08649 8.27011 2.40516C8.4522 2.11684 8.76328 1.88923 9.19575 1.72231C9.62823 1.55539 10.0607 1.40364 10.4704 1.25949C11.6616 0.849775 12.8528 0.424886 14.0364 0H14.044ZM12.9666 2.69348C13.0121 2.58726 13.0425 2.43551 13.0425 2.23824C13.0425 2.01062 12.9894 1.8437 12.8756 1.74507C12.7997 1.80577 12.7693 1.90441 12.7693 2.03339C12.7693 2.13202 12.7845 2.28376 12.8225 2.48862H12.7314C12.5266 2.50379 12.4203 2.43551 12.4203 2.29135C12.4203 2.26859 12.4355 2.18513 12.4659 2.03339C12.4962 1.88923 12.4962 1.79059 12.4583 1.74507C12.3596 1.79059 12.2989 1.95752 12.2762 2.24583C12.2534 2.53415 12.1396 2.68589 11.9499 2.70865C11.8058 2.64796 11.7299 2.54173 11.7299 2.39757C11.7299 2.3824 11.7602 2.23066 11.8209 1.92717C11.8437 1.82853 11.8437 1.75265 11.8209 1.69195C11.6768 1.79059 11.5933 1.93476 11.563 2.11685C11.5402 2.30653 11.5099 2.53414 11.4719 2.7997C11.5326 3.02732 11.6388 3.14872 11.783 3.14872C11.8589 3.14872 11.9803 3.10319 12.1624 3.00456C12.3445 2.90592 12.481 2.8604 12.5645 2.8604C12.6252 2.8604 12.6859 2.87557 12.7466 2.9135C12.8073 2.92868 12.8528 2.9135 12.8756 2.86798C12.8983 2.82246 12.9287 2.76935 12.9666 2.69348ZM13.2398 4.52959L12.6935 5.42489C12.4962 5.34902 12.3065 5.28073 12.1093 5.20486C11.8665 5.09863 11.7602 4.96206 11.7982 4.80273L12.2914 4.07435C12.6555 4.21851 12.8528 4.30198 12.8907 4.30957C13.0349 4.37026 13.1487 4.44613 13.2398 4.52959ZM14.2564 5.63733C13.9757 5.44007 13.8164 5.33384 13.786 5.31108C13.6191 5.20486 13.4446 5.12899 13.2777 5.09105L12.6555 5.74356L11.8209 5.50835C11.6768 5.48559 11.5402 5.56146 11.4188 5.74356C11.2215 6.04705 11.1229 6.20637 11.1077 6.21396C11.085 6.35812 11.1912 6.47951 11.434 6.57815C11.5706 6.62367 11.7754 6.70713 12.0561 6.81335C12.2534 6.52503 12.4507 6.22914 12.6555 5.94082C12.7921 6.06222 12.9514 6.16844 13.1487 6.26708C13.2549 6.32778 13.4294 6.41123 13.6571 6.52504C13.8771 6.25949 14.0744 5.96358 14.2564 5.62974V5.63733ZM10.3566 4.54477C10.3945 4.66616 10.3718 4.79515 10.2959 4.93931C10.22 5.07588 10.1593 5.1821 10.1214 5.25797C9.98483 5.42489 9.81032 5.51594 9.59029 5.51594C9.54477 5.51594 9.4613 5.50076 9.3475 5.47041C9.23369 5.44007 9.15023 5.33385 9.1047 5.15175C9.14264 4.8255 9.27921 4.48406 9.522 4.13505C9.53718 4.21851 9.50683 4.34749 9.44613 4.51441C9.38543 4.68133 9.35508 4.79515 9.35508 4.84067C9.35508 4.98483 9.45372 5.08347 9.6434 5.12899C9.87102 5.12899 10.0228 5.08347 10.0835 4.98483C10.1062 4.87861 10.0379 4.77239 9.86343 4.66617C9.69651 4.55995 9.60546 4.48407 9.60546 4.43855C9.60546 4.36268 9.66616 4.2868 9.78756 4.20334C9.88619 4.20334 9.98483 4.24128 10.0986 4.30957C10.1366 4.33233 10.22 4.41579 10.3566 4.54477ZM11.5402 8.695C11.5781 8.77846 11.5781 8.8695 11.5478 8.96054C11.5175 9.05159 11.4643 9.14265 11.3961 9.24128C11.3202 9.33991 11.2291 9.38543 11.1077 9.38543C11.0698 9.38543 11.0167 9.37026 10.9408 9.3475C10.8422 9.24128 10.7967 9.09712 10.7967 8.9302C10.7967 8.78604 10.8422 8.61912 10.9256 8.43702C11.0091 8.25493 11.0926 8.08042 11.1836 7.90592C11.1836 7.98179 11.1533 8.10319 11.085 8.2777C11.0167 8.4522 10.9863 8.58119 10.9863 8.67224C10.9863 8.80881 11.0546 8.91502 11.1836 8.99848C11.2671 9.02124 11.3354 8.9833 11.3961 8.87708C11.4492 8.77086 11.5023 8.71016 11.5478 8.6874L11.5402 8.695ZM7.29894 3.01214C7.29894 3.20941 7.261 3.3308 7.19272 3.3915C6.85129 3.3915 6.65402 3.6343 6.59332 4.11988C6.53263 4.60547 6.45675 4.90896 6.35812 5.03035C6.2519 4.94689 6.1305 4.71928 6.00152 4.35509C5.87253 3.9909 5.72079 3.8088 5.5387 3.8088C5.46282 3.8088 5.40971 3.80881 5.37178 3.82398C5.31108 3.77846 5.28073 3.71776 5.28073 3.64188C5.28073 3.58119 5.30349 3.50532 5.34143 3.40668C5.38695 3.30805 5.40212 3.24734 5.40212 3.22458C5.46282 3.16388 5.51593 3.13354 5.56904 3.13354C5.64492 3.13354 5.72079 3.18665 5.80425 3.28528C5.88771 3.3915 5.94082 3.45979 5.97117 3.49772C6.07739 3.76328 6.1912 4.02883 6.29742 4.27921C6.33536 4.23369 6.41882 3.96055 6.55539 3.47496C6.65402 3.12595 6.81335 2.94386 7.04856 2.94386C7.10926 2.94386 7.19272 2.95903 7.30653 2.99696L7.29894 3.01214ZM4.93171 1.06222C4.87102 1.16086 4.84067 1.25948 4.84067 1.37329C4.84067 1.45675 4.87102 1.57057 4.92413 1.69955C4.97724 1.83612 5.00759 1.92717 5.00759 1.97269C5.00759 2.07891 4.95448 2.19272 4.84067 2.29894L4.60546 2.04097C4.2261 2.48103 3.78604 2.89075 3.27769 3.2777C2.83763 3.61913 2.34446 3.93778 1.783 4.24127C2.67071 3.46737 3.55842 2.68589 4.46131 1.91199C4.43854 1.88923 4.3475 1.82094 4.18816 1.69955C4.02883 1.58574 3.93778 1.47193 3.91502 1.36571C3.93778 1.20638 4.00607 1.06222 4.12747 0.925646C4.24128 0.789075 4.37026 0.698028 4.522 0.652504C4.62823 0.629742 4.71927 0.652501 4.79514 0.743548C4.87102 0.827007 4.91654 0.933232 4.9393 1.05463L4.93171 1.06222ZM16.6237 7.14719C16.563 6.85888 16.4416 6.34295 16.2595 5.61457C15.9939 4.53718 15.827 3.70258 15.7663 3.11836L15.8953 2.8604C15.9712 2.89833 16.0622 3.00455 16.1684 3.18664C16.2747 3.36874 16.3961 3.45979 16.5175 3.45979C16.3809 2.98938 16.2215 2.53414 16.0319 2.10926C15.8422 1.68437 15.6222 1.2519 15.3642 0.819425C15.2807 0.963583 15.1973 1.12292 15.1062 1.28225C15.0228 1.44917 14.9772 1.58574 14.9772 1.70713C14.9772 1.81335 15 1.91199 15.0531 1.99545C15.5235 4.46131 16.0015 6.91958 16.4719 9.37026C16.4947 9.59788 16.525 9.83309 16.563 10.0607C16.563 10.2428 16.4795 10.3642 16.305 10.4249C16.047 10.5311 15.7739 10.5918 15.4856 10.5918C15.0379 10.5918 14.6662 10.4628 14.3778 10.2124C14.3778 10.1897 14.393 10.1366 14.431 10.0455C14.4689 9.96207 14.4765 9.89377 14.4461 9.84825C14.4082 9.89377 14.3171 10.0531 14.173 10.3187C13.9757 10.6601 13.7633 10.8574 13.5357 10.9181C13.4143 10.9408 13.3156 10.956 13.2473 10.956C12.9211 10.956 12.6555 10.8346 12.4431 10.5918C12.4279 10.5463 12.4583 10.4249 12.5341 10.2428C12.5569 10.1669 12.5645 10.1062 12.5493 10.0607C12.2838 10.3035 12.0106 10.5463 11.7299 10.7967C11.4492 11.047 11.1533 11.1684 10.8346 11.1684C10.569 11.1684 10.3338 11.0243 10.1214 10.7284C10.0152 10.569 9.85584 10.3263 9.65099 10C9.4082 9.91655 9.17299 9.87102 8.93779 9.87102C8.53566 9.87102 8.11836 9.99242 7.6783 10.2352C7.39757 10.3945 7.0258 10.6601 6.57056 11.0395C6.28983 11.2671 5.95599 11.5706 5.56904 11.9347C4.7648 12.7011 4.2261 13.1942 3.94537 13.4067C3.71775 13.5736 3.47496 13.7178 3.23217 13.824C2.98938 13.9302 2.76176 13.9909 2.54173 13.9909C2.29894 13.9909 2.07132 13.9226 1.86646 13.7936C1.60091 13.5129 1.46434 13.2094 1.46434 12.8832C1.46434 12.5569 1.59332 12.1927 1.8437 11.7527C1.98027 11.5099 2.18513 11.1608 2.46586 10.7132C1.9044 11.4264 1.57056 11.9272 1.44917 12.2079C1.28983 12.5493 1.21396 12.8907 1.21396 13.2473C1.21396 13.566 1.28983 13.8695 1.44917 14.173C1.58574 14.3703 1.75266 14.522 1.9651 14.6358C2.17754 14.7496 2.38999 14.8103 2.61002 14.8103C2.73141 14.8103 2.84522 14.7951 2.95903 14.7572C3.42185 14.6206 3.89226 14.3475 4.37785 13.9226C4.42337 13.8771 4.84826 13.4674 5.63733 12.7011C6.20637 12.17 6.64643 11.7982 6.94992 11.5933C7.45827 11.2519 7.96662 11.0395 8.45979 10.956C8.59636 10.9105 8.71775 10.8801 8.83915 10.8801C9.11988 10.8801 9.38543 11.1229 9.65099 11.6085C9.90895 12.0941 10.2276 12.3065 10.607 12.2458C10.8725 12.2458 11.1381 12.1472 11.4112 11.9575C11.5933 11.8209 11.7982 11.6237 12.0334 11.3581C12.0486 11.4795 12.1093 11.5857 12.2155 11.6844C12.2914 11.7451 12.3824 11.8209 12.5038 11.9044C12.648 11.9803 12.7997 12.0106 12.959 12.0106C13.0804 12.0106 13.2398 11.9879 13.4294 11.9347C13.6115 11.8513 13.7633 11.692 13.8847 11.4643C13.9605 11.2671 14.0364 11.0698 14.1199 10.865V11.1002C14.1806 11.2443 14.2792 11.3581 14.4082 11.4492C14.4841 11.4947 14.6131 11.5554 14.8103 11.6161C14.9772 11.654 15.1593 11.6692 15.3414 11.6692C15.569 11.6692 15.7891 11.6313 15.9939 11.5478C16.1988 11.4719 16.3733 11.3505 16.5023 11.1912C16.6464 10.8118 16.7451 10.4856 16.7906 10.2049C16.8361 9.92412 16.8665 9.59788 16.8665 9.21852C16.8665 8.86951 16.8437 8.52049 16.7906 8.18665C16.7451 7.85281 16.6768 7.49621 16.5933 7.12443L16.6237 7.14719ZM15.0228 12.7921C15.0228 13.1184 14.871 13.3536 14.5675 13.4826C14.4689 13.4826 14.3247 13.5205 14.1199 13.604C13.9226 13.6798 13.7785 13.7253 13.695 13.7253C13.5281 13.7253 13.3839 13.6495 13.2777 13.4901C12.959 13.5888 12.5948 13.7405 12.1851 13.9454C11.8816 14.1047 11.6616 14.2185 11.5326 14.2944C11.2064 14.4537 10.8953 14.5751 10.5918 14.6662C10.2959 14.7572 9.98483 14.8027 9.67375 14.8027C9.9393 14.7648 10.1745 14.7041 10.3718 14.6131C10.569 14.522 10.9788 14.2944 11.5857 13.9302C12.0258 13.6495 12.3217 13.4674 12.481 13.3839C12.8225 13.217 13.1639 13.1259 13.4977 13.1259C13.5736 13.2094 13.6646 13.2777 13.786 13.3384C13.9074 13.3915 14.0137 13.3991 14.0971 13.3687C14.173 13.2018 14.2261 13.0728 14.2716 12.997C14.3171 12.9211 14.3627 12.8528 14.4234 12.8073L14.4613 13.1563C14.5827 13.1942 14.6889 13.1563 14.7876 13.0653C14.9317 12.8983 15.0152 12.8073 15.0228 12.8073V12.7921ZM7.9742 13.6874C7.89833 13.8467 7.85281 13.9605 7.83005 14.0364C7.76935 14.173 7.70106 14.264 7.63278 14.3247C7.54932 14.3703 7.45068 14.3703 7.35205 14.3247C7.24583 14.2792 7.2003 14.2033 7.2003 14.1047C7.17754 13.8391 7.24583 13.5508 7.39757 13.2473C7.48103 13.1032 7.56449 12.9514 7.65554 12.7921C7.59484 12.9514 7.54932 13.0728 7.51138 13.1563C7.43551 13.3384 7.40516 13.4901 7.40516 13.6115C7.40516 13.7481 7.45827 13.8619 7.57208 13.9606C7.65554 13.9833 7.74659 13.9378 7.84522 13.8164C7.90592 13.7405 7.95144 13.7026 7.98938 13.6874H7.9742ZM9.65099 16.4036C8.96813 16.7678 8.30046 17.0561 7.64795 17.261C6.83612 17.5266 6.08498 17.6631 5.38695 17.6631C4.15781 17.6631 3.24734 17.5721 2.64795 17.3976C2.04856 17.2231 1.51745 16.9575 1.05463 16.6085C0.667679 16.3202 0.394537 15.9636 0.235205 15.5463C0.0758729 15.129 0 14.6358 0 14.0819C0.182094 13.088 0.462823 12.2382 0.834598 11.5326C1.27466 10.698 1.86646 10 2.6176 9.45372C2.54173 9.37026 2.13961 9.09712 1.39605 8.6343C0.887709 8.31563 0.629743 7.9211 0.629743 7.45069C0.789075 6.91958 0.971169 6.53263 1.17602 6.29742C1.38088 6.06222 1.61609 5.91048 1.88923 5.84978C2.35964 5.80425 2.89833 5.7739 3.49014 5.7739C4.30197 5.7739 5.08346 5.81184 5.81942 5.8953C6.56297 5.97117 7.37481 6.10016 8.26252 6.26708C8.42185 6.40365 8.49772 6.49468 8.49772 6.54021C8.49772 6.57814 8.48255 6.62367 8.44461 6.68437C8.33839 6.98786 8.23976 7.20789 8.1563 7.33687C7.99696 7.57966 7.7997 7.71624 7.55691 7.75417C6.98786 8.01214 6.41882 8.25493 5.86495 8.49772C5.09863 8.83915 4.47648 9.14265 3.9909 9.4082C3.28528 9.79515 2.71624 10.1593 2.27618 10.5008C1.72989 10.9256 1.29742 11.3809 0.986343 11.8665C0.644917 12.352 0.477997 12.9363 0.477997 13.6115C0.477997 13.8998 0.523521 14.1957 0.622155 14.4841C1.04704 15.1366 1.63885 15.6525 2.40516 16.0319C3.07284 16.3581 3.84674 16.5706 4.71927 16.6692C5.14416 16.7071 5.56146 16.7223 5.97876 16.7223C6.62367 16.7223 7.18513 16.6995 7.67071 16.6464C8.1563 16.6009 8.81639 16.5099 9.65857 16.3885L9.65099 16.4036ZM4.96965 11.6313C4.55994 12.261 3.9909 12.5797 3.27769 12.5797C3.14112 12.5797 3.05008 12.5797 2.98938 12.5645C2.78452 12.4659 2.64795 12.3596 2.58725 12.2382C2.64795 11.9803 2.76935 11.7451 2.95144 11.525C3.13354 11.305 3.34598 11.1684 3.58877 11.1077C3.50531 11.085 3.41426 11.0622 3.32322 11.0319C3.23217 11.0091 3.17147 10.9939 3.14871 10.9939C3.06525 10.9939 2.98179 11.0395 2.91351 11.1229C2.87557 11.1229 2.86039 11.1077 2.86039 11.0774C2.86039 11.047 2.8604 11.0167 2.87557 10.9788C2.99697 10.7587 3.18665 10.6525 3.43703 10.6525C3.54325 10.6525 3.65706 10.6677 3.76328 10.698C3.8695 10.7284 3.97572 10.7739 4.07436 10.8346C4.05159 11.0622 3.85432 11.2671 3.48255 11.434C3.11077 11.6009 2.92868 11.7451 2.92868 11.8513C2.92868 11.9347 2.99697 12.0486 3.12595 12.1775C3.27011 12.2003 3.38391 12.2155 3.47496 12.2155C3.73293 12.2155 3.9909 12.1548 4.25645 12.0334C4.37785 11.9879 4.61305 11.8513 4.96965 11.6313ZM4.6434 1.50987V1.32777C4.62064 1.16844 4.53718 1.09257 4.38543 1.09257C4.30956 1.09257 4.25645 1.12291 4.21851 1.18361L4.63581 1.50987H4.6434ZM6.88164 7.15479C6.47193 7.35205 5.8346 7.63277 4.96965 8.01214C4.2261 8.35356 3.60395 8.695 3.0956 9.0516C3.0956 8.58878 2.76176 8.15629 2.09408 7.76176C1.6692 7.50379 1.38847 7.31412 1.25948 7.17755C1.51745 7.05615 1.77542 6.97268 2.04856 6.93475C2.3217 6.88923 2.64795 6.87405 3.01973 6.87405C3.10319 6.87405 3.56601 6.89682 4.40061 6.94993C4.60546 6.9651 4.8786 6.9651 5.22003 6.9651L6.87405 7.16237L6.88164 7.15479Z" fill="white"/>
</svg>
