<svg width="20" height="13" viewBox="0 0 20 13" fill="none" xmlns="http://www.w3.org/2000/svg">
<path fill-rule="evenodd" clip-rule="evenodd" d="M20 2.81473C19.9046 2.80413 19.8304 2.75113 19.7721 2.65041C19.6024 2.36417 19.4858 2.19984 19.4275 2.16803C19.3162 2.34826 19.2632 2.58681 19.2632 2.89426C19.2632 3.05328 19.2738 3.23351 19.3003 3.42434C19.3268 3.61517 19.3533 3.80069 19.3745 3.97562C19.5017 5.1471 19.6342 6.31859 19.7668 7.48477C19.7668 8.34351 19.735 8.9743 19.6713 9.38246C19.6077 9.79062 19.5017 10.167 19.348 10.5168C19.348 10.2518 19.3586 9.88603 19.3798 9.40896C19.401 8.93188 19.4116 8.64034 19.4116 8.52902C19.4116 8.35939 19.4116 8.18978 19.401 8.02545C19.3904 7.86113 19.3745 7.69679 19.348 7.53777L18.5953 1.251C18.5529 1.18209 18.5317 1.10258 18.5317 1.00717C18.5317 0.864047 18.5953 0.694409 18.7225 0.498279C18.7543 0.439969 18.8179 0.349856 18.9133 0.233237C19.1148 0.646702 19.3215 1.06547 19.5229 1.47893C19.7615 1.97721 19.9152 2.42247 19.9947 2.81473H20ZM15.1763 0.471781C15.1073 0.683814 14.9324 0.84283 14.6568 0.943546C14.3758 1.04426 14.1108 1.13968 13.8563 1.22449C13.0082 1.53194 12.1601 1.83409 11.312 2.14154C11.2961 1.95601 11.3597 1.82349 11.5028 1.74928C11.7572 1.66447 12.017 1.57435 12.2767 1.48424C12.7591 1.33052 13.2521 1.17149 13.745 1.00717C14.2433 0.842844 14.7204 0.667916 15.1763 0.477087V0.471781ZM14.503 5.42275C14.5296 5.49696 14.519 5.58707 14.4712 5.68779C14.4235 5.7885 14.3864 5.87332 14.3546 5.93693C14.3228 6.00054 14.2751 6.03234 14.2062 6.03234H14.0419C13.9306 5.86271 13.8776 5.67718 13.8776 5.47045C13.8776 5.29022 13.9306 5.05699 14.0419 4.76014C14.0949 4.63292 14.1426 4.50041 14.1956 4.36789C14.1956 4.4527 14.1744 4.61172 14.1267 4.84496C14.079 5.0782 14.0578 5.23192 14.0578 5.31143C14.0578 5.47046 14.0896 5.60827 14.1585 5.71959C14.2539 5.7461 14.3228 5.70368 14.3705 5.59767C14.4182 5.49165 14.4606 5.43335 14.503 5.42805V5.42275ZM10.2306 2.05143C10.2624 2.16805 10.2412 2.30057 10.167 2.44369C10.1246 2.5126 10.0769 2.58151 10.0292 2.64512C9.92844 2.67693 9.84893 2.66632 9.80122 2.60801C9.74821 2.5497 9.7058 2.46488 9.674 2.35357C9.7005 2.15213 9.73231 1.9454 9.76941 1.73867C9.80652 1.53194 9.86483 1.34112 9.93904 1.17149C9.94964 1.2457 9.93374 1.38352 9.89663 1.57434C9.85953 1.76517 9.83833 1.89241 9.83833 1.95071C9.83833 2.15215 9.91784 2.27936 10.0822 2.32176L10.2359 2.05672L10.2306 2.05143ZM12.2025 4.09754C12.1495 4.15585 12.0965 4.18766 12.0382 4.18766C11.9958 4.18766 11.964 4.18765 11.9375 4.17705C11.8526 4.13464 11.7996 4.10815 11.7731 4.10285C11.7307 4.06044 11.6565 4.09224 11.5452 4.19826C11.4339 4.30427 11.3226 4.33608 11.2165 4.29367C11.0628 4.18235 10.9886 4.01273 10.9886 3.78479C10.9886 3.68938 11.0098 3.56216 11.0469 3.40313C11.084 3.24411 11.1105 3.12218 11.1317 3.04797H11.1953C11.2218 3.12218 11.2165 3.23882 11.19 3.39254C11.1582 3.54626 11.1476 3.63638 11.1476 3.65758C11.1476 3.75299 11.1688 3.8219 11.2059 3.86961C11.243 3.91732 11.3279 3.93852 11.4551 3.93852C11.5823 3.86961 11.6459 3.76359 11.6459 3.62047C11.63 3.46145 11.6194 3.33952 11.6194 3.26531C11.6194 3.13809 11.6512 3.04267 11.7201 2.98437C11.7625 3.03737 11.7837 3.11688 11.7837 3.2282C11.7731 3.38192 11.7731 3.48794 11.7731 3.54625C11.7731 3.73178 11.8473 3.82719 11.9905 3.82719C12.017 3.82719 12.0647 3.8166 12.1283 3.8007C12.1442 3.72648 12.1283 3.62577 12.0912 3.50385C12.0488 3.38193 12.0276 3.30242 12.0276 3.27061C12.0276 3.1858 12.0541 3.11159 12.1018 3.05328C12.229 3.2229 12.2926 3.42963 12.2926 3.67877C12.2926 3.8378 12.2661 3.98622 12.2184 4.11344L12.2025 4.09754ZM11.0946 0.190838C10.1723 0.429375 9.38776 0.636103 8.74105 0.816331C7.86642 1.06017 7.0978 1.30932 6.4405 1.55315C6.25497 1.62736 6.05884 1.71218 5.85741 1.80229C5.65598 1.89241 5.54996 2.03552 5.54996 2.22635C6.24437 1.8977 7.12961 1.56905 8.19507 1.2457C9.10151 0.991257 10.008 0.731521 10.9197 0.471781C10.9886 0.413472 11.031 0.365759 11.0522 0.333954C11.0734 0.302149 11.0893 0.254453 11.0946 0.196144V0.190838ZM5.76199 1.00717C5.7779 1.09198 5.77259 1.18209 5.75139 1.28281C5.72489 1.37822 5.68248 1.45773 5.62417 1.51604C5.57116 1.53195 5.52346 1.52664 5.47045 1.49484C5.41744 1.46303 5.38564 1.41532 5.36973 1.34111C5.35383 1.2669 5.34323 1.18209 5.34323 1.08137C5.34323 0.901144 5.38563 0.678515 5.47045 0.408174C5.51285 0.270352 5.55526 0.137821 5.59767 0C5.61357 0.0742115 5.60827 0.174937 5.58707 0.291555C5.51816 0.641409 5.48635 0.816325 5.48635 0.826927C5.48635 0.970049 5.52346 1.08668 5.60297 1.17149L5.76729 1.00717H5.76199ZM8.97959 3.52506C8.96369 3.66818 8.90008 3.806 8.78876 3.93852C8.67745 4.07104 8.57143 4.19296 8.47071 4.31488C8.41771 4.24597 8.30109 4.16645 8.11026 4.08164C7.91943 3.99153 7.82401 3.90672 7.82401 3.8219C7.82401 3.7689 7.83462 3.73179 7.85052 3.70529L8.28518 3.12219C8.4018 3.154 8.52372 3.2123 8.64034 3.28652C8.68275 3.31302 8.79936 3.39253 8.98489 3.53035L8.97959 3.52506ZM10.0981 5.95283C10.0557 6.08005 10.0186 6.20727 9.98145 6.33449C9.92314 6.47761 9.82242 6.57302 9.6899 6.61543C9.63159 6.62603 9.57859 6.60483 9.53088 6.55182C9.48317 6.49882 9.44606 6.44051 9.42486 6.3716C9.42486 6.10126 9.44076 5.86802 9.46727 5.67719C9.49907 5.48636 9.56268 5.30083 9.6634 5.1259C9.6528 5.16831 9.63159 5.27432 9.59449 5.44924C9.55738 5.62417 9.53618 5.76199 9.53618 5.86271C9.53618 6.01643 9.57859 6.14896 9.6634 6.27088C9.80122 6.27088 9.90724 6.21787 9.99205 6.10656C10.0186 6.03765 10.0345 5.98993 10.0451 5.95283H10.0981ZM15.1232 11.1953C14.996 11.365 14.8688 11.5399 14.7416 11.7148C14.6409 11.8102 14.5349 11.842 14.4235 11.8155C14.3917 11.7837 14.2433 11.6883 13.9889 11.5346C13.8086 11.4339 13.7238 11.3173 13.7238 11.19L14.3069 10.6175L15.1232 11.19V11.1953ZM16.9573 8.23218C16.687 6.23907 16.4166 4.24066 16.1569 2.24225L16.2735 2.01432C16.3583 2.08853 16.4431 2.19455 16.528 2.33237C16.5704 2.40129 16.634 2.50729 16.7188 2.65041L16.7718 2.59742C16.7029 2.21576 16.5916 1.82349 16.4272 1.42063C16.2682 1.01777 16.0721 0.636098 15.8442 0.280943C15.8336 0.312748 15.7699 0.45058 15.6427 0.689117C15.5579 0.848141 15.5155 0.985957 15.5155 1.09727C15.5155 1.19269 15.5367 1.2722 15.5791 1.34111C15.6374 1.90299 15.7593 2.70873 15.9343 3.76889C16.0721 4.57462 16.2046 5.39094 16.3424 6.21787C16.4803 7.0448 16.581 7.85052 16.6499 8.62974C16.3265 8.76756 16.0085 8.83117 15.6957 8.83117C15.4307 8.83117 15.1763 8.78347 14.9271 8.69336C14.678 8.59795 14.4553 8.45482 14.2592 8.25869C14.2168 8.21628 14.2115 8.15798 14.2486 8.07846C14.2804 8.00425 14.2857 7.94594 14.2592 7.91414C14.0472 8.14207 13.8351 8.37 13.6231 8.58734C13.3581 8.85238 13.1036 8.97959 12.8492 8.97959C12.7803 8.97959 12.7326 8.9796 12.6955 8.969C12.441 8.92659 12.2396 8.85237 12.0912 8.74636C11.9428 8.64034 11.8208 8.48663 11.7201 8.2799C11.6247 8.07847 11.5452 7.79751 11.4869 7.44236C11.3438 6.52002 11.2642 6.03233 11.243 5.97933L10.9144 6.66844C10.9303 6.88048 10.9621 7.09781 11.0045 7.31514C11.0151 7.34695 11.0681 7.6438 11.1688 8.19508C11.031 8.40711 10.8667 8.56083 10.6653 8.65094C10.4638 8.74636 10.2412 8.78877 9.98675 8.78877C9.6899 8.78877 9.43016 8.73576 9.21283 8.62445C8.90538 8.48133 8.75696 8.25869 8.75696 7.96184C8.75696 7.85053 8.78346 7.7339 8.83117 7.60668C8.3965 8.00424 8.04135 8.29579 7.7604 8.47072C7.32574 8.74106 6.91757 8.87888 6.52531 8.87888C6.32388 8.87888 6.10655 8.84177 5.87861 8.76226C5.52876 8.65094 5.21601 8.3965 4.93507 7.99894C4.72303 7.65969 4.5163 7.31515 4.30957 6.97059C3.69997 7.0236 3.26001 7.43705 3.00027 8.21627C2.67161 9.18102 2.36417 9.77472 2.08322 9.99736C1.99841 10.0398 1.90299 10.061 1.79168 10.061C1.73337 10.061 1.64325 10.0504 1.52664 10.0345C1.21389 9.81183 0.97005 9.57328 0.800424 9.30824C0.604294 9.00079 0.508879 8.68275 0.508879 8.3541C0.508879 8.17387 0.524781 7.99364 0.561887 7.80281C0.593692 7.61198 0.636099 7.46886 0.678505 7.37875C0.832229 7.34695 0.975351 7.18791 1.10257 6.90697C1.23509 6.62603 1.2987 6.34509 1.2987 6.06945C1.2987 5.97403 1.2881 5.88392 1.2616 5.7885C1.20859 5.79911 1.17678 5.8256 1.16618 5.87861C1.15558 5.93162 1.13968 5.99524 1.12907 6.07475C1.11847 6.15427 1.07607 6.22848 1.01246 6.29209C0.948847 6.3557 0.869335 6.37689 0.779221 6.35039C0.625497 6.17016 0.524781 6.00054 0.466472 5.83621C0.413464 5.67188 0.381659 5.47576 0.381659 5.24252C0.381659 4.92977 0.471773 4.5163 0.6467 4.00742C0.890538 3.30241 1.02306 2.91545 1.03896 2.85184C0.715611 3.39253 0.477074 3.85901 0.328651 4.25127C0.106017 4.81316 0 5.33793 0 5.8309C0 6.07474 0.0371059 6.32919 0.106017 6.58363C0.180228 6.83807 0.280944 7.066 0.418765 7.27273C0.418765 7.39995 0.402862 7.665 0.365757 8.06256C0.333952 8.46012 0.312748 8.74636 0.312748 8.91599C0.312748 9.31355 0.376358 9.6687 0.503578 9.98675C0.705009 10.2995 0.885238 10.5274 1.03896 10.6759C1.2828 10.9144 1.53724 11.031 1.79168 11.031C2.28465 10.8508 2.66101 10.3207 2.92605 9.44076C3.19109 8.56083 3.56215 8.03075 4.04453 7.86113C4.65412 8.77817 5.00928 9.28174 5.11529 9.37715C5.41214 9.6475 5.74609 9.78533 6.12245 9.78533C6.15425 9.78533 6.20726 9.79592 6.27617 9.81183H6.4299C6.81156 9.81183 7.17201 9.70581 7.51657 9.49908C7.86112 9.29235 8.16857 9.02201 8.43891 8.69336C8.46541 8.80998 8.49192 8.93189 8.52902 9.04851C8.68805 9.30295 8.92658 9.48317 9.23933 9.59449C9.48317 9.6793 9.78532 9.72171 10.1405 9.72171C10.4214 9.64749 10.6547 9.54148 10.8402 9.41426C11.0787 9.25524 11.2324 9.05911 11.2961 8.83117C11.365 8.97429 11.4339 9.11742 11.5081 9.26584C11.5823 9.40896 11.6724 9.52558 11.7837 9.61039C12.0117 9.81182 12.282 9.91785 12.6001 9.91785C12.7008 9.91785 12.8015 9.90724 12.9075 9.88074C13.1036 9.81183 13.2892 9.6899 13.4694 9.50968C13.5966 9.38246 13.7344 9.20754 13.8776 8.9902C14.4023 9.52559 14.9907 9.79062 15.6321 9.79062C15.8866 9.79062 16.1675 9.74292 16.4697 9.65281C16.6923 9.54149 16.8301 9.32945 16.8884 9.0167C16.9149 8.84708 16.9414 8.59264 16.9785 8.25338L16.9573 8.23218ZM4.43679 1.33582C4.43679 1.47894 4.41028 1.61145 4.35197 1.72277C4.29897 1.83939 4.20355 1.9136 4.07633 1.956C3.99152 1.97191 3.8961 1.9348 3.79539 1.83939C3.69467 1.74397 3.60986 1.70158 3.54095 1.70158C3.15929 2.09914 2.76173 2.44369 2.34296 2.72994C1.9295 3.01618 1.46833 3.27592 0.970051 3.50385C1.78638 2.86775 2.5974 2.23165 3.41373 1.59555C3.36072 1.56905 3.32362 1.55314 3.29711 1.54254C3.2123 1.50013 3.15399 1.45773 3.11688 1.41533C3.14869 1.34111 3.1964 1.18208 3.2547 0.943546C3.31301 0.705009 3.40843 0.524781 3.53565 0.397562C3.75828 0.397562 3.94911 0.503581 4.10814 0.715614C4.21945 0.858736 4.32547 1.06547 4.42619 1.32521L4.43679 1.33582ZM7.28863 5.06229L7.23562 5.32734C7.0819 5.30083 6.97588 5.29023 6.91757 5.29023C6.84866 5.29023 6.80095 5.34324 6.77975 5.44395C6.73734 5.7408 6.70554 5.98463 6.67904 6.18076C6.65253 6.37689 6.57302 6.52002 6.4352 6.61543C6.38219 6.54652 6.29738 6.35039 6.17016 6.03234C6.07474 5.7885 5.95812 5.66129 5.815 5.66129C5.67188 5.61888 5.57646 5.58178 5.53406 5.54467C5.49165 5.51287 5.47045 5.45985 5.47045 5.39094C5.47045 5.27432 5.49165 5.163 5.52876 5.06758C5.56586 4.97217 5.63477 4.90857 5.74079 4.88207C5.92102 4.98278 6.07474 5.20011 6.20726 5.52346C6.33978 5.85211 6.4405 6.05354 6.52001 6.12775C6.56242 6.05354 6.60482 5.85742 6.65253 5.54467C6.70024 5.23192 6.79565 5.03049 6.93878 4.94568L7.29393 5.06229H7.28863ZM4.55341 3.56215C4.5004 3.62046 4.43679 3.74239 4.35197 3.93322C4.26716 4.11875 4.17175 4.24066 4.07103 4.28836L3.28121 3.91732C3.2388 3.97032 3.18579 4.05514 3.12748 4.18236C3.03207 4.40499 2.92605 4.5269 2.79883 4.5534C2.69812 4.5534 2.5709 4.52161 2.41717 4.4527C2.18924 4.35199 2.06732 4.29366 2.04612 4.28836C2.12033 3.95971 2.29526 3.68938 2.5656 3.48795C2.66631 3.53036 2.79353 3.58336 2.94726 3.64697C3.10098 3.71058 3.2282 3.75298 3.32892 3.77949C3.36072 3.75298 3.45083 3.62576 3.59396 3.39783C3.70527 3.2176 3.81129 3.13279 3.91201 3.13279C3.98092 3.13279 4.06043 3.1805 4.15584 3.27061C4.25656 3.32362 4.34137 3.36603 4.40498 3.40313C4.46859 3.44024 4.5163 3.49324 4.55341 3.56215ZM12.3774 11.5505C12.3774 11.5505 12.2608 11.6883 12.0859 11.9216C11.9693 12.0753 11.842 12.1601 11.7042 12.176C11.6724 12.1601 11.5823 12.0912 11.4445 11.964C11.3067 11.842 11.1953 11.7784 11.1211 11.7784C11.0681 11.7784 11.0098 11.8049 10.9409 11.8526C10.7872 12.0753 10.7077 12.1919 10.6971 12.2078C10.6228 12.2926 10.5433 12.3509 10.4691 12.388C10.4161 12.335 10.3048 12.2502 10.1246 12.1283C9.94434 12.0064 9.83302 11.9003 9.78002 11.8155C9.90724 11.5929 10.0928 11.3597 10.3419 11.1158L11.031 11.4445C11.243 11.4445 11.4339 11.2855 11.6035 10.9621C11.789 11.0734 11.9321 11.1529 12.0223 11.2059C12.1919 11.3067 12.3085 11.4233 12.3774 11.5505ZM4.22475 1.55315C4.16645 1.60616 4.08693 1.60085 3.99682 1.54254C3.95441 1.51604 3.8802 1.46834 3.76888 1.38883L3.8961 1.07078C3.97032 1.12909 4.03923 1.19799 4.09223 1.28281C4.14524 1.36232 4.19295 1.45243 4.22475 1.55844V1.55315ZM3.66287 1.28811C3.55155 1.24571 3.44023 1.20329 3.33422 1.16088L3.49854 0.980655C3.55685 1.02306 3.60456 1.07077 3.64697 1.11848C3.68407 1.17149 3.68937 1.2245 3.66817 1.28281L3.66287 1.28811Z" fill="white"/>
</svg>
