<svg width="20" height="9" viewBox="0 0 20 9" fill="none" xmlns="http://www.w3.org/2000/svg">
<path fill-rule="evenodd" clip-rule="evenodd" d="M20 5.37952C20 5.7013 19.9849 5.97767 19.9584 6.21238C19.9319 6.4471 19.8789 6.69696 19.7994 6.96196C19.7994 6.33731 19.7577 5.65587 19.6706 4.91766C19.6214 4.51637 19.5268 3.83873 19.3829 2.88095C19.2391 1.92316 19.1406 1.22279 19.0876 0.772292C19.0384 0.719292 19.0157 0.651149 19.0157 0.571649C19.0157 0.492148 19.0536 0.397498 19.1331 0.28014C19.2429 0.128711 19.3034 0.0340716 19.3148 0C19.5344 0.477002 19.6669 0.779858 19.7161 0.908572C19.8561 1.26065 19.9394 1.58243 19.9697 1.88151C19.9016 1.71872 19.7918 1.56351 19.6328 1.41965L19.5419 1.60893C19.5419 2.00265 19.5874 2.4683 19.6782 3.00966C19.8902 4.26273 19.9962 5.05394 19.9962 5.37952H20ZM16.9752 0.200643C16.9373 0.340715 16.8351 0.439147 16.661 0.499719C16.4868 0.560291 16.3241 0.613288 16.1651 0.662502C15.7032 0.791217 15.1808 0.972929 14.594 1.21522C14.0867 1.43479 13.5756 1.64679 13.0683 1.85879C13.0683 1.79065 13.0948 1.73386 13.144 1.68086C13.1933 1.62786 13.2614 1.57865 13.3409 1.52944C14.5523 1.08651 15.7638 0.643578 16.9752 0.193076V0.200643ZM16.8011 3.30872C16.8011 3.38065 16.7897 3.4488 16.7632 3.51316C16.7405 3.57751 16.7026 3.64944 16.6534 3.73651C16.6118 3.73651 16.5663 3.7138 16.5209 3.67216C16.4755 3.63052 16.4452 3.57372 16.4263 3.50937C16.4073 3.44122 16.3998 3.35036 16.3998 3.23679C16.3998 3.01722 16.4566 2.84308 16.5739 2.71058C16.5626 2.7598 16.5474 2.82794 16.5285 2.91502C16.5096 3.00209 16.502 3.07022 16.502 3.11944C16.502 3.20272 16.5133 3.27466 16.5323 3.32766C16.555 3.38066 16.5928 3.43744 16.6534 3.49044C16.6837 3.48287 16.7064 3.45637 16.7253 3.40337C16.7443 3.35037 16.7556 3.32008 16.7632 3.30872H16.8011ZM15.9644 2.10865C15.9758 2.14651 15.972 2.18436 15.9455 2.22222C15.9228 2.26008 15.9076 2.28658 15.9076 2.29794C15.8849 2.3093 15.8433 2.29794 15.7903 2.25251C15.7108 2.19194 15.6653 2.15787 15.654 2.15408C15.5821 2.25251 15.5215 2.41529 15.4723 2.64622C15.4231 2.87715 15.3852 3.03237 15.3549 3.10808C15.2943 3.04751 15.2111 2.88851 15.1013 2.63486C15.0483 2.51372 14.9877 2.4153 14.9271 2.34337C14.9385 2.39637 14.912 2.43044 14.8514 2.43801C14.7871 2.44558 14.753 2.45315 14.7454 2.46072C14.7076 2.41151 14.6924 2.36229 14.6924 2.31686C14.6924 2.27522 14.7038 2.226 14.7227 2.173C14.7454 2.12 14.7643 2.0708 14.7833 2.02916C14.8022 1.98751 14.8211 1.96479 14.8476 1.96479C14.8893 1.98372 14.9196 1.99508 14.9385 2.00265C15.0293 2.09351 15.1051 2.21465 15.1694 2.36229C15.2338 2.50993 15.2943 2.6538 15.3549 2.79387C15.4041 2.58944 15.442 2.42287 15.4723 2.30173C15.5328 2.06701 15.6123 1.94587 15.707 1.94587C15.7751 1.94587 15.8584 1.99887 15.9606 2.10865H15.9644ZM12.9396 1.33636L12.8753 1.43479C12.8753 1.16979 12.8677 0.991858 12.8563 0.908572C12.826 0.7155 12.7617 0.552718 12.667 0.427789C12.667 0.306646 12.7049 0.234711 12.7844 0.20821C12.8525 0.291496 12.9018 0.401285 12.9396 0.53C12.9775 0.658714 12.9926 0.787437 12.9926 0.916151C12.9926 1.05622 12.9737 1.19629 12.9396 1.33257V1.33636ZM18.2737 5.24324C18.2737 4.72081 18.2131 4.12266 18.0958 3.4488C17.9784 2.77494 17.8686 2.12758 17.7626 1.5105L17.8459 1.41965C17.8762 1.44993 17.9216 1.49536 17.9822 1.55215C18.0428 1.60894 18.0806 1.66193 18.0996 1.71115C18.0996 1.51807 18.0276 1.25307 17.88 0.919929C17.6907 0.48457 17.5847 0.21579 17.5544 0.109789C17.4636 0.16279 17.3916 0.253644 17.3424 0.378573C17.2894 0.503502 17.2667 0.620864 17.2667 0.738222C17.4068 1.53701 17.5506 2.36229 17.6983 3.21408C17.8459 4.06587 17.9557 4.84194 18.0314 5.54609C17.8194 5.74673 17.5961 5.90952 17.3651 6.03066C17.1304 6.15559 16.8881 6.24267 16.6345 6.2881C16.3241 6.2881 16.1196 6.28053 16.0174 6.2616C15.7941 6.22374 15.6275 6.13288 15.5177 5.98902C15.9228 5.7051 16.3581 5.5423 16.8276 5.49687L17.0358 4.87981C16.6913 4.76624 16.343 4.67538 15.9947 4.60724C15.6464 4.53909 15.3019 4.5088 14.965 4.5088C14.7 4.5088 14.435 4.5353 14.17 4.59209C13.905 4.64509 13.6703 4.73216 13.4658 4.84573C13.4583 4.9063 13.4355 4.99338 13.3977 5.10317C13.3598 5.21674 13.3371 5.30002 13.3371 5.36059C13.3371 5.40224 13.3371 5.43631 13.3447 5.45903C13.3636 5.4666 13.3825 5.45903 13.4053 5.43631C13.428 5.4136 13.4469 5.40602 13.4658 5.40602C13.5264 5.39466 13.5718 5.3871 13.6021 5.3871C13.7422 5.3871 13.8785 5.42874 14.011 5.51581C14.1018 5.57638 14.276 5.74296 14.5296 6.01553C14.329 6.11774 14.1889 6.18588 14.1132 6.21617C13.9542 6.28431 13.8065 6.32974 13.6665 6.35245C13.4128 6.35245 13.1857 6.30703 12.9888 6.21617C12.792 6.12531 12.6368 5.98145 12.5194 5.78838C12.4172 5.29624 12.3528 4.70567 12.3301 4.01666C12.3074 3.32766 12.2847 2.66137 12.2658 2.02537C12.2279 1.30608 12.1408 0.700355 12.0008 0.20821C11.9402 0.268782 11.8872 0.35964 11.838 0.480783C11.8153 0.541355 11.7774 0.632213 11.7282 0.753356C11.8077 1.11679 11.872 1.54836 11.9175 2.04429C11.9667 2.54022 12.0121 3.01723 12.0538 3.47152C12.0613 3.51316 12.0727 3.5813 12.0916 3.67216V4.00908C12.0916 4.10751 12.0916 4.26273 12.084 4.4823C12.0765 4.70187 12.0765 4.86467 12.0765 4.97445C12.0765 5.4401 12.1219 5.81488 12.2128 6.09124C12.3339 6.46224 12.5535 6.73859 12.8677 6.92788C13.0305 6.98845 13.2008 7.01874 13.375 7.01874C13.6097 7.01874 13.8406 6.97331 14.0602 6.88245C14.2798 6.79159 14.4993 6.66667 14.7189 6.51146C14.7871 6.42817 14.8476 6.38274 14.9082 6.38274C14.9763 6.38274 15.0634 6.44332 15.177 6.56067C15.2906 6.67803 15.3701 6.74617 15.4193 6.76509C15.6843 6.90895 15.9796 6.98467 16.3013 6.98467C16.7556 6.98467 17.1418 6.86731 17.4636 6.62881C17.7248 6.49631 17.9254 6.30324 18.0693 6.05717C18.2131 5.80731 18.2813 5.53853 18.2813 5.24703L18.2737 5.24324ZM13.886 3.23679C13.8974 3.31629 13.8936 3.39958 13.8709 3.48665C13.8482 3.57372 13.8103 3.64565 13.7573 3.69865C13.6778 3.71758 13.621 3.71001 13.5908 3.67594C13.5605 3.64187 13.5264 3.58508 13.4961 3.50937C13.4885 3.47908 13.4885 3.42609 13.4885 3.35416C13.4885 3.22545 13.5113 3.09673 13.5529 2.96044C13.5945 2.82416 13.6513 2.69543 13.7157 2.57429C13.7157 2.62351 13.6968 2.71816 13.6627 2.85444C13.6248 2.99451 13.6097 3.10051 13.6097 3.17244C13.6097 3.24059 13.621 3.29737 13.64 3.34658C13.6627 3.3958 13.7005 3.43744 13.7611 3.4753L13.8898 3.24058L13.886 3.23679ZM11.4594 0.200643C11.4594 0.249858 11.4329 0.299074 11.3837 0.344503C11.3307 0.393717 11.2777 0.427792 11.2171 0.442935C10.5508 0.696579 10.0511 0.889643 9.71796 1.01457C9.11982 1.2455 8.63146 1.46507 8.25667 1.67707C8.27939 1.50293 8.39296 1.37044 8.59739 1.28337C8.80182 1.1963 8.99489 1.11301 9.18418 1.03351C9.94132 0.753364 10.7023 0.476998 11.4632 0.196854L11.4594 0.200643ZM11.096 1.60893C11.0278 1.51808 10.9483 1.47265 10.8499 1.47265C10.7401 1.57108 10.6682 1.68464 10.6379 1.81714C10.6038 1.94965 10.5735 2.12001 10.5433 2.32444C10.4448 2.1238 10.3843 2.00265 10.3615 1.961C10.2934 1.84743 10.2101 1.74143 10.1079 1.643C10.07 1.643 10.0398 1.65436 10.0095 1.68086C9.99811 1.73386 9.97161 1.82094 9.93754 1.93451C9.93754 1.99508 9.96025 2.04051 10.0095 2.07079C10.1003 2.09351 10.1533 2.08973 10.1647 2.05187C10.2177 2.11244 10.2934 2.24872 10.3918 2.46072C10.4335 2.55915 10.4751 2.63487 10.5205 2.68787C10.6038 2.36608 10.6909 2.04429 10.7742 1.72629C10.8537 1.68843 10.937 1.72629 11.0278 1.84365C11.0392 1.82093 11.0619 1.77929 11.0922 1.72629C11.1035 1.68465 11.1073 1.64301 11.0998 1.60893H11.096ZM16.1196 7.43139C15.9568 7.63203 15.7638 7.79482 15.5442 7.92732C15.3246 8.05603 15.0899 8.12417 14.8401 8.12417C14.7378 8.12417 14.6243 8.10525 14.5031 8.07118C14.435 8.02953 14.4047 7.96139 14.4047 7.87053V7.81753C14.4161 7.79481 14.4236 7.77967 14.4236 7.7721C14.4918 7.66988 14.5296 7.60931 14.541 7.59038C14.5826 7.52224 14.6281 7.46545 14.6773 7.41624C14.6356 7.39353 14.594 7.35946 14.5599 7.31782C14.5221 7.27618 14.5069 7.23452 14.5069 7.18909C14.5069 7.15124 14.5258 7.12096 14.5599 7.09067C14.5902 7.03767 14.6356 6.98467 14.7 6.93167C14.7643 6.87867 14.8211 6.85596 14.8779 6.85596C14.9385 6.85596 14.9877 6.89002 15.0218 6.95438C15.0407 6.99602 15.0331 7.03388 15.0028 7.06417C14.9536 7.09446 14.9196 7.11718 14.9044 7.12853C14.8855 7.13989 14.859 7.12474 14.8173 7.07932C14.7795 7.03389 14.7416 7.02252 14.7113 7.04902C14.6924 7.08688 14.7 7.12475 14.7303 7.1626C14.7606 7.20046 14.8136 7.23074 14.8931 7.24967C14.9536 7.2686 15.0218 7.25725 15.1013 7.22318C15.2338 7.1626 15.3057 7.13231 15.3095 7.13231C15.2981 7.22317 15.1732 7.3216 14.9423 7.43139C14.7076 7.54117 14.594 7.62825 14.594 7.69639C14.594 7.75696 14.647 7.8251 14.7492 7.9046C14.7871 7.91217 14.8401 7.91217 14.912 7.91217C15.124 7.91217 15.3284 7.87054 15.5291 7.79104C15.7297 7.70775 15.9266 7.59417 16.1196 7.44274V7.43139ZM7.80617 1.68086L7.76831 1.72629C7.82131 1.56729 7.8516 1.38557 7.8516 1.18115C7.8516 1.03729 7.83646 0.908577 7.80996 0.795005C7.78346 0.681433 7.73424 0.579212 7.66988 0.480783C7.67746 0.473212 7.6926 0.446719 7.7191 0.393719C7.7456 0.340719 7.77589 0.314215 7.80617 0.306643C7.91974 0.477001 7.98031 0.681432 7.98031 0.923719C7.98031 1.18493 7.92353 1.43479 7.80617 1.67707V1.68086ZM8.39674 2.75222C8.41567 2.79008 8.42324 2.82415 8.42324 2.86201C8.42324 2.90365 8.41567 2.9453 8.40432 2.98316C8.39296 3.02101 8.37024 3.08915 8.33996 3.18001C8.28696 3.19894 8.23774 3.18001 8.1961 3.13458C8.15446 3.08537 8.12039 3.02479 8.09767 2.95286C8.0901 2.90365 8.0901 2.86959 8.0901 2.84309C8.0901 2.71437 8.10903 2.59701 8.1431 2.48723C8.15067 2.4683 8.18096 2.40394 8.23396 2.29794C8.24153 2.34715 8.23396 2.42287 8.21503 2.52509C8.1961 2.6273 8.18853 2.68786 8.18853 2.70679C8.18853 2.80522 8.22639 2.87337 8.30589 2.91502L8.39674 2.75222ZM11.6033 5.16752C11.6108 5.12966 11.6108 5.07666 11.6108 5.00473C11.6108 4.61102 11.361 4.30816 10.8575 4.09616C10.1912 3.81223 9.80125 3.60401 9.68389 3.46773C9.73311 3.41473 9.78232 3.35416 9.83911 3.29359C9.54761 3.14973 9.25611 3.00208 8.96839 2.85822C8.92675 2.94151 8.89646 3.03237 8.87753 3.12702C8.8586 3.22166 8.83967 3.33901 8.81318 3.48665C9.01382 3.69865 9.23718 3.89551 9.48703 4.07723C9.54761 4.11887 9.69146 4.2173 9.91482 4.36873C10.0246 4.45959 10.2934 4.59587 10.725 4.77759C11.0657 4.91766 11.2928 5.09181 11.4064 5.30381C10.5773 5.79974 9.74825 6.29567 8.91539 6.79539C8.7261 6.87867 8.54439 6.96574 8.36267 7.04902C8.24153 7.10202 8.13174 7.13231 8.0371 7.13231C7.92731 7.13231 7.8251 7.09445 7.72667 7.02252C7.65474 6.93166 7.61688 6.8181 7.61688 6.67803C7.61688 6.59853 7.63203 6.50767 7.66231 6.40546C7.6926 6.30324 7.72288 6.21617 7.75317 6.15181C7.81374 6.18209 7.91217 6.23131 8.04467 6.29567C8.1431 6.34488 8.23017 6.40167 8.30967 6.46981C8.39296 6.43952 8.47624 6.36002 8.55575 6.2351C8.59739 6.16695 8.65796 6.06473 8.73746 5.92466C8.5936 5.81488 8.50274 5.75052 8.46489 5.73538C8.36646 5.68238 8.2756 5.65209 8.18474 5.65209C8.10524 5.65209 8.0371 5.6748 7.98031 5.72402C7.92353 5.77323 7.87431 5.86031 7.82889 5.98902C7.87053 5.80731 7.90839 5.68238 7.93867 5.61802C7.99924 5.48552 8.08632 5.39466 8.20367 5.34545C8.29453 5.09559 8.34753 4.94416 8.36646 4.88359C8.41946 4.6943 8.44974 4.52774 8.44974 4.38388C8.44974 4.28166 8.4346 4.18323 8.4081 4.09237C8.3816 4.00151 8.33617 3.91823 8.2756 3.83873C8.18474 3.83873 8.1166 3.91066 8.07496 4.0583C8.00681 4.28166 7.97274 4.39902 7.96517 4.4028C8.07496 4.51638 8.13932 4.65645 8.15446 4.81924C8.09389 4.88738 8.0106 4.93281 7.90081 4.9631C7.84024 4.97445 7.78346 4.9858 7.72667 5.00094C7.55631 5.04259 7.42003 4.97823 7.31781 4.81166C7.25724 4.57694 7.2156 4.33466 7.19667 4.09237C7.17395 3.85008 7.16638 3.56995 7.16638 3.24816C7.16638 3.08916 7.16638 2.93015 7.17017 2.76737C7.17017 2.60458 7.17395 2.4418 7.17395 2.27523C7.17395 1.85122 7.15881 1.48023 7.13231 1.16601C7.10581 0.851795 7.04524 0.552721 6.95438 0.265006C6.89381 0.333149 6.84081 0.424002 6.7916 0.545146C6.76888 0.605717 6.73102 0.704142 6.68181 0.836643C6.80295 1.38936 6.87867 1.93072 6.90895 2.46829C6.93924 3.00586 6.95438 3.67594 6.95438 4.4823V5.01988C6.95438 5.24324 7.05281 5.4363 7.24588 5.59152C7.29888 5.6218 7.34431 5.64073 7.3746 5.65209C7.40488 5.65966 7.44653 5.66724 7.50331 5.66724C7.59417 5.65966 7.68503 5.65209 7.77589 5.64073C7.78724 5.70888 7.76831 5.79217 7.72288 5.89438C7.65096 6.03824 7.60931 6.12909 7.60553 6.15938C7.58281 6.07609 7.5071 6.00417 7.38596 5.95117C7.22317 5.87924 7.12474 5.82623 7.09445 5.79595C6.99603 5.86409 6.91652 5.9436 6.84838 6.03824C6.78024 6.13288 6.72724 6.23888 6.6856 6.36002C6.83702 6.44331 6.99224 6.53038 7.14745 6.61367C7.2156 6.57581 7.29131 6.5001 7.37838 6.37895C7.46546 6.25781 7.52981 6.17831 7.57524 6.14424C7.53738 6.30324 7.5071 6.45467 7.47681 6.6061C7.40867 6.92032 7.37838 7.1891 7.37838 7.40488C7.42003 7.51467 7.47303 7.60553 7.53738 7.67746C7.60174 7.74939 7.68124 7.79103 7.77967 7.80617C8.23396 7.73424 8.83967 7.47303 9.59682 7.02631C10.0738 6.74238 10.4221 6.54931 10.6417 6.44331C10.9256 6.29188 11.149 6.12152 11.3155 5.93602C11.5162 5.70509 11.6146 5.45524 11.6146 5.18266L11.6033 5.16752ZM5.97009 1.13193C5.94738 1.24172 5.92845 1.32879 5.91709 1.39693C5.90574 1.46508 5.86788 1.52186 5.80731 1.57107C5.75809 1.59 5.71645 1.57866 5.68616 1.54458C5.65209 1.50673 5.62559 1.47265 5.59909 1.43479C5.57638 1.36665 5.56123 1.29472 5.56123 1.21522C5.56123 1.12436 5.57638 1.04108 5.60288 0.961578C5.62938 0.882078 5.67481 0.80258 5.73538 0.715508C5.73538 0.745794 5.72781 0.78365 5.71645 0.832865C5.68616 0.96158 5.67102 1.04864 5.67102 1.09786C5.67102 1.20764 5.71645 1.28714 5.80731 1.33257C5.83002 1.32122 5.85274 1.28714 5.87545 1.22657C5.89816 1.16979 5.92845 1.13571 5.97009 1.13193ZM9.72175 5.3568C9.71039 5.4893 9.69146 5.58395 9.66875 5.63695C9.62711 5.73538 9.55896 5.79595 9.46811 5.81866C9.43782 5.83002 9.40753 5.82624 9.38103 5.79974C9.35453 5.77702 9.32046 5.72402 9.27503 5.64452C9.26368 5.61424 9.25611 5.58016 9.25611 5.54609V5.4628C9.25611 5.37195 9.27125 5.28488 9.29775 5.20538C9.32425 5.12588 9.36211 5.03502 9.41132 4.93659C9.39996 4.97824 9.38861 5.03123 9.37346 5.09559C9.36211 5.15994 9.35453 5.22052 9.35453 5.2811C9.35453 5.40981 9.39239 5.50823 9.46432 5.58016C9.51732 5.58773 9.57032 5.56123 9.61953 5.50823C9.66875 5.4363 9.70282 5.38331 9.71796 5.35303L9.72175 5.3568ZM11.4935 7.01874C11.3496 7.12853 11.1376 7.2421 10.865 7.36325C10.1912 7.67368 9.81639 7.84781 9.73689 7.88946C9.81639 7.77967 9.91104 7.68503 10.0284 7.59796C10.142 7.51467 10.4221 7.36703 10.865 7.1626C11.096 7.05282 11.2663 6.95817 11.3837 6.88245L11.4935 7.01874ZM4.12644 0.620865L4.07344 0.795005L3.83873 0.658713C3.7403 0.999429 3.64566 1.33257 3.54723 1.66572C3.49801 1.62408 3.41851 1.46507 3.31251 1.1925C3.22923 0.980501 3.10808 0.889643 2.94908 0.919929C2.89987 0.889643 2.87715 0.851787 2.87715 0.802573C2.87715 0.772287 2.88851 0.726864 2.91501 0.666292C2.93773 0.60572 2.95287 0.564079 2.95287 0.537578C3.02101 0.46565 3.08158 0.44293 3.13458 0.473216C3.21408 0.552716 3.27844 0.651148 3.32387 0.772292C3.46773 1.12436 3.55101 1.31364 3.56994 1.34393C3.61158 1.29093 3.64944 1.16979 3.67973 0.980502C3.7403 0.609501 3.80844 0.427789 3.88794 0.427789C3.9258 0.427789 3.95987 0.439149 3.99394 0.465649C4.02801 0.488363 4.07344 0.541365 4.13402 0.620865H4.12644ZM4.94416 2.6273C4.82302 2.80144 4.70187 2.97558 4.58073 3.14594C4.47852 3.0778 4.38009 3.0248 4.28544 2.97937C4.1908 2.93394 4.07344 2.88094 3.93716 2.82037C3.88416 2.85066 3.83116 2.9188 3.77816 3.02102C3.72516 3.12323 3.67594 3.19515 3.62673 3.22923C3.51694 3.2103 3.41473 3.18379 3.32387 3.14215C3.22923 3.10429 3.1308 3.0513 3.02858 2.98316C3.0778 2.8923 3.12701 2.79765 3.1838 2.69544C3.2368 2.59701 3.31251 2.51373 3.40337 2.45316C3.47151 2.44558 3.56237 2.47966 3.68351 2.5478C3.80466 2.61594 3.88794 2.6538 3.93716 2.6538C3.99016 2.6538 4.03937 2.62351 4.08102 2.56293L4.36116 2.29036C4.44444 2.29036 4.54287 2.32823 4.64887 2.40773C4.75487 2.48723 4.8533 2.55915 4.94416 2.6273ZM1.48401 2.90744C1.46508 3.09672 1.41586 3.27844 1.32879 3.45258C1.2455 3.62673 1.13193 3.77059 0.991861 3.88037C0.908575 3.8993 0.83286 3.88037 0.772289 3.83116C0.711717 3.77815 0.670074 3.7138 0.643574 3.6343C0.613288 3.49423 0.598145 3.33144 0.598145 3.14215C0.598145 2.75979 0.681431 2.36987 0.844217 1.96858C0.972932 1.65815 1.16222 1.31364 1.41586 0.931286C1.30608 1.1925 1.20008 1.44993 1.09786 1.70358C0.976718 2.02536 0.916146 2.30172 0.916146 2.52886C0.916146 2.66894 0.931289 2.79387 0.965361 2.89987C0.999432 3.00966 1.05622 3.11944 1.14329 3.23679C1.22279 3.23679 1.28715 3.19515 1.34393 3.10808C1.42343 2.97558 1.46886 2.90365 1.48022 2.89987L1.48401 2.90744ZM3.12701 4.55044C3.12701 4.68294 3.11944 4.79273 3.10051 4.87223C3.08158 4.95552 3.03615 5.0161 2.96423 5.05774C2.92637 5.0691 2.8923 5.0653 2.85444 5.05016C2.7863 4.98959 2.74087 4.95173 2.71815 4.9328C2.68787 4.8533 2.67272 4.76244 2.67272 4.66023C2.67272 4.53909 2.69544 4.41795 2.73708 4.30059C2.77872 4.18324 2.83551 4.06965 2.91122 3.95987C2.86201 4.14915 2.8128 4.33088 2.76737 4.51259C2.76737 4.64131 2.82037 4.74731 2.93015 4.83059C2.99073 4.82302 3.03237 4.77759 3.0513 4.6943C3.07401 4.61101 3.09673 4.5618 3.12701 4.55044ZM6.19724 6.04202C6.22752 5.9928 6.24267 5.93981 6.24267 5.87924C6.24267 5.81109 6.21617 5.76566 6.15938 5.73538C6.12909 5.73538 6.07609 5.72781 6.00416 5.71645H5.84895C5.10316 5.84895 4.36116 5.98145 3.62294 6.11774C3.47151 6.13667 3.23301 6.17074 2.90365 6.21617C2.64244 6.24646 2.39258 6.2616 2.15029 6.2616C1.79444 6.2616 1.48401 6.2086 1.22279 6.10638C0.919932 5.98524 0.681431 5.78459 0.503502 5.50823C0.454287 5.42494 0.424002 5.34923 0.408859 5.28866C0.393716 5.22809 0.386144 5.14859 0.386144 5.05395C0.386144 4.91009 0.427787 4.71323 0.514859 4.46338C0.624645 4.1378 0.685217 3.95609 0.696574 3.91823C0.446716 4.31195 0.295287 4.56559 0.234715 4.68294C0.0757146 4.99337 0 5.27352 0 5.52717C0 5.72024 0.0454287 5.91709 0.136286 6.11774C0.371001 6.39031 0.643574 6.58717 0.954003 6.70831C1.219 6.81053 1.53322 6.86353 1.88908 6.86353C2.96044 6.67045 4.03559 6.4736 5.11452 6.27295C5.18266 6.25403 5.23188 6.24267 5.26973 6.2351C5.30759 6.22752 5.3568 6.22753 5.42495 6.22753C5.55745 6.22753 5.65588 6.25403 5.71645 6.31081C5.63695 6.46981 5.41738 6.68559 5.05395 6.96574C4.73216 7.20802 4.54287 7.43896 4.4823 7.65474C4.88737 7.37081 5.20159 7.13231 5.41738 6.93546C5.75052 6.64017 6.01174 6.3411 6.19724 6.04581V6.04202ZM15.6729 5.27731C15.5631 5.34545 15.4533 5.4098 15.3473 5.47416C15.2376 5.53852 15.1429 5.5688 15.0672 5.5688C14.9953 5.5688 14.9309 5.54609 14.8703 5.50066C14.8136 5.45523 14.7568 5.37952 14.7038 5.27731C14.6659 5.23945 14.6508 5.21295 14.6583 5.19402H14.7757C14.8552 5.19402 14.9915 5.19781 15.1846 5.20917C15.3776 5.21674 15.5404 5.23945 15.6767 5.27731H15.6729Z" fill="white"/>
</svg>
