<svg width="20" height="9" viewBox="0 0 20 9" fill="none" xmlns="http://www.w3.org/2000/svg">
<path fill-rule="evenodd" clip-rule="evenodd" d="M20 1.81893C19.9467 1.79435 19.8853 1.70832 19.8116 1.56494C19.7665 1.4789 19.7214 1.42155 19.6723 1.38877L19.6149 1.52807C19.6149 1.8558 19.6559 2.36379 19.7378 3.05203C19.8197 3.74028 19.8607 4.24007 19.8607 4.54732C19.8607 5.21098 19.8402 5.70258 19.8034 6.03032C19.746 6.5465 19.6149 6.99714 19.4183 7.37813C19.4715 7.20197 19.5084 7.01761 19.533 6.82917C19.5576 6.64072 19.5658 6.42769 19.5658 6.19009C19.5658 5.9279 19.5412 5.53871 19.4961 5.01844C19.451 4.50225 19.4265 4.11307 19.4265 3.85907C19.4265 3.51905 19.3978 3.0889 19.3363 2.57272C19.2052 1.41745 19.1397 0.712825 19.1397 0.450637C19.1643 0.426057 19.2093 0.352314 19.2667 0.229413C19.324 0.106513 19.3855 0.0327735 19.4429 0C19.5739 0.270381 19.6887 0.561245 19.7829 0.87669C19.8771 1.19213 19.9467 1.50758 19.9959 1.83122L20 1.81893ZM15.4281 0.413769C15.3953 0.565346 15.3216 0.692344 15.2028 0.798858C15.084 0.905372 14.9488 0.966818 14.8013 0.987302C14.8013 0.913561 14.8669 0.848015 14.998 0.782468C15.129 0.716921 15.211 0.663662 15.2438 0.626792C15.17 0.573535 15.0717 0.54896 14.9488 0.54896C14.9078 0.54896 14.8587 0.557148 14.7931 0.569438C14.7521 0.589922 14.7235 0.602212 14.703 0.614502C14.6825 0.626792 14.662 0.643181 14.6456 0.667761C14.6252 0.634988 14.6333 0.594024 14.6661 0.54896C14.6989 0.503897 14.7317 0.458828 14.7644 0.409668C14.8382 0.344121 14.9406 0.311352 15.0799 0.311352C15.2315 0.311352 15.3503 0.34822 15.4322 0.417863L15.4281 0.413769ZM15.8705 1.69193C15.8255 1.78206 15.7517 1.86399 15.6534 1.93773C15.5551 2.01148 15.4445 2.07702 15.3257 2.13847C15.2028 2.19992 15.0799 2.26547 14.9529 2.33101C14.8259 2.39656 14.7235 2.4621 14.6415 2.52765C14.6415 2.42933 14.6907 2.3474 14.7849 2.28185C14.8791 2.21631 14.9734 2.15485 15.0635 2.0934C14.9775 2.05244 14.916 2.02376 14.8751 2.00328C14.7972 1.96231 14.744 1.91315 14.7194 1.8558C14.7726 1.71651 14.8546 1.58951 14.9693 1.46661C15.084 1.34371 15.2151 1.26997 15.3585 1.24539C15.4117 1.2372 15.4568 1.27817 15.4977 1.3642C15.4977 1.47071 15.4609 1.56493 15.3912 1.65096C15.3503 1.59361 15.3216 1.54855 15.3011 1.52397C15.2601 1.4789 15.211 1.47481 15.1536 1.51578C15.1127 1.52807 15.0307 1.58542 14.8996 1.68374C15.0389 1.82712 15.2192 1.90086 15.4486 1.90086C15.4691 1.89267 15.5264 1.86809 15.6206 1.82712C15.7149 1.78616 15.8009 1.74109 15.8705 1.69603V1.69193ZM13.2651 0.442442C13.2651 0.442442 13.2405 0.487509 13.2159 0.56125C13.1913 0.63499 13.1626 0.667761 13.1381 0.667761C13.1176 0.667761 13.093 0.651376 13.0602 0.618603C13.052 0.61041 13.0193 0.610408 12.9619 0.610408C12.9209 0.675955 12.88 0.82753 12.839 1.06923C12.798 1.30684 12.7325 1.46252 12.6465 1.52807C12.5809 1.46252 12.5072 1.32732 12.4293 1.12659C12.3843 1.01598 12.3392 0.929949 12.29 0.872595C12.2819 0.913562 12.2696 0.942239 12.2491 0.962723C12.2286 0.983206 12.204 0.979108 12.1712 0.954528C12.0197 0.901271 11.9787 0.815242 12.0442 0.700535C12.0565 0.680052 12.0729 0.639084 12.0934 0.577634C12.1139 0.516183 12.1426 0.475215 12.1835 0.454732C12.3146 0.495699 12.417 0.606312 12.4867 0.790663C12.585 1.04466 12.6547 1.19623 12.6915 1.24129C12.7366 1.03646 12.7694 0.888983 12.7898 0.790663C12.8349 0.614505 12.9045 0.471122 12.9947 0.368705C13.0397 0.368705 13.0889 0.368703 13.1381 0.3728C13.1872 0.3728 13.2282 0.405572 13.261 0.454732L13.2651 0.442442ZM17.669 7.00942C17.669 7.09545 17.6567 7.1569 17.628 7.20197C17.6034 7.24293 17.5379 7.26752 17.4396 7.26752C17.3945 7.26752 17.329 7.26342 17.2429 7.25113C17.1569 7.24294 17.1118 7.23474 17.1036 7.23474C16.9726 7.23474 16.8783 7.2798 16.8169 7.37403C16.8169 7.43957 16.8333 7.5379 16.8619 7.66489C16.8906 7.79189 16.9111 7.88611 16.9275 7.94347C16.9398 8.00082 16.948 8.07046 16.948 8.1483C16.948 8.24662 16.9316 8.32856 16.8988 8.3941C16.8333 8.10734 16.7718 7.81647 16.7104 7.5297C16.7104 7.43958 16.7268 7.35355 16.7595 7.27571C16.7923 7.19787 16.8497 7.12413 16.9357 7.05859C16.8947 7.0463 16.8783 7.02171 16.8783 6.98894C16.8783 6.96845 16.8906 6.93568 16.9111 6.89062C16.9357 6.84556 16.9439 6.81278 16.9357 6.7923C17.0094 6.69398 17.0873 6.64482 17.1733 6.64482C17.2593 6.64482 17.3494 6.68578 17.4478 6.77181C17.5543 6.89062 17.6239 6.96846 17.6649 7.00942H17.669ZM12.3105 2.85949C12.29 3.03155 12.2778 3.12577 12.2655 3.15035C12.2573 3.17493 12.2245 3.2159 12.1712 3.27325C12.1262 3.27325 12.0811 3.24867 12.0401 3.20361C11.9992 3.15854 11.9664 3.11348 11.9459 3.06432C11.9254 2.90865 11.9582 2.72839 12.0442 2.52356C12.0893 2.42524 12.1344 2.32282 12.1835 2.2204C12.1917 2.27366 12.1835 2.33511 12.1549 2.40885C12.0811 2.61368 12.0483 2.73249 12.0483 2.77346C12.0483 2.87178 12.0934 2.94552 12.1876 2.99877C12.2122 2.99058 12.2327 2.966 12.245 2.92503C12.2573 2.88406 12.2819 2.85949 12.3146 2.85949H12.3105ZM11.0119 2.27775C10.9791 2.40885 10.9504 2.49898 10.9218 2.54404C10.8767 2.63417 10.8152 2.70791 10.7333 2.76117L10.1434 2.41705L10.3195 2.06473C10.4056 1.92544 10.4998 1.8599 10.6063 1.8599C10.6145 1.87219 10.7005 1.93363 10.8726 2.03605C10.9832 2.10979 11.0283 2.19173 11.0119 2.28185V2.27775ZM10.5694 0.536664C10.5776 0.397377 10.5203 0.33183 10.4015 0.33183C10.2622 0.33183 10.1516 0.372802 10.0655 0.458833C10.041 0.491606 9.9959 0.548955 9.93855 0.626792C9.90578 0.684145 9.89349 0.749697 9.89758 0.823437C9.91807 0.897177 9.97952 0.95453 10.0778 0.995497C10.1803 1.03646 10.2458 1.07743 10.2786 1.1102C10.1147 1.42565 9.81155 1.7247 9.36502 2.00328C8.75051 2.39656 8.40229 2.63007 8.32446 2.69972C8.87341 2.44982 9.2544 2.25727 9.46334 2.11798C9.8771 1.8558 10.1884 1.55674 10.3974 1.22491C10.5285 1.20033 10.594 1.13069 10.594 1.02008C10.594 1.00779 10.5858 0.954531 10.5694 0.868501C10.5531 0.778374 10.5449 0.708728 10.5449 0.655472C10.5449 0.630891 10.5531 0.589921 10.5653 0.536664H10.5694ZM8.60303 1.04875C8.62352 1.08972 8.63171 1.12249 8.63171 1.14707C8.63171 1.20033 8.61532 1.24949 8.58255 1.29865C8.54978 1.34781 8.5252 1.38468 8.50471 1.41336C8.42687 1.47891 8.35314 1.51168 8.28759 1.51168C8.2671 1.51168 8.23843 1.49939 8.19746 1.47071C8.14011 1.39288 8.10733 1.30684 8.10733 1.21671C8.10733 1.1102 8.16059 0.96272 8.26301 0.774273C8.34084 0.630889 8.38591 0.54486 8.40229 0.52028C8.42278 0.573537 8.40229 0.667764 8.33675 0.811147C8.2753 0.950435 8.24252 1.04466 8.24252 1.08972C8.24252 1.17985 8.31626 1.229 8.45965 1.229C8.5129 1.13068 8.55797 1.07333 8.59894 1.05285L8.60303 1.04875ZM13.646 5.97296C13.6133 6.06309 13.5641 6.14093 13.4945 6.20238C13.4248 6.26383 13.3347 6.32528 13.2241 6.38263C13.1667 6.4154 13.0725 6.45637 12.9496 6.50553C12.8267 6.55469 12.7243 6.59566 12.6465 6.62843C12.6792 6.53011 12.7325 6.45228 12.8021 6.39083C12.8759 6.33347 12.9701 6.27612 13.0889 6.22696C13.2077 6.1778 13.2978 6.14092 13.3634 6.11225C13.4822 6.05899 13.5764 6.00983 13.6501 5.96477L13.646 5.97296ZM18.9472 4.83409C18.9472 4.72347 18.9308 4.62106 18.9021 4.52274C18.8734 4.42852 18.8202 4.35068 18.7382 4.29333C18.5989 4.22778 18.4392 4.195 18.2548 4.195C17.9721 4.195 17.7181 4.25646 17.4887 4.38345C17.3576 3.79353 17.2839 3.46579 17.2716 3.40025C17.2388 3.19541 17.2224 2.99878 17.2224 2.80213C17.6362 2.56043 17.9844 2.25318 18.2753 1.87628L18.4719 2.01557L18.5703 1.93773C18.5703 1.93773 18.5907 1.89267 18.5907 1.8599C18.5907 1.81893 18.5662 1.77387 18.5211 1.72061C18.4801 1.68784 18.4474 1.65506 18.4146 1.62229C18.4596 1.53216 18.4842 1.42565 18.4842 1.30684C18.4842 1.25359 18.4801 1.21672 18.4678 1.18804C18.4596 1.16346 18.4351 1.10611 18.4023 1.02008C18.3695 0.962722 18.3204 0.934045 18.2548 0.942238C18.1442 0.962721 18.05 1.02417 17.968 1.12249C17.8902 1.22491 17.837 1.33962 17.8124 1.47071C17.8124 1.53626 17.8574 1.59361 17.9517 1.63867C18.0418 1.68374 18.095 1.71241 18.1073 1.7288C18.0868 1.90496 17.968 2.08521 17.7427 2.26957C17.6239 2.36789 17.4396 2.50717 17.1938 2.68333C17.1405 2.44162 17.1036 2.24498 17.0791 2.0934C17.0545 1.94183 17.0463 1.77386 17.0463 1.59361C17.0463 1.55264 17.0463 1.51168 17.0504 1.46252C17.0504 1.41336 17.0586 1.35601 17.0668 1.29046C17.1077 1.31094 17.1651 1.38059 17.2429 1.49529C17.3003 1.58132 17.3658 1.6059 17.4314 1.57313C17.2143 1.06105 17.0012 0.548958 16.7923 0.0409693C16.7268 0.0942262 16.6653 0.180256 16.612 0.303157C16.5547 0.426057 16.5055 0.536668 16.4605 0.643182C16.5711 0.958626 16.6489 1.31913 16.6981 1.7288C16.7431 2.13847 16.7882 2.53585 16.8251 2.92503L16.5219 3.17083C16.5629 3.17083 16.612 3.15854 16.6776 3.12986C16.7431 3.10528 16.7923 3.0889 16.8251 3.0889C16.9316 3.51496 17.0135 3.98198 17.0709 4.48587C16.907 4.59648 16.7022 4.67841 16.4605 4.73167C16.3949 4.59238 16.3253 4.46948 16.2474 4.35477C16.1737 4.24007 16.0836 4.12946 15.9771 4.02704C15.8542 3.92052 15.7272 3.84679 15.6043 3.79763C15.4814 3.74847 15.3462 3.72389 15.2028 3.72389C15.1127 3.72389 15.0102 3.74027 14.8996 3.77305C14.6702 3.91643 14.4982 4.11307 14.3875 4.35887C14.2769 4.60467 14.2196 4.87506 14.2196 5.17002C14.3261 5.32569 14.4613 5.44039 14.6293 5.50594C14.7972 5.57149 14.9857 5.60426 15.1946 5.60426C15.3503 5.60426 15.5141 5.59197 15.678 5.56329C15.6903 5.56329 15.8378 5.53871 16.1204 5.48546L16.1409 5.62475C15.7476 5.99345 15.5018 6.22286 15.4035 6.31299C15.1086 6.58337 14.8546 6.7964 14.6456 6.95207C14.3712 7.161 14.0926 7.33716 13.814 7.47235C13.5354 7.61164 13.2446 7.70996 12.9455 7.76731C12.8554 7.78779 12.7612 7.79598 12.671 7.79598C12.499 7.79598 12.3392 7.76321 12.1876 7.69357C12.0361 7.62392 11.9172 7.52151 11.8353 7.39042C11.7493 7.25523 11.7083 7.11184 11.7083 6.95207C11.8148 6.57927 11.9213 6.20648 12.032 5.82958C12.1098 5.69849 12.3023 5.58378 12.6055 5.48136C12.9086 5.37894 13.1135 5.26833 13.22 5.14134C13.3593 4.96928 13.4658 4.78902 13.5477 4.59648C13.6297 4.40393 13.6706 4.2073 13.6706 4.01065C13.6706 3.81401 13.6297 3.63786 13.5518 3.47808C13.4207 3.31422 13.3265 3.2159 13.2651 3.18312C13.2077 3.15035 13.1381 3.14216 13.0602 3.16264C12.8103 3.34699 12.6301 3.59689 12.5195 3.90824C12.4457 4.11717 12.3884 4.42852 12.3433 4.84228C12.2859 4.89554 12.1958 4.92012 12.077 4.92012C12.0238 4.92012 11.9541 4.91192 11.864 4.89144C11.7739 4.87096 11.7083 4.85457 11.6633 4.84228C11.524 4.80951 11.4175 4.72348 11.3396 4.58829C11.3068 4.53093 11.2536 4.39984 11.1839 4.2032C11.0119 4.322 10.8439 4.43671 10.6719 4.54732C10.3236 4.77673 10.0369 4.93241 9.80746 5.01025C9.76649 4.78903 9.64359 4.58828 9.43876 4.41213C9.23392 4.23597 9.0127 4.11307 8.77509 4.04752C8.74232 4.03523 8.69726 4.02704 8.63581 4.02704C8.54568 4.02704 8.44736 4.06391 8.34084 4.13356C8.2753 4.17862 8.18927 4.25236 8.08685 4.35068C8.00082 4.53913 7.91889 4.73167 7.84105 4.92012C7.78779 5.04302 7.76321 5.15772 7.76321 5.26424C7.76321 5.33798 7.7796 5.40762 7.80828 5.47727C7.83695 5.54691 7.88202 5.60836 7.93937 5.66981C8.04998 5.75584 8.17288 5.81319 8.30807 5.84597C8.44326 5.87874 8.58665 5.89512 8.73413 5.89512C8.99631 5.89512 9.24621 5.85826 9.47972 5.78861L9.52069 5.97706C9.35682 6.12864 9.10283 6.37034 8.75461 6.70627C8.43917 6.99304 8.16469 7.21835 7.92708 7.37403C7.68947 7.5297 7.46415 7.6526 7.24293 7.73454C7.02171 7.81647 6.7882 7.85744 6.5383 7.85744C6.35395 7.85744 6.18189 7.83286 6.01803 7.7878C5.86235 7.70177 5.74764 7.58705 5.678 7.44367C5.60836 7.30029 5.57558 7.14052 5.57558 6.96026C5.57558 6.87423 5.57558 6.80869 5.58378 6.76363C5.60836 6.67759 5.66981 6.60385 5.75993 6.53831C5.81319 6.50553 5.89103 6.45227 5.99754 6.38263C6.28021 6.20647 6.48095 5.98935 6.59566 5.73535C6.69398 5.51823 6.74314 5.25194 6.74314 4.9406C6.74314 4.70299 6.70627 4.40803 6.63662 4.04752C6.59566 3.85088 6.5383 3.57231 6.46047 3.2118C6.49324 3.22409 6.5424 3.25277 6.60385 3.29374C6.6653 3.3347 6.71446 3.36338 6.74724 3.37567C6.74724 3.19951 6.67349 2.99058 6.52192 2.74478C6.48914 2.69152 6.41131 2.57272 6.28431 2.39247C6.21057 2.43343 6.14912 2.50717 6.09586 2.61778C6.07128 2.67513 6.03032 2.77346 5.97706 2.90455C6.13273 3.69931 6.2966 4.48997 6.46047 5.28472C6.12044 5.60426 5.78042 5.88694 5.4363 6.12454C5.09627 6.36215 4.73576 6.57108 4.35477 6.74314C3.97378 6.9152 3.5846 7.0463 3.19132 7.12823C2.79394 7.21016 2.35969 7.25113 1.88857 7.25113C1.58132 7.19378 1.29455 7.07907 1.03236 6.90701C0.770176 6.73494 0.569439 6.51782 0.434248 6.24744C0.315444 6.0508 0.258091 5.82549 0.258091 5.56739C0.356411 5.08399 0.458829 4.59648 0.561246 4.11307C0.385088 4.43261 0.245801 4.76034 0.147481 5.08808C0.0491602 5.41581 0 5.75994 0 6.12044C0 6.43998 0.0983204 6.75134 0.290864 7.0463C0.483408 7.34126 0.72921 7.56247 1.02417 7.71405C1.2331 7.81237 1.43384 7.88202 1.63048 7.91889C1.82302 7.95985 2.03195 7.97624 2.25318 7.97624C2.62597 7.97624 3.00287 7.91888 3.38386 7.80827C3.66653 7.72224 4.02294 7.57886 4.45719 7.37403C4.72757 7.25113 5.05531 7.07907 5.44859 6.86194C5.4363 6.93978 5.41991 7.00533 5.40352 7.05859C5.38714 7.11184 5.36665 7.17739 5.34617 7.25523C5.32159 7.33306 5.3134 7.43548 5.3134 7.55838C5.3134 7.72225 5.34207 7.87792 5.40352 8.0213C5.46088 8.16469 5.5551 8.29169 5.678 8.40639C5.85416 8.53749 6.08357 8.60303 6.36624 8.60303C6.51782 8.60303 6.6612 8.58255 6.80049 8.54568C7.07087 8.45965 7.34535 8.33265 7.63212 8.16059C7.91889 7.98853 8.18927 7.79189 8.44326 7.57067C8.69726 7.34945 8.93486 7.10365 9.14789 6.83736C9.36092 6.57108 9.52888 6.3048 9.65588 6.03442C9.66817 6.00164 9.69685 5.93609 9.73372 5.83368C9.77468 5.73126 9.81565 5.65752 9.86071 5.61246C10.0123 5.53872 10.1639 5.46498 10.3113 5.38714C10.6309 5.22327 10.8767 5.0635 11.0488 4.90373C11.061 4.92831 11.0733 4.97747 11.0897 5.04301C11.102 5.10856 11.1143 5.16592 11.1307 5.21098C11.2085 5.35436 11.3396 5.46088 11.524 5.52643C11.6878 5.56739 11.8517 5.60426 12.0156 5.64523C11.9172 5.87464 11.8148 6.11225 11.7124 6.35805C11.6059 6.60385 11.5404 6.80459 11.5117 6.96436C11.483 7.12003 11.4666 7.26751 11.4666 7.39861C11.4666 7.57476 11.4953 7.74273 11.5485 7.9066C11.6059 8.06637 11.6919 8.20156 11.8107 8.30398C12.0647 8.44326 12.3228 8.50881 12.5768 8.50881C12.8513 8.50881 13.1381 8.44326 13.433 8.31217C13.6542 8.21385 14.0803 7.94756 14.7112 7.51741C15.0635 7.20197 15.424 6.88652 15.7845 6.57517C16.2024 6.19009 16.4154 5.805 16.4154 5.42401C16.5137 5.35027 16.612 5.29701 16.7063 5.25604C16.8005 5.21508 16.9603 5.17411 17.1815 5.12905C17.2388 5.27243 17.3044 5.42401 17.3699 5.57968C17.4355 5.73536 17.5133 5.86235 17.6075 5.95248C17.7591 6.05899 17.8574 6.12044 17.9066 6.14093C17.9558 6.16141 18.0131 6.1696 18.0787 6.1696C18.1319 6.1696 18.1852 6.16141 18.2343 6.14093C18.4515 5.98935 18.6194 5.79681 18.7341 5.5592C18.812 5.39533 18.8898 5.15773 18.9594 4.85048L18.9472 4.83409ZM6.80459 0.0368749C6.82507 0.0696483 6.81278 0.110612 6.77591 0.155676C6.73495 0.200739 6.71856 0.233515 6.71856 0.253998C6.56698 0.299062 6.08767 0.446543 5.28472 0.696441C4.70709 0.872598 4.23187 1.02827 3.85907 1.15936C3.34289 1.34371 2.87587 1.53216 2.46211 1.7288C2.44162 1.69603 2.45391 1.65097 2.50307 1.59771C2.54814 1.54036 2.57681 1.50349 2.58091 1.483C3.00696 1.29456 3.52315 1.09382 4.13355 0.884885C4.322 0.819338 5.21508 0.536668 6.80869 0.0409693L6.80459 0.0368749ZM5.50594 1.44203L5.44859 1.56903C5.34207 1.53626 5.28472 1.51987 5.27243 1.51987C5.21508 1.58542 5.16592 1.72471 5.12905 1.94183C5.09218 2.15895 5.02663 2.29414 4.92831 2.35559C4.89553 2.33101 4.84228 2.23269 4.76444 2.06883C4.6907 1.90496 4.60877 1.82303 4.52274 1.82303C4.49816 1.82303 4.45719 1.83122 4.40393 1.8517C4.36297 1.81073 4.34658 1.76567 4.34658 1.71242C4.34658 1.68784 4.36297 1.62229 4.39574 1.52397C4.40803 1.483 4.41622 1.45023 4.41622 1.41745C4.46129 1.37239 4.50635 1.35191 4.55551 1.3601C4.63335 1.43384 4.70709 1.53216 4.77263 1.65506C4.87095 1.84351 4.92831 1.95412 4.94879 1.9787C4.97337 1.93773 5.01434 1.82303 5.0676 1.63458C5.12085 1.44613 5.19459 1.31913 5.29291 1.26178C5.37075 1.26178 5.4322 1.26588 5.48136 1.27817C5.52642 1.28636 5.551 1.31504 5.551 1.3601C5.551 1.38468 5.53871 1.41336 5.51004 1.43794L5.50594 1.44203ZM10.3236 7.61574C10.3441 7.7878 10.2704 7.93527 10.1065 8.06637C9.9959 8.06637 9.92626 8.00492 9.90168 7.87792C9.90168 7.72225 9.93036 7.55019 9.99181 7.36584C10.0328 7.23474 10.0983 7.07907 10.1884 6.89472C10.1884 6.94797 10.1639 7.05039 10.1106 7.19787C10.0574 7.34945 10.0328 7.46416 10.0328 7.54199C10.0328 7.6526 10.0737 7.74683 10.1516 7.81647C10.1925 7.80418 10.2253 7.76731 10.2499 7.71405C10.2745 7.6567 10.3032 7.62393 10.3277 7.61163L10.3236 7.61574ZM7.55018 6.58337C7.51741 6.72266 7.49283 6.82097 7.47235 6.88652C7.43138 7.00532 7.36174 7.07497 7.25522 7.09135C7.14461 6.98074 7.08726 6.85375 7.08726 6.71856C7.08726 6.60795 7.12823 6.46457 7.21426 6.28431C7.2798 6.14503 7.34945 6.00983 7.41909 5.87055C7.4109 5.9279 7.36174 6.07128 7.27161 6.2925C7.22655 6.40311 7.20197 6.48915 7.20197 6.5465C7.20197 6.65302 7.25113 6.75134 7.34945 6.84146C7.37403 6.81688 7.4068 6.76772 7.44367 6.70217C7.48054 6.63662 7.51331 6.59566 7.54609 6.57517L7.55018 6.58337ZM4.17862 2.94551C4.0721 3.15035 3.97378 3.35109 3.87546 3.55592C3.8222 3.51496 3.73617 3.4658 3.62147 3.40844C3.41663 3.30193 3.30602 3.20771 3.28554 3.12168C3.3306 3.00287 3.37976 2.90045 3.43302 2.81852C3.48628 2.73249 3.54363 2.65465 3.60918 2.58091C3.7075 2.63417 3.80991 2.68333 3.91233 2.72839C4.01885 2.78574 4.10488 2.85948 4.17862 2.94551ZM5.08398 4.83409C5.09218 4.92421 5.07169 5.02253 5.03073 5.12905C4.98976 5.23556 4.92831 5.3175 4.85047 5.37485C4.79721 5.34208 4.75625 5.29701 4.72347 5.23556C4.6907 5.17821 4.67431 5.08808 4.67431 4.96928C4.6866 4.82999 4.71938 4.6989 4.77263 4.5678C4.80541 4.48177 4.86276 4.35887 4.94879 4.195C4.94879 4.25236 4.91192 4.38345 4.84228 4.58009C4.80131 4.6907 4.78492 4.77263 4.78492 4.82589C4.78492 4.9365 4.83408 5.02663 4.9324 5.09218C4.97747 5.00615 5.01024 4.94469 5.03073 4.90373C5.05121 4.86276 5.07169 4.84228 5.08808 4.83409H5.08398ZM1.33961 3.02335C1.3519 3.11348 1.3601 3.18722 1.3601 3.24048C1.3601 3.40434 1.33142 3.55592 1.26997 3.6993C1.21262 3.83859 1.1143 3.96149 0.983204 4.05981C0.958624 4.0721 0.91356 4.0803 0.856206 4.0803C0.790659 4.0803 0.725113 4.06391 0.659566 4.03114C0.647276 4.02295 0.618599 4.00246 0.569439 3.96149C0.462925 3.71159 0.413765 3.44941 0.413765 3.17493C0.413765 2.80623 0.503892 2.41704 0.688242 2.00328C0.82753 1.68783 1.02827 1.34781 1.29865 0.979107C1.1102 1.54855 0.921753 2.11799 0.737403 2.69152C0.737403 2.81442 0.753789 2.92913 0.790659 3.03564C0.82753 3.14216 0.88898 3.24458 0.983204 3.35109C1.08152 3.37157 1.15526 3.32241 1.20852 3.2077C1.26178 3.093 1.30274 3.03154 1.33552 3.02745L1.33961 3.02335ZM3.00287 4.44081L2.94551 4.63745C2.92093 4.62516 2.87997 4.61696 2.82671 4.61696C2.7202 4.61696 2.65465 4.66612 2.62188 4.76444C2.62188 4.91602 2.60959 5.04711 2.5891 5.16182C2.56452 5.27653 2.52356 5.42401 2.4662 5.60016C2.41295 5.5551 2.3433 5.42811 2.24908 5.21508C2.20401 5.11676 2.15485 5.03482 2.1016 4.96928C2.06882 4.97747 2.01147 4.97747 1.93363 4.97747C1.81483 4.97747 1.73699 4.94879 1.69603 4.88734C1.71651 4.80131 1.73699 4.71528 1.75338 4.63335C1.79435 4.52683 1.8517 4.46129 1.92954 4.43671C2.05244 4.51045 2.16305 4.63744 2.25318 4.8218C2.32692 4.97747 2.40066 5.13724 2.47849 5.29291C2.47849 5.0635 2.50307 4.87096 2.55223 4.71938C2.60139 4.5637 2.69971 4.4449 2.8431 4.35887C2.88406 4.34658 2.93322 4.37116 2.99877 4.43671L3.00287 4.44081ZM18.2999 1.51168C18.2753 1.49119 18.2261 1.45433 18.1524 1.40516C18.0787 1.35191 18.05 1.30685 18.0623 1.26588C18.095 1.23311 18.1237 1.21671 18.1524 1.21671C18.2507 1.21671 18.2999 1.27407 18.2999 1.38468V1.51168ZM18.5457 5.17002C18.5785 5.24376 18.5662 5.29701 18.5047 5.33798C18.4719 5.35846 18.4146 5.37895 18.3367 5.40762C18.0336 5.40762 17.8124 5.26833 17.669 4.99386C17.7427 4.92012 17.8574 4.88734 18.0213 4.88734C18.1196 4.88734 18.2179 4.90783 18.3204 4.9447C18.4228 4.98566 18.4965 5.05941 18.5416 5.17002H18.5457ZM15.7722 4.83409C15.6534 4.85457 15.5223 4.86277 15.3789 4.86277C15.2151 4.86277 15.0676 4.84228 14.9365 4.79722C14.8054 4.75625 14.6989 4.68251 14.6211 4.58419C14.6088 4.55141 14.6211 4.51864 14.6538 4.48587C14.6907 4.4531 14.7235 4.42442 14.7562 4.39574C14.7767 4.39574 14.8095 4.39574 14.8546 4.38755C15.2274 4.38755 15.5346 4.53503 15.7681 4.82999L15.7722 4.83409ZM17.1979 6.94797L17.0914 6.92749L16.9644 7.034L17.202 6.94388L17.1979 6.94797ZM10.4056 0.843915C10.3482 0.819335 10.2868 0.79066 10.2253 0.761983C10.1639 0.733306 10.1311 0.692338 10.1311 0.639081C10.1884 0.594018 10.2458 0.569438 10.2991 0.569438C10.3728 0.569438 10.4056 0.610411 10.4056 0.696441V0.843915ZM13.306 4.21549C13.3183 4.26875 13.3347 4.322 13.3552 4.37116C13.3552 4.39574 13.3306 4.42032 13.2855 4.44081C13.1667 4.53913 13.0479 4.61696 12.925 4.67022C12.8021 4.72757 12.6587 4.78083 12.4867 4.83409C12.4867 4.64564 12.5195 4.46538 12.5809 4.29742C12.6424 4.12946 12.7448 3.98608 12.88 3.87137C12.9578 3.85908 13.0315 3.87956 13.0971 3.94101C13.1381 3.97379 13.2036 4.06391 13.3019 4.21549H13.306ZM9.15608 5.12905C9.07005 5.15363 8.96764 5.17002 8.85293 5.17002C8.58255 5.17002 8.35313 5.09218 8.16469 4.93241C8.15649 4.85867 8.20565 4.79721 8.30397 4.74396C8.47604 4.74396 8.63171 4.78083 8.77509 4.85048C8.88161 4.90373 9.0086 4.99386 9.16018 5.12495L9.15608 5.12905Z" fill="white"/>
</svg>
