<svg width="20" height="10" viewBox="0 0 20 10" fill="none" xmlns="http://www.w3.org/2000/svg">
<path fill-rule="evenodd" clip-rule="evenodd" d="M20 2.06423C19.9152 2.04403 19.8384 1.97536 19.7657 1.86225C19.6688 1.70875 19.6041 1.61179 19.5718 1.57948L19.4547 1.70471C19.4547 2.02787 19.487 2.42779 19.5516 2.9085C19.7011 4.00727 19.7738 4.70612 19.7738 5.00101C19.7738 5.77661 19.7576 6.32599 19.7253 6.64916C19.6688 7.23086 19.5395 7.73985 19.3456 8.18016C19.4183 7.73581 19.4506 7.24702 19.4506 6.71783C19.4506 6.14825 19.4062 5.51404 19.3133 4.81923C19.2244 4.12038 19.1315 3.40941 19.0426 2.68229C18.9537 1.95516 18.9053 1.34114 18.9053 0.844272C18.982 0.561501 19.1073 0.331246 19.285 0.157544C19.3617 0.343365 19.4627 0.5817 19.5839 0.864472C19.8021 1.37346 19.9394 1.77742 19.9919 2.06827L20 2.06423ZM18.2064 1.82186C18.1418 1.77742 18.0772 1.71682 18.0125 1.63603C17.9923 1.61583 17.9358 1.53908 17.8388 1.40174C17.7823 1.49061 17.7499 1.60372 17.7499 1.73298C17.7499 1.81782 17.758 1.89861 17.7701 1.97536C17.8146 2.23389 17.8388 2.37124 17.8388 2.39144C17.8792 2.68229 17.9277 3.04181 17.9923 3.46597C18.1216 4.3062 18.1862 4.95253 18.1862 5.40497C18.1862 5.96647 18.1054 6.44718 17.9438 6.85114C17.758 7.31569 17.451 7.69946 17.0309 8.00646C16.8572 8.05898 16.635 8.10745 16.3603 8.15189C16.2715 8.16401 15.8998 8.21248 15.2454 8.29731C15.7625 8.0711 16.1503 7.89335 16.4088 7.76409C16.8612 7.52979 17.2086 7.25914 17.447 6.94809C17.4066 6.66532 17.3137 6.39063 17.1642 6.12401C17.0471 5.90992 16.8774 5.67158 16.6512 5.40497C16.534 5.26762 16.3846 5.102 16.2068 4.90002C15.9483 4.62129 15.6898 4.34256 15.4312 4.05575C14.9869 3.5508 14.5385 3.04585 14.0941 2.53282C13.5973 1.93092 13.2458 1.38962 13.0479 0.904867C13.0721 0.783679 13.1044 0.650375 13.1448 0.508989C13.1852 0.367603 13.2377 0.266611 13.3104 0.210057C13.3508 0.262572 13.5245 0.444355 13.8356 0.751364C14.0618 0.977581 14.187 1.17956 14.2153 1.36134C14.1062 1.30479 13.9972 1.24419 13.8841 1.18764C13.9689 1.43809 14.1466 1.7249 14.4173 2.03999C14.7485 2.40355 14.9909 2.67421 15.1444 2.85599C15.2939 3.05797 15.4918 3.28419 15.7342 3.53464C16.3926 4.21329 16.7481 4.58493 16.8006 4.64957C17.0471 4.94042 17.2288 5.21107 17.3541 5.46556C17.5035 5.77661 17.5762 6.08766 17.5762 6.40678C17.5762 6.51181 17.5682 6.59261 17.556 6.6532C17.5439 6.71379 17.5359 6.76227 17.5359 6.79459L17.556 6.82286C17.6934 6.71783 17.7823 6.58857 17.8307 6.43506C17.8792 6.28156 17.9035 6.09978 17.9035 5.89376C17.9035 5.75238 17.8954 5.62715 17.8833 5.52212C17.8711 5.41709 17.859 5.32822 17.855 5.26358C17.7903 4.76671 17.7176 4.25773 17.6368 3.73662C17.556 3.21551 17.4753 2.69845 17.3985 2.18138C17.2773 1.39366 17.1965 0.884669 17.1642 0.658452C17.2288 0.529185 17.2773 0.436276 17.3096 0.375682C17.3662 0.266613 17.4308 0.177741 17.5035 0.113108C17.5682 0.274692 17.6732 0.480711 17.8146 0.735205C18.0731 1.19572 18.2024 1.55524 18.2024 1.82186H18.2064ZM12.5833 1.3371C12.551 1.39366 12.5146 1.45829 12.4783 1.52292C12.4379 1.58756 12.3894 1.61988 12.3248 1.61988C12.1874 1.64007 12.0784 1.62392 11.9935 1.57544C11.9087 1.52697 11.8683 1.47445 11.8683 1.41386C11.8683 1.37346 11.8885 1.31287 11.9329 1.22804C11.9733 1.1432 11.9976 1.08665 11.9976 1.05433L12.1147 0.908907C12.1268 0.941224 12.1147 0.997778 12.0703 1.07857C12.0299 1.15936 12.0137 1.22399 12.0259 1.27651C12.0784 1.33306 12.139 1.36538 12.2117 1.36538C12.2521 1.36538 12.3005 1.36134 12.3571 1.34922C12.4137 1.34114 12.446 1.33306 12.4541 1.33306L12.5025 1.29267C12.4258 1.1634 12.349 1.03413 12.2803 0.904867C12.2803 0.848313 12.3207 0.795799 12.3975 0.751364C12.4823 0.807918 12.547 0.872551 12.5914 0.937184C12.6358 1.00182 12.6601 1.07453 12.6601 1.15936C12.6601 1.22399 12.6358 1.28055 12.5914 1.33306L12.5833 1.3371ZM13.2418 2.58937C13.2539 2.50454 13.2095 2.42779 13.1125 2.35508C13.0115 2.28237 12.9186 2.21773 12.8257 2.1531C12.7489 2.07635 12.6843 2.03595 12.6318 2.03595C12.5591 2.03595 12.4864 2.11674 12.4096 2.28237C12.3329 2.44799 12.2723 2.5409 12.2359 2.56918C12.2359 2.67825 12.349 2.79943 12.5752 2.9287C12.757 3.03373 12.854 3.08624 12.8661 3.09432L13.2458 2.58937H13.2418ZM10.7211 1.09473C10.7211 1.19976 10.7009 1.29671 10.6645 1.38558C10.6241 1.47445 10.5635 1.53908 10.4787 1.57948C10.4221 1.58756 10.3696 1.56736 10.3292 1.52696C10.2888 1.48657 10.2606 1.42597 10.2484 1.35326C10.2363 1.28055 10.2282 1.22399 10.2282 1.19168C10.2282 1.03009 10.2686 0.856393 10.3535 0.666533C10.3939 0.581701 10.4787 0.432235 10.616 0.210057C10.6039 0.28277 10.5554 0.407998 10.4747 0.589779C10.3939 0.771561 10.3535 0.912946 10.3535 1.01797C10.3535 1.10281 10.3777 1.18764 10.4302 1.28055C10.4625 1.30075 10.4908 1.30883 10.5191 1.30883C10.5595 1.30883 10.5918 1.29267 10.6201 1.25631C10.6484 1.21996 10.6726 1.17552 10.6928 1.12705L10.7211 1.09877V1.09473ZM18.5821 8.39426L18.1862 8.53161C17.9842 8.53161 17.8065 8.46697 17.6449 8.33771L17.7823 8.20036C17.8711 8.18824 17.9277 8.2246 17.9479 8.31751C18.0772 8.3054 18.1499 8.23672 18.1701 8.11553C18.1378 8.05898 18.0974 8.02666 18.0529 8.01858C18.0085 8.0105 17.96 8.00242 17.9075 7.9903C17.7903 8.04282 17.6894 8.1115 17.6086 8.20441C17.552 8.26904 17.4753 8.36195 17.3864 8.48718C17.4106 8.53161 17.4591 8.57605 17.5237 8.6124C17.556 8.6326 17.6045 8.65684 17.6692 8.68916L17.4066 8.98808C17.4833 8.93557 17.7015 8.85478 18.057 8.74571C18.3397 8.66088 18.5175 8.54373 18.5902 8.3983L18.5821 8.39426ZM18.6993 8.85074C18.6467 8.94769 18.5659 9.03252 18.4569 9.10119C18.3801 9.1537 18.2711 9.20218 18.1378 9.24661C18.0004 9.29105 17.8711 9.33549 17.7419 9.37588C17.6126 9.41628 17.4995 9.46476 17.4025 9.51727C17.4591 9.42032 17.5399 9.33953 17.6368 9.27893C17.7338 9.21834 17.8469 9.16582 17.9762 9.12947C18.1054 9.08907 18.2347 9.05272 18.368 9.01232C18.5013 8.97193 18.6104 8.91941 18.7033 8.8467L18.6993 8.85074ZM8.68511 0.319128C8.78206 0.428197 8.85478 0.561504 8.90325 0.710968C8.95173 0.864473 8.97596 1.01798 8.97596 1.17956C8.97596 1.41386 8.93961 1.64007 8.86286 1.86629C8.79014 2.0925 8.68915 2.31064 8.56797 2.52474C8.64472 2.35104 8.70935 2.16926 8.75783 1.97536C8.8063 1.7855 8.83054 1.5916 8.83054 1.3977C8.83054 1.06241 8.74167 0.775601 8.56797 0.533226L8.68511 0.311047V0.319128ZM11.836 2.20966C11.634 2.27429 11.2866 2.39548 10.7897 2.56918C10.4343 2.69845 10.0788 2.82771 9.72329 2.95698C9.3678 3.08625 9.01232 3.21147 8.65684 3.3367C8.49525 3.41345 8.38214 3.52252 8.31751 3.66795L11.0402 2.69036C11.1897 2.63381 11.3472 2.56918 11.5088 2.50454C11.6744 2.43991 11.7835 2.34296 11.832 2.21369L11.836 2.20966ZM14.6273 6.04726C14.6273 5.84124 14.5264 5.56251 14.3284 5.21511C14.1264 4.8677 14.0295 4.60513 14.0295 4.43143C14.0699 4.48394 14.1224 4.51222 14.1951 4.5203C14.2678 4.52838 14.3163 4.54454 14.3405 4.56877C14.3405 4.41931 14.2557 4.24965 14.0901 4.05575C13.8517 3.77702 13.7184 3.61947 13.6942 3.57908C13.6053 3.57908 13.5286 3.62755 13.472 3.7245C13.4599 3.74874 13.3993 3.92244 13.2983 4.23753C13.3508 4.47586 13.4639 4.76671 13.6376 5.11008C14.0578 5.95031 14.284 6.41082 14.3163 6.49566C14.0456 6.67744 13.7427 6.76631 13.4155 6.76631C13.266 6.76631 13.1327 6.75015 13.0075 6.72187C12.8863 6.69359 12.7974 6.65724 12.7489 6.61684C12.7005 6.57645 12.6762 6.5199 12.6762 6.45526C12.6762 6.39063 12.6924 6.33003 12.7247 6.26944C12.6358 6.32195 12.5146 6.45526 12.3692 6.66532C12.2238 6.87942 12.0905 7.01273 11.9653 7.0612C11.8804 7.0612 11.7996 7.04908 11.7188 7.02888C11.6381 7.00465 11.5734 6.97233 11.5209 6.92789C11.424 6.86326 11.3755 6.78247 11.3755 6.68552C11.3755 6.6532 11.3916 6.57241 11.424 6.44315C11.3472 6.5199 11.2139 6.6734 11.0281 6.89961C10.8463 7.0814 10.6645 7.17027 10.4868 7.17027C10.3575 7.18238 10.2444 7.16219 10.1515 7.11371C10.0586 7.0612 9.96162 6.97637 9.86467 6.86326C9.82024 6.81882 9.796 6.76631 9.796 6.70975C9.796 6.67744 9.81216 6.61685 9.84852 6.52394C9.88487 6.43506 9.89699 6.36639 9.88083 6.32196C9.67481 6.49162 9.46879 6.6532 9.25874 6.81479C9.00828 7.00869 8.76995 7.10564 8.55181 7.10564C8.4791 7.10564 8.40638 7.09756 8.32963 7.07736C8.22056 7.03292 8.11957 6.94809 8.0307 6.81882C7.94183 6.6936 7.87316 6.56837 7.82872 6.44718C7.77621 6.15633 7.73985 5.88568 7.72369 5.63927C7.70349 5.38881 7.69542 5.02525 7.69542 4.54858C7.69542 4.46375 7.70753 3.97496 7.73581 3.07413C7.74389 2.84791 7.74389 2.55706 7.74389 2.20157C7.74389 1.82589 7.72773 1.44213 7.69945 1.04221C7.67118 0.642295 7.62674 0.29893 7.57019 0C7.49748 0.0323167 7.43284 0.113108 7.37629 0.242375C7.29954 0.412037 7.24702 0.508987 7.22278 0.541303C7.28742 0.981618 7.33185 1.42598 7.35205 1.87841C7.37629 2.33084 7.38437 2.86003 7.38437 3.47C7.37629 3.78105 7.37629 4.08402 7.37629 4.38699V5.28378C7.39649 5.64735 7.41668 6.00687 7.43284 6.37043C7.48536 7.10159 7.71157 7.59442 8.11149 7.85296C8.20036 7.86508 8.265 7.87316 8.30539 7.87316C8.53969 7.87316 8.76591 7.7964 8.99212 7.63886C9.1739 7.51767 9.34761 7.35205 9.51727 7.14603C9.51727 7.38033 9.58998 7.57423 9.73945 7.72773C9.92123 7.857 10.103 7.92163 10.2808 7.92163C10.3656 7.92163 10.4262 7.91356 10.4666 7.90144C10.7251 7.82872 10.9271 7.66714 11.0766 7.40861C11.2301 7.69138 11.4563 7.8368 11.7552 7.8368C11.8723 7.82468 11.9733 7.76409 12.0622 7.6631C12.1511 7.56211 12.2601 7.39648 12.3975 7.17835L12.7287 7.40053C12.9348 7.47728 13.1569 7.51767 13.3993 7.51767C13.7104 7.51767 13.9851 7.44496 14.2234 7.30357C14.4092 7.1945 14.5344 7.00869 14.591 6.75015C14.6233 6.60877 14.6395 6.37447 14.6395 6.0513L14.6273 6.04726ZM11.3714 4.39103L11.3149 4.49606L11.0725 4.35872C10.9675 4.694 10.8665 5.02929 10.7615 5.35649C10.7089 5.3161 10.6362 5.15048 10.5393 4.85155C10.4666 4.63341 10.3373 4.5405 10.1515 4.58089C10.0949 4.55665 10.0626 4.50818 10.0626 4.44355C10.0626 4.41123 10.0626 4.38295 10.0707 4.35468C10.103 4.26984 10.1232 4.21733 10.1272 4.18905C10.1596 4.14866 10.1838 4.12038 10.204 4.10018C10.2242 4.07998 10.2484 4.07191 10.2808 4.07191C10.305 4.07191 10.3292 4.07998 10.3494 4.10018C10.4545 4.18501 10.5393 4.33448 10.612 4.55665C10.6847 4.77479 10.7493 4.92022 10.8059 4.99293C10.8382 4.81115 10.8746 4.62937 10.9109 4.43951C10.9675 4.23349 11.0725 4.12038 11.222 4.10018C11.2987 4.16482 11.3432 4.20117 11.3472 4.20521C11.3795 4.24561 11.3957 4.27792 11.3957 4.30216C11.3957 4.32236 11.3876 4.3466 11.3674 4.37891L11.3714 4.39103ZM6.14421 1.23207C6.13209 1.32902 6.11998 1.42597 6.10382 1.52292C6.07958 1.62795 6.03111 1.70875 5.95839 1.77338C5.90184 1.77338 5.84528 1.74914 5.79681 1.70471C5.74833 1.66027 5.70794 1.60372 5.67562 1.53908C5.65542 1.44213 5.64734 1.34922 5.64734 1.25631C5.64734 1.06241 5.69582 0.86043 5.79277 0.654411C5.86548 0.500907 5.97051 0.331244 6.1119 0.149463C6.1119 0.234294 6.03918 0.432236 5.88972 0.751364C5.81701 0.900828 5.78469 1.02605 5.78469 1.13108C5.78469 1.2038 5.79681 1.26439 5.81701 1.32094C5.84124 1.3775 5.88164 1.43405 5.93819 1.49061C5.96243 1.47849 5.99071 1.43405 6.01899 1.35326C6.04726 1.27651 6.08766 1.23207 6.14017 1.22804L6.14421 1.23207ZM4.22541 0.319128C4.22541 0.39184 4.20117 0.460513 4.14866 0.533226C4.09614 0.500909 4.04363 0.484749 3.98303 0.484749C3.92244 0.484749 3.88204 0.517065 3.85781 0.581699C3.83357 0.646332 3.79721 0.807918 3.75278 1.07049C3.70834 1.33306 3.63159 1.50273 3.5306 1.57948C3.47809 1.53504 3.39729 1.36134 3.28822 1.05433C3.20339 0.828116 3.07009 0.727124 2.88023 0.755401C2.82771 0.723084 2.80347 0.682689 2.80347 0.630175C2.80347 0.597858 2.81155 0.553423 2.82771 0.500908C2.84387 0.444354 2.85195 0.412037 2.85195 0.399918C2.87619 0.355483 2.9085 0.319127 2.94082 0.28681C2.97314 0.258533 3.00545 0.242375 3.03777 0.242375C3.06201 0.242375 3.08625 0.258534 3.10644 0.290851C3.19531 0.375682 3.28015 0.521106 3.35286 0.731165C3.42557 0.941223 3.50232 1.08261 3.57907 1.15128C3.63159 0.912946 3.66795 0.739243 3.69622 0.626134C3.74874 0.420115 3.83357 0.266612 3.94668 0.169662C4.02343 0.181781 4.08806 0.1939 4.13654 0.201979C4.18501 0.210059 4.21733 0.250454 4.22945 0.315087L4.22541 0.319128ZM12.2521 8.11553C12.2763 8.16805 12.2763 8.21652 12.244 8.265C12.2117 8.31347 12.1794 8.36195 12.147 8.41446C11.9653 8.53161 11.8198 8.60837 11.7067 8.6528C11.5936 8.6932 11.4886 8.71743 11.3916 8.71743C11.2866 8.71743 11.1977 8.68915 11.121 8.62856C11.0766 8.61644 11.0079 8.60837 10.919 8.60837C10.7776 8.60837 10.6362 8.63664 10.4908 8.69723C10.3858 8.73763 10.2484 8.81034 10.0747 8.91941C9.8364 9.06079 9.66269 9.15774 9.5617 9.21026C9.37588 9.29913 9.1941 9.36377 9.0204 9.39608L8.33367 9.50111C8.55989 9.45667 8.79822 9.37992 9.05272 9.26681C9.2143 9.20218 9.44052 9.09311 9.73541 8.94365C10.0303 8.79014 10.2525 8.68108 10.3979 8.60837C10.6766 8.46698 10.9028 8.36195 11.0766 8.29731C11.1533 8.28924 11.2301 8.32559 11.3108 8.40234C11.3876 8.47909 11.4442 8.51949 11.4765 8.51949C11.5209 8.51949 11.5694 8.49525 11.6219 8.44274C11.6542 8.42254 11.6865 8.37811 11.7188 8.3054C11.7512 8.23268 11.7875 8.19228 11.8239 8.18016C11.8441 8.20036 11.8441 8.23268 11.8279 8.28115C11.8118 8.32963 11.8037 8.36195 11.8037 8.37407C11.8481 8.39427 11.9006 8.39022 11.9531 8.36599C12.0097 8.34175 12.0622 8.31751 12.1147 8.29731C12.1349 8.2448 12.1511 8.2044 12.1672 8.17613C12.1834 8.14785 12.2157 8.12765 12.2601 8.11149L12.2521 8.11553ZM4.25369 3.11452C4.25369 3.11452 4.14866 3.24379 4.00323 3.46193C3.8982 3.61139 3.79317 3.6639 3.6841 3.62755L3.32458 3.19128L3.75278 2.72672C3.87396 2.80347 3.96688 2.86407 4.02343 2.90042C4.1325 2.97314 4.20925 3.04181 4.25773 3.11452H4.25369ZM4.95254 5.28782C4.93234 5.40497 4.9081 5.49788 4.87578 5.56251C4.84347 5.63118 4.78287 5.68774 4.68996 5.73217C4.66572 5.74025 4.63745 5.73217 4.60917 5.70794C4.58089 5.6837 4.5405 5.63118 4.48798 5.54635C4.4799 5.50596 4.4799 5.46556 4.4799 5.42517V5.32418C4.4799 5.13836 4.50414 4.95253 4.55665 4.77075C4.60917 4.58897 4.68188 4.39911 4.77883 4.19713C4.77883 4.27388 4.74652 4.41931 4.68592 4.63341C4.62533 4.84751 4.59301 4.99697 4.59301 5.07776C4.59301 5.13432 4.60109 5.19491 4.62129 5.25146C4.64149 5.30802 4.69804 5.35649 4.79499 5.39689C4.83539 5.32418 4.86366 5.2757 4.88386 5.24338C4.9081 5.26358 4.93234 5.2757 4.95254 5.28378V5.28782ZM1.28863 3.93052C1.24419 4.12442 1.19976 4.31428 1.15128 4.50414C1.07453 4.73844 0.961422 4.90406 0.811957 5.00909C0.747324 5.02929 0.678651 5.01717 0.601898 4.96869C0.529186 4.92426 0.472632 4.89194 0.440315 4.87174C0.363563 4.7344 0.307009 4.59705 0.274692 4.45567C0.242375 4.31428 0.226217 4.16482 0.226217 4.01131C0.226217 3.61543 0.355484 3.12664 0.614017 2.53686C0.735205 2.26621 0.864472 1.99152 0.993739 1.71278C0.973541 1.80166 0.888709 2.08039 0.731165 2.54494C0.609978 2.91254 0.545344 3.20743 0.545344 3.42557C0.545344 3.59927 0.569582 3.75278 0.618057 3.88204C0.666532 4.01131 0.759443 4.13654 0.892749 4.26176C0.965462 4.286 1.02606 4.28196 1.07857 4.24157C1.13108 4.20117 1.16744 4.14462 1.19572 4.06787C1.21996 4.02343 1.25227 3.97899 1.28459 3.93052H1.28863ZM6.61281 4.24157C6.56837 4.10018 6.52393 3.98707 6.47546 3.90224C6.45526 3.86184 6.35023 3.68814 6.15633 3.3771C6.01899 3.50636 5.93011 3.63563 5.88164 3.76894C5.83316 3.90224 5.80893 4.05978 5.80893 4.24965C5.80893 4.47586 5.88164 4.83943 6.02707 5.34034C6.17249 5.84125 6.2452 6.20481 6.2452 6.43103C5.37265 7.06524 4.39911 7.54595 3.32862 7.87719C3.15896 7.91759 3.01353 7.94587 2.88427 7.96607C2.755 7.98626 2.61361 7.99435 2.45607 7.99435C2.08847 7.99435 1.7451 7.92971 1.43405 7.80045C1.11897 7.67118 0.852353 7.4692 0.634215 7.19855C0.529186 7.04908 0.456474 6.89154 0.416078 6.71783C0.375682 6.54817 0.351444 6.35427 0.351444 6.14018C0.351444 5.7443 0.420117 5.37669 0.553424 5.03333C0.286811 5.40901 0.121188 5.82104 0.048475 6.27348C0.0161583 6.45526 0 6.61685 0 6.75823C0 7.09352 0.0727127 7.40456 0.214098 7.6833C0.355484 7.96607 0.569582 8.18824 0.852353 8.35791C1.08665 8.48717 1.31691 8.58009 1.54716 8.6326C1.77742 8.68916 2.02383 8.71339 2.29045 8.71339C2.70248 8.71339 3.15088 8.6326 3.62755 8.47101C4.16481 8.28923 4.84751 7.95799 5.6837 7.47324C6.02707 7.29953 6.27348 7.01676 6.41891 6.62896C6.53605 6.32599 6.59261 5.95031 6.59261 5.50596C6.58453 5.46556 6.5199 5.23934 6.39063 4.82731C6.34619 4.68592 6.32196 4.55665 6.32196 4.43951C6.32196 4.38699 6.32599 4.33448 6.33811 4.286C6.34619 4.23349 6.35831 4.19713 6.37043 4.18097C6.39467 4.19309 6.43506 4.21329 6.48758 4.23753C6.54009 4.26176 6.58049 4.26176 6.61281 4.23753V4.24157ZM2.347 5.16259C2.347 5.29994 2.33892 5.39689 2.31872 5.45344C2.27833 5.55847 2.20965 5.62715 2.10463 5.66754C2.02787 5.6433 1.96728 5.61099 1.92688 5.57059C1.88649 5.5302 1.86225 5.4898 1.86225 5.44536C1.86225 5.25954 1.88649 5.0818 1.939 4.91214C1.97132 4.79499 2.03191 4.64553 2.12482 4.46778C2.12482 4.5405 2.10059 4.64553 2.04807 4.78691C1.99556 4.9283 1.97132 5.03737 1.97132 5.10604C1.97132 5.20299 2.01575 5.29186 2.10866 5.37669C2.16522 5.38881 2.20965 5.37265 2.23389 5.32418C2.25813 5.2757 2.28641 5.22723 2.31064 5.18279L2.35104 5.16259H2.347Z" fill="white"/>
</svg>
