<svg width="20" height="11" viewBox="0 0 20 11" fill="none" xmlns="http://www.w3.org/2000/svg">
<path fill-rule="evenodd" clip-rule="evenodd" d="M19.9788 2.06787C19.9311 2.04136 19.8727 1.97243 19.8144 1.86638C19.7561 1.76034 19.6978 1.6808 19.6394 1.63308C19.6394 1.97773 19.6713 2.42312 19.7349 2.95864C19.878 4.15164 19.947 4.91516 19.947 5.2492C19.9735 5.4666 19.9894 5.61506 19.9947 5.69459C19.9947 5.77412 20 5.85366 20 5.93849C20 6.29374 19.9629 6.64899 19.8834 7.01485C19.8038 7.3807 19.6978 7.74655 19.5652 8.11241C19.5917 7.94274 19.6129 7.74125 19.6288 7.50795C19.6447 7.27466 19.6501 7.05196 19.6501 6.83987C19.6501 6.27253 19.6023 5.63097 19.5069 4.91516C19.4115 4.19936 19.316 3.46235 19.2153 2.71474C19.1145 1.96713 19.0668 1.33616 19.0668 0.827146C19.0244 0.763519 19.0032 0.699894 19.0032 0.636268C19.0032 0.54613 19.0403 0.440084 19.1092 0.328738C19.1782 0.217391 19.2471 0.106045 19.3107 0C19.5281 0.424178 19.6819 0.758219 19.7667 0.996819C19.9099 1.38388 19.9788 1.74443 19.9788 2.06787ZM16.7975 0.265111C16.8134 0.355249 16.7656 0.440084 16.6596 0.509013C16.6437 0.514316 16.5482 0.562035 16.3733 0.64687C16.0392 0.79003 15.7052 0.933192 15.3659 1.08696C15.0265 1.24072 14.7137 1.41039 14.4221 1.60127C14.544 1.41569 14.6978 1.25663 14.8887 1.12407C15.0371 1.01803 15.2439 0.911983 15.5037 0.805939C15.9332 0.630965 16.368 0.450689 16.7975 0.265111ZM16.7975 2.26935C16.7975 2.31177 16.7868 2.35949 16.7603 2.40721C16.7338 2.45493 16.7179 2.49735 16.702 2.52386C16.6119 2.46553 16.5483 2.43902 16.5217 2.43902C16.4793 2.50795 16.4422 2.66172 16.4104 2.90032C16.3786 3.13892 16.315 3.28208 16.2142 3.3298C16.0817 3.1018 15.9491 2.87911 15.8218 2.65111L15.7582 2.76776C15.6946 2.76776 15.631 2.71474 15.5673 2.60869C15.5461 2.54507 15.5567 2.47084 15.6045 2.386C15.6522 2.30117 15.6734 2.25345 15.6734 2.24814C15.8059 2.24814 15.9226 2.33298 16.0233 2.50265C16.1029 2.65111 16.1824 2.79427 16.2672 2.93743C16.315 2.67763 16.3998 2.41251 16.5217 2.1527C16.6278 2.13149 16.7179 2.16861 16.7975 2.26935ZM17.0095 4.33722C17.0308 4.38494 17.0201 4.45387 16.983 4.5334C16.9459 4.61294 16.9194 4.67126 16.9035 4.70838C16.7975 4.77731 16.7391 4.81442 16.7338 4.81442C16.7073 4.81442 16.6808 4.79852 16.6596 4.772C16.6172 4.68717 16.596 4.59703 16.596 4.50689C16.596 4.40085 16.6225 4.2736 16.6808 4.13044C16.7391 3.98728 16.7922 3.84942 16.8505 3.72216C16.8558 3.76988 16.8399 3.86532 16.7922 4.00848C16.7444 4.15164 16.7232 4.24708 16.7232 4.2948C16.7232 4.40615 16.7762 4.48038 16.8823 4.50689L17.0095 4.33722ZM14.8038 3.5843C14.7561 3.72746 14.7031 3.86532 14.6554 4.00848C14.5917 4.15694 14.5122 4.2789 14.4115 4.37964C14.4963 4.23118 14.5705 4.0562 14.6288 3.84942C14.6872 3.64263 14.719 3.44114 14.719 3.24496C14.719 3.0965 14.7031 2.95864 14.666 2.83669C14.6288 2.71474 14.5705 2.60339 14.4857 2.50265L14.6023 2.29056C14.6925 2.3754 14.7614 2.48674 14.8038 2.6246C14.8462 2.76246 14.8674 2.90032 14.8674 3.04348C14.8674 3.23966 14.8462 3.41994 14.8038 3.5843ZM18.2503 5.68399L17.667 1.48462L17.72 1.421C17.72 1.421 17.8102 1.52704 17.9321 1.71792C17.9745 1.78155 18.0329 1.81336 18.1018 1.81336C18.0382 1.49523 17.9533 1.2036 17.842 0.933191C17.7306 0.662777 17.5875 0.365853 17.4125 0.0424168C17.3754 0.100741 17.3224 0.190881 17.2481 0.323436C17.1739 0.455992 17.1368 0.567337 17.1368 0.66808C17.1368 0.731706 17.1527 0.790031 17.1792 0.848356L17.9427 5.99152C17.8208 6.08165 17.7041 6.15588 17.5822 6.21421C17.4973 6.25132 17.3701 6.29374 17.2004 6.34146C17.0573 6.06575 16.8929 5.83775 16.702 5.66278C16.4687 5.45069 16.2195 5.34464 15.9597 5.34464C15.7211 5.42948 15.5355 5.57264 15.4083 5.76882C15.2439 6.00742 15.1379 6.37328 15.0901 6.86108C15.1379 7.00954 15.228 7.12619 15.3605 7.20573C15.4931 7.28526 15.6999 7.32768 15.9809 7.32768C16.2407 7.27996 16.5058 7.22694 16.7656 7.16861C16.8876 7.16861 16.9459 7.24814 16.9459 7.41251C16.6649 7.70944 16.4104 7.95334 16.193 8.14422C15.9332 8.37222 15.6628 8.579 15.3818 8.76988C15.1007 8.96076 14.8197 9.12513 14.5281 9.26829C14.2365 9.41145 13.9396 9.5281 13.6267 9.61824C13.5896 9.61824 13.5366 9.62354 13.4624 9.63945C13.3881 9.65536 13.2927 9.66066 13.1707 9.66066C12.9639 9.66066 12.7731 9.62884 12.5981 9.55991C12.4231 9.49099 12.2747 9.37964 12.1633 9.21527C12.0944 9.12513 12.0467 9.035 12.0254 8.95016C12.0042 8.86532 11.9936 8.76458 11.9936 8.65323C11.9936 8.48887 12.0254 8.30329 12.0944 8.0965C12.1633 7.88971 12.2269 7.68823 12.2906 7.49735C12.0626 7.87381 11.9141 8.18664 11.8399 8.44114C11.7656 8.69565 11.7285 8.93425 11.7285 9.15164C11.7285 9.44857 11.8028 9.71898 11.9512 9.95758C12.0732 10.122 12.2269 10.2386 12.4178 10.3075C12.5239 10.3499 12.7094 10.3871 12.9692 10.4242C13.4305 10.3765 13.8812 10.2492 14.3213 10.053C14.7614 9.85684 15.1803 9.59703 15.5779 9.2842C15.9756 8.97137 16.315 8.62142 16.6013 8.23436C16.8876 7.8473 17.1103 7.43902 17.264 6.99894C17.5557 6.94062 17.789 6.78155 17.9639 6.51113C18.1071 6.29905 18.2025 6.02333 18.2503 5.68399ZM11.6013 1.70732C11.4793 1.8982 11.3945 2.02545 11.3468 2.08908C11.2778 2.17921 11.2036 2.25345 11.1347 2.31177L10.5514 1.78155L10.9014 1.23012L11.6013 1.70732ZM13.5207 2.00424C13.473 1.97773 13.4146 1.92471 13.3563 1.85578C13.298 1.78685 13.2397 1.71792 13.1919 1.65429L13.0859 1.82397C13.0859 2.20573 13.1336 2.69883 13.2344 3.29798C13.3775 4.13043 13.4571 4.67126 13.4783 4.91516C13.4995 5.15907 13.5101 5.33404 13.5154 5.43478C13.5154 5.53553 13.5154 5.64687 13.5154 5.75822C13.5154 6.13468 13.4836 6.47932 13.4252 6.80276C13.3669 7.12619 13.2662 7.44433 13.123 7.76246C13.1495 7.63521 13.1707 7.47614 13.1866 7.27996C13.2025 7.08378 13.2078 6.89289 13.2078 6.70201C13.2078 6.59067 13.2078 6.47402 13.2025 6.35737C13.2025 6.24072 13.2025 6.12407 13.2025 6.00212V5.90668L12.5769 0.784729C12.561 0.726405 12.5557 0.683986 12.5557 0.64687C12.5557 0.540826 12.5875 0.429479 12.6511 0.307528C12.7413 0.164368 12.8049 0.0636267 12.842 0C13.017 0.376458 13.1548 0.705197 13.2556 0.986215C13.3828 1.33086 13.473 1.6702 13.5207 2.00424ZM10.3818 1.85578C10.3022 2.09438 10.1644 2.29586 9.95758 2.46023C9.78261 2.41782 9.63945 2.3701 9.5334 2.31177C9.38494 2.23224 9.2842 2.1421 9.23648 2.03606C9.2842 1.93531 9.34783 1.83457 9.42736 1.72853C9.46447 1.68081 9.53871 1.58536 9.66066 1.45281L10.3818 1.85578ZM10.4136 0.233297C8.52068 0.821844 7.49205 1.13998 7.33828 1.1983C6.63309 1.4369 6.02863 1.6649 5.53552 1.87699C5.44539 2.00424 5.40827 2.08908 5.42948 2.1315C5.92259 1.9035 6.46341 1.69141 7.04136 1.49523C7.1527 1.45281 7.70413 1.27784 8.69565 0.965005C9.39024 0.747614 9.93637 0.562035 10.3393 0.413573L10.4136 0.233297ZM14.3054 7.3913C14.3054 7.50265 14.2895 7.60339 14.2577 7.69353C14.2259 7.78367 14.1675 7.8473 14.0827 7.88971C14.0244 7.89502 13.982 7.88441 13.9502 7.8473C13.9183 7.81018 13.8918 7.76246 13.8706 7.69883C13.8706 7.57158 13.8918 7.44433 13.9343 7.31707C13.9767 7.18982 14.0191 7.06257 14.0615 6.93531C14.0774 6.98303 14.0615 7.06787 14.035 7.17922C14.0032 7.29056 13.9873 7.36479 13.9873 7.40191C13.9873 7.50795 14.0403 7.57688 14.1463 7.614C14.1729 7.55567 14.1994 7.50795 14.2153 7.46553C14.2312 7.42312 14.263 7.39661 14.3054 7.3913ZM9.2895 3.88123C9.26299 3.97137 9.23118 4.07211 9.20467 4.17285C9.17815 4.27359 9.11453 4.33192 9.02439 4.33722C8.97667 4.34252 8.93425 4.32131 8.89714 4.27359C8.86002 4.22587 8.83881 4.18876 8.82291 4.16755C8.8176 4.13044 8.8123 4.08271 8.8123 4.01909C8.8123 3.87062 8.84942 3.70626 8.92895 3.53128C8.97137 3.44115 9.01909 3.3457 9.06681 3.24496C9.06681 3.28738 9.0456 3.37752 9.00318 3.51007C8.96076 3.64263 8.93955 3.74337 8.93955 3.807C8.93955 3.93425 9.00318 4.01379 9.13043 4.0509C9.16755 4.0456 9.18876 4.01378 9.20467 3.96076C9.22057 3.90774 9.24708 3.88123 9.2895 3.88123ZM5.4719 0.848356C5.4878 0.949098 5.4825 1.04454 5.45599 1.14528C5.42948 1.24602 5.37646 1.32025 5.29162 1.36797C5.25451 1.37328 5.228 1.36797 5.20679 1.35737C5.18558 1.34146 5.12725 1.28314 5.03712 1.17709C5.03712 0.858959 5.11665 0.577942 5.27041 0.328738C5.28632 0.376458 5.27041 0.466596 5.228 0.588548C5.18558 0.710499 5.16437 0.800636 5.16437 0.85896C5.16437 0.959703 5.22269 1.02333 5.34464 1.06045L5.4719 0.848356ZM7.8685 2.52386L7.80488 2.74655C7.76776 2.74655 7.72004 2.73065 7.66172 2.70413C7.60339 2.67762 7.54507 2.66702 7.49735 2.68293C7.47084 2.76776 7.43902 2.92153 7.41251 3.13892C7.386 3.35631 7.35419 3.52598 7.31707 3.64793C7.25875 3.60552 7.18982 3.49947 7.09968 3.3245C7.00954 3.14952 6.93531 3.05938 6.87169 3.04348C6.77094 3.03818 6.70732 3.02757 6.6702 3.01167C6.63309 2.99576 6.60657 2.95864 6.58537 2.89502C6.58006 2.81018 6.59597 2.73065 6.63839 2.65111C6.68081 2.57158 6.73913 2.50795 6.80806 2.46023C6.89289 2.52916 6.96713 2.614 7.03075 2.71474C7.12089 2.88971 7.21633 3.06999 7.30647 3.24496C7.30647 3.03818 7.32238 2.87381 7.34889 2.75186C7.3754 2.6299 7.43902 2.51856 7.53977 2.41781C7.6087 2.40191 7.68293 2.41781 7.75186 2.44963C7.77306 2.46554 7.81018 2.48674 7.8685 2.52386ZM11.6013 7.91092C11.5536 8.0859 11.4475 8.18664 11.2831 8.20785L9.00318 9.21527C8.99788 9.17285 9.00318 9.12513 9.03499 9.07741C9.06151 9.02969 9.09332 8.98197 9.13043 8.93956C9.93637 8.5737 10.7582 8.22906 11.6013 7.91092ZM3.65854 0.66808C3.65854 0.800635 3.64793 0.911983 3.63203 1.00212C3.61612 1.09226 3.5737 1.16119 3.51007 1.20891L3.0965 1.09226C2.8632 1.36267 2.58218 1.60657 2.24814 1.82397C1.99894 1.98833 1.68081 2.15801 1.28314 2.33298C1.83457 1.9088 2.3913 1.48462 2.94804 1.06045C2.88971 1.03393 2.84199 0.986214 2.79427 0.92789C2.74655 0.869565 2.72534 0.805937 2.72534 0.742311C2.72534 0.694591 2.74125 0.652174 2.76776 0.615058C2.83139 0.567338 2.8685 0.477199 2.88441 0.344644C2.90032 0.212088 2.94274 0.127253 3.01166 0.0848356C3.15482 0.111347 3.28738 0.180275 3.41994 0.291622C3.55249 0.402969 3.63203 0.52492 3.65854 0.66808ZM4.2842 2.39661C4.20467 2.31707 4.11983 2.25345 4.01909 2.19512C3.91835 2.1368 3.76458 2.06257 3.55249 1.96182L3.0965 2.35419L2.52386 2.1315C2.43372 2.11559 2.34889 2.15801 2.26935 2.24814C2.24284 2.27465 2.15801 2.43372 2.02545 2.72534C2.08378 2.74125 2.20042 2.79427 2.3754 2.89502C2.51856 2.97455 2.63521 3.01697 2.73595 3.03287C2.78367 2.98515 2.84199 2.90032 2.91092 2.78897C2.97985 2.67762 3.03818 2.59279 3.0965 2.54507C3.27147 2.65111 3.40933 2.73065 3.51007 2.78897C3.61082 2.8473 3.73807 2.90032 3.89183 2.95864C4.0456 2.78897 4.17815 2.60339 4.2842 2.39661ZM11.5695 4.66596C11.7603 4.93637 11.8558 5.25451 11.8558 5.63096C11.8558 5.83775 11.824 6.03924 11.7603 6.24072C11.6967 6.44221 11.6066 6.62778 11.4952 6.79745C11.193 7.05726 10.8855 7.27996 10.5779 7.46553C10.2704 7.65111 9.93107 7.79427 9.56522 7.90562C9.19936 8.01697 8.83881 8.06999 8.49417 8.06999C8.26617 8.06999 8.07529 8.05408 7.91622 8.02757C7.75716 8.00106 7.58218 7.94274 7.3913 7.8632C7.20042 7.78367 7.00954 7.65111 6.81866 7.46553C6.6649 7.31707 6.51113 7.1421 6.36267 6.93531C6.10816 7.1421 5.83775 7.30647 5.54613 7.43902C5.25451 7.57158 4.97349 7.63521 4.69777 7.63521C4.46978 7.63521 4.26299 7.58749 4.07211 7.49735C3.84411 7.43372 3.65323 7.27996 3.49947 7.03075C3.37752 6.81336 3.26087 6.59067 3.13892 6.36267C2.84199 6.52704 2.614 6.82397 2.46023 7.25345C2.10498 8.22375 1.80806 8.78579 1.56946 8.93956C1.53234 8.94486 1.47932 8.95016 1.41039 8.95016C1.30435 8.95016 1.20361 8.93425 1.11347 8.90774C1.02333 8.88123 0.901379 8.8123 0.752916 8.70626C0.514316 8.44645 0.334041 8.13892 0.217392 7.78897C0.100743 7.43902 0.0424178 7.06787 0.0424178 6.68081C0.0424178 6.25133 0.106045 5.84836 0.233298 5.4719C0.0795337 5.15376 0 4.81972 0 4.46447C0 4.02439 0.116649 3.5684 0.349947 3.0859C0.540828 2.69883 0.805939 2.29586 1.14528 1.87699C1.11877 1.95652 0.954401 2.29586 0.657476 2.89502C0.440085 3.3404 0.328738 3.70095 0.328738 3.97667C0.328738 4.30011 0.45069 4.58643 0.699894 4.83563C0.821845 4.83563 0.92789 4.77731 1.02863 4.66596C1.04454 4.55461 1.08165 4.46978 1.14528 4.42206C1.08165 4.84093 1.04454 5.05832 1.03924 5.07953C0.970307 5.32874 0.837752 5.49841 0.646872 5.59915C0.588547 5.60445 0.535525 5.59915 0.482503 5.58855C0.429481 5.57264 0.376458 5.55143 0.318134 5.51432C0.302227 5.60445 0.291622 5.7211 0.28632 5.85366C0.281018 5.98622 0.275716 6.11347 0.275716 6.23542C0.275716 6.6596 0.339343 7.03075 0.461294 7.34889C0.583245 7.66702 0.800636 7.92683 1.11347 8.12301C1.21421 8.16013 1.27784 8.17603 1.30435 8.17603H1.41039C1.50053 8.17603 1.59067 8.15483 1.6755 8.11241C1.85048 7.94274 2.00954 7.65642 2.1527 7.25345C2.21633 7.05726 2.28526 6.85578 2.35419 6.6596C2.45493 6.36267 2.56098 6.13998 2.67232 5.99152C2.82609 5.79533 3.02757 5.67338 3.26617 5.63096C3.41463 5.9491 3.55779 6.193 3.69035 6.36267C3.89714 6.62248 4.13043 6.78155 4.40085 6.83987C4.45917 6.85578 4.5122 6.86638 4.57052 6.87169C4.62884 6.87699 4.69247 6.88229 4.772 6.88229C4.9894 6.88229 5.20679 6.83987 5.42418 6.76034C5.64157 6.68081 5.84836 6.56946 6.04454 6.4263C5.89077 6.25133 5.73701 6.07105 5.58855 5.89608C5.39236 5.68929 5.19618 5.58855 5.0053 5.58855C4.96288 5.58855 4.92577 5.58855 4.89926 5.59915C4.85684 5.62566 4.79321 5.65748 4.71368 5.68929C4.63415 5.7211 4.56522 5.74231 4.50689 5.75822C4.50159 5.73171 4.49629 5.68929 4.49629 5.64157C4.49629 5.55143 4.5228 5.41887 4.58112 5.2492C4.61824 5.14316 4.63945 5.06363 4.64475 5.01591C4.86214 4.90456 5.10604 4.81442 5.36585 4.7561C5.62566 4.69777 5.89077 4.66596 6.15058 4.66596C6.59597 4.66596 7.09968 4.74019 7.65642 4.88865C7.97985 4.97349 8.44645 5.12725 9.0456 5.34464C9.00848 5.43478 8.98727 5.50371 8.97137 5.54613C8.91304 5.69459 8.88123 5.80594 8.87593 5.88547C8.87062 5.88547 8.83881 5.92259 8.79109 5.99152C8.24496 6.01273 7.83139 6.07635 7.53977 6.1824C7.24814 6.28844 7.04666 6.4316 6.92471 6.60657C7.12089 6.86108 7.3701 7.04136 7.66172 7.1474C7.95334 7.25345 8.28738 7.30647 8.65323 7.30647C8.807 7.30647 8.97137 7.29586 9.13574 7.27996C9.30011 7.26405 9.51219 7.22163 9.7667 7.15801C10.3659 6.95122 10.9491 6.63839 11.5058 6.21421C11.3839 6.00212 11.0339 5.88017 10.4454 5.84836C9.85684 5.81654 9.56522 5.60976 9.56522 5.228C9.56522 5.15907 9.56522 5.10074 9.57582 5.05833C9.68187 4.83033 9.78791 4.60763 9.89395 4.37964C10.0424 4.11983 10.2333 3.96076 10.4666 3.90244C10.6787 3.90244 10.8855 3.98727 11.0923 4.15695C11.1771 4.22587 11.3362 4.39555 11.5695 4.66596ZM4.31601 4.31601H4.27359C4.24708 4.40615 4.21527 4.46978 4.17815 4.50689C4.09862 4.48038 4.0509 4.44327 4.02439 4.40085C3.99788 4.35843 3.98727 4.30011 3.98727 4.23118C3.98727 4.16225 4.01909 4.02969 4.08802 3.83351C4.15695 3.63733 4.18346 3.50477 4.17815 3.42524C4.11453 3.58961 4.0509 3.75928 3.98197 3.93425C3.91304 4.10923 3.88123 4.26829 3.88123 4.41145C3.88123 4.56522 3.91835 4.69247 3.98727 4.79321C4.00848 4.80912 4.06681 4.79852 4.16755 4.772C4.22587 4.70838 4.26299 4.63415 4.2842 4.54931C4.2895 4.46978 4.30011 4.39555 4.31601 4.31601ZM7.75186 8.5684C7.55567 8.66914 7.40191 8.73807 7.29586 8.78049C7.01485 8.88653 6.73913 8.93956 6.46872 8.93956C6.1983 8.93956 5.97561 8.88123 5.76882 8.76988C5.79003 8.60021 5.93319 8.46766 6.193 8.36691C6.45281 8.26617 6.60657 8.15483 6.64899 8.02757L6.29905 8.12301C6.21421 8.12301 6.12937 8.11241 6.04984 8.0859C5.97031 8.05939 5.91198 8.01697 5.88547 7.95334C5.90138 7.92683 5.9438 7.91092 6.01272 7.91092C6.03393 7.93743 6.06044 7.97985 6.09756 8.02757C6.1877 7.94804 6.24602 7.86851 6.26723 7.78367C6.25133 7.70414 6.20361 7.66702 6.11877 7.66702C6.07105 7.66702 6.02863 7.68293 5.99152 7.72004C5.90138 7.76776 5.82185 7.83669 5.75822 7.91623C5.69459 7.99576 5.66278 8.0859 5.66278 8.17603C5.73171 8.25557 5.81654 8.30859 5.90668 8.3457C5.81654 8.44645 5.75292 8.51007 5.72641 8.54719C5.65748 8.63202 5.60445 8.70626 5.57794 8.76988C5.51962 8.88123 5.55673 8.98197 5.68399 9.06681C5.86957 9.14634 6.07635 9.18346 6.30965 9.18346C6.47932 9.18346 6.64899 9.16225 6.81866 9.11983C7.17921 9.01379 7.49205 8.82821 7.75186 8.5684ZM3.37222 8.38812C3.37222 8.38812 3.31919 8.44645 3.28208 8.52068C3.24496 8.59491 3.19724 8.62672 3.13892 8.61082C3.0912 8.5684 3.05939 8.52598 3.04348 8.47826C3.02757 8.43054 3.02227 8.38282 3.02227 8.3351C3.02227 8.27678 3.03287 8.18664 3.05939 8.06469C3.0859 7.94274 3.0965 7.8632 3.0965 7.82609C3.04878 7.94804 3.00106 8.06999 2.95334 8.20254C2.90562 8.3351 2.88441 8.45175 2.88441 8.55779C2.88441 8.62672 2.88971 8.70095 2.90562 8.78049C2.92153 8.86002 2.99576 8.89714 3.13892 8.89714C3.20785 8.87063 3.26617 8.8176 3.30859 8.73807C3.35101 8.65854 3.37222 8.54189 3.37222 8.38812ZM16.5217 6.48992C16.3945 6.53234 16.246 6.55355 16.0764 6.55355C15.9491 6.55355 15.8324 6.53234 15.7264 6.49523C15.6204 6.45811 15.5302 6.38918 15.4613 6.29905C15.4825 6.21951 15.5355 6.16119 15.6204 6.11877C15.6363 6.11347 15.6734 6.09756 15.737 6.07635C15.912 6.11877 16.0604 6.17179 16.1824 6.23012C16.3043 6.28844 16.4157 6.37858 16.5217 6.48992ZM10.9544 5.10074C10.8271 4.95758 10.7476 4.87805 10.7211 4.85684C10.631 4.772 10.5355 4.71368 10.4454 4.68717C10.3765 4.65005 10.3075 4.63415 10.2439 4.63415C10.1379 4.63415 10.053 4.66596 9.9894 4.72959C9.97349 4.7667 9.97879 4.80382 10 4.84093C10.0212 4.87805 10.0477 4.91516 10.0742 4.95228C10.2386 5.07953 10.4348 5.14316 10.6681 5.14316C10.7794 5.14316 10.8749 5.12725 10.9544 5.10074ZM3.51007 0.890774C3.47296 0.811241 3.44645 0.752916 3.42524 0.710499C3.40403 0.668081 3.37752 0.636267 3.3404 0.615058L3.28738 0.699894C3.24496 0.768823 3.25557 0.816542 3.31919 0.837751C3.38282 0.85896 3.44645 0.874868 3.51007 0.890774ZM3.11771 0.731708V0.66808C3.11241 0.62036 3.0859 0.593849 3.04348 0.593849C3.00106 0.609756 2.96925 0.620361 2.94804 0.625663C2.94274 0.673383 2.95864 0.705196 2.99576 0.710499C3.03287 0.715801 3.07529 0.726406 3.11771 0.731708ZM7.23224 5.63096C7.09968 5.59385 6.93531 5.56734 6.74443 5.54083C6.55355 5.51432 6.36797 5.49311 6.193 5.4719C6.20891 5.53552 6.24072 5.59915 6.28844 5.66278C6.37858 5.77413 6.47402 5.88547 6.56416 5.99152C6.65429 5.98621 6.77094 5.93319 6.9035 5.84305C7.09438 5.7158 7.20573 5.64687 7.23224 5.63096Z" fill="white"/>
</svg>
