<svg width="20" height="11" viewBox="0 0 20 11" fill="none" xmlns="http://www.w3.org/2000/svg">
<path fill-rule="evenodd" clip-rule="evenodd" d="M19.9872 2.87901C19.8979 2.73017 19.8469 2.64937 19.8341 2.63236C19.8001 2.58558 19.7576 2.5388 19.7108 2.50053C19.7108 2.83223 19.7363 3.35956 19.7831 4.0825C19.8299 4.80544 19.8554 5.34977 19.8554 5.7155C19.8554 6.42994 19.8342 6.95726 19.7959 7.29747C19.7278 7.86306 19.5832 8.35212 19.3579 8.76887C19.4259 8.54348 19.4727 8.30959 19.4939 8.07145C19.5195 7.82905 19.528 7.54412 19.528 7.20816C19.528 6.97001 19.528 6.73187 19.5195 6.49373C19.511 6.25558 19.5067 6.01744 19.4982 5.77929L19.243 1.65426C19.243 1.56071 19.2771 1.45439 19.3451 1.33957C19.3706 1.28428 19.4429 1.18222 19.5577 1.03338C19.7066 1.44163 19.8044 1.71805 19.8554 1.85839C19.949 2.16457 20 2.43249 20 2.66638C20 2.75994 20 2.83223 19.9915 2.87901H19.9872ZM15.1818 0L15.0882 0.13183L13.872 0.561344C13.5998 0.654901 13.3957 0.727195 13.2596 0.773974C13.0087 0.863279 12.8088 0.935572 12.6558 0.999362C12.9279 0.739953 13.3234 0.531575 13.838 0.378482C14.2802 0.255156 14.7268 0.131831 15.1733 0H15.1818ZM15.4455 1.90942C15.3221 2.10079 15.2031 2.29215 15.0882 2.47927C14.9989 2.458 14.8926 2.40697 14.7735 2.32617C14.6247 2.22411 14.5226 2.16457 14.4674 2.14331C14.5567 1.99447 14.6162 1.89241 14.6502 1.83713C14.7183 1.73506 14.7991 1.6415 14.8969 1.5522C15.0074 1.58622 15.0967 1.62875 15.169 1.67552C15.2413 1.7223 15.3349 1.8031 15.4497 1.90942H15.4455ZM16.2024 2.56432C16.1812 2.52179 16.1259 2.47927 16.0408 2.43249C15.9515 2.38571 15.8877 2.34319 15.8452 2.30916C15.7772 2.24112 15.7134 2.2071 15.6496 2.2071C15.5688 2.2071 15.4837 2.28365 15.3944 2.43249C15.2839 2.6111 15.2158 2.71316 15.1818 2.73868C15.2031 2.80672 15.3009 2.88326 15.471 2.96832C15.6453 3.05337 15.7559 3.12141 15.8027 3.16819C15.8792 3.10015 15.9515 3.00659 16.0281 2.88327C16.0621 2.81522 16.1216 2.70891 16.2024 2.56857V2.56432ZM14.2632 1.11418C14.2973 1.16946 14.3143 1.23751 14.3143 1.31831C14.3143 1.40761 14.3015 1.47991 14.2717 1.54369C14.2462 1.60323 14.225 1.65001 14.2122 1.67552C14.1314 1.65001 14.0208 1.67553 13.8848 1.75632C13.804 1.8031 13.7359 1.82862 13.6806 1.82862C13.6253 1.82862 13.5871 1.82011 13.5573 1.80736C13.4978 1.77334 13.4637 1.71805 13.4637 1.64576C13.4637 1.61174 13.4765 1.5607 13.4978 1.49692C13.5233 1.43313 13.5318 1.38635 13.5318 1.36083L13.5531 1.31831H13.5956C13.5956 1.48841 13.6296 1.57346 13.6976 1.57346C13.7912 1.57346 13.8507 1.50542 13.8762 1.36509C13.9018 1.22475 13.94 1.14395 13.9953 1.12694C14.0038 1.16096 13.9953 1.20774 13.9783 1.26302C13.9613 1.32256 13.9528 1.35658 13.9528 1.36934C13.9528 1.42887 13.9868 1.4629 14.0549 1.4714H14.1654C14.1527 1.40336 14.1654 1.32681 14.1952 1.23751C14.208 1.19073 14.2292 1.1482 14.2547 1.11418H14.2632ZM15.0882 2.75569L14.3738 2.41973L13.9741 2.95131C13.9826 3.01935 14.0506 3.08739 14.1782 3.15543C14.2462 3.18945 14.3483 3.24048 14.4844 3.30853C14.5992 3.32979 14.714 3.266 14.8331 3.11291C14.8926 3.03636 14.9777 2.91729 15.0882 2.75569ZM11.8435 2.60259C11.8648 2.66213 11.8563 2.73017 11.818 2.79821C11.7797 2.86625 11.7457 2.93004 11.7117 2.99383C11.5416 3.16394 11.363 3.24899 11.1801 3.24899C11.0908 3.13842 11.0483 3.0236 11.0483 2.90028C11.0483 2.77695 11.0865 2.65363 11.1588 2.52179C11.2354 2.39422 11.3204 2.27514 11.4225 2.16457C11.3757 2.25388 11.3289 2.34744 11.2864 2.4495C11.2439 2.55156 11.2184 2.64512 11.2184 2.73443C11.2184 2.84499 11.2524 2.93429 11.3204 3.01084C11.38 2.99808 11.4438 2.98108 11.5075 2.95981C11.5713 2.93855 11.6266 2.90028 11.6649 2.83649C11.6649 2.77695 11.6181 2.70891 11.5203 2.64087C11.4267 2.57283 11.3757 2.51754 11.3757 2.47927C11.3757 2.43249 11.4182 2.38146 11.499 2.32617C11.5586 2.32617 11.6181 2.36019 11.6734 2.42398C11.7287 2.48777 11.784 2.54731 11.835 2.60259H11.8435ZM8.60727 1.86689C8.62854 1.92643 8.61578 1.99447 8.5775 2.06676C8.53498 2.13906 8.50096 2.20285 8.46694 2.26664C8.43292 2.29215 8.39039 2.29215 8.33936 2.26664C8.28833 2.24112 8.25431 2.2071 8.23304 2.16457C8.21178 2.08377 8.20327 2.00723 8.20327 1.93919C8.20327 1.8031 8.22879 1.66702 8.28407 1.53094C8.3181 1.45014 8.38614 1.31831 8.4882 1.14395C8.47969 1.18647 8.45418 1.27578 8.41165 1.41611C8.36913 1.55645 8.34361 1.66702 8.34361 1.74782C8.34361 1.86264 8.38614 1.96045 8.46694 2.03274L8.61152 1.87114L8.60727 1.86689ZM16.313 7.75675C16.3258 7.85881 16.3045 7.97788 16.2535 8.11397C16.2407 8.13948 16.2109 8.20752 16.1599 8.31809C16.0493 8.31809 15.9303 8.36912 15.8027 8.47118C15.6751 8.57325 15.5688 8.62428 15.488 8.62428C15.4199 8.62428 15.3519 8.60727 15.2796 8.569C15.2073 8.53073 15.118 8.51371 15.0074 8.51371C14.8161 8.51371 14.5907 8.62003 14.3355 8.82841C13.9613 9.1346 13.7444 9.3047 13.6806 9.33872L13.0257 9.65341C12.9109 9.70869 12.7918 9.75547 12.6685 9.78949C12.5452 9.82777 12.4304 9.84478 12.3198 9.84478C12.4984 9.80225 12.677 9.73421 12.8641 9.64065C13.0512 9.54709 13.3277 9.35998 13.6976 9.08782C14.1824 8.72635 14.4589 8.52222 14.5354 8.47544C14.6842 8.38188 14.8671 8.27982 15.0882 8.17776C15.1435 8.165 15.2456 8.19902 15.3944 8.27982C15.4752 8.32234 15.539 8.33936 15.5773 8.33936C15.6453 8.33936 15.6879 8.29683 15.7049 8.20753C15.7219 8.11822 15.7346 8.05444 15.7474 8.01191C15.7559 7.96938 15.7814 7.95237 15.8239 7.95237C15.8367 7.96512 15.8452 8.0034 15.8452 8.05868C15.8452 8.11397 15.8707 8.15224 15.9175 8.165C15.9983 8.15224 16.0748 8.12247 16.1429 8.07995C16.2109 8.03742 16.2492 7.96938 16.2535 7.88007C16.2407 7.81203 16.262 7.76951 16.313 7.74824V7.75675ZM8.30108 2.77695C8.30108 2.92579 8.25856 3.00234 8.17776 3.00234C8.1565 3.00234 8.13098 2.99383 8.09696 2.97257H8.01616C7.97363 3.02785 7.9226 3.16819 7.86307 3.38932C7.80353 3.61046 7.72273 3.7508 7.62917 3.79758C7.56113 3.61471 7.50585 3.47863 7.46757 3.38932C7.39103 3.22772 7.28046 3.14267 7.13162 3.14267C7.1061 3.10865 7.08909 3.06613 7.08909 3.01935C7.08909 2.97682 7.0976 2.93855 7.11035 2.89602C7.12311 2.8535 7.13587 2.81522 7.15288 2.7727C7.1784 2.75994 7.20391 2.74718 7.22518 2.73868C7.24644 2.73017 7.26345 2.73442 7.27621 2.75569C7.35275 2.81522 7.4208 2.91303 7.48458 3.04061C7.54837 3.16819 7.62067 3.30853 7.70572 3.45737C7.73974 3.42335 7.79077 3.28726 7.85456 3.05337C7.91835 2.81948 8.0034 2.7004 8.10546 2.7004C8.165 2.7004 8.23304 2.72592 8.30959 2.7727L8.30108 2.77695ZM8.52647 4.40995C8.50096 4.53328 8.47544 4.63534 8.45418 4.71614C8.43291 4.79694 8.38188 4.85222 8.30108 4.87774C8.25856 4.88624 8.22454 4.87774 8.19052 4.85222C8.1565 4.8267 8.12673 4.77568 8.09696 4.69488C8.0842 4.58431 8.0757 4.50351 8.0757 4.44822C8.0757 4.23559 8.12673 4.04848 8.22879 3.88688C8.22879 3.93366 8.22454 4.0102 8.21178 4.11226C8.20327 4.21433 8.19477 4.26961 8.19477 4.27387C8.19477 4.35467 8.20327 4.42271 8.22029 4.47374C8.2373 4.52477 8.27132 4.5758 8.3266 4.62258C8.36913 4.61408 8.40315 4.58856 8.42866 4.54178C8.43717 4.53328 8.45418 4.49075 8.47969 4.40995H8.52222H8.52647ZM18.1714 2.64512C18.1118 2.36019 18.0268 2.06251 17.9162 1.75632C17.8609 1.59898 17.7546 1.3098 17.5888 0.888793C17.508 0.944077 17.4272 1.04189 17.3421 1.17797C17.2613 1.31831 17.2145 1.3906 17.2103 1.3991C17.2103 1.65851 17.2953 2.4495 17.4654 3.77631C17.5335 4.30789 17.5675 4.79268 17.5675 5.23495C17.4867 5.30299 17.4059 5.34978 17.3336 5.37104C17.2571 5.39655 17.172 5.40506 17.07 5.40506C16.9934 5.40506 16.9254 5.40506 16.8658 5.39655C16.8063 5.38805 16.7425 5.37955 16.683 5.36679C16.6277 5.34127 16.5299 5.29449 16.3853 5.23495C16.2747 5.17542 16.2237 5.10312 16.2237 5.02232C16.2237 4.97554 16.2407 4.92451 16.2747 4.86923C16.1471 5.03933 16.0196 5.20519 15.8962 5.37104C15.7346 5.56666 15.5518 5.66872 15.3562 5.66872C15.1946 5.66872 15.0542 5.59217 14.9394 5.43483C14.9139 5.4008 14.8969 5.35828 14.8969 5.303C14.8969 5.25622 14.9096 5.19243 14.9394 5.10738C14.9649 5.02658 14.9819 4.96279 14.9819 4.92451C14.8458 5.07336 14.7098 5.2222 14.5737 5.36253C14.2802 5.66872 14.0038 5.82181 13.7487 5.82181C13.6594 5.82181 13.5786 5.80906 13.502 5.77929C13.2426 5.66447 13.0342 5.37529 12.8811 4.91176C12.7876 4.63108 12.7025 4.43972 12.626 4.32915C12.5452 4.30364 12.4686 4.28662 12.4006 4.28662C12.3666 4.28662 12.273 4.29513 12.1242 4.30789C11.7287 4.50351 11.4353 4.8182 11.2481 5.24772C11.0908 5.60068 11.0142 6.03019 11.0142 6.532C10.8101 6.65532 10.572 6.71486 10.2998 6.71486C9.93408 6.71486 9.60663 6.62555 9.32171 6.4512C9.33022 6.40867 9.34297 6.34914 9.36424 6.26834C9.36424 6.24282 9.35573 6.2088 9.33447 6.17478C9.30895 6.19604 9.19413 6.32362 8.99851 6.56177C8.92196 6.65107 8.84542 6.71486 8.76887 6.76164C8.69232 6.80417 8.60302 6.82968 8.50946 6.82968C8.33936 6.82968 8.19052 6.7744 8.05869 6.66808C7.98214 6.62556 7.94812 6.56602 7.94812 6.48522C7.94812 6.44269 7.96513 6.3789 7.9949 6.28535C8.02466 6.19179 8.03742 6.13226 8.02892 6.09824C7.84606 6.29386 7.66319 6.44695 7.48458 6.54901C7.30598 6.65107 7.10185 6.70211 6.87646 6.70211C6.80842 6.70211 6.75739 6.7021 6.72337 6.6936C6.49798 6.6936 6.31087 6.58728 6.16202 6.3789C6.05996 6.23006 5.97491 6.03019 5.90687 5.78779C5.80481 5.8771 5.73251 5.97066 5.69424 6.06847C5.65171 6.16628 5.6347 6.26834 5.6347 6.3704C5.6347 6.42994 5.6347 6.48522 5.64321 6.532C5.65171 6.57878 5.66022 6.62555 5.67298 6.67659C5.7155 6.83818 5.75803 7.01254 5.80906 7.1954C5.86009 7.37827 5.88561 7.53136 5.88561 7.65469C5.5454 8.0034 5.12014 8.29257 4.60982 8.53072C4.26962 8.68807 3.78907 8.86242 3.17244 9.04954C2.91303 9.09207 2.65363 9.10908 2.38571 9.10908C1.99022 9.10908 1.64151 9.0538 1.33532 8.94748C0.982352 8.8199 0.697427 8.61578 0.476292 8.34361C0.365724 8.13098 0.314693 7.90984 0.314693 7.6802C0.314693 7.41654 0.39124 7.1061 0.548586 6.75314C0.591112 6.65958 0.727195 6.38316 0.965341 5.92813C0.990857 5.92813 1.03764 5.93663 1.09717 5.95364C1.15671 5.97065 1.20774 5.97066 1.24176 5.94939C1.42037 5.82182 1.5437 5.66022 1.62024 5.4646C1.69679 5.26898 1.73081 5.05209 1.73081 4.80544C1.67553 4.83096 1.62875 4.899 1.58197 5.00531C1.53944 5.11163 1.49692 5.17542 1.45864 5.20094C1.42037 5.22645 1.38635 5.23495 1.35233 5.23495C1.29704 5.23495 1.25027 5.2222 1.20349 5.19243C1.16096 5.16691 1.11418 5.12014 1.0674 5.0606C0.965341 4.86498 0.91431 4.64384 0.91431 4.4057C0.91431 4.15479 0.978099 3.84861 1.10993 3.48713C1.21199 3.22347 1.31831 2.95556 1.42462 2.6919C1.15246 3.10015 0.956836 3.44461 0.842016 3.72103C0.663406 4.13778 0.578354 4.52052 0.578354 4.87348C0.578354 5.22645 0.663406 5.53689 0.833511 5.82181C0.548586 6.36615 0.348714 6.80417 0.238146 7.14012C0.127578 7.47183 0.0510313 7.77801 0.0085052 8.05018C-7.92109e-09 8.09696 0 8.16925 0 8.26281C0 8.78163 0.208378 9.17287 0.62088 9.44503C0.850521 9.58962 1.09292 9.69168 1.33957 9.75547C1.58622 9.81926 1.84988 9.85328 2.13055 9.85328C2.41123 9.85328 2.67489 9.82777 2.96832 9.77249C3.34255 9.69594 3.72528 9.57686 4.11227 9.41526C4.49926 9.25366 4.85647 9.06655 5.18393 8.85392C5.4646 8.71784 5.70274 8.50521 5.89836 8.21178C6.05996 7.96087 6.18329 7.6717 6.26409 7.34425C6.37891 7.36976 6.51499 7.38678 6.67234 7.38678C6.87646 7.38678 7.06358 7.35275 7.23793 7.28896C7.41229 7.22517 7.55688 7.12311 7.6717 6.98703C7.6717 7.16989 7.73974 7.31023 7.87582 7.40378C7.95662 7.44631 8.03742 7.48033 8.11397 7.50585C8.19052 7.53136 8.26706 7.54837 8.34361 7.54837C8.47969 7.54837 8.61578 7.50159 8.75186 7.40378C8.80714 7.20816 8.88369 7.1061 8.98575 7.1061C9.03253 7.1061 9.10908 7.13587 9.21114 7.19966C9.40676 7.32299 9.54285 7.38252 9.61939 7.38252C9.64491 7.38252 9.67893 7.37401 9.72145 7.36125C9.82352 7.38252 9.92558 7.39103 10.0276 7.39103C10.1637 7.39103 10.3636 7.36126 10.623 7.30598C10.8867 7.24644 11.0483 7.21242 11.1163 7.19966C11.1588 7.31448 11.2354 7.51435 11.3502 7.80353C11.5331 8.22028 11.7925 8.42441 12.1242 8.42441C12.3368 8.1735 12.4942 7.94386 12.6047 7.73974C12.7621 7.45481 12.8386 7.19541 12.8386 6.96577C12.8386 6.78716 12.8003 6.62981 12.728 6.48522C12.6005 6.36189 12.4346 6.30236 12.239 6.30236C11.9668 6.34489 11.6989 6.38316 11.431 6.42568C11.397 6.33213 11.3757 6.23857 11.363 6.14501C11.3502 6.05145 11.346 5.93664 11.346 5.79205V5.3923C11.4055 5.3115 11.4863 5.2307 11.5841 5.14565C11.6819 5.06485 11.7755 5.00957 11.8648 4.98405C11.9456 4.97129 12.0094 4.96279 12.0604 4.96279C12.205 4.96279 12.307 5.00106 12.3666 5.07336C12.6132 5.72826 12.7833 6.11099 12.8769 6.22581C13.047 6.42993 13.2596 6.532 13.519 6.532C13.7359 6.532 13.9443 6.45545 14.1399 6.30661C14.2845 6.19604 14.4376 6.03445 14.5992 5.81756C14.6077 5.84308 14.6119 5.87285 14.6205 5.89836C14.6205 6.00893 14.6672 6.11099 14.765 6.20455C14.8246 6.26409 14.9181 6.32787 15.0415 6.38741C15.0755 6.40017 15.1308 6.40868 15.2031 6.40868C15.3647 6.40868 15.5305 6.33213 15.6921 6.18329C15.7729 6.10674 15.8877 5.97065 16.0408 5.77503C16.1174 5.8771 16.2067 5.95365 16.3172 6.00893C16.3725 6.03445 16.4831 6.07697 16.6532 6.13225C16.7297 6.15352 16.7978 6.16202 16.8658 6.16202C16.9934 6.16202 17.1125 6.14076 17.2145 6.10249C17.3166 6.05996 17.4272 6.00042 17.5505 5.91962C17.6866 5.7155 17.7801 5.50287 17.8354 5.28173C17.8907 5.0606 17.9162 4.80544 17.9162 4.51201C17.9162 4.30789 17.895 4.02721 17.8567 3.66574C17.7759 2.9428 17.7334 2.49203 17.7334 2.30916C17.7801 2.33468 17.8524 2.40272 17.946 2.50478C18.0225 2.58558 18.0948 2.63236 18.1714 2.64937V2.64512ZM5.12864 1.4799C5.12014 1.51393 5.10313 1.53094 5.06911 1.53094C5.01382 1.51818 4.9798 1.50967 4.96704 1.50967C4.95428 1.50967 4.93302 1.50117 4.90751 1.48841C4.85222 1.45439 4.81395 1.46289 4.79694 1.50967C4.7374 1.61174 4.69913 1.8031 4.68637 2.07952C4.67361 2.3602 4.63959 2.56007 4.58431 2.68339C4.66085 2.69615 4.7289 2.72592 4.79694 2.77695C4.86498 2.82373 4.97129 2.92579 5.11163 3.08314C5.11163 3.26175 4.95003 3.36381 4.62683 3.38932C4.30364 3.41484 4.12077 3.52541 4.0825 3.71678C4.10802 3.92941 4.16755 4.21433 4.25686 4.58005C4.34616 4.94578 4.4057 5.21795 4.43547 5.40506C4.46524 5.59218 4.48225 5.77078 4.48225 5.94089C4.48225 6.14501 4.46098 6.33213 4.4142 6.50648C4.37168 6.68084 4.29513 6.85095 4.19307 7.02105C4.32915 6.74888 4.39719 6.46396 4.39719 6.16202C4.39719 6.01318 4.38869 5.88135 4.36742 5.77503C4.34616 5.66447 4.30789 5.49011 4.25686 5.24346C4.18031 4.92877 4.12928 4.69912 4.09526 4.55028C4.02722 4.2526 3.9932 4.01446 3.9932 3.84435C3.9932 3.70827 4.00595 3.58069 4.03572 3.45737C4.06124 3.33404 4.1633 3.24474 4.3334 3.1937C4.48225 3.15968 4.63109 3.12141 4.78418 3.08314C4.70763 3.00659 4.62258 2.97257 4.52052 2.97257C4.46098 2.97257 4.40995 2.98533 4.37593 3.0151C4.32065 3.07038 4.28663 3.09164 4.27387 3.08739C4.27387 2.99808 4.29513 2.91729 4.34191 2.84924C4.38444 2.77695 4.44822 2.72592 4.52902 2.6919C4.50351 2.65788 4.42696 2.50478 4.30364 2.23262C4.21433 2.037 4.10802 1.93493 3.98894 1.93493C3.97619 1.93493 3.94216 1.94344 3.88688 1.9562C3.78482 1.91367 3.73379 1.84563 3.73379 1.74357C3.73379 1.70104 3.74229 1.66277 3.76356 1.62024C3.78907 1.49692 3.8316 1.41186 3.88688 1.36509C4.01021 1.40761 4.11652 1.49266 4.20157 1.62875C4.31639 1.84563 4.43121 2.06251 4.55029 2.27089C4.60982 1.80736 4.64384 1.56496 4.65235 1.54795C4.69913 1.39911 4.78418 1.28003 4.90751 1.19073C4.96279 1.21199 5.01807 1.23325 5.08186 1.26302C5.1414 1.28854 5.17542 1.33106 5.17542 1.38635C5.17542 1.41186 5.16691 1.44589 5.14565 1.48841L5.12864 1.4799ZM9.88305 8.37763C9.83628 8.58175 9.72145 8.7306 9.5471 8.82841C9.50457 8.80715 9.4663 8.79864 9.42377 8.79864C9.36424 8.79864 9.29194 8.8199 9.21114 8.85817C9.02828 8.95173 8.91771 9.00276 8.88369 9.00276C8.79013 9.00276 8.70508 8.94323 8.63704 8.82841C8.41165 8.87093 8.18201 8.96449 7.94387 9.11333C7.8418 9.18137 7.63343 9.33447 7.32299 9.57261C7.04231 9.7895 6.83394 9.93834 6.68935 10.0106C6.4427 10.1382 6.2003 10.2062 5.95365 10.2062C6.17053 10.1382 6.40017 10.0276 6.63832 9.8788C6.76589 9.798 6.98703 9.6364 7.30172 9.39826C7.61642 9.16011 7.82054 9.00702 7.9226 8.93897C8.15224 8.77738 8.38188 8.6583 8.60727 8.59026C8.68382 8.56899 8.76887 8.59026 8.87093 8.6583C8.973 8.72209 9.04529 8.75611 9.08356 8.75611C9.11759 8.75611 9.16011 8.73485 9.21539 8.69657C9.23666 8.63704 9.26217 8.57325 9.29194 8.51371C9.32171 8.45418 9.36849 8.42015 9.42803 8.41165C9.43653 8.42441 9.42803 8.46268 9.40676 8.51796C9.3855 8.5775 9.39826 8.60727 9.44929 8.61578C9.53859 8.63704 9.62364 8.61578 9.70444 8.55624C9.78524 8.46694 9.84478 8.41165 9.8788 8.38188L9.88305 8.37763ZM2.61535 6.34488C2.61535 6.52349 2.55582 6.67234 2.43249 6.79566C2.2879 6.79566 2.20285 6.70635 2.17733 6.532C2.17733 6.35339 2.1986 6.19179 2.24538 6.0472C2.2879 5.90261 2.3602 5.74101 2.45375 5.5624C2.45375 5.63045 2.42824 5.74101 2.37721 5.89411C2.32617 6.0472 2.30066 6.15777 2.30066 6.22581C2.30066 6.34063 2.33893 6.43845 2.41123 6.5235C2.44525 6.51499 2.50053 6.45971 2.57283 6.34914H2.61535V6.34488ZM12.4942 7.56963C12.4474 7.64618 12.3878 7.6802 12.3198 7.6802C12.2603 7.67169 12.1965 7.66319 12.1369 7.65043C12.0136 7.59515 11.9073 7.50585 11.8222 7.37402C11.7755 7.29747 11.7117 7.17414 11.6394 6.99553H11.9966C12.0434 6.99553 12.0987 7.00404 12.1667 7.01679C12.2305 7.02955 12.2773 7.05082 12.3028 7.07633C12.3836 7.14437 12.4389 7.21242 12.4601 7.28046C12.4856 7.3485 12.4942 7.44206 12.4942 7.56538V7.56963Z" fill="white"/>
</svg>
