<svg width="20" height="12" viewBox="0 0 20 12" fill="none" xmlns="http://www.w3.org/2000/svg">
<path fill-rule="evenodd" clip-rule="evenodd" d="M19.9904 6.47399C19.9904 6.97495 19.9615 7.40848 19.9085 7.77938C19.8555 8.15029 19.7399 8.5212 19.5617 8.90174C19.6002 8.75723 19.6291 8.59827 19.6435 8.42967C19.658 8.26108 19.6676 8.09249 19.6676 7.91908C19.6676 7.52409 19.6291 7.09056 19.552 6.61368C19.3593 5.41908 19.263 4.68208 19.263 4.40752C19.1956 3.81985 19.1137 3.23218 19.0222 2.63969C18.9306 2.04721 18.8391 1.45472 18.7428 0.857421C18.7958 0.674377 18.8536 0.5106 18.9114 0.375726C18.9692 0.240851 19.0462 0.125241 19.1474 0.0337185C19.4027 0.804431 19.658 1.57033 19.9229 2.33623C19.7977 2.18208 19.6821 2.02312 19.5665 1.86416L19.4412 2.03757C19.4412 2.5289 19.5328 3.27071 19.7206 4.25819C19.9037 5.24567 20 5.98266 20 6.47881L19.9904 6.47399ZM14.8459 3.14548C14.8459 3.24663 14.8362 3.32852 14.817 3.40077C14.7977 3.46821 14.7543 3.54047 14.6821 3.6079C14.6339 3.61754 14.5857 3.59345 14.5328 3.54047C14.5231 3.52601 14.4894 3.47784 14.4268 3.40077C14.4171 3.34779 14.4171 3.2659 14.4171 3.15993C14.4171 2.79865 14.5231 2.44702 14.7399 2.10983C14.7399 2.1869 14.711 2.31214 14.6484 2.49037C14.5857 2.6686 14.5568 2.80829 14.5568 2.90463C14.5568 3.04914 14.6098 3.17438 14.7206 3.27553L14.8459 3.15029V3.14548ZM13.8632 1.26204C13.8632 1.33912 13.8632 1.44027 13.8728 1.5607C13.8825 1.68594 13.8825 1.76782 13.8825 1.81599C13.8825 1.91715 13.8776 1.9894 13.8632 2.03757C13.8536 2.08574 13.8247 2.158 13.7765 2.25915C13.7476 2.25915 13.7187 2.24952 13.6946 2.22543C13.6705 2.20135 13.6464 2.17727 13.6272 2.14355C13.4056 2.49037 13.0491 2.82755 12.5626 3.15029C12.1532 3.42967 11.7437 3.69942 11.3391 3.96917C11.4451 3.84393 11.9075 3.46821 12.7264 2.83719C13.0588 2.58189 13.3141 2.32659 13.4875 2.07611C13.473 2.05203 13.3719 1.97014 13.1888 1.83526C13.0443 1.72929 12.9672 1.62813 12.9672 1.53661C12.9672 1.46917 13.025 1.3921 13.1407 1.3054C13.2033 1.23796 13.2755 1.17534 13.3671 1.12235C13.4538 1.06937 13.5405 1.04046 13.6175 1.04046C13.7476 1.04046 13.8295 1.11753 13.8584 1.27168L13.8632 1.26204ZM11.4451 0.370908C11.0308 0.476881 10.5973 0.60212 10.1541 0.741812C9.71098 0.881503 9.27746 1.0212 8.85357 1.15607C8.62235 1.23314 8.26108 1.34875 7.76493 1.50289C7.50482 1.59441 7.29287 1.68112 7.13873 1.75819C6.85453 1.92197 6.62813 2.12428 6.46917 2.36995C6.87861 2.15318 7.36031 1.94124 7.91426 1.73411C8.34778 1.57033 8.84393 1.40655 9.40751 1.23796C10.2457 0.982659 10.7466 0.828517 10.9008 0.77553C11.026 0.761079 11.1272 0.717729 11.2139 0.650292C11.3006 0.582855 11.3776 0.486515 11.4451 0.370908ZM12.553 5.05299C12.4374 5.1686 12.3603 5.38054 12.317 5.68883C12.2736 5.99711 12.2206 6.19942 12.1628 6.30058C12.0857 6.22351 11.9846 6.01638 11.8642 5.67438C11.8015 5.50578 11.7341 5.37573 11.657 5.27939C11.6474 5.34682 11.6137 5.38536 11.5511 5.38536C11.4499 5.35645 11.3825 5.33719 11.3439 5.32756C11.2909 5.27939 11.262 5.22158 11.262 5.15414C11.262 5.10116 11.2717 5.04817 11.2861 5.00482C11.3006 4.95665 11.3247 4.90366 11.3487 4.83622C11.3776 4.76879 11.4355 4.73989 11.527 4.73989C11.5751 4.73989 11.6137 4.75434 11.6522 4.78805C11.7437 4.90366 11.8353 5.05781 11.9171 5.2553C12.0039 5.4528 12.0809 5.64066 12.158 5.81407C12.1821 5.7659 12.2351 5.57322 12.3121 5.23121C12.394 4.88921 12.5723 4.7158 12.8516 4.7158C12.9287 4.73988 12.9672 4.77842 12.9672 4.83141C12.9383 4.93257 12.9191 5.00482 12.9094 5.05299C12.8805 5.06744 12.8324 5.06744 12.7649 5.04817C12.6975 5.0289 12.659 5.01927 12.6445 5.01927C12.6204 5.01927 12.5915 5.0289 12.553 5.05299ZM9.46532 3.21291C9.46532 3.33815 9.43642 3.45376 9.3738 3.56937C9.31118 3.68497 9.22929 3.78131 9.13295 3.85838C9.04624 3.88247 8.98362 3.85838 8.94027 3.78131C8.89692 3.70906 8.85838 3.6368 8.81985 3.56937C8.81985 3.34779 8.84393 3.15511 8.89692 2.99133C8.94509 2.82756 9.0896 2.52409 9.33044 2.07611C9.21484 2.43257 9.10405 2.77939 8.99326 3.12621C8.99326 3.25626 9.04143 3.38632 9.13295 3.5212C9.20039 3.5212 9.26301 3.48266 9.31599 3.40559C9.40751 3.28035 9.4605 3.21773 9.46532 3.20809V3.21291ZM15.4094 9.91811C15.4239 10.0096 15.3902 10.1204 15.3035 10.2553C15.2649 10.3179 15.2168 10.3805 15.1541 10.4528C15.0674 10.4383 15.0048 10.3998 14.9566 10.3372C14.947 10.3227 14.9277 10.2794 14.8892 10.2119C14.8892 10.0289 14.9326 9.83141 15.0145 9.62428C15.1301 9.38343 15.2168 9.21002 15.2697 9.09441C15.2842 9.17149 15.2553 9.30154 15.183 9.47977C15.1108 9.66281 15.0723 9.78806 15.0723 9.85549C15.0723 9.98073 15.1397 10.0674 15.2697 10.1204L15.4094 9.92293V9.91811ZM7.30732 0.149328L7.10983 0.472063C6.11753 0.818884 5.5395 1.02119 5.37572 1.08381C4.73507 1.32466 4.17148 1.57033 3.67534 1.82563C3.86802 1.6185 4.07514 1.44991 4.30154 1.31503C4.63391 1.1079 5.12042 0.895956 5.77071 0.679192C6.60886 0.399809 7.12428 0.226399 7.30732 0.149328ZM18.6272 6.20906C18.4875 5.95376 18.2707 5.80925 17.9672 5.77071C17.341 5.64547 16.8979 5.2553 16.6281 4.59056C16.527 4.34971 16.3873 3.74278 16.1994 2.76494C16.1994 2.74085 16.1705 2.58189 16.1175 2.27842C16.1031 2.19172 16.0934 2.10019 16.0934 1.99904C16.0934 1.84489 16.1272 1.71965 16.1994 1.6185C16.2476 1.68112 16.3102 1.77264 16.3969 1.9027C16.4836 2.02794 16.5462 2.11465 16.5944 2.16282C16.5077 1.80154 16.3825 1.42582 16.2139 1.04046C16.1127 0.818884 15.9393 0.472062 15.6936 0C15.5877 0.139692 15.501 0.308288 15.4383 0.5106C15.4143 0.578037 15.3902 0.688826 15.3565 0.833335C15.6118 2.13391 15.8671 3.43449 16.1175 4.73025C16.1272 4.79769 16.1416 4.89403 16.1657 5.00963C16.1657 5.10116 16.0983 5.14933 15.9682 5.14933C15.7081 5.28902 15.4865 5.45279 15.3131 5.64547C15.1397 5.83815 14.9904 6.05973 14.8699 6.31503C14.6773 6.71002 14.5809 7.14355 14.5809 7.62042V7.74567C14.5809 7.79865 14.5809 7.85164 14.5906 7.89499C13.6561 8.15511 12.6927 8.28998 11.7004 8.28998C11.0453 8.28998 10.4143 8.237 9.8025 8.12621C9.19557 8.02023 8.61753 7.85645 8.07803 7.63969C8.02505 7.59152 7.80829 7.49518 7.43256 7.35068C7.17726 7.24952 7.05202 7.10983 7.05202 6.93642C7.05202 6.88825 7.05202 6.84971 7.06166 6.82081C7.00867 6.84971 6.9605 6.92678 6.92197 7.04721C6.88343 7.16763 6.84971 7.2447 6.81599 7.28324C6.40173 7.33622 5.98266 7.45665 5.5684 7.63969C5.20713 7.80347 4.83622 8.01542 4.4605 8.28517C4.2052 8.46339 3.94027 8.67052 3.67052 8.90174C3.39595 9.13777 3.13102 9.36898 2.88054 9.60019C2.40366 10.0385 1.83044 10.4383 1.17052 10.8044C1.079 10.8189 1.00674 10.8285 0.94894 10.8285C0.669557 10.8285 0.467245 10.7177 0.337187 10.4913C0.274566 10.3468 0.245665 10.2119 0.245665 10.0867C0.245665 9.87958 0.33237 9.61946 0.500963 9.31118C0.708092 8.92582 0.828516 8.68497 0.857418 8.59345C0.61657 8.93064 0.457611 9.17148 0.370906 9.31118C0.207129 9.59056 0.096339 9.85549 0.0337185 10.1108C0.00963376 10.2168 0 10.3276 0 10.4335C0 10.6021 0.0289018 10.7611 0.0915222 10.9152C0.154143 11.0645 0.255299 11.185 0.390173 11.2669C0.520231 11.3198 0.659923 11.3488 0.804431 11.3488C0.905587 11.3488 0.977842 11.3487 1.02601 11.3391C1.07418 11.3295 1.14162 11.315 1.23314 11.2909C1.57996 11.1127 1.9894 10.8478 2.45665 10.4913C2.842 10.183 3.23218 9.87476 3.62235 9.56647C4.07033 9.21965 4.47014 8.94027 4.82659 8.73314C5.12042 8.56455 5.42389 8.42486 5.73218 8.3237C6.04046 8.22255 6.3632 8.15029 6.68594 8.12139C6.83044 8.57418 6.98459 8.93545 7.14836 9.19557C7.37958 9.57129 7.66859 9.86031 8.01541 10.053C8.15992 9.87476 8.28035 9.64836 8.36705 9.37861C8.45376 9.10405 8.50193 8.82466 8.50193 8.54046C8.91137 8.75723 9.34971 8.91137 9.82177 9.00771C10.2938 9.10405 10.79 9.15222 11.315 9.15222C11.9557 9.15222 12.606 9.0896 13.2755 8.95954C13.9403 8.8343 14.605 8.66571 15.2697 8.45858C15.4383 8.53565 15.6118 8.58863 15.7852 8.62235C15.9586 8.65125 16.1368 8.67052 16.3247 8.67052C16.6618 8.67052 17.0039 8.61753 17.341 8.51638C17.6782 8.4104 17.9961 8.27553 18.29 8.10694C18.5694 7.70713 18.7042 7.25434 18.7042 6.75337C18.7042 6.55106 18.6753 6.37283 18.6224 6.20906H18.6272ZM8.92582 6.03565C8.9499 6.12717 8.94027 6.23314 8.89692 6.34875C8.85357 6.46435 8.78613 6.55106 8.69461 6.61368C8.62717 6.63777 8.56455 6.63777 8.51156 6.61368C8.4104 6.56551 8.36224 6.48844 8.36224 6.38247C8.3526 6.31985 8.3526 6.2765 8.3526 6.24278C8.3526 6.079 8.39114 5.90559 8.46821 5.72255C8.52119 5.59249 8.6079 5.43353 8.72351 5.25048C8.65607 5.49615 8.58863 5.74181 8.52601 5.97784C8.52601 6.10308 8.56936 6.20906 8.65125 6.30058C8.72832 6.31503 8.79094 6.29095 8.8343 6.21869C8.88247 6.12717 8.91137 6.06455 8.92582 6.03565ZM6.04528 3.8632C6.01638 3.99326 5.95857 4.12332 5.87669 4.25819C5.7948 4.38825 5.69846 4.51831 5.58285 4.63873C5.32274 4.52312 5.07225 4.37861 4.84104 4.20039C4.89403 4.03179 4.96146 3.87765 5.04335 3.73796C5.12524 3.59827 5.2264 3.47784 5.35164 3.36705C5.55877 3.45858 5.71291 3.54528 5.81407 3.62235C5.87669 3.67052 5.95376 3.74759 6.04528 3.8632ZM2.91426 1.6185C2.76975 1.83526 2.62042 2.04721 2.47592 2.25434C2.29287 2.16763 2.16763 2.10983 2.10501 2.07129C1.97977 2.00385 1.8738 1.92197 1.78227 1.83044C1.75337 1.85935 1.69557 1.94605 1.60886 2.08574C1.47881 2.29287 1.36802 2.39885 1.27168 2.39885C1.24759 2.39885 1.21387 2.38921 1.1657 2.37476L0.693642 2.10983L0.90077 1.69557C1.00193 1.52698 1.11272 1.43064 1.23796 1.40655C1.37765 1.46917 1.47881 1.51253 1.55106 1.54625C1.68112 1.60887 1.78709 1.67149 1.86416 1.72929C1.91233 1.70039 1.97977 1.59441 2.07611 1.421C2.17245 1.24759 2.25915 1.16089 2.33622 1.16089C2.39884 1.16089 2.46146 1.18979 2.51927 1.24278C2.64451 1.31021 2.73121 1.3632 2.7842 1.3921C2.89017 1.45954 2.93353 1.53661 2.90944 1.62332L2.91426 1.6185ZM4.59056 6.3343C4.57611 6.43545 4.56166 6.53179 4.54239 6.62331C4.51349 6.72929 4.45568 6.816 4.37861 6.87862C4.30154 6.87862 4.24374 6.84971 4.20039 6.79672C4.15703 6.74374 4.12331 6.67148 4.0896 6.5896C4.0896 6.07418 4.21484 5.60212 4.4605 5.17823C4.40751 5.32274 4.35453 5.4817 4.29672 5.64547C4.24374 5.80925 4.21484 5.95376 4.21484 6.06937C4.21484 6.25241 4.26782 6.41619 4.37861 6.55588C4.4316 6.55588 4.47013 6.52216 4.4894 6.45954C4.50867 6.3921 4.54239 6.35357 4.58574 6.33912L4.59056 6.3343ZM2.91426 6.17052V6.40173C2.91426 6.73892 2.88536 7.00867 2.83237 7.20135C2.7553 7.4711 2.61079 7.67341 2.39403 7.8131C1.9316 8.12139 1.66185 8.2948 1.58478 8.33333C1.38247 8.43449 1.19942 8.48266 1.03083 8.48266C0.828516 8.48266 0.645472 8.41522 0.476878 8.27553C0.409441 8.05395 0.370906 7.83237 0.370906 7.61561C0.370906 7.25434 0.457611 6.87861 0.626204 6.49326C0.770713 6.16089 0.982659 5.83333 1.26204 5.5106C0.992293 5.17341 0.828516 4.96628 0.77553 4.89885C0.621387 4.69653 0.481696 4.4894 0.361272 4.27264C0.399807 4.07996 0.433526 3.92582 0.467245 3.81021C0.496146 3.69461 0.544316 3.56936 0.606936 3.43931C0.746628 3.52601 0.891136 3.61272 1.04046 3.69942C1.18979 3.78613 1.31021 3.88247 1.40655 3.98362C1.38247 4.03179 1.34875 4.07033 1.30058 4.10887C1.25241 4.1474 1.21387 4.16667 1.17534 4.16667C1.21387 4.27264 1.28613 4.38825 1.39692 4.51349C1.45954 4.58093 1.57033 4.69172 1.7341 4.83622C1.96532 4.62909 2.1869 4.36416 2.39403 4.05106C2.4711 3.94509 2.63969 3.66089 2.90462 3.20809C2.82755 3.59345 2.7264 3.94027 2.60597 4.25337C2.48073 4.56647 2.31214 4.86994 2.09538 5.17341C2.31696 5.38054 2.48073 5.53468 2.58189 5.63584C2.77457 5.81888 2.89017 5.99711 2.92871 6.1657L2.91426 6.17052ZM6.79672 9.55684C6.82081 9.64355 6.81117 9.72062 6.77264 9.79769C6.72447 9.86031 6.68594 9.92293 6.6474 9.99518C6.60886 10.0241 6.56551 10.0434 6.52216 10.0434C6.48362 10.0434 6.421 10.0193 6.33911 9.97592C6.25241 9.92775 6.19461 9.90848 6.1657 9.90848C6.09827 9.90848 6.04528 9.96628 6.01638 10.0819C5.80925 10.3902 5.42389 10.6503 4.86031 10.8574C4.36898 11.0405 4.09923 11.1416 4.06069 11.1561C4.21484 11.0501 4.45568 10.9056 4.78805 10.7274C5.37572 10.4191 5.76108 10.1445 5.95376 9.90848C5.93931 9.84586 5.95376 9.77842 5.98748 9.70135C5.99711 9.6869 6.079 9.56647 6.24277 9.34489C6.3054 9.27746 6.36802 9.23892 6.44027 9.23892C6.51734 9.23892 6.5896 9.27264 6.66185 9.33526C6.72929 9.4027 6.77746 9.47495 6.80154 9.56166L6.79672 9.55684ZM13.685 1.71965L13.6513 1.54625C13.6513 1.49326 13.632 1.4499 13.5886 1.41137C13.5453 1.37765 13.4923 1.35838 13.4345 1.35838C13.3671 1.35838 13.3189 1.38729 13.2948 1.44027C13.343 1.50289 13.4008 1.55588 13.473 1.59441C13.5453 1.63777 13.6175 1.6763 13.685 1.71484V1.71965ZM18.3574 7.20135C18.1262 7.37958 17.7794 7.51445 17.317 7.60597C16.9557 7.67341 16.7341 7.72158 16.657 7.74567C16.6715 7.64451 16.7389 7.41329 16.8545 7.05202C16.9461 6.75819 16.9942 6.50771 16.9942 6.30058C17.1002 6.40655 17.3603 6.53661 17.7697 6.68112C18.1021 6.79673 18.2996 6.97014 18.3574 7.20135ZM16.5559 7.05202C16.262 7.22062 16.0838 7.32177 16.026 7.35068C15.8237 7.45183 15.6358 7.51927 15.4576 7.5578C15.2649 7.46628 15.0819 7.30251 14.9133 7.07129C14.9904 6.81599 15.1252 6.5896 15.3179 6.38247C15.5106 6.18015 15.7274 6.03565 15.9634 5.95858C16.079 5.94412 16.185 5.98266 16.2765 6.07418C16.3391 6.1368 16.4017 6.22351 16.4595 6.33912C16.4692 6.37765 16.4884 6.46436 16.5173 6.59441C16.5462 6.72447 16.5655 6.83526 16.5655 6.91715V6.97014C16.5655 6.99904 16.5655 7.02312 16.5559 7.04721V7.05202ZM6.50771 9.66282L6.21869 9.59538C6.24277 9.55684 6.28613 9.53757 6.34393 9.53757C6.43064 9.53757 6.48362 9.56647 6.50771 9.61946V9.66763V9.66282ZM2.55299 6.76301C2.2447 7.0183 2.00385 7.19653 1.83526 7.29287C1.55106 7.45665 1.27649 7.53372 1.01638 7.53372C0.963391 7.53372 0.891137 7.52409 0.794798 7.50964C0.72736 7.40366 0.688825 7.29287 0.688825 7.1869C0.688825 7.00386 0.809248 6.76783 1.04528 6.48363C1.34393 6.12717 1.51734 5.90559 1.56551 5.81407L2.54817 6.76301H2.55299Z" fill="white"/>
</svg>
