<svg width="20" height="11" viewBox="0 0 20 11" fill="none" xmlns="http://www.w3.org/2000/svg">
<path fill-rule="evenodd" clip-rule="evenodd" d="M20 6.82565C20 7.39258 19.9865 7.82002 19.955 8.09899C19.9055 8.55793 19.802 8.94488 19.64 9.25534L19.703 7.78853L18.4612 1.48031C18.4972 1.41732 18.4882 1.33633 18.4297 1.24634C18.3712 1.15636 18.3442 1.09336 18.3442 1.05737C18.3802 1.00787 18.4387 0.890888 18.5242 0.71091C18.6052 0.530933 18.6817 0.413949 18.7447 0.355456C18.8076 0.512936 18.9336 0.773903 19.1226 1.13386C19.4241 1.70979 19.5905 2.15973 19.6175 2.48369L19.1541 2.00675L19.0911 2.12373L20 6.82115V6.82565ZM14.1237 1.97525C14.0877 2.03375 14.0562 2.08324 14.0337 2.11924C14.0067 2.15973 13.9753 2.18673 13.9303 2.20023C13.8718 2.20023 13.8223 2.15973 13.7773 2.07424C13.7323 1.99325 13.7053 1.93026 13.6918 1.89426C13.6783 1.79528 13.6693 1.70979 13.6693 1.64679C13.6693 1.40832 13.7323 1.23285 13.8538 1.11586C13.8538 1.17885 13.8538 1.25084 13.8448 1.32283C13.8358 1.39482 13.8313 1.46232 13.8223 1.52981C13.8223 1.6153 13.8358 1.68279 13.8583 1.73678C13.8853 1.78628 13.9303 1.82677 14.0022 1.85377L14.1012 1.69179C14.1507 1.70079 14.1777 1.73228 14.1777 1.79078C14.1507 1.88526 14.1327 1.94376 14.1237 1.97525ZM13.4128 0L13.2283 0.23847C12.9314 0.359954 12.2115 0.620922 11.0686 1.01687C10.5917 1.18335 10.1597 1.34533 9.77278 1.50281C9.75028 1.43082 9.78178 1.35433 9.85827 1.27784C9.89426 1.24184 9.94376 1.20585 10.0112 1.16985C10.4702 1.04837 11.0461 0.859394 11.73 0.607425C12.6884 0.256469 13.2508 0.0539925 13.4128 0.00449868V0ZM12.3105 1.21035C12.2475 1.26884 12.2115 1.34083 12.2115 1.42632C12.2115 1.48482 12.2205 1.5658 12.234 1.67379C12.234 1.75478 12.216 1.81327 12.18 1.85827C12.036 1.85827 11.964 1.79978 11.964 1.68729C11.973 1.6378 11.9775 1.5883 11.9865 1.53431C11.9955 1.48481 11.9955 1.43532 11.9955 1.38133C11.9955 1.30034 11.9775 1.24634 11.9415 1.21035C11.892 1.27334 11.8605 1.34983 11.8425 1.43532V1.83577C11.7975 1.89876 11.757 1.94826 11.712 1.97975C11.667 2.01125 11.6175 2.02025 11.5591 2.00675C11.4736 1.94376 11.4286 1.84927 11.4286 1.72778C11.4511 1.5838 11.4736 1.43532 11.5051 1.28684C11.4106 1.34533 11.3521 1.43082 11.3206 1.54781C11.2981 1.73678 11.2801 1.92126 11.2666 2.11024C11.2801 2.16873 11.3161 2.21822 11.3746 2.26322C11.4331 2.30821 11.4916 2.32621 11.5591 2.32621C11.64 2.31721 11.703 2.28571 11.748 2.22722C11.793 2.16873 11.8425 2.11024 11.892 2.05624C11.919 2.10574 11.946 2.13723 11.973 2.14173C12 2.15073 12.063 2.15073 12.171 2.15073C12.306 2.02025 12.378 1.85377 12.378 1.64229C12.378 1.52081 12.351 1.37683 12.3015 1.21035H12.3105ZM14.3847 3.2396C14.4117 3.32508 14.3937 3.41058 14.3217 3.48707C14.2947 3.48707 14.2452 3.46907 14.1822 3.43757C14.1192 3.40608 14.0607 3.39707 14.0112 3.41057C13.9483 3.54556 13.8988 3.77503 13.8718 4.09449C13.8448 4.41395 13.8043 4.64792 13.7548 4.7919C13.6738 4.71091 13.5838 4.55793 13.4803 4.33296C13.3768 4.10799 13.2733 3.94151 13.1744 3.84252C13.1519 3.88751 13.1114 3.89651 13.0574 3.87851C12.9989 3.86052 12.9629 3.85602 12.9494 3.86052C12.8549 3.82452 12.8099 3.73903 12.8099 3.59955C12.8234 3.51406 12.8369 3.44657 12.8414 3.40608C12.8774 3.31159 12.9089 3.25309 12.9404 3.2216C12.9719 3.1901 13.0034 3.1811 13.0484 3.1901C13.1699 3.32058 13.2868 3.48257 13.3948 3.67604C13.4803 3.85602 13.5703 4.0315 13.6648 4.20697C13.6918 4.14398 13.7278 3.955 13.7728 3.64904C13.8178 3.34308 13.9078 3.14511 14.0427 3.05062C14.1597 3.07762 14.2407 3.10461 14.2857 3.12261C14.3307 3.14061 14.3712 3.1766 14.3982 3.23509L14.3847 3.2396ZM14.5917 6.33971C14.6052 6.45669 14.6007 6.55568 14.5692 6.64117C14.5422 6.72666 14.4792 6.79865 14.3847 6.85714C14.2677 6.83015 14.1822 6.76265 14.1237 6.66367C14.1237 6.29471 14.1957 5.97075 14.3397 5.69179C14.3622 5.71878 14.3712 5.76828 14.3712 5.83127C14.3712 5.87627 14.3532 5.94826 14.3172 6.05624C14.2812 6.16423 14.2632 6.24522 14.2632 6.29471C14.2632 6.3892 14.3127 6.46119 14.4162 6.51068C14.4297 6.50169 14.4612 6.44769 14.5152 6.33971H14.5917ZM9.16985 0.971878C9.13386 0.998875 9.08436 1.01687 9.01687 1.01687C8.95838 1.01687 8.89539 1.00788 8.8234 0.994377L8.8009 0.971878C8.7739 1.04387 8.71541 1.08887 8.62992 1.10686C8.54443 1.12486 8.48594 1.13386 8.45894 1.13386C8.40945 1.09786 8.37345 1.04387 8.35096 0.976379C8.32846 0.908887 8.31946 0.841395 8.31946 0.778402V0.670417C8.33296 0.620923 8.34196 0.584927 8.34196 0.56243C8.36445 0.526434 8.38695 0.48594 8.41845 0.445445C8.43195 0.539933 8.44545 0.620924 8.45444 0.688415C8.46344 0.755907 8.49944 0.814397 8.55793 0.854892C8.68841 0.854892 8.75141 0.800898 8.75141 0.692912C8.73791 0.575927 8.72891 0.490438 8.72891 0.431946C8.72891 0.337457 8.7604 0.274465 8.8279 0.23847C8.85489 0.260967 8.87289 0.319459 8.87289 0.422946C8.86389 0.517435 8.86389 0.584926 8.86389 0.62992C8.86389 0.728908 8.89089 0.782903 8.94938 0.782903C8.97638 0.782903 9.03037 0.764904 9.10236 0.728908C9.08886 0.679415 9.07986 0.634421 9.07537 0.598426C9.07537 0.562431 9.07087 0.517436 9.07087 0.467942C9.07087 0.373454 9.09786 0.296963 9.14736 0.24297C9.21935 0.373454 9.25534 0.517437 9.25534 0.674917C9.25534 0.724411 9.25084 0.773903 9.23734 0.827897C9.22835 0.87739 9.20585 0.926883 9.17885 0.980876L9.16985 0.971878ZM18.8976 7.35208C18.8121 7.1991 18.7177 7.10011 18.6187 7.04612C18.5197 6.99213 18.3892 6.96513 18.2317 6.96513C17.8133 7.05962 17.3948 7.1496 16.9809 7.23509C16.8594 6.87514 16.7154 6.31721 16.5489 5.5613C16.4184 4.99437 16.342 4.65692 16.324 4.55793L17.6198 3.37008C17.7638 3.39258 17.8673 3.32508 17.9348 3.1766C17.8853 3.12711 17.8583 3.05962 17.8583 2.98313C17.8583 2.93813 17.8718 2.87064 17.9033 2.77615C17.9303 2.68167 17.9483 2.60967 17.9483 2.56018C17.9483 2.49719 17.9348 2.4342 17.9033 2.3757C17.9033 2.29021 17.8628 2.22722 17.7773 2.18673C17.6963 2.14623 17.6063 2.13273 17.5118 2.15073C17.4173 2.19573 17.3363 2.24522 17.2688 2.30821C17.2013 2.3712 17.1564 2.4342 17.1339 2.50619C17.1114 2.57818 17.1024 2.62767 17.1024 2.65917C17.1024 2.74466 17.1744 2.84364 17.3183 2.95163C17.4623 3.05962 17.5433 3.14961 17.5658 3.2216C17.3723 3.42857 17.1609 3.62205 16.9404 3.79302C16.8234 3.87851 16.6074 4.036 16.2835 4.25647C16.1845 3.82452 16.0855 3.39257 15.991 2.96063C15.874 2.44769 15.82 2.01575 15.82 1.66479C15.8335 1.67829 15.9235 1.78178 16.09 1.96625C16.126 2.01125 16.171 2.05624 16.2295 2.10574C16.2295 1.84477 16.126 1.53431 15.9145 1.16535C15.6175 0.647919 15.4556 0.346457 15.4196 0.256468C15.3116 0.31496 15.2216 0.418448 15.1496 0.571429C15.1001 0.706412 15.0506 0.841395 14.9966 0.971878C15.2756 2.17323 15.5636 3.37458 15.8515 4.58043L14.9111 5.22835C14.9966 5.21485 15.2081 5.12486 15.5366 4.95838C15.6715 4.88639 15.793 4.84589 15.892 4.84139C15.991 5.28234 16.0945 5.71878 16.1935 6.15973C16.2925 6.60067 16.3825 7.03262 16.4634 7.45557C16.297 7.50506 16.0225 7.59955 15.6445 7.73453C15.0551 7.92351 14.5602 8.0135 14.1642 8.0135C13.9213 8.0135 13.6873 7.9775 13.4668 7.91001C13.2463 7.84252 13.0484 7.73003 12.8684 7.58155C12.6299 7.2351 12.4094 6.83915 12.2115 6.3937C12.1305 6.22272 11.9685 5.80427 11.7165 5.14286C11.5141 4.61642 11.3341 4.20248 11.1766 3.90101C10.9516 3.46907 10.6997 3.09111 10.4117 2.76715V2.77615C10.4117 2.77615 10.3712 2.79415 10.3577 2.78515C10.2632 2.94263 10.2182 3.09561 10.2182 3.2396C10.2182 3.42857 10.2992 3.64455 10.4567 3.88752C10.5422 4.0225 10.6817 4.22047 10.8661 4.48144C11.0191 4.7829 11.1721 5.09786 11.3341 5.42632C11.4961 5.75478 11.5771 6.05624 11.5771 6.33971C11.5771 6.3892 11.5681 6.47469 11.5546 6.58718C11.1586 7.29809 10.6592 7.89201 10.0517 8.36895C9.36783 8.90889 8.66592 9.17885 7.94601 9.17885C7.81102 9.04837 7.73903 8.89539 7.73903 8.71541C7.73903 8.59392 7.79303 8.37345 7.90551 8.06299C8.018 7.74803 8.06749 7.51406 8.04949 7.35658C7.964 7.57255 7.87852 7.78852 7.78853 8.0045C7.59955 8.48144 7.50956 8.85939 7.50956 9.14736C7.50956 9.30484 7.53656 9.46232 7.59505 9.6153C7.65354 9.76828 7.73903 9.90326 7.85602 10.0202C7.90551 10.0292 7.9865 10.0427 8.09899 10.0652C8.21147 10.0877 8.31046 10.0967 8.39595 10.0967C8.53993 10.0967 8.66142 10.0697 8.7649 10.0202C9.54331 9.70979 10.2137 9.26434 10.7717 8.67941C11.4286 8.0045 11.7525 7.29809 11.7525 6.56468C11.8605 6.86614 11.9775 7.1811 12.1035 7.50506C12.2295 7.82902 12.387 8.09449 12.5804 8.30596C12.7694 8.51294 12.9854 8.66591 13.2238 8.7604C13.4623 8.85489 13.7188 8.89989 13.9888 8.89989C14.0832 8.89989 14.1777 8.89539 14.2812 8.88189C14.3802 8.87289 14.4882 8.85489 14.6052 8.8324C14.9201 8.7829 15.3656 8.65242 15.9325 8.44544C16.1755 8.35995 16.4229 8.27446 16.6659 8.18448C16.7514 8.37795 16.8504 8.57143 16.9629 8.7604C17.0754 8.94938 17.1924 9.10686 17.3138 9.22834C17.4083 9.30034 17.5028 9.35433 17.6063 9.39482C17.7053 9.43532 17.8088 9.45332 17.9078 9.45332C17.9888 9.45332 18.0472 9.44432 18.0922 9.43082C18.3532 9.13386 18.5512 8.8144 18.6907 8.46344C18.8301 8.11249 18.9021 7.74353 18.9021 7.34758L18.8976 7.35208ZM8.26097 1.40382C8.17998 1.5748 8.10799 1.72329 8.036 1.84477C8.009 1.90326 7.94601 1.98875 7.85152 2.10574L7.2036 1.79078C7.30259 1.51631 7.45107 1.27334 7.64455 1.05737C7.82452 1.14286 7.92801 1.19235 7.9595 1.21035C8.04499 1.25534 8.14848 1.31833 8.26097 1.40382ZM9.09336 2.15073L8.61642 2.83014C8.41395 2.74466 8.26097 2.67717 8.15298 2.63217C8.04499 2.58718 7.94601 2.53768 7.85152 2.48819C7.81552 2.52419 7.73903 2.64567 7.62655 2.85714C7.54106 3.01462 7.44207 3.09561 7.33408 3.09561C7.27559 3.09561 7.23509 3.08661 7.2036 3.07311L6.71766 2.88864C6.80315 2.66367 6.85264 2.53768 6.87064 2.51068C6.94263 2.3577 7.02812 2.24972 7.13161 2.17773L7.85602 2.4027L8.31946 1.79978C8.51294 1.85827 8.66142 1.90776 8.7694 1.95276C8.87289 1.99775 8.98538 2.06524 9.09786 2.15973L9.09336 2.15073ZM16.4904 9.34083C16.4994 9.39932 16.4814 9.46231 16.4409 9.52981C16.4004 9.5973 16.3645 9.66479 16.3285 9.72778C16.27 9.75028 16.2205 9.75928 16.1755 9.75928C16.1125 9.75928 16.045 9.74578 15.982 9.71428C15.919 9.68729 15.8605 9.65129 15.811 9.6063C15.5501 9.93926 15.1496 10.1777 14.6007 10.3307C14.1192 10.4387 13.6378 10.5467 13.1654 10.6547C13.3678 10.5737 13.6828 10.4567 14.1147 10.2992C14.8076 10.0472 15.3251 9.82227 15.6715 9.62879C15.685 9.51181 15.7525 9.38133 15.8785 9.22834C16 9.07536 16.117 9.00337 16.225 9.00337C16.3555 9.00337 16.4454 9.11586 16.4949 9.33633L16.4904 9.34083ZM8.14398 4.04049C8.15748 4.07649 8.16648 4.12599 8.16648 4.19348C8.16648 4.31496 8.12148 4.43195 8.027 4.53993C7.982 4.57593 7.93701 4.61192 7.89201 4.64792C7.84702 4.68391 7.79303 4.69291 7.73453 4.67042C7.65354 4.53993 7.61755 4.39595 7.61755 4.23847C7.61755 4.08099 7.64904 3.91451 7.71654 3.72554C7.77953 3.53656 7.84702 3.35208 7.91001 3.1811C7.92351 3.2081 7.93251 3.25309 7.93251 3.31158C7.93251 3.39707 7.91901 3.48707 7.88751 3.58155C7.80202 3.86052 7.75703 4.0225 7.75703 4.05849C7.75703 4.19348 7.82452 4.28347 7.964 4.31946C7.9865 4.29696 8.0135 4.25197 8.04499 4.17998C8.07649 4.10799 8.11249 4.06299 8.14848 4.0495L8.14398 4.04049ZM5.74578 1.88076C5.76828 1.96175 5.75928 2.05174 5.71879 2.15973C5.67829 2.26772 5.6288 2.35321 5.5613 2.4207C5.48931 2.44319 5.43082 2.4297 5.38133 2.3892C5.33633 2.34421 5.29134 2.28571 5.25534 2.20472C5.23285 2.11923 5.22385 2.03375 5.22385 1.94376C5.22385 1.79978 5.25084 1.65579 5.30034 1.51181C5.32733 1.43082 5.39033 1.30484 5.48481 1.12486C5.44882 1.25984 5.42182 1.37683 5.39933 1.47582C5.37683 1.5748 5.36783 1.66479 5.36783 1.75028C5.36783 1.84477 5.38583 1.93476 5.41732 2.02025C5.44882 2.10574 5.51181 2.14173 5.6063 2.12823L5.74578 1.88076ZM10.3262 6.49269C10.3262 6.69516 10.2452 6.87514 10.0877 7.03262C9.96625 7.05512 9.88526 6.98763 9.84927 6.82565C9.82227 6.74466 9.80427 6.65917 9.80427 6.56468C9.80427 6.4297 9.84927 6.25872 9.93926 6.05624C10.0292 5.85377 10.0787 5.74578 10.0832 5.73228C10.0697 5.79078 10.0382 5.89426 9.99775 6.03825C9.95276 6.18673 9.93476 6.29921 9.93476 6.3802C9.93476 6.52418 9.98425 6.64117 10.0877 6.73566C10.1507 6.74466 10.2047 6.70866 10.2407 6.62767C10.2767 6.54668 10.3037 6.50169 10.3262 6.48819V6.49269ZM3.67604 0.95388L3.59955 1.19235L3.30709 1.06187C3.2351 1.19235 3.1856 1.41732 3.15411 1.74128C3.12711 2.06524 3.07312 2.28571 2.99213 2.3982C2.93363 2.33521 2.86614 2.18223 2.78515 1.94376C2.66367 1.5748 2.47019 1.40383 2.21372 1.42632C2.17773 1.36783 2.15973 1.30934 2.15973 1.24184C2.15973 1.12486 2.19573 1.02137 2.26772 0.926885C2.29021 0.899888 2.34421 0.904385 2.4297 0.94938C2.53768 1.03037 2.62767 1.13836 2.69966 1.27334C2.79865 1.49831 2.90664 1.71428 3.01462 1.93026C3.05962 1.65129 3.09561 1.41282 3.12711 1.22385C3.15861 1.03487 3.2261 0.87289 3.32508 0.742406C3.45557 0.764903 3.56805 0.832394 3.67154 0.94938L3.67604 0.95388ZM5.04837 5.13386C5.05737 5.21935 5.04387 5.30484 5.01237 5.38133C4.98088 5.46232 4.92688 5.5658 4.85489 5.69629C4.74691 5.66929 4.66142 5.6288 4.59393 5.5793C4.49944 5.50731 4.46344 5.41732 4.48594 5.30934C4.48594 5.09336 4.52193 4.86839 4.58943 4.63442C4.65692 4.40045 4.7919 4.12599 4.99438 3.80653C4.99438 3.92801 4.94038 4.12148 4.8324 4.37795C4.72441 4.63892 4.67042 4.8279 4.67042 4.94938C4.67042 5.11586 4.74691 5.25984 4.89539 5.38133C4.91789 5.35883 4.94038 5.31834 4.95838 5.25084C4.98088 5.18785 5.00787 5.14736 5.04387 5.13386H5.04837ZM3.56805 2.88864C3.51856 3.04612 3.33408 3.14961 3.01012 3.1946C2.69066 3.2396 2.48369 3.33858 2.3892 3.49156C2.3892 3.75253 2.4342 4.05849 2.52868 4.41395C2.62317 4.7694 2.71316 5.11136 2.79865 5.43532C2.82565 5.5658 2.85264 5.71428 2.87514 5.88526C2.89764 6.05624 2.90664 6.20922 2.90664 6.34421C2.90664 6.71316 2.83015 7.05962 2.68166 7.39257C2.77615 7.14061 2.82115 6.88414 2.82115 6.62767C2.82115 6.47019 2.80765 6.31721 2.78515 6.17323C2.75816 6.02924 2.69066 5.74128 2.57368 5.30934C2.45219 4.94038 2.3757 4.69291 2.34871 4.56243C2.28571 4.29696 2.24972 4.04049 2.24972 3.79752C2.24972 3.59505 2.27672 3.40607 2.32621 3.2261C2.4207 3.12711 2.54668 3.04612 2.70416 2.98763C2.77615 2.96063 2.91564 2.92014 3.12711 2.87064C3.04612 2.80765 2.95613 2.77165 2.84814 2.77165C2.78965 2.77165 2.74466 2.78965 2.70866 2.82115C2.67267 2.85264 2.64117 2.88414 2.60967 2.91113C2.60967 2.83014 2.62767 2.74916 2.66367 2.66367C2.69966 2.57818 2.74016 2.52418 2.78965 2.50169C2.83465 2.47919 2.87514 2.47019 2.90214 2.47019H2.96513C3.08211 2.47019 3.1946 2.51519 3.31159 2.60068C3.39708 2.66367 3.48256 2.76265 3.57255 2.89314L3.56805 2.88864ZM7.40158 8.18898C7.32059 8.34196 7.2171 8.47244 7.08661 8.58943C6.99213 8.67042 6.84364 8.7739 6.64567 8.90438C6.32171 9.08436 6.00225 9.26434 5.68279 9.44432C5.66029 9.39483 5.66929 9.33633 5.70979 9.26434C5.75028 9.19685 5.80427 9.15635 5.87627 9.13836L7.39707 8.18898H7.40158ZM9.48481 4.94038C9.45782 5.21935 9.37683 5.48931 9.24634 5.75028C9.14736 5.94376 8.98988 6.17323 8.7829 6.42969C8.7739 6.3487 8.8009 6.23622 8.86389 6.08324C8.92688 5.93026 8.95388 5.83127 8.95388 5.78178C8.95388 5.69629 8.91339 5.6153 8.83689 5.54331C8.67042 5.6018 8.45444 5.70529 8.18898 5.85827C8.06749 5.92126 7.93701 5.99325 7.80202 6.07424C7.52756 6.23172 7.31609 6.33971 7.1721 6.3982C7.02362 6.45669 6.87514 6.49719 6.72216 6.51518C6.69516 6.85264 6.60517 7.1676 6.45219 7.45557C6.20922 7.86052 5.82677 8.23847 5.30934 8.59842C4.94938 8.85039 4.43645 9.12936 3.76603 9.43982C3.24859 9.67829 2.73116 9.91676 2.22272 10.1507C1.48031 10.2947 0.737908 10.4387 0 10.5827C0.346457 10.4162 1.05287 10.0877 2.12823 9.5883C3.07762 9.14736 3.79303 8.8054 4.26547 8.55343C5.02137 8.14398 5.69629 7.71653 6.29471 7.26659C6.29471 7.09561 6.25872 6.90214 6.18223 6.69066C6.10574 6.47919 6.03375 6.27222 5.96176 6.06974C5.91226 5.88976 5.88526 5.74578 5.88526 5.6378C5.88526 5.37683 6.01125 5.15635 6.26322 4.96738C6.29921 5.12036 6.33971 5.26434 6.3802 5.40832C6.44319 5.5793 6.56918 5.66929 6.74916 5.66929C7.2081 5.66929 7.71204 5.52081 8.25197 5.22835C8.52643 5.07536 8.8009 4.92238 9.07087 4.7649C9.16985 4.7649 9.25984 4.7739 9.34083 4.7964C9.42182 4.8189 9.47132 4.86389 9.49381 4.93588L9.48481 4.94038ZM17.7368 2.91113L17.3498 2.54218C17.3948 2.49269 17.4443 2.46569 17.5028 2.46569C17.5658 2.46569 17.6243 2.50169 17.6738 2.57368C17.7233 2.64567 17.7458 2.72666 17.7368 2.81215V2.91113ZM18.4837 8.46344C18.5062 8.40495 18.5152 8.35545 18.5152 8.31046C18.5152 8.24747 18.5062 8.18898 18.4837 8.13948C18.4612 8.08999 18.4207 8.0225 18.3532 7.94601C18.2452 7.83802 18.0922 7.78403 17.8988 7.78403C17.8043 7.78403 17.7053 7.79302 17.6018 7.81552C17.4983 7.83802 17.3993 7.86052 17.3048 7.87851C17.3048 8.009 17.3723 8.14398 17.5118 8.28796C17.6468 8.43195 17.7908 8.53093 17.9348 8.58043C18.0337 8.59393 18.1102 8.60292 18.1597 8.60292C18.3127 8.60292 18.4207 8.55793 18.4837 8.46344ZM16.225 9.44432C16.198 9.45782 16.162 9.45782 16.1215 9.43982C16.081 9.42182 16.036 9.39033 15.9865 9.34983L16.018 9.28684C16.045 9.27784 16.09 9.29584 16.1485 9.34083L16.225 9.44882V9.44432Z" fill="white"/>
</svg>
