<svg width="20" height="13" viewBox="0 0 20 13" fill="none" xmlns="http://www.w3.org/2000/svg">
<path fill-rule="evenodd" clip-rule="evenodd" d="M19.5345 0.36721C19.4828 0.543057 19.3587 0.6827 19.1621 0.791312C19.1311 0.806827 18.9501 0.884407 18.6294 1.01371C17.0675 1.52056 15.5573 2.09982 14.1091 2.76183C14.4557 2.39979 15.0142 2.06879 15.7848 1.76881C16.1572 1.62917 16.5348 1.48953 16.9123 1.34471C17.7812 1.02405 18.6553 0.693044 19.5294 0.362038L19.5345 0.36721ZM18.7174 3.39798C18.6087 3.57383 18.5312 3.69796 18.4794 3.78071C18.3812 3.93587 18.2881 4.06517 18.2053 4.16343C17.9881 4.03931 17.8278 3.94621 17.7192 3.88932C17.5226 3.77554 17.4037 3.66175 17.3726 3.55314L17.9571 3.02043L18.7122 3.39281L18.7174 3.39798ZM13.3437 2.29118C13.4161 2.07396 13.4575 1.85157 13.4575 1.61883C13.4575 1.2361 13.3644 0.905095 13.1833 0.615465L13.3437 0.331006C13.4264 0.429273 13.4885 0.558573 13.5299 0.70856C13.5712 0.863719 13.5919 1.01888 13.5919 1.17404C13.5919 1.57228 13.5092 1.94466 13.3437 2.29118ZM19.6638 8.12516C19.8862 7.76312 20 7.35454 20 6.90975C20 6.42358 19.8707 6.00983 19.6173 5.66848C19.2966 5.21334 18.8415 4.98578 18.2622 4.98578C17.9312 5.13576 17.6726 5.37885 17.4813 5.7202C17.3416 5.96845 17.233 6.3098 17.1606 6.73907C17.3261 7.1218 17.7295 7.32868 18.376 7.37005C19.0225 7.41143 19.4001 7.46315 19.519 7.52004C19.55 7.64417 19.5397 7.74244 19.4828 7.82002C19.1673 7.91828 18.6501 8.09413 17.9312 8.34239C17.3209 8.53375 16.7624 8.66822 16.2555 8.75097C15.9348 8.80269 15.6142 8.82338 15.2987 8.82338C14.8591 8.82338 14.4557 8.77166 14.0833 8.66305C13.7109 8.55444 13.3592 8.37859 13.0282 8.13033C12.723 7.58211 12.5213 6.88906 12.4334 6.04603C12.3817 5.56504 12.3558 4.8151 12.3455 3.78588C12.3351 2.76183 12.2938 1.98604 12.211 1.46367C12.1852 1.2723 12.1593 1.06025 12.1386 0.832687C12.1128 0.599949 12.0662 0.486165 11.9886 0.486165C11.9317 0.486165 11.8542 0.563744 11.7662 0.724075C11.699 0.806827 11.6576 0.879235 11.6369 0.94647C11.6162 1.01371 11.6059 1.10163 11.6059 1.20507C11.6059 1.30851 11.6576 1.56711 11.7559 1.96018C11.7973 2.12568 11.8179 2.26532 11.8179 2.38428C11.9162 2.92216 11.9783 3.69796 12.0041 4.71166C12.03 5.72537 12.0662 6.44427 12.1179 6.8632C12.211 7.69072 12.392 8.37342 12.6662 8.9113C12.9144 9.19059 13.2196 9.39229 13.5764 9.50608C13.9385 9.61986 14.3315 9.68193 14.7608 9.68193C14.9832 9.68193 15.1746 9.67675 15.3297 9.66124C15.4849 9.65089 15.7176 9.61986 16.0228 9.56814C16.6693 9.41298 17.3158 9.24748 17.9726 9.08198C18.7277 8.86475 19.2914 8.54926 19.6742 8.12516H19.6638ZM16.1883 4.21516L16.0745 4.47375C16.0331 4.47375 15.971 4.45306 15.8883 4.40652C15.8055 4.35997 15.7486 4.33928 15.7124 4.33928C15.6452 4.33928 15.5987 4.37031 15.578 4.43755C15.5521 4.50479 15.5159 4.69098 15.4642 4.99612C15.4125 5.30127 15.3452 5.52366 15.2521 5.66848C15.097 5.36333 14.9366 5.05819 14.7815 4.74787C14.7711 4.79959 14.7505 4.82027 14.7091 4.82027C14.6005 4.76338 14.5281 4.72718 14.4867 4.72201C14.4039 4.69098 14.3626 4.62891 14.3626 4.53582C14.3626 4.47892 14.3729 4.43238 14.3884 4.40134L14.4246 4.32894C14.466 4.27205 14.5022 4.22033 14.5281 4.17895C14.5591 4.13758 14.585 4.10654 14.6108 4.08068C14.7349 4.14792 14.8487 4.25653 14.9573 4.41686C14.9832 4.45824 15.097 4.70649 15.3039 5.16162C15.3452 4.96509 15.3918 4.75821 15.4383 4.55133C15.5107 4.31859 15.6297 4.14275 15.7848 4.01862C15.8573 4.0031 15.9297 4.01345 15.9917 4.04965C16.0538 4.08586 16.1159 4.14275 16.1831 4.21516H16.1883ZM18.1122 10.2612C18.0967 10.4008 18.0657 10.5198 18.0243 10.6129C17.9829 10.706 17.9054 10.7732 17.7864 10.8042C17.714 10.8353 17.6468 10.8301 17.595 10.7836C17.5433 10.737 17.5019 10.6853 17.4813 10.6232C17.4606 10.5612 17.4502 10.4836 17.4502 10.3957C17.4502 10.2405 17.4761 10.0957 17.533 9.96121C17.5847 9.82674 17.6674 9.6871 17.7761 9.53711C17.745 9.65089 17.714 9.76468 17.683 9.87846C17.6519 9.99224 17.6416 10.0802 17.6416 10.1474C17.6416 10.287 17.6881 10.406 17.7761 10.4939C17.8485 10.5198 17.9157 10.4836 17.9726 10.3957C18.0295 10.3026 18.076 10.2612 18.1071 10.2612H18.1122ZM9.6302 0.713732L9.5578 1.03439C9.51642 1.01888 9.44401 0.97233 9.34058 0.905094C9.23714 0.832687 9.15438 0.801655 9.08715 0.801655C9.06129 0.884406 9.0406 1.1068 9.01991 1.46367C8.99922 1.8257 8.90096 2.05327 8.73028 2.15154C8.67339 2.06879 8.6165 1.96535 8.55444 1.84122C8.43031 1.56193 8.33204 1.37574 8.25446 1.29299L8.16654 1.40677C8.0993 1.3654 8.03207 1.32402 7.97 1.28265C7.87691 1.21541 7.82519 1.14818 7.80967 1.0706C7.8407 0.936126 7.87691 0.827515 7.91311 0.739592C7.94932 0.651668 8.01655 0.636152 8.11999 0.6827C8.29584 0.806827 8.451 1.00853 8.59064 1.29299C8.69925 1.51021 8.76649 1.64986 8.80269 1.71709C8.81303 1.68606 8.85441 1.46367 8.92682 1.06025C8.97854 0.786139 9.06129 0.584433 9.18542 0.449962C9.26817 0.449962 9.34575 0.470649 9.42333 0.517197C9.49573 0.563745 9.56814 0.625809 9.63538 0.70856L9.6302 0.713732ZM14.5591 6.75976C14.5849 6.81148 14.5953 6.85803 14.5953 6.90975C14.5953 6.98216 14.5798 7.04939 14.5539 7.10111C14.5229 7.15283 14.466 7.23041 14.3729 7.32868C14.2746 7.35971 14.1867 7.35454 14.1195 7.30799C14.0471 7.26144 14.0005 7.20455 13.9695 7.13214C13.9385 7.05974 13.9281 6.98733 13.9281 6.90458C13.9281 6.74942 13.9798 6.57357 14.0884 6.38221C14.1453 6.28911 14.2022 6.19602 14.2643 6.09775C14.2798 6.16499 14.2539 6.2736 14.1919 6.41841C14.1246 6.5684 14.0936 6.67184 14.0936 6.72873C14.0936 6.83734 14.1505 6.92526 14.2695 6.98733C14.3626 7.01836 14.4246 6.98733 14.466 6.89941C14.5074 6.80631 14.5384 6.75976 14.5643 6.74942L14.5591 6.75976ZM8.04241 4.34963C8.06827 4.43238 8.05793 4.5203 8.01655 4.60822C7.97518 4.70132 7.92346 4.78407 7.85622 4.86682C7.78898 4.87717 7.73209 4.85648 7.69072 4.80476C7.64417 4.75304 7.59762 4.69098 7.5459 4.60822C7.52004 4.51513 7.5097 4.43238 7.5097 4.35997C7.5097 4.2617 7.52521 4.15309 7.56142 4.04448C7.59245 3.9307 7.639 3.8014 7.69589 3.65141C7.69589 3.69279 7.68555 3.76519 7.67003 3.87381C7.65451 3.98242 7.64417 4.06517 7.64417 4.12206C7.64417 4.31859 7.72175 4.45307 7.88208 4.5203L8.04241 4.34445V4.34963ZM3.46005 0.475821C3.47556 0.568917 3.4497 0.672356 3.38764 0.796484C3.31523 0.739592 3.248 0.70856 3.1911 0.70856C3.14973 0.70856 3.1187 0.724075 3.09284 0.760279C3.02043 0.884406 2.96354 1.13783 2.93251 1.52573C2.90147 1.90846 2.81872 2.15154 2.68425 2.24981L2.2136 1.31885C2.18774 1.34988 2.16188 1.37057 2.12568 1.37057C2.08947 1.37057 2.04293 1.34988 1.98086 1.31368C1.9188 1.27748 1.86191 1.24127 1.81536 1.21024C1.76364 1.15852 1.74295 1.09646 1.74295 1.02405C1.74295 0.982674 1.7533 0.925782 1.77399 0.858547C1.79467 0.786139 1.81019 0.73442 1.81536 0.693044C1.86708 0.599948 1.9188 0.558573 1.97569 0.558573C2.00672 0.558573 2.05327 0.579261 2.11016 0.620637C2.21877 0.73442 2.31187 0.879235 2.39462 1.05508C2.51875 1.31885 2.64288 1.58262 2.767 1.83605C2.79286 1.57228 2.81872 1.30334 2.85493 1.02922C2.91182 0.739591 3.03077 0.522368 3.21696 0.372381C3.36695 0.356865 3.4497 0.39307 3.46522 0.486165L3.46005 0.475821ZM10.918 7.20455C10.8456 7.04939 10.7008 6.88906 10.4939 6.7339C10.3853 6.65115 10.2302 6.53737 10.0233 6.39255C9.8164 6.24774 9.61986 6.1443 9.43884 6.08223C9.25782 6.02017 9.07163 5.98914 8.88027 5.98914C8.31652 5.98914 7.62865 6.33049 6.82183 7.01836C6.17016 7.57176 5.81329 7.87174 5.7564 7.91311C5.82881 7.61314 5.88053 7.3442 5.91156 7.10629C5.94259 6.86837 5.95294 6.57874 5.95294 6.24774C5.95294 6.015 5.94259 5.78743 5.92708 5.56504C5.91156 5.34264 5.89087 5.12542 5.87018 4.91854C5.8495 4.71166 5.78743 4.30825 5.68917 3.71347C5.55469 2.90147 5.49263 2.27567 5.49263 1.82571L5.61676 1.55159L6.015 2.0843C6.015 1.74295 5.93742 1.38092 5.77709 0.993018C5.70985 0.837859 5.54435 0.506853 5.28058 0L4.93406 0.610292C4.95992 0.858547 5.04267 1.55676 5.18231 2.71011C5.19783 2.84458 5.28058 3.54797 5.43057 4.82027C5.52883 5.67365 5.60641 6.38221 5.65296 6.94078C5.64262 6.9925 5.64262 7.07008 5.64262 7.17869C5.64262 7.26144 5.64262 7.39592 5.65296 7.57693C5.65296 7.73209 5.63227 7.87691 5.59607 8.00621C5.55987 8.13551 5.49263 8.23377 5.38919 8.31135C5.20817 8.54409 4.89268 8.75097 4.44789 8.93199C3.89966 9.15438 3.53763 9.3354 3.36178 9.46987C3.18593 9.60435 2.92733 9.84743 2.58598 10.1939C2.34807 10.4319 2.18257 10.5974 2.09982 10.6801C1.85156 10.918 1.61365 11.099 1.39126 11.218C1.16886 11.337 0.92061 11.3835 0.646496 11.3628C0.506853 11.2645 0.403413 11.1559 0.34135 11.0422C0.279286 10.9284 0.248254 10.8042 0.248254 10.6698C0.444789 10.106 0.646496 9.54228 0.843031 8.98371C0.568917 9.42333 0.41893 9.67158 0.382726 9.72847C0.124127 10.2095 0 10.6698 0 11.1042C0.0517197 11.3214 0.134471 11.5128 0.248254 11.6886C0.362038 11.8645 0.517197 11.9731 0.70856 12.0248C1.17404 12.0248 1.71192 11.7042 2.33256 11.068C2.7308 10.6543 3.02043 10.3853 3.20145 10.2612C3.63072 9.97155 4.1324 9.74916 4.70132 9.58883C5.13059 9.47505 5.67882 9.38195 6.34083 9.31471C6.71321 9.28368 7.2511 9.23196 7.94932 9.15956C8.64753 9.08715 9.22162 8.98371 9.66641 8.84406C10.0233 8.77683 10.3129 8.56478 10.5353 8.21309C10.7008 7.95449 10.8249 7.62348 10.9077 7.20972L10.918 7.20455ZM3.43419 2.83424C3.43419 3.04112 3.26351 3.1549 2.92733 3.18076C2.58598 3.20662 2.38428 3.29454 2.31704 3.43936C2.33256 3.57383 2.38945 3.84277 2.47737 4.24619C2.51875 4.44272 2.54978 4.6134 2.57564 4.75304C2.6015 4.89268 2.61702 4.99612 2.62736 5.06336C2.6377 5.13059 2.6377 5.23403 2.6377 5.37367C2.6377 5.61159 2.6015 5.85467 2.52392 6.09258C2.5653 5.95293 2.58598 5.82364 2.58598 5.70985C2.58598 5.51332 2.54461 5.28058 2.45669 5.01681C2.36876 4.75304 2.29118 4.50478 2.22912 4.27722C2.16188 4.04965 2.13085 3.86346 2.13085 3.72382C2.13085 3.51694 2.18257 3.34109 2.29118 3.19628C2.39979 3.05146 2.58598 2.92733 2.84975 2.82907C2.79803 2.77217 2.7308 2.74114 2.6377 2.74114C2.55495 2.74114 2.48254 2.76183 2.41531 2.80321L2.3429 2.95319C2.31187 2.91182 2.3067 2.84458 2.33773 2.75666C2.36876 2.66356 2.40497 2.58081 2.45669 2.5084C2.53944 2.45151 2.62736 2.42048 2.71528 2.42048C2.82389 2.42048 2.94802 2.46703 3.08767 2.55495C3.14456 2.58598 3.26351 2.67908 3.43419 2.82907V2.83424ZM10.1009 9.79571C9.92501 9.95087 9.7233 10.0905 9.49056 10.2043C9.3354 10.287 9.10784 10.3801 8.80786 10.4888C8.50789 10.5974 8.28549 10.6749 8.13551 10.7267C7.83553 10.8353 7.60797 10.9284 7.45281 11.0111C7.42177 10.9697 7.43212 10.9129 7.48901 10.8456C7.5459 10.7732 7.57693 10.7267 7.57693 10.7008C8.14068 10.4836 8.55961 10.3284 8.84406 10.2302C9.39229 10.0336 9.80605 9.8888 10.0957 9.79571H10.1009ZM4.30308 6.45462C4.30308 6.54771 4.28756 6.64081 4.2617 6.73907C4.23067 6.83734 4.19447 6.93561 4.14275 7.03905C4.04448 7.09077 3.94621 7.04939 3.85829 6.91492C3.81691 6.85803 3.78071 6.79597 3.7445 6.72873C3.72899 6.67184 3.71865 6.58391 3.71865 6.47013C3.71865 6.22188 3.79105 5.9788 3.9307 5.73571C3.87898 5.85984 3.85829 5.99948 3.85829 6.15981C3.85829 6.32015 3.88932 6.45979 3.95656 6.59426C4.01345 6.64598 4.07551 6.68735 4.14275 6.72873C4.15826 6.71321 4.17895 6.66667 4.19964 6.58392C4.22033 6.50634 4.25653 6.45979 4.30308 6.45462ZM1.81019 7.43729C1.72744 7.70106 1.64469 7.96483 1.56193 8.21826C1.44815 8.51823 1.29299 8.72511 1.10163 8.83889C0.94647 8.83889 0.801655 8.79235 0.667184 8.70442C0.532713 8.61133 0.439617 8.49237 0.382726 8.34239C0.34135 8.11999 0.320662 7.91828 0.320662 7.74761C0.320662 7.29248 0.434445 6.78562 0.65684 6.23222C0.713732 6.09258 0.936126 5.6271 1.31368 4.84096C1.11715 5.54435 0.92061 6.24257 0.729247 6.94078C0.729247 7.13732 0.760279 7.31316 0.822343 7.46315C0.884407 7.61314 1.00336 7.76312 1.17404 7.90794C1.23093 7.93897 1.28265 7.95966 1.32402 7.95966C1.40678 7.95966 1.4947 7.87174 1.58262 7.70106C1.67572 7.52521 1.74813 7.44246 1.80502 7.44246L1.81019 7.43729ZM19.0639 6.45462C18.9501 6.47013 18.8622 6.48048 18.8053 6.48048C18.4019 6.48048 18.0347 6.34083 17.714 6.05637C17.7036 6.00465 17.7192 5.96845 17.7554 5.93742C17.7916 5.90639 17.8588 5.87536 17.9467 5.84432C18.1691 5.84432 18.376 5.89604 18.5622 6.00466C18.7484 6.11327 18.9139 6.26325 19.0639 6.44945V6.45462ZM10.3026 7.88208C9.69744 8.07344 8.96302 8.21309 8.09413 8.30618C7.59762 8.3579 6.84251 8.41996 5.82364 8.50272C6.12361 8.2286 6.42358 7.95449 6.72873 7.68555C7.34937 7.14766 7.91311 6.87872 8.41479 6.87872C8.61133 6.87872 8.82338 6.91492 9.04577 6.9925C9.36644 7.158 9.594 7.28213 9.72847 7.36488C9.96121 7.51487 10.1526 7.68554 10.2974 7.88725L10.3026 7.88208Z" fill="white"/>
</svg>
