<svg width="20" height="10" viewBox="0 0 20 10" fill="none" xmlns="http://www.w3.org/2000/svg">
<path fill-rule="evenodd" clip-rule="evenodd" d="M15.8194 2.19786L15.6638 2.52203C15.5925 2.46368 15.5406 2.4183 15.5082 2.39237C15.4369 2.3405 15.3786 2.31456 15.3267 2.31456C15.1905 2.74895 15.0479 3.17686 14.9118 3.59828C14.8275 3.52696 14.7237 3.35191 14.6006 3.06664C14.5422 2.91752 14.4709 2.8073 14.3931 2.7295C14.3347 2.8073 14.2764 2.8462 14.2245 2.8462C14.1986 2.8462 14.1662 2.82675 14.1338 2.79433C14.1143 2.76192 14.1078 2.71005 14.1078 2.6517C14.1078 2.59983 14.1273 2.52851 14.1662 2.44423C14.2051 2.35995 14.231 2.29511 14.2505 2.2627C14.4514 2.23676 14.5941 2.3405 14.6913 2.5739C14.8275 2.90455 14.9247 3.09257 14.9766 3.14444C15.009 2.83972 15.0544 2.60632 15.1127 2.43775C15.1711 2.26918 15.2748 2.11358 15.4304 1.96446C15.5925 1.96446 15.7222 2.04226 15.8194 2.19786ZM15.7805 0C14.7691 0.648338 13.667 1.08272 12.474 1.29019C12.1045 1.34854 11.8322 1.38744 11.6636 1.40041C11.495 1.41338 11.294 1.41986 11.0606 1.41986C10.6522 1.41986 10.2761 1.39392 9.91956 1.33557C9.56298 1.27722 9.21288 1.19294 8.85629 1.08272C8.62937 1.31612 8.40894 1.54305 8.19499 1.76996C7.94214 2.03578 7.78653 2.26918 7.71522 2.47016L8.79146 1.4458C9.08321 1.54953 9.39441 1.62084 9.71858 1.66623C10.0427 1.71161 10.3799 1.73106 10.7365 1.73106C11.1773 1.73106 11.6312 1.69864 12.0915 1.63381C12.5518 1.56897 12.9992 1.48469 13.4336 1.38096C14.3931 0.991955 14.9312 0.758555 15.0414 0.693721C15.3721 0.492736 15.6185 0.26582 15.7805 0.00648476V0ZM10.5031 4.93385C10.529 5.16077 10.4318 5.36824 10.2178 5.55625C10.1465 5.5757 10.0881 5.54977 10.0427 5.48494C9.99736 5.4201 9.95198 5.35527 9.91956 5.28395C9.91308 5.23857 9.9066 5.17373 9.9066 5.08945C9.9066 4.681 10.0427 4.33089 10.3215 4.02618C10.2373 4.20123 10.1789 4.34386 10.1465 4.4476C10.1141 4.55133 10.1011 4.66155 10.1011 4.77825C10.1011 4.93385 10.153 5.07648 10.2567 5.21264C10.3021 5.19318 10.341 5.1478 10.3734 5.06352C10.4058 4.97923 10.4512 4.94033 10.5031 4.94033V4.93385ZM19.9947 4.35034C19.7808 4.05859 19.502 3.80574 19.1649 3.59828C18.899 3.43619 18.5619 3.28059 18.1535 3.14444C18.0043 3.1185 17.8617 3.10554 17.7255 3.10554C17.0578 3.10554 16.2538 3.53992 15.3137 4.40221C14.6913 4.97275 14.2569 5.33582 14.0171 5.49142C13.7642 5.4201 13.5632 5.29692 13.4011 5.1089C13.2391 4.92088 13.1353 4.70045 13.0835 4.44111C12.9538 4.51243 12.8371 4.62913 12.7333 4.80418C12.6555 4.95978 12.5777 5.1089 12.4999 5.25802C12.6491 5.64054 12.7463 5.91284 12.7982 6.07492C12.8954 6.38613 12.9408 6.6714 12.9408 6.93073C12.7398 7.07985 12.5194 7.20951 12.2795 7.31973C12.0461 7.40402 11.8192 7.49478 11.5923 7.59203C10.6652 7.8773 9.76396 8.10422 8.88222 8.2663C7.81247 8.46729 6.81403 8.56454 5.89987 8.56454C4.62913 8.56454 3.52696 8.38949 2.59335 8.0329C1.51063 7.62445 0.648338 6.97611 0 6.08789C0.0778005 6.32129 0.213952 6.65194 0.414936 7.08633C0.570537 7.42995 0.661305 7.63093 0.687238 7.6828C1.05679 8.29872 1.55601 8.73959 2.17841 9.01838C2.87214 9.32958 3.98728 9.48518 5.5368 9.48518H6.32777C7.00205 9.48518 7.6828 9.42683 8.37004 9.31013C9.05728 9.19343 9.75748 9.03134 10.4707 8.82388C11.1838 8.61641 11.7868 8.3441 12.2795 8.00697C12.85 7.61797 13.3169 7.11875 13.6799 6.51579C13.9976 6.64546 14.3153 6.73623 14.6265 6.7881C14.9377 6.83996 15.2683 6.86589 15.6249 6.86589C16.2473 6.86589 16.8568 6.7881 17.4597 6.6325C18.0627 6.47689 18.6527 6.26294 19.2297 5.98416C19.3594 5.79614 19.4955 5.60164 19.6317 5.40065C19.9104 5.00517 20.0271 4.65506 19.9947 4.35034ZM8.62289 4.71341C8.53861 4.94033 8.38949 5.1089 8.17554 5.2256C7.96158 5.3423 7.72818 5.41362 7.46885 5.43955C7.50127 5.35527 7.63093 5.2645 7.85785 5.16725C8.08477 5.07 8.2274 4.9922 8.28575 4.93385C8.13664 4.90143 8.00697 4.8755 7.89675 4.85605C7.78653 4.8366 7.6828 4.83011 7.58555 4.83011C7.4494 4.83011 7.31973 4.86253 7.19655 4.93385C7.216 4.84957 7.2549 4.76528 7.31325 4.68748C7.3716 4.60968 7.44292 4.5643 7.51423 4.54485C7.58555 4.5254 7.65038 4.51891 7.70873 4.51891H7.83192C7.98752 4.51891 8.13664 4.53188 8.27927 4.5643C8.4219 4.59671 8.53861 4.6421 8.62289 4.71341ZM4.97923 1.62733L4.88846 1.96446C4.78473 1.9126 4.70693 1.88018 4.65506 1.86073C4.55781 1.81535 4.48001 1.80886 4.4087 1.8348C4.33738 1.97095 4.29848 2.21731 4.27903 2.56093C4.25958 2.90455 4.22068 3.15092 4.14936 3.30004C4.04563 3.22872 3.92893 3.02125 3.79277 2.66467C3.65662 2.30808 3.48157 2.13303 3.26762 2.13303C3.18334 2.08116 3.1185 2.03578 3.0796 1.99688C3.0407 1.95798 3.02125 1.9126 3.02125 1.86073C3.05367 1.72458 3.08609 1.61436 3.11202 1.53008C3.13795 1.44579 3.18982 1.37447 3.26762 1.31612C3.47509 1.45228 3.64366 1.64678 3.77332 1.89963C3.77332 1.90611 3.87057 2.146 4.07156 2.6128C4.07156 2.34698 4.11046 2.1071 4.18178 1.90611C4.25309 1.70513 4.38276 1.54305 4.5643 1.41986C4.70045 1.42634 4.84308 1.49766 4.97923 1.62733ZM5.88691 5.19319C5.86097 5.32285 5.84152 5.44603 5.82207 5.56922C5.77669 5.70537 5.68592 5.78966 5.5368 5.81559C5.45252 5.81559 5.3812 5.7702 5.33582 5.67295C5.29043 5.5757 5.25802 5.51087 5.23857 5.46549C5.23857 5.2645 5.27098 5.05703 5.32933 4.84308C5.35527 4.74583 5.42659 4.55133 5.5368 4.25958C5.5368 4.31144 5.52384 4.39573 5.4979 4.50594C5.43955 4.76528 5.40714 4.94033 5.40714 5.03758C5.40714 5.23857 5.49142 5.36824 5.6535 5.43955C5.69889 5.4201 5.7313 5.37472 5.75724 5.3034C5.78317 5.23208 5.82856 5.19319 5.88691 5.19319ZM19.3205 5.15428C18.8018 5.36823 18.2637 5.54328 17.6996 5.66647C17.1356 5.78965 16.578 5.85449 16.0139 5.85449C15.787 5.85449 15.5407 5.84152 15.2683 5.81559C14.996 5.78966 14.7562 5.75076 14.5487 5.69889C14.9571 5.35527 15.3591 5.00517 15.7676 4.64858C16.2538 4.26606 16.7077 4.07804 17.142 4.07804C17.2523 4.07804 17.369 4.09101 17.4921 4.11694C17.9071 4.24661 18.2377 4.37628 18.4906 4.50594C18.8277 4.68748 19.1065 4.90143 19.3205 5.15428Z" fill="white"/>
</svg>
