<svg width="20" height="13" viewBox="0 0 20 13" fill="none" xmlns="http://www.w3.org/2000/svg">
<path fill-rule="evenodd" clip-rule="evenodd" d="M20 2.42781C19.9037 2.37433 19.8128 2.25668 19.7166 2.07486C19.6203 1.89305 19.5508 1.77005 19.4973 1.71123C19.4973 2.13904 19.5241 2.65775 19.5722 3.26203C19.6898 4.68984 19.754 5.60428 19.754 6.01069V6.91979C19.754 7.61497 19.7219 8.17112 19.6631 8.59893C19.5775 9.19786 19.4171 9.72192 19.1872 10.1658C19.262 9.96257 19.3209 9.73797 19.3583 9.49198C19.3957 9.24599 19.4171 8.9893 19.4171 8.71658C19.4171 8.41711 19.3957 7.98396 19.3476 7.42246C19.2995 6.85561 19.2781 6.48128 19.2781 6.29412C19.0535 4.52406 18.8342 2.74866 18.6096 0.967913C18.6845 0.79679 18.7701 0.62032 18.8556 0.443849C18.9679 0.245988 19.1016 0.117647 19.2513 0.0588239C19.4973 0.855615 19.7487 1.64706 19.9947 2.43315L20 2.42781ZM14.3904 0.117646C14.3155 0.272726 14.1979 0.401069 14.0428 0.502673C13.8877 0.604277 13.7112 0.695187 13.5187 0.764706C13.3209 0.839572 13.1283 0.903743 12.9412 0.962566C12.754 1.03743 12.5829 1.13369 12.4278 1.24599C12.5027 1.07487 12.6257 0.93048 12.7861 0.807486C12.9037 0.721924 13.0749 0.636363 13.2995 0.550801C13.5561 0.475935 13.7433 0.411764 13.8663 0.368983C14.0909 0.294117 14.262 0.208556 14.3904 0.112299V0.117646ZM13.8128 3.54545L13.3262 4.39037L12.5936 3.81283L13.107 3.03208C13.2193 3.08556 13.3529 3.16043 13.5134 3.26738C13.6738 3.37433 13.7701 3.46524 13.8128 3.54545ZM10.8984 1.56685C10.8824 1.70588 10.8075 1.78075 10.6791 1.79679C10.5775 1.77005 10.3904 1.83422 10.1283 1.9893C9.98396 2.07486 9.87701 2.11765 9.80749 2.11765C9.68984 2.11765 9.59358 2.02139 9.52407 1.82353C9.51337 1.79144 9.51337 1.74331 9.51337 1.68449C9.51337 1.61497 9.54011 1.49733 9.58823 1.3262C9.61497 1.24064 9.63101 1.16578 9.64171 1.10695L9.69519 1.08021C9.72193 1.14973 9.73262 1.20856 9.73262 1.26203C9.72192 1.36364 9.72192 1.4385 9.72192 1.48128C9.72192 1.60963 9.7754 1.69519 9.8877 1.73797C9.94652 1.72727 10.0107 1.71658 10.0749 1.69519C10.139 1.6738 10.1765 1.63636 10.1818 1.58823C10.1925 1.53476 10.1925 1.47059 10.1925 1.39572C10.1818 1.26738 10.1818 1.17647 10.1818 1.12834C10.1818 1.05348 10.1925 0.983956 10.2086 0.93048C10.2246 0.877004 10.262 0.823529 10.3262 0.780748C10.3369 0.812834 10.3476 0.919786 10.3583 1.09626C10.369 1.27273 10.4225 1.38503 10.508 1.4385H10.7112C10.7219 1.38503 10.7219 1.33155 10.7112 1.26738C10.7005 1.20321 10.6952 1.13369 10.6845 1.05347C10.6845 0.95187 10.7112 0.871657 10.7594 0.807486C10.877 0.967914 10.9412 1.16043 10.9412 1.37433C10.9412 1.44385 10.9305 1.51337 10.9037 1.57754L10.8984 1.56685ZM11.6578 1.96257C11.4438 2.1016 11.2139 2.2246 10.9626 2.3369C10.8075 2.40642 10.5775 2.50267 10.2781 2.63102C9.97326 2.75936 9.71658 2.8877 9.50802 3.02139C9.29946 3.15508 9.1123 3.32086 8.95187 3.51337C9.4385 3.28877 9.92513 3.06417 10.4171 2.83422C10.7005 2.70588 10.9305 2.58289 11.1123 2.45989C11.3369 2.31551 11.5187 2.14973 11.6631 1.95722L11.6578 1.96257ZM18.4973 6.87701C18.3957 6.78075 18.2941 6.72193 18.2032 6.69519C18.107 6.66845 17.9893 6.65775 17.8449 6.65775C17.7166 6.65775 17.5401 6.67914 17.3209 6.72192C16.8824 6.80749 16.615 6.85027 16.5134 6.85027L16.0374 4.38503C16.0802 4.35294 16.2567 4.20321 16.5615 3.94652C16.9305 3.64706 17.1872 3.37968 17.3316 3.13904C17.4438 3.20856 17.5294 3.24064 17.5882 3.24064C17.631 3.24064 17.6524 3.2139 17.6524 3.16577C17.6524 3.13904 17.6417 3.06952 17.615 2.96257C17.5882 2.85027 17.5775 2.7647 17.5775 2.70588C17.5775 2.58823 17.6203 2.50267 17.7059 2.4492C17.7219 2.36364 17.7326 2.28877 17.7326 2.22995C17.7326 2.06952 17.6791 1.94652 17.5668 1.87166C17.4118 1.87166 17.2781 1.91979 17.1551 2.01069C17.0374 2.10695 16.9305 2.2246 16.8449 2.36898C16.8128 2.41176 16.7914 2.46524 16.7914 2.52406C16.7914 2.57754 16.8342 2.64171 16.9198 2.72727C17.0909 2.89839 17.1872 3.01604 17.2139 3.08556C17.0321 3.31016 16.8342 3.50802 16.615 3.68984C16.3957 3.87166 16.1872 4 15.9947 4.08556C15.9947 3.92513 15.9358 3.51872 15.8128 2.877C15.7594 2.60428 15.738 2.36898 15.738 2.17112C15.738 2.04278 15.7487 1.90374 15.7754 1.75936L16.262 2.18182C16.2086 2.02139 16.107 1.74332 15.9519 1.35829C15.6791 0.673797 15.5134 0.235294 15.4492 0.037433C15.3048 0.224599 15.2032 0.427808 15.1497 0.641712C15.0963 0.855615 15.0642 1.09626 15.0642 1.35829C15.0642 1.70054 15.139 2.2246 15.2834 2.92513C15.4278 3.62567 15.5027 4.13369 15.5027 4.45454C15.246 4.60962 15.0214 4.75936 14.8235 4.90374C14.5668 5.09091 14.3636 5.27273 14.2086 5.44385C14.4813 5.26203 14.754 5.08021 15.0321 4.89305C15.2139 4.78075 15.385 4.71123 15.5455 4.68984L15.9412 7C15.7594 7.07487 15.5668 7.13904 15.3636 7.18716C15.1604 7.23529 14.9572 7.25668 14.7594 7.25668C14.4706 7.25668 14.1979 7.20321 13.9519 7.1016C13.8128 7.01604 13.7166 6.89305 13.6524 6.73797C13.5882 6.57754 13.5562 6.40642 13.5562 6.21925C13.3743 6.34759 13.2513 6.48128 13.1765 6.62567C13.1016 6.76471 13.0695 6.92513 13.0695 7.10695C13.0695 7.26203 13.0856 7.39572 13.1123 7.51871C13.1444 7.63636 13.2032 7.82888 13.2995 8.08556C13.4438 8.48663 13.5187 8.78075 13.5187 8.95722C12.8503 9.48128 12.0695 9.95722 11.1711 10.3957C10.5989 10.6684 9.7647 11.0267 8.66845 11.4599C7.47059 11.9305 6.63636 12.2781 6.16578 12.4973C6.39037 12.4706 6.58824 12.4332 6.76471 12.3904C6.94118 12.3422 7.13904 12.2781 7.36364 12.1925C8.49198 12.0321 9.35829 11.861 9.95722 11.6898C10.8877 11.4332 11.6791 11.0695 12.3316 10.5989C12.8342 10.3529 13.246 10.016 13.5562 9.59358C13.8663 9.17112 14.0588 8.68984 14.1283 8.14973C14.3529 8.14973 14.6845 8.10695 15.1337 8.02674C15.5829 7.94652 15.9198 7.90374 16.139 7.90374C16.2353 8.30481 16.3529 8.62567 16.4973 8.86631C16.6952 9.19251 16.9572 9.41176 17.2781 9.53476C17.3209 9.5508 17.385 9.5615 17.4706 9.5615C17.6684 9.5615 17.8289 9.49198 17.9572 9.35829C18.1123 9.07487 18.2781 8.77005 18.4492 8.4492C18.6257 8.12299 18.7112 7.83422 18.7112 7.57754C18.7112 7.3369 18.6364 7.10695 18.492 6.88235L18.4973 6.87701ZM16.0321 10.1123C15.9358 10.1123 15.8128 10.107 15.6524 10.0909C15.492 10.0802 15.4118 10.0695 15.4011 10.0695C15.2995 10.0695 15.2086 10.0802 15.123 10.0963C15.0428 10.1123 14.9626 10.1497 14.8877 10.1979C14.8877 10.3369 14.9037 10.4813 14.9412 10.6364C14.9733 10.7914 15.0053 10.9358 15.0374 11.0642C15.0695 11.1979 15.0909 11.3048 15.1016 11.385C15.1123 11.4652 15.123 11.5455 15.123 11.6203C15.123 11.7487 15.0963 11.8877 15.0481 12.0321C15.0642 11.877 15.0374 11.6845 14.9733 11.4545C14.7861 10.8556 14.6898 10.5134 14.6898 10.4278C14.6898 10.2727 14.7219 10.1444 14.7914 10.0428C14.861 9.94118 14.9893 9.84492 15.1765 9.75936C15.2193 9.77005 15.2727 9.75936 15.3369 9.73797C15.4011 9.71658 15.4492 9.70588 15.4866 9.70588C15.4438 9.63636 15.3583 9.60428 15.2299 9.60428C15.1016 9.62032 15.016 9.63101 14.9733 9.63101C14.9733 9.54545 15 9.47594 15.0588 9.41711C15.1123 9.36364 15.1925 9.31016 15.2941 9.26738C15.3797 9.24064 15.4492 9.23529 15.4973 9.25668C15.5508 9.27273 15.6791 9.34759 15.893 9.47593C16.0481 9.58823 16.123 9.72192 16.123 9.8877C16.123 9.97326 16.0909 10.0481 16.0321 10.107V10.1123ZM5.58289 2.16577C5.58289 2.30481 5.5615 2.42781 5.51872 2.54011C5.47594 2.65241 5.40107 2.73797 5.29946 2.79679C5.2246 2.81283 5.14973 2.79679 5.08021 2.74331C5.01069 2.66845 4.96257 2.60963 4.94118 2.57754C4.93048 2.53476 4.93048 2.47059 4.93048 2.38503C4.93048 2.18717 4.98931 1.96791 5.1123 1.71658C5.17112 1.58823 5.23529 1.45989 5.30481 1.33155C5.30481 1.40642 5.27273 1.53476 5.20321 1.71658C5.13369 1.8984 5.1016 2.02674 5.1016 2.1123C5.1016 2.25668 5.17112 2.36898 5.30481 2.44385C5.36364 2.44385 5.41711 2.40107 5.45989 2.31016C5.50267 2.21925 5.54545 2.17112 5.58823 2.16043L5.58289 2.16577ZM10.6524 4.85027C10.5134 4.6631 10.4171 4.54011 10.3583 4.49198C10.2299 4.37968 10.0909 4.33155 9.94652 4.35294C9.5615 4.54011 9.27808 4.89839 9.1016 5.41711C9.00535 5.70053 8.91979 6.17112 8.83422 6.82888C8.80214 6.83957 8.74866 6.83957 8.67914 6.83957C8.50802 6.83957 8.35294 6.7861 8.20856 6.6738C8.06952 6.5615 7.94118 6.42246 7.82888 6.25134C7.63102 5.68449 7.49733 5.01604 7.41711 4.23529C7.39037 3.99465 7.35294 3.35294 7.31016 2.30481C7.26203 1.25668 7.19786 0.486631 7.1123 0C6.99465 0.144385 6.8984 0.28877 6.83422 0.438502C6.77005 0.582888 6.72727 0.748663 6.71123 0.925133C6.71123 1.40642 6.75401 2.06417 6.83422 2.90909C6.91444 3.75401 6.99465 4.57754 7.06952 5.37968C7.14438 6.18182 7.18717 6.8984 7.18717 7.52406C6.40107 8.26203 5.6738 8.81283 5.00535 9.18182C4.14973 9.6524 3.29412 9.8877 2.4385 9.8877C2.38503 9.8877 2.32086 9.8877 2.24064 9.88235C2.16043 9.88235 2.06417 9.87166 1.95187 9.86096C1.58289 9.75936 1.25668 9.58289 0.97861 9.3369C0.663102 9.05348 0.475936 8.73797 0.427808 8.38503C0.417112 8.34225 0.417112 8.28342 0.417112 8.20321C0.417112 7.96257 0.470588 7.72192 0.572192 7.48663C0.647059 7.30481 0.770053 7.09091 0.930481 6.83422C0.946524 6.85027 1.01604 6.86096 1.13369 6.86096C1.37433 6.73262 1.5508 6.54545 1.6738 6.30481C1.79144 6.05882 1.85562 5.79679 1.85562 5.51337C1.85562 5.41711 1.85561 5.34759 1.84492 5.29412C1.81283 5.30481 1.75936 5.36898 1.69519 5.48663C1.63102 5.60428 1.58289 5.68449 1.54545 5.71658C1.47594 5.79144 1.40107 5.83422 1.31551 5.83422C1.28342 5.83422 1.24064 5.82353 1.18717 5.79679C1.05882 5.65775 0.967914 5.51337 0.909091 5.35829C0.855615 5.20321 0.823529 5.03743 0.823529 4.85561C0.823529 4.59893 0.909091 4.23529 1.07487 3.75936C1.24064 3.28342 1.3369 2.98931 1.36364 2.86631C1.07487 3.29412 0.850267 3.70053 0.695187 4.08556C0.497326 4.57219 0.40107 5.03743 0.40107 5.47059C0.40107 5.96791 0.534759 6.41711 0.796791 6.81818C0.411765 7.53476 0.197861 7.96256 0.15508 8.09091C0.0534759 8.37433 0 8.65241 0 8.92513C0 9.19786 0.0695188 9.47059 0.203209 9.74866C0.427808 10.107 0.716578 10.3904 1.07487 10.6043C1.43316 10.8128 1.81818 10.9198 2.22995 10.9198H2.41176C2.48663 10.9198 2.5615 10.9091 2.63102 10.893C3.70053 10.7487 4.67914 10.369 5.57219 9.74866C6.52406 9.09091 7.18182 8.27807 7.5508 7.31016L7.92513 7.70588C8.03743 7.7754 8.13369 7.81818 8.2139 7.83957C8.29412 7.86096 8.40642 7.87166 8.54011 7.87166C8.78075 7.87166 9.04278 7.80214 9.32086 7.66845C9.4385 7.60963 9.67914 7.47059 10.0374 7.25668C10.2781 7.02674 10.4652 6.76471 10.5936 6.48128C10.7273 6.19251 10.7914 5.8984 10.7914 5.58824C10.7914 5.47594 10.7807 5.35294 10.754 5.20855C10.7273 5.06952 10.6952 4.95187 10.6524 4.85561V4.85027ZM5.54545 6.05882C5.54545 6.24599 5.51872 6.40642 5.47059 6.54011C5.41711 6.6738 5.32086 6.77005 5.17647 6.82888C5.09091 6.82888 5.02674 6.7861 4.97861 6.70053C4.93048 6.61497 4.8877 6.51872 4.84492 6.40642C4.84492 6.03743 4.92513 5.71123 5.09091 5.41711C5.06417 5.50267 5.04278 5.59358 5.02139 5.69519C5 5.79144 4.9893 5.8877 4.9893 5.97326C4.9893 6.18716 5.06417 6.34759 5.20856 6.45989C5.30481 6.45989 5.36898 6.41176 5.41176 6.32086C5.4385 6.23529 5.46524 6.14973 5.50267 6.06417H5.55615L5.54545 6.05882ZM3.85027 0.593583C3.85027 0.636364 3.83422 0.684492 3.79679 0.743315C3.76471 0.796791 3.73262 0.850267 3.70588 0.903743C3.6738 0.893047 3.62032 0.86631 3.54545 0.812834C3.47059 0.759359 3.40642 0.748663 3.34759 0.775401C3.23529 1.35829 3.12299 1.94118 3.01604 2.51872C3.18717 2.59358 3.34225 2.69519 3.48663 2.81283C3.62567 2.93048 3.74331 3.07487 3.82888 3.23529C3.7754 3.41711 3.51872 3.51871 3.05882 3.54545C2.59893 3.57219 2.3369 3.72727 2.27807 4.00535C2.30481 4.25134 2.34759 4.52406 2.40642 4.81283C2.50802 5.27273 2.61497 5.73797 2.72727 6.19786C2.77005 6.49733 2.79144 6.7647 2.79144 6.99465C2.79144 7.24064 2.76471 7.47593 2.71658 7.70053C2.6631 7.92513 2.57754 8.13904 2.4492 8.35294C2.52406 8.20856 2.58289 8.04813 2.61497 7.87701C2.64706 7.70588 2.66845 7.54011 2.66845 7.37433C2.66845 7.13369 2.63636 6.86631 2.56684 6.56684C2.53476 6.40642 2.45989 6.15508 2.35294 5.82353C2.24599 5.49198 2.17112 5.22995 2.12834 5.04813C2.08556 4.86631 2.06417 4.6631 2.06417 4.4492C2.06417 4.23529 2.09626 4.04813 2.15508 3.86631C2.2139 3.68449 2.31551 3.49733 2.46524 3.31016C2.70588 3.19786 2.97861 3.14438 3.28877 3.14438C3.22995 3.08556 3.16043 3.03208 3.09091 2.98396C3.01604 2.93583 2.94118 2.91444 2.86631 2.91444C2.81283 2.91444 2.75401 2.93583 2.68449 2.97861L2.54545 3.14438C2.51337 3.08556 2.51337 3.01604 2.54545 2.94118C2.57754 2.86631 2.61497 2.79144 2.64706 2.72193L2.94118 2.54011C2.82353 2.22995 2.73262 2 2.6738 1.84492C2.5615 1.5615 2.40642 1.42246 2.19786 1.42246C2.1123 1.39572 2.03743 1.35829 1.96791 1.30481C1.8984 1.25134 1.85027 1.18716 1.82888 1.1016C1.82888 0.860961 1.90374 0.679144 2.05882 0.550801C2.31551 0.604277 2.50802 0.791444 2.63636 1.11765C2.82353 1.57754 2.94652 1.83957 2.99465 1.8984C3.04813 1.54011 3.09626 1.23529 3.14439 0.989304C3.19251 0.743315 3.28877 0.529411 3.43315 0.347592C3.52941 0.347592 3.60963 0.368984 3.67914 0.411765C3.74866 0.454546 3.81283 0.513369 3.87166 0.593583H3.85027ZM9.43315 9.48663C9.37968 9.59893 9.34225 9.67914 9.31551 9.73262C9.26203 9.83422 9.18717 9.8877 9.08556 9.8877C8.98396 9.90374 8.85561 9.89305 8.70588 9.85561C8.55615 9.81818 8.46524 9.79679 8.42781 9.79679C8.11765 10.2567 7.62567 10.6096 6.95187 10.8503C6.13904 11.0749 5.54545 11.246 5.16577 11.3743C5.39037 11.246 5.87166 11.0428 6.61497 10.7594C7.69519 10.3583 8.35294 9.82353 8.59358 9.15508C8.66845 9.09626 8.73797 9.04813 8.79144 9.01604C8.84492 8.98396 8.90909 8.96257 8.97861 8.96257C9.02139 8.96257 9.06952 8.97326 9.11765 9C9.18717 9.05347 9.24599 9.12299 9.28877 9.21925C9.3369 9.31551 9.37968 9.40107 9.42246 9.48663H9.43315ZM17.4438 2.62032C17.385 2.63636 17.3209 2.60962 17.2513 2.54545C17.1497 2.44385 17.0909 2.38503 17.0856 2.37968C17.1283 2.31016 17.1925 2.27807 17.2781 2.27807C17.3797 2.27807 17.4385 2.33155 17.4438 2.43315V2.62567V2.62032ZM18.1872 8.40642C18.0856 8.50802 17.9572 8.5615 17.8021 8.5615C17.7166 8.5615 17.6203 8.54011 17.5187 8.49733C17.3316 8.36898 17.1818 8.25134 17.0695 8.14973C16.9144 7.99465 16.8235 7.83957 16.8021 7.6738C17 7.63101 17.1925 7.60963 17.3797 7.60963C17.5668 7.60963 17.7166 7.64171 17.8556 7.70588C17.9947 7.77005 18.0963 7.87701 18.1658 8.02139C18.1765 8.08021 18.1925 8.17112 18.2192 8.28877C18.2192 8.34225 18.2086 8.37968 18.1925 8.40642H18.1872ZM10.3048 6.16043C9.93583 6.45989 9.5508 6.6631 9.14973 6.7754C9.14973 6.46524 9.17647 6.19786 9.23529 5.96257C9.28877 5.72727 9.41177 5.54545 9.59893 5.41711C9.71658 5.39037 9.83957 5.42781 9.95722 5.51872C10.0321 5.57754 10.1016 5.6631 10.1604 5.77005C10.2193 5.87701 10.2674 6.00535 10.2995 6.16043H10.3048ZM9.05882 9.49732C9 9.51337 8.93583 9.51337 8.87166 9.49198C8.80749 9.47059 8.72727 9.4492 8.63636 9.42246C8.71123 9.36364 8.7861 9.33155 8.85562 9.33155C8.8984 9.33155 8.93583 9.35294 8.97326 9.39572C8.97326 9.40642 9.00535 9.4385 9.06417 9.49732H9.05882Z" fill="white"/>
</svg>
