<svg width="20" height="10" viewBox="0 0 20 10" fill="none" xmlns="http://www.w3.org/2000/svg">
<path fill-rule="evenodd" clip-rule="evenodd" d="M17.9619 0.950317C17.9383 1.02493 17.9148 1.08384 17.8951 1.13097C17.8441 1.24485 17.7852 1.3391 17.7145 1.41371C17.6517 1.42156 17.5888 1.40192 17.5299 1.35872C17.471 1.31553 17.4278 1.26055 17.4043 1.19772C17.3925 1.12311 17.3846 1.06813 17.3846 1.03671C17.3846 0.911048 17.42 0.785389 17.4867 0.659726C17.5888 0.510502 17.6635 0.396614 17.7145 0.322002C17.7145 0.373052 17.6949 0.431965 17.6595 0.50265C17.5731 0.667583 17.526 0.777532 17.526 0.840363C17.526 0.89534 17.5378 0.950319 17.5653 1.00137C17.6203 1.09562 17.6792 1.14275 17.7341 1.14275C17.7577 1.14275 17.7813 1.12703 17.8048 1.09561C17.8284 1.0642 17.848 1.03279 17.8677 1.00137C17.8873 0.969954 17.9187 0.954248 17.9619 0.954248V0.950317ZM17.7263 2.53288C17.6831 2.63891 17.6203 2.74494 17.5378 2.84311C17.4553 2.94129 17.3729 3.04338 17.2943 3.14549L16.6621 2.71353C16.5993 2.76458 16.5286 2.84311 16.4461 2.94914C16.344 3.09444 16.2812 3.18083 16.2498 3.21225C16.0691 3.13764 15.9356 3.07874 15.8531 3.03161C15.6961 2.94522 15.6293 2.85097 15.6568 2.74887C15.8217 2.54074 15.916 2.42685 15.9395 2.39937C16.0141 2.32868 16.0887 2.29727 16.1673 2.29727C16.2537 2.29727 16.3361 2.34439 16.4108 2.43864C16.4422 2.48183 16.4775 2.51718 16.5129 2.53681C16.5521 2.56037 16.5835 2.56822 16.615 2.56822C16.6896 2.56822 16.7877 2.48968 16.9134 2.33653C17.0351 2.18338 17.1333 2.10484 17.2119 2.10484C17.2943 2.10484 17.3807 2.17553 17.475 2.31297C17.5182 2.34439 17.5653 2.3758 17.6163 2.41115C17.6674 2.44649 17.7027 2.48577 17.7302 2.52896L17.7263 2.53288ZM16.3401 0.0353412C15.3976 0.267032 14.4591 0.514428 13.5284 0.769681C12.5938 1.02886 11.6984 1.29196 10.8384 1.56292C10.5439 1.64931 10.2494 1.73572 9.96269 1.81818C9.61712 1.92421 9.38936 2.09699 9.28333 2.33653C9.32653 2.29726 9.36972 2.26193 9.41685 2.22266C11.5531 1.53152 13.7601 0.895346 16.0338 0.318083C16.0966 0.294521 16.1516 0.255248 16.2026 0.204198C16.2537 0.153147 16.3008 0.0981725 16.344 0.0353412H16.3401ZM14.5769 3.42823C14.5219 3.52247 14.4551 3.60495 14.3844 3.67956C14.3138 3.75417 14.2313 3.79737 14.1449 3.817C14.1056 3.83664 14.0664 3.84448 14.0232 3.84448C13.9054 3.84448 13.8111 3.78558 13.7483 3.66385C13.7169 3.58138 13.7012 3.5107 13.7012 3.44787C13.7012 3.33399 13.7365 3.2201 13.8033 3.09836C13.8739 2.98056 13.9407 2.86275 14.0114 2.74887C13.9603 2.86275 13.925 2.94914 13.9093 3.01197C13.8897 3.0748 13.8818 3.15334 13.8818 3.24759C13.8818 3.31042 13.8897 3.36932 13.9093 3.42823C13.9525 3.53033 14.0271 3.57745 14.1371 3.57745C14.1763 3.57745 14.2156 3.5696 14.2627 3.55389C14.3098 3.53819 14.3609 3.51855 14.4119 3.49106C14.463 3.46357 14.4905 3.43609 14.4905 3.39682C14.4905 3.37326 14.4826 3.34184 14.463 3.30649C14.4434 3.27115 14.4276 3.24367 14.4119 3.21618C14.3962 3.19262 14.3491 3.14942 14.2706 3.09445C14.192 3.03947 14.1528 2.98842 14.1528 2.94522C14.1528 2.92166 14.1763 2.88238 14.2274 2.83133C14.247 2.80777 14.2706 2.79206 14.302 2.79206C14.3255 2.79206 14.3609 2.80777 14.4002 2.83918C14.4394 2.8706 14.4787 2.89809 14.518 2.92558C14.6122 2.98841 14.6593 3.07087 14.6593 3.16905C14.6593 3.25151 14.6318 3.33399 14.5729 3.42431L14.5769 3.42823ZM19.9961 2.20302C19.9961 1.95169 19.9529 1.66111 19.8626 1.32731C19.7762 0.993522 19.6112 0.549774 19.3717 0C19.301 0.117809 19.2303 0.243464 19.1596 0.373054C19.0889 0.502644 19.0654 0.624385 19.0889 0.734339L19.4856 5.51344L19.5052 6.52267C19.3599 6.59728 19.2107 6.65226 19.0536 6.68368C18.8965 6.7151 18.7277 6.7308 18.5431 6.7308C18.2407 6.7308 17.9776 6.69153 17.7499 6.60907C17.8362 6.35774 17.9069 6.14176 17.9541 5.96505C18.0012 5.78441 18.0247 5.60377 18.0247 5.42313C18.0247 5.24249 17.9973 5.07363 17.9383 4.90477C17.8245 4.70842 17.6792 4.61418 17.4946 4.61418C17.1412 4.81052 16.8741 5.07756 16.6856 5.42313C16.4972 5.7687 16.4029 6.12605 16.4029 6.49911C16.0024 6.65619 15.5704 6.77793 15.1109 6.8604C14.6515 6.94679 14.192 6.98605 13.7365 6.98605C13.281 6.98605 12.7862 6.95464 12.3149 6.88788C11.8437 6.82112 11.4235 6.72295 11.0505 6.58944C10.8227 6.48734 10.6381 6.35382 10.4928 6.18496C10.324 5.98861 10.2376 5.78833 10.2376 5.5802C9.91557 5.91792 9.60141 6.25957 9.28726 6.59729C9.05949 6.82505 8.83173 6.93501 8.60004 6.93501C8.52543 6.93501 8.46652 6.935 8.43118 6.92715C8.26232 6.85254 8.13273 6.73865 8.04634 6.59336C7.95994 6.44413 7.90497 6.27527 7.88533 6.07892V4.9676C7.88533 3.70312 7.85392 2.70567 7.79501 1.97133C7.73611 1.23699 7.65757 0.628307 7.56332 0.153145C7.55154 0.141364 7.52405 0.153148 7.48871 0.192417C7.38268 0.27881 7.30414 0.380915 7.25702 0.49087C7.2099 0.600825 7.18633 0.718631 7.18633 0.844294C7.18633 0.969956 7.2099 1.11918 7.25309 1.30767C7.33949 1.69251 7.38661 1.94384 7.38661 2.0695C7.38661 2.13233 7.38661 2.17946 7.37876 2.21088C7.44944 2.68211 7.48871 3.21618 7.50442 3.817C7.52013 4.41783 7.53583 5.01865 7.55547 5.61555C7.5751 6.21637 7.62615 6.74258 7.71647 7.19418C7.77145 7.31984 7.86177 7.43373 7.97958 7.5319C8.09739 7.63401 8.21912 7.69684 8.33693 7.72825C8.36835 7.73611 8.41154 7.7361 8.47045 7.7361C8.69821 7.7361 8.92598 7.62223 9.15767 7.39839C9.32653 7.20204 9.49931 7.00962 9.67603 6.81328C9.67603 7.44944 9.96269 7.94031 10.5321 8.29373C10.6146 8.18771 10.6892 8.03062 10.7599 7.82249C10.8541 7.53975 10.9091 7.37482 10.9287 7.33163C11.2625 7.46907 11.612 7.56725 11.9733 7.63008C12.3385 7.68898 12.7351 7.7204 13.1592 7.7204C13.5559 7.7204 13.9446 7.69683 14.3334 7.64971C14.7182 7.60258 15.107 7.53583 15.4958 7.44551C15.6214 7.43373 15.8217 7.3709 16.1005 7.26094C16.3754 7.15099 16.5796 7.09601 16.7131 7.09601C16.7877 7.09601 16.8545 7.10386 16.9173 7.1235C16.9762 7.14313 17.0391 7.17848 17.1019 7.2256C17.3218 7.30807 17.5339 7.3709 17.742 7.41802C17.9501 7.46514 18.17 7.4887 18.4017 7.4887C18.602 7.4887 18.8023 7.45729 18.9947 7.39839C19.191 7.33948 19.3521 7.25309 19.4856 7.13921C19.6112 6.84469 19.6976 6.55802 19.7447 6.28313C19.7919 6.00825 19.8154 5.69409 19.8154 5.34067C19.8154 5.17573 19.8154 5.06185 19.8115 4.99509C19.8115 4.92833 19.7958 4.76732 19.7801 4.50814C19.7801 4.2686 19.7251 3.69919 19.6112 2.80384C19.5602 2.40722 19.5366 2.07736 19.5366 1.81425C19.5798 1.77498 19.623 1.73571 19.6701 1.69252C19.6937 1.73179 19.7487 1.81817 19.8311 1.95562C19.8861 2.05772 19.945 2.13627 20 2.1991L19.9961 2.20302ZM16.5561 8.42332C16.5639 8.49793 16.5443 8.5804 16.5011 8.66679C16.4814 8.6982 16.4304 8.78068 16.3401 8.91027C16.2537 8.91812 16.1791 8.88671 16.1202 8.82388C16.0613 8.76105 16.0141 8.6825 15.9827 8.58826C15.9827 8.45081 16.0063 8.32907 16.0495 8.22697C16.0927 8.12487 16.1673 8.011 16.2772 7.89319C16.2772 7.93246 16.2537 7.99528 16.2026 8.08168C16.1516 8.16807 16.128 8.24661 16.128 8.30945C16.128 8.35264 16.1398 8.39584 16.1673 8.44296C16.2066 8.54899 16.2655 8.61575 16.3479 8.63931C16.4029 8.64716 16.45 8.61182 16.4893 8.54113C16.5286 8.47045 16.5521 8.43117 16.5639 8.42332H16.5561ZM8.80031 1.81818C8.80817 1.73179 8.81209 1.65325 8.81602 1.58256C8.81602 1.51188 8.81995 1.45297 8.81995 1.40192C8.81995 1.20164 8.80424 1.02493 8.7689 0.875704C8.73356 0.72648 8.67465 0.585114 8.58433 0.451598C8.59611 0.400547 8.60789 0.365201 8.61182 0.349493C8.64324 0.274881 8.6825 0.231686 8.73356 0.215978C8.89063 0.475157 8.96917 0.761822 8.96917 1.08383C8.96917 1.34694 8.9142 1.59435 8.80031 1.81818ZM11.7769 3.34576C11.7691 3.40074 11.7298 3.43216 11.6552 3.43216C11.561 3.42038 11.4903 3.41253 11.4471 3.41253C11.3332 3.41253 11.2782 3.48321 11.2782 3.62851C11.2586 3.77773 11.2232 3.94266 11.1643 4.11938C11.0819 4.33143 11.023 4.49244 10.9837 4.59847C10.913 4.53563 10.8266 4.33536 10.7206 3.99371C10.6381 3.72275 10.5046 3.58923 10.3161 3.58923C10.2651 3.55782 10.2415 3.50677 10.2415 3.44001C10.2415 3.39681 10.2572 3.32613 10.2886 3.23188C10.3279 3.15727 10.3554 3.11015 10.375 3.09051C10.4261 3.03946 10.4771 3.03554 10.536 3.08266C10.6224 3.20833 10.7127 3.39289 10.7991 3.64029C10.913 3.95444 10.9837 4.14686 11.0151 4.21362C11.0976 3.9191 11.1643 3.69919 11.2232 3.55389C11.3253 3.29471 11.4706 3.15335 11.667 3.12979C11.7063 3.1612 11.7377 3.18868 11.7652 3.20832C11.7927 3.23188 11.8084 3.25545 11.8084 3.27901C11.8084 3.29079 11.8005 3.31435 11.7809 3.34576H11.7769ZM12.6919 5.46632C12.6919 5.56057 12.6723 5.64697 12.637 5.72943C12.6016 5.8119 12.5388 5.87866 12.4563 5.92578C12.4131 5.92578 12.3699 5.90221 12.3228 5.85902C12.2757 5.81582 12.2521 5.77262 12.2364 5.7255C12.2285 5.65482 12.2285 5.60769 12.2285 5.57627C12.2285 5.29353 12.2953 5.03043 12.4249 4.78303C12.4249 4.80659 12.4131 4.88514 12.3935 5.01865C12.3699 5.15217 12.3621 5.25034 12.3621 5.32102C12.3621 5.45454 12.4013 5.56057 12.4759 5.64304C12.527 5.65089 12.5663 5.63125 12.5977 5.58805C12.6291 5.54486 12.6605 5.50166 12.6919 5.46632ZM5.66267 1.81818C5.63126 1.92028 5.60377 2.00275 5.57628 2.07343C5.55272 2.14412 5.5056 2.20302 5.44276 2.25407C5.37993 2.24622 5.32496 2.22265 5.27783 2.17553C5.23071 2.1284 5.18359 2.06557 5.14039 1.99096C5.14039 1.75927 5.20322 1.50795 5.32888 1.23699C5.43491 1.0053 5.54487 0.773609 5.65875 0.537991C5.53308 0.891418 5.41135 1.23699 5.28961 1.58256C5.28961 1.66503 5.30532 1.73571 5.34066 1.79854C5.37601 1.86137 5.43491 1.91635 5.52523 1.9674L5.59984 1.81818H5.65482H5.66267ZM4.20185 0.667576L4.11545 0.911045C4.0644 0.867849 4.01335 0.8168 3.95445 0.76575C3.89554 0.714699 3.84057 0.687218 3.78559 0.687218C3.73454 0.781465 3.70312 0.989588 3.69134 1.30767C3.67956 1.62576 3.60495 1.83389 3.47536 1.92814C3.42038 1.86531 3.34577 1.72001 3.25545 1.49617C3.16513 1.26841 3.07088 1.14667 2.97663 1.12704C2.81956 1.1506 2.71746 1.11525 2.67426 1.01315C2.67426 0.918903 2.68997 0.828586 2.71746 0.74612C2.74494 0.663654 2.79599 0.589038 2.86275 0.534061C3.01983 0.616527 3.15335 0.777533 3.25938 1.01315C3.4086 1.33909 3.50285 1.52758 3.54212 1.57863C3.56175 1.37836 3.58531 1.17023 3.61673 0.950317C3.64814 0.730408 3.71098 0.553693 3.80522 0.408395C3.89162 0.396614 3.97016 0.412324 4.04084 0.459447C4.11153 0.506571 4.16258 0.573337 4.20185 0.663657V0.667576ZM4.02121 3.34576C3.94659 3.5107 3.89162 3.63243 3.8602 3.7149C3.78951 3.86412 3.70705 3.94659 3.60495 3.95837C3.58139 3.90732 3.48714 3.8445 3.33006 3.76988C3.17298 3.69527 3.09444 3.62457 3.09444 3.56174C3.09444 3.50677 3.13371 3.44001 3.20833 3.36539C3.2633 3.27115 3.31828 3.18083 3.36933 3.09836C3.42038 3.01197 3.46358 2.957 3.50285 2.93344C3.58924 2.97271 3.68349 3.02768 3.77773 3.10229C3.82093 3.14156 3.9034 3.2201 4.02121 3.34576ZM9.46004 8.07775C9.43648 8.16021 9.40899 8.24269 9.38543 8.33301C9.34223 8.43511 9.2794 8.49401 9.19694 8.51364C9.04771 8.51364 8.9299 8.45867 8.84744 8.34479C8.68251 8.58433 8.43511 8.77675 8.10131 8.91812C7.96387 8.98095 7.65364 9.08305 7.1667 9.22049C7.68898 8.9299 8.21127 8.64716 8.72963 8.36442C8.78461 8.26232 8.83173 8.18377 8.871 8.1288C8.94168 8.01492 9.03593 7.90496 9.16159 7.79893C9.24406 7.7793 9.30689 7.80679 9.35009 7.87355C9.3815 7.94423 9.41685 8.01099 9.45219 8.08168L9.46004 8.07775ZM5.09719 6.19281C5.09719 6.29884 5.07756 6.39702 5.03436 6.49126C4.99509 6.58158 4.93226 6.65226 4.84979 6.70331C4.8066 6.69153 4.75947 6.6719 4.71235 6.64049C4.66523 6.613 4.63774 6.58158 4.63381 6.54623C4.62596 6.51089 4.62596 6.4834 4.62596 6.45984V6.41665C4.62596 6.29099 4.65737 6.16139 4.72413 6.0318C4.79089 5.89829 4.85372 5.77263 4.91655 5.64697C4.8655 5.82368 4.81445 6.00039 4.76733 6.17318C4.76733 6.27528 4.8066 6.35381 4.88121 6.40879C4.92441 6.41664 4.95975 6.3813 4.99116 6.31061C5.02258 6.23993 5.054 6.20066 5.10112 6.19281H5.09719ZM6.34989 4.61025C6.38131 4.57098 6.39702 4.51992 6.39702 4.44924C6.39702 4.34714 6.33418 4.19399 6.20852 3.98586C6.05144 3.72275 5.96112 3.56567 5.93363 3.51462C5.86295 3.54604 5.80012 3.62066 5.74514 3.74239C5.65875 3.92303 5.61162 4.01728 5.60377 4.02513C5.78441 4.91655 5.96898 5.80796 6.14962 6.70331C5.70194 7.10386 5.23464 7.43372 4.73984 7.68505C4.24504 7.93637 3.70705 8.13273 3.12193 8.27802C2.89024 8.32122 2.72531 8.34871 2.62714 8.35264C2.52896 8.36049 2.41901 8.36049 2.29334 8.36049C1.93599 8.36049 1.62576 8.30552 1.35873 8.19949C1.05242 8.07383 0.801099 7.87355 0.612606 7.59474C0.506578 7.45729 0.431965 7.31592 0.392696 7.17455C0.353426 7.03318 0.329865 6.86432 0.329865 6.6719C0.329865 6.44021 0.369134 6.17711 0.443746 5.87866C0.486943 5.69802 0.561555 5.45454 0.67151 5.15217L0.887493 5.19929C1.03279 5.11682 1.14275 4.9087 1.21736 4.56705C1.26841 4.34715 1.30375 4.20577 1.33124 4.14294C1.28804 4.17435 1.24877 4.22933 1.21736 4.30394C1.18594 4.37856 1.15453 4.42961 1.12311 4.45317C1.07206 4.46495 1.02886 4.46102 0.989594 4.44531C0.950324 4.42567 0.907127 4.39426 0.856077 4.35107C0.773611 4.16257 0.734341 3.96623 0.734341 3.76595C0.734341 3.49499 0.801099 3.20833 0.930689 2.8981C1.00137 2.73317 1.13882 2.47398 1.34695 2.11662C1.07599 2.48183 0.867858 2.83133 0.714706 3.1612C0.526213 3.57745 0.431965 3.97015 0.431965 4.33928C0.431965 4.62203 0.486943 4.88906 0.592971 5.14039C0.435892 5.45454 0.31023 5.75299 0.21991 6.03573C0.12959 6.31847 0.0589044 6.62871 0.00785391 6.97035C-7.31453e-09 7.02533 0 7.10779 0 7.21382C0 7.53583 0.0706853 7.82643 0.208129 8.08954C0.345572 8.35264 0.549774 8.5804 0.820734 8.76889C1.05242 8.87492 1.29197 8.95739 1.53151 9.00844C1.77499 9.06342 2.01453 9.08698 2.25407 9.08698C2.49362 9.08698 2.73316 9.06342 2.96093 9.02022C3.18869 8.97703 3.42038 8.91419 3.65993 8.83173C4.09189 8.67465 4.53171 8.45081 4.97153 8.16414C5.36815 7.90496 5.76085 7.60652 6.14962 7.26094C6.2635 7.10386 6.34204 6.93501 6.38916 6.75829C6.43629 6.57765 6.45985 6.38523 6.45985 6.1771C6.45985 5.91399 6.42058 5.61554 6.34596 5.28175C6.30669 5.13253 6.23601 4.86157 6.12998 4.4728C6.20067 4.516 6.27135 4.55919 6.34596 4.60632L6.34989 4.61025ZM3.60887 5.74906L3.52248 5.99253L3.23189 5.85902C3.18869 5.94541 3.14942 6.07107 3.118 6.22815C3.05517 6.56194 3.0002 6.77008 2.957 6.8604C2.85097 6.79757 2.74102 6.62085 2.62714 6.33419C2.5643 6.17711 2.49362 6.06322 2.41901 5.99646C2.39544 6.04751 2.34832 6.07107 2.27764 6.07107C2.20695 6.07107 2.1559 6.05143 2.11663 6.01609C2.10878 5.99253 2.10878 5.95327 2.10878 5.90222C2.10878 5.80797 2.12448 5.72943 2.15197 5.66267C2.17946 5.59591 2.23051 5.537 2.30905 5.48988C2.45435 5.58413 2.57608 5.73336 2.67819 5.94149C2.76065 6.12998 2.84312 6.31454 2.93344 6.49911C2.97271 6.43628 3.01198 6.30276 3.05517 6.10249C3.12586 5.76869 3.25152 5.60377 3.44002 5.60377L3.60887 5.75299V5.74906ZM17.6909 6.0318C17.471 6.1771 17.2472 6.24779 17.0234 6.24779C16.9605 6.19282 16.8977 6.12998 16.8309 6.06714C16.7642 6.00431 16.7328 5.94541 16.7328 5.88651C16.7328 5.84331 16.7563 5.79619 16.8074 5.74514C16.8624 5.65875 16.9448 5.58021 17.0469 5.50952C17.149 5.43884 17.2472 5.40742 17.3336 5.40742C17.4828 5.40742 17.581 5.49774 17.6242 5.68231L17.6909 6.0318ZM9.23621 8.20734C9.23621 8.20734 9.19301 8.23483 9.16159 8.23483C9.1184 8.23483 9.08698 8.21913 9.06735 8.18771L9.02022 8.14058C9.032 8.08953 9.05949 8.06596 9.09484 8.06596C9.12625 8.06596 9.15767 8.08168 9.18908 8.1131C9.2205 8.14451 9.23621 8.17593 9.23621 8.20734Z" fill="white"/>
</svg>
