<svg width="20" height="12" viewBox="0 0 20 12" fill="none" xmlns="http://www.w3.org/2000/svg">
<path fill-rule="evenodd" clip-rule="evenodd" d="M18.4576 0.796586C18.3559 0.855908 18.2627 0.966081 18.1695 1.14405C18.0763 1.32201 17.9915 1.43219 17.9153 1.49151L16.661 0.932183C16.4661 1.19489 16.2797 1.44914 16.0847 1.71186C15.6864 1.61863 15.3475 1.48303 15.0508 1.30507C15.0508 1.13557 15.1186 0.957622 15.2458 0.762707C15.3729 0.567791 15.5254 0.432189 15.6949 0.355918C16.0424 0.457613 16.3983 0.601671 16.7627 0.796586L17.5593 0C17.7542 0.0677966 17.9576 0.177944 18.1695 0.322012C18.4661 0.525402 18.5593 0.686417 18.4576 0.796586ZM13.3051 6.15252C13.2797 6.34744 13.2542 6.48303 13.2203 6.57625C13.1525 6.74574 13.0508 6.85592 12.9153 6.89829C12.8475 6.90677 12.7797 6.88135 12.7203 6.82202C12.661 6.7627 12.6186 6.6949 12.6017 6.63558C12.5847 6.57626 12.5763 6.48305 12.5763 6.35593C12.5763 6.11864 12.6102 5.88982 12.678 5.66101C12.7034 5.58474 12.7881 5.36439 12.9322 5.01693C12.9407 5.11863 12.9153 5.28813 12.8559 5.52541C12.7966 5.7627 12.7627 5.92371 12.7627 6.01693C12.7627 6.19489 12.8136 6.34745 12.9153 6.45762C13.0085 6.4661 13.0847 6.44067 13.1271 6.37287C13.178 6.2627 13.2119 6.18642 13.2373 6.15252H13.3051ZM8.28814 1.40676C8.28814 1.67794 8.18644 1.91525 7.98305 2.11864C7.87288 2.14407 7.76271 2.11016 7.65254 2.02541C7.54237 1.94066 7.48305 1.83897 7.47458 1.71186C7.44915 1.46609 7.48305 1.21185 7.57627 0.966088C7.72034 0.661003 7.82203 0.4322 7.88135 0.288132C7.90678 0.381353 7.88135 0.533893 7.81356 0.762707C7.74576 0.99152 7.71186 1.14406 7.71186 1.23728C7.71186 1.41525 7.77119 1.56778 7.88135 1.67795C7.98305 1.71185 8.0678 1.67794 8.13559 1.5932C8.20339 1.49998 8.25424 1.44066 8.28814 1.40676ZM13.2034 2.05083C13.1441 1.97456 13.0593 1.93219 12.9492 1.92372C12.839 1.92372 12.7119 1.92372 12.5763 1.92372C11.3814 2.28813 10.4237 2.54235 9.72034 2.70337C8.60169 2.94913 7.60169 3.07625 6.71186 3.07625C5.67797 3.07625 4.72881 2.91523 3.87288 2.60168C3.77119 2.70337 3.72034 2.79659 3.72034 2.88981C3.72034 3.01693 3.87288 3.18643 4.18644 3.40677C4.5 3.62711 4.66102 3.81354 4.68644 3.97455C4.75424 4.08472 4.78814 4.23727 4.78814 4.43219C4.78814 4.53388 4.77119 4.66948 4.74576 4.83049C4.72034 4.99151 4.68644 5.1271 4.65254 5.2288C4.82203 5.05083 4.9322 4.86441 4.99152 4.68644C5.0339 4.45763 5.05932 4.27965 5.05932 4.14405C5.05932 3.81355 4.9661 3.5593 4.78814 3.36438C5.0678 3.4237 5.28814 3.45761 5.44068 3.47456C5.59322 3.4915 5.86441 3.49998 6.24576 3.49998C6.73729 3.49998 7.16949 3.47456 7.54237 3.42371C7.91525 3.37286 8.35593 3.28814 8.87288 3.17797C9.07627 3.13559 9.72881 2.97455 10.8305 2.70337C11.5763 2.50845 12.2288 2.37287 12.7712 2.2966C12.8305 2.35592 12.8559 2.3983 12.8559 2.4322C12.8559 2.47457 12.8136 2.55083 12.7203 2.661C12.6271 2.77117 12.5847 2.84745 12.5847 2.90677C12.7627 2.81355 12.9068 2.69492 13.0254 2.54237C13.1441 2.38983 13.2119 2.22881 13.2119 2.05932L13.2034 2.05083ZM9.79661 5.28813C9.76271 5.3983 9.73729 5.5 9.71186 5.58474C9.68644 5.66949 9.62712 5.67796 9.52542 5.61017C9.38136 5.47457 9.22881 5.39829 9.0678 5.38982C9 5.7288 8.94068 6.0593 8.88136 6.38981C8.78813 6.76269 8.65254 7.05931 8.45763 7.27117C8.28813 6.82202 8.11864 6.3644 7.94915 5.8983C7.94068 5.99152 7.8983 6.03389 7.83051 6.03389C7.80508 6.03389 7.76271 6.02541 7.69491 5.99999C7.62712 5.97456 7.57627 5.96608 7.54237 5.96608C7.4322 5.89829 7.37288 5.82202 7.37288 5.7288C7.37288 5.65252 7.40678 5.55082 7.48305 5.43218C7.55932 5.31354 7.59322 5.24574 7.61017 5.22032C7.72881 5.08472 7.85593 5.05931 7.98305 5.15253C8.13559 5.34745 8.26271 5.58472 8.34746 5.88133C8.4322 6.17794 8.52542 6.4576 8.61017 6.72879C8.68644 6.5932 8.75424 6.30508 8.81356 5.87287C8.87288 5.44067 9 5.12712 9.18644 4.94915C9.33051 4.99152 9.44915 5.04237 9.5339 5.08475C9.61864 5.12712 9.70339 5.19491 9.77966 5.28813H9.79661ZM19.661 5.28813C19.4492 4.80508 19.1441 4.38983 18.7458 4.05085C18.2966 3.66949 17.822 3.47456 17.322 3.47456C16.8814 3.61862 16.5339 3.94067 16.2712 4.44067C16.161 4.65253 15.9915 5.11017 15.7797 5.79661C15.9153 6.50847 16.4153 6.87288 17.2712 6.88135C18.1271 6.88983 18.6525 6.9237 18.8305 6.96608C18.9915 7.04235 19.1186 7.16101 19.2119 7.30508C19.3051 7.44915 19.3305 7.60168 19.2712 7.74575C17.9068 8.61863 16.3983 9.29659 14.7458 9.77964C13.0932 10.2627 11.4237 10.5085 9.72881 10.5085C7.83051 10.5085 6.11864 10.3644 4.59322 10.0678C2.83898 9.72879 1.31356 9.19491 0 8.47458C0.00847458 8.55085 0.0508477 8.65253 0.118644 8.77965C0.152543 8.83897 0.20339 8.92372 0.271186 9.05084C1.01695 9.72881 1.87288 10.2797 2.83051 10.6949C3.72034 11.0763 4.68644 11.3559 5.72881 11.5254C6.47458 11.6356 7.27119 11.6949 8.11864 11.6949C8.77119 11.6949 9.42373 11.6695 10.0593 11.6102C10.6949 11.5508 11.339 11.4746 11.983 11.3729C12.6271 11.2712 13.2966 11.1356 13.9831 10.9576C14.6695 10.7797 15.3475 10.5847 16.0169 10.3729C16.6864 10.161 17.2966 9.89828 17.8475 9.5932C18.4915 9.24574 19.0424 8.83896 19.5085 8.37286C19.6864 8.16099 19.8136 7.94067 19.8898 7.72881C19.9661 7.51694 20 7.2627 20 6.98304C20 6.70338 19.9746 6.43218 19.9153 6.17795C19.8559 5.92371 19.7712 5.62711 19.661 5.28813ZM2.9322 5.94914C2.95763 6.09321 2.94068 6.23729 2.88983 6.38135C2.83898 6.52542 2.75424 6.62711 2.62712 6.69491C2.52542 6.70338 2.44915 6.68642 2.38983 6.6271C2.33051 6.56778 2.28814 6.48305 2.25424 6.35593C2.25424 6.11864 2.28814 5.87288 2.35593 5.61017C2.38983 5.48305 2.4661 5.25423 2.59322 4.91524C2.6017 5.00846 2.59322 5.11015 2.57627 5.22032C2.5 5.58472 2.45763 5.78811 2.45763 5.83049C2.45763 6.04235 2.55085 6.18642 2.72881 6.25422C2.79661 6.15252 2.86441 6.05084 2.9322 5.94914ZM18.5593 5.5932C18.4661 5.60167 18.339 5.61864 18.1695 5.63559C18 5.65254 17.839 5.66101 17.678 5.66101C17.4153 5.66101 17.1949 5.62711 17 5.55084C16.8051 5.47457 16.661 5.34745 16.5593 5.15253C16.4915 5.05084 16.5 4.95762 16.5763 4.8644C16.6525 4.77118 16.7542 4.70337 16.8644 4.64405C16.9068 4.63558 16.9746 4.62711 17.0678 4.62711C17.3475 4.62711 17.6271 4.72879 17.8983 4.93218C18.1017 5.0932 18.322 5.31354 18.5593 5.5932Z" fill="white"/>
</svg>
