<svg width="20" height="9" viewBox="0 0 20 9" fill="none" xmlns="http://www.w3.org/2000/svg">
<path fill-rule="evenodd" clip-rule="evenodd" d="M18.8296 0.71142C18.8124 0.757318 18.8067 0.826165 18.8067 0.917961C18.8067 0.958122 18.8067 1.0155 18.8181 1.09008C18.8239 1.16466 18.8296 1.22203 18.8296 1.26219C18.8296 1.39415 18.7894 1.49742 18.7149 1.58347L18.5772 1.44579C18.3018 1.76707 17.9862 2.04819 17.6248 2.29489C17.3494 2.47849 16.988 2.67355 16.5347 2.88009C17.183 2.38095 17.8371 1.88182 18.4968 1.37694C18.4739 1.32531 18.3993 1.25645 18.2731 1.18187C18.1469 1.10728 18.0838 1.03844 18.0838 0.975328C18.0838 0.946642 18.101 0.895007 18.1354 0.831897C18.1698 0.768788 18.2272 0.705677 18.3133 0.642567C18.3591 0.613881 18.4452 0.567991 18.5657 0.516356C18.6288 0.499145 18.6804 0.516355 18.7263 0.550778C18.7722 0.590939 18.8067 0.642573 18.8296 0.71142ZM18.9673 2.77682L18.3936 2.39817L17.8657 2.75387C17.8141 2.81698 17.7854 2.86288 17.7854 2.90304C17.7854 2.96615 17.86 3.02352 18.0149 3.08089C18.1698 3.13826 18.2559 3.19564 18.2788 3.24728C18.3477 3.29317 18.405 3.31612 18.4509 3.31612C18.537 3.31612 18.6288 3.2358 18.7263 3.06942C18.8239 2.90304 18.9042 2.80551 18.9673 2.77682ZM16.8904 1.46873C16.8503 1.46873 16.8158 1.49742 16.7871 1.56053C16.7355 1.65806 16.6724 1.70396 16.6036 1.68675C16.5577 1.6179 16.5347 1.53758 16.5347 1.44579C16.5347 1.3712 16.5519 1.26793 16.5806 1.14745C16.6093 1.02696 16.6265 0.946645 16.6265 0.906484C16.6036 0.952382 16.5634 1.03844 16.5003 1.15892C16.4142 1.34252 16.3741 1.49742 16.3741 1.6179C16.3741 1.73839 16.4142 1.85313 16.4888 1.95066C16.6208 1.95066 16.7126 1.89329 16.7757 1.77855C16.8158 1.68101 16.8503 1.57774 16.8904 1.46873ZM14.0103 1.58347C13.9816 1.69248 13.9587 1.77854 13.9415 1.85312C13.9243 1.92771 13.8841 1.97935 13.8153 2.00803H13.6431C13.58 2.00803 13.5341 1.99083 13.5055 1.95066C13.4309 2.0482 13.3678 2.11704 13.3219 2.1572C13.2358 2.22604 13.1555 2.26047 13.0694 2.26047C13.0293 2.26047 12.9776 2.249 12.9088 2.22605C12.8399 2.2031 12.794 2.15147 12.7711 2.06541C12.7481 1.97935 12.7309 1.91623 12.7252 1.87034C12.7252 1.73838 12.7424 1.62364 12.7768 1.51463C12.8112 1.40562 12.8686 1.31383 12.9432 1.23924C12.9432 1.27941 12.9375 1.34825 12.9203 1.44579C12.903 1.54332 12.8973 1.61791 12.8973 1.6638C12.8973 1.79576 12.9489 1.88756 13.0465 1.95066C13.1211 1.97361 13.1842 1.97361 13.2301 1.95066C13.276 1.92198 13.3276 1.87608 13.3907 1.80723V1.52037C13.3907 1.42858 13.3964 1.34825 13.4137 1.2794C13.4309 1.21055 13.4653 1.15892 13.5169 1.11876C13.5112 1.27366 13.5055 1.38267 13.5055 1.45152C13.5055 1.58348 13.5399 1.66954 13.6087 1.71544C13.6259 1.73265 13.6546 1.73838 13.7063 1.73838H13.8153C13.8382 1.68675 13.8382 1.60069 13.8153 1.48021C13.7866 1.35973 13.7751 1.28514 13.7751 1.25646C13.7751 1.16466 13.8153 1.10155 13.9013 1.06139L14.0161 1.58922L14.0103 1.58347ZM15.4102 2.13425C14.1193 2.62192 12.8285 3.11532 11.5433 3.60298C11.4687 3.62593 11.4056 3.67183 11.3655 3.73494C11.3253 3.79805 11.2851 3.88411 11.245 3.98164C11.5433 3.821 11.8876 3.66609 12.2777 3.52266C12.4613 3.45381 12.817 3.33333 13.3448 3.15548C13.4137 3.12679 13.6833 3.01779 14.1595 2.8342C14.7332 2.61044 15.152 2.38095 15.4102 2.13425ZM11.3482 1.56053C11.3081 1.66954 11.2794 1.74986 11.2565 1.80149C11.2048 1.9105 11.1474 1.97935 11.0958 2.00803C11.0499 2.01377 11.0098 1.99082 10.9696 1.93919C10.9639 1.93345 10.9352 1.88755 10.8893 1.80149C10.8835 1.76133 10.8778 1.7097 10.8778 1.64085C10.8778 1.4171 10.9524 1.21056 11.0958 1.02123C11.0729 1.17613 11.0499 1.3253 11.027 1.46873C11.027 1.58348 11.0614 1.66954 11.1302 1.73265C11.1761 1.73838 11.2163 1.71543 11.245 1.65806C11.2737 1.60069 11.3081 1.56627 11.3482 1.56053ZM9.19105 0C9.09352 0.120482 8.97303 0.223757 8.83534 0.309816C8.69765 0.395874 8.54848 0.470455 8.3821 0.539301C8.21572 0.608148 8.06081 0.676995 7.90591 0.745842C7.751 0.814689 7.60757 0.900749 7.46988 0.998282C7.54446 0.854851 7.642 0.734369 7.75674 0.64831C7.87149 0.562252 8.02639 0.476195 8.22719 0.390136C8.43947 0.315552 8.60011 0.258178 8.70912 0.218018C8.90992 0.143434 9.07057 0.0688468 9.19105 0ZM13.276 4.37177C13.2473 4.48078 13.2186 4.54963 13.1899 4.58405C13.1612 4.61848 13.1211 4.61847 13.0694 4.57831C13.0178 4.52668 12.9375 4.49226 12.8285 4.47504C12.7596 4.75043 12.708 4.95123 12.6793 5.08319C12.6162 5.31842 12.5359 5.50201 12.4383 5.62249C12.4096 5.57086 12.3523 5.45037 12.2719 5.27252C12.1916 5.09467 12.1285 4.97418 12.0826 4.91107H11.8302C11.813 4.79633 11.8302 4.68732 11.8589 4.58979C11.8933 4.49225 11.9507 4.41767 12.0367 4.37177C12.1285 4.46357 12.2146 4.59552 12.3006 4.76764C12.3867 4.93976 12.467 5.10614 12.5416 5.26679C12.5703 5.07746 12.6047 4.88239 12.6449 4.68159C12.708 4.4521 12.8055 4.28571 12.9432 4.17671C13.0178 4.21687 13.0866 4.24555 13.1383 4.2685C13.1899 4.29145 13.2358 4.32587 13.276 4.37177ZM19.9082 6.95353C19.9713 6.81009 20 6.66667 20 6.52898C20 6.37407 19.9598 6.19047 19.8853 5.9782C19.8566 5.8864 19.7877 5.72003 19.6787 5.47333C19.5353 5.22089 19.3746 5.02008 19.1968 4.87665C18.996 4.71027 18.778 4.61274 18.5313 4.58979C18.3018 4.63569 18.101 4.75617 17.9231 4.95697C17.7166 5.1922 17.5445 5.55365 17.4068 6.03557C17.4814 6.39702 17.7051 6.61503 18.0723 6.68962C18.2788 6.72978 18.6059 6.7642 19.0591 6.80436C19.2714 6.86747 19.3976 6.91337 19.432 6.94206C19.4664 6.97074 19.5009 7.07401 19.5295 7.24039C19.0247 7.47561 18.3993 7.65921 17.6592 7.79117C17.0109 7.8887 16.3626 7.98623 15.72 8.07803C16.0126 7.98049 16.2536 7.78543 16.4429 7.49283C16.6093 7.23465 16.7183 6.94206 16.7642 6.62077C16.6552 6.39128 16.4716 6.19048 16.2019 6.0241C16.0356 5.91509 15.7946 5.80035 15.4791 5.66839C15.3586 5.59954 15.2438 5.55364 15.1348 5.53069C15.0258 5.50774 14.9111 5.49627 14.7906 5.49627C14.2857 5.49627 13.689 5.8692 13.0006 6.62077C12.5186 7.1486 12.2031 7.47562 12.0597 7.5961L11.5892 7.33218C11.4974 7.2576 11.4228 7.17155 11.3655 7.08549C11.3081 6.99943 11.2794 6.90763 11.2794 6.81584C11.2794 6.76994 11.2794 6.72978 11.2909 6.70109C11.1819 6.76994 11.0729 6.89042 10.9581 7.0568C10.8032 7.28629 10.7114 7.41824 10.6827 7.44693C10.4991 7.64773 10.2869 7.74527 10.0402 7.74527C9.94263 7.74527 9.85083 7.72805 9.76477 7.69937C9.65577 7.64773 9.57544 7.57889 9.51807 7.49283C9.4607 7.40677 9.40333 7.29776 9.35169 7.16007V5.49627C9.35169 4.46931 9.32874 3.5743 9.28285 2.81125C9.23695 2.0482 9.13941 1.31383 8.99598 0.608145C8.8755 0.814686 8.75502 1.01549 8.64028 1.21629C8.74928 2.08835 8.8296 2.86862 8.88698 3.56283C8.94435 4.25703 8.97303 4.92829 8.97303 5.57659C8.97303 5.5938 8.97877 5.7315 8.99598 6.00115C9.0132 6.2708 9.01893 6.45439 9.01893 6.5634C9.01893 6.74699 9.00172 6.91337 8.9673 7.06828C8.93287 7.22318 8.8755 7.35514 8.78944 7.46988C8.57717 7.72806 8.31325 7.86001 7.9977 7.86001C7.90017 7.86001 7.80264 7.84854 7.71084 7.82559C7.61905 7.78543 7.55594 7.73379 7.52151 7.67068C7.48709 7.60757 7.46988 7.53299 7.46988 7.44693C7.47562 7.37808 7.48709 7.30923 7.49283 7.24039C7.49857 7.17154 7.5043 7.10843 7.5043 7.04532C7.5043 6.95353 7.48135 6.87895 7.44119 6.82731C7.40103 6.77568 7.32071 6.74125 7.20597 6.73552C6.40849 7.01664 5.61675 7.3035 4.83075 7.58462C4.44636 7.69363 4.07917 7.77969 3.71773 7.84854C3.35628 7.91739 3.01205 7.95181 2.68503 7.95181C2.249 7.95181 1.84739 7.88296 1.48021 7.74527C1.11302 7.60757 0.803213 7.38382 0.550775 7.07975C0.407344 6.87894 0.33276 6.61504 0.33276 6.28801C0.33276 6.06426 0.37292 5.85772 0.447504 5.66839C0.281125 5.98394 0.143431 6.29375 0.0458981 6.59782C0.0401609 6.64372 0.0286863 6.70683 0.0172118 6.78715C0.00573735 6.86747 0 6.94205 0 7.0109C0 7.46414 0.160643 7.81985 0.481928 8.07803C0.757315 8.30178 1.04991 8.45669 1.35399 8.54848C1.65806 8.64028 2.00229 8.68617 2.38669 8.68617C2.77108 8.68617 3.23006 8.6288 3.74068 8.51405C4.10212 8.43947 4.52668 8.32473 5.01434 8.16982C5.11188 8.14114 5.49053 7.98623 6.13884 7.71084C6.58061 7.52152 6.965 7.42398 7.28629 7.42398C7.26334 7.56741 7.25186 7.67068 7.24613 7.72806C7.24613 7.78543 7.24613 7.85427 7.24613 7.94033C7.24613 8.05507 7.2576 8.15261 7.27481 8.23293C7.29202 8.31326 7.32645 8.38784 7.37235 8.45669C7.44693 8.53127 7.53873 8.57716 7.64773 8.59437C7.75674 8.61159 7.89443 8.62306 8.06081 8.64027C8.2903 8.61159 8.49684 8.50258 8.68617 8.32472C8.8755 8.14687 8.99598 7.94033 9.04762 7.71084L9.19679 8.10097C9.31153 8.35341 9.52381 8.49684 9.83936 8.52553C10.109 8.52553 10.35 8.40505 10.5737 8.15835C10.7057 8.02065 10.8663 7.78542 11.0557 7.44693C11.1245 7.46988 11.1933 7.57315 11.2565 7.751C11.3196 7.92885 11.3941 8.04934 11.4802 8.10097C11.5204 8.15261 11.5376 8.20425 11.5376 8.25015C11.5376 8.27883 11.4745 8.41078 11.354 8.64027C11.3081 8.72633 11.2966 8.79518 11.3196 8.85829L11.813 8.35341C12.14 8.47389 12.5301 8.53701 12.9719 8.53701C13.1956 8.53701 13.4596 8.51979 13.7636 8.47963C14.0677 8.43947 14.3259 8.40505 14.5324 8.36489C14.7676 8.45095 15.0201 8.51405 15.2783 8.55995C15.2955 8.55995 15.5479 8.59438 16.047 8.66323C16.7986 8.54848 17.5445 8.43373 18.296 8.31899C18.7091 8.22146 19.0361 8.07802 19.2828 7.89443C19.5812 7.66494 19.7935 7.34939 19.9139 6.95353H19.9082ZM7.33219 3.55708C7.33219 3.63167 7.31497 3.71199 7.28055 3.79231C7.24613 3.87263 7.20023 3.95869 7.14859 4.05049C7.10843 4.07343 7.06254 4.08491 7.0109 4.08491C6.95927 4.08491 6.91337 4.0677 6.88468 4.02754C6.856 3.96443 6.83305 3.89558 6.81583 3.80952C6.79862 3.72346 6.79289 3.64314 6.79289 3.56856C6.79289 3.38497 6.82157 3.20712 6.88468 3.035C6.94779 2.86288 7.03385 2.67355 7.14859 2.46701C7.14286 2.48996 7.1027 2.61618 7.02811 2.85141C6.95353 3.08663 6.91911 3.26449 6.91911 3.39644C6.91911 3.55708 6.965 3.69478 7.0568 3.80952C7.14286 3.83247 7.20023 3.79805 7.24039 3.70626C7.28055 3.61446 7.30924 3.56282 7.33219 3.55708ZM3.67183 0.860585C3.67183 0.860585 3.68904 0.923693 3.67183 0.975328C3.65462 1.02696 3.64314 1.07286 3.62593 1.11302C3.55135 1.10729 3.47103 1.11302 3.39071 1.13024C3.31038 1.14745 3.25875 1.19908 3.2358 1.27367C3.2358 1.48021 3.22433 1.65232 3.20711 1.79001C3.1899 1.92771 3.14974 2.0654 3.08663 2.2031C2.9891 2.13999 2.8973 2.02524 2.82272 1.84739C2.72519 1.62364 2.6506 1.48594 2.6047 1.42283C2.6047 1.46873 2.57602 1.49168 2.51291 1.49168H2.44406C2.41538 1.47447 2.39243 1.46873 2.38669 1.46873C2.32358 1.42857 2.29489 1.36546 2.29489 1.27367C2.29489 1.21056 2.30063 1.15892 2.31784 1.11876C2.33505 1.0786 2.34653 1.03271 2.358 0.981071C2.36948 0.929436 2.4039 0.906484 2.45554 0.906484C2.58749 0.969594 2.70224 1.10155 2.79977 1.30809C2.93173 1.57774 3.01779 1.73838 3.06368 1.80149C3.09237 1.53184 3.13253 1.30809 3.17269 1.11876C3.21285 0.92943 3.32186 0.83764 3.49971 0.83764C3.5743 0.83764 3.63167 0.843373 3.67183 0.860585ZM5.55364 3.46529C5.49053 3.50546 5.42742 3.59151 5.35284 3.72347C5.27826 3.85542 5.20367 3.94148 5.12909 3.98164L4.46357 3.55708L4.01606 4.09639C3.82674 4.02754 3.68904 3.97016 3.60298 3.92427C3.4366 3.83247 3.33907 3.72346 3.31612 3.60298C3.44808 3.42513 3.5743 3.24727 3.70625 3.06368C3.83821 3.10958 3.96443 3.16695 4.09065 3.2358C4.21687 3.30465 4.34309 3.37349 4.47504 3.44234L4.95697 2.90304C5.11188 3.00057 5.2381 3.08663 5.33563 3.15548C5.54217 3.29317 5.61675 3.39645 5.55364 3.46529ZM3.63741 5.65691C3.66609 5.72576 3.66609 5.80034 3.62593 5.88067C3.58577 5.96099 3.55135 6.04131 3.51119 6.11589C3.41939 6.13311 3.3276 6.14458 3.2358 6.15032C3.17269 6.05278 3.144 5.9323 3.144 5.79461C3.144 5.65692 3.17843 5.50201 3.25301 5.3299C3.3276 5.15778 3.39644 4.99713 3.46529 4.84223C3.46529 4.91681 3.4366 5.04303 3.37349 5.20941C3.31038 5.37579 3.2817 5.50774 3.2817 5.59954C3.2817 5.70855 3.31038 5.80034 3.37349 5.8864C3.44808 5.90361 3.50545 5.86919 3.54561 5.79461C3.58577 5.72003 3.61446 5.67413 3.63741 5.65691ZM1.62937 2.06541C1.58348 2.2031 1.38841 2.55307 1.04418 3.12106C0.774527 3.56282 0.64257 3.94149 0.64257 4.24556C0.64257 4.4521 0.694205 4.6529 0.791738 4.8537C0.837636 4.92255 0.900746 4.95697 0.97533 4.95697C1.02696 4.95697 1.09581 4.93976 1.1704 4.91107C1.19908 4.88812 1.23351 4.84796 1.26219 4.78485C1.3253 4.67011 1.3712 4.607 1.41136 4.58979C1.31956 4.91107 1.24498 5.15203 1.18187 5.31268C1.06713 5.61101 0.877797 5.73723 0.608147 5.69134C0.487665 5.59954 0.395869 5.4848 0.344234 5.35284C0.292599 5.22088 0.263913 5.07746 0.263913 4.93402C0.263913 4.75617 0.298336 4.54963 0.367183 4.30293C0.458979 4.02754 0.522088 3.83247 0.550775 3.71773C0.682731 3.41365 0.837636 3.11532 1.02123 2.82272C1.20482 2.53012 1.40562 2.27769 1.62937 2.06541ZM18.6001 1.04418V0.906484C18.5944 0.8319 18.5542 0.791741 18.4854 0.791741C18.4337 0.791741 18.3821 0.814687 18.3362 0.860585C18.4223 0.923695 18.5083 0.981071 18.6001 1.04418ZM19.0935 5.98967C18.8009 5.98967 18.5829 5.97246 18.428 5.9323C18.1985 5.86919 18.0321 5.75445 17.9346 5.57659C17.8944 5.50201 17.883 5.45038 17.9002 5.42743C17.992 5.38153 18.0895 5.35857 18.187 5.35857C18.3534 5.35857 18.5255 5.42169 18.6919 5.54217C18.8583 5.66265 18.996 5.81182 19.0935 5.98967ZM16.2364 7.26334C15.7831 7.41825 15.3299 7.53873 14.8709 7.62479C14.4119 7.71085 13.953 7.75674 13.494 7.75674C13.3104 7.75674 13.1153 7.751 12.9145 7.73379C12.7137 7.71658 12.5359 7.69363 12.3924 7.66495C13.0293 7.01664 13.4079 6.64946 13.5284 6.5634C13.8267 6.35686 14.1193 6.25359 14.4119 6.25359C14.8537 6.34539 15.2037 6.44865 15.4561 6.5634C15.8176 6.72978 16.0757 6.965 16.2364 7.26334Z" fill="white"/>
</svg>
