<svg width="20" height="14" viewBox="0 0 20 14" fill="none" xmlns="http://www.w3.org/2000/svg">
<path fill-rule="evenodd" clip-rule="evenodd" d="M20 2.3864C19.9531 2.36881 19.8945 2.29258 19.8182 2.16359C19.742 2.0346 19.6658 1.94079 19.5954 1.89388L19.4547 2.17533C19.4547 2.58576 19.484 3.07243 19.5368 3.62358C19.6658 4.92526 19.7361 5.74613 19.7361 6.07447C19.7361 6.9188 19.7127 7.55204 19.6658 7.97421C19.5896 8.66022 19.4312 9.27001 19.185 9.80358C19.2436 9.21138 19.2671 8.61918 19.2671 8.03284C19.2671 7.37614 19.2319 6.60803 19.1615 5.73439C19.0912 4.85488 19.0208 3.95193 18.9446 3.01966C18.8684 2.08738 18.8332 1.33686 18.8332 0.773971C18.8977 0.644976 18.9739 0.498403 19.056 0.345955C19.1381 0.193507 19.2319 0.076224 19.3374 0C19.5544 0.79742 19.7713 1.59485 20 2.39227V2.3864ZM15.1158 1.62417C15.1158 1.71798 15.0982 1.84697 15.0572 2.01701C15.0161 2.18704 14.9985 2.31019 14.9985 2.39814C14.9985 2.46264 15.0103 2.53885 15.0396 2.62093C15.0103 2.65611 14.9868 2.6913 14.9692 2.72062C14.9516 2.74994 14.9282 2.74408 14.8989 2.7089L14.8168 2.6268C14.6291 2.91997 14.3594 3.17796 14.0018 3.41249C13.9431 3.44767 13.6265 3.62358 13.046 3.93434C13.1574 3.82294 13.4565 3.59425 13.9314 3.24245C14.3067 2.9786 14.5529 2.71475 14.676 2.45676C14.6585 2.42744 14.5822 2.36296 14.4415 2.25155C14.3067 2.14601 14.2363 2.04632 14.2363 1.96424C14.2363 1.92906 14.248 1.88216 14.2773 1.82352C14.3594 1.69453 14.4298 1.60072 14.4767 1.55381C14.5588 1.47172 14.6526 1.40723 14.7581 1.37205C14.8344 1.36032 14.9106 1.38377 14.9809 1.43654C15.0572 1.48931 15.0982 1.55381 15.1099 1.62417H15.1158ZM15.1568 5.1422C15.1568 5.1422 15.1862 5.21256 15.1862 5.27119C15.1862 5.35328 15.1393 5.47055 15.0513 5.623C14.9634 5.77545 14.8754 5.79889 14.7933 5.70508C14.6995 5.58195 14.6526 5.44708 14.6526 5.29463C14.6526 5.1715 14.676 5.06011 14.7171 4.95457C14.7581 4.84903 14.8226 4.7259 14.9047 4.57345C14.8754 4.67899 14.8519 4.77866 14.8344 4.87834C14.8168 4.97802 14.805 5.04252 14.805 5.08356C14.805 5.21256 14.8402 5.32395 14.9164 5.40604C14.9809 5.40604 15.0337 5.37672 15.063 5.31222C15.0982 5.25359 15.1275 5.19496 15.1568 5.13633V5.1422ZM13.0343 2.45676C13.0519 2.42158 13.0636 2.36882 13.0636 2.30432C13.0636 2.2281 13.0284 2.12842 12.9581 2.01115C12.8877 1.88802 12.8525 1.78835 12.8525 1.71798C12.8525 1.62417 12.8877 1.52449 12.9522 1.42482C12.917 1.31927 12.8701 1.24305 12.8174 1.18441C12.7646 1.12578 12.6942 1.10819 12.6004 1.12578C12.448 1.18441 12.3307 1.27822 12.2369 1.41308C12.1431 1.54794 12.0962 1.69453 12.0962 1.84111C12.2076 1.98183 12.3483 2.0991 12.5183 2.19292C11.8909 2.76753 11.2636 3.33627 10.6479 3.91088C11.0818 3.66462 11.4453 3.43008 11.7444 3.20727C12.1372 2.90824 12.4538 2.59162 12.6884 2.26328L12.9698 2.5154L13.0402 2.45676H13.0343ZM9.95016 0.23455C9.92084 0.310774 9.83876 0.457352 9.7039 0.686024C9.56904 0.908832 9.49868 1.09646 9.49868 1.23718C9.49868 1.31341 9.51041 1.38963 9.53972 1.47758C9.55145 1.47758 9.58077 1.49517 9.63354 1.52448C9.68631 1.55966 9.72735 1.55967 9.7684 1.53035C9.8153 1.43654 9.85048 1.37791 9.86807 1.34859C9.8798 1.38377 9.8798 1.43653 9.8798 1.50102C9.8798 1.65347 9.82117 1.77662 9.70976 1.88216C9.59836 1.89975 9.48695 1.87042 9.36969 1.78247C9.30519 1.65934 9.27001 1.53622 9.27001 1.40136C9.27001 1.22546 9.3521 1.01438 9.51041 0.77984C9.71563 0.527715 9.86221 0.345948 9.9443 0.228681L9.95016 0.23455ZM13.046 5.03079C13.0753 5.06597 13.0753 5.11287 13.0519 5.17151C13.0284 5.23014 13.005 5.28877 12.9874 5.35327C12.9522 5.34155 12.917 5.34155 12.8819 5.34155H12.8174C12.5945 5.34155 12.4597 5.53505 12.4186 5.91617C12.3776 6.30315 12.3072 6.53182 12.2134 6.60804C12.0727 6.24451 11.9203 5.93375 11.7619 5.68162C11.7326 5.7168 11.6799 5.74026 11.6095 5.74026C11.5626 5.74026 11.5157 5.73439 11.4688 5.7168C11.4219 5.70507 11.3398 5.67577 11.2284 5.64059C11.2108 5.58196 11.1991 5.54091 11.1991 5.51159C11.1991 5.46469 11.2108 5.41191 11.2284 5.35914C11.246 5.30637 11.2811 5.23014 11.3281 5.14805C11.4395 5.05424 11.5509 5.01907 11.6681 5.03666C11.7502 5.1422 11.8382 5.26533 11.9203 5.41778C12.0317 5.65231 12.1489 5.88098 12.2721 6.10965C12.3366 5.82821 12.3893 5.58781 12.4362 5.39432C12.4773 5.19496 12.5945 5.05424 12.7822 4.97216L13.0519 5.04251L13.046 5.03079ZM5.83993 0.639125L5.79889 0.908835C5.68748 0.908835 5.57608 0.908824 5.45881 0.897097C5.365 0.990911 5.3005 1.13163 5.25945 1.31926C5.17737 1.75315 5.10114 2.00529 5.03665 2.08151C4.92524 1.8118 4.83729 1.60658 4.76693 1.47758C4.6438 1.22546 4.4679 1.09647 4.23336 1.09647C4.18646 1.06129 4.163 1.01437 4.163 0.955734C4.163 0.908827 4.16887 0.856069 4.18646 0.803299C4.19818 0.744665 4.21577 0.697752 4.23336 0.650845C4.30959 0.510124 4.39754 0.49253 4.50308 0.592207C4.63207 0.732929 4.76107 0.932289 4.8842 1.18441C4.94283 1.31341 5.00147 1.44826 5.06596 1.57725C5.08355 1.54793 5.13632 1.35445 5.21841 1.00265C5.27704 0.756389 5.38259 0.592217 5.5409 0.510129C5.64644 0.521856 5.74025 0.568757 5.83407 0.650845L5.83993 0.639125ZM17.0155 7.01262L16.4527 2.07564L16.5641 1.83524L16.9569 2.25741C16.9569 1.92906 16.8748 1.56554 16.7106 1.16683C16.5465 0.768115 16.3882 0.386983 16.2416 0.0175894C16.0657 0.263852 15.9601 0.404585 15.9308 0.451492C15.837 0.62153 15.7901 0.79156 15.7901 0.955734C15.7901 1.08473 15.8253 1.21372 15.8898 1.33685L16.6227 7.66932C16.3588 7.86867 16.1302 8.00939 15.9308 8.1032C15.6611 8.23219 15.4031 8.30255 15.1686 8.30255C15.0572 8.30255 14.9692 8.30256 14.9164 8.29083C14.7171 8.22634 14.5529 8.09147 14.4239 7.89798C14.3301 7.75726 14.248 7.56963 14.1718 7.3351C14.0135 7.21197 13.82 7.15334 13.5972 7.15334C13.4447 7.15334 13.2806 7.18266 13.0988 7.23543C12.917 7.29406 12.7411 7.36442 12.5711 7.4465C12.1782 7.63413 11.7795 7.90386 11.375 8.26152C11.246 8.37293 10.8766 8.72472 10.2785 9.31693C9.84462 9.75082 9.46936 10.0792 9.15274 10.3137C8.71885 10.6303 8.29669 10.8414 7.88625 10.9469C7.65171 10.9176 7.42891 10.7828 7.21196 10.5365C7.13574 10.3665 7.10056 10.214 7.10056 10.0733C7.10056 9.915 7.13574 9.73909 7.21196 9.55146C7.28819 9.36383 7.37614 9.1762 7.48168 8.98858C8.02697 8.72472 8.57227 8.46088 9.12929 8.1853C9.48695 7.98594 9.77426 7.7514 9.98534 7.48168C10.0967 7.23542 10.1906 6.98917 10.2609 6.73704C10.3313 6.48491 10.3665 6.24451 10.3665 6.02171C10.3665 5.58782 10.2375 5.21255 9.98534 4.89593C9.69217 4.47376 9.32864 4.23924 8.88889 4.19233C8.51363 4.25683 8.22633 4.4855 8.03283 4.88421C7.92143 5.10115 7.81003 5.45882 7.71035 5.96894C7.79244 6.19175 7.91557 6.34419 8.06801 6.42041C8.22046 6.49664 8.41982 6.53182 8.66608 6.53182C8.79507 6.52009 8.9358 6.51423 9.07652 6.50251C9.21724 6.49078 9.3521 6.49077 9.48695 6.49077C9.53386 6.49077 9.60422 6.49078 9.69804 6.50251C9.78012 6.51423 9.83876 6.54354 9.87394 6.59631C9.90912 6.64908 9.92084 6.73703 9.92084 6.87189V7.04193C9.22896 7.43478 8.54295 7.79244 7.87452 8.12079C7.2061 8.44328 6.50835 8.75405 5.78716 9.04721C5.06596 9.34038 4.34477 9.62182 3.6353 9.88567C2.99033 10.1202 2.26327 10.3723 1.46585 10.6479C2.4333 10.4955 3.40076 10.3489 4.36236 10.1964C5.32981 9.85636 6.29727 9.52214 7.27646 9.18206C7.22955 9.30519 7.1416 9.50455 7.00674 9.78599C6.91293 10.0205 6.86602 10.2316 6.86602 10.4192C6.86602 10.5013 6.87775 10.601 6.90706 10.7124C6.93638 10.8238 6.97156 10.9118 7.01847 10.9821C7.19437 11.2049 7.38786 11.375 7.59308 11.4864C7.7983 11.5978 8.03284 11.6388 8.29669 11.6154C8.67194 11.416 9.05893 11.1346 9.4635 10.7711C9.528 10.7124 9.88566 10.3665 10.5306 9.72737C11.0818 9.17621 11.5509 8.7775 11.9261 8.53123C12.2369 8.33188 12.5476 8.18528 12.8701 8.07974C13.0108 8.00352 13.1457 7.96835 13.2806 7.96835C13.4799 7.96835 13.6675 8.10906 13.8434 8.3905C14.078 8.76576 14.2422 8.98857 14.3301 9.05893C14.4181 9.1293 14.506 9.1762 14.5822 9.19965C14.6585 9.2231 14.7699 9.23483 14.8989 9.23483C15.0865 9.23483 15.2624 9.21139 15.4266 9.15862C15.5907 9.10585 15.7549 9.03547 15.9249 8.94166C16.3002 8.81853 16.5699 8.54882 16.7282 8.12666C16.822 7.76313 16.9217 7.38788 17.0214 7.01262H17.0155ZM13.2161 10.2902C13.046 10.5424 12.8819 10.7945 12.7235 11.0525L11.8206 10.5893C11.8968 10.4368 11.973 10.302 12.0434 10.173C12.1196 10.044 12.2134 9.93258 12.3248 9.82704C12.4773 9.89153 12.6356 9.95603 12.8056 10.0264C12.9757 10.0968 13.1105 10.1788 13.2161 10.2961V10.2902ZM1.9701 1.22546C1.98769 1.28996 1.98182 1.36618 1.94078 1.44241C1.9056 1.52449 1.86456 1.60071 1.82351 1.67694C1.78247 1.75316 1.72383 1.78834 1.64761 1.78834C1.58311 1.78834 1.49516 1.75316 1.3779 1.67694C1.36031 1.63003 1.34271 1.57726 1.33685 1.51276C1.32512 1.45413 1.32512 1.3955 1.32512 1.34859C1.32512 1.14923 1.38962 0.938142 1.52448 0.715334C1.61829 0.557022 1.75315 0.375256 1.93492 0.164174C1.91733 0.228671 1.84697 0.375262 1.72383 0.609797C1.6007 0.844332 1.54207 1.00851 1.54207 1.12578C1.54207 1.25477 1.59484 1.37203 1.69452 1.46585C1.75902 1.46585 1.81765 1.44827 1.86456 1.40723C1.91146 1.37205 1.94664 1.30755 1.97596 1.22546H1.9701ZM4.71416 8.40224C4.57344 8.56055 4.43272 8.71887 4.292 8.86545C4.09264 8.75405 3.95192 8.66608 3.85811 8.61331C3.6822 8.50191 3.57666 8.39051 3.54735 8.29083L4.09851 7.65758C4.34477 7.78071 4.52067 7.8804 4.63207 7.96248C4.74348 8.04457 4.80211 8.12666 4.80211 8.22048C4.80211 8.26738 4.77279 8.32601 4.72002 8.40224H4.71416ZM8.68367 12.8056C8.12079 13.0695 7.52272 13.2982 6.88361 13.4858C6.2445 13.6793 5.62885 13.8141 5.02492 13.8845C4.74348 13.9138 4.4679 13.9255 4.19232 13.9255C3.66461 13.9255 3.16036 13.8611 2.6737 13.7379C2.18704 13.6148 1.73556 13.4096 1.32512 13.1398C0.914688 12.8701 0.586339 12.5183 0.351803 12.0962C0.117268 11.674 0 11.2167 0 10.7183C0 10.5658 2.68666e-07 10.4544 0.011727 10.3782C0.181765 9.44005 0.38112 8.71299 0.615655 8.19702C0.944005 7.46409 1.41894 6.8543 2.03459 6.36764C1.89387 6.12138 1.50689 5.86339 0.867781 5.59367C0.334213 5.35914 0.064497 5.04839 0.064497 4.66727C0.064497 4.58518 0.0644973 4.52068 0.076224 4.4855C0.158311 4.22165 0.252126 3.95778 0.34594 3.69979C0.428027 3.52976 0.557021 3.40663 0.727059 3.33627C1.11404 3.25418 1.51275 3.18968 1.93492 3.1545C2.35708 3.11932 2.79683 3.09587 3.26004 3.09587C3.88156 3.09587 4.49721 3.12518 5.11287 3.18968C5.72853 3.25418 6.39109 3.33627 7.10642 3.44767L7.25887 3.58841C7.20023 3.90503 7.07124 4.18646 6.86602 4.421C6.6608 4.65553 6.40281 4.82558 6.09205 4.92526C5.10701 5.34742 4.50308 5.61127 4.27441 5.71095C3.58253 6.0393 2.9786 6.38524 2.47435 6.75463C1.83524 7.20611 1.34858 7.67518 1.0085 8.16184C0.586338 8.7599 0.375257 9.41074 0.375257 10.1026C0.375257 10.8414 0.680152 11.4746 1.28994 12.0023C1.77074 12.3776 2.31017 12.6473 2.9141 12.8056C3.51803 12.964 4.17473 13.046 4.87833 13.046C5.31809 13.046 5.81061 13.0226 6.35591 12.9757C7.6693 12.8643 8.44327 12.8056 8.67781 12.8056H8.68367ZM14.8637 2.06977V1.91734C14.8519 1.8587 14.8285 1.81178 14.7933 1.7766C14.7581 1.74142 14.7112 1.71798 14.6526 1.71798C14.594 1.71798 14.5646 1.75317 14.5529 1.82939C14.5646 1.84112 14.5998 1.88802 14.6702 1.97011C14.7405 2.05219 14.805 2.08736 14.8578 2.06977H14.8637ZM12.7235 1.82939C12.6766 1.84698 12.618 1.82938 12.5476 1.76488C12.4773 1.70625 12.4128 1.64762 12.36 1.58899C12.36 1.51277 12.4069 1.47758 12.5007 1.47758C12.6415 1.47758 12.7118 1.53621 12.7118 1.64761L12.7235 1.82939ZM9.35796 5.55849C9.25242 5.59367 9.13515 5.61713 9.00616 5.61713C8.7423 5.61713 8.50777 5.55264 8.30255 5.41778C8.24392 5.29465 8.22633 5.21842 8.24392 5.19497C8.34946 5.13047 8.44913 5.09528 8.55468 5.09528C8.68367 5.09528 8.83025 5.15392 8.98857 5.26532C9.01788 5.28292 9.14101 5.38259 9.3521 5.55849H9.35796ZM5.89856 4.22164C5.49399 4.40927 4.8842 4.69657 4.06919 5.07769C3.36558 5.42363 2.79097 5.76957 2.33949 6.12137C2.33949 5.90443 2.28086 5.71094 2.16359 5.53504C2.04632 5.35913 1.89387 5.19496 1.71211 5.04251C1.53034 4.89007 1.33685 4.74349 1.12577 4.6145C1.00264 4.53827 0.838464 4.4386 0.633245 4.30374C0.932278 4.20993 1.24304 4.14541 1.5538 4.10437C1.87042 4.06919 2.20463 4.04575 2.5623 4.04575C2.93755 4.04575 3.50044 4.07506 4.25095 4.12783C5.00147 4.18646 5.55262 4.20992 5.89856 4.20992V4.22164Z" fill="white"/>
</svg>
