<svg width="20" height="10" viewBox="0 0 20 10" fill="none" xmlns="http://www.w3.org/2000/svg">
<path fill-rule="evenodd" clip-rule="evenodd" d="M16.4826 0.0332235C16.3913 0.14535 16.2874 0.236717 16.1753 0.303162C16.0632 0.369608 15.9178 0.431897 15.7351 0.494189C15.7019 0.506648 15.5607 0.556482 15.3074 0.643692C15.1205 0.710137 14.9793 0.76828 14.8796 0.822267C14.9544 0.697682 15.0499 0.593856 15.1703 0.519105C15.2908 0.444354 15.4361 0.37376 15.6105 0.31562C15.9012 0.224258 16.1961 0.128743 16.4868 0.0373804L16.4826 0.0332235ZM16.275 1.55732C16.2085 1.71512 16.0549 1.84386 15.8182 1.93523C15.5192 2.05566 15.3281 2.14702 15.2492 2.21347C15.216 2.17194 15.2202 2.12626 15.2575 2.07227C15.324 1.98506 15.3572 1.93938 15.3572 1.93108C15.2783 1.89785 15.2243 1.86878 15.1911 1.83971C15.1579 1.81064 15.1371 1.77742 15.1163 1.73173C15.1163 1.60715 15.1745 1.48672 15.2949 1.37459C15.3821 1.28738 15.5026 1.20848 15.6521 1.13373C15.6977 1.13373 15.7642 1.17526 15.8514 1.26247C15.8597 1.31645 15.8431 1.36629 15.8099 1.41197C15.7766 1.45765 15.7434 1.50333 15.7102 1.54071C15.6853 1.50748 15.6645 1.48257 15.6521 1.4618C15.6188 1.42027 15.5898 1.39951 15.5607 1.3912C15.515 1.3912 15.4735 1.40366 15.4403 1.42443C15.407 1.44935 15.3697 1.47426 15.3323 1.50748C15.407 1.63207 15.5316 1.69852 15.7102 1.69852C15.785 1.69852 15.8846 1.6736 16.0092 1.62376C16.1338 1.57393 16.221 1.54901 16.2667 1.54901L16.275 1.55732ZM17.878 2.0349L17.4502 1.66529L17.3506 1.8937C17.5084 2.89038 17.6745 3.88706 17.8406 4.88375C17.8489 5.00418 17.8572 5.1163 17.8655 5.22428C17.8738 5.33225 17.8821 5.45268 17.8821 5.59388C17.8821 6.00501 17.8365 6.39122 17.7409 6.74837C17.6496 7.10551 17.4918 7.44189 17.2717 7.75336C17.0516 8.06482 16.736 8.27662 16.3248 8.3929C16.0507 8.46765 15.6687 8.50087 15.1703 8.50087H14.7135C15.2119 8.35552 15.6604 8.1728 16.059 7.9527C16.4992 7.71183 16.9062 7.42113 17.2841 7.07645C17.4046 6.91864 17.5001 6.74422 17.5665 6.56149C17.6371 6.37877 17.6703 6.19189 17.6703 5.99671C17.6703 5.88873 17.662 5.78907 17.6413 5.6894C17.334 4.07394 17.0308 2.45849 16.7235 0.834725C16.7443 0.722599 16.7775 0.606314 16.8273 0.485882C16.8771 0.365449 16.9436 0.240869 17.0225 0.107978C17.1554 0.352996 17.3049 0.668611 17.471 1.05483C17.5831 1.32061 17.7202 1.64453 17.878 2.03074V2.0349ZM17.1222 5.87212C17.1554 6.09222 17.172 6.29571 17.172 6.47844C17.172 6.61963 17.172 6.72345 17.1637 6.79405C17.1554 6.86465 17.1346 6.96017 17.0931 7.07645C17.0931 6.80236 17.0225 6.53658 16.8855 6.2791C16.8273 6.15867 16.7609 6.04654 16.6903 5.93857C16.6197 5.83059 16.5283 5.71016 16.412 5.56896C16.2958 5.42777 16.2044 5.32394 16.1379 5.24919C15.9967 5.10384 15.8971 4.99587 15.8306 4.92943L15.2534 4.28158C14.8547 3.804 14.5557 3.4344 14.3564 3.17693C14.0574 2.79071 13.7791 2.40865 13.5258 2.03074C13.2683 1.65283 13.0316 1.25831 12.8115 0.855485C12.8115 0.735052 12.8364 0.598011 12.8863 0.43605C12.9361 0.278242 12.9652 0.186882 12.9693 0.166118C13.2143 0.365454 13.476 0.610471 13.7584 0.905323C13.8124 0.95931 13.966 1.12127 14.2152 1.39536C14.1903 1.42027 14.157 1.43689 14.1238 1.43689C14.0906 1.43689 14.0325 1.41612 13.9536 1.37875C13.8746 1.33722 13.8124 1.32476 13.7625 1.33722C13.9951 1.78157 14.3481 2.28822 14.8173 2.85301C15.2368 3.33889 15.6562 3.82477 16.0715 4.3065C16.5449 4.88375 16.8938 5.407 17.118 5.87212H17.1222ZM12.0682 0.261631C12.0432 0.406981 11.9602 0.502495 11.819 0.552329C11.3331 0.718442 10.9718 0.843028 10.7309 0.921932C10.324 1.06728 9.97513 1.22925 9.67612 1.39951C9.67612 1.20848 9.7841 1.06728 10.0042 0.984228C10.2243 0.901171 10.4361 0.822262 10.6437 0.751663C11.1172 0.593855 11.5906 0.427745 12.0682 0.261631ZM12.4959 1.87709C12.4959 1.95599 12.4793 2.03489 12.4461 2.10964C12.4128 2.1844 12.363 2.27576 12.2966 2.37543C12.2509 2.42941 12.1844 2.46679 12.1014 2.49586C12.0183 2.52078 11.9394 2.53739 11.8688 2.53739C11.8148 2.52908 11.7775 2.52909 11.7484 2.52909C11.6736 2.46264 11.6404 2.36297 11.6404 2.23008C11.6404 2.14287 11.6612 2.05566 11.6986 1.9643C11.7401 1.87294 11.7733 1.78988 11.8024 1.71513C11.8314 1.64037 11.8854 1.58639 11.956 1.56147C11.9228 1.64038 11.8896 1.72343 11.8605 1.80649C11.8314 1.88955 11.8148 1.96845 11.8148 2.03905C11.8148 2.13872 11.8439 2.21762 11.9062 2.27991C11.981 2.27991 12.0515 2.27161 12.1221 2.25915C12.1927 2.24669 12.255 2.20101 12.3173 2.13041C12.3173 2.06396 12.2343 1.97676 12.0682 1.87294C11.981 1.81895 11.9394 1.77326 11.9394 1.73173C11.9394 1.68605 11.9893 1.62792 12.0889 1.56147C12.2011 1.603 12.2633 1.62376 12.2675 1.63207C12.3755 1.69021 12.4502 1.77326 12.4959 1.88124V1.87709ZM10.0457 3.82062C10 3.93275 9.95436 4.02826 9.91699 4.09886C9.85885 4.21099 9.79656 4.3065 9.73842 4.3771C9.79656 4.26913 9.8547 4.14039 9.90453 3.98673C9.95436 3.83308 9.97928 3.69188 9.97928 3.55899C9.97928 3.43856 9.96267 3.33473 9.92945 3.23922C9.92945 3.17277 9.87131 3.04403 9.75918 2.84885C9.70104 2.74088 9.66782 2.66197 9.66782 2.60798C9.66782 2.53323 9.70519 2.46264 9.77579 2.38788C9.87546 2.54154 9.95852 2.7035 10.0208 2.88207C10.0831 3.05649 10.1163 3.23092 10.1163 3.40534C10.1163 3.55899 10.0914 3.69603 10.0457 3.81231V3.82062ZM7.08475 0.980071C7.10551 1.01329 7.11382 1.04652 7.11382 1.07974C7.11382 1.12542 7.09721 1.19187 7.06399 1.27493C7.03076 1.35798 7.01415 1.40781 7.01415 1.42027C6.98923 1.48672 6.9394 1.51994 6.86465 1.51994C6.83143 1.51994 6.7982 1.51164 6.76498 1.49088C6.66531 1.37044 6.61548 1.22924 6.61548 1.06313C6.61548 0.92193 6.64455 0.789045 6.69854 0.660307C6.75668 0.531569 6.82727 0.40698 6.91448 0.286547C6.8688 0.419438 6.83973 0.519107 6.82312 0.585552C6.7899 0.710138 6.77329 0.822268 6.77329 0.91363C6.77329 1.03406 6.81066 1.13788 6.88126 1.23339C6.92694 1.22509 6.96432 1.18772 6.99754 1.11297C7.02661 1.03821 7.05568 0.996687 7.0806 0.984228L7.08475 0.980071ZM8.82064 4.29819C8.84555 4.61796 8.86217 4.82976 8.86632 4.93773C8.86632 5.0457 8.87047 5.15783 8.87047 5.27827C8.87047 5.67694 8.84555 6.02993 8.79572 6.33308C8.74589 6.6404 8.65037 6.95601 8.51333 7.28824C8.53824 7.12213 8.55901 6.92694 8.57147 6.69854C8.58393 6.47428 8.59223 6.25834 8.59223 6.059C8.59223 5.51913 8.5507 4.95435 8.4718 4.36464C8.43027 4.07394 8.33891 3.52576 8.19771 2.72426C8.05651 1.92277 7.96515 1.36213 7.92362 1.03406C7.83226 0.942698 7.78243 0.843029 7.78243 0.735055C7.78243 0.656151 7.80734 0.560636 7.86133 0.456815C7.94854 0.30316 8.03575 0.149502 8.13127 0C8.30569 0.274088 8.45519 0.564791 8.58393 0.880407C8.71266 1.19602 8.77911 1.47011 8.77911 1.70267C8.75419 1.63622 8.69605 1.55732 8.60884 1.4618C8.52163 1.37044 8.45934 1.304 8.41781 1.26247C8.41781 1.62792 8.4718 2.12211 8.57562 2.74919C8.71682 3.5673 8.79572 4.08225 8.81648 4.29404L8.82064 4.29819ZM14.1446 8.613C13.9328 8.79988 13.6961 8.94522 13.4386 9.04489C13.1811 9.14871 12.9112 9.19855 12.6329 9.19855C12.4876 9.19855 12.3589 9.18609 12.255 9.15702C12.1554 9.10303 12.1055 9.01582 12.1055 8.88709C12.1055 8.82895 12.118 8.77911 12.1471 8.74588L12.554 8.30569C12.4793 8.24755 12.4128 8.18941 12.3464 8.13542C12.3672 8.02745 12.4212 7.93193 12.5042 7.84472C12.5623 7.78658 12.6537 7.72014 12.7741 7.65369C12.9527 7.64123 13.0441 7.68691 13.0441 7.79489C13.0109 7.83642 12.9776 7.87379 12.9403 7.91532C12.9029 7.95685 12.8697 7.97346 12.8364 7.97346C12.7949 7.97346 12.7617 7.94439 12.7285 7.8821C12.6703 7.8821 12.6246 7.89455 12.5997 7.92362C12.6329 8.00253 12.6828 8.05652 12.7534 8.07728C12.824 8.1022 12.9029 8.1105 12.9984 8.1105C13.1105 8.05651 13.2226 8.00668 13.3389 7.961C13.2932 8.07312 13.123 8.19771 12.824 8.3306C12.5291 8.46349 12.3713 8.62546 12.3506 8.82064C12.5084 8.89954 12.6911 8.94107 12.8904 8.94107C13.1105 8.94107 13.3805 8.88293 13.6961 8.77081C13.8497 8.71267 14.0034 8.65453 14.1529 8.60054L14.1446 8.613ZM15.0914 5.48176C14.9918 5.6894 14.8962 5.89288 14.8007 6.10053C14.6678 6.34139 14.4851 6.48674 14.2526 6.54073C13.8207 6.76083 13.2974 6.96432 12.6786 7.14704C12.4212 7.22595 11.8688 7.37545 11.0258 7.59555C10.4195 7.76997 9.88792 7.9527 9.4228 8.15203C8.87878 8.38459 8.38044 8.65868 7.92778 8.97845C7.81565 9.05735 7.63292 9.20686 7.3796 9.42696C6.97262 9.7841 6.6404 9.96682 6.37461 9.96682C6.27495 9.96682 6.18774 9.95436 6.10883 9.9336C6.03408 9.90868 5.94687 9.86716 5.85551 9.80902C5.82229 9.75503 5.79737 9.69274 5.7766 9.61383C5.75584 9.53908 5.74753 9.46433 5.74753 9.39788C5.74753 9.24423 5.78491 9.08642 5.85551 8.92031C5.93026 8.7542 6.01747 8.59639 6.12544 8.45104C6.059 8.70436 5.9967 8.95768 5.93441 9.20685C5.93441 9.29821 5.95102 9.38127 5.98425 9.44772C6.02577 9.5017 6.07146 9.53908 6.1296 9.55569C6.18774 9.57646 6.24588 9.58476 6.31232 9.58476C6.36631 9.58476 6.43691 9.57645 6.53242 9.564C6.7899 9.41034 7.10551 9.19024 7.47927 8.89539C7.78658 8.65037 8.1022 8.4012 8.42612 8.15203C8.75004 7.90286 9.06565 7.69522 9.37296 7.52911C9.73842 7.32977 10.0914 7.18857 10.4278 7.10967C10.5482 7.08891 10.6603 7.06399 10.76 7.03077C10.8638 6.99754 10.9718 6.95186 11.0839 6.88957C10.8389 6.66532 10.6562 6.39953 10.5358 6.10053C10.4153 5.80152 10.3572 5.4776 10.3572 5.13291C10.6022 4.7467 10.8555 4.44354 11.113 4.2276C11.4535 3.9369 11.8024 3.7874 12.1595 3.7874C12.5374 3.7874 12.8738 3.83308 13.1728 3.92859C13.4677 4.01995 13.7168 4.18607 13.9162 4.42693C13.6296 4.33972 13.3265 4.29819 12.9984 4.29819C12.6413 4.29819 12.28 4.34803 11.9228 4.45185C11.5657 4.55567 11.2168 4.69271 10.8763 4.86713C10.868 4.90866 10.868 4.9585 10.868 5.02494C10.868 5.24504 10.9303 5.46099 11.059 5.67278C11.1504 5.83059 11.2999 6.01332 11.5075 6.21266C11.6529 6.29986 11.8107 6.36215 11.9768 6.40368C12.1429 6.44521 12.3007 6.46182 12.4544 6.46182C12.8406 6.46182 13.2932 6.3414 13.8207 6.10468C14.2442 5.89704 14.672 5.68939 15.0956 5.4776L15.0914 5.48176ZM6.10053 2.4834C5.97594 2.67444 5.8472 2.86546 5.72262 3.05234L5.1163 2.59553C5.28242 2.30898 5.38208 2.15118 5.41531 2.11795C5.50252 2.02659 5.58973 1.98506 5.67278 1.99752C5.76415 2.07227 5.86797 2.14702 5.97594 2.22177C6.08391 2.29652 6.12544 2.38789 6.10053 2.48756V2.4834ZM4.32726 0.618776C4.3065 0.693527 4.28989 0.747515 4.27327 0.789044C4.25666 0.830572 4.22344 0.847183 4.17776 0.847183C4.15284 0.847183 4.11547 0.830568 4.06979 0.797345C3.84968 0.830568 3.72095 1.02991 3.68772 1.3912C3.65035 1.7525 3.60882 1.9726 3.56314 2.0432C3.49669 1.98506 3.43855 1.88954 3.38457 1.76496C3.23922 1.3912 3.16031 1.20433 3.15616 1.19602L3.08556 1.28738C3.08556 1.28738 3.02742 1.25001 2.93191 1.19187C2.83639 1.13373 2.7824 1.07559 2.76579 1.01745C2.77825 0.905325 2.79486 0.809806 2.81563 0.735055C2.83639 0.660304 2.89038 0.610467 2.97344 0.589703C3.08141 0.664454 3.17277 0.780738 3.25168 0.938546C3.35134 1.18356 3.45517 1.42858 3.55899 1.66529C3.59221 1.44104 3.62543 1.21263 3.65865 0.988379C3.7251 0.735055 3.85384 0.564788 4.04902 0.481731C4.16115 0.481731 4.25666 0.527411 4.32726 0.622926V0.618776ZM3.30982 4.42693C3.32227 4.50584 3.31812 4.57644 3.30151 4.64288C3.28075 4.70517 3.24337 4.79654 3.19354 4.91697C3.13955 4.95019 3.08971 4.9668 3.04403 4.9668C2.99005 4.9668 2.95267 4.94189 2.9236 4.8962C2.85716 4.78823 2.82393 4.67195 2.82393 4.54737C2.82393 4.43524 2.853 4.30235 2.9153 4.14869C2.95682 4.05733 3.01912 3.92444 3.10633 3.75832C3.05234 3.91198 3.01496 4.03657 2.98589 4.13623C2.96098 4.2359 2.94437 4.31065 2.94437 4.36464C2.94437 4.48923 2.98589 4.59304 3.0648 4.67195C3.13955 4.70517 3.18938 4.68856 3.21845 4.62212C3.24752 4.55567 3.28075 4.48923 3.31397 4.42278L3.30982 4.42693ZM7.45435 6.39953C7.51249 6.24172 7.54571 6.059 7.54571 5.85966C7.54571 5.47345 7.44605 5.14538 7.24671 4.87129C7.0806 4.65119 6.93109 4.48922 6.7982 4.38125C6.61133 4.2359 6.42029 4.16115 6.22096 4.16115C6.13375 4.16115 6.05069 4.17361 5.97179 4.20268C5.68524 4.38125 5.46514 4.61381 5.30318 4.90036C5.14537 5.1869 5.06231 5.49006 5.06231 5.80568C5.14122 5.99671 5.24919 6.12959 5.38208 6.19604C5.51497 6.26249 5.67278 6.29571 5.85136 6.29571C5.93026 6.29571 6.04239 6.2874 6.19189 6.27495C6.33724 6.26249 6.44936 6.25418 6.51996 6.25418C6.63209 6.25418 6.74422 6.27079 6.8605 6.29986C6.97262 6.32893 7.06814 6.37462 7.13874 6.43276C7.05153 6.58641 6.85219 6.73176 6.54073 6.87296C6.35385 6.95186 6.22096 7.0183 6.14205 7.07229C5.44438 7.31316 4.98756 7.46266 4.76746 7.52911C4.22344 7.68691 3.7251 7.79904 3.27244 7.85718C3.01496 7.88209 2.8447 7.89871 2.76579 7.90286C2.68689 7.90286 2.59968 7.90702 2.50832 7.90702C2.10964 7.90702 1.75665 7.85303 1.45349 7.74921C1.09635 7.62462 0.780734 7.42113 0.506647 7.14289C0.419437 7.05568 0.361297 6.96432 0.328075 6.8688C0.294852 6.77329 0.27824 6.67362 0.27824 6.57395C0.27824 6.41614 0.332227 6.2085 0.436048 5.95518C0.523258 5.7683 0.610468 5.58142 0.693525 5.38624C0.959307 5.38624 1.13373 5.1869 1.22094 4.78823C1.27908 4.51414 1.32476 4.35218 1.34967 4.29819C1.26246 4.42278 1.20848 4.50169 1.17941 4.5266C1.1005 4.60551 1.00914 4.63458 0.909472 4.61797C0.797346 4.49753 0.714289 4.38125 0.664455 4.26912C0.614621 4.15699 0.589704 4.04072 0.589704 3.92028C0.589704 3.71264 0.685219 3.45517 0.880403 3.1437C1.36629 2.36712 1.61961 1.93938 1.63622 1.86878C1.31645 2.1221 1.04236 2.45433 0.809804 2.86547C0.656149 3.13125 0.48173 3.52161 0.282393 4.03241C0.261629 4.17776 0.249171 4.27327 0.249171 4.3148C0.249171 4.35633 0.245018 4.41863 0.245018 4.49753C0.245018 4.6761 0.269935 4.83807 0.319769 4.98757C0.369603 5.13292 0.456813 5.2575 0.585551 5.35717C0.36545 5.77661 0.228406 6.04654 0.178572 6.17528C0.0581398 6.46598 0 6.74837 0 7.01415C0 7.12212 0.0124585 7.24256 0.0415284 7.3796C0.0664455 7.51665 0.107974 7.64123 0.161961 7.75336C0.39452 8.07728 0.705983 8.31815 1.1005 8.4718C1.44519 8.60469 1.84801 8.67114 2.30483 8.67114C2.53739 8.67114 2.79902 8.65037 3.08556 8.60469C3.37626 8.56316 3.63789 8.50918 3.87875 8.45104C4.31065 8.30569 5.00002 8.08974 5.94272 7.80319C6.70684 7.48343 7.21349 7.01415 7.46681 6.39953H7.45435ZM3.74586 5.55235C3.76663 5.58558 3.77493 5.61465 3.77493 5.64372C3.77493 5.67694 3.75002 5.73508 3.70434 5.81398C3.46347 5.81398 3.31812 5.98425 3.26413 6.32063C3.21015 6.66116 3.15616 6.8605 3.09387 6.92694C3.00666 6.88126 2.90699 6.73591 2.79071 6.49505C2.67443 6.25418 2.52493 6.1296 2.34636 6.1296C2.30483 6.09638 2.28822 6.05484 2.28822 6.00916C2.28822 5.98425 2.30898 5.92196 2.34636 5.83059C2.36712 5.78491 2.37543 5.74338 2.37543 5.71016C2.38788 5.67694 2.40865 5.66448 2.44187 5.66863C2.47094 5.67694 2.50416 5.68109 2.53739 5.6894C2.6246 5.76415 2.7035 5.86381 2.77825 5.99671C2.88623 6.19604 2.99005 6.39122 3.09802 6.58641C3.17277 6.2874 3.22676 6.06315 3.26829 5.9178C3.34719 5.64371 3.50915 5.52328 3.74586 5.5482V5.55235ZM6.72761 5.46099C6.57395 5.29488 6.44521 5.17029 6.33724 5.09139C6.16282 4.97096 5.99255 4.91281 5.81813 4.91281C5.70601 4.93358 5.6188 4.98757 5.56066 5.07062C5.53989 5.10385 5.53159 5.13707 5.53159 5.17029C5.53159 5.23674 5.56481 5.28657 5.63125 5.31979C5.78906 5.47345 6.01332 5.5482 6.29986 5.5482C6.46598 5.5482 6.60717 5.51913 6.72761 5.45683V5.46099Z" fill="white"/>
<path d="M19.9896 2.30161C19.9931 2.30281 19.9966 2.30389 20 2.30485L19.9917 2.309C19.991 2.30653 19.9903 2.30407 19.9896 2.30161C19.918 2.27667 19.8421 2.19849 19.755 2.05983C19.6636 1.91864 19.593 1.84388 19.539 1.84388C19.4934 1.84388 19.4435 1.8688 19.3895 1.92279C19.3895 2.24671 19.4435 2.76166 19.5473 3.45934C19.6553 4.15702 19.7301 4.68858 19.7051 5.05403L19.647 7.08062C19.6055 7.43361 19.5266 7.78245 19.4061 8.12713C19.4726 7.86966 19.5058 7.5582 19.5058 7.20105C19.5058 6.95603 19.4934 6.6861 19.4643 6.38709C19.4394 6.09224 19.4186 5.86799 19.4061 5.71433L18.9078 0.930258L18.9826 0.369622C19.0864 0.220119 19.1487 0.120455 19.1653 0.0747735C19.3189 0.36132 19.4726 0.722615 19.6346 1.16282C19.7543 1.50548 19.874 1.88507 19.9896 2.30161Z" fill="white"/>
</svg>
