<svg width="20" height="13" viewBox="0 0 20 13" fill="none" xmlns="http://www.w3.org/2000/svg">
<path fill-rule="evenodd" clip-rule="evenodd" d="M19.99 7.05558C20 7.10566 20 7.15072 20 7.2008V7.34602C20 7.6014 19.97 7.8718 19.9049 8.15723C19.8398 8.44266 19.7546 8.75313 19.6545 9.08863L19.6795 7.64646L18.8983 1.66249C18.9284 1.59238 18.9184 1.49724 18.8683 1.38207C18.8182 1.2669 18.7882 1.18678 18.7882 1.14672C18.7882 1.08162 18.8182 1.02153 18.8833 0.966446C18.9484 0.856281 18.9935 0.771153 19.0135 0.71607C19.0686 0.610913 19.1387 0.545813 19.2188 0.525783C19.4291 1.18177 19.6395 1.83775 19.8548 2.49874C19.7897 2.48372 19.7346 2.43866 19.6845 2.36855C19.5944 2.23836 19.5143 2.11317 19.4342 1.98297V2.4036L19.985 7.06559L19.99 7.05558ZM15.7837 5.2028C15.7837 5.35303 15.7586 5.47821 15.7136 5.56835C15.6635 5.65848 15.6034 5.72859 15.5333 5.77866C15.4632 5.8037 15.4031 5.8037 15.353 5.77866C15.2479 5.72859 15.1978 5.64847 15.1978 5.52829C15.1878 5.47821 15.1878 5.4031 15.1878 5.29794C15.1878 5.08762 15.2278 4.87231 15.308 4.64697C15.338 4.55683 15.4281 4.35153 15.5734 4.02103C15.5583 4.08613 15.5133 4.23635 15.4331 4.47671C15.358 4.71707 15.318 4.90736 15.318 5.04256C15.318 5.2028 15.363 5.35302 15.4482 5.48823C15.5383 5.50325 15.6034 5.47821 15.6535 5.41812C15.6785 5.39309 15.7136 5.32799 15.7636 5.22783L15.7887 5.2028H15.7837ZM12.2283 0C12.2283 0.0650976 12.2033 0.120178 12.1582 0.170254C12.1082 0.220329 12.0481 0.260384 11.978 0.290429C11.0466 0.580864 10.1252 0.866298 9.2038 1.15673C9.37406 0.931396 9.65448 0.756134 10.0551 0.625939C10.3906 0.530796 10.7311 0.430643 11.0766 0.325485C11.2268 0.300448 11.4271 0.250371 11.6725 0.175258C11.9179 0.100146 12.1032 0.0400601 12.2333 0H12.2283ZM13.3801 2.97947C13.35 3.04957 13.32 3.11467 13.2949 3.16474C13.2699 3.21482 13.2298 3.22984 13.1748 3.2048C13.1097 3.13971 13.0346 3.11968 12.9444 3.14472C12.8743 3.24987 12.7992 3.48523 12.7291 3.85578C12.689 4.03104 12.639 4.17626 12.5839 4.28643C12.4887 4.20631 12.3786 4.02103 12.2584 3.7356C12.1933 3.58537 12.1282 3.46519 12.0681 3.37506C12.018 3.42513 11.983 3.46019 11.9579 3.48522C11.9329 3.51026 11.8878 3.51527 11.8277 3.49524C11.8027 3.4702 11.7927 3.42513 11.7927 3.36504C11.8428 3.22984 11.8678 3.12468 11.8778 3.05458C11.9579 3.0045 12.023 2.98447 12.0681 2.98447C12.1082 2.98447 12.1382 2.9995 12.1632 3.03455C12.2333 3.10466 12.2934 3.19979 12.3435 3.30996C12.4787 3.61542 12.5588 3.78067 12.5839 3.81572C12.634 3.63044 12.679 3.44516 12.7291 3.26489C12.7992 3.04957 12.9144 2.90435 13.0646 2.83425C13.1347 2.84927 13.1948 2.86429 13.2449 2.88432C13.2949 2.89935 13.335 2.9344 13.3751 2.99449L13.3801 2.97947ZM17.1057 9.88983C17.1307 9.96995 17.1157 10.0601 17.0706 10.1652C17.0005 10.2854 16.9504 10.3756 16.9254 10.4306C16.8052 10.4306 16.7051 10.3655 16.6249 10.2404C16.6149 10.2003 16.6149 10.1352 16.6149 10.0501C16.6149 9.7396 16.7101 9.41912 16.9054 9.08863C16.8553 9.31897 16.8152 9.54932 16.7752 9.77466C16.7752 9.91987 16.8252 10.0451 16.9304 10.1452C16.9805 10.1452 17.0105 10.1202 17.0305 10.0651C17.0506 10.015 17.0756 9.95493 17.1107 9.88983H17.1057ZM7.63645 0.515773C7.46119 0.726088 7.21582 0.906352 6.90536 1.05658L5.39309 1.70756C5.35303 1.73259 5.16274 1.81772 4.81723 1.97295C4.58688 2.07811 4.4016 2.18827 4.2664 2.30846C4.37656 2.14821 4.52178 1.998 4.69705 1.85278C4.84727 1.74762 5.05759 1.63746 5.32298 1.51728C5.70856 1.34702 6.09414 1.18177 6.47471 1.01652C6.86029 0.851276 7.24587 0.686028 7.64146 0.515773H7.63645ZM7.0005 2.1983C6.95043 2.11818 6.8653 2.02303 6.7351 1.91787C6.60491 1.8077 6.48973 1.75763 6.38458 1.75763C6.32949 1.75763 6.27441 1.77766 6.22434 1.81272C6.17426 1.84777 6.1342 1.90285 6.10916 1.97295C6.10916 2.03805 6.08413 2.11818 6.02904 2.21332C5.97897 2.30846 5.94892 2.37856 5.93891 2.41862L6.53981 2.75413C6.63495 2.75413 6.73009 2.69404 6.81522 2.57887C6.90536 2.46369 6.96545 2.33851 6.99549 2.1983H7.0005ZM9.51427 5.44316C9.45919 5.55333 9.41412 5.63345 9.38408 5.68352C9.31898 5.77366 9.24386 5.82874 9.15373 5.85377C9.09865 5.86379 9.04857 5.84877 9.00851 5.81371C8.96845 5.77866 8.9334 5.72859 8.89835 5.66349C8.87331 5.51828 8.89835 5.38307 8.97847 5.25287C9.05358 5.12268 9.15874 5.01251 9.29895 4.91737C9.4692 4.99749 9.54932 5.12268 9.54932 5.28793C9.54932 5.34301 9.53931 5.39809 9.51427 5.44316ZM7.74662 3.07461C7.69654 3.19479 7.62644 3.31496 7.5313 3.43515C7.47621 3.50525 7.42113 3.57536 7.36104 3.64045L6.63996 3.25488C6.58988 3.40511 6.52479 3.51527 6.43465 3.58537C6.34452 3.65548 6.24437 3.68552 6.12419 3.68552C5.95393 3.68552 5.75864 3.62043 5.5333 3.49524C5.51828 3.44016 5.53831 3.36004 5.5984 3.25989C5.65849 3.15974 5.68352 3.08963 5.67852 3.04957C5.74361 2.96945 5.7987 2.90936 5.83876 2.8693C5.88383 2.82924 5.9339 2.80921 5.98898 2.80921C6.05408 2.80921 6.11918 2.82423 6.17927 2.85928C6.23435 2.84927 6.31948 2.88432 6.42964 2.95943C6.53981 3.03455 6.61492 3.07461 6.64497 3.07461C6.71507 3.07461 6.76515 3.0045 6.79018 2.85928C6.86029 2.669 6.97046 2.56885 7.11567 2.56885C7.18578 2.56885 7.25087 2.59889 7.30596 2.65397C7.31597 2.66399 7.41612 2.71406 7.60641 2.80921C7.7366 2.8743 7.77666 2.95944 7.7366 3.07461H7.74662ZM13.4552 9.25388C13.3901 9.5994 13.305 9.87981 13.1898 10.0951C13.0446 10.3756 12.8443 10.5909 12.5889 10.7461C12.7742 10.5158 12.9094 10.3355 12.9995 10.2153C13.1698 10 13.2499 9.80971 13.2499 9.64947C13.2499 9.54431 13.2198 9.44416 13.1547 9.34902C13.0346 9.34902 12.9544 9.4041 12.9144 9.51928L12.8643 9.52929C12.9194 9.36905 12.9544 9.27892 12.9745 9.25388C13.0396 9.14872 13.1247 9.08362 13.2248 9.06359C13.2749 9.05357 13.315 9.07361 13.355 9.11367C13.3951 9.15373 13.4251 9.2038 13.4502 9.25888L13.4552 9.25388ZM17.6114 2.7391C17.5213 2.36855 17.3861 1.98798 17.2008 1.58738C17.1507 1.49224 16.9755 1.1367 16.67 0.515773C16.5648 0.635953 16.4847 0.79118 16.4296 0.986473C16.4146 1.04156 16.3896 1.1367 16.3595 1.27691C16.5498 2.2684 16.7501 3.29494 16.9604 4.34652C17.1708 5.39809 17.336 6.36955 17.4662 7.26089C17.2008 7.47621 16.9554 7.64146 16.7201 7.75162C16.4246 7.89684 16.1492 7.96694 15.8888 7.96694C15.6284 7.96694 15.4081 7.89684 15.1928 7.76164C14.7271 7.41112 14.0361 6.86029 13.1147 6.11417C12.4186 5.55333 11.7126 4.99249 11.0065 4.42664C10.2954 3.86079 9.5994 3.34502 8.90836 2.8693C8.89334 2.8042 8.91838 2.74912 8.97847 2.69905C9.64947 2.4036 10.3706 2.14822 11.1367 1.92789C11.9029 1.71256 12.669 1.52729 13.4402 1.37707C13.7506 1.31197 14.5268 1.18177 15.7586 0.981468C15.8688 1.0716 15.9089 1.15172 15.8788 1.22183C15.7436 1.42213 15.4331 1.82773 14.9524 2.43364C14.2614 3.29994 13.8408 4.01101 13.6805 4.57185C13.8157 4.2013 14.1212 3.75062 14.5919 3.21482C15.2028 2.5338 15.5684 2.09814 15.6985 1.90285C16.0591 1.38207 16.2394 0.871307 16.2394 0.375563C16.2093 0.285428 16.1492 0.230342 16.0641 0.200297C15.979 0.170252 15.8788 0.165241 15.7586 0.180263C14.9424 0.330488 14.0961 0.490735 13.2298 0.655983C12.3585 0.821231 11.5874 1.0015 10.9064 1.2018C10.0501 1.45218 9.29394 1.74762 8.64797 2.09314C8.47271 2.39859 8.38257 2.72408 8.38257 3.07962C8.38257 3.22984 8.3976 3.37005 8.43265 3.49023C9.19379 4.10615 9.82474 4.66199 10.3205 5.14772C10.9865 5.8037 11.5223 6.43965 11.9329 7.04556C11.7827 7.19078 11.6224 7.30095 11.4622 7.38107C11.342 7.43615 11.1667 7.49624 10.9314 7.56134C10.7461 7.30595 10.5658 7.09564 10.3906 6.9354C10.1602 6.72508 9.92989 6.59989 9.70456 6.54982C9.65448 6.53479 9.61442 6.52479 9.58438 6.52479C9.44917 6.52479 9.31898 6.57486 9.1988 6.68002C9.04857 6.91036 8.92839 7.11567 8.84827 7.29093C8.74311 7.53129 8.69304 7.75162 8.69304 7.95192C8.69304 8.15222 8.74311 8.34251 8.83826 8.49273C9.02353 8.62293 9.23886 8.68302 9.48923 8.68302C9.8648 8.61792 10.2454 8.55282 10.6309 8.49273L10.656 8.67301C9.78468 9.54431 9.20881 10.0851 8.93841 10.2954C8.23235 10.8312 7.54632 11.1017 6.88533 11.1017C6.7351 11.1017 6.57486 11.0916 6.40461 11.0666C6.17426 10.9464 6.01402 10.8112 5.92389 10.656C5.83375 10.5058 5.79369 10.3205 5.79369 10.1052C5.79369 9.90485 5.84376 9.63945 5.93891 9.31397C6.13921 8.62293 6.23936 8.2023 6.23936 8.04206C6.9304 7.85678 7.30596 7.75162 7.37106 7.73159C7.6014 7.63645 7.8017 7.51627 7.96194 7.37105C8.0671 7.18076 8.13721 6.99549 8.17226 6.82023C8.20731 6.64496 8.22734 6.42964 8.22734 6.18427C8.22734 5.95393 8.18227 5.71857 8.09715 5.48823C8.00701 5.25788 7.88683 5.02754 7.7366 4.8022L7.46119 5.29293C7.47621 5.39809 7.57136 5.69854 7.75163 6.19429C7.82173 6.4046 7.8668 6.57486 7.88182 6.71006C7.50626 6.90035 7.23085 7.02553 7.05058 7.07561C6.87531 7.12568 6.70506 7.15573 6.54482 7.15573C6.38458 7.15573 6.25939 7.1357 6.14922 7.09564C6.01903 7.02554 5.92889 6.89534 5.87882 6.71006C5.82874 6.52478 5.77867 6.34952 5.73861 6.17927L5.43816 6.87531C5.58838 7.41111 5.74862 7.94692 5.90886 8.47271C5.37807 8.91337 4.74712 9.34902 4.01102 9.78467C3.4001 10.1452 2.73911 10.5007 2.01803 10.8563C1.34702 11.1868 0.671006 11.5173 0 11.8528C0.0500751 11.8528 0.110165 11.8327 0.190285 11.7977C0.270406 11.7626 0.320481 11.7376 0.345518 11.7326C1.01152 11.7326 1.67752 11.6074 2.35353 11.362C2.92939 11.1517 3.54031 10.8413 4.18127 10.4256C4.55684 10.1853 5.11768 9.78468 5.8638 9.22383C5.7336 9.66449 5.66349 9.92488 5.64847 10.005C5.58337 10.2854 5.55333 10.5558 5.55333 10.8112C5.55333 11.0015 5.57837 11.1968 5.62344 11.3871C5.75363 11.5774 5.91387 11.7326 6.10416 11.8428C6.29444 11.9529 6.49975 12.013 6.71507 12.013C7.21082 11.9579 7.71157 11.7877 8.21733 11.5073C8.65799 11.2569 9.09364 10.9314 9.52929 10.5208C9.82474 10.2404 10.2003 9.83975 10.646 9.31897C10.7361 9.22884 10.8262 9.03855 10.9214 8.74811C11.0165 8.45768 11.1467 8.27741 11.307 8.21231C11.6675 8.10215 11.9379 7.86179 12.1132 7.49123C12.2584 7.19579 12.3285 6.84026 12.3285 6.43465C12.7041 6.75513 13.0846 7.07561 13.4702 7.39609C14.2564 8.05207 14.9224 8.50776 15.4632 8.76815C15.5734 8.79319 15.6835 8.8032 15.7887 8.8032C16.0791 8.8032 16.3746 8.72308 16.68 8.56284C16.8703 8.45768 17.1307 8.28743 17.4612 8.04707C17.6615 7.56634 17.7616 7.04557 17.7616 6.48472C17.7616 6.11417 17.6965 5.61842 17.5714 4.99248C17.2609 3.4702 17.0956 2.63896 17.0806 2.50376L17.2258 2.32348C17.2559 2.34852 17.321 2.44366 17.4161 2.61391C17.4812 2.72408 17.5513 2.76414 17.6314 2.7341L17.6114 2.7391ZM6.84527 5.15273C6.84527 5.27291 6.83525 5.37806 6.81021 5.47321C6.78518 5.56334 6.73009 5.63345 6.63996 5.68352C6.55984 5.6685 6.49975 5.64847 6.45468 5.62844C6.40961 5.60841 6.37456 5.56835 6.35453 5.51327C6.35453 5.28292 6.41963 5.02754 6.54482 4.75714C6.55483 4.80721 6.54482 4.88232 6.51978 4.99248C6.49474 5.10265 6.48473 5.16274 6.48473 5.17776C6.48473 5.28292 6.5348 5.35302 6.63996 5.39308C6.69003 5.38307 6.72509 5.36304 6.75012 5.333C6.77516 5.30295 6.80521 5.24286 6.84527 5.15273ZM4.45168 3.48022C4.48172 3.54532 4.48172 3.62543 4.44667 3.72058C4.41162 3.81572 4.37656 3.91086 4.34652 3.99599C4.32148 4.02604 4.28142 4.04606 4.22634 4.04606C4.17126 4.04606 4.11617 4.03605 4.07111 4.02103C4.01602 3.98097 3.97096 3.92588 3.94592 3.86079C3.91587 3.79068 3.90586 3.71557 3.90586 3.62543C3.90586 3.54531 3.90586 3.47521 3.91587 3.41512C3.92589 3.35503 3.9359 3.29494 3.95093 3.22984C4.02103 3.09464 4.10115 2.95442 4.18127 2.80921C4.26139 2.66399 4.35153 2.54882 4.45669 2.45868C4.36655 2.60891 4.28142 2.76915 4.19629 2.92939C4.11117 3.08963 4.07111 3.23986 4.07111 3.38507C4.07111 3.52028 4.11117 3.64547 4.19129 3.75563C4.28142 3.78067 4.3365 3.74562 4.36655 3.64547C4.39659 3.55032 4.42664 3.49524 4.45669 3.47521L4.45168 3.48022ZM8.02203 9.39409C7.99699 9.56434 7.97196 9.68452 7.9369 9.75463C7.88182 9.88482 7.79669 9.97496 7.68653 10.03C7.62143 10.03 7.56635 10.005 7.52629 9.95994C7.48122 9.90986 7.45118 9.84977 7.43615 9.77967C7.43615 9.47421 7.45618 9.25889 7.49124 9.13871C7.52629 9.01352 7.59139 8.88332 7.67651 8.74811C7.67651 8.79819 7.66149 8.89834 7.62644 9.05859C7.59639 9.21883 7.57636 9.32899 7.57636 9.38407C7.57636 9.52929 7.62644 9.64446 7.72158 9.73459C7.78668 9.71957 7.84176 9.66449 7.89684 9.56434C7.94692 9.4692 7.99199 9.41412 8.02203 9.39409ZM3.03455 1.10165C3.01953 1.17176 3.00451 1.23685 2.98448 1.28693C2.96945 1.337 2.92939 1.34702 2.8643 1.31697C2.74412 1.23685 2.65899 1.2068 2.61392 1.22183C2.52379 1.69253 2.44367 2.16324 2.36355 2.62894C2.45368 2.65398 2.53881 2.71907 2.62894 2.81922C2.76415 2.97946 2.83926 3.06459 2.84427 3.0696C2.81422 3.18978 2.69404 3.2699 2.49374 3.30996C2.003 3.41512 1.72258 3.53029 1.64246 3.66049C1.64246 3.99599 1.67251 4.38658 1.73761 4.82724C1.88783 5.8688 1.96795 6.51477 1.96795 6.76014C1.96795 7.09564 1.95293 7.38607 1.92789 7.63144C1.89785 7.87681 1.83275 8.12718 1.72759 8.38257C1.83275 8.0721 1.88282 7.7366 1.88282 7.38608C1.88282 7.19579 1.87281 6.99549 1.84777 6.78517C1.73761 5.95392 1.62744 5.11267 1.52228 4.27141C1.52228 4.1362 1.52228 4.001 1.52729 3.86079C1.52729 3.72558 1.56735 3.57536 1.64246 3.41512C1.7326 3.31998 1.84777 3.23986 1.99299 3.17476C2.05809 3.14972 2.19329 3.09965 2.40361 3.01953C2.37356 2.94942 2.30346 2.90936 2.1983 2.90936C2.11818 2.90936 2.04807 2.92939 1.99299 2.96945L1.82273 3.08963C1.7977 3.04957 1.7977 2.99449 1.82273 2.92939C1.84777 2.85928 1.87782 2.80921 1.91788 2.77916C2.02303 2.68903 2.14822 2.63895 2.28843 2.62393C2.25839 2.51877 2.1983 2.38858 2.11818 2.22834C2.03806 2.0681 1.96294 1.91787 1.88783 1.77266C1.87782 1.81272 1.86279 1.83274 1.83776 1.83274C1.76765 1.80771 1.71257 1.79769 1.68252 1.79769C1.63245 1.78768 1.58738 1.76765 1.53731 1.72759C1.48723 1.68753 1.43716 1.63745 1.38207 1.58237C1.37206 1.55232 1.37206 1.50225 1.37206 1.43715C1.37206 1.2669 1.43215 1.12669 1.55233 1.00651C1.76264 1.08663 1.94291 1.29694 2.10315 1.64246C2.20831 1.85779 2.28843 2.003 2.34352 2.07311C2.36855 1.87281 2.39359 1.6675 2.41362 1.46219C2.45368 1.22183 2.54382 1.04156 2.67902 0.92138C2.74412 0.911365 2.7992 0.921375 2.83926 0.93139C2.88433 0.946412 2.94442 1.0015 3.02454 1.10165H3.03455ZM4.62193 5.52328L4.52679 5.77366C4.46169 5.74361 4.40661 5.71356 4.35653 5.68852C4.30646 5.66349 4.26139 5.65849 4.21132 5.67852C4.14121 5.78868 4.08613 5.92889 4.05608 6.09914C3.96094 6.55483 3.90085 6.81021 3.87581 6.85528C3.79569 6.8052 3.71057 6.65498 3.62544 6.3996C3.5353 6.14422 3.41512 6.02904 3.2649 6.06409C3.17476 6.01401 3.1347 5.95393 3.1347 5.88383C3.1347 5.85378 3.14472 5.80871 3.16475 5.75362C3.18478 5.69854 3.20481 5.63344 3.22984 5.56334C3.41512 5.50825 3.55033 5.59839 3.64046 5.83875C3.77066 6.19929 3.85078 6.39459 3.88082 6.42964C3.94592 6.15924 3.99099 5.94892 4.02604 5.8037C4.09614 5.52328 4.2013 5.38307 4.3365 5.38307C4.40661 5.38307 4.50676 5.43315 4.62694 5.52829L4.62193 5.52328ZM3.20481 8.88833C3.20481 9.02353 3.18978 9.13871 3.15473 9.23886C3.12469 9.334 3.05458 9.4041 2.94942 9.44416C2.87932 9.44416 2.81923 9.37907 2.77917 9.25388C2.76915 9.21382 2.76915 9.15874 2.76915 9.08362C2.76915 8.9334 2.79419 8.78317 2.84927 8.64296C2.89935 8.50275 2.97446 8.35753 3.0696 8.2023C3.01452 8.41762 2.95944 8.63295 2.89935 8.85328C2.89935 8.96344 2.92939 9.06359 2.99449 9.15373C3.05959 9.10365 3.09965 9.05357 3.11968 8.99849C3.13971 8.94341 3.16475 8.90836 3.1998 8.88833H3.20481ZM9.34402 5.48823C9.32899 5.45818 9.31397 5.41812 9.29394 5.37806C9.24387 5.30796 9.18878 5.25288 9.12368 5.22283C9.09364 5.24787 9.07361 5.28292 9.07361 5.333C9.07361 5.35803 9.08362 5.38808 9.10365 5.42814C9.12368 5.4682 9.13871 5.49824 9.14371 5.51327C9.19379 5.55333 9.25388 5.54331 9.334 5.48823H9.34402ZM10.0901 7.78167C9.96995 7.83174 9.83976 7.85177 9.69454 7.85177C9.42914 7.85177 9.22383 7.77166 9.0686 7.61141C9.0686 7.51627 9.11868 7.44617 9.22384 7.40611C9.56935 7.40611 9.85478 7.5313 10.0901 7.77666V7.78167Z" fill="white"/>
</svg>
