<svg width="20" height="12" viewBox="0 0 20 12" fill="none" xmlns="http://www.w3.org/2000/svg">
<path fill-rule="evenodd" clip-rule="evenodd" d="M19.995 2.65173C19.9055 2.69154 19.806 2.64179 19.6965 2.50746C19.5871 2.37313 19.5124 2.30348 19.4826 2.30348C19.4428 2.30348 19.398 2.34826 19.3532 2.43284C19.3532 2.96517 19.4129 3.58706 19.5323 4.29353C19.8109 5.95024 19.9502 6.98009 19.9502 7.38805C19.9502 7.81592 19.9303 8.21393 19.8955 8.57711C19.8607 8.94029 19.7861 9.29353 19.6766 9.64677C19.6766 8.73134 19.6219 7.78607 19.5075 6.80597C19.4378 6.1791 19.2985 5.24378 19.0896 4C18.9303 3.06965 18.7761 2.1393 18.6219 1.20398C18.6766 1.03482 18.7313 0.895516 18.791 0.786063C18.8458 0.67661 18.9204 0.562183 19.0199 0.452731C19.3284 1.1194 19.5025 1.48756 19.5323 1.55224C19.6915 1.9005 19.8458 2.26865 20 2.65173H19.995ZM16.0547 0C16.0448 0.0547264 16.0199 0.109451 15.9701 0.169152C15.9204 0.223879 15.8408 0.278603 15.7313 0.338305C14.5672 0.791041 13.4129 1.24378 12.2587 1.68657C12.2886 1.58209 12.3383 1.49253 12.403 1.41791C12.4677 1.34328 12.5473 1.28856 12.6418 1.25871C13.7811 0.845771 14.9204 0.427858 16.0547 0.00497239V0ZM15.3383 2.12437C15.3781 2.00497 15.398 1.88557 15.398 1.76616C15.398 1.64676 15.3881 1.54726 15.3632 1.46766C15.3383 1.38806 15.2935 1.3184 15.2338 1.25373C15.204 1.3184 15.1841 1.38806 15.1841 1.46766C15.1841 1.51741 15.194 1.58706 15.209 1.68159C15.2239 1.77611 15.2338 1.84079 15.2338 1.87064H15.0199C14.9552 1.80099 14.9154 1.70149 14.9005 1.57213C14.8856 1.44278 14.8706 1.32338 14.8657 1.20398C14.796 1.25373 14.7562 1.34826 14.7562 1.49254C14.7562 1.58209 14.7761 1.70149 14.8159 1.86069C14.7861 1.94029 14.7363 2 14.6766 2.0398C14.6169 2.0796 14.5473 2.08955 14.4677 2.06467C14.4279 1.97512 14.408 1.83581 14.408 1.64178C14.408 1.44776 14.408 1.32836 14.398 1.28856C14.3483 1.34328 14.3184 1.39801 14.3085 1.44278C14.2985 1.49253 14.2886 1.56716 14.2886 1.67164C14.2886 1.73632 14.2886 1.83084 14.2985 1.96019C14.2985 2.06467 14.2886 2.1393 14.2736 2.18905C14.2836 2.25373 14.3035 2.30348 14.3433 2.34328C14.4129 2.42288 14.5075 2.44278 14.6169 2.40298C14.7264 2.34825 14.806 2.25373 14.8557 2.12935L14.9652 2.21393C15.0149 2.22885 15.0547 2.23881 15.0846 2.23881C15.1891 2.23881 15.2736 2.20398 15.3333 2.12935L15.3383 2.12437ZM15.3881 3.56716C15.3383 3.61691 15.2886 3.71641 15.2289 3.86567C15.1692 4.01492 15.0995 4.1194 15.0199 4.17413C14.7413 4.0398 14.4975 3.87562 14.2935 3.68656C14.3582 3.54228 14.4229 3.398 14.4975 3.2587C14.592 3.0995 14.7065 3.0199 14.8458 3.0199C14.8706 3.04975 14.9901 3.12935 15.204 3.2587C15.3483 3.34825 15.4129 3.44776 15.393 3.56716H15.3881ZM14.5423 5.26367C14.5672 5.31343 14.5771 5.35821 14.5771 5.40796C14.5771 5.45771 14.5572 5.51244 14.5224 5.58209C14.4876 5.65174 14.4627 5.70149 14.4428 5.73134C14.393 5.79601 14.3333 5.82587 14.2637 5.82587C14.2239 5.82587 14.1841 5.81592 14.1443 5.79104C14.0796 5.67164 14.0498 5.54228 14.0498 5.39801C14.0498 5.2388 14.0796 5.06965 14.1443 4.89552C14.2388 4.68159 14.3085 4.52736 14.3483 4.42786C14.3582 4.49253 14.3234 4.65174 14.2537 4.90547C14.2139 5.0398 14.194 5.14428 14.194 5.21393C14.194 5.36318 14.2687 5.45771 14.4229 5.48756C14.4328 5.45771 14.4478 5.41791 14.4776 5.36816C14.5075 5.3184 14.5274 5.28358 14.5423 5.2587V5.26367ZM10.8657 1.31343C10.7214 1.68159 10.5224 2 10.2687 2.26866C9.95025 2.60199 9.62189 2.77114 9.28856 2.77114C9.23383 2.74129 9.1592 2.74129 9.06965 2.77114C8.9801 2.80099 8.91045 2.82089 8.8607 2.82089C9.18905 2.65174 9.42786 2.53233 9.58706 2.45273C9.8806 2.30348 10.0945 2.14427 10.2338 1.98507C10.1393 1.96019 10.0348 1.9403 9.91542 1.92537C9.80099 1.91045 9.68159 1.90049 9.56219 1.90049C9.21891 1.90049 8.94527 1.97512 8.73632 2.12935C8.91045 1.83582 9.05473 1.63184 9.16418 1.52239C9.36318 1.31343 9.58706 1.21392 9.83085 1.21392C10.204 1.21392 10.5473 1.24875 10.8557 1.32338L10.8657 1.31343ZM12.0498 3.71144L12 3.96019C11.9701 3.97512 11.9154 3.97014 11.8408 3.93532C11.7662 3.90547 11.7065 3.90547 11.6667 3.93532C11.5572 4.03979 11.4876 4.22885 11.4577 4.50248C11.4279 4.77611 11.393 4.9602 11.3433 5.04478C11.2736 4.99502 11.1692 4.81094 11.0348 4.48258C10.9303 4.23383 10.7761 4.12438 10.5672 4.14925C10.5572 4.12438 10.5572 4.0796 10.5572 4.01989C10.5572 3.87064 10.6119 3.75124 10.7264 3.66169C10.8756 3.71642 11 3.84577 11.0945 4.04477C11.1642 4.22885 11.2438 4.41293 11.3234 4.59204C11.3781 4.36318 11.4229 4.18905 11.4527 4.0796C11.5174 3.8806 11.602 3.72637 11.7164 3.61194C11.8607 3.58209 11.9701 3.61194 12.0498 3.70647V3.71144ZM7.74129 1.47761C7.75124 1.54229 7.74129 1.61691 7.72139 1.69651C7.70149 1.78109 7.67164 1.86567 7.63184 1.95522C7.52239 2.00995 7.44279 2.0398 7.39303 2.0398C7.36318 2.0398 7.32338 2.02985 7.28358 2.00497C7.21393 1.88557 7.17413 1.75622 7.17413 1.62189C7.17413 1.50248 7.199 1.37313 7.24378 1.22886C7.24378 1.21891 7.29353 1.0995 7.39801 0.860694C7.39801 0.925371 7.37811 1.02487 7.34328 1.1592C7.30846 1.29353 7.28856 1.38805 7.28856 1.43283C7.28856 1.56218 7.33831 1.66169 7.43284 1.73134C7.50249 1.75622 7.56219 1.73134 7.60697 1.67164C7.65174 1.60697 7.69154 1.54229 7.73134 1.48258L7.74129 1.47761ZM8.19403 4.94029C8.20895 4.99005 8.20895 5.04477 8.19403 5.10945C8.1791 5.17412 8.13433 5.29353 8.06468 5.46766C8 5.51741 7.93035 5.53731 7.85075 5.53731C7.81095 5.53731 7.77612 5.52239 7.74129 5.48756C7.63682 5.38308 7.58706 5.2587 7.58706 5.1194C7.58706 5.00995 7.61692 4.88059 7.67164 4.73631C7.72637 4.59203 7.78109 4.45771 7.8408 4.32836C7.8408 4.37811 7.82587 4.46268 7.79104 4.59204C7.76119 4.72139 7.74129 4.82089 7.74129 4.89054C7.74129 5.03482 7.79105 5.1393 7.89552 5.21393C7.97512 5.22885 8.03483 5.20398 8.07463 5.13432C8.11443 5.06467 8.15423 5 8.19403 4.93532V4.94029ZM17.6766 7.57711C17.408 5.82587 17.1393 4.07463 16.8756 2.32338L16.9701 2.15422C17.0398 2.20397 17.1294 2.31343 17.2338 2.48756C17.3134 2.63184 17.393 2.70646 17.4726 2.71641C17.2985 2.13432 17.1791 1.75622 17.1144 1.58209C16.9652 1.15423 16.806 0.78607 16.6468 0.482588C16.5572 0.616916 16.4776 0.75124 16.398 0.890544C16.2935 1.06467 16.2438 1.2189 16.2438 1.34328C16.2438 1.43781 16.2637 1.52736 16.3035 1.60696L17.3781 7.82587C17.209 7.98507 17.0398 8.10945 16.8706 8.19403C16.7015 8.28358 16.5025 8.35323 16.2786 8.40796C16.1841 8.42288 16.1095 8.43283 16.0647 8.43283C15.9453 8.43283 15.8458 8.41791 15.7612 8.38308C15.6766 8.35323 15.602 8.29353 15.5274 8.20397C15.4975 8.14925 15.4776 8.08955 15.4776 8.02487C15.4776 7.97512 15.4975 7.88557 15.5423 7.74626C15.5871 7.60696 15.607 7.50248 15.607 7.42786C15.3433 7.45273 15.005 7.54229 14.592 7.70149C13.5572 8.08955 13 8.29353 12.9204 8.30846C13.0796 8.17413 13.2388 7.93532 13.398 7.59204C13.5025 7.36318 13.5721 7.21393 13.6119 7.14925C13.6119 7.12438 13.6119 7.08955 13.6219 7.0398C13.6219 6.81592 13.4925 6.62189 13.2289 6.45274C13 6.34328 12.7711 6.22885 12.5473 6.1194C12.3881 6.04975 12.2289 5.99502 12.0746 5.96517C11.9204 5.93532 11.7711 5.91542 11.6269 5.91542C11.0448 5.91542 10.4229 6.20398 9.76617 6.78607C9.23881 7.31343 8.72139 7.83084 8.20398 8.34826C8.02985 8.36318 7.84577 8.26865 7.65672 8.0597C7.2189 7.58209 6.95025 7.33831 6.84577 7.32338C6.74129 7.31343 6.63184 7.30348 6.51244 7.30348C6.07463 7.30348 5.64677 7.41293 5.23383 7.62686C4.90547 7.79601 4.54726 8.06467 4.14925 8.43781C3.72637 8.86069 3.30348 9.28358 2.88557 9.70149C2.38308 10.194 1.93532 10.5423 1.53731 10.7413C1.44279 10.791 1.34328 10.8109 1.23881 10.8109C0.99005 10.8109 0.761194 10.7164 0.547264 10.5224C0.37811 10.3085 0.298507 10.0448 0.298507 9.73631C0.298507 9.50746 0.343283 9.27861 0.427861 9.05472C0.457711 9.01492 0.631841 8.67164 0.940299 8.02985C1.0597 7.78109 1.18905 7.59203 1.33333 7.45771C1.46766 7.48756 1.61692 7.43283 1.77612 7.28855C1.89552 7.14428 1.98507 6.99005 2.0398 6.83084C2.09453 6.66666 2.12438 6.49751 2.12438 6.32338C2.12438 6.22885 2.12438 6.15423 2.11443 6.10945C2.07463 6.0995 2.04975 6.12437 2.04478 6.17412C2.03483 6.22387 2.02985 6.25373 2.0199 6.26368C1.95025 6.39303 1.87065 6.47761 1.79104 6.52239C1.71144 6.56716 1.63682 6.58208 1.56219 6.56218C1.41791 6.40298 1.32338 6.25373 1.26866 6.10945C1.21891 5.96517 1.18905 5.79602 1.18905 5.59701C1.18905 5.30348 1.26866 4.94527 1.42786 4.52239C1.51741 4.29353 1.64179 3.96517 1.81095 3.54229C1.53234 3.95522 1.30846 4.36318 1.14428 4.76119C0.935323 5.26368 0.835821 5.72636 0.835821 6.14427C0.835821 6.34328 0.865672 6.55224 0.920398 6.77114C0.975125 6.99005 1.0597 7.18905 1.16915 7.36318C1.07463 7.61691 0.885572 7.99005 0.606965 8.47761C0.328358 8.96517 0.144279 9.34825 0.0597014 9.61691C0.0199004 9.75124 0 9.87562 0 9.98507C0 10.1741 0.039801 10.3632 0.114428 10.5473C0.189055 10.7313 0.293532 10.8955 0.417911 11.0348C0.537314 11.1045 0.666667 11.1791 0.800995 11.2537C0.935323 11.3284 1.06468 11.3682 1.18408 11.3682C1.25373 11.3682 1.33831 11.3483 1.43284 11.3085C1.8607 11.1244 2.37313 10.7612 2.9602 10.209C3.73134 9.48258 4.20896 9.05472 4.39303 8.92039C5.04478 8.42786 5.72139 8.1791 6.42289 8.1791C6.59701 8.20895 6.78607 8.33333 6.98507 8.54726C7.08955 8.66666 7.24378 8.84079 7.45274 9.07462C7.38806 9.1791 7.35323 9.24378 7.34328 9.26368C7.31343 9.33333 7.31343 9.39801 7.34328 9.45274C7.41294 9.44279 7.48259 9.4179 7.55224 9.36815C7.62189 9.3184 7.68657 9.27363 7.75124 9.22388C7.9204 9.29353 8.09453 9.34825 8.28358 9.37811C8.47264 9.40796 8.65174 9.42786 8.82587 9.42786C9.51741 9.33831 10.209 9.24875 10.9055 9.15423C11.5721 9.15423 12.2687 9.0597 12.9851 8.86567C13.5323 8.72139 14.1592 8.49751 14.8607 8.199C14.8856 8.199 14.9303 8.199 14.9901 8.18905C15.1343 8.18905 15.2189 8.23881 15.2537 8.33333L15.2438 8.36816C15.2338 8.40796 15.2338 8.46766 15.2338 8.54726C15.2338 8.68159 15.2537 8.80099 15.2935 8.9005C15.3333 9 15.408 9.0796 15.5224 9.1393C15.6318 9.199 15.7662 9.22885 15.9154 9.22885C16.0448 9.22885 16.1542 9.2189 16.2438 9.199C16.3333 9.1791 16.4776 9.1393 16.6667 9.07462C16.995 8.96517 17.2438 8.76617 17.4229 8.48756C17.602 8.20895 17.6915 7.89552 17.6915 7.54228L17.6766 7.57711ZM5.32836 0.900496L5.25871 1.14925C5.1791 1.08458 5.08955 1.04477 4.98507 1.02985C4.8806 1.1592 4.82587 1.38308 4.81592 1.70646C4.80597 2.02985 4.77114 2.24875 4.70647 2.36816C4.78607 2.43283 4.87065 2.49751 4.96517 2.57214C5.05473 2.64179 5.12438 2.72139 5.17413 2.81094L5.10448 3.10945C5.01493 3.0796 4.91542 3.0597 4.80597 3.0597C4.59701 3.0597 4.40796 3.11442 4.23383 3.22885C4.1791 3.3184 4.1393 3.40795 4.11443 3.50746C4.08955 3.60696 4.0796 3.70647 4.0796 3.80099C4.0796 3.94527 4.10448 4.1194 4.14925 4.32836C4.25871 4.80597 4.31841 5.10945 4.31841 5.23383V5.43781C4.31841 5.60696 4.31841 5.80099 4.31343 6.02985C4.31343 6.2587 4.27363 6.50746 4.199 6.78607C4.24876 6.55721 4.26866 6.33333 4.26866 6.1194C4.26866 5.99999 4.25871 5.87064 4.24378 5.73134C4.22886 5.59203 4.21393 5.45771 4.19403 5.33333C4.12438 4.98507 4.06965 4.72636 4.0398 4.55721C3.98507 4.26368 3.95522 4.00995 3.95522 3.80597C3.95522 3.60199 3.99005 3.36816 4.06468 3.1393C4.13433 3.0597 4.22388 2.99005 4.33333 2.93035C4.44279 2.87065 4.55721 2.81592 4.68657 2.77114C4.66169 2.70149 4.59702 2.66169 4.49751 2.66169C4.46766 2.66169 4.41791 2.67164 4.35323 2.68656C4.34328 2.70149 4.32338 2.71642 4.29353 2.73632C4.26368 2.75124 4.23881 2.76617 4.22388 2.77114C4.19403 2.68159 4.21393 2.58706 4.29353 2.48258L4.56716 2.32835C4.53731 2.1194 4.43781 1.94527 4.27861 1.80099C4.1592 1.69651 3.98507 1.59204 3.75124 1.47761C3.76617 1.35821 3.78109 1.2587 3.79104 1.1791C3.80099 1.0995 3.85075 1.03482 3.93035 0.990045C4.11443 1.05472 4.26368 1.199 4.38308 1.43283C4.47761 1.62189 4.57711 1.81592 4.68159 2.00497C4.71144 1.71144 4.74129 1.45771 4.77114 1.2388C4.80099 1.02487 4.88557 0.845765 5.02985 0.701487C5.10945 0.691536 5.1791 0.721386 5.24378 0.786063C5.26866 0.810939 5.29353 0.850742 5.32836 0.905469V0.900496ZM2.69154 1.90547C2.66169 2.05472 2.63184 2.18408 2.60697 2.28358C2.58209 2.38308 2.51741 2.44278 2.40299 2.45771C2.33831 2.44775 2.28358 2.42786 2.22886 2.39303C2.1791 2.35821 2.14925 2.30348 2.14925 2.23383C2.14925 2.02487 2.16915 1.85075 2.20896 1.70149C2.24876 1.55224 2.32338 1.37313 2.43781 1.1592C2.43781 1.22387 2.41294 1.32836 2.36816 1.48258C2.31841 1.63184 2.29851 1.75124 2.29851 1.84079C2.29851 1.99005 2.34826 2.0995 2.44279 2.16417C2.51244 2.16417 2.55721 2.1194 2.57214 2.03482C2.58706 1.94527 2.62687 1.90547 2.69154 1.91542V1.90547ZM11.4677 9.9403C11.4279 10.0846 11.3433 10.2189 11.2189 10.3532C11.0896 10.4826 10.9502 10.5821 10.801 10.6468C10.7363 10.6766 10.6716 10.6965 10.6119 10.6965C10.5423 10.6965 10.403 10.6468 10.204 10.5522C10.1095 10.5025 10.0348 10.4826 9.97512 10.4826C9.89552 10.4826 9.81094 10.5224 9.72637 10.602L9.06965 10.9851L8.44776 11.3433C8.18408 11.4876 7.94527 11.607 7.72637 11.7015C7.50746 11.796 7.26866 11.8756 7.01493 11.9403C7.23881 11.8607 7.47761 11.7512 7.73134 11.6119C7.98507 11.4726 8.22886 11.3234 8.45771 11.1642L9.08955 10.7463C9.32836 10.5771 9.53234 10.4627 9.69652 10.398C9.9204 10.3085 10.1642 10.2687 10.4229 10.2687L10.5423 10.3632C10.5721 10.3383 10.6517 10.2537 10.7711 10.1144C10.9453 9.90547 11.0945 9.80597 11.2139 9.80597C11.3085 9.80597 11.393 9.85572 11.4627 9.95025L11.4677 9.9403ZM3.27861 7.36318C3.30348 7.4179 3.29851 7.47761 3.26866 7.53731C3.23881 7.59701 3.19901 7.62686 3.1592 7.62686L2.99005 7.48258C2.9403 7.58706 2.90547 7.82089 2.87562 8.18905C2.84577 8.55721 2.75622 8.80597 2.60697 8.9403C2.52736 8.84577 2.46269 8.72139 2.40796 8.57214C2.35821 8.42288 2.30846 8.26865 2.25871 8.1194C2.20896 8.25373 2.12935 8.28855 2.0199 8.21393C1.99005 8.18408 1.97015 8.1393 1.97015 8.08458C1.97015 8.04478 1.98507 7.98507 2.0199 7.90547C2.04975 7.82587 2.06965 7.76119 2.06965 7.71641C2.10945 7.69154 2.14925 7.66666 2.18408 7.64676C2.21891 7.62189 2.24876 7.61691 2.27363 7.62189C2.40298 7.95024 2.52736 8.26865 2.65672 8.58706C2.68657 8.52239 2.72637 8.28855 2.77612 7.87562C2.82587 7.46765 2.94527 7.24378 3.13433 7.21393L3.27861 7.36816V7.36318ZM13.0796 7.56716C12.6567 7.75621 12.3035 7.90547 12.0149 8.00995C11.6468 8.14427 11.2786 8.2587 10.9055 8.34328C10.6368 8.40795 10.3582 8.4577 10.0697 8.49751C9.78109 8.53731 9.50249 8.55721 9.23383 8.55721C9.0199 8.55721 8.79602 8.54726 8.56716 8.52238C8.99005 8.0597 9.27861 7.75622 9.43781 7.61691C10.0597 7.04478 10.6517 6.75621 11.2189 6.75621C11.4577 6.75621 11.6915 6.80099 11.9254 6.88557C12.0199 6.92537 12.1741 6.99005 12.393 7.07463C12.7114 7.20896 12.9403 7.37313 13.0846 7.56219L13.0796 7.56716ZM11.2289 10.1592C11.0547 10.2935 10.8856 10.3632 10.7264 10.3632C10.7562 10.2687 10.8209 10.194 10.9154 10.1493C11.01 10.0995 11.1045 10.0895 11.1891 10.1144C11.1891 10.1293 11.199 10.1443 11.2239 10.1642L11.2289 10.1592Z" fill="white"/>
</svg>
