<svg width="20" height="12" viewBox="0 0 20 12" fill="none" xmlns="http://www.w3.org/2000/svg">
<path fill-rule="evenodd" clip-rule="evenodd" d="M14.5006 0.359147C14.3603 0.499438 14.1807 0.634117 13.9618 0.751962C13.8047 0.841749 13.5971 0.93715 13.3446 1.04377C13.1257 1.12795 12.9125 1.21212 12.6936 1.29629C12.4747 1.38047 12.284 1.48709 12.11 1.60494C12.2054 1.4422 12.3513 1.29069 12.5365 1.16162C12.7217 1.03255 12.9349 0.920312 13.1762 0.830525C13.6195 0.673398 14.0572 0.516273 14.5006 0.359147ZM20 2.5477C19.8934 2.19417 19.7138 1.68912 19.4613 1.02133C19.3266 0.667793 19.2144 0.375979 19.1246 0.1459C19.1077 0.173959 19.0292 0.303032 18.8777 0.527499C18.771 0.684625 18.7205 0.819306 18.7205 0.93154C18.7205 1.01571 18.7486 1.09428 18.8103 1.17845C18.8103 1.67228 18.844 2.27273 18.9057 2.9798C18.9675 3.68687 19.0292 4.3715 19.0909 5.02806C19.1526 5.68463 19.1807 6.30752 19.1807 6.89113C18.7767 6.89113 18.3446 6.84625 17.8788 6.75646C17.5701 6.69473 16.8967 6.52077 15.8586 6.22896C15.9652 6.0101 16.0325 5.79686 16.0718 5.58923C16.1111 5.3816 16.1279 5.15152 16.1279 4.9046C16.1279 4.56229 16.055 4.01796 15.9091 3.27161C15.7632 2.52525 15.6902 1.9697 15.6902 1.60494C15.7576 1.69473 15.8361 1.79574 15.9203 1.91358C16.0045 2.03143 16.0662 2.10438 16.0943 2.13244C16.055 1.83502 15.9596 1.47587 15.8025 1.055C15.6958 0.768802 15.5499 0.420875 15.3535 0C15.2413 0.0841751 15.1459 0.207634 15.073 0.370372C15.0224 0.521888 14.9663 0.66779 14.9158 0.808082C14.9551 1.1055 15.0673 1.72278 15.2525 2.64871C15.5163 3.97306 15.6453 4.98878 15.6453 5.70146C15.2862 5.75197 14.8709 5.78002 14.3996 5.78002H13.3333C13.2267 5.92032 13.1425 6.07183 13.0808 6.22896C13.0191 6.38609 12.9854 6.5376 12.9854 6.68911C13.0584 6.6835 13.1706 6.6779 13.3109 6.6779C13.6981 6.6779 14.1526 6.75084 14.6689 6.89113C14.9551 6.96408 15.3816 7.08754 15.9484 7.26151C15.4321 7.50281 14.9214 7.73849 14.4108 7.96857C13.8047 8.23232 13.266 8.3614 12.7946 8.3614C12.7104 8.3614 12.6431 8.36139 12.587 8.35578C12.5309 8.35578 12.4747 8.34456 12.413 8.33895C12.1717 8.29966 11.9585 8.1706 11.7733 7.94613C11.6162 7.76094 11.4983 7.53647 11.4141 7.28395L10.3591 0.359147L10.2806 0.224472C10.2132 0.2862 10.1571 0.359149 10.1066 0.448936C10.0561 0.538722 9.98878 0.679017 9.89899 0.864202L10.6734 5.44332C10.7576 6.09989 10.8418 6.75645 10.9315 7.40741C11.0494 8.17059 11.33 8.73738 11.7733 9.11336C12.0483 9.18631 12.3288 9.22559 12.6038 9.22559C12.9574 9.22559 13.2941 9.17508 13.6139 9.07407C13.9338 8.97306 14.2873 8.82717 14.6689 8.64198C14.8934 8.53536 15.2301 8.367 15.679 8.13692C16.3468 7.82828 16.9473 7.67677 17.486 7.67677C17.514 7.67677 17.5645 7.67677 17.6319 7.66555C17.7217 7.66555 17.89 7.68238 18.1313 7.71605C18.3726 7.74972 18.5578 7.76655 18.6756 7.76655C18.7598 7.76655 18.844 7.75533 18.9394 7.73288C19.0348 7.71044 19.1134 7.67677 19.1807 7.63188C19.1807 7.99102 19.1639 8.33895 19.1246 8.68126C19.0853 9.02357 19.0292 9.33782 18.945 9.62963C19.1863 9.09652 19.349 8.55219 19.4388 7.99102C19.5286 7.42986 19.5735 6.79574 19.5735 6.09428C19.5735 5.73513 19.5511 5.26375 19.5062 4.68013C19.4108 3.42312 19.3603 2.65432 19.3603 2.36813L19.5174 2.18856C19.5174 2.18856 19.5847 2.29517 19.6745 2.44669C19.7362 2.55331 19.8036 2.62065 19.8765 2.65994L20 2.5477ZM14.1526 3.73738C14.1246 3.97868 14.0348 4.1807 13.8945 4.34344C13.7823 4.3715 13.6925 4.35466 13.6308 4.28171C13.569 4.20876 13.5297 4.12458 13.5129 4.01796C13.5129 3.67565 13.5971 3.36139 13.7598 3.07519C13.7318 3.2716 13.7037 3.4624 13.6813 3.64759C13.6813 3.73737 13.6925 3.81033 13.7093 3.86644C13.7262 3.92256 13.7654 3.97307 13.8272 4.01796C13.9169 4.04041 13.9843 4.01796 14.0236 3.945C14.0629 3.87205 14.1077 3.80472 14.1526 3.73738ZM12.3345 3.8945C12.2727 4.19192 12.1717 4.5174 12.0202 4.87094C12.11 4.55107 12.1549 4.23681 12.1549 3.9394C12.1549 3.68687 12.1268 3.45679 12.0707 3.26038C12.0146 3.06397 11.9136 2.87879 11.7733 2.70483C11.7565 2.65994 11.7677 2.61504 11.7957 2.57576C11.8238 2.53647 11.8575 2.49158 11.8967 2.44669C12.0763 2.57576 12.1998 2.78339 12.2671 3.07519C12.312 3.27721 12.3345 3.55219 12.3345 3.8945ZM9.3266 2.49158C9.29854 2.6431 9.2312 2.79461 9.12458 2.95174C9.06285 3.04152 9.00673 3.1257 8.94501 3.20988C8.83277 3.20988 8.70932 3.1706 8.57464 3.09765C8.37823 2.99102 8.26599 2.9349 8.22671 2.91807L8.69809 2.24467L9.3266 2.49158ZM16.5432 9.88776C16.4478 10.0617 16.3468 10.2357 16.2514 10.4153C16.1785 10.5275 16.0887 10.6005 15.9933 10.6285C15.954 10.5836 15.8474 10.5163 15.6622 10.4321C15.477 10.3479 15.3872 10.2525 15.3872 10.1459L15.9035 9.60718L16.5432 9.88776ZM8.59708 0.527499C8.43995 0.712684 8.15376 0.869809 7.74411 0.998877C7.17733 1.17284 6.83502 1.28508 6.72278 1.34681C6.29069 1.50393 5.96521 1.62178 5.74635 1.69473C5.35915 1.83502 5.04489 1.9697 4.80359 2.09877C4.80359 2.03704 4.83726 1.96969 4.9046 1.89113C4.97194 1.81257 5.03928 1.75085 5.10662 1.70595C6.26824 1.31875 7.42985 0.925927 8.59708 0.527499ZM10.101 3.33333C10.0056 3.5073 9.93266 3.63075 9.88777 3.71492C9.80359 3.86644 9.71942 3.9899 9.62963 4.0853L8.85522 3.73738C8.73737 4.09091 8.54097 4.26487 8.2716 4.26487C8.09203 4.26487 7.89562 4.19192 7.67677 4.05163C7.69921 3.92256 7.75533 3.78788 7.84512 3.63636C7.91246 3.52974 8.01347 3.40629 8.14815 3.25477C8.19865 3.29405 8.3165 3.33895 8.49607 3.39506C8.67565 3.45118 8.80471 3.51852 8.88889 3.60269L9.4725 2.96296C9.4725 2.96296 9.61279 3.03591 9.87654 3.16498C9.98878 3.21549 10.0617 3.27161 10.101 3.33333ZM6.67789 2.8844C6.633 2.89001 6.59933 2.91807 6.57688 2.96296C6.55443 3.00786 6.52637 3.06397 6.49832 3.13131C6.42536 3.09203 6.37486 3.05836 6.35241 3.01908C6.30752 2.95174 6.28507 2.86756 6.28507 2.76094C6.28507 2.65432 6.32997 2.46914 6.41975 2.20539C6.50954 1.94164 6.54321 1.74524 6.52076 1.62739C6.50393 1.6779 6.42536 1.91358 6.27385 2.32323C6.16723 2.60943 6.11672 2.84512 6.11672 3.03031C6.11672 3.18182 6.14478 3.3165 6.19529 3.44557C6.28507 3.47362 6.3468 3.49046 6.37486 3.49046C6.43659 3.49046 6.48148 3.45679 6.52076 3.38945C6.64983 3.25477 6.70034 3.08642 6.67789 2.8844ZM14.826 10.404C14.7082 10.5836 14.5398 10.7295 14.321 10.8418C14.1021 10.954 13.8777 11.0101 13.6476 11.0101C13.5634 11.0101 13.5017 11.0101 13.4568 10.9989C13.4063 10.9989 13.3558 10.9933 13.3109 10.9764C13.2043 10.9371 13.1369 10.881 13.0976 10.7969C13.1145 10.6678 13.1594 10.5556 13.2435 10.4489C13.3558 10.3086 13.5297 10.174 13.7598 10.0561C13.7318 10.0056 13.6869 9.97194 13.6308 9.96072C13.5746 9.9495 13.4905 9.94388 13.3782 9.94388L13.3558 9.96633C13.3165 9.93827 13.3221 9.89899 13.367 9.85971C13.4119 9.82043 13.4343 9.78676 13.4343 9.76431C13.5017 9.69136 13.5746 9.65207 13.6588 9.65207C13.7262 9.65207 13.8103 9.68013 13.9057 9.73064C13.9506 9.75308 14.0236 9.79798 14.1302 9.86532C14.0685 9.98317 13.9338 10.1122 13.7205 10.2469C13.5073 10.3816 13.3838 10.4994 13.3558 10.6061C13.4961 10.6902 13.6588 10.7295 13.8384 10.7295C13.9955 10.7295 14.1526 10.7015 14.3154 10.6397C14.4781 10.578 14.6465 10.4994 14.826 10.404ZM4.54545 1.13356C4.50056 1.27385 4.46689 1.38047 4.43883 1.45342C4.41077 1.52637 4.3771 1.57688 4.33221 1.60494C4.21998 1.54321 4.10774 1.51515 3.99551 1.51515C3.81033 1.51515 3.60831 1.61055 3.40067 1.80696C2.81706 2.35129 2.49719 2.63749 2.43547 2.65994L1.62739 3.09765L3.64759 1.41414C3.62514 1.38609 3.57464 1.35802 3.49046 1.32996C3.40629 1.30191 3.35578 1.28507 3.33333 1.26823C3.33333 1.06621 3.367 0.86981 3.43434 0.684625C3.47924 0.572391 3.56902 0.392814 3.7037 0.1459C3.91134 0.235687 4.10774 0.370373 4.28171 0.555559C4.45567 0.740744 4.54545 0.93154 4.54545 1.13356ZM6.52076 5.15152C6.48148 5.22447 6.46465 5.28059 6.46465 5.30865C6.42536 5.30865 6.37486 5.29742 6.30752 5.28059C6.24018 5.26375 6.19529 5.25253 6.17284 5.25253C6.14478 5.25253 6.11111 5.26375 6.07183 5.28619C6.02694 5.39843 5.98765 5.54995 5.9596 5.74636C5.88664 6.26824 5.84175 6.5376 5.83614 6.55444C5.75196 6.46465 5.66779 6.30752 5.57239 6.08867C5.47699 5.86981 5.39282 5.71269 5.31987 5.6229C5.29742 5.68463 5.26375 5.71269 5.21885 5.71269C5.1908 5.71269 5.14029 5.69585 5.07856 5.65657C5.01683 5.61729 4.97755 5.60045 4.96072 5.60045C4.93266 5.54994 4.91583 5.49383 4.91583 5.4321C4.91583 5.38721 4.92705 5.33109 4.94388 5.26375C4.96072 5.19641 4.98878 5.13469 5.01684 5.07296C5.05612 5.02806 5.10101 5.00561 5.15152 5.00561C5.17396 5.00561 5.21324 5.02245 5.27497 5.05051C5.36476 5.16835 5.46016 5.32548 5.56678 5.51067C5.61167 5.58362 5.69024 5.74074 5.80247 5.97082C5.84736 5.69585 5.88664 5.49383 5.9147 5.36476C5.97643 5.13468 6.08867 4.97755 6.2514 4.89338C6.31313 4.91583 6.37486 4.93827 6.44781 4.95511C6.52076 4.97194 6.55443 5.01123 6.55443 5.06173C6.55443 5.08418 6.54321 5.11224 6.52076 5.15152ZM4.78115 3.367C4.78115 3.367 4.67452 3.2716 4.48934 3.15376C4.39955 3.09203 4.30415 3.0303 4.19753 2.96296L3.59147 3.65881C3.48485 3.56341 3.36139 3.48485 3.20988 3.42312C3.05836 3.3614 2.91246 3.30528 2.77217 3.25477C2.62065 3.5073 2.52525 3.68125 2.48597 3.77665C2.44669 3.87205 2.41302 3.97306 2.39057 4.0853C2.60943 4.19753 2.82267 4.30415 3.04153 4.41077C3.14815 4.41077 3.24355 4.3266 3.33333 4.15264C3.45118 3.92256 3.52974 3.78227 3.56902 3.73738L4.36588 4.15264C4.4725 4.00113 4.55668 3.87206 4.61841 3.75421C4.68013 3.63637 4.73625 3.5073 4.78115 3.367ZM10.4377 9.98878C10.3872 10.1066 10.3086 10.2076 10.2132 10.2806C10.1178 10.3535 9.98878 10.4209 9.83726 10.4826C9.68575 10.5443 9.5679 10.5836 9.48373 10.6061C9.34343 10.6566 9.21998 10.7127 9.12458 10.7632C9.17508 10.6566 9.25365 10.5668 9.36027 10.4882C9.46689 10.4097 9.59035 10.3423 9.73625 10.2806C9.88216 10.2189 9.99439 10.174 10.0786 10.1459C10.2525 10.0786 10.3704 10.0281 10.4377 9.98878ZM9.38272 8.78788C9.56229 8.36701 9.65208 7.92929 9.65208 7.46353C9.65208 7.23345 9.62402 7.00898 9.56229 6.79013C9.50056 6.57127 9.41078 6.38609 9.28171 6.22896L9.07969 6.98092C9.09652 7.09316 9.1358 7.2559 9.20314 7.47475C9.27048 7.69361 9.30976 7.85634 9.3266 7.96857C9.2312 8.06397 9.11897 8.1257 8.9899 8.14815C8.96184 8.14815 8.91695 8.15376 8.86644 8.17059C8.81594 8.18743 8.73737 8.19304 8.63075 8.19304C8.23232 8.19304 7.90124 8.04714 7.63187 7.75534C7.62626 7.67116 7.6431 7.5477 7.68799 7.37374C7.71044 7.28956 7.72166 7.22784 7.72166 7.18294C7.60943 7.30079 7.42985 7.51403 7.18294 7.81145C6.7789 8.24355 6.38608 8.4624 6.00449 8.4624C5.93154 8.4624 5.87542 8.4624 5.83614 8.45118C5.43771 8.45118 5.06734 8.25477 4.7138 7.85634C4.69697 7.83951 4.45006 7.49158 3.96184 6.81257C3.66442 6.90797 3.4119 7.07632 3.20988 7.3064C3.05275 7.48036 2.89562 7.72727 2.7385 8.04714C2.51403 8.47362 2.36813 8.73737 2.30079 8.84399C2.1156 9.14141 1.91919 9.37149 1.71717 9.52862C1.64422 9.54545 1.58249 9.55107 1.5376 9.55107C1.35802 9.55107 1.20651 9.48934 1.08866 9.37149C0.819304 9.14141 0.622896 8.86083 0.499439 8.53536C0.375982 8.20988 0.314254 7.86195 0.314254 7.49719C0.314254 7.13244 0.37037 6.75645 0.482604 6.41975L0.886644 6.39731C1.06061 6.23457 1.18406 6.02694 1.26824 5.78002C1.32997 5.59484 1.37486 5.34792 1.40292 5.05051C1.35241 5.04489 1.31874 5.05612 1.30752 5.0954C1.2963 5.13468 1.28507 5.17958 1.27946 5.23008C1.22896 5.32548 1.16162 5.40404 1.08866 5.46016C1.01571 5.51627 0.925926 5.5275 0.830528 5.48821C0.712682 5.32548 0.622896 5.15713 0.566779 4.99439C0.510662 4.83166 0.482604 4.6633 0.482604 4.48934C0.482604 4.07969 0.701459 3.49046 1.14478 2.72727C1.40853 2.27273 1.57688 1.94164 1.66106 1.73962C1.48709 1.85747 1.2963 2.09315 1.08866 2.44669C0.937149 2.69921 0.841751 2.85634 0.796858 2.91807C0.572391 3.34456 0.409652 3.70932 0.30303 4.00673C0.145903 4.43883 0.06734 4.83165 0.06734 5.18519C0.06734 5.63973 0.190797 6.03816 0.437711 6.37486C0.286195 6.66667 0.179574 6.95847 0.106622 7.25028C0.0336701 7.54209 0 7.84512 0 8.15938C0 8.6027 0.0897868 9.01796 0.26936 9.41639C0.443322 9.73064 0.622896 9.97194 0.808081 10.1459C1.07183 10.3872 1.34119 10.5051 1.62739 10.5051C1.86869 10.3704 2.07632 10.1627 2.25589 9.88776C2.32884 9.76992 2.46352 9.51179 2.64871 9.11336C2.80022 8.77666 2.94052 8.51291 3.0752 8.32772C3.27161 8.05836 3.49607 7.86195 3.7486 7.73288C3.88328 7.82267 3.98429 7.94613 4.05163 8.10326C4.21437 8.4624 4.45567 8.76543 4.76992 9.00674C5.08418 9.24804 5.42649 9.37149 5.80247 9.37149C6.11672 9.37149 6.41975 9.26487 6.71156 9.05724C6.96409 8.87767 7.17733 8.63636 7.35129 8.33895C7.37374 8.47924 7.45791 8.62514 7.60943 8.76543C7.7385 8.88328 7.87318 8.97307 8.01347 9.0348C8.06397 9.04041 8.14254 9.05163 8.24355 9.06286C8.34456 9.07408 8.43434 9.07969 8.51852 9.07969C8.68126 9.07969 8.844 9.05724 9.00112 9.00674C9.15825 8.95623 9.28732 8.88328 9.38272 8.78788ZM8.73176 10.3704C8.68126 10.4826 8.60269 10.6005 8.5073 10.7183C8.4119 10.8361 8.30527 10.9596 8.19304 11.0774C7.97419 10.9877 7.81706 10.9203 7.71044 10.8754C7.51403 10.7912 7.38496 10.7015 7.31762 10.6061L6.68911 11.2233C6.66106 11.1841 6.57127 11.1392 6.42537 11.0831C6.27946 11.0269 6.156 10.982 6.04938 10.9428C6.04938 10.8249 6.09989 10.7015 6.20651 10.5724C6.31313 10.4433 6.41414 10.3199 6.52076 10.202C6.65544 10.202 6.80135 10.2357 6.95847 10.303C7.0651 10.3479 7.19978 10.4209 7.37374 10.5275L7.9798 9.94388C8.05275 9.97194 8.14254 10.0168 8.24916 10.0786C8.40629 10.174 8.56902 10.275 8.73176 10.3704ZM2.53648 6.22896C2.54209 6.29069 2.5477 6.33558 2.5477 6.36363C2.5477 6.45903 2.53648 6.54321 2.50842 6.61617C2.48036 6.68912 2.42985 6.75084 2.3569 6.81257C2.27273 6.84063 2.20539 6.83502 2.14927 6.79574C2.09315 6.75645 2.05387 6.70595 2.03704 6.64422C2.0202 6.58249 2.00898 6.51516 2.00898 6.43098C2.00898 6.25141 2.05387 6.05499 2.13805 5.84736C2.22222 5.63973 2.3064 5.4321 2.39057 5.23008C2.40741 5.3367 2.37374 5.49383 2.29517 5.70707C2.21661 5.92031 2.17733 6.06622 2.17733 6.1504C2.17733 6.22335 2.18855 6.28508 2.211 6.33558C2.23345 6.38609 2.28395 6.43098 2.3569 6.47587C2.4018 6.45904 2.42985 6.41414 2.44669 6.34119C2.46352 6.26824 2.49158 6.22896 2.53648 6.22896ZM3.96184 10.1908C3.93939 10.2862 3.90011 10.3928 3.84961 10.4994C3.7991 10.6061 3.73737 10.7071 3.67003 10.7969C3.60831 10.7969 3.5578 10.7744 3.5073 10.7239C3.45679 10.6734 3.42873 10.6229 3.41751 10.5724C3.40629 10.5219 3.40067 10.4602 3.40067 10.3928C3.40067 10.2974 3.42873 10.174 3.47924 10.0224C3.52974 9.87093 3.56902 9.7587 3.59147 9.68574C3.56902 9.82042 3.55219 9.96072 3.53535 10.101C3.53535 10.2525 3.57464 10.3591 3.64759 10.4265L3.71493 10.4602C3.75982 10.4545 3.81033 10.3928 3.86083 10.2806C3.88889 10.2189 3.92256 10.1908 3.96184 10.1908ZM4.33221 1.23457L4.09652 0.864202C4.05724 0.937154 4.0404 0.99327 4.0404 1.02133C4.0404 1.06622 4.05724 1.1055 4.0853 1.13356C4.15264 1.2009 4.23681 1.23457 4.33221 1.23457ZM3.84961 1.055C3.85522 1.00449 3.84961 0.959596 3.82155 0.920314C3.79349 0.881032 3.75982 0.847366 3.71493 0.819308C3.60831 0.780026 3.54658 0.819309 3.52413 0.942765C3.56341 0.970824 3.61953 0.998876 3.69809 1.01571C3.77666 1.03255 3.82716 1.04939 3.84961 1.055Z" fill="white"/>
</svg>
