<svg width="20" height="8" viewBox="0 0 20 8" fill="none" xmlns="http://www.w3.org/2000/svg">
<path fill-rule="evenodd" clip-rule="evenodd" d="M20 4.41938C20 4.74027 19.9746 5.04846 19.9206 5.34711C19.8666 5.64576 19.784 5.93487 19.6728 6.22082C19.7299 5.89993 19.7554 5.55679 19.7554 5.19142C19.7554 4.97855 19.7427 4.7498 19.7172 4.50516L19.282 0.654487C19.2724 0.62907 19.2661 0.587766 19.2661 0.533755C19.2661 0.447972 19.2915 0.362197 19.3423 0.273238C19.3932 0.187455 19.4567 0.104844 19.533 0.028593C19.5774 0.146147 19.6473 0.31454 19.7395 0.530584C19.892 0.892776 19.9778 1.18189 20 1.40111L19.7109 1.00397L19.6569 1.09611L20 4.41938ZM16.8578 0.498811C16.8642 0.530582 16.8515 0.562349 16.8261 0.594121C16.8006 0.625892 16.7689 0.660843 16.7276 0.695791C16.0318 0.943607 15.6473 1.08341 15.5774 1.10882C15.1708 1.26133 14.7895 1.417 14.4337 1.57268C14.4337 1.42653 14.5195 1.32487 14.6942 1.26768C14.9579 1.18507 15.104 1.13424 15.1295 1.11517C15.7045 0.911838 16.2796 0.705324 16.861 0.498811H16.8578ZM16.394 1.9317L16.3336 2.12232C16.2828 2.10325 16.2319 2.07785 16.1811 2.05243C16.1493 2.05243 16.1334 2.07466 16.1271 2.12232C16.1271 2.28435 16.1176 2.42733 16.1017 2.54806C16.0826 2.66879 16.0508 2.79587 16.0064 2.92931C15.9555 2.87848 15.8952 2.77999 15.8221 2.63702C15.7522 2.49087 15.6886 2.3892 15.6315 2.32884C15.6156 2.37014 15.5965 2.3892 15.5711 2.3892C15.5266 2.37332 15.4885 2.36379 15.4631 2.35743C15.444 2.36379 15.4249 2.35742 15.4059 2.34154C15.3868 2.32565 15.3709 2.30977 15.355 2.29706C15.355 2.14456 15.4091 2.02383 15.5139 1.9317C15.6092 1.97618 15.6982 2.06831 15.7808 2.20493C15.8475 2.32248 15.9142 2.43686 15.9873 2.54806C16.0064 2.37967 16.0318 2.24306 16.0604 2.13186C16.089 2.02384 16.1366 1.92851 16.2097 1.84591C16.3177 1.83638 16.3781 1.86497 16.394 1.92852V1.9317ZM14.7006 2.90707C14.7006 2.97379 14.6815 3.03733 14.6465 3.10088C14.6116 3.16442 14.5639 3.20889 14.5004 3.23431C14.4178 3.23431 14.3638 3.22796 14.332 3.21843C14.3002 3.2089 14.278 3.17712 14.2621 3.12629C14.2526 3.00874 14.2653 2.89436 14.3034 2.78316C14.3415 2.67196 14.3924 2.56394 14.4591 2.46227C14.4654 2.50675 14.4527 2.57665 14.421 2.67196C14.3892 2.76728 14.3765 2.83082 14.3765 2.86577C14.3765 2.93249 14.3956 2.9865 14.4369 3.03416C14.494 3.05322 14.5417 3.04687 14.583 3.01192C14.6243 2.97697 14.6624 2.94202 14.6974 2.9039L14.7006 2.90707ZM12.3368 1.88403C12.3622 1.96028 12.3304 2.03972 12.2383 2.11915C12.1684 2.17951 12.1176 2.22082 12.0921 2.23988C12.0508 2.24941 12.0159 2.26212 11.9841 2.278C11.9523 2.29389 11.9237 2.2907 11.892 2.27164C11.9174 2.23987 11.9492 2.21446 11.9841 2.19539C12.1112 2.1255 12.1779 2.08738 12.1811 2.08102C12.1144 2.05561 12.0477 2.04289 11.9746 2.04289C11.8666 2.04289 11.7712 2.07466 11.6855 2.13503C11.6791 2.10008 11.7013 2.05242 11.749 1.99523C11.7967 1.93805 11.8507 1.89992 11.9079 1.88403C11.9651 1.86815 12.0349 1.8618 12.1112 1.8618C12.197 1.8618 12.2701 1.86815 12.3336 1.88403H12.3368ZM13.2836 3.33281C13.2073 3.49484 13.1533 3.59651 13.1247 3.63781C13.0421 3.75537 12.9531 3.80938 12.8578 3.79667C12.8515 3.79031 12.7689 3.74266 12.6068 3.65052C12.5115 3.59333 12.467 3.52978 12.4766 3.45353C12.5687 3.30103 12.6863 3.1676 12.8261 3.05004C12.9468 3.10088 13.0262 3.13582 13.0612 3.15806C13.1469 3.20254 13.22 3.26291 13.2836 3.33281ZM10.6307 0.0857886L10.4559 0.260527C9.92216 0.352663 9.59809 0.409848 9.48054 0.435265C9.13423 0.505161 8.81334 0.590946 8.52105 0.68626C8.51152 0.651312 8.52105 0.610011 8.55917 0.568708C8.5973 0.527405 8.63542 0.489278 8.6799 0.457507C8.9023 0.413027 9.14376 0.362199 9.40429 0.305011C9.9444 0.187457 10.3511 0.11438 10.6307 0.0826083V0.0857886ZM15.9237 6.56076C15.7554 6.75456 15.587 6.90389 15.4122 7.01192C15.193 7.14853 14.9801 7.21843 14.7705 7.21843C14.6593 7.21843 14.5576 7.19937 14.4654 7.16442C14.4083 7.12947 14.3828 7.0691 14.3828 6.98014C14.3828 6.94519 14.3924 6.90071 14.4146 6.84988L14.6878 6.49086C14.6275 6.45909 14.583 6.43367 14.5544 6.41144C14.5258 6.38919 14.5036 6.3606 14.4813 6.32248C14.4972 6.23987 14.5385 6.1668 14.6021 6.10008C14.6465 6.0556 14.7164 6.00159 14.8086 5.94123C14.8785 5.94123 14.9325 5.94758 14.9674 5.96347C15.0024 5.97935 15.0214 5.99842 15.0214 6.02384C15.0214 6.03972 15.0151 6.06195 14.9992 6.09372L14.8689 6.21445C14.8785 6.16998 14.8372 6.13185 14.7387 6.10643C14.7069 6.12232 14.6783 6.13821 14.6465 6.16045C14.6815 6.22081 14.7355 6.26847 14.8054 6.29706C14.8308 6.30659 14.9007 6.32566 15.0119 6.35108C15.0437 6.33202 15.085 6.31295 15.1422 6.29388C15.1994 6.27482 15.2502 6.25893 15.2947 6.24305C15.2597 6.33836 15.1263 6.43368 14.8975 6.52264C14.6688 6.6116 14.5481 6.7355 14.5322 6.89118C14.6529 6.97697 14.7895 7.02145 14.9357 7.02145C15.0945 7.02145 15.2661 6.97061 15.4535 6.86894C15.5457 6.81811 15.7013 6.71327 15.9174 6.55759L15.9237 6.56076ZM11.784 3.44083C11.7649 3.50755 11.7427 3.57427 11.7236 3.63781C11.6886 3.72042 11.641 3.77125 11.5774 3.79667C11.533 3.8062 11.4885 3.79031 11.4472 3.75218C11.4059 3.69182 11.3773 3.65051 11.355 3.63145C11.3455 3.60603 11.3392 3.57745 11.3392 3.54885V3.47896C11.3392 3.36776 11.3646 3.25338 11.4154 3.139C11.4662 3.02462 11.5012 2.94837 11.5234 2.90707C11.5139 2.94837 11.5012 3.00556 11.4853 3.08181C11.4694 3.15807 11.4631 3.21525 11.4631 3.25655C11.4631 3.39317 11.5012 3.50119 11.5774 3.57745C11.6124 3.60286 11.6537 3.58697 11.695 3.53296C11.7395 3.47577 11.7681 3.44719 11.784 3.44083ZM18.135 1.47419C18.1096 1.27721 18.027 1.02304 17.884 0.718033C17.7061 0.336778 17.5981 0.0984909 17.5631 0C17.5028 0.0857824 17.4424 0.171567 17.3884 0.260527C17.3185 0.371726 17.2804 0.470218 17.2804 0.549646C17.2804 0.616366 17.3058 0.683084 17.3566 0.746626C17.3979 1.12788 17.4583 1.55679 17.5441 2.03654C17.6267 2.51311 17.7125 2.9865 17.7951 3.45353C17.8777 3.92057 17.9444 4.34948 17.9889 4.74344C17.8014 4.9023 17.6394 5.01986 17.4996 5.10246C17.3058 5.22002 17.1215 5.29627 16.9436 5.33121C16.8419 5.3471 16.7403 5.35346 16.6386 5.35346C16.4257 5.35346 16.2256 5.31851 16.0413 5.25179C15.857 5.18189 15.7014 5.07387 15.5806 4.92772C15.911 4.74345 16.2796 4.65449 16.6863 4.65449C16.7371 4.51787 16.772 4.41939 16.7879 4.36538C16.807 4.30819 16.8197 4.22875 16.8292 4.12073C16.6005 4.00318 16.3431 3.91105 16.054 3.8475C15.7681 3.78078 15.4821 3.74901 15.1962 3.74901C14.7069 3.74901 14.2685 3.83479 13.8777 4.00953C13.811 4.12073 13.7665 4.2097 13.7411 4.27642C13.6966 4.38444 13.6712 4.47657 13.6712 4.55918C13.6712 4.60366 13.6775 4.65131 13.6934 4.69579C13.7252 4.67673 13.7697 4.64178 13.8268 4.5973C13.884 4.55282 13.938 4.52741 13.9825 4.52105C14.0937 4.53694 14.2113 4.57824 14.332 4.65132C14.3765 4.67673 14.4782 4.74345 14.6307 4.8483C14.5449 4.94361 14.4178 5.03257 14.2526 5.11517C14.0874 5.19778 13.9222 5.25496 13.7601 5.28991C13.7347 5.29626 13.6966 5.29627 13.6458 5.29627C13.5123 5.29627 13.3884 5.26767 13.2708 5.21366C13.1533 5.15647 13.0357 5.07705 12.9214 4.96903C12.9055 4.92772 12.9118 4.88006 12.9373 4.82287C12.9627 4.76568 12.969 4.72439 12.9595 4.69262C12.7117 4.88642 12.4639 5.08022 12.2192 5.27085C12.1493 5.28038 12.0985 5.28674 12.0667 5.28674C11.9651 5.28674 11.8697 5.26768 11.7776 5.22637C11.4885 4.92137 11.139 4.52741 10.7323 4.04448C10.1033 3.2915 9.76013 2.88801 9.70929 2.83082C9.32804 2.39238 8.95631 2.01112 8.5973 1.6807L8.67355 1.60445C9.49642 1.40747 10.2971 1.25497 11.0755 1.1533C11.8539 1.05163 12.6386 1.00079 13.4329 1.00079C13.4424 1.01668 13.4647 1.03892 13.5028 1.07069C13.5441 1.11517 13.5536 1.16283 13.5345 1.20731C13.4647 1.30898 13.2359 1.57586 12.8546 2.00795C12.5687 2.33201 12.3749 2.6116 12.2669 2.84671C12.5814 2.50676 12.8991 2.16362 13.22 1.81732C13.5822 1.40111 13.7887 1.00397 13.8459 0.629074C13.8268 0.559177 13.7887 0.511523 13.7347 0.49246C13.6807 0.473397 13.6076 0.460687 13.5187 0.460687C11.8253 0.460687 10.2049 0.667201 8.65449 1.07705C8.47657 1.13742 8.35584 1.27403 8.29547 1.48054C8.27959 1.52502 8.25099 1.71247 8.21287 2.03654C8.28912 2.13185 8.4861 2.37331 8.80699 2.76092C9.23272 3.27562 9.55044 3.68229 9.75377 3.98094C9.84591 4.13344 9.93805 4.28277 10.0365 4.43209C10.0969 4.52741 10.1287 4.61319 10.1287 4.68309C10.1287 4.76887 10.0969 4.83877 10.0302 4.8896C9.90945 4.9722 9.78872 5.03257 9.67434 5.07387C9.55997 5.11517 9.44241 5.13423 9.31851 5.13423C9.166 5.13423 9.03892 5.09611 8.93725 5.01986C8.9023 4.94361 8.86736 4.86418 8.82923 4.7784C8.79428 4.69579 8.77522 4.61318 8.77522 4.53693C8.77522 4.47657 8.78475 4.42256 8.80699 4.37808C8.51152 4.51152 8.21604 4.64178 7.92375 4.77522C7.79666 4.55282 7.66322 4.38126 7.52025 4.26371C7.32645 4.10167 7.13264 4.03178 6.93249 4.05719C6.77363 4.14933 6.64972 4.28277 6.55758 4.46069C6.5004 4.56871 6.43685 4.73391 6.36696 4.96267C6.3479 5.02303 6.33519 5.06751 6.33519 5.09293C6.33519 5.22955 6.41144 5.3471 6.56394 5.44242C6.68467 5.51231 6.83717 5.55044 7.02145 5.55044C7.139 5.55044 7.2502 5.53773 7.35822 5.51231C7.46624 5.4869 7.56791 5.45513 7.66958 5.41382C7.70135 5.53455 7.64098 5.66799 7.49484 5.81096C7.41223 5.88721 7.28832 6.00477 7.11994 6.16045C6.92613 6.29707 6.7355 6.43686 6.54805 6.57983C6.15727 6.86577 5.82049 7.00557 5.54091 7.00557C5.42971 7.00557 5.31533 6.9865 5.19778 6.9452C5.08022 6.9039 4.99444 6.82447 4.94361 6.70373C4.89277 6.583 4.86418 6.44004 4.86418 6.27165C4.86418 6.11915 4.88324 5.98253 4.91819 5.85862C5.02621 5.82367 5.12152 5.78237 5.20731 5.73154C5.29309 5.68388 5.39158 5.62351 5.50596 5.55362C5.66481 5.44559 5.78554 5.31216 5.86815 5.15013C5.95075 4.98809 6.00477 4.81017 6.02383 4.61636C6.02383 4.60048 6.02383 4.57506 6.03018 4.54011C6.03018 4.40667 6.00159 4.27959 5.94122 4.15885C5.88404 4.03812 5.80461 3.93646 5.70929 3.8602L5.53455 4.24146C5.53455 4.33678 5.55361 4.45115 5.59492 4.58459C5.61398 4.66084 5.6521 4.77205 5.70929 4.92137C5.25814 5.14377 4.79746 5.32168 4.33042 5.45195C3.86338 5.58221 3.38999 5.64576 2.91342 5.64576C2.32248 5.64576 1.78872 5.62669 1.31215 5.58539C0.835584 5.54409 0.397141 5.46148 0 5.33439C0.0857824 5.42018 0.171565 5.49326 0.25417 5.5568C0.336775 5.61716 0.438443 5.6807 0.555997 5.74742L1.166 6.06831C1.36299 6.13503 1.56315 6.17951 1.7633 6.20492C1.96346 6.23034 2.17315 6.24305 2.39237 6.24305C2.49404 6.24305 2.60207 6.24305 2.71962 6.2367C2.83717 6.23034 2.93884 6.22399 3.02462 6.21445C3.29468 6.18904 3.60286 6.14138 3.95552 6.06831C4.21922 6.01748 4.51152 5.95076 4.83241 5.87133C4.76569 6.08102 4.72438 6.22399 4.70214 6.30659C4.6672 6.4591 4.64813 6.6116 4.64813 6.7641C4.64813 6.89754 4.66084 7.01191 4.68626 7.10723C4.73074 7.22478 4.79746 7.32327 4.88006 7.40906C4.96267 7.49166 5.06434 7.55203 5.18189 7.58698C5.43606 7.58698 5.67117 7.54567 5.89039 7.45989C6.10961 7.37729 6.32883 7.25655 6.54488 7.09769C6.69738 6.98967 6.84988 6.86576 6.99921 6.71962C7.14853 6.57347 7.37093 6.34789 7.6664 6.03654C7.75218 5.78237 7.87609 5.51549 8.0413 5.2359C8.1112 5.1533 8.19698 5.09293 8.2923 5.05163C8.38761 5.01032 8.50199 4.98491 8.62907 4.97538C8.6386 5.0421 8.64813 5.14695 8.66084 5.29627C8.6799 5.417 8.72756 5.51231 8.79746 5.57903C8.89277 5.65528 9.02939 5.69341 9.20095 5.69341C9.33757 5.69341 9.46783 5.67752 9.59492 5.64258C9.722 5.60763 9.83002 5.55362 9.92534 5.47419C10.0207 5.39476 10.1033 5.30262 10.1668 5.1946C10.2303 5.08658 10.2844 4.96902 10.332 4.83558C10.3638 4.75298 10.4019 4.63542 10.4464 4.47657C10.583 4.64496 10.7863 4.90548 11.0564 5.26132C11.3042 5.55679 11.5616 5.75696 11.8253 5.86498C11.8697 5.88086 11.9174 5.88721 11.9619 5.88721C12.1461 5.88721 12.3368 5.7506 12.5401 5.47419C12.6863 5.27721 12.7752 5.16283 12.8006 5.13741C12.7847 5.2645 12.8165 5.38841 12.8928 5.50596C12.969 5.62669 13.0643 5.722 13.1755 5.7919C13.2581 5.81732 13.3185 5.8332 13.3598 5.83638C13.4011 5.83955 13.4583 5.84274 13.5345 5.84274C13.7697 5.84274 14.0302 5.76649 14.3193 5.61398C14.5544 5.47101 14.7895 5.32804 15.0278 5.18825C15.139 5.28039 15.3042 5.42017 15.5234 5.60762C15.7109 5.75059 15.8983 5.83956 16.0794 5.87451C16.216 5.90946 16.3622 5.92852 16.5147 5.92852C16.7879 5.92852 17.0516 5.86815 17.2994 5.7506C17.5473 5.62987 17.776 5.46784 17.9857 5.25815C18.0556 5.08023 18.1064 4.9023 18.1318 4.72756C18.1573 4.55282 18.17 4.36537 18.17 4.16839C18.17 3.89833 18.1382 3.58062 18.0778 3.21525C18.0016 2.8753 17.9285 2.53534 17.8554 2.19221C17.7697 1.80143 17.7093 1.46148 17.6807 1.17872C17.6871 1.16283 17.6966 1.13424 17.7125 1.08658C17.7284 1.03892 17.7506 1.00715 17.7824 0.988091C17.8999 1.14695 18.0175 1.30262 18.1318 1.46148L18.135 1.47419ZM6.02701 1.02303C6.04607 1.0421 6.05878 1.06752 6.05878 1.09929C6.05878 1.12471 6.04607 1.15965 6.02065 1.20095C5.99523 1.24543 5.97935 1.28038 5.97617 1.31215C5.93487 1.37252 5.88721 1.40429 5.83002 1.40429C5.79825 1.40429 5.76648 1.39158 5.73471 1.36299C5.70294 1.3344 5.67752 1.29944 5.65846 1.25179C5.6394 1.20413 5.63304 1.15648 5.63304 1.09929V1.00079C5.64257 0.956313 5.64893 0.924548 5.64893 0.908663C5.71882 0.746629 5.79825 0.610007 5.88403 0.495631C5.88403 0.527402 5.85226 0.619543 5.7919 0.778399C5.76013 0.85465 5.74742 0.915011 5.74742 0.962668C5.74742 1.0548 5.80461 1.12471 5.91581 1.17554L6.03018 1.02303H6.02701ZM7.67276 2.24305L7.58062 2.34154L7.4726 2.20493C7.34551 2.39873 7.14853 2.57665 6.88483 2.73868C6.66243 2.87212 6.43685 2.9992 6.21446 3.12629C6.28435 3.05957 6.49087 2.91025 6.83082 2.67514C7.09452 2.49087 7.28832 2.31613 7.40905 2.14774C7.39317 2.13821 7.33916 2.11279 7.24384 2.07149C7.14853 2.03019 7.08816 1.98252 7.05639 1.92534C7.08816 1.8332 7.13264 1.75378 7.19619 1.68388C7.25973 1.61399 7.3328 1.5695 7.41223 1.55044C7.4726 1.52502 7.52343 1.53773 7.56473 1.58856C7.57109 1.59809 7.5965 1.64576 7.64098 1.73472V1.97935C7.64098 2.0556 7.64734 2.14139 7.66322 2.23988L7.67276 2.24305ZM10.5925 6.45274C10.6021 6.53534 10.5862 6.61478 10.5481 6.69738C10.5068 6.77999 10.4496 6.85624 10.3733 6.92614C10.3225 6.92614 10.2844 6.90072 10.2621 6.84671C10.2399 6.7927 10.2208 6.74186 10.2049 6.69102C10.2049 6.43685 10.2875 6.19222 10.4496 5.96029C10.4083 6.12232 10.367 6.28753 10.3288 6.45592C10.3288 6.55759 10.3701 6.63701 10.4496 6.69102L10.5957 6.45592L10.5925 6.45274ZM8.94678 6.65926C8.94678 6.76093 8.89595 6.86894 8.79428 6.98014C8.73709 7.03733 8.68626 7.09134 8.63542 7.14853C8.56553 7.11676 8.50199 7.08499 8.45115 7.05004C8.2637 6.92296 8.16203 6.85624 8.14615 6.85306C8.22875 6.65926 8.34313 6.49405 8.48928 6.35743C8.66084 6.42733 8.81334 6.52899 8.94678 6.66243V6.65926ZM4.30183 3.03733C4.25735 3.11994 4.20651 3.19937 4.1525 3.28198C4.09849 3.36458 4.03813 3.44083 3.96505 3.51073C3.95552 3.5012 3.85703 3.44083 3.6664 3.33598C3.53932 3.26608 3.46624 3.18984 3.444 3.11359L3.79349 2.70056L4.29547 3.03733H4.30183ZM2.16044 0.940436L2.10008 1.1247L1.8332 1.05481C1.77601 1.15648 1.73789 1.32804 1.71882 1.56632C1.69976 1.8046 1.66164 1.97935 1.6108 2.08419C1.54091 2.027 1.47419 1.92216 1.417 1.76648C1.35981 1.6108 1.29944 1.49961 1.23908 1.42654L1.18507 1.53456C1.18507 1.53456 1.13423 1.49643 1.06751 1.45513C0.997617 1.41065 0.959492 1.36617 0.94996 1.31533C0.965846 1.23273 0.981732 1.166 0.99444 1.11199C1.01033 1.05798 1.04527 1.02303 1.10246 1.00079C1.2359 1.0834 1.35028 1.23273 1.44559 1.45195C1.51549 1.6108 1.56632 1.71248 1.59809 1.76331C1.62351 1.60445 1.65528 1.43924 1.69023 1.26132C1.72518 1.0834 1.78554 0.94043 1.86497 0.835585C1.93487 0.845117 1.99206 0.85783 2.03654 0.870539C2.08102 0.883247 2.12232 0.908658 2.16362 0.943606L2.16044 0.940436ZM3.38681 3.20572L2.98332 3.70771L2.46545 3.41859C2.50675 3.33598 2.55123 3.25338 2.59889 3.16442C2.64654 3.07546 2.70056 3.00238 2.7641 2.94837C2.85941 2.96426 2.96743 3.00239 3.08499 3.06275C3.25338 3.14854 3.35504 3.19619 3.38999 3.2089L3.38681 3.20572ZM1.93169 2.44957C1.94758 2.49087 1.9444 2.53217 1.92534 2.57029C1.90627 2.6116 1.88403 2.64973 1.86497 2.68467C1.71247 2.68467 1.58539 2.69421 1.48372 2.71645C1.38205 2.73551 1.29944 2.78634 1.23908 2.86894C1.3058 3.15806 1.37252 3.44719 1.43606 3.72995C1.44559 3.79985 1.45512 3.86974 1.46783 3.93328C1.47736 3.99682 1.48372 4.05719 1.48372 4.1112C1.48372 4.28276 1.44877 4.44797 1.37569 4.60683C1.40111 4.53693 1.41382 4.44797 1.41382 4.3463C1.41382 4.20969 1.38523 4.04766 1.33122 3.85703C1.27403 3.695 1.22319 3.53296 1.17236 3.36775C1.13741 3.22478 1.11835 3.10723 1.11835 3.01827C1.11835 2.88483 1.15647 2.77363 1.23272 2.68149C1.30898 2.58936 1.44241 2.51629 1.62986 2.4591C1.59492 2.43368 1.55997 2.41144 1.52184 2.39555C1.48689 2.37649 1.4583 2.37014 1.43924 2.37014C1.42971 2.37014 1.40747 2.37649 1.37887 2.38602C1.37887 2.41144 1.36934 2.42733 1.35346 2.43686C1.33439 2.44321 1.31533 2.45274 1.28991 2.46227C1.28038 2.4305 1.28991 2.39238 1.31215 2.34472C1.33757 2.29706 1.35663 2.26211 1.36616 2.24305C1.40747 2.18586 1.46148 2.16045 1.53455 2.16045C1.59174 2.16045 1.64575 2.17951 1.70294 2.21764C1.76013 2.25576 1.79825 2.28436 1.82367 2.3066C1.8745 2.3479 1.91263 2.39555 1.93805 2.45274L1.93169 2.44957ZM15.5488 4.37808L15.1612 4.60048C15.1263 4.60048 15.0882 4.57507 15.05 4.52423C15.0119 4.4734 14.977 4.42256 14.9484 4.37173C15.0056 4.34631 15.0755 4.3336 15.1612 4.3336C15.2184 4.3336 15.282 4.33995 15.3519 4.34948C15.4218 4.35902 15.4885 4.36855 15.5488 4.38126V4.37808ZM7.49801 1.9317C7.41223 1.89993 7.32645 1.85544 7.24702 1.79507C7.27244 1.7633 7.30103 1.7506 7.32963 1.7506C7.35504 1.7506 7.38046 1.75696 7.40588 1.77284C7.45036 1.80779 7.48213 1.8618 7.49801 1.9317ZM7.33916 4.91184C7.27244 4.93726 7.20572 4.94997 7.14218 4.94997C6.97379 4.94997 6.81811 4.89277 6.67832 4.77522C6.68467 4.74345 6.71644 4.70532 6.77681 4.65449C6.88483 4.6386 6.9865 4.66084 7.08816 4.72438C7.14535 4.75933 7.22796 4.82288 7.33916 4.91501V4.91184Z" fill="white"/>
</svg>
