<svg width="20" height="13" viewBox="0 0 20 13" fill="none" xmlns="http://www.w3.org/2000/svg">
<path fill-rule="evenodd" clip-rule="evenodd" d="M19.9743 7.23313C19.9807 7.31673 19.9871 7.39391 19.9936 7.45822C19.9936 7.52252 20 7.57397 20 7.61899C20 7.92124 19.9614 8.20419 19.8907 8.48072C19.8199 8.75725 19.7106 9.07235 19.5756 9.43248C19.6077 9.32958 19.6334 9.20741 19.6527 9.06593C19.672 8.92445 19.6785 8.7894 19.6785 8.66078C19.6785 8.38426 19.6463 8.04985 19.5756 7.65757C19.4791 7.11738 19.4277 6.7894 19.4212 6.66721L18.5981 1.65112C18.5016 1.52251 18.4566 1.37461 18.4566 1.20097C18.4566 1.05306 18.4887 0.905146 18.5595 0.750805C18.5916 0.680066 18.6752 0.538584 18.8039 0.326365C18.9904 0.641478 19.1576 1.02091 19.3055 1.4582C19.4277 1.84406 19.5177 2.2299 19.5756 2.61575L19.2026 2.04985L19.1383 2.12702L19.9743 7.23313ZM13.9421 0.287782C13.8842 0.358521 13.8521 0.435702 13.8521 0.519303C13.8521 0.590043 13.8714 0.667216 13.9164 0.763679C13.9614 0.860142 13.9807 0.918019 13.9807 0.943743C13.9807 0.969466 13.9678 0.99518 13.9486 1.01447C13.9293 1.03377 13.8521 1.04664 13.7235 1.04664C13.4341 1.4132 13.1125 1.76045 12.7588 2.07556C12.4051 2.39067 12.0322 2.66078 11.6399 2.873C12.283 2.24921 12.9325 1.61898 13.582 0.995181C13.5756 0.98875 13.492 0.930866 13.3376 0.827972C13.2347 0.757233 13.1833 0.686496 13.1833 0.609325C13.1833 0.557878 13.2026 0.500008 13.2476 0.435699C13.2926 0.37139 13.3376 0.294223 13.3891 0.19776C13.4662 0.094866 13.5498 0.0305455 13.6463 0.00482205C13.7492 -0.0144706 13.8264 0.0241296 13.8778 0.120593C13.9035 0.17204 13.9228 0.229904 13.9421 0.287782ZM14.418 2.70579C14.4373 2.55145 14.4437 2.42283 14.4437 2.31994C14.4437 2.12058 14.4116 1.95982 14.3408 1.83121C14.2701 1.86336 14.2379 1.9148 14.2379 1.98554C14.2379 2.03056 14.2508 2.09486 14.283 2.1849C14.3151 2.27493 14.328 2.3328 14.328 2.35852C14.328 2.4164 14.3087 2.46786 14.2637 2.51288C14.2315 2.51931 14.1865 2.52573 14.135 2.52573C14.0386 2.52573 13.9807 2.5 13.955 2.45498C13.9293 2.40997 13.9164 2.32637 13.9164 2.21704V2.01127C13.9164 1.88265 13.8971 1.79903 13.865 1.75402C13.8199 1.80547 13.8006 1.88265 13.8006 1.98554C13.8006 2.01769 13.8006 2.082 13.8135 2.1656C13.8199 2.24921 13.8264 2.31351 13.8264 2.35852C13.8264 2.40354 13.8135 2.47428 13.7942 2.58361C13.7749 2.69293 13.6656 2.74438 13.4662 2.74438C13.3891 2.67364 13.3505 2.57074 13.3505 2.42283C13.3505 2.36496 13.3505 2.28135 13.3633 2.17846C13.3633 2.09486 13.3569 2.03056 13.3376 1.98554C13.2412 2.06914 13.1961 2.21062 13.1961 2.40998C13.2026 2.50644 13.2154 2.59648 13.2219 2.69294C13.2283 2.7894 13.2347 2.873 13.2347 2.95017C13.2669 2.97589 13.3183 3.01447 13.3891 3.06592C13.4405 3.09165 13.5048 3.09807 13.582 3.07878C13.6527 3.07235 13.7106 3.04019 13.7556 2.98232C13.8006 2.92444 13.8457 2.86658 13.8907 2.79584C13.9421 2.80227 13.9743 2.81512 13.9936 2.82798C14.0129 2.84084 14.0514 2.84727 14.1222 2.84727C14.2572 2.84727 14.3601 2.80226 14.418 2.70579ZM8.56592 1.58683C8.59164 1.69615 8.58521 1.80547 8.54019 1.91479C8.49518 2.02412 8.42444 2.10773 8.32154 2.1656C8.24437 2.1849 8.18649 2.16561 8.14791 2.10773C8.10932 2.04985 8.07074 1.97268 8.03858 1.86979C8.03858 1.67043 8.05788 1.4968 8.09646 1.34889C8.13505 1.20098 8.20579 1.05306 8.30868 0.918014C8.28296 1.02734 8.25723 1.13666 8.23151 1.23312C8.20579 1.32958 8.19293 1.42606 8.19293 1.50966C8.19293 1.664 8.2508 1.77974 8.36013 1.85692C8.41158 1.8119 8.45016 1.77333 8.47588 1.72831C8.50161 1.68329 8.53376 1.63828 8.56592 1.58683ZM17.7235 6.92444C17.7235 6.3328 17.5884 5.4775 17.3248 4.3521C17.0611 3.22669 16.926 2.39711 16.926 1.85692C16.9711 1.88264 17.0354 1.97268 17.1318 2.12702C17.2026 2.23635 17.2669 2.28779 17.3376 2.2685C17.2862 1.95339 17.1833 1.61898 17.0289 1.26529C16.9711 1.13667 16.8167 0.821549 16.5659 0.313511C16.418 0.519299 16.2765 0.725081 16.1415 0.930869C16.2379 1.47106 16.373 2.17203 16.5531 3.04019C16.701 3.75402 16.8489 4.47429 16.9968 5.20097C17.1447 5.92766 17.2669 6.63506 17.3633 7.3103C16.926 7.51609 16.5016 7.68329 16.0965 7.81191C15.6913 7.94052 15.2733 8.02412 14.8553 8.06914C15.1833 7.95981 15.4405 7.72187 15.627 7.36174C15.7556 7.11093 15.8521 6.78297 15.9228 6.3714C15.8135 6.08844 15.5949 5.86335 15.2669 5.70258C14.9646 5.59969 14.6881 5.49679 14.4244 5.40033C14.1608 5.30387 13.9164 5.25241 13.6849 5.25241C13.0997 5.25241 12.4116 5.67042 11.6141 6.5C11.0804 7.05949 10.7203 7.40675 10.5209 7.5418C10.6045 7.291 10.6688 7.0402 10.7074 6.7894C10.746 6.5386 10.7653 6.2685 10.7653 5.98554C10.7653 5.59969 10.7331 5.1881 10.6624 4.75081C10.4823 3.83119 10.3087 2.91159 10.135 1.98554C10.1929 1.96625 10.2637 1.99839 10.3408 2.07556C10.5145 2.25563 10.6302 2.34567 10.701 2.34567C10.5659 1.88908 10.4309 1.51608 10.3023 1.21383C10.1415 0.834407 9.96141 0.500011 9.76206 0.19776C9.74277 0.255638 9.68489 0.371399 9.58842 0.545032C9.49196 0.718666 9.44051 0.853704 9.44051 0.956598C9.44051 1.02734 9.46624 1.09807 9.51768 1.17524C9.56913 1.59325 9.68489 2.21704 9.86495 3.04019C10.045 3.86334 10.1672 4.44855 10.2251 4.78939C10.3473 5.46463 10.4051 6.07556 10.4051 6.61575C10.4051 7.00804 10.373 7.38746 10.3151 7.74759C10.2058 7.88264 10.09 8.02412 9.96784 8.17203C9.84566 8.31994 9.71704 8.39068 9.58199 8.39068C9.53055 8.39068 9.47267 8.37782 9.40193 8.3521C9.30547 8.01769 9.13826 7.71544 8.90032 7.45178C8.62379 7.14953 8.32797 6.98233 8.01286 6.95017C7.67846 7.03377 7.42765 7.25242 7.25402 7.59326C7.15756 7.77975 7.06752 8.10772 6.97106 8.57074C7.00322 8.75081 7.09325 8.88587 7.2283 8.98233C7.27331 9.01448 7.51768 9.1045 7.96141 9.25241C8.03215 9.28457 8.12219 9.30387 8.23151 9.30387C8.28296 9.30387 8.36013 9.30386 8.46302 9.291C8.56592 9.28457 8.63666 9.27814 8.68167 9.27814C8.86174 9.27814 8.97749 9.32958 9.02894 9.43248C8.72669 9.72187 8.4373 9.99198 8.15434 10.2299C7.82637 10.5064 7.51768 10.7379 7.21543 10.9244C6.84887 11.156 6.48875 11.336 6.13505 11.4711C5.78135 11.6061 5.42122 11.6704 5.05466 11.6704C4.85531 11.6704 4.67524 11.6318 4.50161 11.5482C4.32797 11.4646 4.19936 11.3425 4.10289 11.1688C4.00643 11.0209 3.96141 10.8666 3.96141 10.7058C3.96141 10.6093 4.03215 10.3521 4.1672 9.92123C4.22508 9.73473 4.25723 9.56752 4.25723 9.43248C4.07717 9.79261 3.94855 10.082 3.87138 10.2942C3.74277 10.6543 3.67846 10.9759 3.67846 11.2588C3.67846 11.3939 3.69775 11.5418 3.7299 11.6897C3.76206 11.8376 3.81994 11.9855 3.90354 12.1206C3.98714 12.2556 4.10932 12.3714 4.2701 12.455C4.43087 12.5386 4.61736 12.5965 4.82315 12.6222C5.2926 12.5772 5.76849 12.4614 6.24437 12.2685C6.72026 12.0756 7.16399 11.8312 7.57556 11.5354C7.98714 11.2396 8.3537 10.8859 8.67524 10.4807C8.99678 10.0756 9.24759 9.65113 9.42765 9.21383C10.0129 9.11737 10.6302 9.01449 11.2862 8.90516C11.9421 8.79584 12.4823 8.68651 12.9003 8.58362C13.2604 8.66722 13.5756 8.73151 13.8521 8.7701C14.1286 8.80868 14.418 8.82797 14.7267 8.82797C15.0804 8.82797 15.4212 8.7894 15.7621 8.71866C16.1029 8.64792 16.4051 8.53858 16.6817 8.40353C16.9582 8.37138 17.164 8.26207 17.3055 8.07557C17.4469 7.88908 17.5884 7.50965 17.7235 6.92444ZM9.08039 4.75081C9.06109 4.91158 9.03537 5.04664 9.00321 5.1431C8.97106 5.23956 8.90032 5.32316 8.79743 5.38104C8.69453 5.40676 8.62379 5.38103 8.58521 5.291C8.54662 5.2074 8.5209 5.13023 8.50161 5.07235C8.50161 4.89228 8.53376 4.70579 8.6045 4.50643C8.70739 4.26849 8.77813 4.08843 8.82315 3.96624C8.82315 4.03698 8.79743 4.15273 8.74598 4.32637C8.69453 4.5 8.66881 4.62862 8.66881 4.71222C8.66881 4.83441 8.70096 4.9373 8.7717 5.03377C8.86817 5.05306 8.92604 5.00804 8.9582 4.91158C8.99035 4.81511 9.02894 4.75724 9.08039 4.75081ZM12.9775 10.3971C12.9196 10.5836 12.8103 10.7444 12.6624 10.8666C12.5145 10.9888 12.3408 11.0852 12.1479 11.1431C11.955 11.201 11.7428 11.2395 11.5113 11.2588C11.2797 11.2781 11.0932 11.291 10.9453 11.3103C11.2605 11.156 11.4469 11.0595 11.4984 11.0145C11.7042 10.8601 11.8264 10.6672 11.8714 10.4357C11.8971 10.3585 11.91 10.2749 11.91 10.1785C11.91 9.97267 11.8328 9.81833 11.6785 9.71544C11.6013 9.71544 11.537 9.76045 11.4855 9.85048C11.4341 9.94051 11.4019 9.99197 11.3826 9.9984C11.3633 9.90193 11.3955 9.79905 11.4662 9.68329C11.537 9.56753 11.6334 9.47751 11.7428 9.40677C11.8264 9.40677 11.8971 9.43892 11.9486 9.50323C12 9.56754 12.045 9.6447 12.0772 9.74117C12.0965 9.82477 12.1029 9.88907 12.1029 9.93408C12.1029 10.0563 12.0836 10.1849 12.0386 10.3328C11.9678 10.5643 11.9357 10.6865 11.9357 10.6929C12.0129 10.6158 12.09 10.5386 12.1672 10.4614C12.3215 10.3135 12.4823 10.2428 12.6431 10.2428C12.746 10.2428 12.8553 10.2942 12.9775 10.3971ZM4 0.712221C4.00643 0.763668 4 0.815122 3.98714 0.860138C3.96785 0.905155 3.95498 0.950165 3.93569 0.995181C3.90354 0.995181 3.85209 0.975885 3.78135 0.930869C3.71061 0.885853 3.65916 0.866576 3.61415 0.866576C3.5627 0.866576 3.51768 0.898713 3.48553 0.969452C3.50482 1.05305 3.51125 1.1238 3.51125 1.17524C3.51125 1.27171 3.49196 1.38746 3.45981 1.53537C3.38264 1.86978 3.34405 2.06914 3.34405 2.13987C3.34405 2.26206 3.36977 2.35209 3.42765 2.4164C3.48553 2.48071 3.58842 2.53216 3.74276 2.56431C3.86495 2.64148 3.92283 2.73794 3.92283 2.86013C3.92283 2.91801 3.90354 2.99517 3.85852 3.07878C3.55627 3.07878 3.33762 3.09164 3.19614 3.1238C3.05466 3.15595 2.91961 3.23956 2.791 3.37461C2.84244 3.63184 2.90032 3.85691 2.9582 4.04341C3.08682 4.42283 3.21543 4.79582 3.34405 5.17525C3.42765 5.50322 3.47267 5.79262 3.47267 6.04985C3.47267 6.21063 3.45338 6.37781 3.42122 6.53859C3.38907 6.69936 3.33119 6.86657 3.25402 7.02734C3.29904 6.93088 3.33119 6.81511 3.35691 6.68007C3.38264 6.54502 3.3955 6.42283 3.3955 6.31994C3.3955 6.08843 3.35691 5.85049 3.27974 5.59969C3.26045 5.54181 3.209 5.40033 3.1254 5.17525C2.97749 4.78296 2.8746 4.48714 2.81672 4.28778C2.71383 3.95338 2.66238 3.65114 2.66238 3.37461C2.66238 3.24599 2.7074 3.13666 2.79743 3.04663C2.88746 2.9566 3.00322 2.87942 3.15112 2.82155L3.38264 2.74438C3.30547 2.6865 3.209 2.65436 3.09968 2.65436C3.0418 2.65436 2.99035 2.67364 2.94534 2.70579L2.791 2.89871C2.73955 2.86656 2.73312 2.80868 2.7717 2.73794C2.81029 2.6672 2.82315 2.60933 2.81672 2.56431C2.84887 2.50644 2.90032 2.45499 2.97106 2.42283C3.0418 2.39068 3.11897 2.3521 3.20257 2.30708C3.08039 2.07557 2.99035 1.90193 2.93248 1.7926C2.81029 1.58681 2.68167 1.45821 2.53376 1.40677C2.46302 1.42606 2.39228 1.41962 2.32154 1.39389C2.2508 1.36817 2.18006 1.34245 2.10932 1.31672C2.0836 1.26528 2.07074 1.21384 2.07074 1.16239C2.07074 1.11094 2.09003 1.04019 2.12862 0.95016C2.1672 0.860128 2.19936 0.795827 2.21865 0.757242C2.23794 0.718657 2.28296 0.699367 2.34084 0.699367C2.39228 0.699367 2.4373 0.712227 2.48231 0.73795C2.59164 0.821552 2.7074 0.950173 2.81672 1.12381C2.96463 1.37461 3.10611 1.61897 3.25402 1.85692C3.27974 1.77974 3.3119 1.56754 3.34405 1.2267C3.37621 0.885867 3.46624 0.654344 3.61415 0.532158C3.69132 0.557881 3.76849 0.583602 3.83923 0.609325C3.90997 0.635049 3.96785 0.667205 4 0.712221ZM6.71383 6.42284C6.71383 7.31673 6.10289 8.08843 4.88746 8.75081C4.32154 9.05306 3.76206 9.34888 3.20257 9.63827C2.91318 9.76689 2.5209 9.88907 2.03215 9.9984C1.35691 10.1463 0.675241 10.2878 0 10.4357C1.06109 9.91479 2.12862 9.38746 3.18971 8.86656C4.39871 8.24919 5.42122 7.6254 6.26367 7.00161C6.26367 6.75081 6.17363 6.37139 5.99357 5.85692C5.8135 5.34245 5.72347 4.9566 5.72347 4.69937C5.72347 4.57718 5.7299 4.47429 5.7492 4.37782C5.76849 4.28136 5.80707 4.17846 5.86495 4.06914L5.98071 3.9148C6.18649 4.11416 6.32154 4.24277 6.37942 4.31351C6.53376 4.50001 6.59164 4.65435 6.54662 4.77653C6.51447 4.7701 6.47588 4.75724 6.44373 4.75081C6.41158 4.84727 6.39228 4.95017 6.39228 5.05949C6.39228 5.21384 6.44373 5.44535 6.55305 5.7476C6.66238 6.04985 6.71383 6.27493 6.71383 6.42284ZM13.7235 0.609325V0.545032C13.7235 0.474293 13.6913 0.422839 13.6334 0.377823C13.5627 0.345669 13.4984 0.358529 13.4405 0.416407C13.4469 0.467854 13.4855 0.506441 13.5434 0.538595C13.6013 0.570749 13.6656 0.590033 13.7235 0.609325ZM15.3569 7.10451C14.6688 7.35531 13.8778 7.57395 12.9775 7.76045C12.6881 7.81833 11.865 7.96625 10.5209 8.19776C10.9582 7.76689 11.3955 7.34246 11.8328 6.91159C12.373 6.39712 12.8746 6.13988 13.3376 6.13988C13.5113 6.13988 13.6977 6.17203 13.9035 6.24277C14.2572 6.3521 14.5273 6.455 14.7267 6.55146C15.0161 6.69937 15.2283 6.87943 15.3569 7.10451ZM12.6817 10.6543L11.8971 10.9502C11.9743 10.8666 12.0579 10.7894 12.1415 10.7186C12.2251 10.6479 12.3087 10.6029 12.3859 10.5772C12.4952 10.5707 12.5981 10.5965 12.6817 10.6543ZM8.59164 8.39068C8.19936 8.3328 7.98714 8.29421 7.96141 8.28778C7.7299 8.22991 7.55627 8.12058 7.43408 7.96624C7.46624 7.88264 7.54341 7.8312 7.66559 7.81191C7.83923 7.81191 8.00643 7.86978 8.1672 7.99197C8.23794 8.04342 8.37942 8.17846 8.59164 8.39068Z" fill="white"/>
</svg>
