<svg width="20" height="12" viewBox="0 0 20 12" fill="none" xmlns="http://www.w3.org/2000/svg">
<path fill-rule="evenodd" clip-rule="evenodd" d="M19.9412 0.587658C19.9118 0.656218 19.8923 0.729675 19.8923 0.798236C19.8923 0.861899 19.9118 0.940255 19.9461 1.0333C19.9804 1.12635 20 1.19001 20 1.21939C20 1.26836 19.9902 1.30754 19.9755 1.34182C19.9608 1.3761 19.9265 1.42018 19.8678 1.46425L19.76 1.37121C19.5886 1.59648 19.3536 1.81685 19.0548 2.02742C18.7904 2.20862 18.5211 2.38981 18.2566 2.56611C18.7023 2.14985 19.1479 1.73359 19.5984 1.30754C19.5739 1.24388 19.4858 1.16063 19.3291 1.05289C19.1724 0.945153 19.094 0.852105 19.094 0.763956C19.094 0.714984 19.1136 0.661117 19.1577 0.597454C19.2018 0.533791 19.285 0.465232 19.4025 0.391774C19.525 0.318317 19.6229 0.279138 19.7013 0.279138C19.8335 0.279138 19.9118 0.37708 19.9363 0.572967L19.9412 0.587658ZM17.7767 2.25759C17.6738 2.45348 17.5955 2.5955 17.5416 2.67875C17.4388 2.85015 17.3164 2.91381 17.1645 2.86484C16.998 2.7571 16.8756 2.67875 16.7875 2.63467C16.6993 2.5906 16.6112 2.55632 16.5181 2.53673C16.4643 2.56611 16.4006 2.66405 16.3369 2.83056C16.2684 2.99706 16.1998 3.07542 16.1214 3.07542C16.0725 3.07542 16.0235 3.06072 15.9696 3.02644C15.9452 2.99706 15.857 2.94319 15.7052 2.87463C15.5534 2.80607 15.4897 2.71792 15.524 2.61508C15.6562 2.4192 15.7884 2.22331 15.9256 2.02742C16.0137 2.05681 16.1117 2.10578 16.2292 2.17434C16.3467 2.2429 16.4594 2.30656 16.572 2.37022C16.6503 2.31635 16.7336 2.21841 16.8266 2.07639C16.9148 1.93438 16.9882 1.84623 17.0421 1.80705C17.1694 1.87072 17.2968 1.92948 17.429 1.98335C17.5465 2.04701 17.6641 2.13516 17.7816 2.25269L17.7767 2.25759ZM16.7287 0L16.5524 0.293829C16.0186 0.475024 15.4456 0.690499 14.8237 0.940254C14.3046 1.15083 13.7365 1.39079 13.1195 1.65524C13.1195 1.56709 13.1538 1.48874 13.2174 1.41528C13.286 1.34182 13.3595 1.29285 13.4476 1.26836C13.9863 1.04799 14.5299 0.82762 15.0735 0.612145C15.617 0.391773 16.1704 0.190989 16.7238 0H16.7287ZM11.1459 0.587658C11.1557 0.626835 11.1459 0.666012 11.1361 0.710087C11.1215 0.754161 11.097 0.793338 11.0676 0.832516L10.7835 0.680705C10.7346 0.940254 10.7003 1.13124 10.6758 1.25857C10.6268 1.50343 10.5632 1.68462 10.475 1.81195C10.4114 1.76298 10.3232 1.62586 10.2106 1.40059C10.0979 1.17532 9.96082 1.05778 9.80411 1.05778C9.75025 1.0284 9.72086 0.96474 9.72086 0.871694C9.72086 0.808031 9.73555 0.73947 9.76983 0.661116C9.83839 0.592556 9.89226 0.533789 9.92164 0.484818C10.0392 0.548481 10.1518 0.705191 10.2547 0.959843C10.3624 1.2145 10.4603 1.34182 10.5534 1.34182C10.5681 1.17532 10.5877 0.99902 10.6121 0.803134C10.6366 0.607247 10.7003 0.460333 10.7982 0.367287C10.8521 0.367287 10.8962 0.37708 10.9256 0.396669C10.9549 0.416257 11.0284 0.479921 11.1361 0.592556L11.1459 0.587658ZM18.7169 6.9001C18.5455 7.69833 17.8501 8.2811 16.6357 8.63859C15.8129 8.88345 15.2742 9.08423 15.0147 9.25073C14.6376 9.36827 14.2262 9.59353 13.7806 9.92164C13.7708 9.93144 13.3937 10.2302 12.6396 10.8276C12.1694 11.2047 11.7679 11.4643 11.4398 11.6161C10.9843 11.6161 10.6415 11.43 10.4065 11.0529C10.3134 10.8423 10.2644 10.6366 10.2644 10.4407C10.2644 10.1665 10.3477 9.86288 10.5093 9.53477C10.5485 9.45642 10.7101 9.18217 10.9892 8.71204C10.8227 9.01567 10.715 9.23605 10.6611 9.36827C10.5338 9.6572 10.475 9.91185 10.475 10.1322C10.475 10.3379 10.524 10.5289 10.6268 10.7101C10.7199 10.8129 10.8129 10.8962 10.9109 10.9549C11.0039 11.0186 11.1068 11.048 11.2145 11.048C11.6161 10.9403 12.0274 10.7199 12.4486 10.3918C12.811 10.0784 13.1685 9.76494 13.5309 9.45152C13.9765 9.06954 14.3683 8.80509 14.7062 8.66308C15.9207 8.16846 17.1352 7.67385 18.3497 7.16944C18.3594 7.11557 18.3595 7.07639 18.3595 7.05191C18.3595 7.01273 18.3399 6.98335 18.3007 6.95887C18.2713 7.00784 18.237 7.02742 18.2076 7.01763C18.0656 6.7287 17.6102 6.56709 16.8315 6.53771C16.0529 6.50833 15.666 6.23409 15.666 5.72478C15.6758 5.64643 15.6758 5.58766 15.6758 5.54848C15.8619 5.1812 16.0137 4.90695 16.1214 4.72576C16.3173 4.40255 16.5573 4.20666 16.8364 4.12831C17.1205 4.10382 17.3898 4.17238 17.6494 4.32909C17.8599 4.46131 18.0705 4.66699 18.2713 4.94123C18.4378 5.23996 18.5553 5.47012 18.6239 5.63663C18.7316 5.91087 18.7904 6.17042 18.7904 6.41038C18.7904 6.58178 18.761 6.74829 18.7071 6.905L18.7169 6.9001ZM9.58374 2.5857L9.16259 3.22233L8.45739 2.91871C8.49657 2.80117 8.55044 2.68854 8.6239 2.57591C8.69246 2.46817 8.7855 2.35064 8.89324 2.22331C9.143 2.31636 9.37316 2.43878 9.58864 2.5857H9.58374ZM7.17434 1.49364C7.12047 1.60137 7.04212 1.62586 6.93927 1.5622C6.85113 1.42997 6.81195 1.28795 6.81195 1.14104C6.81195 0.994124 6.85602 0.803134 6.93927 0.577865C7.05681 0.279138 7.12047 0.10284 7.12537 0.0489708C7.13516 0.13712 7.10088 0.284035 7.02742 0.489716C6.95397 0.695397 6.91479 0.852104 6.91479 0.954945C6.91479 1.09696 6.97845 1.2096 7.10088 1.29775C7.14006 1.21939 7.18413 1.14104 7.22821 1.06268C7.2429 1.12635 7.25269 1.17532 7.25269 1.21449C7.25269 1.32223 7.22331 1.42018 7.16944 1.49853L7.17434 1.49364ZM10.382 3.39863C10.3575 3.29579 10.2595 3.21253 10.0881 3.13908C9.94123 3.09011 9.79432 3.04114 9.6523 2.98727L9.20666 3.52595L8.4525 3.25661C8.23212 3.47698 8.09011 3.71694 8.01665 3.98629L8.7904 4.24584C8.85406 4.18217 8.89814 4.1332 8.92752 4.09892C8.9569 4.06464 8.98139 3.98629 9.01077 3.86876C9.04016 3.75122 9.10872 3.69246 9.22625 3.69246C9.26543 3.69246 9.39765 3.75612 9.62782 3.87855C9.72086 3.93242 9.80411 3.9618 9.87267 3.9618C9.98041 3.9618 10.0833 3.87855 10.1714 3.70715C10.2596 3.54065 10.3281 3.43291 10.3771 3.39373L10.382 3.39863ZM13.6141 8.68756C13.6288 8.6239 13.6386 8.58472 13.6386 8.57003C13.6386 8.46229 13.5504 8.35456 13.379 8.25172C13.286 8.19785 13.1489 8.11949 12.9677 8.01665L12.4388 8.66308L11.8266 8.32028C11.7189 8.33497 11.621 8.39373 11.5426 8.49658C11.5181 8.52106 11.4251 8.69246 11.2586 9.01567L12.0225 9.36827C12.0764 9.3193 12.1352 9.24094 12.1988 9.1332C12.3017 8.94711 12.3849 8.82958 12.4584 8.7806C12.5857 8.80509 12.713 8.85896 12.8452 8.94711C12.9383 9.00098 13.0558 9.08423 13.1978 9.19197C13.3301 9.02547 13.4672 8.85896 13.6092 8.68756H13.6141ZM5.79824 5.524C5.71988 5.524 5.66112 5.49461 5.62684 5.44074C5.59256 5.38688 5.56807 5.33301 5.55828 5.28893C5.54848 5.23996 5.53869 5.1763 5.53869 5.08815C5.53869 4.78452 5.60725 4.50049 5.74927 4.24094C5.71009 4.38785 5.68071 4.49559 5.66601 4.56415C5.65132 4.63271 5.64153 4.70617 5.64153 4.79432C5.64153 4.89716 5.65132 4.97551 5.67091 5.03428C5.6905 5.09305 5.72968 5.15671 5.79334 5.23017C5.84231 5.23017 5.89618 5.20078 5.95984 5.13712C5.94515 5.09794 5.94026 5.05877 5.95495 5.01959C5.96474 4.98041 5.99412 4.93144 6.0333 4.86778C6.04799 4.93144 6.05779 4.98041 6.05779 5.01959C6.05779 5.24486 5.96964 5.41626 5.79824 5.524ZM5.15181 2.5857C5.11263 2.74241 4.92165 2.83056 4.58374 2.85505C4.24094 2.87953 4.03036 2.97747 3.94221 3.14887C3.94221 3.39863 3.98139 3.70715 4.05975 4.06464C4.24094 4.89716 4.32909 5.42116 4.32909 5.64153C4.33888 5.70519 4.33888 5.76885 4.33888 5.83741V6.0333C4.33888 6.24387 4.31929 6.45446 4.27522 6.66014C4.23115 6.86582 4.16748 7.0715 4.07933 7.26738C4.19687 6.97845 4.25563 6.66503 4.25563 6.32713C4.25563 6.14104 4.23604 5.92556 4.19687 5.6905C4.06954 4.9951 3.94711 4.28991 3.81978 3.58472C3.81978 3.34966 3.84917 3.13418 3.90304 2.9383C3.99608 2.82076 4.10872 2.73261 4.23604 2.67385C4.36337 2.61508 4.52498 2.56121 4.71107 2.51714C4.6474 2.46817 4.59354 2.43389 4.54456 2.4094C4.49559 2.38492 4.44662 2.37512 4.39275 2.37512C4.33888 2.37512 4.28991 2.38981 4.25073 2.42409L4.12341 2.57591C4.09892 2.51224 4.09892 2.45348 4.11851 2.39961C4.1381 2.34574 4.17238 2.28207 4.21645 2.21351C4.3046 2.14985 4.34378 2.0715 4.34378 1.97845C4.34378 1.9001 4.29971 1.78256 4.21645 1.62096C4.12831 1.45935 4.08423 1.35162 4.07444 1.29775C3.90793 1.27326 3.7904 1.23408 3.71205 1.18021C3.63369 1.12634 3.58472 1.05289 3.56023 0.969635L3.73653 0.475025C3.89324 0.602351 4.03526 0.759058 4.15769 0.954945C4.25073 1.10186 4.34378 1.29775 4.44172 1.54261C4.49559 1.12635 4.53477 0.886387 4.55926 0.827621C4.61312 0.680706 4.69638 0.563174 4.80411 0.475025C4.92165 0.445642 5.02449 0.484818 5.10774 0.592556L5.02449 0.837414C4.95592 0.808031 4.89716 0.783545 4.84819 0.768854C4.79922 0.754162 4.75514 0.759061 4.70617 0.793341C4.66699 0.871696 4.63761 0.969637 4.62292 1.08227C4.60823 1.19491 4.59843 1.30754 4.59843 1.41528V1.66014C4.59843 1.80705 4.58374 1.94417 4.54946 2.0617C4.6572 2.11068 4.76494 2.18413 4.86778 2.28697C4.92165 2.34084 5.01469 2.44368 5.13712 2.5906L5.15181 2.5857ZM13.3203 6.14594C13.335 6.08227 13.3448 5.98923 13.3448 5.8619C13.3448 5.62684 13.1587 5.15181 12.7816 4.44172C12.6151 4.1381 12.5465 3.86386 12.571 3.619C12.6004 3.619 12.6396 3.62879 12.6787 3.65328C12.7179 3.67777 12.762 3.70225 12.8061 3.73653C12.8306 3.67287 12.8404 3.6239 12.8404 3.58472C12.8404 3.4525 12.7473 3.30068 12.5563 3.12439C12.3213 2.90401 12.1743 2.74241 12.1205 2.64447C12.0176 2.66895 11.9344 2.7669 11.8756 2.9383C11.8658 2.96278 11.8266 3.1048 11.7581 3.37414C12.189 4.34378 12.62 5.31341 13.0509 6.27815C12.9579 6.43486 12.8355 6.54261 12.6787 6.59647C12.5269 6.65034 12.3359 6.67973 12.1107 6.67973C12.0568 6.67973 11.9931 6.67973 11.9148 6.67483C11.8413 6.67483 11.7581 6.66503 11.6601 6.65524C11.6357 6.64055 11.523 6.59648 11.3173 6.52791C11.0529 6.43487 10.9158 6.31244 10.9158 6.16552C10.9158 6.09696 10.9403 6.01371 10.9843 5.92066C10.9354 5.97453 10.8276 6.15573 10.6562 6.45935C10.5289 6.68462 10.3918 6.83644 10.2351 6.905C10.1273 6.95397 10.0098 6.97356 9.89226 6.97356C9.6572 6.97356 9.45152 6.90989 9.28012 6.78746C9.25074 6.73359 9.23114 6.67483 9.23114 6.61117C9.23114 6.58668 9.27032 6.46425 9.34868 6.24877C9.37316 6.18021 9.37806 6.10676 9.37316 6.0382C9.34378 6.06758 9.26543 6.15083 9.14789 6.28306C9.00098 6.45446 8.86876 6.58668 8.75612 6.66993C8.64349 6.75808 8.52595 6.81685 8.40842 6.85113C8.29089 6.88541 8.14398 6.905 7.97258 6.905C7.82566 6.905 7.66405 6.8854 7.49265 6.84623C7.29677 6.84623 7.14985 6.74339 7.04701 6.54261C6.9001 6.23898 6.82174 6.08227 6.81195 6.07247C6.7238 6.26836 6.66993 6.40059 6.64545 6.47405C6.62096 6.54261 6.59647 6.65524 6.56219 6.80215C6.57689 6.85113 6.65034 7.09109 6.78746 7.53183C6.88051 7.83056 6.93438 8.07052 6.95397 8.26151C6.35162 8.82468 5.67581 9.26542 4.93144 9.57884C4.18707 9.89226 3.38883 10.0979 2.53183 10.191C2.08619 10.191 1.70421 10.1224 1.39079 9.9902C1.02351 9.83349 0.739471 9.58864 0.543585 9.26053C0.411361 8.9716 0.342801 8.64839 0.342801 8.29579C0.342801 8.12439 0.367287 7.94319 0.411361 7.7473C0.460333 7.55631 0.519099 7.39471 0.597454 7.27228C0.661117 7.21842 0.710088 7.10578 0.749265 6.92948C0.817826 6.64544 0.93046 6.51812 1.07738 6.54261C1.29775 6.47405 1.45446 6.29775 1.5475 6.01371C1.60137 5.857 1.66993 5.60725 1.74829 5.25955C1.66993 5.28403 1.61117 5.3477 1.57689 5.44564C1.54261 5.54359 1.49853 5.61704 1.45446 5.65132C1.40548 5.6856 1.35651 5.70519 1.30264 5.70519C1.18511 5.70519 1.08717 5.64643 1.00881 5.52889C0.93046 5.31832 0.891283 5.08815 0.891283 4.84819C0.891283 4.53477 0.950049 4.21156 1.06758 3.87365C1.15573 3.6141 1.39079 3.11949 1.77277 2.38002C1.61606 2.55142 1.47894 2.73261 1.36141 2.91381C1.24388 3.0999 1.13614 3.30558 1.0333 3.53085C0.940255 3.77571 0.847208 4.01077 0.763957 4.24584C0.582762 4.74535 0.494613 5.1714 0.494613 5.5142C0.494613 5.88149 0.592556 6.2047 0.788443 6.47894C0.617042 6.75318 0.475024 7.04701 0.357493 7.36043C0.244858 7.67385 0.13712 8.01665 0.03428 8.38393C0.00979417 8.57003 0 8.76592 0 8.9618C0 9.32419 0.0538686 9.63761 0.166503 9.91185C0.274241 10.1861 0.470127 10.4114 0.744368 10.5926C1.24388 10.857 1.79236 10.9941 2.38002 10.9941C2.96768 10.9941 3.64349 10.8472 4.36827 10.5583C4.92654 10.3379 5.52889 10.0294 6.18022 9.62782C6.52302 9.46131 6.78746 9.17238 6.96866 8.75612C7.09598 8.38884 7.21841 8.02155 7.34574 7.64936C7.45348 7.68854 7.5906 7.70813 7.74731 7.70813C8.21743 7.70813 8.619 7.50735 8.95691 7.11068C8.94221 7.20372 8.95691 7.30656 8.99119 7.4094C9.03036 7.51714 9.08423 7.59549 9.15769 7.64936C9.26053 7.69833 9.36337 7.73262 9.46131 7.762C9.56415 7.79138 9.6572 7.80117 9.74535 7.80117C9.84819 7.80117 9.95103 7.78159 10.049 7.74241C10.2302 7.71303 10.382 7.59059 10.5093 7.38002C10.573 7.26248 10.6709 7.08129 10.8031 6.84133C10.8129 6.905 10.8423 6.96376 10.8913 7.02253C10.9403 7.08129 10.9941 7.14006 11.048 7.19393C11.3516 7.38981 11.6993 7.48775 12.0813 7.48775C12.2478 7.48775 12.3947 7.47307 12.522 7.43879C12.6494 7.4094 12.7767 7.35064 12.904 7.26249C13.046 7.13516 13.1489 6.95886 13.2076 6.73359C13.237 6.53771 13.2762 6.34182 13.3154 6.14594H13.3203ZM9.94613 9.11851C9.94613 9.20666 9.92654 9.28991 9.89226 9.37316C9.85798 9.45642 9.79922 9.52987 9.72086 9.60333C9.61312 9.6572 9.44172 9.73065 9.21645 9.8139C9.06954 9.87757 8.95691 9.92165 8.88835 9.94124C8.80999 9.86288 8.74633 9.80901 8.70225 9.77473C8.6239 9.72087 8.54554 9.69148 8.46719 9.69148C8.39863 9.69148 8.33497 9.72087 8.2811 9.77473L7.68364 10.1959C7.12537 10.5974 6.76787 10.8472 6.60137 10.95C6.18511 11.1998 5.78844 11.3712 5.40157 11.4545C5.75416 11.3124 6.2096 11.0382 6.76298 10.6317C7.12537 10.3722 7.39471 10.1763 7.57591 10.0441C7.88932 9.80901 8.22233 9.60333 8.57493 9.42214C8.65328 9.42214 8.77081 9.47111 8.92752 9.56415C9.00588 9.61312 9.06464 9.63271 9.10382 9.63271C9.18217 9.63271 9.26053 9.57395 9.33888 9.45641C9.35357 9.39275 9.36827 9.33399 9.37316 9.27522C9.38296 9.21646 9.42214 9.17728 9.4907 9.16259L9.44172 9.42214C9.49069 9.45152 9.54456 9.45642 9.61312 9.42703C9.68169 9.39765 9.74535 9.35847 9.80901 9.3046C9.85798 9.24094 9.90206 9.17727 9.95103 9.11851H9.94613ZM2.88443 7.71792C2.88443 7.85014 2.85994 7.97258 2.81587 8.08031C2.7669 8.18805 2.69344 8.2713 2.5906 8.32517C2.52693 8.33497 2.47307 8.31048 2.4192 8.26151C2.37022 8.21253 2.32615 8.14887 2.29677 8.08031C2.28697 8.03134 2.28697 7.96768 2.28697 7.87953C2.28697 7.69344 2.32615 7.50245 2.40451 7.31636C2.42899 7.25269 2.48286 7.14985 2.57101 7.01273C2.53183 7.10577 2.49755 7.20372 2.46327 7.30656C2.43389 7.4094 2.4143 7.51224 2.4143 7.61018C2.4143 7.78158 2.47307 7.9236 2.5906 8.03134C2.66895 8.04603 2.72772 8.01665 2.7669 7.9383C2.83546 7.79628 2.87463 7.72282 2.88443 7.71303V7.71792ZM19.716 0.891283C19.7453 0.773751 19.716 0.690499 19.6082 0.646425C19.5054 0.597453 19.4417 0.631735 19.4221 0.739472C19.4466 0.749266 19.4907 0.778647 19.5642 0.832516C19.6376 0.886384 19.6866 0.905974 19.716 0.891283ZM17.8012 5.6856C17.62 5.45054 17.4584 5.27914 17.3066 5.1665C17.1009 5.01959 16.8854 4.94123 16.6503 4.94123C16.572 4.94123 16.5132 4.94123 16.474 4.95103C16.381 5.0049 16.3222 5.04407 16.2977 5.06856C16.2341 5.13222 16.2047 5.20078 16.2047 5.27914C16.2831 5.44564 16.4006 5.55338 16.5622 5.61215C16.7238 5.67091 16.9148 5.70029 17.1303 5.70029C17.2184 5.70029 17.3359 5.70029 17.4878 5.6905C17.6396 5.6807 17.7424 5.68071 17.8012 5.68071V5.6856Z" fill="white"/>
</svg>
