<svg width="20" height="11" viewBox="0 0 20 11" fill="none" xmlns="http://www.w3.org/2000/svg">
<path fill-rule="evenodd" clip-rule="evenodd" d="M19.9932 0.359969C20.0082 0.389966 19.9983 0.439962 19.9633 0.509956C19.9283 0.579949 19.9033 0.629945 19.8833 0.659942C18.5934 1.1399 17.4135 1.63986 16.3336 2.15981C16.3186 2.11981 16.3186 2.07982 16.3336 2.03982C16.4136 1.93483 16.4636 1.86484 16.4886 1.82484C17.6585 1.28989 18.8234 0.799931 19.9932 0.359969ZM16.7435 4.29462C16.5985 4.29462 16.5086 4.20963 16.4686 4.04465C16.4686 3.84466 16.4936 3.65968 16.5386 3.4847C16.5885 3.31471 16.6535 3.13973 16.7435 2.96474C16.7435 3.01474 16.7285 3.11473 16.6935 3.26472C16.6635 3.4147 16.6435 3.53469 16.6435 3.62468C16.6435 3.75467 16.6735 3.85966 16.7285 3.94965C16.7985 3.98965 16.8785 3.97465 16.9585 3.90966C17.0385 3.83967 17.0935 3.76967 17.1285 3.68968C17.1435 3.80967 17.1185 3.92966 17.0435 4.04965C16.9735 4.16964 16.8735 4.25463 16.7435 4.29962V4.29462ZM14.0438 2.13481C14.0588 2.19981 14.0688 2.2448 14.0688 2.2798C14.0688 2.42479 14.0188 2.55478 13.9138 2.67477C13.7788 2.75476 13.6788 2.70476 13.6138 2.52978C13.6038 2.48978 13.6038 2.43479 13.6038 2.35979C13.6038 2.21481 13.6488 2.04482 13.7338 1.84484C13.8538 1.57486 13.9238 1.40488 13.9388 1.33988C13.9538 1.38988 13.9638 1.42988 13.9638 1.45987C13.9638 1.52987 13.9338 1.64486 13.8738 1.79484C13.8138 1.94483 13.7838 2.04982 13.7838 2.10482C13.7838 2.19981 13.8288 2.2748 13.9138 2.3348C13.9538 2.2698 13.9988 2.20481 14.0438 2.12981V2.13481ZM14.7637 0L8.91922 1.97983C8.82423 2.04482 8.72424 2.10982 8.61925 2.18481C8.51425 2.2548 8.45426 2.3448 8.43926 2.44979C9.87914 1.93983 11.324 1.42488 12.7689 0.914921C13.2088 0.764934 13.6538 0.609948 14.0988 0.459961C14.3887 0.339971 14.6087 0.189984 14.7587 0.00500063L14.7637 0ZM18.9983 7.91931C18.9983 8.0393 18.9683 8.11929 18.9133 8.16428C18.8584 8.20928 18.7784 8.22928 18.6734 8.22928C18.6334 8.22928 18.5634 8.22928 18.4684 8.21928C18.3734 8.20928 18.2984 8.20928 18.2534 8.20928C18.1734 8.20928 18.1034 8.21928 18.0484 8.23928C17.9934 8.25928 17.9434 8.29928 17.9034 8.35427C17.9684 8.64425 18.0034 8.80423 18.0134 8.84422C18.0534 9.04421 18.0734 9.2142 18.0734 9.35918C18.0734 9.47917 18.0634 9.59416 18.0384 9.70915C18.0384 9.57916 17.9934 9.37918 17.8984 9.10421C17.8084 8.82923 17.7584 8.62924 17.7584 8.50926C17.7584 8.39927 17.7784 8.29927 17.8234 8.20928C17.8684 8.11929 17.9434 8.0393 18.0584 7.9693L18.4884 7.87431C18.4334 7.81932 18.3584 7.78932 18.2584 7.78932C18.2184 7.78932 18.1784 7.79932 18.1384 7.82431C18.0834 7.87931 18.0084 7.91931 17.9234 7.94431C17.9484 7.92931 18.0084 7.83431 18.1034 7.66933C18.1734 7.53934 18.2734 7.47935 18.3934 7.47935C18.5134 7.49435 18.6234 7.54434 18.7284 7.62933C18.8334 7.71432 18.9183 7.80932 18.9933 7.92431L18.9983 7.91931ZM18.6984 4.32962C18.6284 4.19963 18.5084 4.13964 18.3384 4.13964C18.2884 4.13964 18.2484 4.13964 18.2184 4.14964C17.9934 4.33462 17.8284 4.5496 17.7185 4.78958C17.6085 5.03456 17.4985 5.50952 17.3885 6.20946C17.2935 6.24945 17.2035 6.26945 17.1235 6.26945C17.0735 6.26945 17.0135 6.25945 16.9385 6.24445C16.8635 6.22946 16.7935 6.21446 16.7285 6.20946C16.5835 6.13946 16.4736 6.03947 16.3986 5.91948C16.3236 5.79949 16.2736 5.6645 16.2486 5.50952L15.7786 6.15946L16.0886 7.46935C15.1787 8.0443 14.0788 8.60425 12.7989 9.1492C11.664 9.60416 10.5291 10.0591 9.38918 10.5191C9.69915 10.3991 9.93913 10.3241 10.1041 10.2891C10.2691 10.2591 10.7491 10.1891 11.549 10.0841C12.3589 9.89913 13.0089 9.71915 13.5038 9.54416C14.2388 9.28919 14.8387 8.99421 15.3037 8.65424C15.8736 8.24428 16.3036 7.74432 16.5985 7.14438C16.9685 7.14438 17.3035 7.08938 17.6085 6.98439C17.9134 6.8744 18.2034 6.71441 18.4834 6.49943C18.6584 6.17946 18.7734 5.95448 18.8184 5.82949C18.9233 5.56451 18.9733 5.31953 18.9733 5.09955C18.9733 4.80458 18.8783 4.5496 18.6834 4.32962H18.6984ZM8.10429 1.0999C8.07929 1.1399 8.0443 1.22989 7.9943 1.36488C7.9443 1.49987 7.88431 1.59486 7.81432 1.65486C7.61433 1.65486 7.50434 1.56486 7.47935 1.38988C7.45435 1.21989 7.47935 1.05991 7.54934 0.899923C7.65933 0.69994 7.74432 0.549952 7.79932 0.45496C7.79932 0.494957 7.78432 0.559951 7.74932 0.644944C7.67933 0.844927 7.63933 0.979915 7.63933 1.05491C7.63933 1.1749 7.68933 1.26989 7.79432 1.34488C7.85931 1.35488 7.90931 1.31489 7.94931 1.22989C7.9893 1.1449 8.0393 1.1049 8.09429 1.1049L8.10429 1.0999ZM11.559 3.4497L11.449 3.73967C11.419 3.73967 11.379 3.72968 11.339 3.71468C11.244 3.67468 11.184 3.65468 11.159 3.65468C11.119 3.65468 11.084 3.66968 11.049 3.70468C11.024 3.76967 10.969 3.96465 10.889 4.29462C10.8041 4.6246 10.7091 4.86458 10.5941 5.01456C10.5391 4.94457 10.4841 4.82958 10.4241 4.67959C10.2941 4.34962 10.2091 4.14964 10.1591 4.07964C10.1091 4.10464 10.0441 4.10964 9.95413 4.08964C9.86414 4.07465 9.78914 4.04965 9.71915 4.01965C9.64916 3.98965 9.61916 3.93966 9.61916 3.87466C9.61916 3.83467 9.62916 3.79467 9.64416 3.74967C9.65916 3.70468 9.67415 3.65968 9.69415 3.60969C9.74415 3.55469 9.79414 3.4947 9.84914 3.4297C9.91413 3.4147 9.95913 3.4047 9.99413 3.4047C10.0591 3.4047 10.1041 3.4197 10.1391 3.4547C10.2291 3.54969 10.3041 3.67968 10.3691 3.83967C10.4641 4.06965 10.5591 4.30463 10.6591 4.53461C10.7391 4.23963 10.8041 4.01965 10.849 3.87466C10.939 3.60969 11.074 3.4397 11.259 3.35971L11.559 3.4547V3.4497ZM11.509 8.94422L10.909 9.41418L10.2141 9.1242L9.69915 9.63916C9.44917 9.50917 9.2042 9.38418 8.95422 9.25419C9.01921 9.1242 9.0892 9.01421 9.1692 8.91922C9.24919 8.82423 9.35918 8.70924 9.49417 8.58425C9.79914 8.65424 10.0541 8.78923 10.2641 8.97922C10.3191 8.94922 10.4141 8.84923 10.5541 8.68424C10.6891 8.51925 10.7991 8.43926 10.879 8.43926C10.944 8.43926 11.009 8.46926 11.069 8.52425C11.099 8.57425 11.189 8.62924 11.329 8.69924C11.469 8.76923 11.529 8.84923 11.514 8.94422H11.509ZM5.63951 4.39462C5.63951 4.47461 5.61951 4.5646 5.58451 4.65959C5.54951 4.75459 5.50452 4.84958 5.44452 4.93457C5.34953 4.98456 5.27954 5.00456 5.23954 5.00456C5.18455 5.00456 5.13955 4.97456 5.10955 4.91957C5.05456 4.80958 5.02456 4.68459 5.02456 4.5496C5.02456 4.39962 5.06456 4.22963 5.14455 4.03965C5.22454 3.84966 5.30454 3.66968 5.38453 3.49469C5.39453 3.59969 5.35453 3.74967 5.27454 3.94965C5.19455 4.14964 5.15455 4.28463 5.15455 4.35962C5.15455 4.43461 5.17455 4.49461 5.20954 4.5496C5.24454 4.6046 5.31453 4.6496 5.41953 4.67959C5.48952 4.5846 5.56451 4.48961 5.63451 4.38962L5.63951 4.39462ZM14.0888 5.48452C13.9838 5.02956 13.9038 4.72459 13.8488 4.5796C13.7938 4.42961 13.7138 4.29462 13.6088 4.16463L13.3188 4.84958C13.3188 4.87957 13.4088 5.12955 13.5838 5.59451C13.6388 5.7445 13.6688 5.89949 13.6688 6.04947C13.2188 6.23946 12.7589 6.40944 12.2839 6.54943C11.809 6.68942 11.329 6.78941 10.849 6.8544C10.6191 6.8844 10.4091 6.9094 10.2191 6.91939C10.0291 6.92939 9.85414 6.93939 9.68415 6.93939C9.04421 6.93939 8.43426 6.8644 7.84931 6.70941C7.60933 6.53943 7.42435 6.38444 7.29936 6.23945C7.11438 6.03947 7.00439 5.84449 6.96439 5.64951C6.92439 5.6745 6.8894 5.7195 6.8544 5.77949C6.8244 5.84449 6.77441 5.93948 6.70941 6.06947C6.58942 6.04447 6.47443 6.03447 6.35944 6.03447C6.16946 6.03447 5.94948 6.06947 5.7095 6.14446C5.53952 6.19446 5.33953 6.26445 5.10955 6.35945C4.76458 6.48943 4.40961 6.68941 4.03965 6.96939C3.86466 7.09938 3.53969 7.36936 3.06973 7.78432C2.64477 8.15429 2.3198 8.41426 2.08482 8.57425C1.72485 8.82423 1.36488 9.00421 1.00491 9.1142C0.709938 9.1142 0.484958 8.98421 0.334971 8.71924C0.264977 8.63924 0.22498 8.53426 0.22498 8.40927C0.22498 8.31927 0.239979 8.22428 0.264977 8.11929C0.294974 8.0143 0.324972 7.91431 0.354969 7.81932C0.45996 7.65933 0.619946 7.40935 0.834927 7.07438C1.02491 6.7944 1.20489 6.56943 1.36488 6.40444C1.60486 6.30945 1.77984 6.13947 1.89483 5.89449C2.00482 5.64951 2.06482 5.38453 2.06482 5.09455C2.02482 5.10955 1.96483 5.19455 1.87984 5.33953C1.79484 5.48952 1.69485 5.54951 1.57486 5.52452C1.41488 5.37953 1.30489 5.23454 1.24489 5.08456C1.1849 4.93457 1.1549 4.76458 1.1549 4.5746C1.1549 4.27962 1.25489 3.89966 1.45487 3.4347C1.74485 2.76976 1.89483 2.40979 1.90983 2.3548C1.79984 2.54478 1.60486 2.86975 1.33488 3.32471C0.934918 4.04464 0.734935 4.65959 0.734935 5.17455C0.734935 5.38453 0.764933 5.58451 0.829927 5.7845C0.894922 5.98448 0.999912 6.17446 1.1399 6.35945C0.749934 6.8894 0.519954 7.19937 0.45496 7.29436C0.239979 7.63933 0.0949918 7.9743 0.0249979 8.30428C0.00999922 8.39927 0 8.47426 0 8.53426C0 8.73424 0.0449959 8.91922 0.139988 9.0942C0.22998 9.26419 0.359969 9.42917 0.519955 9.57916C0.704938 9.64916 0.869924 9.68915 1.02491 9.68915C1.43987 9.68915 1.94983 9.40918 2.54978 8.84923C2.97474 8.45926 3.24972 8.21928 3.3797 8.12929C4.06964 7.65933 4.47961 7.38435 4.6146 7.31436C5.10955 7.04438 5.56451 6.9044 5.98448 6.9044C6.16946 6.9044 6.37444 6.9344 6.60942 6.99939C6.60942 7.37436 6.71941 7.73432 6.94439 8.07929C7.14438 8.38427 7.41435 8.64924 7.74932 8.88422C7.81432 8.73424 7.87931 8.57925 7.93931 8.42927C8.06929 8.12429 8.12929 7.85931 8.12929 7.63933C8.37927 7.70433 8.61425 7.74932 8.83923 7.76932C9.06421 7.79432 9.30919 7.80432 9.56916 7.80432C9.99913 7.80432 10.4391 7.76932 10.889 7.69433C11.339 7.62433 11.774 7.52434 12.1989 7.39436C12.6239 7.26437 13.0589 7.10438 13.5088 6.91439C13.7088 6.78441 13.8488 6.56943 13.9288 6.26445C13.9688 6.09447 14.0238 5.83449 14.0988 5.47452L14.0888 5.48452ZM4.17963 0.289976C4.15464 0.409965 4.10964 0.504956 4.04965 0.579949C3.93966 0.529954 3.83966 0.509956 3.75967 0.509956C3.70468 0.509956 3.65468 0.524955 3.61468 0.559952C3.53469 0.664943 3.4797 0.899921 3.4447 1.25989C3.4147 1.62486 3.35471 1.85984 3.27471 1.97483C3.28471 1.98983 3.3897 2.06482 3.59969 2.20481C3.75967 2.3148 3.83966 2.41979 3.83966 2.51478C3.83966 2.58478 3.79967 2.66477 3.71967 2.74476C3.52969 2.74476 3.32971 2.76976 3.12973 2.82475C2.92974 2.87475 2.73476 2.94974 2.53978 3.04473C2.53978 3.26971 2.57477 3.53469 2.63977 3.84466C2.70976 4.15464 2.76976 4.43461 2.82475 4.68959C2.87975 4.94457 2.90975 5.18455 2.90975 5.40953C2.90975 5.59451 2.88975 5.7695 2.84975 5.92948C2.80975 6.09447 2.73976 6.25445 2.64477 6.41444C2.69476 6.30945 2.72976 6.19446 2.75476 6.05947C2.77976 5.92948 2.78976 5.80949 2.78976 5.7045C2.78976 5.51952 2.76476 5.32453 2.71976 5.11455C2.70476 5.02456 2.65977 4.85957 2.57977 4.6146C2.50478 4.36962 2.44479 4.15464 2.39979 3.97465C2.35479 3.78967 2.3348 3.62469 2.3348 3.4847C2.3348 3.34471 2.3448 3.22472 2.36479 3.14473C2.38479 3.05973 2.42479 2.95974 2.48978 2.83975C2.55478 2.74976 2.65477 2.68977 2.78976 2.64977C3.12473 2.54478 3.31471 2.47978 3.35471 2.44479C3.20472 2.3148 3.03473 2.2648 2.84975 2.2898C2.81975 2.3298 2.78976 2.36479 2.76476 2.38979C2.73976 2.41979 2.70976 2.42979 2.66977 2.41979C2.69476 2.18981 2.81475 2.02982 3.02974 1.94983L3.21972 1.97483C3.12473 1.74485 3.04973 1.56486 2.98974 1.44488C2.88475 1.22989 2.76976 1.1099 2.63977 1.08491C2.61477 1.05991 2.54978 1.01491 2.44979 0.954916C2.3448 0.889922 2.2748 0.829929 2.2348 0.774934C2.2348 0.599949 2.2748 0.444963 2.35479 0.319974C2.57977 0.384968 2.76976 0.539954 2.92974 0.789932C2.98474 0.879924 3.09973 1.1049 3.26471 1.47487C3.35471 0.979915 3.4147 0.694939 3.4447 0.624945C3.50969 0.464959 3.60468 0.324971 3.73467 0.204982C3.79967 0.189983 3.87966 0.199983 3.97465 0.23498C4.06964 0.269977 4.13464 0.294975 4.16464 0.299975L4.17963 0.289976ZM6.08947 8.29427C6.11446 8.38927 6.08947 8.47926 6.02447 8.56425C5.95448 8.64924 5.90948 8.70424 5.88449 8.72424C5.82949 8.73424 5.7545 8.73424 5.65451 8.73424C5.46452 8.73424 5.33453 8.74424 5.26954 8.76423C5.20455 8.78423 5.13955 8.86422 5.06456 9.00921C4.83958 9.1592 4.49961 9.29919 4.04465 9.42918C3.73967 9.50917 3.52969 9.56917 3.4097 9.60916C3.4897 9.54417 3.83466 9.38418 4.43961 9.1292C4.86457 8.94422 5.12955 8.71924 5.24454 8.44426C5.33453 8.23428 5.47452 8.0643 5.6745 7.92931C5.7695 7.91931 5.85449 7.9543 5.91948 8.0243C5.98948 8.09429 6.03947 8.18428 6.07947 8.28927L6.08947 8.29427ZM18.5184 5.7395L17.7484 6.12447C17.7484 6.12447 17.7584 6.05947 17.7584 6.00447C17.7484 5.93948 17.7484 5.87449 17.7484 5.80449V5.59451C17.7484 5.45952 17.7684 5.34453 17.8134 5.24454C17.8584 5.14955 17.9384 5.08456 18.0584 5.05456C18.2684 5.08456 18.4034 5.19454 18.4684 5.37953C18.4784 5.40453 18.4934 5.45952 18.5234 5.53951C18.5534 5.62451 18.5484 5.6895 18.5184 5.7395ZM5.7745 8.42927C5.7445 8.45426 5.6995 8.45926 5.64451 8.43926C5.58951 8.42426 5.53952 8.39927 5.49952 8.36927C5.49952 8.26428 5.53952 8.22928 5.61951 8.25928C5.6895 8.29927 5.7445 8.35427 5.7745 8.42927Z" fill="white"/>
</svg>
