<svg width="20" height="10" viewBox="0 0 20 10" fill="none" xmlns="http://www.w3.org/2000/svg">
<path fill-rule="evenodd" clip-rule="evenodd" d="M19.9959 2.39785C19.9175 2.37309 19.839 2.30293 19.7689 2.1915C19.6698 2.03467 19.6079 1.93974 19.579 1.91498L19.5006 2.06356C19.5006 2.40198 19.5419 2.93025 19.6203 3.64837C19.6987 4.36649 19.74 4.91127 19.74 5.28271C19.74 6.01733 19.7194 6.5456 19.6822 6.86752C19.6162 7.42055 19.4717 7.90755 19.2447 8.32439C19.319 8.14692 19.3686 7.95295 19.3933 7.74659C19.4181 7.54024 19.4346 7.31737 19.4346 7.078C19.4346 6.86752 19.4263 6.58275 19.4098 6.23194C19.3933 5.87701 19.3851 5.67478 19.3851 5.62113L19.0301 1.0648C19.0054 1.01114 18.9889 0.949236 18.9889 0.874948C18.9889 0.775898 19.0384 0.652084 19.1333 0.507635C19.2282 0.363186 19.2984 0.260008 19.3355 0.202229C19.5089 0.619067 19.6409 0.973999 19.7317 1.27115C19.8514 1.65497 19.9381 2.03054 20 2.40198L19.9959 2.39785ZM16.2815 0C16.2939 0.0660338 16.2732 0.123813 16.2237 0.177466C16.2031 0.198102 16.1535 0.235246 16.0751 0.297152C15.7697 0.408584 15.2868 0.581923 14.6182 0.813042C13.8011 1.09781 13.3099 1.26702 13.1531 1.32893C12.6496 1.51465 12.1709 1.70863 11.7169 1.91498C11.7375 1.77053 11.8324 1.65497 12.0058 1.5683C12.1585 1.50227 12.3112 1.43211 12.4598 1.36195C13.735 0.912092 15.0103 0.462237 16.2815 0.00412712V0ZM16.0256 3.7144C16.038 3.80107 16.0256 3.88774 15.9761 3.97854C15.9307 4.06934 15.8688 4.1395 15.7862 4.19315C15.7284 4.2014 15.6789 4.18489 15.6459 4.15188C15.6129 4.11886 15.584 4.06934 15.5551 4.0033C15.5551 3.87949 15.584 3.75567 15.6376 3.63599C15.6954 3.5163 15.7656 3.41312 15.8523 3.33058C15.8523 3.37598 15.8275 3.44614 15.7738 3.53694C15.7202 3.62773 15.6954 3.70202 15.6954 3.75567C15.6954 3.80933 15.7326 3.85885 15.8027 3.90425C15.8481 3.90425 15.8935 3.87536 15.9307 3.82171C15.9719 3.76393 16.0008 3.73091 16.0215 3.71853L16.0256 3.7144ZM15.1341 2.73215C15.0929 2.8312 15.0351 2.93851 14.9525 3.05407C14.87 3.16962 14.7916 3.28106 14.7214 3.38423C14.6348 3.35947 14.5233 3.29756 14.383 3.20677C14.2427 3.11597 14.1436 3.05407 14.0858 3.0293C14.1189 2.90962 14.1766 2.79406 14.2551 2.68262C14.3005 2.61659 14.3913 2.51341 14.5233 2.37722C14.6224 2.41024 14.7214 2.45976 14.8246 2.52992C14.9278 2.60008 15.031 2.66612 15.1383 2.73215H15.1341ZM17.6393 2.21626C17.598 1.93974 17.5114 1.63021 17.371 1.28353C17.2307 0.940982 17.0986 0.610813 16.9666 0.293025C16.8799 0.346678 16.8056 0.42922 16.7396 0.540652C16.6735 0.652084 16.6199 0.771771 16.5828 0.895584C16.657 1.54767 16.7313 2.20388 16.8097 2.85596C16.9336 3.94552 17.0161 4.66364 17.0532 5.01444C17.0904 5.36525 17.1523 5.98432 17.2348 6.87577C17.078 6.99546 16.9129 7.078 16.7478 7.12753C16.5828 7.17705 16.3929 7.20182 16.1824 7.20182C16.0173 7.20182 15.8481 7.18118 15.6789 7.14404C15.7119 6.94593 15.7449 6.73958 15.7821 6.52084C15.8192 6.3021 15.8357 6.11638 15.8357 5.96781C15.8357 5.81923 15.8192 5.67478 15.7862 5.54272C15.7532 5.41065 15.6954 5.28683 15.6088 5.16715C15.5551 5.13413 15.5056 5.11762 15.4602 5.11762C15.4478 5.11762 15.3735 5.13413 15.2414 5.16715C14.8989 5.37763 14.6348 5.64589 14.4532 5.97606C14.2716 6.3021 14.1808 6.65291 14.1808 7.0326C14.1808 7.11927 14.1808 7.18118 14.189 7.22245C13.9579 7.30912 13.7185 7.37928 13.4668 7.42881C13.215 7.48246 12.9633 7.50722 12.7033 7.50722C12.5506 7.50722 12.3855 7.49484 12.208 7.46595C12.0305 7.44119 11.8778 7.39992 11.754 7.34626C11.5023 7.23896 11.3042 7.05737 11.1597 6.79323C11.0483 6.58687 10.9699 6.33925 10.9203 6.0421L10.6934 1.69212L10.487 0.297152C10.4003 0.354932 10.326 0.453983 10.26 0.58605C10.227 0.660338 10.1775 0.763516 10.1114 0.903838C10.2229 1.63846 10.3095 2.27817 10.3632 2.82707C10.421 3.37598 10.4457 3.92489 10.4457 4.48205C10.4664 5.08873 10.487 5.69542 10.5159 6.30623C10.5737 6.99959 10.7759 7.53198 11.1184 7.8993C11.3042 8.03137 11.5023 8.13042 11.7169 8.19232C11.9315 8.25423 12.1544 8.28725 12.3855 8.28725C12.4309 8.28725 12.4969 8.28725 12.5794 8.28312C12.662 8.28312 12.8023 8.26248 12.9963 8.23359C13.1903 8.20471 13.4255 8.15105 13.6938 8.08089C13.7474 8.06851 14.1189 7.94882 14.8122 7.72596C14.9567 7.82501 15.1135 7.89517 15.2827 7.94057C15.4519 7.98597 15.6376 8.0066 15.844 8.0066C16.2278 8.0066 16.5827 7.93644 16.9129 7.80025C17.1358 7.64754 17.2967 7.44532 17.3875 7.18531C17.4783 6.92943 17.5279 6.64053 17.5279 6.32274L17.1234 1.97276L17.2307 1.75402L17.6352 2.22864L17.6393 2.21626ZM12.9261 3.74329C12.8683 4.01981 12.8023 4.22204 12.7322 4.35411C12.662 4.48205 12.5712 4.58522 12.4598 4.65539C12.6579 4.42427 12.7569 4.13537 12.7569 3.78456C12.7569 3.67726 12.7528 3.59472 12.7404 3.53694C12.7322 3.47916 12.7033 3.38836 12.6579 3.26868C12.5918 3.12835 12.534 3.02518 12.4845 2.95089C12.435 2.8766 12.3813 2.81469 12.3194 2.76104C12.3401 2.70326 12.369 2.65373 12.4102 2.61246C12.4515 2.57119 12.4969 2.55468 12.5506 2.55468C12.6744 2.72802 12.7734 2.89311 12.8395 3.05407C12.9055 3.21502 12.9385 3.39249 12.9385 3.58234C12.9385 3.65662 12.9385 3.70615 12.9303 3.73917L12.9261 3.74329ZM14.1849 4.95254L14.0858 5.20017C14.0611 5.19191 14.0116 5.17128 13.9414 5.13413C13.8712 5.09699 13.8176 5.07222 13.7763 5.05984C13.6525 5.43541 13.5287 5.81098 13.409 6.17829C13.3553 6.12051 13.3058 6.02972 13.2604 5.91003C13.149 5.60462 13.0871 5.44367 13.0706 5.42303C13.0458 5.46843 13.0004 5.49319 12.9426 5.49319C12.9179 5.49319 12.889 5.48906 12.8601 5.47668C12.8312 5.46843 12.8106 5.46017 12.7941 5.46017C12.761 5.43541 12.7445 5.39827 12.7445 5.35287C12.7899 5.24144 12.8147 5.15477 12.8147 5.09699C12.8725 4.99794 12.9385 4.94841 13.0128 4.94841C13.0541 4.94841 13.0871 4.9773 13.1118 5.03921C13.1779 5.13826 13.2398 5.26207 13.3017 5.40652C13.3595 5.55097 13.4131 5.69542 13.4585 5.83161C13.4833 5.79034 13.5328 5.60875 13.5988 5.28271C13.6649 4.95667 13.7557 4.79158 13.8754 4.79158C13.9538 4.79158 14.057 4.84523 14.1808 4.94841L14.1849 4.95254ZM9.17458 1.80355L8.69996 2.41849C8.4936 2.34007 8.3409 2.27817 8.23359 2.2369C8.12629 2.19563 8.04375 2.13785 7.98597 2.06356L7.56913 2.55881C7.56913 2.55881 7.44119 2.50103 7.20182 2.40198C7.04911 2.33595 6.96244 2.26166 6.94594 2.17499L7.44944 1.57243L8.02311 1.77053L8.51837 1.38258C8.51837 1.38258 8.67932 1.48989 8.94346 1.65085C9.07553 1.72926 9.14982 1.78291 9.17045 1.80768L9.17458 1.80355ZM8.02311 0.189847C7.40405 0.40033 6.78498 0.610813 6.17004 0.825423C5.43128 1.07718 4.8246 1.3248 4.35823 1.5683C4.33347 1.60957 4.30871 1.64672 4.28807 1.68799C4.26744 1.72926 4.27156 1.76228 4.29633 1.7953C5.31985 1.33306 6.49608 0.899711 7.82088 0.499381C7.96533 0.425093 8.03137 0.326042 8.01898 0.193974L8.02311 0.189847ZM6.06273 2.922L6.00495 3.16137C5.96368 3.16962 5.91003 3.15312 5.83987 3.1201C5.76971 3.08708 5.71605 3.08708 5.67478 3.1201C5.58399 3.23153 5.51383 3.42963 5.46843 3.7144C5.42303 3.99917 5.38589 4.16839 5.36112 4.23029C5.30334 4.18489 5.20429 4.00743 5.06397 3.70615C4.95667 3.48328 4.80809 3.36773 4.61824 3.36773C4.58523 3.33471 4.56872 3.28518 4.56872 3.21915C4.56872 3.17788 4.56872 3.14486 4.57697 3.11184C4.58523 3.07883 4.60173 3.02105 4.63475 2.94263C4.79984 2.91787 4.94016 3.01692 5.05159 3.24804C5.14239 3.43789 5.23731 3.63186 5.32811 3.82171C5.38589 3.56583 5.43541 3.37185 5.46843 3.24804C5.53446 3.02518 5.64177 2.8766 5.78622 2.80231C5.844 2.79406 5.9059 2.81057 5.96368 2.85184C5.98844 2.87247 6.02146 2.89311 6.06273 2.922ZM10.1156 7.73421C10.0413 7.81263 9.95047 7.88692 9.83904 7.95708C9.72761 8.02724 9.61205 8.08502 9.49236 8.13042C9.44697 8.15105 9.35617 8.18407 9.21998 8.23359C9.08378 8.28312 8.94346 8.33265 8.79901 8.3863C8.8733 8.2955 8.95584 8.21709 9.05076 8.15518C9.14569 8.09327 9.26537 8.03137 9.40157 7.97359C9.64094 7.89517 9.87619 7.81676 10.1156 7.73421ZM3.79282 2.96327L3.4544 3.55757C3.38836 3.51217 3.28518 3.4544 3.14073 3.38423C3.00041 3.31407 2.89311 3.26455 2.81882 3.23153C2.86422 3.11184 2.92612 3.00041 3.00867 2.89311C3.06232 2.81882 3.14899 2.7239 3.27693 2.60421C3.409 2.66199 3.50392 2.70739 3.56583 2.73215C3.68551 2.78993 3.7598 2.86835 3.79282 2.95914V2.96327ZM3.14073 1.04003C3.06232 0.821296 2.90136 0.602559 2.66612 0.387949C2.60834 0.354932 2.54643 0.338423 2.48865 0.338423C2.37722 0.338423 2.2988 0.45811 2.25753 0.693355C2.21626 0.932728 2.16261 1.07718 2.10483 1.13083C2.10483 1.20924 2.13785 1.27115 2.20388 1.3083C2.2369 1.32893 2.29468 1.35782 2.37309 1.39909C2.06356 1.70863 1.67148 2.03054 1.19274 2.36071C0.920347 2.54643 0.532398 2.80644 0.0247627 3.14486C0.520017 2.92612 0.961618 2.69088 1.35369 2.44325C1.80355 2.15435 2.19563 1.82006 2.53405 1.44449C2.62072 1.54354 2.71977 1.59307 2.8312 1.59307C2.8766 1.59307 2.91374 1.58481 2.93851 1.57243C3.02518 1.52703 3.07883 1.45274 3.09534 1.34957C3.11597 1.24639 3.13248 1.14734 3.14486 1.04829L3.14073 1.04003ZM9.10442 8.76599C8.79488 8.96409 8.43995 9.06314 8.04375 9.06314C7.95295 9.06314 7.88279 9.06314 7.83739 9.05489C7.68469 9.00124 7.6104 8.94346 7.6104 8.87742C7.6104 8.83203 7.70945 8.7371 7.90343 8.58853C8.0974 8.44408 8.1882 8.31614 8.17582 8.21296C8.08502 8.15931 8.01073 8.12629 7.95295 8.10978C7.89517 8.09327 7.82088 8.09327 7.73009 8.10565C7.68469 8.11391 7.63929 8.1428 7.58977 8.20058C7.54437 8.25836 7.51548 8.30788 7.51135 8.35328C7.63516 8.35328 7.73009 8.35741 7.78787 8.36979C7.84565 8.37804 7.87866 8.40281 7.87866 8.43582C7.75485 8.54313 7.63516 8.64218 7.52373 8.74123C7.4123 8.84028 7.35452 8.93108 7.35452 9.01775C7.35452 9.06314 7.36277 9.09616 7.37516 9.1168C7.44944 9.19521 7.52373 9.24886 7.60215 9.28188C7.68056 9.31077 7.77549 9.32728 7.89104 9.32728C7.95708 9.32728 8.04788 9.31903 8.16756 9.30664C8.46471 9.24061 8.65456 9.19109 8.73298 9.15807C8.93933 9.0714 9.06314 8.94346 9.10854 8.77012L9.10442 8.76599ZM2.78168 3.16137C2.65786 3.37185 2.53405 3.58234 2.41436 3.79695C2.31531 3.77631 2.17499 3.72266 1.98927 3.64012C1.86546 3.58234 1.77879 3.54519 1.73339 3.53281C1.79942 3.38836 1.8572 3.2728 1.90673 3.19026C1.95625 3.10772 2.02641 3.00454 2.12134 2.8766C2.26579 2.90962 2.39373 2.94676 2.50929 2.99216C2.62072 3.03343 2.71564 3.09121 2.7858 3.1655L2.78168 3.16137ZM9.62443 6.40116C9.04251 6.40116 8.39455 6.35163 7.67231 6.25671C6.95419 6.16178 6.26083 6.06686 5.6005 5.97606C5.95543 5.7986 6.35988 5.51383 6.80974 5.12588C7.18118 4.79571 7.55262 4.46141 7.92819 4.12712C8.03549 4.19315 8.10565 4.2922 8.14693 4.42427C8.17994 4.63062 8.21296 4.82872 8.24598 5.02683C8.33677 4.86174 8.41106 4.70078 8.46471 4.54808C8.51837 4.39125 8.54313 4.23029 8.54313 4.05695C8.54313 3.9125 8.51837 3.77218 8.47297 3.64012L8.2955 3.39249C8.12216 3.45852 7.94057 3.58646 7.75072 3.78044C7.22245 4.29633 6.95006 4.56046 6.93768 4.57284C6.74783 4.72967 6.36814 4.96079 5.80685 5.25794C4.95667 5.71193 4.45728 6.20305 4.31284 6.72307C4.46554 6.70244 4.61824 6.69418 4.76682 6.69418C5.03095 6.69418 5.34461 6.71894 5.7078 6.7726C5.89352 6.79736 6.20305 6.85101 6.64053 6.92943C6.43417 7.04086 6.23194 7.15229 6.02559 7.26785C5.60462 7.48659 5.22906 7.59389 4.90714 7.59389C4.79571 7.59389 4.64713 7.57738 4.46141 7.54024C4.27569 7.5031 4.08997 7.39166 3.90838 7.21007C3.68964 6.98721 3.50392 6.65291 3.34296 6.21131C3.28931 6.19893 3.25629 6.19067 3.24391 6.19067C3.1655 6.19067 3.08296 6.21544 2.99629 6.26909C2.97152 6.28972 2.90549 6.34338 2.79818 6.42592C2.62485 6.58275 2.39785 6.99546 2.11308 7.66405C1.89022 8.18407 1.59307 8.49773 1.22988 8.60503C0.986381 8.46059 0.792406 8.27487 0.64383 8.052C0.499381 7.82914 0.396203 7.58151 0.338423 7.31325C0.280644 7.04498 0.247627 6.78498 0.247627 6.53735C0.247627 6.38052 0.255881 6.23607 0.268262 6.10813C0.280644 5.98019 0.301279 5.84812 0.326042 5.71605C0.107305 6.17004 0 6.65291 0 7.16054C0 7.31325 0.00825423 7.46595 0.0288898 7.61453C0.152703 8.11804 0.284771 8.48948 0.425093 8.73298C0.647957 9.12918 0.957491 9.36855 1.34544 9.44697C1.55592 9.32315 1.73339 9.13743 1.88196 8.89393C1.948 8.78663 2.0553 8.55551 2.19975 8.20058C2.32357 7.88279 2.43913 7.65167 2.53818 7.50722C2.69088 7.28849 2.88898 7.1234 3.13248 7.01197C3.42138 7.56087 3.61535 7.88279 3.70615 7.98184C3.87123 8.15931 4.04045 8.26661 4.21791 8.29963C4.39125 8.33265 4.54808 8.34915 4.6884 8.34915C4.96492 8.34915 5.27033 8.29137 5.6005 8.17169C5.81923 8.09327 6.09988 7.96533 6.44243 7.79612C6.88403 7.57738 7.22658 7.42881 7.46182 7.35039C7.83739 7.22658 8.21296 7.16054 8.58027 7.16054C8.61329 7.15229 8.66694 7.15229 8.7371 7.15229C8.74536 7.15229 8.81139 7.15642 8.93933 7.1688C9.06727 7.17705 9.17045 7.18531 9.24061 7.18531C9.39744 7.18531 9.49649 7.14404 9.53776 7.06562C9.5584 7.00784 9.57903 6.94593 9.60792 6.88815C9.64094 6.76434 9.65745 6.65291 9.65745 6.56211C9.65745 6.48782 9.64507 6.4383 9.61618 6.41354L9.62443 6.40116ZM1.91911 5.58811C1.91911 5.69542 1.91085 5.79034 1.89022 5.87701C1.86958 5.96368 1.82831 6.03384 1.76228 6.08337C1.68799 6.09162 1.62196 6.06686 1.56418 6.01321C1.5064 5.95955 1.46925 5.91003 1.45687 5.8605C1.44449 5.81098 1.43624 5.74907 1.43624 5.67891C1.43624 5.52621 1.47751 5.357 1.56418 5.16302C1.63846 5.0227 1.68799 4.92365 1.71275 4.86587C1.72513 4.9319 1.70037 5.03921 1.63434 5.18778C1.5683 5.33636 1.53529 5.44779 1.53529 5.51795C1.53529 5.62526 1.58894 5.71605 1.69212 5.79447C1.76641 5.80685 1.82419 5.77383 1.86958 5.69542C1.88196 5.6624 1.89847 5.62526 1.91911 5.58811ZM15.4189 6.18242C15.4519 6.32687 15.4849 6.47132 15.518 6.61989C15.518 6.69418 15.4726 6.74783 15.3776 6.7891C15.2786 6.85514 15.1878 6.88815 15.1094 6.88815C14.936 6.88815 14.804 6.80974 14.7049 6.64878C14.6059 6.57037 14.5563 6.48782 14.5563 6.40116C14.5563 6.3475 14.5687 6.30623 14.5976 6.27321C14.6513 6.18655 14.7297 6.104 14.8411 6.02559C14.9484 5.94717 15.0516 5.9059 15.1424 5.9059C15.2951 5.9059 15.3859 5.9967 15.4189 6.18242ZM2.95914 1.2175C2.95089 1.25052 2.922 1.26702 2.86835 1.26702C2.83533 1.26702 2.79406 1.25877 2.7404 1.24639C2.69913 1.21337 2.68263 1.18861 2.68263 1.16797C2.68263 1.14734 2.69913 1.11432 2.73628 1.06892C2.77342 1.02352 2.7858 0.982253 2.78168 0.949236L2.95914 1.2175ZM2.57119 1.08956C2.55056 1.05654 2.4969 1.03591 2.40611 1.03178C2.31531 1.02352 2.27817 0.990508 2.29055 0.932728C2.32357 0.879075 2.37309 0.854313 2.43913 0.854313C2.54643 0.854313 2.5877 0.899711 2.56707 0.994635V1.09369L2.57119 1.08956Z" fill="white"/>
</svg>
