<svg width="20" height="13" viewBox="0 0 20 13" fill="none" xmlns="http://www.w3.org/2000/svg">
<path fill-rule="evenodd" clip-rule="evenodd" d="M18.3519 1.53583L18.2988 1.589C18.2562 1.56242 18.2137 1.53052 18.1765 1.4933C18.1393 1.45609 18.1021 1.41356 18.0702 1.37103C17.7565 1.89735 17.2142 2.38644 16.4487 2.83833C16.0766 3.06162 15.6991 3.27959 15.327 3.50287C16.1935 2.77985 17.0654 2.05152 17.9426 1.32318C17.9107 1.28065 17.8203 1.22218 17.6821 1.14243C17.5439 1.068 17.4535 0.977626 17.4216 0.876616C17.4535 0.722442 17.5279 0.5789 17.6449 0.451308C17.7618 0.3184 17.8894 0.233336 18.033 0.190806C18.0861 0.190806 18.134 0.212074 18.1871 0.259921C18.2403 0.307767 18.2775 0.360932 18.3041 0.419412C18.2935 0.461942 18.2935 0.525739 18.2935 0.6108C18.2935 0.685228 18.3147 0.839402 18.3573 1.068C18.3732 1.1637 18.3838 1.24876 18.3838 1.33382C18.3838 1.36572 18.3732 1.43482 18.3573 1.53583H18.3519ZM16.0181 1.44546C16.0181 1.44546 15.9755 1.49862 15.949 1.54647C15.9171 1.59963 15.8852 1.6209 15.8533 1.6209C15.7682 1.54647 15.7257 1.44014 15.7257 1.30191C15.7257 1.21685 15.7416 1.10521 15.7682 0.961671C15.8001 0.823446 15.8107 0.749019 15.8107 0.738386C15.7363 0.919141 15.6778 1.07331 15.6406 1.21154C15.6034 1.34976 15.5821 1.49862 15.5821 1.65811C15.5981 1.72722 15.6247 1.79634 15.6672 1.87077C15.7044 1.94519 15.7788 1.96646 15.8905 1.93988C15.9436 1.84419 15.9755 1.75912 15.9968 1.68469C16.0181 1.61026 16.0234 1.52521 16.0181 1.44014V1.44546ZM14.4232 0.297131C14.3913 0.424722 14.37 0.547004 14.37 0.66928V0.823449C14.37 0.90851 14.3647 0.982938 14.3487 1.04673C14.3381 1.11053 14.3062 1.18496 14.2637 1.27002C14.2052 1.22749 14.1574 1.20623 14.1255 1.20623C14.067 1.20623 13.9872 1.27533 13.8915 1.41887C13.7959 1.5571 13.7055 1.64216 13.631 1.66874C13.3599 1.87076 13.0888 2.07279 12.8283 2.26949C12.4987 2.49809 12.2701 2.58847 12.1531 2.53531C12.8868 2.01431 13.2695 1.73786 13.3121 1.70596C13.5673 1.50394 13.7746 1.29128 13.9394 1.07863C13.8437 1.00952 13.7799 0.961675 13.7374 0.924461C13.6523 0.855348 13.5991 0.780916 13.5832 0.695855C13.6257 0.5151 13.6895 0.366248 13.7693 0.243972C13.849 0.121697 13.966 0.0419507 14.1201 0.0100528C14.2052 -0.0165288 14.2743 0.0100525 14.3222 0.084481C14.3488 0.116379 14.3806 0.190809 14.4232 0.302452V0.297131ZM16.4646 4.3269C16.4646 4.48108 16.454 4.60335 16.4274 4.69904C16.4008 4.79474 16.3424 4.86917 16.2467 4.92765C16.0925 4.92765 15.9968 4.86385 15.9543 4.73626C15.9436 4.70436 15.9436 4.64589 15.9436 4.57146C15.9436 4.31627 16.0128 4.07704 16.1457 3.85907C16.1563 3.91755 16.1457 4.00793 16.1085 4.12489C16.0766 4.24185 16.0553 4.32159 16.0553 4.35349C16.0553 4.46513 16.1085 4.53955 16.2095 4.58208L16.4646 4.3269ZM12.1797 1.54647C12.1212 1.44546 12.0202 1.34977 11.8713 1.2647C11.7969 1.22217 11.68 1.15306 11.5258 1.06268L11.1536 1.58368C11.0845 1.65811 11.0526 1.73254 11.0526 1.80165C11.0526 1.89734 11.159 1.98772 11.3716 2.08341C11.5843 2.17911 11.7119 2.25886 11.7544 2.32797C11.8926 2.07279 12.0308 1.81228 12.1744 1.55178L12.1797 1.54647ZM20 10.0685C19.9468 10.1536 19.883 10.2812 19.798 10.446C19.7129 10.6108 19.6385 10.7437 19.5694 10.8341C19.3036 10.7065 19.0431 10.5842 18.7772 10.4619C18.7772 10.3078 18.8464 10.1376 18.9793 9.95157C19.0484 9.85588 19.1175 9.76018 19.1972 9.65917C19.4843 9.71233 19.7554 9.84525 20 10.0685ZM18.6709 10.3609L18.1978 11.1531C18.1021 11.0999 17.9851 11.0574 17.8469 11.0148C17.7087 10.9723 17.5917 10.9564 17.5066 10.9617C17.4641 10.8234 17.496 10.6746 17.597 10.5045C17.6502 10.4088 17.7512 10.2759 17.9054 10.0951C18.0436 10.127 18.1712 10.1695 18.2935 10.2174C18.4157 10.2652 18.5433 10.3131 18.6709 10.3662V10.3609ZM19.0909 6.60761C19.1069 6.5066 19.1175 6.43217 19.1175 6.38964C19.1175 6.21952 19.0005 5.86864 18.7613 5.34232C18.6603 5.11372 18.6071 4.9117 18.6071 4.74158C18.6071 4.66715 18.6071 4.60867 18.6178 4.57677C18.7347 4.66183 18.8304 4.67778 18.8995 4.62994C18.8304 4.43323 18.7347 4.24184 18.6071 4.05577C18.4795 3.8697 18.3519 3.68363 18.2243 3.49224C18.1287 3.56667 18.0383 3.7368 17.9426 3.99198C17.8841 4.15147 17.8416 4.26311 17.815 4.32159C17.9001 4.715 18.017 5.10308 18.1712 5.49649C18.2881 5.80484 18.4583 6.17167 18.6709 6.60761C18.655 6.79368 18.5114 6.95317 18.2509 7.08076C18.0223 7.17645 17.7937 7.26152 17.5598 7.34658C17.5066 7.14456 17.3897 6.94253 17.2036 6.74583C17.0654 6.60229 16.89 6.44812 16.6667 6.28863C16.4965 6.17167 16.2786 6.10787 16.0181 6.10787C15.8161 6.10787 15.6406 6.15572 15.4971 6.24609C15.3429 6.45875 15.2259 6.68203 15.1409 6.91063C15.0558 7.13924 15.0133 7.36784 15.0133 7.58581C15.0133 7.85163 15.0718 8.08554 15.194 8.29819C15.4226 8.45768 15.715 8.54275 16.0766 8.54275C16.47 8.50022 16.8581 8.45237 17.2515 8.40452V8.50553C16.6401 9.18602 16.05 9.7336 15.4758 10.1536C14.806 10.648 14.1148 11.0042 13.4078 11.2275C13.2802 11.2541 13.1526 11.2647 13.025 11.2647C12.8123 11.2647 12.6103 11.2275 12.4242 11.1477C12.2382 11.0733 12.0734 10.951 11.9405 10.7916C11.7969 10.5895 11.7225 10.3556 11.7225 10.0898C11.7225 9.88777 11.7863 9.60601 11.9139 9.24982C12.0734 8.80857 12.1637 8.54275 12.1797 8.45769C11.9139 8.97869 11.7438 9.33488 11.6693 9.53158C11.5098 9.94626 11.4248 10.3343 11.4248 10.6905C11.4248 11.0467 11.5205 11.4082 11.7172 11.7219C11.8448 11.8601 11.983 11.9611 12.1318 12.0303C12.2807 12.0994 12.4508 12.1472 12.6369 12.1844C13.0781 12.1844 13.5407 12.0834 14.0138 11.8761C14.4125 11.706 14.8219 11.4614 15.2366 11.1477C15.6087 10.8766 15.9809 10.5576 16.3477 10.1908C16.5922 9.94625 16.9272 9.57943 17.3418 9.09564L17.698 8.22908C17.7831 8.14402 17.9001 8.06428 18.0436 7.98453C18.118 7.95264 18.2562 7.88884 18.4583 7.80378C18.6603 7.71872 18.8091 7.54859 18.9102 7.29341C18.9421 7.20835 19.0058 6.97975 19.0909 6.60229V6.60761ZM7.83626 1.41356C7.84689 1.50925 7.83626 1.61558 7.79904 1.74317C7.76714 1.87076 7.71398 1.97709 7.65019 2.06747C7.58639 2.15784 7.49601 2.20037 7.37374 2.20037C7.34716 2.20037 7.30994 2.18974 7.25678 2.17379C7.18767 2.03025 7.15577 1.86545 7.15577 1.69001C7.15577 1.51457 7.19298 1.31255 7.27273 1.08927C7.31526 0.977623 7.395 0.796868 7.51728 0.541685C7.44285 0.855348 7.3631 1.16901 7.28868 1.47204C7.28868 1.62621 7.33652 1.76444 7.4269 1.89203C7.55449 1.87608 7.65019 1.80166 7.70866 1.67406C7.72461 1.60495 7.74056 1.54647 7.7512 1.50394C7.76183 1.45609 7.79373 1.4242 7.83626 1.40825V1.41356ZM9.6757 3.673C9.69165 3.77401 9.70228 3.83249 9.70228 3.85375C9.70228 3.94944 9.65975 3.99198 9.57469 3.99198C9.4471 3.9654 9.35141 3.95476 9.29293 3.95476C9.18129 3.95476 9.11217 4.02388 9.09091 4.15678C9.05901 4.24185 9.02711 4.43323 8.99521 4.73626C8.96332 5.03929 8.89952 5.24131 8.79851 5.34232C8.7294 5.24663 8.66029 5.12967 8.59649 4.98613C8.41574 4.58741 8.31473 4.36944 8.28814 4.33754C8.27219 4.3907 8.23498 4.4226 8.18182 4.43855C8.12865 4.4545 8.07017 4.44918 8.01169 4.42791C7.916 4.37475 7.87347 4.30033 7.87347 4.19932C7.87347 4.14084 7.88942 4.07172 7.92663 3.98666C7.95853 3.90691 7.9798 3.84844 7.99043 3.81654C8.02233 3.78464 8.06486 3.76337 8.11802 3.76337C8.14992 3.76337 8.19245 3.77401 8.23498 3.80059C8.33599 3.89629 8.42637 4.01856 8.5008 4.17273C8.61244 4.41728 8.72408 4.66183 8.83041 4.90107C8.87294 4.80537 8.91547 4.59803 8.96332 4.26842C9.01116 3.93881 9.13344 3.71553 9.32483 3.59857C9.49495 3.59857 9.61191 3.62515 9.68102 3.673H9.6757ZM14.0138 9.42525C13.9872 9.60601 13.966 9.72297 13.95 9.78145C13.9075 9.92499 13.8278 10.026 13.7055 10.0898C13.647 10.1057 13.5885 10.0845 13.5354 10.0207C13.4822 9.95689 13.4397 9.89309 13.4131 9.82398C13.3971 9.63791 13.429 9.44652 13.5088 9.25513C13.5885 9.06375 13.6736 8.87767 13.7586 8.70223C13.7586 8.7554 13.7267 8.86173 13.6576 9.03185C13.5885 9.20197 13.5566 9.3402 13.5566 9.44121C13.5566 9.59538 13.6364 9.69638 13.8012 9.74955C13.8331 9.72297 13.8703 9.67512 13.9075 9.60069C13.9447 9.52626 13.9819 9.4731 14.0138 9.43057V9.42525ZM5.20999 0.759656C5.18341 0.812819 5.12493 0.834084 5.02924 0.834084C4.87507 0.834084 4.77937 0.844713 4.74216 0.871294C4.70494 0.897876 4.67836 0.956353 4.6571 1.05205C4.6571 1.27533 4.63583 1.49862 4.5933 1.72722C4.58267 1.75912 4.53482 1.98241 4.43913 2.39176C4.35407 2.3067 4.22116 2.09405 4.04572 1.75381C3.96066 1.59432 3.87028 1.4614 3.7799 1.36039C3.76395 1.41356 3.73737 1.43482 3.70548 1.43482C3.58852 1.36571 3.49814 1.33382 3.43966 1.33382C3.3865 1.26471 3.36523 1.18496 3.36523 1.08927C3.36523 1.0042 3.37586 0.940411 3.39181 0.892564C3.40776 0.844717 3.43966 0.780916 3.48219 0.695855L3.5194 0.658645C3.70548 0.754338 3.89155 0.961676 4.08293 1.29129C4.26901 1.6209 4.41255 1.80165 4.50292 1.84418C4.50292 1.48799 4.52419 1.20091 4.57204 0.988254C4.61988 0.775601 4.72621 0.594847 4.89633 0.440673C4.98139 0.440673 5.06645 0.456623 5.1462 0.483205C5.22594 0.515103 5.26847 0.562949 5.26847 0.632061C5.26847 0.674592 5.25252 0.717125 5.21531 0.759656H5.20999ZM5.07177 2.91808C5.10367 2.94998 5.10898 3.01377 5.07709 3.09883C5.04519 3.1839 5.03456 3.23706 5.03456 3.26364C4.74747 3.29022 4.50292 3.3168 4.31154 3.35402C4.12015 3.38591 3.96066 3.48161 3.83307 3.63578C3.8756 3.84843 3.95003 4.12489 4.05104 4.46513C4.19458 4.9436 4.27964 5.22005 4.3009 5.29979C4.32217 5.37954 4.35407 5.50713 4.39128 5.67725C4.4285 5.84737 4.44976 6.02813 4.44976 6.2142C4.44976 6.48001 4.3966 6.75114 4.29559 7.03291C4.34875 6.85215 4.37002 6.68735 4.37002 6.53318C4.37002 6.3099 4.3328 6.08129 4.25306 5.84206C4.23711 5.78358 4.14673 5.56561 3.98724 5.19347C3.88623 4.96486 3.80649 4.75752 3.75864 4.58208C3.70548 4.40133 3.68421 4.21526 3.68421 4.01856C3.68421 3.88033 3.69484 3.76337 3.71611 3.66236C3.73737 3.56135 3.7799 3.4444 3.83838 3.3168C3.93939 3.20516 4.05104 3.13073 4.168 3.0882C4.28495 3.04567 4.45508 3.00845 4.66773 2.97124C4.57204 2.8596 4.46039 2.80643 4.32217 2.80643C4.25306 2.80643 4.17331 2.83833 4.07762 2.89681C4.01914 2.95529 3.98192 2.98187 3.97661 2.97124C3.99256 2.8277 4.02977 2.71075 4.08293 2.62037C4.1361 2.52999 4.22647 2.48214 4.34343 2.47151C4.48697 2.47151 4.61988 2.51404 4.73684 2.59379C4.8538 2.67353 4.96544 2.78517 5.06645 2.91808H5.07177ZM13.9394 7.00101C13.9394 7.24025 13.8703 7.45821 13.7374 7.66555C13.5991 7.86757 13.4078 8.02706 13.1632 8.13339C12.9187 8.23972 12.6263 8.29288 12.2966 8.29288C11.8873 8.29288 11.5364 8.20781 11.2387 8.03769C11.2068 7.99516 11.1483 7.93137 11.0739 7.84631C10.9995 7.76125 10.9516 7.69214 10.9357 7.64429C10.8666 7.80378 10.7921 7.96858 10.7124 8.13339C10.6326 8.2982 10.5104 8.41516 10.3562 8.48427C10.1967 8.55338 10.0266 8.58528 9.84051 8.58528C9.65444 8.58528 9.46305 8.53211 9.29293 8.4311C9.20787 8.39921 9.14407 8.32477 9.10686 8.21313C9.06964 8.10149 9.03775 7.99517 9.01116 7.89416C8.7294 8.24503 8.37852 8.41515 7.95322 8.41515C7.86815 8.41515 7.80436 8.41515 7.76183 8.40452C7.63424 8.78729 7.50664 9.16475 7.37905 9.54221C7.19298 9.96752 6.91122 10.2652 6.53907 10.4354C5.78416 10.8872 5.1462 11.2222 4.6252 11.4455C3.84902 11.7751 3.15258 11.9452 2.53057 11.9452C2.17969 11.9452 1.8554 11.9027 1.55237 11.8123C1.24934 11.7219 0.946305 11.573 0.637958 11.3604C0.425306 11.1743 0.265816 10.9564 0.159489 10.7171C0.0531631 10.4726 0 10.2068 0 9.91967V9.75487C0.015949 9.66981 0.0265815 9.61133 0.0265815 9.57412C0.127592 8.7554 0.393408 8.00048 0.818713 7.30405C0.717703 7.61239 0.616693 7.9101 0.510367 8.20782C0.393408 8.60654 0.329612 8.94679 0.329612 9.22855C0.329612 9.62728 0.441254 9.96752 0.669856 10.244C0.893142 10.5204 1.16959 10.7171 1.48857 10.8394C1.80755 10.9564 2.16374 11.0201 2.55183 11.0201C2.89208 11.0201 3.22701 10.9829 3.56193 10.9138C3.89155 10.8394 4.21584 10.7437 4.5295 10.6267C5.24189 10.3131 5.72568 10.0898 5.97023 9.96221C6.48059 9.69107 6.92185 9.37741 7.29931 9.0159C7.29931 8.83515 7.23551 8.57464 7.10792 8.22377C6.98033 7.87289 6.9059 7.62834 6.88995 7.4848L7.23551 6.68204C7.26741 6.87874 7.32589 7.04886 7.40563 7.1924C7.48538 7.33594 7.60766 7.43695 7.76714 7.4848C7.82031 7.50075 7.87347 7.5167 7.93195 7.52202C7.99043 7.53265 8.04891 7.53264 8.09676 7.53264C8.36789 7.53264 8.64965 7.421 8.93674 7.20303C9.0218 7.14455 9.17597 7.01164 9.39394 6.80962C9.36204 6.96911 9.33014 7.1286 9.30356 7.28278C9.30356 7.39442 9.32483 7.46885 9.36736 7.51138C9.40989 7.55391 9.479 7.58581 9.56938 7.61239C9.66507 7.67087 9.78203 7.70277 9.92557 7.70277C10.0106 7.70277 10.0957 7.69213 10.1808 7.66555C10.2658 7.63897 10.3615 7.60175 10.4678 7.54859C10.5742 7.49543 10.6699 7.39442 10.7549 7.24024C10.9569 6.85747 11.0845 6.65014 11.1377 6.61292C11.1111 6.66609 11.1005 6.71393 11.1005 6.76709C11.1005 6.85215 11.1377 6.93722 11.2174 7.02228C11.2706 7.07544 11.345 7.13392 11.446 7.20303C11.6853 7.31999 11.9617 7.38379 12.2754 7.38379C12.8389 7.38379 13.3014 7.20835 13.6683 6.86279C13.3014 6.16635 13.0675 5.70383 12.9665 5.46992C12.7273 4.95955 12.5571 4.46513 12.4561 3.99198C12.3817 3.89629 12.3392 3.80059 12.3392 3.69958C12.3392 3.59857 12.3711 3.48161 12.4349 3.3487C12.4987 3.21579 12.5625 3.0882 12.6209 2.96061C12.7645 3.05631 12.908 3.21579 13.0569 3.44439C13.1579 3.63046 13.2642 3.81654 13.3759 3.99198C13.3333 4.04514 13.2642 4.07703 13.1632 4.09298C13.0675 4.10893 13.0144 4.14083 13.0144 4.18336C13.0144 4.20994 13.0356 4.26311 13.0781 4.34817C13.0781 4.35881 13.3068 4.80537 13.7693 5.69851C13.9288 6.01218 14.0138 6.29926 14.0138 6.55444C14.0138 6.69267 13.9872 6.84152 13.9394 7.01165V7.00101ZM10.6752 9.80803C10.6752 9.80803 10.6007 9.89309 10.5263 10.0366C10.4519 10.1802 10.3562 10.2227 10.2392 10.1642V9.87183C10.1967 9.90373 10.1595 9.96752 10.1223 10.0526C10.0532 10.2333 9.99468 10.3397 9.94152 10.3716C9.88836 10.4035 9.84051 10.4247 9.78735 10.4247C9.63317 10.4247 9.5109 10.3609 9.4152 10.2333C9.16002 10.2599 8.8942 10.3503 8.62307 10.4992C8.42637 10.6161 8.19245 10.7862 7.92132 10.9989C7.56512 11.286 7.33121 11.472 7.21956 11.5465C6.94843 11.7432 6.69856 11.8761 6.46465 11.9558C6.7092 11.9558 6.96438 11.8867 7.21956 11.7538C7.38969 11.6581 7.61297 11.5146 7.8841 11.3179C8.25625 11.0467 8.48485 10.8872 8.55928 10.8447C8.80383 10.6905 9.04306 10.5895 9.27166 10.5364C9.34609 10.6799 9.45242 10.7543 9.58001 10.7543C9.64912 10.7543 9.76077 10.7118 9.92557 10.6321C10.0851 10.5523 10.202 10.5098 10.2711 10.5098C10.4147 10.4673 10.5157 10.3662 10.5795 10.2014C10.5795 10.1908 10.6114 10.0632 10.6699 9.80803H10.6752ZM5.44391 7.81973C5.41201 7.89416 5.38012 7.96326 5.35885 8.02174C5.33759 8.08022 5.30569 8.11744 5.26316 8.1387C5.13557 8.05364 5.07177 7.93669 5.07177 7.79315C5.07177 7.72403 5.09304 7.61239 5.13025 7.46354C5.16746 7.31468 5.18341 7.20303 5.17278 7.14455C5.10367 7.31468 5.0505 7.46885 5.01329 7.60176C4.97608 7.73467 4.95481 7.8782 4.95481 8.02174C4.95481 8.1068 4.96013 8.18124 4.97608 8.24504C4.98671 8.30883 5.02924 8.36731 5.10367 8.42579C5.1781 8.47895 5.24721 8.48427 5.31632 8.4311C5.3748 8.28756 5.41733 8.16529 5.44391 8.07491C5.47049 7.97922 5.47049 7.89416 5.44391 7.81973ZM1.81818 5.93243C1.7597 5.94838 1.69591 6.00686 1.63211 6.10255C1.56831 6.19825 1.51515 6.26204 1.4673 6.28863C1.41946 6.31521 1.38224 6.32584 1.34503 6.32584C1.24402 6.32584 1.14301 6.26736 1.03668 6.14508C0.935672 5.86332 0.882509 5.58687 0.882509 5.31574C0.882509 4.9436 0.962254 4.52892 1.12706 4.07703C1.28655 3.62515 1.44604 3.19453 1.60021 2.79049C1.24934 3.44439 1.0101 3.95476 0.871877 4.32159C0.643275 4.92765 0.526316 5.47523 0.526316 5.96964C0.526316 6.27799 0.568846 6.57571 0.653907 6.86279C0.685805 6.97443 0.749601 7.05417 0.839979 7.10734C0.930356 7.1605 1.03668 7.19771 1.16427 7.2243C1.40883 7.15518 1.57363 6.97975 1.64806 6.68735C1.69059 6.52786 1.74375 6.27268 1.81287 5.93243H1.81818ZM2.96651 7.85694C2.93461 7.89947 2.89739 7.96327 2.8655 8.05365C2.8336 8.14403 2.79638 8.20782 2.76449 8.25035C2.66879 8.18124 2.62626 8.09618 2.62626 7.99517C2.62626 7.95264 2.64753 7.85694 2.69537 7.70808C2.74322 7.55923 2.76449 7.44758 2.76449 7.36784C2.65284 7.62302 2.59968 7.75593 2.59968 7.76125C2.5412 7.92074 2.5093 8.06428 2.5093 8.18124C2.5093 8.32478 2.5412 8.44705 2.61031 8.55338C2.69537 8.58527 2.78044 8.55338 2.8655 8.45237C2.90803 8.35136 2.93993 8.2663 2.96119 8.20251C2.98246 8.13871 2.99309 8.07491 2.99309 8.0058C2.99309 7.93668 2.98246 7.88884 2.96651 7.85163V7.85694ZM18.0861 0.913826V0.759656C18.0861 0.621432 18.0223 0.557633 17.8947 0.557633C17.7937 0.557633 17.7246 0.600167 17.6927 0.685228C17.7246 0.727758 17.7937 0.770287 17.8894 0.807501C17.9851 0.844715 18.0542 0.881928 18.0861 0.913826ZM14.1946 0.695855V0.515102C14.1946 0.414092 14.1361 0.360932 14.0138 0.360932C13.9181 0.360932 13.8756 0.403457 13.8756 0.488518C13.9713 0.642692 14.0776 0.711806 14.1946 0.690541V0.695855ZM16.773 7.53264C16.6879 7.54859 16.5922 7.56454 16.4912 7.58581C16.3902 7.60176 16.2945 7.61239 16.2095 7.61239C16.0553 7.61239 15.9171 7.59644 15.7948 7.55923C15.6725 7.52733 15.5609 7.46353 15.4705 7.36784C15.412 7.29341 15.4067 7.21898 15.4599 7.14987C15.513 7.06481 15.6034 7.02228 15.7416 7.02228C15.8161 7.02228 15.9277 7.03292 16.0712 7.04886C16.3158 7.16582 16.5497 7.33062 16.773 7.53264Z" fill="white"/>
</svg>
