<svg width="20" height="9" viewBox="0 0 20 9" fill="none" xmlns="http://www.w3.org/2000/svg">
<path fill-rule="evenodd" clip-rule="evenodd" d="M19.978 1.90702C19.9671 1.85578 19.9341 1.79355 19.8829 1.72401C19.8023 1.61786 19.7548 1.55563 19.7438 1.54099C19.7072 1.6508 19.6852 1.76794 19.6742 1.88873C19.6632 2.00952 19.6559 2.13762 19.6559 2.28037C19.6559 2.44509 19.6852 2.81844 19.7438 3.40409C19.7731 3.69692 19.7877 3.93119 19.7877 4.10688C19.806 4.2716 19.8206 4.43997 19.8316 4.61201C19.8426 4.78404 19.8499 4.95974 19.8499 5.13543C19.8499 5.46852 19.828 5.77598 19.784 6.05416C19.7401 6.33235 19.6669 6.60321 19.5608 6.86676C19.5791 6.61053 19.5864 6.36164 19.5864 6.12738C19.5864 5.78697 19.5864 5.5161 19.5791 5.31478C19.5717 5.11347 19.5681 4.91947 19.5608 4.74011L19.2094 0.962666C19.1618 0.896781 19.1398 0.838211 19.1398 0.786967C19.1398 0.721081 19.1618 0.65154 19.202 0.574673C19.3265 0.347733 19.3851 0.226939 19.3851 0.215958C19.5132 0.46852 19.6413 0.721081 19.7731 0.969983C19.9268 1.29941 20 1.56296 20 1.76061C20 1.7899 19.9927 1.84114 19.9817 1.91069L19.978 1.90702ZM18.459 1.74963C18.4004 1.73865 18.3346 1.68008 18.2577 1.57393C18.2211 1.52635 18.1881 1.47876 18.1515 1.42386C18.1515 1.73865 18.1991 2.26208 18.2906 2.98682C18.3858 3.71157 18.4297 4.26061 18.4297 4.6303V5.02561C18.4114 5.13176 18.4004 5.20864 18.3931 5.25256C18.3419 5.6552 18.2321 6.00292 18.0674 6.28843C17.8807 6.61786 17.6061 6.89604 17.2511 7.12298C16.7057 7.24011 16.164 7.36091 15.6259 7.4817C15.7833 7.37189 16.1054 7.19619 16.5922 6.95461C17.0205 6.73865 17.3426 6.54465 17.5586 6.37627C17.8807 6.12005 18.1076 5.81624 18.2357 5.47217C18.1772 4.95241 18.1223 4.42899 18.0674 3.90922C17.9978 3.30527 17.9283 2.78185 17.8551 2.33529C17.7672 1.7899 17.6647 1.28111 17.5476 0.805264C17.6061 0.669832 17.6464 0.571012 17.672 0.505126C17.7233 0.380675 17.7818 0.292827 17.8477 0.241583C17.9649 0.486824 18.082 0.732062 18.1991 0.969983C18.3163 1.23353 18.4004 1.48974 18.4553 1.74231L18.459 1.74963ZM17.9136 5.73938C17.9319 5.65885 17.9429 5.57466 17.9502 5.49414C17.9575 5.41361 17.9575 5.33674 17.9575 5.2672C17.9575 4.78037 17.7818 4.28623 17.4305 3.78111C17.284 3.56881 16.918 3.14422 16.3324 2.50732C15.8565 1.99122 15.5381 1.55563 15.3734 1.19692C15.4026 1.16032 15.4575 1.16764 15.5344 1.21157C15.6113 1.25549 15.6698 1.25549 15.7064 1.21523C15.6113 1.07614 15.4539 0.915076 15.2306 0.739381C14.9378 0.4978 14.7694 0.362366 14.7291 0.325763C14.6706 0.490477 14.6413 0.647878 14.6413 0.801611C14.6413 0.907761 14.6559 1.00292 14.6852 1.09077C14.7145 1.17862 14.7657 1.25915 14.8353 1.3287C15.0476 1.74964 15.4283 2.26207 15.9773 2.86603C16.6508 3.60541 17.0717 4.09589 17.2438 4.34114C17.6428 4.91947 17.8404 5.48316 17.8404 6.02855C17.8697 6.00659 17.888 5.95534 17.8917 5.87848C17.899 5.80161 17.9026 5.75402 17.91 5.73938H17.9136ZM13.4956 0.757689C13.4956 1.01391 13.3712 1.21888 13.1259 1.36529C13.0893 1.39458 13.0307 1.40923 12.9502 1.40923C12.91 1.40923 12.866 1.4019 12.8184 1.39092C12.8001 1.32137 12.7928 1.24816 12.7928 1.1713C12.7928 0.98828 12.8441 0.786961 12.9502 0.563682C12.9868 0.486815 13.0893 0.300146 13.265 0C13.1662 0.204978 13.0966 0.358712 13.0527 0.45754C12.9722 0.644217 12.9283 0.801606 12.9283 0.933378C12.9283 1.03221 12.9429 1.1164 12.9722 1.17862C13.1113 1.17862 13.243 1.12005 13.3602 1.00292C13.3492 0.962661 13.287 0.889452 13.1772 0.783303C13.1259 0.732059 13.0966 0.688136 13.0966 0.658853C13.0966 0.611269 13.1223 0.563683 13.1772 0.519759C13.2284 0.519759 13.2833 0.54173 13.3382 0.585654C13.3931 0.629578 13.4444 0.688143 13.4919 0.757689H13.4956ZM15.0769 2.79648C15.0988 2.83674 15.0988 2.89166 15.0769 2.95388C15.0549 3.01977 15.0329 3.07833 15.0146 3.1369C14.9927 3.15886 14.9671 3.18082 14.9451 3.19912C14.8939 3.23938 14.8426 3.25769 14.795 3.25037C14.7072 3.14422 14.6633 3.01244 14.6633 2.85505C14.6633 2.73792 14.6816 2.61713 14.7145 2.49634C14.7255 2.44876 14.7657 2.33895 14.8389 2.16325C14.8389 2.21084 14.828 2.29502 14.8023 2.41947C14.7804 2.54392 14.7657 2.63909 14.7657 2.70864C14.7657 2.84407 14.8023 2.95021 14.8719 3.02342C14.9305 3.02342 14.9744 2.99048 15.0037 2.92093C15.0329 2.85504 15.0549 2.81113 15.0732 2.79283L15.0769 2.79648ZM14.0666 2.03147C14.03 2.1303 13.9861 2.22181 13.9312 2.30233C13.8763 2.38286 13.7994 2.48535 13.7079 2.60248C13.6859 2.51464 13.5835 2.43411 13.4078 2.35725C13.2321 2.28038 13.1625 2.18887 13.1955 2.0754C13.2357 2.05343 13.2943 1.97657 13.3675 1.84846C13.4407 1.72035 13.5029 1.65446 13.5578 1.65446C13.6054 1.65446 13.6603 1.68741 13.7262 1.74963C13.8141 1.79722 13.8799 1.83016 13.9202 1.85579C14.0007 1.90337 14.052 1.96193 14.0703 2.03147H14.0666ZM18.7042 7.14494C18.6457 7.17423 18.5944 7.19619 18.5505 7.21083C18.5066 7.22547 18.4627 7.23279 18.4151 7.23279C18.3199 7.23279 18.2394 7.19619 18.1698 7.12665C18.1479 7.10835 18.1259 7.09004 18.1113 7.06808C18.0966 7.04612 18.0893 7.02782 18.0893 7.00951C18.0893 6.99121 18.1113 6.97291 18.1515 6.95826C18.2394 6.96924 18.298 7.00952 18.3272 7.07174C18.4078 7.02416 18.459 6.95461 18.4773 6.85944C18.437 6.79355 18.3821 6.76427 18.3089 6.76427C18.2357 6.76427 18.1698 6.79355 18.104 6.84846C18.0381 6.90336 17.9868 6.96559 17.9575 7.02781C17.9283 7.06807 17.9136 7.10834 17.9136 7.14128C17.9136 7.19252 17.9319 7.24377 17.9649 7.29135C18.0015 7.33894 18.0417 7.3792 18.0893 7.4158C18.082 7.42313 18.06 7.44875 18.0234 7.49633C17.9868 7.54392 17.9685 7.58785 17.9758 7.62811C18.1515 7.54026 18.3272 7.45607 18.5029 7.37188C18.6127 7.31332 18.6823 7.23645 18.7042 7.14494ZM18.8177 7.51464C18.7665 7.60249 18.6786 7.68667 18.5542 7.77086C18.5139 7.79282 18.3529 7.86969 18.071 7.99781C17.9758 8.03807 17.8807 8.09297 17.7818 8.1552C17.8294 8.06003 17.8917 7.98316 17.9649 7.92093C18.0417 7.85871 18.1406 7.8038 18.265 7.7489C18.6091 7.60248 18.7958 7.52196 18.8177 7.51098V7.51464ZM12.4305 2.81479C12.4414 2.87335 12.4414 2.93192 12.4268 2.98682C12.4122 3.04173 12.3682 3.13323 12.2987 3.25402C12.2694 3.29062 12.2328 3.30527 12.1925 3.30527C12.1706 3.30527 12.134 3.29429 12.0864 3.26866C12.0095 3.1735 11.9729 3.06369 11.9729 2.93557C11.9729 2.82942 12.0022 2.70863 12.0608 2.56954C12.1193 2.43045 12.1779 2.30234 12.2365 2.17788C12.2365 2.21449 12.1999 2.33528 12.1303 2.54758C12.0937 2.65373 12.0791 2.73426 12.0791 2.79283C12.0791 2.91728 12.1449 3.00513 12.2804 3.05637C12.328 2.97584 12.3755 2.89165 12.4305 2.81112V2.81479ZM9.7511 1.58491C9.69253 1.71303 9.63763 1.84114 9.58272 1.97291C9.65959 1.82649 9.69619 1.65447 9.69619 1.45315C9.69619 1.28843 9.67057 1.12737 9.62299 0.966319C9.57174 0.805265 9.5022 0.651539 9.40703 0.505126L9.5022 0.285505C9.70717 0.556368 9.80966 0.856515 9.80966 1.1896C9.80966 1.3287 9.7877 1.46046 9.74744 1.58491H9.7511ZM16.8302 4.80966C15.7687 4.50585 14.7108 4.20204 13.6493 3.89458C13.5798 3.8836 13.4736 3.87628 13.3346 3.87628C13.1113 3.87628 12.8953 3.91288 12.6794 3.98608C12.4671 4.05929 12.2548 4.17643 12.0498 4.33382C11.951 4.50952 11.8741 4.69253 11.8155 4.8792C11.7606 5.06588 11.7313 5.25256 11.7313 5.4429C11.7313 5.65886 11.7753 5.86017 11.8631 6.05051C11.7094 5.99927 11.5776 5.89311 11.4678 5.73572C11.3873 5.61859 11.3141 5.46851 11.2482 5.28916C11.153 4.33381 11.1018 3.78843 11.0908 3.64568C11.0395 3.10029 10.9883 2.55491 10.9407 2.0022C10.8748 1.36896 10.8163 0.834548 10.765 0.39531C10.6698 0.523421 10.604 0.658851 10.5673 0.805264C10.5307 0.948017 10.5088 1.10907 10.5088 1.28477C10.5088 1.44216 10.5637 1.83748 10.6772 2.47072C10.7247 2.73426 10.7467 2.9612 10.7467 3.14788C10.7394 3.19546 10.7394 3.26866 10.7394 3.36749C10.7394 3.46632 10.754 3.67862 10.787 4.00439C10.8199 4.33016 10.8346 4.5571 10.8346 4.68521C10.8346 4.88286 10.8089 5.06955 10.7613 5.24158C10.7101 5.41362 10.6259 5.56369 10.5015 5.69546L10.5198 5.0549C10.5198 4.60834 10.3514 4.14714 10.0183 3.66764C9.86457 3.44436 9.5205 3.04172 8.98243 2.45607C8.53221 1.96559 8.22474 1.54831 8.06003 1.2079L8.48097 1.33968C8.16984 0.966326 7.81845 0.629569 7.42679 0.336743C7.34627 0.475836 7.30234 0.622257 7.30234 0.76867C7.30234 0.991949 7.44876 1.30307 7.74158 1.69838C7.90996 1.92532 8.02709 2.10469 8.09297 2.2328C8.25037 2.50366 8.55051 2.86603 8.98975 3.32357C9.45095 3.81039 9.76574 4.17277 9.93045 4.41435C10.216 4.83528 10.3624 5.25256 10.3624 5.66252C10.3624 5.72108 10.3551 5.8016 10.3441 5.90775C10.0439 6.24816 9.66325 6.56295 9.19473 6.85578C8.77379 7.09736 8.35285 7.33895 7.93924 7.58419C7.9978 7.58419 8.23938 7.51098 8.66032 7.36457C8.8287 7.306 8.98975 7.27672 9.13616 7.27672C9.55344 7.19985 9.93411 6.98023 10.2782 6.61786C10.582 6.30307 10.8126 5.92972 10.9736 5.50146C11.0615 5.84187 11.1201 6.0505 11.1493 6.13469C11.2372 6.35797 11.369 6.53367 11.5447 6.66178C11.5739 6.68374 11.6984 6.724 11.9217 6.77525C12.0681 6.81185 12.1486 6.8814 12.1596 6.98755C12.1779 6.97657 12.1852 6.95095 12.1852 6.90703C12.1852 6.87042 12.1925 6.8448 12.2035 6.8265C12.672 6.8265 13.1881 6.70204 13.7482 6.4568C14.2167 6.23352 14.6852 6.01024 15.1537 5.77964C15.7028 5.53806 16.2152 5.42094 16.6837 5.42094L16.8338 4.81332L16.8302 4.80966ZM14.5278 7.75988C14.1874 8.0893 13.7848 8.25036 13.3163 8.25036C13.2211 8.25036 13.1479 8.25036 13.0966 8.24304C13.0454 8.23572 12.9722 8.22108 12.877 8.1918C12.8111 8.14056 12.7745 8.10029 12.7599 8.07467C12.7452 8.04905 12.7379 8.0161 12.7379 7.97218C12.7379 7.93558 12.7452 7.90995 12.7562 7.89165C12.8221 7.79648 12.8917 7.71596 12.9722 7.65007C13.0527 7.58418 13.1479 7.5183 13.265 7.45241C13.1881 7.39384 13.104 7.36457 13.0088 7.36457C12.9612 7.36457 12.9283 7.37188 12.9136 7.38286L12.877 7.40117L12.8514 7.38286C12.8734 7.31332 12.9136 7.26207 12.9685 7.23279C13.0234 7.20351 13.0857 7.18887 13.1589 7.18887C13.2394 7.18887 13.3199 7.20351 13.3968 7.23279C13.4627 7.27305 13.4919 7.29868 13.4919 7.30234C13.5029 7.42679 13.4114 7.5366 13.2138 7.63909C13.0161 7.74158 12.9209 7.81112 12.9209 7.84407C12.9209 7.89531 12.9941 7.9612 13.1406 8.03806C13.2394 8.05637 13.3346 8.06369 13.4224 8.06369C13.5981 8.06369 13.7884 8.03074 13.9934 7.96852C14.0593 7.95021 14.235 7.88067 14.5278 7.75622V7.75988ZM6.48243 0.724737C6.45315 0.801603 6.42753 0.878479 6.4019 0.951686L6.22621 0.775986C6.16764 0.856514 6.13104 1.02122 6.11274 1.2628C6.09444 1.50439 6.04685 1.66911 5.96266 1.74963C5.9224 1.71303 5.85285 1.56661 5.75037 1.31039C5.68082 1.12737 5.56369 1.05417 5.39898 1.08345C5.36237 1.06149 5.33675 1.02488 5.31479 0.9773C5.29283 0.929716 5.29649 0.885797 5.31845 0.845533C5.32577 0.838213 5.34041 0.801603 5.36237 0.735717C5.38433 0.669831 5.42094 0.625916 5.46852 0.607615C5.59663 0.644218 5.69546 0.746706 5.76867 0.91508C5.8675 1.15666 5.93338 1.2921 5.96266 1.3287C6.00293 1.07614 6.04319 0.882133 6.07979 0.750362C6.1164 0.61493 6.1713 0.549048 6.24085 0.549048C6.27745 0.549048 6.3104 0.560031 6.347 0.585654C6.3836 0.607616 6.42753 0.65519 6.47877 0.724737H6.48243ZM6.24451 2.99048C6.26281 3.02708 6.27013 3.06003 6.27013 3.09663C6.27013 3.13689 6.25549 3.18814 6.22621 3.2467C6.19693 3.30527 6.17496 3.35285 6.15666 3.3858C6.13836 3.4224 6.10908 3.43704 6.06881 3.43704C6.04685 3.43704 6.01025 3.42605 5.96266 3.40043C5.8858 3.3016 5.84919 3.18082 5.84919 3.04173C5.84919 2.93558 5.87482 2.81478 5.92972 2.67203C5.95168 2.60248 6.00293 2.48901 6.07979 2.33894C6.04319 2.45607 6.02123 2.54392 6.01025 2.60248C5.98097 2.71961 5.96632 2.81479 5.96632 2.89165C5.96632 3.02708 6.01025 3.12957 6.0981 3.19912C6.13836 3.18814 6.16764 3.15153 6.18594 3.09297C6.20425 3.0344 6.22255 2.9978 6.24817 2.98682L6.24451 2.99048ZM4.90117 1.29575C4.77672 1.60687 4.60835 1.8631 4.39239 2.06808C4.13616 2.30966 3.85432 2.4268 3.55051 2.4268L3.53221 2.40849C3.80307 2.22181 4.07028 2.03513 4.34114 1.84479C4.20205 1.80819 4.041 1.79356 3.85798 1.79356C3.71889 1.79356 3.58712 1.8082 3.46999 1.84114C3.35285 1.87408 3.25037 1.92899 3.16252 2.0022C3.2101 1.83748 3.28331 1.68741 3.3858 1.55564C3.48829 1.4202 3.6164 1.33236 3.76647 1.29209C3.97145 1.26281 4.15813 1.24817 4.33016 1.24817C4.39971 1.24817 4.46925 1.24816 4.53148 1.25182C4.59736 1.25182 4.71815 1.26647 4.90117 1.29209V1.29575ZM2.66105 1.21523C2.64275 1.32504 2.62079 1.41654 2.59151 1.48243C2.56223 1.54831 2.51098 1.59956 2.43411 1.63616C2.38653 1.64348 2.33895 1.62885 2.29502 1.59224C2.24744 1.55564 2.22182 1.51903 2.21083 1.48243C2.19985 1.44582 2.19619 1.39458 2.19619 1.33602C2.19619 1.21156 2.22914 1.07979 2.29136 0.933378C2.30966 0.893114 2.37189 0.772331 2.48536 0.574673C2.48536 0.625918 2.44876 0.746701 2.37189 0.933378C2.33163 1.03221 2.30966 1.10907 2.30966 1.16032C2.30966 1.24816 2.34993 1.3287 2.43411 1.40556C2.48536 1.41288 2.52562 1.37994 2.54758 1.31405C2.56955 1.24817 2.60981 1.21157 2.66105 1.21157V1.21523ZM9.33016 4.46559C9.24963 4.75841 9.15813 4.98535 9.0593 5.14275C8.92021 5.36969 8.74085 5.5344 8.52489 5.63323C8.16618 5.75768 7.78551 5.85286 7.38287 5.92606C6.98023 5.99927 6.58858 6.03587 6.21523 6.03587C6.0981 6.03587 5.97731 6.03587 5.85652 6.02855C5.73206 6.02123 5.61493 6.01025 5.4978 5.99195C5.30015 6.36164 5.13543 6.6325 5.01098 6.80454C4.88653 6.97657 4.73646 7.10469 4.56808 7.18521C4.12884 7.47804 3.69693 7.70497 3.27599 7.86236C2.78551 8.04904 2.30966 8.14422 1.85212 8.14422C1.62884 8.14422 1.4202 8.12226 1.22255 8.07833C1.02489 8.03441 0.834553 7.96485 0.647877 7.87334C0.424597 7.74523 0.259883 7.56588 0.157394 7.33894C0.0512445 7.112 0 6.84846 0 6.55564C0 6.21523 0.102489 5.83089 0.307467 5.40629C0.413616 5.19033 0.519766 4.97437 0.633236 4.75475C0.56735 4.65959 0.523426 4.55343 0.494143 4.43264C0.464861 4.31185 0.45022 4.19106 0.45022 4.06661C0.45022 3.8836 0.472182 3.7079 0.512445 3.53953C0.530747 3.46266 0.622255 3.18082 0.79429 2.69766C0.933382 2.39385 1.03953 2.16325 1.10908 2.01318C1.23719 1.73865 1.35798 1.51537 1.46779 1.347C1.43851 1.45315 1.29209 1.80819 1.02855 2.40849C0.841874 2.8404 0.746706 3.20644 0.746706 3.49927C0.746706 3.60908 0.754026 3.70424 0.765007 3.78477C0.775988 3.8653 0.801611 3.96047 0.845534 4.07028C0.893119 4.12152 0.944363 4.16545 1.00293 4.19839C1.06149 4.23133 1.1164 4.23865 1.1713 4.22035C1.23719 4.19839 1.29941 4.11786 1.3653 3.98243C1.4019 3.91289 1.44217 3.86164 1.48975 3.83236C1.4202 4.18375 1.35798 4.41435 1.30673 4.52782C1.23719 4.66691 1.13836 4.78404 1.01757 4.87189C0.988287 4.89019 0.951684 4.89751 0.91142 4.89751C0.863836 4.89751 0.827233 4.88286 0.79795 4.85358C0.603953 5.16837 0.475842 5.42826 0.409956 5.62591C0.34407 5.82357 0.314788 6.01391 0.314788 6.18961C0.314788 6.31772 0.329429 6.4385 0.362372 6.54831C0.395315 6.65812 0.45022 6.77159 0.523426 6.8814C0.68082 7.10468 0.882138 7.26208 1.12006 7.35725C1.36164 7.45242 1.62518 7.49633 1.91069 7.49633C2.00952 7.49633 2.11933 7.49268 2.24012 7.4817C2.36091 7.47438 2.49268 7.45607 2.63909 7.43411C3.11493 7.33528 3.56149 7.17788 3.98243 6.96924C4.40337 6.76061 4.77672 6.49341 5.09883 6.1713L4.79868 4.97804L5.09883 4.51317C5.15739 4.68155 5.20498 4.80966 5.24524 4.89385C5.28184 4.97804 5.33309 5.05124 5.39898 5.10981C5.73206 4.77672 6.06515 4.44363 6.4019 4.10688C6.81918 3.73719 7.21815 3.55417 7.60615 3.55417C7.7306 3.55417 7.86237 3.57248 8.00146 3.60542C8.33455 3.73353 8.57979 3.84699 8.74085 3.9385C8.99707 4.08491 9.20205 4.26061 9.34846 4.46559H9.33016ZM6.8448 7.48902C6.81552 7.5 6.78624 7.54026 6.76061 7.60248C6.73499 7.66471 6.71669 7.70863 6.70205 7.72693C6.64348 7.69033 6.60322 7.65007 6.58492 7.60248C6.56296 7.5549 6.55564 7.50366 6.55564 7.44509C6.55564 7.37921 6.58126 7.27306 6.62884 7.12298C6.68009 6.97291 6.70205 6.86676 6.70205 6.80087C6.62152 6.97657 6.56296 7.11932 6.52635 7.23279C6.47511 7.40116 6.44583 7.56222 6.44583 7.70864C6.45681 7.75622 6.47511 7.80746 6.50439 7.86603C6.53001 7.92459 6.5776 7.9612 6.65081 7.97218C6.72035 7.93192 6.7716 7.88067 6.80088 7.81844C6.83016 7.75622 6.8448 7.64641 6.8448 7.48902ZM4.05198 5.28551L3.95681 5.45388C3.90922 5.41361 3.87994 5.37335 3.8653 5.34041C3.85066 5.3038 3.84334 5.25256 3.84334 5.18302C3.84334 5.13177 3.85798 5.04026 3.8836 4.91215C3.90922 4.78403 3.92387 4.69985 3.92387 4.65593C3.9019 4.7145 3.86164 4.81698 3.8104 4.95973C3.75915 5.10248 3.72987 5.22327 3.72987 5.32576C3.72987 5.44289 3.76281 5.55271 3.82504 5.65154C3.8653 5.66984 3.9019 5.68448 3.93119 5.69546C3.96047 5.70644 3.98243 5.70277 3.99341 5.67715C4.04466 5.60761 4.07394 5.5161 4.07394 5.40629C4.07394 5.36603 4.06662 5.32577 4.05564 5.29282L4.05198 5.28551ZM3.48097 3.52854C3.45168 3.51756 3.40776 3.49194 3.34919 3.459C3.30161 3.4407 3.25403 3.43704 3.2101 3.45168C3.07101 3.57613 2.98316 3.78111 2.95388 4.07394C2.94656 4.16911 2.93558 4.3082 2.91728 4.49487C2.86603 4.44363 2.77818 4.27526 2.66105 3.99341C2.57321 3.78111 2.45242 3.64934 2.30234 3.59077C2.28038 3.59077 2.25476 3.61639 2.2328 3.66397C2.21083 3.71522 2.19253 3.75915 2.18155 3.79942C2.17057 3.83968 2.16325 3.88725 2.16325 3.9385C2.16325 4.00804 2.19985 4.06296 2.2694 4.10688C2.45242 4.07028 2.59883 4.20205 2.71596 4.49487C2.78551 4.67789 2.85505 4.79501 2.91728 4.85358C2.93558 4.81332 2.97218 4.56808 3.03075 4.1142C3.05271 3.93118 3.09663 3.79575 3.16252 3.70058C3.19912 3.70058 3.23938 3.7079 3.28697 3.72254C3.33455 3.73718 3.37848 3.75183 3.41874 3.76281C3.42972 3.74085 3.44802 3.70059 3.46999 3.64934C3.49195 3.5981 3.49561 3.55417 3.47731 3.52489L3.48097 3.52854ZM1.99488 5.73207C1.96559 5.73207 1.94363 5.75402 1.92533 5.79428C1.90703 5.83455 1.87775 5.84919 1.83748 5.83821C1.7716 5.77964 1.74231 5.71376 1.74231 5.64421C1.74231 5.59663 1.75695 5.53074 1.78624 5.4429C1.81552 5.35505 1.83016 5.28916 1.83016 5.2489C1.76061 5.31479 1.70937 5.39531 1.68009 5.49048C1.65081 5.58565 1.63616 5.68814 1.63616 5.79428C1.63616 5.85285 1.64348 5.9041 1.65813 5.94802C1.67277 5.99195 1.70205 6.03221 1.74963 6.06516C1.79722 6.10176 1.8448 6.10176 1.89971 6.07247C1.95827 5.96266 1.99122 5.8858 2.0022 5.84553C2.01318 5.80527 2.00952 5.76501 1.99854 5.73207H1.99488ZM15.1464 5.12445C14.9305 5.25256 14.7145 5.37335 14.5059 5.48315C14.2533 5.61859 14.03 5.72474 13.8397 5.79795C13.3346 6.00293 12.7782 6.10541 12.1632 6.10541C12.1632 6.08711 12.1632 6.05783 12.1706 6.01757C12.1706 5.9224 12.1413 5.7833 12.0827 5.59662C12.0242 5.40995 11.9949 5.27086 11.9949 5.18302C11.9949 5.09517 12.0132 5.01464 12.0534 4.94143C12.09 4.86823 12.1559 4.806 12.2438 4.75109C12.3792 4.67056 12.5146 4.612 12.6464 4.58272C12.7818 4.55344 12.9283 4.5388 13.0857 4.5388C13.4151 4.5388 13.8543 4.64128 14.4107 4.84626C14.8865 5.02196 15.1318 5.11346 15.1501 5.11712L15.1464 5.12445ZM8.847 4.94143C8.50293 5.08785 8.14422 5.20131 7.77452 5.27818C7.40483 5.35504 7.03148 5.39531 6.65081 5.39531C6.27013 5.39531 5.95534 5.36236 5.64788 5.30014C6.02855 4.89018 6.26647 4.64495 6.35798 4.56076C6.66911 4.29721 6.96559 4.16545 7.25476 4.16545C7.32064 4.16545 7.38653 4.17276 7.45974 4.18375C7.53294 4.19473 7.60615 4.21669 7.6757 4.24598C7.92826 4.3265 8.1369 4.41435 8.29795 4.50952C8.50293 4.62665 8.68594 4.7694 8.84334 4.94143H8.847Z" fill="white"/>
</svg>
