<svg width="20" height="10" viewBox="0 0 20 10" fill="none" xmlns="http://www.w3.org/2000/svg">
<path fill-rule="evenodd" clip-rule="evenodd" d="M20 5.17684C20 5.62735 19.9763 6.02253 19.9328 6.36238C19.8894 6.70223 19.7945 7.03419 19.6483 7.35824C19.6878 7.0421 19.7115 6.81289 19.7194 6.66668C19.7273 6.52046 19.7352 6.33077 19.7352 6.09762C19.7352 5.9514 19.7352 5.83679 19.7273 5.75776C19.7194 5.67477 19.7076 5.54832 19.6878 5.37839L19.0516 0.723184C19.0397 0.671811 19.0318 0.632294 19.0318 0.600679C19.0318 0.486078 19.0595 0.375425 19.1108 0.264775C19.1662 0.154125 19.2373 0.0671843 19.3321 0.00395565C19.3717 0.118557 19.4665 0.359619 19.6167 0.735039C19.8301 1.26458 19.9565 1.68347 19.9881 1.98776C19.9486 1.968 19.8894 1.89686 19.8024 1.77041C19.7155 1.64395 19.6443 1.60048 19.5811 1.63605C19.5811 2.02332 19.6522 2.60818 19.7906 3.39854C19.9289 4.1889 20 4.78167 20 5.1808V5.17684ZM16.5185 1.66765C16.5501 1.71112 16.5659 1.74669 16.5659 1.77041C16.5659 1.80202 16.5422 1.84944 16.4948 1.91662C16.4473 1.9838 16.4197 2.03913 16.4157 2.0826C16.3644 2.10236 16.3169 2.0905 16.2695 2.04308C16.2221 1.99961 16.1826 1.94428 16.151 1.88105C16.1431 1.84944 16.1431 1.80597 16.1431 1.7467C16.1431 1.65185 16.1589 1.56096 16.1865 1.47798C16.2142 1.39499 16.2577 1.3041 16.313 1.20926C16.3011 1.28039 16.2893 1.34362 16.2814 1.40289C16.2735 1.46217 16.2656 1.50168 16.2656 1.52144C16.2656 1.57281 16.2695 1.62419 16.2814 1.67161C16.2893 1.72298 16.3248 1.77041 16.3802 1.81388C16.4118 1.81388 16.4355 1.80597 16.4552 1.78622C16.4869 1.72299 16.5106 1.68347 16.5224 1.66371L16.5185 1.66765ZM16.4711 0.169936C15.5424 0.454465 14.6651 0.735035 13.8431 1.01561C12.8552 1.35151 11.9976 1.67161 11.2626 1.98381C11.2191 2.03913 11.1757 2.09841 11.1401 2.15768C11.1006 2.21696 11.0848 2.26833 11.0927 2.3039C11.1164 2.29204 11.1519 2.26438 11.1954 2.21696C11.2389 2.17349 11.2824 2.14188 11.3298 2.12212L15.6175 0.612534C15.7676 0.561161 15.9297 0.505839 16.0956 0.44261C16.2616 0.379382 16.3881 0.288486 16.4711 0.16598V0.169936ZM16.147 3.31951C16.1352 3.42621 16.0798 3.54476 15.985 3.67121C15.8585 3.84114 15.7874 3.95179 15.7676 4.00316C15.736 3.94784 15.6254 3.85695 15.4357 3.7384C15.2776 3.64356 15.2144 3.54081 15.246 3.42621L15.57 2.90457C15.7202 2.97965 15.8269 3.03894 15.8822 3.0745C15.9771 3.13773 16.064 3.22072 16.147 3.31951ZM12.1438 0.833834C12.1359 0.908917 12.1201 0.984001 12.0885 1.05513C12.0569 1.12626 12.0174 1.2053 11.966 1.28829C11.9028 1.30805 11.8475 1.30014 11.8 1.26458C11.7526 1.22901 11.7131 1.18554 11.6815 1.12626C11.6617 1.05118 11.6538 0.980046 11.6538 0.916818C11.6538 0.821975 11.6657 0.735038 11.6854 0.659954C11.7091 0.58487 11.7724 0.442611 11.8791 0.233166C11.8475 0.399141 11.8158 0.561164 11.7842 0.72714C11.7842 0.845693 11.8277 0.948435 11.9186 1.03142C11.9739 1.04328 12.0174 1.01561 12.0411 0.940527C12.0648 0.869395 12.1004 0.829878 12.1438 0.829878V0.833834ZM14.345 2.98756C14.3213 3.0587 14.262 3.0903 14.1751 3.0903C14.1197 3.0903 14.0723 3.08239 14.0328 3.06264L14.013 3.04288C14.013 3.04288 13.9419 3.09821 13.8234 3.19305C13.7364 3.26418 13.6613 3.2958 13.606 3.2958C13.5862 3.2958 13.5586 3.2879 13.5151 3.26814C13.4756 3.24838 13.4361 3.20886 13.3966 3.14563C13.357 3.0824 13.3412 3.00337 13.3412 2.90852C13.3412 2.84529 13.3491 2.77417 13.361 2.69118C13.3729 2.60819 13.3847 2.52915 13.4005 2.45407L13.4677 2.33156C13.4914 2.36318 13.5072 2.42245 13.5072 2.51334C13.5072 2.54496 13.5072 2.59238 13.4993 2.65956C13.4914 2.72674 13.4914 2.77021 13.4914 2.79787C13.4914 2.93619 13.5467 3.00732 13.6534 3.00732C13.6653 3.00732 13.7048 2.99942 13.768 2.98756C13.8392 2.93224 13.8708 2.8532 13.8708 2.75835C13.8708 2.71883 13.8629 2.66746 13.851 2.59633C13.8392 2.5252 13.8313 2.47382 13.8313 2.4343C13.8313 2.39083 13.8392 2.35132 13.851 2.31971C13.8629 2.2881 13.8905 2.26043 13.938 2.23277C13.9617 2.27624 13.9775 2.38688 13.9814 2.56076C13.9814 2.73464 14.0447 2.82158 14.1672 2.82158C14.2067 2.82158 14.2343 2.82159 14.2541 2.81368C14.266 2.76231 14.2541 2.68723 14.2225 2.59238C14.1869 2.49359 14.1711 2.43035 14.1711 2.39874C14.1711 2.34341 14.1948 2.28809 14.2383 2.23671C14.2936 2.35132 14.3371 2.44616 14.3648 2.52124C14.3924 2.59633 14.4082 2.67931 14.4082 2.76625C14.4082 2.85319 14.3924 2.92828 14.3608 2.98361L14.345 2.98756ZM18.2336 5.3112C18.2336 5.0899 18.1466 4.54457 17.9767 3.67913C17.8068 2.81368 17.7198 2.22882 17.7198 1.92453C17.7198 1.81783 17.7277 1.72694 17.7475 1.6479L18.0123 2.09445C18.0123 1.73879 17.9016 1.29619 17.6803 0.766648C17.5657 0.521637 17.455 0.268725 17.3484 0.0158105C17.2851 0.122509 17.2219 0.233166 17.1547 0.343816C17.0875 0.454466 17.0559 0.557212 17.0559 0.652055C17.0559 0.715283 17.0757 0.774557 17.1112 0.833834C17.1824 1.39104 17.2654 1.98775 17.3681 2.62004C17.4709 3.25628 17.5697 3.853 17.6684 4.41415C17.7672 4.97531 17.87 5.54832 17.9767 6.13714C17.8897 6.22013 17.787 6.28731 17.6763 6.34658C17.5657 6.40191 17.455 6.45722 17.3484 6.5086C17.2535 6.53231 17.1666 6.55207 17.0875 6.55997C17.0085 6.56787 16.9295 6.57578 16.8465 6.57578C16.7121 6.57578 16.5936 6.55602 16.4829 6.51255C16.3723 6.47303 16.2853 6.40191 16.2221 6.30706C16.1668 6.24383 16.1352 6.16085 16.1352 6.06205C16.1352 6.01858 16.151 5.93559 16.1786 5.82099C16.2063 5.70243 16.2142 5.61549 16.2023 5.56017C16.151 5.56017 16.0601 5.58388 15.9257 5.6313C15.7913 5.67872 15.7123 5.71034 15.6807 5.72219C15.1235 6.07785 14.6335 6.33867 14.2106 6.5086C13.6495 6.7378 13.1041 6.84846 12.5785 6.84846C12.1873 6.84846 11.8 6.77732 11.4207 6.63901C11.1875 6.50465 11.0018 6.30311 10.8714 6.03043C10.8002 5.89212 10.7212 5.63921 10.6264 5.2717C10.575 4.7224 10.5315 4.14147 10.4999 3.5329C10.4643 2.92432 10.4327 2.31971 10.4011 1.72694C10.3497 1.0749 10.2865 0.501877 10.2114 0L9.89923 0.61649C10.0336 1.47798 10.1284 2.27228 10.1917 3.00336C10.2549 3.73444 10.2865 4.47343 10.2865 5.22822C10.2865 5.59574 10.3379 5.94349 10.4367 6.27544C10.5394 6.60739 10.6935 6.89982 10.903 7.15274C11.1361 7.29105 11.3772 7.3938 11.6183 7.46098C11.8633 7.52816 12.1162 7.55977 12.381 7.55977C12.8868 7.55977 13.444 7.43727 14.0486 7.1883C14.5149 6.99862 15.0207 6.73385 15.5582 6.39005C15.6846 6.30706 15.7795 6.26754 15.8427 6.26754C15.898 6.26754 15.9376 6.29125 15.9534 6.33867C15.9692 6.38609 15.9771 6.46513 15.9771 6.57183V6.68643C15.9771 6.82474 15.9929 6.93935 16.0245 7.03419C16.0561 7.12508 16.1233 7.1804 16.2221 7.20016C16.3723 7.26339 16.5461 7.29501 16.7358 7.29501C17.0757 7.29501 17.3879 7.21202 17.6645 7.05C17.8621 6.87217 18.0043 6.66668 18.0952 6.43352C18.1861 6.20037 18.2336 5.82494 18.2336 5.31516V5.3112ZM14.2778 4.34302C14.2541 4.40625 14.2343 4.46157 14.2225 4.50899C14.2106 4.55641 14.1751 4.56037 14.1197 4.5248C14.0684 4.51295 14.0328 4.50505 14.0051 4.50505C13.9854 4.50505 13.9459 4.51295 13.8826 4.5248C13.8194 4.60779 13.7799 4.7224 13.7601 4.87652C13.6969 5.29936 13.6613 5.52066 13.6574 5.54041C13.5942 5.49694 13.527 5.36653 13.4598 5.15313C13.3887 4.93974 13.2978 4.82909 13.1832 4.82909C13.1713 4.82909 13.1397 4.837 13.0883 4.84885C13.0449 4.80538 13.0211 4.75795 13.0211 4.70658C13.0211 4.67497 13.0409 4.61175 13.0765 4.5169C13.0962 4.46553 13.1081 4.42996 13.1199 4.4023C13.1278 4.37859 13.1753 4.36278 13.2583 4.36278C13.3294 4.45762 13.3966 4.57618 13.4677 4.71449C13.4914 4.75796 13.5507 4.88836 13.6376 5.10176C13.6376 4.91207 13.6653 4.7382 13.7167 4.58013C13.772 4.42206 13.8589 4.29955 13.9854 4.20866C14.0407 4.1889 14.096 4.19285 14.1514 4.22446C14.2067 4.25212 14.2462 4.29165 14.2778 4.34302ZM12.0016 3.81348C11.9621 4.24818 11.8158 4.65126 11.555 5.01878C11.6933 4.75401 11.7842 4.53271 11.8317 4.35488C11.8751 4.17705 11.8988 3.99922 11.8988 3.81348C11.8988 3.64356 11.8712 3.47362 11.8119 3.29975C11.7368 3.16143 11.6617 3.02312 11.5945 2.88086C11.5945 2.83739 11.6222 2.78601 11.6815 2.73069C11.8 2.82553 11.887 2.94014 11.9423 3.07055C11.9976 3.20491 12.0213 3.36297 12.0213 3.54475C12.0213 3.66331 12.0134 3.7542 12.0016 3.80953V3.81348ZM8.46473 0.549304C8.48844 0.632292 8.46473 0.703419 8.39755 0.766648C8.37384 0.766648 8.33432 0.754802 8.28295 0.72714C8.23158 0.703429 8.19601 0.687619 8.16835 0.687619C8.14068 0.687619 8.11302 0.695526 8.08141 0.715285C8.03003 0.810128 7.99052 0.952387 7.9589 1.14207C7.88777 1.56096 7.84035 1.80597 7.80873 1.88105C7.75736 1.83759 7.67437 1.6479 7.55187 1.312C7.46493 1.06699 7.31871 0.95239 7.11717 0.972149C7.06185 0.948438 7.03023 0.908917 7.03023 0.857543C7.03023 0.825929 7.04604 0.774554 7.0737 0.707373C7.10136 0.636241 7.11717 0.592773 7.11717 0.573014C7.14879 0.521641 7.1883 0.497929 7.23968 0.497929C7.29105 0.497929 7.32662 0.521641 7.34242 0.573014C7.45702 0.679712 7.55582 0.841732 7.63485 1.05118C7.71784 1.26457 7.76922 1.38313 7.78502 1.41475C7.81664 1.23296 7.8522 1.04722 7.88777 0.865443C7.94309 0.655998 8.04189 0.513739 8.1802 0.438655C8.23157 0.426799 8.28295 0.430746 8.33037 0.458409C8.35013 0.466312 8.38965 0.493975 8.45288 0.545349L8.46473 0.549304ZM5.86445 1.12626C5.88421 1.20135 5.87631 1.28433 5.84469 1.37127C5.81308 1.45821 5.76566 1.5333 5.70243 1.58863C5.61944 1.60048 5.56017 1.56887 5.52065 1.49379C5.48113 1.4187 5.44952 1.34361 5.4179 1.26458C5.4179 0.991904 5.48508 0.742943 5.61549 0.51374C5.59573 0.576968 5.57597 0.6481 5.56017 0.723184C5.54041 0.798268 5.5325 0.8694 5.5325 0.932628C5.5325 1.10256 5.58783 1.23297 5.70243 1.31991C5.7459 1.312 5.77751 1.28434 5.79332 1.22901C5.80913 1.17369 5.83284 1.13812 5.86445 1.11836V1.12626ZM8.04584 3.76211C8.02213 3.8451 7.99447 3.93204 7.97076 4.02293C7.94705 4.11382 7.89962 4.181 7.82849 4.22842C7.75736 4.1889 7.70994 4.13358 7.68228 4.05849C7.65461 3.98341 7.63881 3.89251 7.63881 3.79372C7.63881 3.70678 7.64671 3.6238 7.65857 3.55267C7.67042 3.48153 7.68228 3.4262 7.68623 3.38669L7.82849 3.04684C7.79688 3.22862 7.76922 3.4104 7.74155 3.58823C7.74155 3.72654 7.78502 3.84905 7.87591 3.9597C7.90753 3.94784 7.93519 3.91227 7.96285 3.85695C7.98656 3.80162 8.01818 3.77001 8.04979 3.77001L8.04584 3.76211ZM4.1968 0.829878C4.14543 0.79036 4.10986 0.762697 4.0822 0.742938C4.03082 0.70342 3.98735 0.70342 3.94784 0.742938C3.87275 0.849636 3.82138 1.04328 3.78976 1.32781C3.75815 1.61234 3.71863 1.80203 3.66331 1.90082C3.75815 1.98381 3.85695 2.06283 3.95574 2.13792C4.07034 2.25252 4.12172 2.36317 4.10591 2.46987C4.05058 2.50939 3.89251 2.541 3.63169 2.56866C3.37088 2.59632 3.2049 2.67932 3.12982 2.80973C3.16933 2.97965 3.24837 3.29185 3.36692 3.7384C3.55661 4.44182 3.65145 4.97926 3.65145 5.35864C3.65145 5.56808 3.62774 5.76171 3.58427 5.94349C3.5408 6.12527 3.46177 6.30706 3.34716 6.48884C3.47362 6.19641 3.53685 5.91188 3.53685 5.63525C3.53685 5.21636 3.44991 4.69077 3.27208 4.05058C3.18514 3.74629 3.09425 3.44201 3.00731 3.14168C3.01917 2.9836 3.03497 2.8611 3.05473 2.77021C3.07449 2.68327 3.11006 2.59633 3.15748 2.51334C3.22071 2.44221 3.30765 2.39479 3.41435 2.36713C3.52104 2.33947 3.62774 2.3118 3.72654 2.28809C3.68702 2.23276 3.64355 2.1972 3.59218 2.18929C3.5408 2.18139 3.46967 2.17348 3.37483 2.17348L3.27208 2.296C3.22861 2.16164 3.27208 2.03518 3.41435 1.90872H3.60403C3.50128 1.66371 3.42225 1.47402 3.36692 1.34756C3.26023 1.11441 3.11401 0.995858 2.93223 0.995858C2.8769 0.944485 2.84529 0.881252 2.84529 0.806168C2.84529 0.754795 2.86109 0.683668 2.89271 0.588825C2.92432 0.493982 2.94013 0.442607 2.94013 0.438655C3.11006 0.525594 3.26813 0.727139 3.41435 1.03538C3.51709 1.24878 3.58822 1.39104 3.63169 1.45427C3.67121 1.25273 3.71073 1.05118 3.7542 0.845688C3.82533 0.612533 3.95574 0.486079 4.15333 0.46632C4.21656 0.490031 4.24817 0.545357 4.24817 0.628345C4.24817 0.68367 4.22841 0.75085 4.19285 0.825934L4.1968 0.829878ZM8.99427 5.03063C8.93104 5.0741 8.88362 5.16104 8.85596 5.29145C8.82829 5.42186 8.80063 5.50089 8.77692 5.5325C8.75716 5.60364 8.76902 5.69848 8.80854 5.82099C8.84805 5.94349 8.87176 6.02649 8.87176 6.06205C8.87176 6.13319 8.8362 6.18851 8.76902 6.23198C8.74531 6.23988 8.70579 6.24779 8.65837 6.25964C8.61095 6.2715 8.53586 6.2794 8.43707 6.2794C8.18415 6.2794 7.9589 6.20827 7.76526 6.06205C7.76526 6.04229 7.79688 5.93163 7.86011 5.73009C7.87987 5.66686 7.88382 5.59968 7.87987 5.5325C7.82849 5.57202 7.77317 5.63525 7.70994 5.73009C7.58348 5.91187 7.48469 6.03043 7.41751 6.08181C7.1883 6.25964 6.92353 6.34658 6.61925 6.34658C6.51255 6.34658 6.38214 6.32682 6.23592 6.29125C6.08575 6.25173 5.98301 6.12527 5.92768 5.90397C5.8447 5.57993 5.79332 5.40605 5.77751 5.37443L5.48508 5.90397L5.78937 7.23178C5.56017 7.4926 5.27564 7.71785 4.93578 7.91544C4.76981 8.01029 4.44971 8.1644 3.9676 8.38175C3.70283 8.49635 3.41435 8.58724 3.10611 8.66232C2.79787 8.73346 2.49753 8.77297 2.213 8.77297C1.89686 8.77297 1.59652 8.72555 1.31199 8.62676C1.02746 8.52797 0.786406 8.37384 0.592768 8.16835C0.48607 8.02213 0.407034 7.87592 0.359613 7.7218C0.312191 7.57163 0.288481 7.40961 0.288481 7.23968C0.288481 7.08951 0.30824 6.91958 0.351709 6.73385C0.391227 6.54812 0.446552 6.37424 0.509781 6.21617C0.308239 6.6153 0.169927 6.93934 0.102746 7.1883C0.0316143 7.43727 0 7.66648 0 7.87592C0 8.15255 0.0632286 8.41731 0.189686 8.66232C0.41889 9.01008 0.75084 9.24324 1.19344 9.36574C1.47797 9.44083 1.89686 9.48035 2.45406 9.48035C3.20095 9.35389 3.84509 9.15235 4.39044 8.87177C5.04643 8.53191 5.54436 8.08536 5.88026 7.53606C5.88026 7.20016 6.12527 7.02234 6.61134 6.99863C7.09741 6.97491 7.39775 6.85636 7.51235 6.64297C7.55582 6.69829 7.6151 6.75361 7.68623 6.80498C7.75736 6.85635 7.83244 6.90378 7.90753 6.94725C8.03399 6.98677 8.16044 7.00257 8.2869 7.00257C8.41336 7.00257 8.53981 6.97886 8.67022 6.9354C8.80063 6.89193 8.90733 6.82869 8.98637 6.74571C9.12073 6.48094 9.18396 6.18456 9.18396 5.85261C9.18396 5.54832 9.12468 5.27564 9.00217 5.03853L8.99427 5.03063ZM1.3199 5.07015C1.29619 5.33492 1.25667 5.53647 1.2053 5.66687C1.12231 5.89608 0.991899 6.05415 0.806165 6.14899C0.719226 6.1569 0.636238 6.12528 0.561154 6.0581C0.48607 5.99092 0.422841 5.91583 0.371468 5.82494C0.347757 5.7301 0.327998 5.61944 0.316143 5.49694C0.304288 5.37443 0.296384 5.25588 0.296384 5.14128C0.296384 4.72239 0.379372 4.29559 0.541395 3.85299C0.675756 3.49338 0.877297 3.10216 1.14997 2.67537C0.980044 3.07845 0.86149 3.37088 0.798261 3.54871C0.6639 3.93599 0.600672 4.26003 0.600672 4.5248C0.600672 4.70658 0.624383 4.87256 0.667852 5.01482C0.711322 5.15708 0.794309 5.29935 0.912863 5.43766C1.01561 5.42976 1.11045 5.36654 1.19739 5.24799C1.25272 5.16105 1.29619 5.09781 1.3199 5.0662V5.07015Z" fill="white"/>
</svg>
