<svg width="20" height="10" viewBox="0 0 20 10" fill="none" xmlns="http://www.w3.org/2000/svg">
<path fill-rule="evenodd" clip-rule="evenodd" d="M20 2.4541C20 2.4541 19.9507 2.36901 19.8746 2.22123C19.7985 2.07344 19.7223 1.97044 19.6417 1.9167C19.5835 2.0824 19.5566 2.26601 19.5566 2.47649C19.5566 2.64666 19.5656 2.82132 19.588 2.99149C19.6507 3.51545 19.6865 3.80654 19.6865 3.86028C19.7358 4.29019 19.7761 4.63502 19.803 4.89028C19.9015 5.6919 19.9552 6.29198 19.9552 6.68607C19.9552 7.08016 19.9194 7.4429 19.8433 7.77877C19.7671 8.11017 19.6417 8.42365 19.4626 8.71026C19.5343 8.21765 19.5701 7.70264 19.5701 7.17421C19.5701 6.56516 19.5253 5.90237 19.4402 5.18585C19.3551 4.46932 19.2656 3.73489 19.176 2.98702C19.0864 2.23914 19.0416 1.58531 19.0416 1.02553C19.0058 0.967309 18.9879 0.909093 18.9879 0.841919C18.9879 0.756832 19.0282 0.644872 19.1043 0.510524C19.2253 0.304523 19.2924 0.192567 19.2969 0.179132C19.4313 0.550829 19.5746 0.922527 19.7179 1.28527C19.8701 1.72414 19.9597 2.11375 19.9955 2.45858L20 2.4541ZM15.7322 1.18674C15.7322 1.41514 15.6516 1.58531 15.4859 1.69279C15.4232 1.71518 15.365 1.69279 15.3202 1.62114C15.2754 1.55396 15.2441 1.5047 15.2306 1.47783C15.2172 1.40618 15.2082 1.34797 15.2082 1.30766C15.2082 1.19123 15.2306 1.08374 15.2709 0.976265C15.3157 0.868787 15.3695 0.747873 15.4411 0.609046C15.4411 0.658307 15.4232 0.747872 15.3918 0.877743C15.3605 1.00761 15.3426 1.0927 15.3426 1.13748C15.3426 1.26735 15.3874 1.36588 15.4814 1.43753C15.5441 1.44648 15.5889 1.40618 15.6158 1.32109C15.6426 1.23601 15.6785 1.19122 15.7277 1.19122L15.7322 1.18674ZM15.1321 2.61532C15.047 2.76758 14.9798 2.87506 14.9395 2.94671C14.8545 3.09001 14.7604 3.17958 14.6619 3.21541C14.6395 3.14375 14.5096 3.06315 14.2633 2.9691C14.1469 2.92432 14.0931 2.87506 14.0931 2.81684C14.0931 2.75862 14.1335 2.69145 14.2096 2.61084L14.5096 2.26601C14.6082 2.25706 14.7156 2.2884 14.8321 2.35558C14.9485 2.42275 15.047 2.50784 15.1321 2.60636V2.61532ZM13.3139 0.712048C13.3139 0.832962 13.2915 0.922527 13.2512 0.980744C13.1885 0.944918 13.1348 0.918048 13.0945 0.900135C13.0542 0.882222 13.0184 0.882221 12.9825 0.895656C12.9019 1.02553 12.8303 1.3211 12.7586 1.78684C12.7228 2.00179 12.6735 2.17645 12.6064 2.31527C12.5437 2.23019 12.4765 2.10927 12.4138 1.94805C12.2794 1.61218 12.172 1.4017 12.1003 1.31214L12.0242 1.47335C11.9615 1.45096 11.8988 1.41514 11.8361 1.36588C11.7734 1.31662 11.7152 1.25392 11.657 1.18227C11.6704 1.06583 11.6928 0.980745 11.7152 0.918049C11.7421 0.855353 11.7913 0.801612 11.8719 0.752351C12.0287 0.797134 12.2123 1.03001 12.4183 1.45992C12.5034 1.63905 12.5884 1.71071 12.678 1.67488C12.7138 1.35244 12.7407 1.15988 12.7541 1.0927C12.8034 0.868787 12.893 0.70757 13.0228 0.600091C13.0855 0.586657 13.1393 0.591133 13.1841 0.609046C13.2288 0.644873 13.2691 0.676221 13.3139 0.707569V0.712048ZM12.9154 4.60367C12.9154 4.69772 12.8974 4.79176 12.8661 4.88133C12.8348 4.97537 12.7765 5.03807 12.687 5.07389C12.6243 5.09628 12.5705 5.07837 12.5302 5.02463C12.4899 4.97089 12.4541 4.90372 12.4183 4.82759C12.4093 4.79176 12.4093 4.73802 12.4093 4.66637C12.4093 4.54546 12.4317 4.42902 12.472 4.31706C12.5168 4.2051 12.5705 4.08867 12.6422 3.96776C12.6064 4.14689 12.575 4.32154 12.5437 4.49619C12.5437 4.62606 12.5884 4.72459 12.6825 4.79624C12.7407 4.80967 12.79 4.7828 12.8258 4.71563C12.8661 4.64845 12.893 4.60815 12.9064 4.60367H12.9154ZM9.87461 1.31662C9.77609 1.54501 9.6283 1.76444 9.44022 1.96596C9.25213 2.17197 9.03717 2.33319 8.79982 2.4541C8.51321 2.52575 8.23108 2.59293 7.94895 2.6601C8.31617 2.46753 8.58934 2.31975 8.77295 2.22571C8.95656 2.12718 9.10882 2.01971 9.22974 1.89879C9.14913 1.88536 9.05956 1.87192 8.95208 1.85401C8.8446 1.84057 8.74608 1.83162 8.65204 1.83162C8.48634 1.83162 8.35647 1.84953 8.25347 1.88088C8.15495 1.91223 8.06538 1.9794 7.98477 2.07792C8.00716 1.89879 8.0833 1.72414 8.22212 1.54948C8.35647 1.37931 8.51769 1.27183 8.69682 1.22705C8.75504 1.21362 8.81326 1.20466 8.87595 1.20466H9.01926C9.1536 1.20466 9.279 1.21362 9.39095 1.22705C9.50291 1.24049 9.66413 1.27183 9.87909 1.31214L9.87461 1.31662ZM7.24138 1.43305C7.24138 1.63905 7.16077 1.78683 6.99507 1.87192C6.85177 1.84505 6.77116 1.77788 6.74877 1.67936C6.74877 1.48679 6.77116 1.31214 6.82042 1.16435C6.8652 1.01209 6.94133 0.850873 7.03986 0.671742C7.06225 0.743394 7.03986 0.855352 6.98164 1.01209C6.91894 1.16435 6.89207 1.27631 6.89207 1.33901C6.89207 1.45544 6.95925 1.53605 7.09807 1.58531C7.12047 1.57636 7.14286 1.54948 7.16077 1.50022C7.18316 1.45096 7.21003 1.42857 7.24586 1.43753L7.24138 1.43305ZM10.1657 4.63502C10.1433 4.75145 10.1209 4.84998 10.103 4.93059C10.0806 5.0112 10.0403 5.08285 9.97313 5.14107C9.87909 5.1545 9.80296 5.13211 9.74922 5.07837C9.691 5.02015 9.66413 4.94402 9.66413 4.85446C9.66413 4.51859 9.73578 4.23645 9.87909 4.01702C9.87909 4.07524 9.86117 4.1648 9.82535 4.28571C9.78952 4.40663 9.77161 4.50515 9.77161 4.5768C9.77161 4.67085 9.794 4.74698 9.8343 4.80072L9.98656 4.89924L10.1254 4.6395H10.1702L10.1657 4.63502ZM17.4653 1.97044C17.4205 1.69727 17.313 1.3614 17.1429 0.958352C16.901 0.394088 16.7667 0.0716525 16.7443 0C16.6144 0.0940439 16.5293 0.188088 16.4801 0.291089C16.4353 0.389611 16.4084 0.506048 16.4084 0.635918C16.4084 0.756832 16.4353 0.94492 16.4935 1.1957C16.5517 1.44649 16.5786 1.63457 16.5786 1.75549L17.2996 6.05464L17.3444 6.86073C16.9951 7.1339 16.5741 7.26825 16.086 7.26825C15.8576 7.26825 15.6247 7.22794 15.3874 7.15181C15.4859 6.8652 15.5531 6.66816 15.5799 6.56068C15.6382 6.33677 15.665 6.13077 15.665 5.9382C15.665 5.67846 15.6113 5.45903 15.5038 5.27094C15.459 5.1545 15.4008 5.06941 15.3247 5.0112C15.2485 4.95298 15.1545 4.93954 15.0381 4.96641C14.7022 5.16794 14.438 5.43663 14.2409 5.7725C14.0484 6.10837 13.9498 6.46216 13.9498 6.8249C13.9498 6.91895 13.9498 6.9906 13.9588 7.03986C13.193 7.36229 12.3511 7.52351 11.4331 7.52351C11.1599 7.52351 10.8867 7.51008 10.6046 7.47873C10.3269 7.45186 10.0627 7.40708 9.82087 7.34886C9.34617 7.1966 8.98791 7.04434 8.73712 6.8876C8.35199 6.63681 8.15495 6.33677 8.15495 5.98298C8.00269 6.05464 7.77429 6.30094 7.46529 6.72638C7.22347 7.06225 6.95029 7.23242 6.65025 7.23242C6.48455 7.21899 6.34572 7.15181 6.22481 7.03986C6.10837 6.92342 5.99194 6.71742 5.88446 6.41738C5.82176 5.88894 5.7725 5.26198 5.74563 4.5365C5.71876 3.81102 5.69189 3.09449 5.66502 2.37797C5.63815 1.66144 5.59337 1.02553 5.53068 0.465742C5.37841 0.595612 5.27989 0.738916 5.22615 0.895656C5.17241 1.0524 5.14554 1.24048 5.14554 1.45544C5.14554 1.59875 5.19033 1.94805 5.27541 2.50784C5.31124 2.74519 5.32915 2.94671 5.32915 3.10793C5.32915 3.31393 5.3605 3.85132 5.42768 4.72011C5.45455 5.10524 5.47246 5.42768 5.47246 5.67846C5.47246 5.94268 5.45455 6.21586 5.41424 6.48903C5.37394 6.76668 5.3202 7.00851 5.24854 7.21451C4.49619 7.79669 3.86028 8.19525 3.33632 8.41917C2.87953 8.61173 2.44962 8.71026 2.05553 8.71026C1.8137 8.71026 1.58083 8.67443 1.35692 8.60725C1.133 8.54008 0.918048 8.4326 0.70309 8.2893C0.479176 8.11017 0.371697 7.85491 0.371697 7.52799C0.371697 7.39812 0.385132 7.28616 0.41648 7.1966C0.501567 6.81594 0.57322 6.5562 0.631437 6.4129C0.747873 6.13524 0.904613 5.96507 1.10614 5.90685C1.27183 5.79937 1.4017 5.63368 1.49127 5.41424C1.52709 5.32916 1.58979 5.12315 1.67488 4.80072C1.63009 4.81415 1.58083 4.86341 1.52262 4.94402C1.4644 5.02463 1.41962 5.08285 1.38827 5.1142C1.35692 5.14555 1.30766 5.16346 1.24496 5.16346C1.12853 5.16346 1.04344 5.1142 0.985222 5.0112C0.949395 4.86789 0.931482 4.69772 0.931482 4.50515C0.931482 4.19167 0.998656 3.86028 1.13748 3.51545C1.25392 3.21988 1.41514 2.9288 1.62114 2.63323C1.30766 3.02732 1.06135 3.39454 0.891178 3.73936C0.667264 4.18271 0.559785 4.60815 0.559785 5.00672C0.559785 5.29333 0.618003 5.5665 0.72996 5.82176C0.515002 6.20242 0.362741 6.50246 0.268697 6.72638C0.134348 7.03986 0.0447828 7.35782 0 7.6713C0.0223914 7.8773 0.0447828 8.08778 0.0761308 8.29378C0.138827 8.7013 0.309001 8.98343 0.582177 9.14465C0.783699 9.27452 0.976265 9.36409 1.16883 9.41335C1.35692 9.46261 1.56292 9.48948 1.77788 9.48948C2.21675 9.48948 2.7004 9.36408 3.2378 9.1133C3.59606 8.9476 4.03493 8.69682 4.55889 8.36095C4.76489 8.2266 4.97089 8.03404 5.17241 7.79221C5.33811 7.57725 5.50381 7.36229 5.66502 7.14734C5.76355 7.51455 5.96059 7.78325 6.25616 7.95343C6.37707 7.99821 6.48007 8.01612 6.56964 8.01612C6.8652 8.01612 7.16525 7.79669 7.47425 7.36229C7.70264 7.03986 7.84147 6.85177 7.89521 6.79355L7.9579 7.03986C8.3296 7.49216 8.79534 7.81908 9.35513 8.01612C9.82982 8.1863 10.3896 8.27586 11.0434 8.27586C11.4957 8.27586 11.957 8.23108 12.4317 8.14599C12.9064 8.06091 13.3677 7.94895 13.82 7.8146C13.9498 7.70712 14.0931 7.65338 14.2499 7.65338C14.5455 7.73847 14.8365 7.82356 15.1321 7.91312C15.3829 7.99821 15.6471 8.04299 15.9292 8.04299C16.2114 8.04299 16.4756 7.99821 16.7264 7.90864C16.9772 7.81908 17.1966 7.68921 17.3802 7.51455C17.5683 7.03986 17.6579 6.52038 17.6579 5.95611C17.6579 5.4635 17.5593 4.71115 17.3578 3.70802C17.1563 2.70488 17.0578 1.96149 17.0578 1.47335L17.4787 1.96596L17.4653 1.97044ZM7.89073 3.89611C7.90416 3.96776 7.91312 4.00806 7.91312 4.01254C7.91312 4.08419 7.84147 4.1245 7.69816 4.12897C7.55486 4.13793 7.49216 4.20958 7.51455 4.35289C7.48768 4.55441 7.46081 4.72011 7.43842 4.85893C7.41603 4.99328 7.37573 5.10972 7.30855 5.20376C7.22794 5.1545 7.14286 4.99776 7.04433 4.72907C6.94581 4.46485 6.80699 4.34841 6.6189 4.38424C6.56964 4.33945 6.54277 4.29915 6.54277 4.25437C6.54277 4.2275 6.56068 4.17824 6.59203 4.11554C6.62338 4.05284 6.64129 3.9991 6.64129 3.96328C6.67712 3.89162 6.73981 3.86476 6.8249 3.88715C6.90551 3.9588 6.97268 4.06628 7.0309 4.20958C7.17421 4.55889 7.25929 4.75594 7.29064 4.79176C7.31303 4.76489 7.36229 4.5768 7.4429 4.23198C7.50112 3.98119 7.59964 3.8558 7.74295 3.8558C7.78773 3.8558 7.83699 3.86476 7.89521 3.88715L7.89073 3.89611ZM4.15137 4.60367C4.17376 4.67532 4.1648 4.76489 4.12897 4.87237C4.09315 4.97985 4.04837 5.06046 3.99015 5.11867C3.93193 5.14554 3.87371 5.14555 3.80654 5.10972C3.74384 5.07389 3.70354 5.02911 3.6901 4.97537C3.67667 4.92163 3.66771 4.86789 3.66771 4.80968V4.6798C3.66771 4.52754 3.68562 4.38871 3.71697 4.25437C3.74832 4.12002 3.80206 3.97671 3.87371 3.81997C3.87371 3.88267 3.86028 3.99015 3.82893 4.14241C3.80206 4.29467 3.78415 4.40663 3.78415 4.48724C3.78415 4.60815 3.80206 4.69324 3.84236 4.74698C3.88267 4.79624 3.93193 4.83207 3.9991 4.85446L4.15137 4.60815V4.60367ZM3.42141 0.604567L3.37662 0.828481C3.37662 0.828481 3.33184 0.815049 3.26467 0.792657C3.19749 0.765788 3.13927 0.75683 3.09897 0.75683C3.0721 0.75683 3.03627 0.765787 3.00045 0.788178C2.93775 1.19122 2.87506 1.58979 2.81684 1.99284C2.90193 2.01523 2.97806 2.05553 3.04971 2.10927C3.11688 2.16749 3.19301 2.24362 3.26914 2.34662C3.26914 2.5168 3.11688 2.61532 2.80788 2.63771C2.49888 2.6601 2.31079 2.74071 2.23914 2.88401C2.3914 3.68563 2.53919 4.48724 2.69145 5.29333C2.69145 5.72324 2.5974 6.10837 2.41379 6.44424C2.53023 6.16659 2.58397 5.86207 2.58397 5.53963C2.58397 5.27542 2.54366 4.95746 2.46753 4.59472C2.3511 4.06628 2.23914 3.53336 2.1227 3.00493C2.16749 2.84819 2.20331 2.73623 2.23914 2.67353C2.30184 2.55262 2.3914 2.47201 2.50784 2.43619C2.53471 2.41379 2.60188 2.40036 2.70488 2.40036C2.80788 2.40036 2.87953 2.38245 2.91536 2.3511C2.8661 2.32871 2.83027 2.31527 2.80788 2.30631C2.72279 2.27049 2.65562 2.25257 2.60188 2.25257C2.57949 2.25257 2.54814 2.26153 2.50336 2.27497C2.44066 2.33766 2.40036 2.3914 2.38692 2.42723C2.36005 2.38245 2.3511 2.33766 2.36901 2.28392C2.38692 2.23018 2.40484 2.17644 2.42723 2.12718C2.48992 2.05553 2.57949 2.01075 2.68697 1.99731C2.56605 1.67488 2.48545 1.48679 2.44962 1.42857C2.37797 1.31214 2.29736 1.24944 2.21227 1.23601C2.13166 1.20914 2.06897 1.18227 2.01523 1.15988C1.96149 1.13748 1.92118 1.10614 1.88983 1.06135C1.92566 0.891179 1.95253 0.788178 1.96597 0.75683C1.9794 0.725482 2.01075 0.689655 2.06449 0.653829C2.22123 0.738916 2.36453 0.891178 2.4944 1.10614C2.59292 1.28527 2.7004 1.4644 2.80788 1.64353C2.82132 1.38379 2.83923 1.12405 2.86162 0.859832C2.89745 0.689658 2.97358 0.559787 3.08554 0.4747C3.21988 0.4747 3.33184 0.519482 3.41693 0.613526L3.42141 0.604567ZM8.84908 8.95656C8.79982 9.04165 8.73265 9.14465 8.64308 9.25661C8.59382 9.3193 8.51321 9.41782 8.40573 9.54769C8.28482 9.485 8.15943 9.41335 8.02956 9.34169C7.89969 9.27004 7.77877 9.22526 7.66234 9.21182C7.70712 9.06852 7.79669 8.92521 7.93999 8.78191C8.0206 8.7013 8.09673 8.62965 8.17734 8.55799C8.29378 8.61621 8.41021 8.67443 8.5356 8.7416C8.66099 8.8043 8.76399 8.87595 8.84013 8.95656H8.84908ZM7.64442 9.05508C7.64442 9.05508 7.56382 9.18048 7.42051 9.40887C7.31303 9.57904 7.21003 9.66861 7.10703 9.66861C7.03538 9.66861 6.95477 9.62382 6.86968 9.52978C6.80699 9.49395 6.75773 9.46708 6.73086 9.45365C6.62338 9.39543 6.53829 9.35513 6.47112 9.33721C6.53381 9.2163 6.60546 9.10434 6.68159 9.00582C6.75772 8.9073 6.84729 8.81773 6.95477 8.74608C7.0712 8.77295 7.18316 8.81773 7.2996 8.87595C7.41603 8.93417 7.52799 8.99239 7.64442 9.05956V9.05508ZM3.15271 6.9279L3.09001 7.18764C3.09001 7.18764 3.0318 7.15181 2.95567 7.10703C2.87953 7.06225 2.82132 7.03986 2.77653 7.04882C2.74966 7.11151 2.72279 7.27721 2.70488 7.54143C2.68697 7.80564 2.61979 7.9803 2.50784 8.05643C2.45858 8.01165 2.39588 7.88625 2.31975 7.67577C2.24362 7.46529 2.12718 7.35781 1.97044 7.35781C1.99283 7.22794 2.00627 7.14286 2.0197 7.10703C2.02866 7.06673 2.06449 7.03538 2.1227 7.00403C2.23914 7.06225 2.33318 7.18316 2.40931 7.37573C2.48545 7.56382 2.53918 7.68025 2.57501 7.71608C2.58845 7.55038 2.60188 7.38468 2.61979 7.21003C2.65562 6.99507 2.73623 6.84281 2.85714 6.75773C2.91536 6.74877 2.96462 6.76221 3.0094 6.79355C3.05419 6.8249 3.10345 6.86968 3.16167 6.9279H3.15271ZM15.3202 6.49799C15.1858 6.57859 15.0515 6.65473 14.9216 6.73533C14.841 6.78012 14.7649 6.79803 14.6843 6.79803C14.6574 6.79803 14.6126 6.78907 14.5544 6.77564C14.5544 6.76668 14.5007 6.70399 14.3932 6.58755C14.2857 6.47111 14.2499 6.36364 14.2857 6.26959C14.3215 6.22481 14.3798 6.14868 14.4559 6.03224C14.5723 5.87998 14.6798 5.79042 14.7873 5.75459C14.8097 5.74563 14.841 5.74563 14.8858 5.74563C14.9933 5.74563 15.0784 5.80385 15.1455 5.91581C15.1903 6.01433 15.2306 6.11733 15.2754 6.21586C15.2754 6.22481 15.2844 6.26064 15.3023 6.32781C15.3202 6.39499 15.3247 6.4532 15.3202 6.49351V6.49799Z" fill="white"/>
</svg>
