<svg width="20" height="11" viewBox="0 0 20 11" fill="none" xmlns="http://www.w3.org/2000/svg">
<path fill-rule="evenodd" clip-rule="evenodd" d="M17.7905 4.46473C17.7905 4.65885 17.7105 4.84156 17.5564 5.02426C17.4822 5.02426 17.4308 5.01284 17.3908 4.98429C17.3109 4.92719 17.2595 4.84156 17.2424 4.72166C17.2309 4.64744 17.2309 4.59605 17.2309 4.57321C17.2309 4.42477 17.2538 4.28775 17.2938 4.15644C17.3337 4.02512 17.3965 3.88808 17.4764 3.75106C17.4764 3.81386 17.4764 3.87668 17.465 3.92806C17.4308 4.15644 17.4079 4.29917 17.4079 4.35055C17.4079 4.41336 17.4136 4.48187 17.4308 4.55039C17.4422 4.6189 17.4936 4.67599 17.5735 4.72166C17.6306 4.70453 17.6706 4.65885 17.7048 4.59034C17.7391 4.52183 17.7676 4.47616 17.7962 4.45903L17.7905 4.46473ZM14.8159 0.382519C14.833 0.445323 14.8159 0.513839 14.7588 0.582352C14.7017 0.650864 14.6389 0.696546 14.5647 0.713674C14.165 0.867828 13.7254 1.05623 13.2515 1.27318C12.6749 1.54723 12.2409 1.75278 11.9498 1.88981C11.9212 1.84413 11.9326 1.78703 11.9783 1.72423C11.9897 1.71281 12.0354 1.66142 12.1153 1.55865C13.0117 1.1647 13.9081 0.770758 14.8159 0.382519ZM19.9829 2.6834C19.9372 2.36368 19.823 1.95832 19.6403 1.4616C19.5375 1.19897 19.3891 0.805024 19.1893 0.28547C19.1893 0.296888 19.0979 0.422485 18.9152 0.667989C18.8067 0.822143 18.7496 0.959169 18.7496 1.07907C18.7496 1.15329 18.7668 1.22181 18.8067 1.28461L19.2178 7.32514L19.1778 7.38224C18.5669 7.29089 17.9846 7.17669 17.4308 7.03396C16.877 6.89122 16.3517 6.72567 15.8493 6.53155C15.9292 6.3203 15.992 6.16042 16.0263 6.05194C16.1176 5.76076 16.1633 5.4753 16.1633 5.20125V5.03567C16.1633 4.97858 16.1633 4.9272 16.1519 4.87011C16.1519 4.61319 16.1176 4.27633 16.0434 3.85384C15.8949 3.01456 15.8264 2.48359 15.8264 2.26663C15.8264 2.04967 15.8436 1.84984 15.8835 1.67856C15.9749 1.78133 16.0662 1.90123 16.1576 2.04967C16.1918 2.12389 16.2375 2.19812 16.2832 2.26663C16.2832 1.9469 16.1975 1.58149 16.0206 1.17042C15.9292 0.942043 15.7751 0.599486 15.5524 0.142735C15.4325 0.18841 15.3411 0.291172 15.2783 0.456744C15.2155 0.622317 15.1584 0.776475 15.1128 0.924919C15.1413 1.18755 15.2726 2.03253 15.5124 3.44846C15.6837 4.48757 15.7751 5.34969 15.7751 6.0234C15.2726 6.0862 14.6731 6.12047 13.9823 6.12047H13.4342C13.3771 6.26891 13.3257 6.41736 13.2686 6.5658C13.2115 6.71424 13.1887 6.85127 13.1887 6.97116C13.674 6.97116 14.1821 7.03967 14.7245 7.17669C15.1641 7.28517 15.638 7.44505 16.1519 7.6563C15.6152 7.86754 15.2783 7.99314 15.1527 8.03882C14.5133 8.26719 13.9423 8.40992 13.4399 8.46131C13.0288 8.46131 12.6634 8.3985 12.3494 8.26719C12.0354 8.14158 11.7785 7.93035 11.5901 7.63917C11.3959 6.96546 11.2589 6.15473 11.179 5.21268C11.1619 5.02998 11.1162 4.30488 11.0477 3.03169C10.9792 1.7642 10.8878 0.827853 10.7793 0.222657C10.5681 0.47958 10.4368 0.753632 10.3797 1.04481C10.5053 1.66713 10.6081 2.6206 10.6766 3.89951C10.7451 5.18412 10.7908 5.90922 10.8079 6.06909C10.8992 7.01685 11.0477 7.81616 11.2589 8.45561C11.4416 8.77533 11.67 9.00371 11.944 9.14644C12.2181 9.28917 12.5378 9.35768 12.9032 9.35768C13.0117 9.35768 13.0973 9.35769 13.1487 9.34627C13.5769 9.3006 14.1821 9.14074 14.9586 8.86668C15.3982 8.71253 15.7465 8.59264 15.9977 8.5127C16.3745 8.3871 16.7057 8.29003 17.0026 8.23293C17.2995 8.17584 17.6192 8.14158 17.9675 8.14158C18.133 8.14158 18.31 8.15301 18.4927 8.17014C18.6811 8.18727 18.8467 8.2158 18.9951 8.25006C18.9951 8.13016 19.0123 8.0331 19.0522 7.94746C19.0865 7.86753 19.1493 7.77619 19.2292 7.67342C19.2292 8.03883 19.2121 8.3985 19.1836 8.74677C19.1493 9.10076 19.0922 9.40907 19.0009 9.68312C19.2578 9.31772 19.4291 8.94091 19.5204 8.54696C19.6118 8.15301 19.6574 7.69625 19.6574 7.17669C19.6574 6.9369 19.6232 6.34312 19.5604 5.39536C19.5318 4.99571 19.5204 4.64745 19.5204 4.35627C19.5204 4.1907 19.509 4.00798 19.4919 3.80815C19.4462 3.31715 19.4234 3.00885 19.4234 2.88895C19.4234 2.58064 19.469 2.30087 19.5604 2.05537C19.5889 2.08391 19.6517 2.1924 19.7545 2.38652C19.8173 2.50642 19.9029 2.60348 20 2.67199L19.9829 2.6834ZM14.4904 4.36768C14.519 4.44761 14.5076 4.53326 14.4619 4.6189C14.4162 4.70454 14.3534 4.79018 14.2678 4.87011C14.1422 4.89866 14.0451 4.81872 13.9823 4.63602C13.9823 4.20782 14.0794 3.77961 14.2678 3.3457C14.2678 3.42563 14.2449 3.56837 14.205 3.76249C14.165 3.95661 14.1422 4.09363 14.1422 4.16785C14.1422 4.35055 14.1993 4.48758 14.3077 4.57893C14.3648 4.5047 14.4219 4.43048 14.4847 4.36197L14.4904 4.36768ZM13.2172 3.80815C13.183 4.06508 13.1202 4.29917 13.0403 4.51613C12.9603 4.73309 12.8404 4.93862 12.6863 5.13845C12.9261 4.7388 13.0403 4.29345 13.0403 3.80815C13.0574 3.67113 12.9946 3.49986 12.8576 3.30003C12.7148 3.1002 12.6463 2.95745 12.6463 2.87752C12.6463 2.82043 12.6691 2.75763 12.7148 2.6834C13.0517 2.94604 13.223 3.32286 13.223 3.80815H13.2172ZM18.2187 9.90578C17.8361 10.4881 17.2709 10.785 16.5173 10.785C16.3802 10.785 16.2775 10.785 16.2033 10.7736C16.0206 10.7394 15.9121 10.648 15.8721 10.4996C15.8892 10.3054 15.9635 10.1456 16.0891 10.0086C16.2147 9.87154 16.3802 9.75735 16.5801 9.666C16.5515 9.62032 16.5116 9.58606 16.4545 9.56893C16.3974 9.5518 16.346 9.54039 16.2889 9.54039H16.1233L16.0434 9.58036L16.0148 9.5518C16.0891 9.35768 16.2318 9.26633 16.4545 9.26633C16.483 9.26633 16.5401 9.27776 16.6315 9.29489L16.8941 9.46045C16.8941 9.6146 16.7571 9.76876 16.483 9.9115C16.209 10.0599 16.0719 10.1627 16.0719 10.2255C16.0719 10.3055 16.1747 10.3968 16.3745 10.4996C16.7856 10.4996 17.1339 10.4596 17.4136 10.374C17.6991 10.294 17.9617 10.1342 18.2073 9.90578H18.2187ZM9.07793 0C9.08935 0.0742221 9.0551 0.137011 8.98658 0.199815C8.91807 0.256909 8.83814 0.30259 8.74679 0.331137C8.27291 0.485291 7.75906 0.673707 7.21096 0.890664C6.74279 1.07336 6.24037 1.29032 5.70368 1.53583C5.68655 1.46161 5.70368 1.38738 5.76649 1.31887C5.82358 1.24465 5.90351 1.18184 6.00628 1.12475C7.02826 0.747931 8.05024 0.37682 9.07793 0ZM8.98087 1.86125C8.94662 1.98115 8.88381 2.10676 8.80388 2.23807C8.72395 2.36939 8.6326 2.48929 8.54125 2.60348C8.29575 2.46646 8.05024 2.32371 7.79903 2.18097C7.75336 2.20952 7.68484 2.30659 7.58778 2.47787C7.49072 2.64916 7.40508 2.72909 7.31944 2.72909C7.26235 2.72909 7.19954 2.70625 7.12532 2.66058C6.97688 2.58065 6.8684 2.51783 6.79418 2.48357C6.65715 2.40364 6.60006 2.31229 6.6286 2.22094C6.73708 2.05537 6.81701 1.93548 6.86269 1.86696C6.96546 1.71852 7.06823 1.65001 7.17671 1.65001C7.34228 1.75277 7.46218 1.8213 7.54782 1.85555C7.70197 1.93548 7.83329 1.96402 7.94747 1.93547L8.39852 1.55296L8.97516 1.86696L8.98087 1.86125ZM9.60891 3.90522C9.60891 4.03083 9.59178 4.15072 9.55181 4.25349C9.51756 4.35626 9.44904 4.43619 9.34627 4.49329C9.31202 4.50471 9.26634 4.48187 9.22067 4.42478C9.17499 4.36768 9.14074 4.33343 9.12361 4.3163C9.11219 4.2592 9.11219 4.19069 9.11219 4.09934C9.11219 3.91664 9.13503 3.74536 9.1807 3.5855C9.22638 3.42563 9.3006 3.24293 9.39766 3.0431C9.38053 3.11732 9.34627 3.23721 9.29489 3.41421C9.24351 3.58549 9.22067 3.71681 9.22067 3.79674C9.22067 3.9509 9.27205 4.0822 9.36911 4.19639C9.43192 4.19639 9.4833 4.15072 9.51185 4.06508C9.5461 3.97944 9.57465 3.92806 9.6032 3.90522H9.60891ZM4.63603 2.04395L4.15644 2.71766L3.4028 2.22666C3.36854 2.26092 3.30574 2.36939 3.2201 2.54638C3.13446 2.72338 3.0374 2.81473 2.94034 2.81473C2.88324 2.81473 2.83757 2.80331 2.80331 2.78047C2.76906 2.75763 2.69483 2.72908 2.58635 2.68912C2.37511 2.6149 2.27234 2.54067 2.27234 2.45503C2.27234 2.42078 2.28376 2.38081 2.30659 2.34655C2.32943 2.3123 2.40365 2.18669 2.53497 1.97544C2.62632 1.827 2.72338 1.75848 2.82044 1.75848C2.90037 1.80416 2.99172 1.84983 3.08307 1.8955C3.30003 2.02111 3.44847 2.09534 3.5227 2.11246C3.56837 2.07821 3.63688 1.97544 3.73394 1.80987C3.831 1.6443 3.91664 1.56437 4.00228 1.56437C4.03654 1.56437 4.08222 1.57579 4.13931 1.60434C4.16786 1.63859 4.25921 1.7014 4.41336 1.78133C4.56751 1.86126 4.64745 1.9526 4.64745 2.04395H4.63603ZM3.27719 0.822154C3.24864 0.639453 3.163 0.468158 3.01456 0.308295C2.86611 0.148432 2.70625 0.0456751 2.53497 0C2.53497 0.0171282 2.4322 0.211236 2.22095 0.576637C2.14673 0.702243 2.11818 0.827864 2.14102 0.947761C2.14102 1.01056 2.1867 1.06195 2.28376 1.10762C2.38082 1.1533 2.4322 1.17612 2.44362 1.18183C2.27805 1.42163 2.04396 1.68427 1.74707 1.97544C1.73565 1.98686 1.48444 2.22665 0.982015 2.70053C1.28461 2.56351 1.5815 2.34655 1.87268 2.05537C2.11818 1.80986 2.35227 1.5187 2.56923 1.17613L3.04882 1.2161C3.15158 1.20468 3.21439 1.17042 3.24294 1.10191C3.27148 1.0334 3.2829 0.942051 3.2829 0.822154H3.27719ZM5.67514 3.98514L5.61804 4.24779C5.58379 4.25921 5.52669 4.24778 5.44676 4.22495C5.36683 4.20211 5.31544 4.19069 5.2869 4.19069C5.167 4.61319 5.0471 5.02426 4.93291 5.43533C4.9215 5.42392 4.83015 5.21267 4.65886 4.79017C4.53897 4.51612 4.38481 4.37909 4.19069 4.37909C4.16215 4.37909 4.11076 4.39052 4.04225 4.40765C4.0137 4.36198 4.0137 4.30488 4.04225 4.23066C4.0708 4.15644 4.09934 4.08221 4.12218 4.0137C4.21353 3.8881 4.29346 3.84813 4.36768 3.90522C4.49329 4.03083 4.60748 4.1964 4.69883 4.39052C4.79018 4.58464 4.87582 4.77876 4.96146 4.96146C5.04139 4.57893 5.08707 4.37911 5.08707 4.3734C5.14416 4.17357 5.23551 4.00228 5.36112 3.86525C5.39538 3.85383 5.44105 3.86525 5.49814 3.89379C5.55524 3.92234 5.61233 3.95089 5.67514 3.99086V3.98514ZM9.19783 5.94348C8.98658 5.59521 8.76392 5.33257 8.52412 5.14987C8.22153 4.92149 7.9018 4.81872 7.56494 4.84727C7.171 4.9272 6.88553 5.1727 6.70283 5.57235C6.58293 5.81786 6.48587 6.2004 6.41736 6.70854C6.52584 6.98259 6.67999 7.17099 6.88553 7.26804C7.02255 7.33085 7.22809 7.36511 7.50214 7.36511C7.60491 7.36511 7.70197 7.36511 7.79903 7.3594C7.89609 7.3594 7.99315 7.3537 8.09592 7.3537C8.30717 7.3537 8.48987 7.37653 8.64973 7.41649C8.80959 7.45646 8.95233 7.5364 9.08364 7.6563C8.7525 7.94748 8.39852 8.18727 8.0217 8.36997C7.64488 8.55267 7.25664 8.64401 6.86269 8.64401C6.49729 8.64401 6.15472 8.55837 5.835 8.38138C5.57237 8.25578 5.32686 8.02169 5.10991 7.68484C4.65315 6.98829 4.32772 6.60005 4.13931 6.5087C3.76249 6.72566 3.44276 7.08535 3.16871 7.57636C2.40365 8.94661 2.00971 9.64316 1.99258 9.67171C1.87268 9.74593 1.74136 9.78019 1.59292 9.78019C1.5187 9.78019 1.44448 9.76877 1.37596 9.74022C0.982015 9.47759 0.702255 9.12932 0.530973 8.70682C0.359691 8.28433 0.27976 7.81044 0.27976 7.29089C0.27976 6.86839 0.319725 6.46874 0.405366 6.08621C0.439623 6.09763 0.502426 6.12047 0.582358 6.15472C0.65658 6.17185 0.719383 6.16613 0.776477 6.12617C0.970596 6.0234 1.11333 5.87496 1.2161 5.66942C1.31887 5.46388 1.36454 5.14415 1.36454 4.71595C1.31887 4.74449 1.25607 4.82443 1.17043 4.95575C1.09049 5.08706 1.00485 5.17271 0.924922 5.20696C0.833571 5.24122 0.742221 5.2355 0.65658 5.17841C0.570939 5.12131 0.496717 5.05281 0.428204 4.96146C0.399657 4.79589 0.382529 4.67598 0.37111 4.60747C0.359692 4.53324 0.359691 4.43618 0.359691 4.30487C0.359691 3.95089 0.439623 3.43704 0.593777 2.76904C0.667999 2.44932 0.730802 2.15815 0.787896 1.88981C0.742221 1.9469 0.707965 2.0097 0.685127 2.08392C0.662289 2.15815 0.633743 2.2495 0.593777 2.35798C0.382529 2.94034 0.251213 3.33429 0.194119 3.53411C0.0685123 4.00229 0 4.41907 0 4.79589C0 5.00713 0.0228375 5.21838 0.0685126 5.43533C0.114188 5.65229 0.1827 5.8407 0.274051 6.00627C0.119897 6.55438 0.0399656 7.13102 0.0399656 7.7305C0.0399656 8.13016 0.0799315 8.52983 0.165572 8.91807C0.251213 9.30631 0.376819 9.65458 0.548101 9.96859C0.713674 10.1855 0.873537 10.3568 1.02769 10.4767C1.22752 10.6309 1.42735 10.7108 1.63289 10.7108C1.68998 10.7108 1.75849 10.6994 1.84984 10.6823C2.10677 10.4881 2.32372 10.2369 2.50642 9.92862C2.58065 9.80302 2.71767 9.50043 2.9175 9.02655C3.06594 8.64402 3.20868 8.34141 3.35712 8.12445C3.55124 7.82186 3.78533 7.59349 4.0708 7.43934C4.83586 8.41564 5.29832 8.96945 5.45247 9.09506C5.835 9.39765 6.24607 9.5461 6.6857 9.5461C7.17671 9.5461 7.64488 9.4262 8.0845 9.18069C8.52412 8.93519 8.89523 8.60976 9.19212 8.18727C9.29489 7.94176 9.3634 7.71909 9.40908 7.52497C9.45475 7.33085 9.47759 7.12531 9.47759 6.91407C9.47759 6.74278 9.45475 6.57151 9.40908 6.40594C9.3634 6.24037 9.29489 6.09192 9.20354 5.95489L9.19783 5.94348ZM2.7976 5.90351C2.83186 5.97773 2.83757 6.05766 2.80331 6.14901C2.76906 6.24036 2.74051 6.32599 2.71196 6.41164C2.63774 6.44589 2.57494 6.43449 2.51784 6.37168C2.50071 6.34314 2.46075 6.28032 2.40936 6.17755C2.39224 6.11475 2.38082 6.01769 2.38082 5.89208C2.38082 5.75505 2.39794 5.62946 2.42649 5.50956C2.46075 5.38966 2.51213 5.25264 2.58635 5.09848C2.52355 5.2926 2.4893 5.46959 2.4893 5.63517C2.4893 5.70939 2.495 5.78361 2.51213 5.86354C2.52355 5.94347 2.57494 6.0234 2.65487 6.11475L2.79189 5.90921L2.7976 5.90351ZM4.71596 10.0542C4.71596 10.3454 4.63032 10.5452 4.45333 10.6423C4.39052 10.6537 4.33914 10.6366 4.30488 10.5966C4.27063 10.5567 4.22495 10.4939 4.17928 10.4139C4.16786 10.3797 4.16786 10.3226 4.16786 10.2483C4.16786 9.96288 4.27063 9.68312 4.48187 9.39765C4.48187 9.45475 4.45333 9.55181 4.40194 9.70025C4.35056 9.8487 4.32201 9.96289 4.32201 10.0428C4.32201 10.1798 4.39052 10.2712 4.52755 10.3169C4.5618 10.2426 4.59035 10.1855 4.60748 10.1399C4.62461 10.0942 4.66457 10.0657 4.71596 10.0599V10.0542ZM3.01456 0.884949L2.71196 0.827851L2.76905 0.525254C2.80331 0.559511 2.86041 0.616609 2.93463 0.690832C2.96888 0.747925 2.99743 0.810727 3.01456 0.884949ZM2.53497 0.787899C2.45504 0.799318 2.38653 0.770762 2.32943 0.707959C2.34656 0.616609 2.38653 0.570939 2.45504 0.570939C2.51213 0.570939 2.53497 0.616609 2.53497 0.707959V0.787899ZM8.53554 6.43448C8.40993 6.4459 8.28433 6.4516 8.15872 6.46302C8.03311 6.47444 7.90751 6.47445 7.7819 6.47445C7.61062 6.47445 7.44505 6.45161 7.2966 6.40022C7.14816 6.34884 7.02255 6.2632 6.91978 6.14901C6.89124 6.08621 6.90836 6.01198 6.97688 5.93205C7.00542 5.9035 7.06823 5.85211 7.171 5.76647C7.26235 5.74934 7.33657 5.73793 7.38795 5.73793C7.61633 5.73793 7.83329 5.80645 8.03312 5.94348C8.17014 6.03483 8.34142 6.20039 8.54125 6.43448H8.53554Z" fill="white"/>
</svg>
