<svg width="20" height="12" viewBox="0 0 20 12" fill="none" xmlns="http://www.w3.org/2000/svg">
<path fill-rule="evenodd" clip-rule="evenodd" d="M13.69 0.765797C13.648 0.860211 13.6113 0.944134 13.5746 1.02806C13.5222 1.01232 13.4854 0.996598 13.4592 0.991353C13.3438 0.933656 13.2809 0.902177 13.2704 0.902177C13.1445 1.37425 13.0239 1.84107 12.9032 2.31314C12.8455 2.25544 12.7564 2.09284 12.6462 1.83582C12.5308 1.57356 12.4102 1.44768 12.2738 1.44768C12.0535 1.41621 11.9486 1.30607 11.9486 1.12248C11.9486 1.08052 11.9591 1.03331 11.9853 0.986103C11.9958 0.933651 12.0168 0.891694 12.0483 0.860223C12.1217 0.78679 12.2004 0.77629 12.2738 0.833987C12.3997 0.90742 12.5046 1.01757 12.5885 1.15919C12.6987 1.39522 12.8088 1.62602 12.9137 1.85156C12.9452 1.5316 12.9872 1.27983 13.0344 1.09625C13.0816 0.912665 13.1655 0.729083 13.2914 0.555991C13.3438 0.566482 13.3963 0.571737 13.454 0.582227C13.5641 0.613698 13.6376 0.676633 13.6795 0.771047L13.69 0.765797ZM13.9418 4.01259C13.9418 4.107 13.9208 4.21191 13.8788 4.3273C13.8369 4.4427 13.7844 4.5476 13.7162 4.64202C13.6218 4.67349 13.5431 4.66299 13.4697 4.60005C13.3963 4.5371 13.3491 4.49514 13.3228 4.46892C13.3124 4.42695 13.3124 4.36402 13.3124 4.2801C13.3124 4.13848 13.3333 4.0021 13.3701 3.87097C13.4068 3.73984 13.4697 3.6087 13.5536 3.47233C13.5536 3.51429 13.5379 3.6087 13.5012 3.75032C13.4697 3.89195 13.4487 3.98636 13.4487 4.02832C13.4487 4.16994 13.5117 4.27485 13.6376 4.34304C13.7215 4.35877 13.7739 4.31681 13.7949 4.21191C13.8159 4.107 13.8474 4.04406 13.8893 4.01784H13.9418V4.01259ZM9.47286 1.46865C9.47286 1.65224 9.4204 1.81484 9.3155 1.95122C9.2106 2.0876 9.06373 2.20823 8.88015 2.30789C8.81196 2.32363 8.75951 2.33413 8.71755 2.33413C8.53921 2.33413 8.4343 2.26069 8.40283 2.11907C8.40283 1.91975 8.43955 1.72043 8.51823 1.52636C8.57068 1.40047 8.6546 1.22738 8.78049 1.01232C8.78049 1.07002 8.75426 1.18017 8.70706 1.33752C8.6546 1.49488 8.63362 1.61553 8.63362 1.68896C8.63362 1.73092 8.63887 1.78338 8.6546 1.84108C8.66509 1.89877 8.7123 1.95647 8.78573 2.00368C8.86966 2.00368 8.95358 1.98269 9.03226 1.94597C9.11094 1.90925 9.19486 1.85157 9.27878 1.77814C9.27878 1.69421 9.20011 1.60503 9.04799 1.50537C8.89064 1.41096 8.8172 1.33754 8.8172 1.28508C8.8172 1.22739 8.8749 1.15395 8.99554 1.07003C9.10569 1.11199 9.20535 1.16444 9.30501 1.23263C9.39942 1.30082 9.46237 1.37425 9.48859 1.45817L9.47286 1.46865ZM17.304 9.27353C17.304 9.32599 17.2725 9.37844 17.2095 9.43614C17.1466 9.49383 17.0994 9.54104 17.0627 9.57252L13.7897 10.7684C13.7634 10.6688 13.8211 10.5796 13.968 10.4957C14.1096 10.417 14.1883 10.3698 14.2093 10.3488C15.1901 10.0393 16.2234 9.67743 17.304 9.2683V9.27353ZM7.04432 1.83582C7.04432 2.03514 6.99187 2.20824 6.89221 2.34986C6.83976 2.37609 6.7978 2.38657 6.76633 2.38657C6.6824 2.38657 6.61421 2.3446 6.55652 2.25544C6.50407 2.16627 6.45686 2.06661 6.42539 1.9617C6.42539 1.72567 6.45161 1.52111 6.50931 1.34277C6.56176 1.16444 6.65618 1.01757 6.78206 0.902177C6.72961 0.986101 6.68765 1.09101 6.65093 1.21689C6.61422 1.34278 6.59323 1.45816 6.59323 1.56831C6.59323 1.73616 6.6352 1.87254 6.71912 1.98269C6.76108 2.02465 6.80304 2.04563 6.84501 2.04563C6.88697 2.04563 6.91844 2.01417 6.93942 1.95647C6.9604 1.89877 6.97613 1.8568 6.98138 1.83057H7.04432V1.83582ZM20 6.67191C19.7797 6.65618 19.5804 6.64044 19.3916 6.61946C19.2027 6.60372 19.0664 6.57226 18.9824 6.5303C18.9824 5.9271 18.9352 5.23472 18.8356 4.45843C18.7411 3.68214 18.6467 2.93208 18.5523 2.21348L18.6782 1.90927C18.7307 1.93549 18.8198 2.0194 18.9562 2.16103C19.0559 2.27118 19.1555 2.33413 19.2447 2.34986L18.3373 0.173101C18.3058 0.225553 18.2376 0.309477 18.1379 0.435362C18.0016 0.629435 17.9386 0.792022 17.9386 0.928397C17.9386 0.996585 17.9491 1.0543 17.9753 1.10675C17.9753 1.57882 18.1012 2.71178 18.353 4.51614C18.4632 5.29767 18.5156 5.96906 18.5156 6.5303C18.1117 6.4726 17.6869 6.40441 17.2305 6.33098C16.7742 6.25754 16.4123 6.16838 16.1343 6.06872C16.2025 5.91661 16.2444 5.78547 16.2602 5.67007C16.2759 5.55468 16.2864 5.41831 16.2864 5.25046C16.2864 5.08262 16.2707 4.90953 16.2339 4.72594C16.2025 4.54761 16.1605 4.36926 16.1185 4.19092C16.0189 3.88145 15.9192 3.55101 15.8143 3.21007C15.7147 2.86388 15.6622 2.57016 15.6622 2.31839C15.6622 2.30266 15.6517 2.23971 15.6307 2.13481C15.6098 2.0299 15.5993 1.94598 15.5993 1.88828C15.5993 1.77813 15.636 1.7047 15.7147 1.66274C15.7724 1.69421 15.8301 1.75715 15.893 1.84108C15.9927 1.99843 16.0818 2.0876 16.1553 2.10334C16.1133 1.88304 16.0294 1.61553 15.9035 1.29557C15.5835 0.487806 15.4157 0.0576974 15.3999 0C15.2846 0.0944139 15.1849 0.220294 15.1115 0.388141C15.038 0.555988 14.9646 0.71859 14.8964 0.881192C14.9698 1.22738 15.1272 2.03514 15.3632 3.30973C15.5468 4.3273 15.7199 5.12458 15.8773 5.71205C15.615 5.75401 15.4052 5.78022 15.2373 5.79596C15.0695 5.80645 14.7863 5.81694 14.3929 5.81694H13.9418C13.8316 5.96905 13.753 6.11068 13.6953 6.2523C13.6428 6.38868 13.6113 6.54078 13.6113 6.69813C14.0729 6.69813 14.5607 6.74011 15.0695 6.82403C15.3947 6.87648 15.8563 6.97089 16.4542 7.11251C15.1797 7.65801 14.4978 7.9465 14.4138 7.98322C13.9837 8.15106 13.5746 8.28744 13.1865 8.39759C12.7983 8.50774 12.4416 8.58642 12.1164 8.63887C11.7912 8.69132 11.4503 8.71231 11.0884 8.71231C10.5744 8.71231 10.0708 8.64412 9.56727 8.51299C9.35746 8.42906 9.18437 8.29792 9.04275 8.12483C8.90637 7.94649 8.81196 7.75243 8.77 7.53214C9.72463 7.22267 10.6897 6.90795 11.6549 6.58799C11.8122 6.51455 11.9381 6.38868 12.0325 6.22083C12.1269 6.05299 12.1899 5.86415 12.2213 5.65434C12.1899 5.67008 12.1532 5.65959 12.1217 5.62287C12.0902 5.58615 12.064 5.55993 12.0483 5.55468C11.0307 5.28717 10.2701 5.10359 9.7561 5.01442C8.90637 4.85707 8.1091 4.77315 7.36428 4.77315C7.08628 4.77315 6.80829 4.78364 6.53554 4.80987C6.26803 4.87806 6.032 5.01967 5.83268 5.22948C5.63336 5.44453 5.49698 5.69105 5.4288 5.96381C5.41831 5.99528 5.41831 6.04249 5.41831 6.10019C5.41831 6.31 5.50747 6.54078 5.69106 6.78731C5.86939 7.03383 6.17362 7.29609 6.59323 7.57409C6.5198 7.60556 6.39392 7.6685 6.22607 7.75243C6.08969 7.81012 5.96905 7.85734 5.8589 7.88881C5.50747 8.0042 5.18752 8.15106 4.90428 8.3294C4.54236 8.55495 4.07553 8.9326 3.49331 9.46237C2.97928 9.92395 2.60687 10.2439 2.37084 10.417C1.94073 10.737 1.53685 10.9677 1.1487 11.1094C0.991345 11.0936 0.844479 11.0569 0.708104 11.0045C0.571728 10.952 0.466824 10.8733 0.382901 10.7737C0.283242 10.5534 0.230789 10.3436 0.230789 10.1338C0.230789 9.99214 0.24128 9.86625 0.267506 9.7561C0.293732 9.64595 0.314713 9.56203 0.335694 9.49909C0.356674 9.43615 0.451088 9.16339 0.618935 8.67559C0.687123 8.49201 0.73433 8.35038 0.755311 8.24548C0.435353 8.90637 0.267506 9.26304 0.25177 9.30501C0.0839234 9.72462 0 10.1023 0 10.438C0 10.7422 0.0734329 11.0307 0.215054 11.3087C0.367165 11.4503 0.508786 11.5552 0.645161 11.6234C0.781537 11.6916 0.928403 11.7231 1.08576 11.7231C1.18542 11.7231 1.29032 11.7021 1.40047 11.6601C1.74666 11.5185 2.12431 11.2825 2.53344 10.9573C2.87962 10.6635 3.22581 10.3698 3.57724 10.0761C4.02308 9.6984 4.385 9.41516 4.65775 9.23158C5.06163 8.95358 5.44978 8.75951 5.82743 8.63887C6.0792 8.52347 6.33622 8.39758 6.59323 8.2717C6.77157 8.19826 6.91844 8.1563 7.03383 8.1563C7.14923 8.1563 7.25413 8.18778 7.33805 8.24548V8.1091C7.33805 8.04091 7.34855 7.99371 7.36428 7.97273C7.74194 7.83111 7.99895 7.74193 8.13008 7.69997C8.26646 7.66325 8.41332 7.63179 8.58117 7.60556V7.9937C8.58117 8.13008 8.59166 8.26646 8.6074 8.40808C8.62313 8.5497 8.65985 8.67034 8.70706 8.77525C8.84343 9.05325 9.04799 9.2578 9.32599 9.39418C9.54629 9.49384 9.79806 9.56203 10.0813 9.5935C10.3645 9.62497 10.6163 9.64596 10.8261 9.64596C11.3611 9.64596 11.8961 9.57252 12.4259 9.4309C12.7616 9.34698 13.1078 9.23683 13.4592 9.1057C13.711 9.01129 14.0467 8.87491 14.4663 8.69132C14.7181 8.59166 14.9698 8.48676 15.2216 8.37661C15.6727 8.19302 16.0923 8.04091 16.4805 7.91503C16.8686 7.79439 17.2253 7.70522 17.5505 7.64228C17.8757 7.58458 18.2429 7.5531 18.6467 7.5531C18.673 7.73144 18.6835 7.89929 18.6835 8.06714C18.6835 8.35038 18.6625 8.63886 18.6153 8.92735C18.5681 9.21584 18.5104 9.47286 18.4317 9.70365C18.5733 9.46761 18.6782 9.24207 18.7464 9.02177C18.8146 8.80148 18.9038 8.37137 19.0087 7.72621C18.9982 7.69998 18.9982 7.67375 18.9982 7.63703C18.9982 7.52688 19.0611 7.47443 19.187 7.47443C19.2185 7.47443 19.2919 7.48491 19.4073 7.50065C19.5227 7.51639 19.5961 7.51639 19.6276 7.50065C19.6853 7.41673 19.743 7.27512 19.7954 7.07055C19.8479 6.87124 19.9161 6.73485 19.9895 6.66666L20 6.67191ZM4.10176 0.980852L4.02832 1.29557C3.97063 1.26934 3.91293 1.24836 3.86572 1.23263C3.81327 1.21689 3.77131 1.20639 3.72935 1.20639C3.68739 1.20639 3.65591 1.21689 3.64018 1.23263C3.59822 1.35851 3.55626 1.59979 3.50905 1.95122C3.46184 2.30265 3.39365 2.55966 3.29924 2.71702C3.14188 2.44951 2.97928 2.17676 2.82192 1.89876C2.6803 1.74141 2.49672 1.65749 2.28167 1.65749C2.27118 1.63126 2.27118 1.58931 2.27118 1.53161C2.27118 1.46342 2.28691 1.38474 2.32363 1.30082C2.3551 1.21165 2.38133 1.14871 2.39706 1.10675C2.42853 1.07528 2.47574 1.06478 2.52819 1.08051C2.58065 1.09625 2.6331 1.12248 2.67506 1.15395C2.81143 1.27984 2.93732 1.45818 3.05271 1.69421C3.23105 2.0299 3.33071 2.21872 3.35694 2.26069C3.35694 1.94073 3.38841 1.66798 3.44611 1.44243C3.5038 1.21689 3.61395 1.01757 3.77131 0.849722C3.8395 0.823496 3.90244 0.828752 3.96014 0.860223C4.02832 0.91792 4.07553 0.954637 4.11225 0.975618L4.10176 0.980852ZM10.396 10.6635C10.2019 10.8471 9.99213 10.994 9.76659 11.0989C9.54105 11.2038 9.29452 11.2562 9.0375 11.2562C8.85917 11.2562 8.69657 11.2248 8.54445 11.1671C8.47102 11.1146 8.42906 11.0359 8.42906 10.9258C8.42906 10.8943 8.43955 10.8576 8.45529 10.8261C8.52347 10.716 8.61264 10.6163 8.71755 10.5219C8.74902 10.4904 8.85917 10.4065 9.04275 10.2806C8.94833 10.2072 8.83819 10.1652 8.70181 10.1652H8.62838C8.59691 10.181 8.57592 10.1914 8.56543 10.1914C8.5497 10.1495 8.56543 10.1023 8.62313 10.0551C8.67558 10.0026 8.72804 9.96066 8.78049 9.9187C8.96407 9.86625 9.1529 9.91871 9.34697 10.0708C9.34697 10.1967 9.23682 10.3278 9.01128 10.4694C8.79098 10.6058 8.67558 10.7002 8.67558 10.7527C8.67558 10.8209 8.75426 10.8891 8.91686 10.952C9.05324 10.9677 9.14241 10.9782 9.19486 10.9782C9.38893 10.9782 9.58825 10.9468 9.79806 10.8786C10.0656 10.7789 10.2649 10.7055 10.3908 10.6635H10.396ZM3.93916 3.29924C3.93916 3.43562 3.90244 3.54053 3.82376 3.61396H3.58248C3.30448 3.61396 3.08943 3.63493 2.93207 3.68213C2.77472 3.72934 2.65408 3.8395 2.55966 4.01784C2.59114 4.25387 2.66457 4.55285 2.77472 4.92526C2.92683 5.45503 3.016 5.7645 3.03698 5.85891C3.10517 6.15264 3.13664 6.43063 3.13664 6.68765C3.13664 7.0653 3.05796 7.41148 2.89536 7.73144C2.98977 7.49541 3.03173 7.24363 3.03173 6.97613C3.03173 6.75583 3.00551 6.54078 2.94781 6.32048C2.89536 6.10018 2.81668 5.84842 2.71702 5.56518C2.61736 5.28194 2.53868 5.03541 2.49148 4.83609C2.43902 4.63677 2.41804 4.44269 2.41804 4.25911C2.41804 4.03881 2.4705 3.829 2.58065 3.61919C2.69079 3.51954 2.81668 3.43562 2.96355 3.36743C3.11041 3.29925 3.26252 3.26777 3.42512 3.26777C3.35169 3.15762 3.22581 3.11041 3.05796 3.13139C3.00551 3.1209 2.95306 3.14189 2.89536 3.18385C2.83766 3.22581 2.7957 3.24679 2.76947 3.24679C2.7957 3.03698 2.89536 2.88488 3.0737 2.79571C3.25203 2.76948 3.41463 2.81144 3.56675 2.92159C3.66116 2.98978 3.7818 3.1209 3.93391 3.30973L3.93916 3.29924ZM4.51613 6.98663C4.54236 7.09678 4.53186 7.20693 4.4899 7.31183C4.44794 7.42198 4.37975 7.52689 4.29059 7.62655C4.2224 7.65277 4.16995 7.64227 4.12798 7.60031C4.08602 7.55835 4.04406 7.46918 4.0021 7.33805C3.98636 7.19643 3.99161 7.0758 4.01259 6.97089C4.03882 6.87123 4.11749 6.61946 4.25387 6.21558C4.25387 6.28377 4.23813 6.39392 4.20142 6.55652C4.16995 6.71387 4.14896 6.83976 4.14896 6.93417C4.14896 7.09153 4.19617 7.22266 4.28534 7.32231C4.33779 7.30658 4.37975 7.2384 4.42172 7.12301C4.43745 7.07056 4.46892 7.02859 4.51088 6.98663H4.51613ZM8.03042 10.2859L7.55311 10.9887C7.52164 10.9625 7.39051 10.9048 7.16496 10.8104C6.845 10.674 6.68765 10.5324 6.68765 10.3803C6.69814 10.3698 6.77682 10.2544 6.92893 10.0288C7.02859 9.87674 7.12825 9.80331 7.21741 9.80331C7.22791 9.80331 7.25413 9.81379 7.30658 9.82953C7.35904 9.861 7.47443 9.92395 7.65277 10.0184C7.8311 10.1128 7.96223 10.1967 8.03567 10.2806L8.03042 10.2859ZM10.7002 6.13166C10.459 6.21558 9.89247 6.39392 9.01128 6.67191C8.31366 6.89221 7.75243 7.08103 7.32232 7.23839C7.24889 6.98662 7.01285 6.74535 6.61946 6.51456C6.22607 6.28377 5.97954 6.05823 5.89038 5.84318C6.11592 5.76974 6.34671 5.71205 6.58274 5.68058C6.81878 5.6491 7.04957 5.62812 7.27511 5.62812C8.41857 5.79597 9.55678 5.96381 10.7002 6.13166Z" fill="white"/>
</svg>
