<svg width="20" height="12" viewBox="0 0 20 12" fill="none" xmlns="http://www.w3.org/2000/svg">
<path fill-rule="evenodd" clip-rule="evenodd" d="M19.9951 2.64317C19.9951 2.64317 19.9462 2.68722 19.9266 2.70191C19.8581 2.66275 19.7993 2.59422 19.7504 2.50122C19.6427 2.26628 19.5644 2.13412 19.5154 2.09985L19.4322 2.22712C19.4322 2.58933 19.5301 3.37249 19.7259 4.58639C19.8287 5.21292 19.8776 5.6975 19.8776 6.04503C19.9266 6.46598 19.9462 6.89183 19.9462 7.31278C19.9462 7.76799 19.9119 8.19383 19.8483 8.58541C19.7797 8.98189 19.6721 9.37347 19.5154 9.76505H19.4909C19.4909 8.8742 19.4518 7.94909 19.3784 6.99462C19.3049 6.04014 19.2022 4.98776 19.0651 3.8326C18.8448 1.92364 18.7372 0.954479 18.7372 0.930005C18.791 0.788057 18.8448 0.646109 18.9036 0.494371C18.9721 0.337739 19.0602 0.220264 19.163 0.141948C19.3735 0.699951 19.5252 1.11111 19.6231 1.37543C19.7944 1.84533 19.9217 2.26628 20 2.63338L19.9951 2.64317ZM15.5751 0C15.4821 0.107685 15.35 0.20558 15.1884 0.293686C15.0612 0.357318 14.9046 0.42095 14.7186 0.489476C14.5325 0.558003 14.3857 0.606951 14.2829 0.636319C14.1018 0.699951 13.955 0.763583 13.8375 0.82232C13.9158 0.695056 14.0186 0.597161 14.141 0.518845C14.2682 0.440529 14.4249 0.367107 14.6207 0.293686L15.5702 0L15.5751 0ZM15.6094 1.4929C15.5017 1.65932 15.3059 1.80127 15.022 1.92854C14.7871 2.03133 14.557 2.13412 14.327 2.23201C14.3123 2.17817 14.3319 2.11454 14.3906 2.03622C14.4493 1.9628 14.513 1.91385 14.5864 1.88938C14.4591 1.82575 14.3857 1.78169 14.3612 1.76211C14.2927 1.70827 14.2389 1.63485 14.2095 1.55164C14.2584 1.4048 14.327 1.26774 14.4151 1.15027C14.5032 1.03279 14.6109 0.964268 14.7381 0.939794C14.9094 0.939794 15.0269 1.00832 15.0906 1.15027C15.0906 1.19922 15.071 1.24816 15.0318 1.29711C14.9927 1.34606 14.9486 1.4048 14.9046 1.46843C14.9143 1.41948 14.8997 1.38032 14.8654 1.34606C14.8311 1.3118 14.7822 1.26774 14.7186 1.22369C14.6011 1.20901 14.513 1.24327 14.4591 1.33138C14.606 1.54185 14.8018 1.64953 15.0465 1.64953C15.0857 1.64953 15.1346 1.63975 15.1982 1.62506C15.2912 1.5859 15.3696 1.55653 15.4332 1.53206C15.4968 1.50759 15.5556 1.4978 15.6094 1.4978V1.4929ZM17.6897 6.42682C17.6897 5.87861 17.626 5.24719 17.5037 4.53745C17.4156 4.05776 17.2932 3.47039 17.1268 2.77533C17.1268 2.76065 17.0974 2.6187 17.0436 2.35438C17.0289 2.27606 17.0191 2.19285 17.0191 2.10964C17.0191 2.00196 17.0485 1.90406 17.1023 1.81596C17.1659 1.90406 17.2394 1.99217 17.3324 2.08027C17.4205 2.16838 17.5037 2.23691 17.5722 2.27606L17.6407 2.2418C17.5477 1.91385 17.4009 1.55653 17.2051 1.16495C17.0093 0.778267 16.8233 0.401371 16.6422 0.0440529C16.5394 0.11258 16.4562 0.249633 16.3975 0.445423C16.3681 0.548213 16.3191 0.695056 16.2555 0.890847C16.2849 1.03769 16.4856 2.03622 16.8527 3.87665C17.0191 4.69897 17.1415 5.29124 17.2296 5.64856C17.2687 5.87371 17.3079 6.11845 17.3519 6.37788C17.396 6.6373 17.4156 6.85756 17.4156 7.04846C17.4156 7.25893 17.3862 7.45472 17.3275 7.63583C17.2687 7.81694 17.1708 7.96867 17.0387 8.09594C17.0289 8.01762 17.024 7.9393 17.0142 7.86099C17.0142 7.83162 17.0142 7.78757 17.024 7.73373V7.50857C17.024 7.22467 16.9897 6.94567 16.9261 6.66667C16.8576 6.38767 16.7695 6.13314 16.652 5.89819C16.5051 5.6094 16.3289 5.3304 16.1233 5.06608C15.952 4.84582 15.7269 4.59618 15.4528 4.31229C14.9535 3.8277 14.4493 3.34312 13.9501 2.85365C13.6466 2.56486 13.4019 2.31522 13.2208 2.11454C12.976 1.84043 12.7704 1.57611 12.5991 1.31669C12.6236 1.29222 12.653 1.28243 12.6921 1.28243C12.7068 1.28243 12.7509 1.29711 12.8292 1.32159C12.9026 1.35095 12.9613 1.34606 13.0005 1.31669C12.8732 1.14537 12.6579 0.959373 12.3544 0.763583C11.9922 0.528634 11.767 0.367107 11.674 0.283896C11.6055 0.401371 11.5565 0.518845 11.5272 0.641214C11.4978 0.763583 11.488 0.905531 11.488 1.07195L12.3446 2.18796C12.5795 2.49143 12.8439 2.79491 13.1424 3.09349C13.2991 3.25012 13.4802 3.42144 13.6809 3.61233L15.1493 4.98776C15.4087 5.24719 15.629 5.48703 15.8052 5.71708C16.0157 5.97651 16.2017 6.23103 16.3583 6.48067C16.5443 6.80372 16.6862 7.09741 16.7744 7.37151C16.8625 7.64562 16.9114 7.9442 16.9114 8.26236C16.5443 8.68331 16.0597 9.06999 15.4674 9.41263C14.929 9.68674 14.3906 9.96084 13.8571 10.2349C14.327 10.2349 14.7626 10.1909 15.1689 10.0979C15.5702 10.0098 15.9422 9.85316 16.28 9.63289C16.8037 9.29026 17.1806 8.82036 17.4058 8.2232C17.5918 7.73862 17.6897 7.14146 17.6897 6.43661V6.42682ZM11.0083 2.10475C10.9936 2.29075 10.9153 2.46207 10.7783 2.6138C10.6412 2.76554 10.4748 2.87812 10.279 2.94665C10.186 2.94665 10.1077 2.91238 10.0441 2.83896C10.0196 2.80959 9.99511 2.76065 9.96084 2.69701C9.96084 2.54038 9.9951 2.38375 10.0685 2.22712C10.1175 2.12433 10.1958 1.98238 10.3133 1.80617L10.3377 1.8649L10.4063 1.73764C10.514 1.78659 10.6314 1.82575 10.7489 1.8649C10.8762 1.91875 10.9594 1.99706 11.0083 2.09985V2.10475ZM6.86246 1.70338C6.87714 1.78169 6.87225 1.8649 6.83798 1.94812C6.78414 2.0558 6.74498 2.13412 6.72051 2.18306C6.61772 2.31522 6.51982 2.35928 6.42682 2.31033C6.3583 2.19285 6.31914 2.04601 6.31914 1.87469C6.31914 1.70338 6.3534 1.52227 6.42682 1.33627C6.45619 1.25795 6.5394 1.09153 6.67156 0.841899C6.64219 0.905531 6.60303 0.998532 6.56388 1.1258C6.50024 1.3118 6.47088 1.48801 6.47088 1.64464C6.47088 1.80127 6.50024 1.93343 6.55409 2.04601C6.62261 2.03133 6.68625 1.97259 6.74009 1.87469C6.79393 1.7768 6.83309 1.71806 6.85756 1.70338H6.86246ZM4.81645 2.10475C4.78708 2.30054 4.72345 2.49143 4.63045 2.68233C4.49829 2.92707 4.40039 3.10328 4.33676 3.21096H4.28781C4.41997 3.00538 4.52276 2.79001 4.60108 2.56486C4.6745 2.3397 4.71366 2.10475 4.71366 1.86001C4.71366 1.61527 4.6696 1.3999 4.58639 1.20411C4.58639 1.1258 4.53744 1.01811 4.43955 0.881057C4.34165 0.744004 4.29271 0.646109 4.29271 0.592266C4.29271 0.51395 4.33676 0.445423 4.41997 0.381791C4.55213 0.553108 4.66471 0.753793 4.74792 0.974058C4.83603 1.19922 4.87518 1.42438 4.87518 1.64953C4.87518 1.83064 4.8556 1.98238 4.81645 2.10964V2.10475ZM14.9682 6.87225C14.7332 7.00441 14.3612 7.23446 13.8522 7.55262C13.069 7.99315 12.3886 8.20852 11.8062 8.20852C11.5859 8.20852 11.3754 8.17915 11.1698 8.12531C10.9643 8.07146 10.7685 7.97846 10.5727 7.84141C10.2888 7.60646 10.1028 7.33235 10.0049 7.02398C9.907 6.71561 9.85805 6.33872 9.85805 5.90308C10.2007 5.65345 10.5825 5.48213 11.0034 5.39403C11.4244 5.30592 11.8943 5.25698 12.418 5.25698C12.5208 5.26676 12.7509 5.31082 13.118 5.39403C13.4802 5.47724 13.6858 5.54087 13.7249 5.58982C13.5291 5.25208 13.255 4.99755 12.9075 4.82624C12.56 4.65492 12.1831 4.56681 11.7866 4.56681C11.6202 4.56681 11.4635 4.5766 11.3069 4.60108C10.8762 4.6696 10.4846 4.86539 10.1371 5.18355C9.78953 5.50171 9.535 5.86882 9.37837 6.29466C9.36858 6.34851 9.35879 6.42193 9.349 6.51982C9.33921 6.61282 9.32942 6.70093 9.32942 6.77925C9.32942 7.09251 9.37347 7.39599 9.45668 7.68478C9.54479 7.97357 9.66716 8.23299 9.83358 8.45815C9.77974 8.45815 9.71121 8.44347 9.63289 8.4092C9.55458 8.37983 9.50073 8.36025 9.46647 8.35046C9.20215 8.21831 8.98678 8.02741 8.82036 7.78267C8.65394 7.53793 8.55604 7.27362 8.51689 6.98972C8.51689 6.38767 8.49241 5.65835 8.44836 4.80666C8.39941 3.95497 8.35536 3.09838 8.31131 2.2418C8.26725 1.38522 8.24767 0.651003 8.24767 0.0391581C8.14489 0.0930005 8.06167 0.19579 8.00294 0.342633C7.97357 0.42095 7.91973 0.548213 7.8512 0.71953C7.8512 1.16006 7.87078 1.72785 7.91483 2.4327C7.95888 3.13754 7.99804 3.81302 8.0372 4.45423C8.07636 5.09545 8.09594 5.71219 8.09594 6.29956C7.7533 6.64219 7.30788 6.9163 6.76946 7.12188C6.45619 7.23935 5.94714 7.3862 5.24229 7.55751C5.16397 7.69946 5.08566 7.84141 5.01224 7.98825C4.93882 8.1351 4.89966 8.27215 4.89966 8.40431C5.73177 8.40431 6.45619 8.60989 7.08272 9.02594C6.36809 9.52521 5.67792 9.91679 5.00245 10.2007C4.25844 10.514 3.48997 10.7048 2.70191 10.7783C2.2467 10.7783 1.84043 10.6951 1.47332 10.5335C1.11111 10.3671 0.82232 10.1126 0.611845 9.76016C0.509055 9.54968 0.460108 9.31963 0.460108 9.07978C0.460108 8.79589 0.548213 8.43368 0.72932 7.98825C0.82232 7.7533 0.959373 7.42535 1.14048 6.99951C1.2188 6.85267 1.3069 6.69604 1.3999 6.52961C1.4929 6.36319 1.61038 6.28488 1.75232 6.28488C1.7768 6.28488 1.82085 6.29466 1.87959 6.30935C2.0607 6.16251 2.20264 5.94224 2.31522 5.65345C2.35438 5.56045 2.4278 5.31082 2.54038 4.91434C2.47675 4.93882 2.40822 5.03182 2.32991 5.18845C2.25159 5.34998 2.14391 5.4185 2.01175 5.39403C1.87959 5.22761 1.78659 5.07097 1.73764 4.92413C1.68869 4.77729 1.65932 4.60597 1.65932 4.41997C1.65932 4.01371 1.85022 3.47039 2.23691 2.78512C2.54038 2.2467 2.7068 1.95301 2.73128 1.90406C2.47186 2.20754 2.28585 2.44249 2.16838 2.60891C1.81596 3.09349 1.55164 3.53891 1.37543 3.95007C1.19922 4.35634 1.11111 4.74302 1.11111 5.10034C1.11111 5.28634 1.13559 5.46255 1.18943 5.62898C1.23838 5.7954 1.31669 5.94714 1.41948 6.08908C0.841899 7.23935 0.528634 7.86588 0.479687 7.96867C0.298581 8.37494 0.161527 8.77631 0.0685266 9.16789C0.019579 9.35389 0 9.535 0 9.70631C0 10.279 0.21537 10.744 0.646109 11.1062C0.944689 11.3167 1.23348 11.4635 1.50759 11.5467C1.78659 11.63 2.09496 11.6691 2.44249 11.6691C3.05433 11.6691 3.75918 11.5027 4.55702 11.165C4.92413 11.0083 5.57024 10.6853 6.49535 10.1909C6.8233 10.0343 7.09251 9.77484 7.30788 9.41752C7.4743 9.14342 7.61136 8.80078 7.71904 8.39452C7.65541 8.23789 7.51836 8.11062 7.30788 8.01762C7.0093 7.88546 6.84777 7.80715 6.81351 7.78267C7.07783 7.65541 7.31278 7.51836 7.51836 7.36172C7.76799 7.17572 7.95399 6.97993 8.07146 6.77435C8.11062 7.1023 8.15467 7.43025 8.19873 7.76309C8.30152 8.44347 8.55115 8.91336 8.95252 9.17278C9.19726 9.31473 9.4371 9.41263 9.67695 9.46647C9.91679 9.52031 10.1664 9.54968 10.4356 9.54968C10.8566 9.54968 11.3118 9.48116 11.7964 9.33921C12.1488 9.23642 12.5697 9.07979 13.0543 8.86931C13.3431 8.73715 13.6123 8.59031 13.8669 8.43368C14.1557 8.24767 14.3906 8.05188 14.5717 7.85609L14.9829 6.89183L14.9682 6.87225ZM13.2159 10.9006C13.0103 11.0671 12.7998 11.1943 12.5795 11.2922C12.3593 11.3901 12.139 11.4391 11.909 11.4391C11.6789 11.4391 11.488 11.3852 11.2971 11.2726C11.258 11.2335 11.2384 11.1747 11.2384 11.0964C11.2384 11.0328 11.258 10.9741 11.2971 10.9202C11.4048 10.8027 11.5174 10.6853 11.6251 10.5678C11.537 10.5188 11.4782 10.4699 11.4391 10.4161C11.3999 10.3622 11.3803 10.3084 11.3803 10.2643C11.3803 10.2203 11.4146 10.1713 11.488 10.1224C11.5761 10.0343 11.6397 9.97553 11.6887 9.94616C11.767 9.89231 11.8453 9.86295 11.9236 9.86295C11.9775 9.86295 12.0313 9.88742 12.0754 9.93147C12.0754 9.98042 12.0558 10.0196 12.0166 10.0538C11.9775 10.0881 11.9383 10.1273 11.8992 10.1664C11.86 10.1811 11.8209 10.1713 11.7866 10.1371C11.7523 10.1028 11.7132 10.1028 11.674 10.1419C11.7425 10.2496 11.8404 10.3084 11.9579 10.3084C12.0264 10.3084 12.1145 10.2888 12.2222 10.2496C12.3299 10.2105 12.3984 10.1909 12.4278 10.1909C12.3886 10.279 12.1782 10.4161 11.7915 10.6118C11.6251 10.7 11.5467 10.7783 11.5467 10.8566C11.5467 10.9349 11.5908 11.0181 11.674 11.1013C11.7915 11.1258 11.9139 11.1356 12.0362 11.1356C12.2614 11.1356 12.511 11.1013 12.7753 11.0279C12.8781 11.0034 13.0201 10.9594 13.211 10.886L13.2159 10.9006ZM4.96818 4.89966C4.98287 4.97797 4.98287 5.0465 4.96329 5.11013C4.94371 5.17376 4.90455 5.19824 4.85071 5.19334C4.79687 5.1444 4.74303 5.09545 4.69897 5.04161C4.64513 4.99266 4.58639 4.96329 4.52276 4.94861C4.50808 5.00245 4.49339 5.09055 4.4885 5.20803C4.47871 5.3255 4.47871 5.4185 4.47871 5.49192V5.63387C4.47871 5.92266 4.45913 6.12335 4.41508 6.23103C4.37102 6.33872 4.2976 6.43172 4.18502 6.50024C4.17523 6.49046 4.10671 6.30935 3.97455 5.94714C3.88644 5.72687 3.75428 5.63877 3.57318 5.67792C3.47039 5.64856 3.41165 5.6045 3.39697 5.55066C3.41165 5.44298 3.42633 5.3304 3.44591 5.22271C3.47528 5.10524 3.5536 5.03671 3.67107 5.01224C3.8277 5.10524 3.96965 5.33529 4.09202 5.69261C4.16055 5.8884 4.23886 6.03524 4.31718 6.12824C4.31718 5.6975 4.32697 5.38424 4.34655 5.18355C4.36613 4.98287 4.43955 4.79197 4.56192 4.61576C4.65002 4.64023 4.72834 4.6745 4.80666 4.72345C4.88497 4.77239 4.93882 4.83113 4.97308 4.90945L4.96818 4.89966ZM3.02007 8.27215C3.02007 8.54626 2.92217 8.76162 2.72638 8.91826C2.65786 8.93294 2.59912 8.90847 2.55017 8.83505C2.50122 8.74205 2.47185 8.67841 2.46207 8.64905C2.45228 8.61968 2.44249 8.56583 2.44249 8.49731C2.44249 8.34068 2.46207 8.19873 2.50612 8.07636C2.55017 7.94909 2.62359 7.81204 2.72149 7.65541C2.7068 7.71904 2.68233 7.81204 2.65296 7.9442C2.62359 8.07146 2.60401 8.17425 2.60401 8.24278C2.60401 8.38962 2.65296 8.51199 2.74596 8.60499C2.7998 8.59031 2.84386 8.55115 2.86833 8.49241C2.8977 8.43368 2.92707 8.36025 2.96623 8.27704H3.01517L3.02007 8.27215ZM10.7146 2.4327C10.7538 2.34459 10.7391 2.28096 10.6657 2.23201C10.5335 2.16349 10.4014 2.08517 10.279 2.00685L10.2301 2.09985C10.1909 2.17817 10.1713 2.26628 10.1713 2.35928C10.1713 2.47675 10.2056 2.55507 10.279 2.59422C10.372 2.6187 10.465 2.59422 10.5482 2.53549C10.6363 2.47186 10.6902 2.43759 10.7146 2.4278V2.4327Z" fill="white"/>
</svg>
