<svg width="20" height="9" viewBox="0 0 20 9" fill="none" xmlns="http://www.w3.org/2000/svg">
<path fill-rule="evenodd" clip-rule="evenodd" d="M20 1.70683C19.9485 1.68476 19.8933 1.62958 19.8418 1.54866C19.7719 1.4383 19.7204 1.36472 19.691 1.3353C19.691 1.78775 19.7131 2.28435 19.7609 2.81773C19.8308 3.49458 19.886 4.00221 19.9191 4.34431C19.9559 4.68641 19.9706 5.05426 19.9706 5.44786C19.9706 5.80099 19.9485 6.11735 19.9044 6.39692C19.8602 6.67648 19.7793 6.96708 19.6616 7.26504L19.7241 6.05482L19.1944 0.706277C19.176 0.658456 19.1687 0.610634 19.1687 0.566492C19.1687 0.470851 19.2018 0.371529 19.2643 0.264852C19.3048 0.194961 19.3747 0.106676 19.4666 0C19.5843 0.242781 19.691 0.518672 19.783 0.831344C19.8602 1.08884 19.9301 1.38312 19.9963 1.70683H20ZM17.1234 1.2838C17.0756 1.42359 16.9432 1.54865 16.7261 1.65532C16.4098 1.80982 16.2259 1.90179 16.178 1.93858C16.1964 1.85765 16.2222 1.78775 16.2516 1.73625C16.2847 1.68475 16.3325 1.64429 16.3987 1.62222C16.3509 1.60383 16.3068 1.58176 16.2626 1.55233C16.2185 1.5229 16.1744 1.49347 16.1339 1.46405C16.2111 1.21759 16.3583 1.02998 16.5753 0.90859C16.6342 0.879162 16.6894 0.901238 16.7445 0.971129C16.7666 1.00791 16.7923 1.03733 16.8144 1.06676C16.785 1.11826 16.7556 1.17345 16.7261 1.22495C16.6967 1.25437 16.6636 1.26173 16.6305 1.24333C16.6305 1.22494 16.6158 1.20656 16.59 1.18081C16.5643 1.15506 16.5459 1.14034 16.5312 1.1293C16.4907 1.14034 16.4502 1.16241 16.4135 1.19551C16.3767 1.22862 16.3509 1.2507 16.3399 1.26173C16.3767 1.32059 16.4245 1.35737 16.4907 1.37577C16.5569 1.39416 16.6489 1.40887 16.774 1.41991L17.1271 1.28747L17.1234 1.2838ZM17.2485 1.68843C17.1676 1.74729 17.0682 1.79879 16.9579 1.83925C16.8917 1.86132 16.796 1.89811 16.6673 1.94961C16.5385 2.00111 16.4355 2.05996 16.3583 2.12985C16.281 2.19975 16.2332 2.28803 16.2075 2.39471C16.2737 2.32849 16.3399 2.28067 16.4098 2.24389C16.5275 2.19239 16.6452 2.13721 16.7666 2.08571C16.888 2.03421 16.9873 1.97536 17.0682 1.91282C17.1492 1.85029 17.208 1.77671 17.2485 1.68843ZM18.4035 1.61854C18.352 1.35369 18.2748 1.08516 18.1755 0.816627C18.0688 0.562811 17.9658 0.308996 17.8665 0.0478223C17.7892 0.0956428 17.7193 0.187601 17.6531 0.331063C17.6237 0.408311 17.5759 0.518667 17.5133 0.665807C17.5538 0.687878 17.5832 0.724667 17.6016 0.772487C17.62 0.820308 17.6237 0.868129 17.609 0.923307L18.1387 5.03587C18.146 5.13151 18.1497 5.22347 18.1571 5.31544C18.1644 5.4074 18.1644 5.50304 18.1644 5.60236C18.1644 5.73846 18.1497 5.85985 18.1166 5.97021C18.0835 6.08056 18.0283 6.16885 17.9437 6.23874C17.9621 6.13207 17.9695 6.02538 17.9695 5.92239C17.9695 5.61707 17.8959 5.31176 17.7488 5.00276C17.631 4.7563 17.4545 4.49513 17.2191 4.21557C16.9616 3.93968 16.7004 3.66012 16.4429 3.37687C16.1486 3.05316 15.9205 2.75887 15.7624 2.49402C15.6263 2.33585 15.4902 2.174 15.3577 2.00847C15.1002 1.68476 14.9421 1.39416 14.8906 1.13298C14.9126 1.11091 14.9421 1.0962 14.9715 1.0962C15.0009 1.0962 15.0451 1.11826 15.1039 1.15873C15.1628 1.19919 15.2069 1.22126 15.2363 1.22126C15.2658 1.22126 15.2952 1.20655 15.3246 1.17712V1.13665C15.3246 1.11458 15.3173 1.10355 15.3062 1.0962L15.3246 1.12195L15.2878 1.15873C14.9273 0.816625 14.5705 0.474525 14.21 0.136103C14.1622 0.205994 14.1328 0.294286 14.1218 0.397284C14.1107 0.500282 14.096 0.6327 14.0776 0.790875C14.2726 1.13665 14.4565 1.45301 14.6331 1.73625C14.8391 2.06732 15.0487 2.37632 15.2584 2.66324C15.446 2.92809 15.6814 3.22605 15.9647 3.55343C16.1302 3.74839 16.3804 4.03164 16.7151 4.41053C17.0204 4.75263 17.2522 5.05058 17.414 5.30072C17.6274 5.63178 17.7708 5.96652 17.8481 6.30862C17.6605 6.58451 17.3404 6.83465 16.8843 7.05904C16.2663 7.36436 15.8985 7.563 15.7808 7.65129C15.9279 7.60346 16.2001 7.563 16.5937 7.52254C16.9873 7.48575 17.2779 7.41218 17.4692 7.30551C17.8297 6.97076 18.0761 6.54774 18.2122 6.04378C18.3116 5.67225 18.3631 5.18301 18.3631 4.57974C18.3631 4.30385 18.2821 3.65643 18.1166 2.63749C18.0467 2.20343 18.0099 1.83557 18.0099 1.54129L18.0798 1.33898C18.1313 1.39048 18.1902 1.44566 18.249 1.50083C18.3079 1.55601 18.3594 1.59647 18.4072 1.61854H18.4035ZM13.5994 0.823991C13.5516 0.978488 13.4964 1.0962 13.4302 1.17712C13.364 1.25805 13.2941 1.31691 13.2168 1.3537C13.147 1.37577 13.0955 1.39047 13.066 1.39047C13.0292 1.39047 12.9961 1.37209 12.9594 1.33898C12.9189 1.26173 12.8968 1.18448 12.8968 1.09988C12.8968 0.989524 12.9299 0.871804 12.9925 0.746735C13.0219 0.695236 13.0881 0.592246 13.1948 0.445106C13.1874 0.492927 13.1617 0.573844 13.1102 0.687878C13.0587 0.801911 13.0366 0.890203 13.0366 0.949059C13.0366 1.03734 13.0771 1.10723 13.1617 1.16241C13.261 1.13298 13.3456 1.08516 13.4081 1.02262C13.4008 0.982159 13.364 0.923302 13.2978 0.849732C13.2316 0.776162 13.1948 0.717306 13.1948 0.676843C13.1948 0.625344 13.2279 0.577532 13.2904 0.537069C13.3603 0.555461 13.4228 0.58856 13.4817 0.643737C13.5369 0.695236 13.5737 0.757771 13.5921 0.827662L13.5994 0.823991ZM14.199 2.17399L13.8275 2.72945C13.8275 2.72945 13.7098 2.64116 13.5258 2.51609C13.4008 2.43517 13.353 2.35057 13.375 2.26964L13.6914 1.78407C13.8679 1.865 14.0372 1.99743 14.1953 2.17399H14.199ZM12.231 1.3537C12.242 1.45302 12.231 1.54497 12.1869 1.62222C12.1464 1.70315 12.0875 1.75465 12.0103 1.78407C11.9698 1.79143 11.9367 1.78407 11.9147 1.75832C11.8926 1.73625 11.8632 1.69579 11.8337 1.64429C11.8264 1.59647 11.8264 1.56337 11.8264 1.53762C11.8264 1.43094 11.8411 1.33898 11.8668 1.25805C11.8926 1.17712 11.9698 1.02262 12.0912 0.794557C12.0434 0.971125 11.9956 1.14769 11.9514 1.32426C11.9514 1.4199 11.9772 1.49347 12.0324 1.55233C12.0802 1.55233 12.1133 1.53026 12.1354 1.48612C12.1574 1.44197 12.1758 1.39783 12.1942 1.35001H12.2384L12.231 1.3537ZM12.0103 2.76624C11.9588 2.90234 11.9147 3.00165 11.8779 3.06787C11.8264 3.16351 11.7528 3.25548 11.6572 3.35112C11.6351 3.32169 11.5431 3.26651 11.385 3.1819C11.2672 3.12304 11.2231 3.04212 11.2525 2.9428L11.613 2.4646C11.6939 2.50506 11.7675 2.54921 11.8337 2.59335C11.8999 2.63749 11.9588 2.69635 12.0103 2.76624ZM12.7239 3.5424C12.6761 3.50561 12.5989 3.44675 12.4959 3.36582C12.4149 3.30697 12.3303 3.26651 12.2494 3.24076C12.1685 3.27018 12.0655 3.35479 11.9478 3.49826C11.8595 3.60493 11.808 3.66747 11.7896 3.68218C11.7896 3.74839 11.8521 3.82197 11.9735 3.90289C12.1317 4.00957 12.231 4.07946 12.2641 4.11624C12.3708 4.06842 12.4628 3.9875 12.5474 3.86979C12.5989 3.79254 12.6577 3.68586 12.7239 3.5424ZM13.2794 4.5503C13.2573 4.63123 13.2352 4.71584 13.2168 4.79677C13.1874 4.88505 13.1359 4.95126 13.0587 4.99173C13.0072 4.99173 12.9594 4.96965 12.9189 4.92183C12.9005 4.89976 12.8895 4.87034 12.8821 4.83355C12.8747 4.79677 12.8747 4.74895 12.8747 4.68273C12.8747 4.54663 12.8968 4.42523 12.941 4.3112C12.9851 4.20085 13.0513 4.07579 13.1396 3.93968C13.0918 4.04636 13.0587 4.12728 13.044 4.18613C13.0035 4.29649 12.9814 4.39213 12.9814 4.46937C12.9814 4.56869 13.0145 4.6533 13.0771 4.72687C13.1286 4.73791 13.1653 4.71216 13.1874 4.64595C13.2095 4.57973 13.2389 4.5503 13.2794 4.5503ZM11.4953 0.375214C11.488 0.423035 11.4585 0.470853 11.407 0.522352C11.3555 0.573851 11.3003 0.599593 11.2489 0.60695C11.1532 0.636378 10.7596 0.761451 10.0644 0.978482C9.60456 1.11827 9.21464 1.25069 8.89093 1.3684C8.46791 1.5229 8.08534 1.68476 7.74324 1.85397C7.78003 1.68476 7.87567 1.55968 8.03384 1.48243C8.29869 1.39415 8.56355 1.30219 8.8284 1.21023C8.94611 1.17344 9.27717 1.06676 9.81791 0.882838C10.5242 0.647414 11.0833 0.478204 11.4953 0.378885V0.375214ZM10.8516 1.61854C10.7706 1.55232 10.6971 1.5229 10.6309 1.5229C10.5352 1.5229 10.4617 1.64797 10.4102 1.89442C10.3587 2.14088 10.3182 2.28067 10.2961 2.3101C10.2593 2.23285 10.2078 2.11881 10.1416 1.96432C10.0754 1.80982 9.99448 1.69579 9.9062 1.61854C9.83998 1.61854 9.8032 1.62958 9.79216 1.65532C9.79216 1.6774 9.77745 1.72522 9.74802 1.79511C9.71859 1.865 9.70388 1.92018 9.70388 1.95328C9.70388 1.99375 9.72595 2.03421 9.76642 2.07835C9.78849 2.07099 9.81791 2.071 9.8547 2.071C9.96138 2.071 10.0497 2.15928 10.1196 2.33953C10.1894 2.51978 10.2446 2.62646 10.2888 2.66324C10.3366 2.55289 10.3734 2.43885 10.4028 2.32481C10.4322 2.21078 10.48 2.03053 10.5426 1.78039C10.583 1.76936 10.6235 1.76569 10.6566 1.77672C10.6934 1.78408 10.7375 1.79879 10.789 1.81718C10.8074 1.78775 10.8185 1.75833 10.8258 1.7289C10.8332 1.69947 10.8405 1.66268 10.8516 1.62222V1.61854ZM11.7087 3.70057C11.6792 3.72264 11.602 3.84036 11.4806 4.05371C11.3923 4.20821 11.282 4.26707 11.1532 4.23764C11.0429 4.16775 10.9582 4.11256 10.9067 4.07945C10.8001 4.00956 10.7596 3.936 10.7817 3.85875C10.8295 3.82933 10.892 3.7484 10.9656 3.61597C11.0429 3.48355 11.1127 3.41733 11.179 3.41733C11.2268 3.41733 11.2746 3.4394 11.3187 3.47987L11.7087 3.70057ZM14.8685 5.0322C14.8979 5.09841 14.92 5.17933 14.9384 5.27497C14.9568 5.37061 14.9641 5.46257 14.9641 5.5435C14.9641 5.698 14.9494 5.84514 14.9163 5.99228C14.8832 6.13942 14.8317 6.31966 14.7618 6.52934C14.6551 6.63601 14.5337 6.71326 14.394 6.7574C14.2542 6.80522 14.107 6.82729 13.9489 6.82729C13.8312 6.82729 13.7061 6.81258 13.57 6.78315C13.4596 6.74637 13.3493 6.70958 13.2426 6.66912C13.1138 6.61026 13.0329 6.52198 13.0035 6.40427C12.9373 6.52198 12.8784 6.63969 12.8196 6.7574C12.7423 6.88247 12.643 6.97076 12.5179 7.02962C12.4591 7.04801 12.4002 7.05904 12.345 7.07008C12.2899 7.07743 12.2347 7.08479 12.1832 7.08479C12.1133 7.08479 12.0544 7.07376 12.0066 7.04801C11.9367 7.02593 11.8779 6.97812 11.8337 6.9119C11.7896 6.84569 11.7565 6.77212 11.7307 6.69487C11.5431 6.97812 11.2636 7.1179 10.892 7.1179C10.8442 7.1179 10.7743 7.11054 10.686 7.09583C10.5941 7.08111 10.5095 7.03698 10.4285 6.96341C10.3476 6.88984 10.2924 6.80155 10.2557 6.70223C10.0717 6.85672 9.88781 6.97444 9.69652 7.06272C9.50524 7.15101 9.3066 7.19514 9.10061 7.19514H8.90565C8.83943 7.17675 8.79529 7.16572 8.77322 7.15837C8.66287 7.08112 8.55251 7.04432 8.44583 7.04432C8.36491 7.04432 8.15891 7.11055 7.8352 7.2393C7.67703 7.30551 7.5446 7.33493 7.43793 7.33493C7.37907 7.33493 7.33493 7.33493 7.3055 7.32758C7.27607 7.32022 7.22825 7.3055 7.16572 7.27607C6.90822 7.17675 6.72062 6.96341 6.61026 6.6397C6.55876 6.48152 6.49623 6.17621 6.42634 5.73111C6.42634 4.79677 6.40059 3.91392 6.35277 3.08994C6.30127 2.26595 6.21666 1.46772 6.0916 0.698913C6.13942 0.599593 6.19091 0.496596 6.24977 0.38992C6.30863 0.283244 6.37852 0.205997 6.46312 0.15082C6.54037 0.632703 6.59555 1.25805 6.63233 2.02317C6.64337 2.30642 6.66176 2.8913 6.69119 3.78518C6.71694 4.67538 6.75005 5.35222 6.79419 5.81204C6.8604 6.01803 6.90822 6.15413 6.94501 6.21666C7.02226 6.3638 7.12525 6.47048 7.254 6.53302C7.30182 6.55509 7.35332 6.57348 7.41218 6.58451C7.47103 6.59555 7.52989 6.60291 7.58874 6.60291C7.65496 6.60291 7.70646 6.60291 7.74692 6.59556C7.78738 6.5882 7.84624 6.57716 7.92349 6.55877C7.90142 6.46313 7.8867 6.36013 7.8867 6.24241C7.8867 5.92974 7.97499 5.6281 8.15155 5.33382C8.32812 5.03954 8.55619 4.78941 8.83208 4.58342C8.93875 4.56503 9.02704 4.60549 9.09693 4.70849C9.16682 4.84459 9.21832 4.93655 9.24775 4.98069C9.29925 5.09105 9.32867 5.22347 9.32867 5.37796C9.32867 5.48832 9.3066 5.65754 9.25878 5.88193C9.21096 6.10632 9.18889 6.26816 9.18889 6.36748C9.18889 6.42634 9.18889 6.47048 9.19625 6.49991C9.74802 6.49991 10.2189 6.27552 10.6014 5.83042C10.6198 5.85985 10.6272 5.88928 10.6272 5.9187C10.6051 6.02906 10.583 6.13942 10.5646 6.2461C10.6824 6.37116 10.8369 6.43002 11.0318 6.43002C11.1679 6.43002 11.304 6.4006 11.4365 6.34174C11.5321 6.27553 11.6241 6.17988 11.7197 6.04745C11.8153 5.91503 11.8852 5.81571 11.9331 5.75318V5.99963C11.9441 6.09895 11.9698 6.18356 12.014 6.2461C12.1023 6.35277 12.2163 6.40427 12.3598 6.40427C12.4186 6.40427 12.4848 6.38956 12.5547 6.36013C12.6724 6.32334 12.7717 6.24977 12.8564 6.13942C12.9667 5.96285 13.0807 5.78628 13.1911 5.60971C13.1985 5.65753 13.1911 5.72007 13.1727 5.801C13.1543 5.88193 13.147 5.92607 13.147 5.9371C13.4045 6.07321 13.6767 6.13942 13.9599 6.13942C14.2615 6.13942 14.5117 6.06217 14.7177 5.91135C14.6809 5.71639 14.6 5.48833 14.4712 5.22347C14.1585 4.59445 13.9893 4.21188 13.9636 4.07945C13.9378 3.94703 13.9231 3.833 13.9231 3.74104C13.9231 3.52769 13.982 3.32537 14.0997 3.13041C14.2542 3.2849 14.3682 3.40261 14.4455 3.48354C14.5852 3.63804 14.6588 3.7631 14.6588 3.86242C14.6588 3.88082 14.6515 3.90657 14.6404 3.94335L14.4565 3.89186C14.4344 4.04636 14.4823 4.23395 14.6073 4.45834C14.7729 4.75998 14.8648 4.95127 14.8795 5.0322H14.8685ZM7.50414 1.0962C7.50414 0.919629 7.48575 0.765128 7.44528 0.632702C7.4085 0.500276 7.33493 0.397283 7.22825 0.327392L7.13997 0.478212C7.29446 0.7026 7.36803 0.96009 7.36803 1.25437C7.36803 1.44933 7.33125 1.62222 7.26136 1.77672C7.32021 1.66637 7.36803 1.55233 7.4085 1.43829C7.44528 1.32426 7.47839 1.21023 7.50046 1.09988L7.50414 1.0962ZM9.46478 2.86187L8.94243 2.57863L8.5893 2.95752C8.54883 2.96487 8.50837 2.95384 8.47158 2.92809C8.4348 2.90234 8.3833 2.86924 8.32444 2.8251C8.25823 2.74417 8.19202 2.70002 8.12213 2.70002C8.04488 2.70002 7.96027 2.75888 7.86463 2.87659C7.81681 2.93545 7.7506 3.02006 7.66231 3.13409C7.61449 3.24444 7.68806 3.3364 7.88302 3.40629C8.01177 3.45411 8.0927 3.4909 8.12213 3.52033C8.20305 3.52033 8.2803 3.45779 8.34651 3.3364C8.41273 3.21133 8.46423 3.13776 8.50101 3.11569L9.08221 3.38791C9.16314 3.31801 9.23671 3.2334 9.30293 3.14144C9.35075 3.07155 9.40224 2.97591 9.4611 2.8582L9.46478 2.86187ZM12.7239 7.52254C12.5179 7.70646 12.2016 7.86463 11.7786 8.00074C11.2268 8.16995 10.8847 8.29134 10.7559 8.36123C10.7559 8.23616 10.8185 8.14421 10.9399 8.07799C11.5358 7.89039 12.128 7.70278 12.7239 7.52254ZM4.38845 1.01527C4.42891 1.17344 4.37741 1.31323 4.23027 1.43094C4.16406 1.44933 4.11256 1.43094 4.0721 1.37944C4.02428 1.29851 3.99117 1.24334 3.97646 1.22126C3.9691 1.1808 3.9691 1.12563 3.9691 1.05206C3.9691 0.923309 3.98749 0.805589 4.02796 0.698913C4.06474 0.592236 4.1236 0.485565 4.20085 0.371532C4.17142 0.437745 4.14567 0.51131 4.12728 0.595915C4.1052 0.680521 4.09785 0.761449 4.09785 0.838697C4.09785 0.97848 4.13831 1.09252 4.22292 1.17344C4.27074 1.18448 4.30384 1.17344 4.32959 1.1293C4.35166 1.08884 4.37741 1.04838 4.39949 1.01527H4.38845ZM7.85727 4.59077C7.82785 4.59813 7.8021 4.62756 7.77635 4.68642C7.75428 4.74527 7.72485 4.78205 7.69542 4.79308C7.65496 4.76366 7.62921 4.73056 7.61449 4.69745C7.60346 4.66067 7.5961 4.6202 7.5961 4.57238C7.5961 4.55031 7.60346 4.49881 7.61817 4.41788C7.63289 4.33695 7.63656 4.2781 7.63289 4.23764C7.58507 4.33696 7.54828 4.43259 7.52253 4.52088C7.49678 4.60916 7.48207 4.7048 7.48207 4.80412C7.5115 4.88505 7.53357 4.93655 7.5446 4.95494C7.58139 5.00644 7.62553 5.03587 7.67703 5.03587C7.74324 4.98437 7.78738 4.91448 7.80945 4.83355C7.81681 4.80413 7.83152 4.7232 7.8536 4.59445L7.85727 4.59077ZM5.65753 3.13409C5.66489 3.21134 5.65017 3.28858 5.61339 3.36951C5.5766 3.45043 5.52511 3.51665 5.45521 3.5755C5.41475 3.59389 5.36693 3.58286 5.30807 3.54975C5.2529 3.51296 5.21611 3.46147 5.2014 3.39526C5.18668 3.32905 5.17933 3.25548 5.17933 3.17823C5.17933 2.9612 5.24186 2.75888 5.36325 2.5676C5.34486 2.67795 5.33382 2.77359 5.32279 2.85084C5.31543 2.92809 5.30807 2.97591 5.30807 2.99062C5.30807 3.1488 5.34854 3.26651 5.43314 3.34375C5.48464 3.34375 5.53246 3.31065 5.56925 3.24076C5.60603 3.17454 5.63546 3.13776 5.65385 3.13041L5.65753 3.13409ZM5.08369 2.01214L4.67905 2.54184C4.47305 2.43149 4.34431 2.35424 4.28913 2.31378C4.21188 2.25492 4.15303 2.19239 4.11256 2.12985C4.06106 2.17767 4.00956 2.24021 3.96174 2.32481C3.85507 2.50874 3.77414 2.6191 3.71528 2.65956C3.627 2.65956 3.53504 2.63381 3.44308 2.58598C3.34743 2.53449 3.25547 2.47196 3.15983 2.39471C3.23708 2.26596 3.29226 2.16664 3.32904 2.1041C3.39525 1.98639 3.46515 1.89811 3.54239 1.83925L4.09049 2.04157L4.53191 1.65165C4.74894 1.76201 4.87033 1.82454 4.8924 1.83558C4.95862 1.87604 5.02115 1.93489 5.08736 2.01214H5.08369ZM8.39433 7.95291C8.39433 8.04855 8.37962 8.13685 8.34651 8.22513C8.31341 8.31341 8.25823 8.3833 8.18466 8.43848C8.10741 8.43848 8.04488 8.39066 7.9897 8.29869C7.98234 8.26191 7.98234 8.21409 7.98234 8.14787C7.98234 8.01913 8.00809 7.88303 8.06327 7.74325C8.10005 7.64393 8.15891 7.52621 8.23984 7.3901C8.21041 7.45632 8.18098 7.53725 8.14788 7.64025C8.11477 7.74325 8.10006 7.83153 8.10006 7.90142C8.10006 8.01178 8.13684 8.11478 8.20673 8.20306C8.25455 8.18467 8.29502 8.1442 8.3318 8.07431C8.36859 8.0081 8.39066 7.96763 8.40169 7.9566L8.39433 7.95291ZM2.79566 0.404637L2.74416 0.581209C2.72209 0.592245 2.68898 0.588563 2.64852 0.566492C2.60806 0.544421 2.57863 0.537069 2.56024 0.537069C2.54184 0.537069 2.51977 0.544417 2.49034 0.56281C2.43149 0.669486 2.38735 0.842385 2.3616 1.07781C2.33585 1.31323 2.3101 1.47509 2.28803 1.54866C2.41677 1.6443 2.51609 1.71786 2.58231 1.77304C2.64852 1.82822 2.6853 1.8834 2.6853 1.93489C2.6853 1.99375 2.65955 2.04892 2.60438 2.1041C2.40574 2.14089 2.23653 2.17032 2.09674 2.19606C1.95696 2.22181 1.86132 2.2917 1.80246 2.40206C1.82454 2.52713 1.87236 2.71105 1.93857 2.95383C2.00478 3.19662 2.0526 3.3879 2.07467 3.52768C2.09674 3.66746 2.11146 3.80725 2.11146 3.94703C2.11146 4.04635 2.1041 4.13832 2.09307 4.2266C2.08203 4.31121 2.04892 4.41788 1.99742 4.53927C2.03789 4.43995 2.05996 4.32591 2.05996 4.19349C2.05996 4.00588 2.0011 3.74839 1.88339 3.42468C1.82454 3.27754 1.77304 3.13776 1.72889 3.00534C1.68475 2.87291 1.65532 2.77727 1.64061 2.71842C1.6259 2.65956 1.61854 2.59335 1.61854 2.52346C1.61854 2.36528 1.67004 2.23653 1.76936 2.13354C1.86868 2.03422 2.04892 1.95328 2.30642 1.89442C2.27699 1.82821 2.21813 1.79879 2.12985 1.79879C2.09307 1.79879 2.06364 1.80615 2.03421 1.82454L1.95328 1.89442C1.93489 1.87235 1.93489 1.83557 1.95328 1.79143C1.97168 1.74729 1.99007 1.69579 2.01582 1.63694L2.17399 1.54129C2.10778 1.37576 2.06364 1.25438 2.03421 1.16977C1.97535 1.02263 1.90546 0.908597 1.82086 0.823991C1.8135 0.890204 1.78407 0.919625 1.72522 0.919625C1.68475 0.919625 1.6259 0.901231 1.55233 0.860767C1.47876 0.823982 1.44197 0.757778 1.44197 0.662137C1.44197 0.625352 1.44933 0.584889 1.46036 0.537069C1.4714 0.489248 1.48244 0.445101 1.48979 0.404637C1.49715 0.364174 1.53393 0.342109 1.59279 0.342109C1.659 0.342109 1.70315 0.356821 1.73257 0.386249C1.85764 0.467176 1.968 0.610635 2.06732 0.809274C2.14456 0.963771 2.19239 1.06309 2.21814 1.11091C2.26596 0.92331 2.29906 0.77984 2.32481 0.676843C2.37263 0.489239 2.4462 0.356818 2.54552 0.27957C2.59702 0.268534 2.64116 0.272208 2.67795 0.286922C2.71473 0.305315 2.7552 0.338425 2.80302 0.382567L2.79566 0.404637ZM5.70167 5.87825C5.70167 5.54718 5.63914 5.24555 5.51775 4.97334C5.39268 4.70113 5.21243 4.42892 4.96965 4.16406C4.83355 4.07578 4.73423 4.02061 4.66802 3.99486C4.55766 3.94704 4.44363 3.92496 4.33327 3.92496C4.24499 3.92496 4.16038 3.94703 4.07578 3.98749C3.87714 4.18245 3.72264 4.38477 3.61229 4.60181C3.50193 4.81516 3.45043 5.05058 3.45043 5.3044C3.45043 5.38165 3.45043 5.4405 3.45779 5.48096C3.53504 5.64649 3.65643 5.76421 3.82932 5.83411C3.96542 5.8856 4.13463 5.91503 4.34063 5.91503C4.42156 5.91503 4.54295 5.90767 4.70112 5.89663C4.8593 5.8856 4.97333 5.87825 5.03587 5.87825C5.15358 5.94814 5.2345 6.007 5.28232 6.05482C5.35222 6.13207 5.38164 6.22403 5.37061 6.32702C4.96965 6.68752 4.63491 6.96708 4.3627 7.16572C3.96174 7.46 3.59022 7.68071 3.25179 7.82785C2.8398 8.00441 2.43517 8.0927 2.03421 8.0927C1.87603 8.0927 1.7105 8.07799 1.54129 8.04856C1.37208 8.01913 1.21023 7.97499 1.05573 7.91614C0.80927 7.78739 0.617988 7.59978 0.485562 7.34965C0.353136 7.10319 0.286923 6.83098 0.286923 6.5367C0.286923 6.27921 0.323708 6.0401 0.393599 5.82307C0.463491 5.60604 0.584881 5.44786 0.754092 5.34486C0.893875 5.22715 1.00055 5.08736 1.07044 4.92919C1.14033 4.77101 1.17712 4.6018 1.17712 4.42523C1.17712 4.37373 1.17712 4.32959 1.16976 4.30017C1.11826 4.33695 1.08516 4.39581 1.07412 4.48409C1.03366 4.5503 0.993195 4.59812 0.949053 4.63123C0.908589 4.66434 0.85709 4.68273 0.798234 4.69009C0.698915 4.56502 0.629023 4.45467 0.592238 4.35167C0.555453 4.24867 0.533382 4.13096 0.533382 4.00221C0.533382 3.75943 0.632702 3.45044 0.835019 3.07523C1.11826 2.53817 1.26908 2.24389 1.29483 2.18503C0.971124 2.58966 0.724664 2.96855 0.551775 3.31433C0.327386 3.77414 0.217032 4.21924 0.217032 4.64595C0.217032 4.77469 0.224388 4.90344 0.242781 5.02483C0.323708 5.11312 0.36785 5.21611 0.36785 5.33382C0.36785 5.43314 0.320029 5.59133 0.228067 5.81204C0.132426 6.02907 0.088284 6.19091 0.088284 6.29759C0.029428 6.53301 0 6.75373 0 6.95973C0 7.25401 0.0551775 7.53357 0.161854 7.79474C0.272209 8.05591 0.437741 8.27295 0.66213 8.44216C0.846055 8.56723 1.03366 8.65551 1.2323 8.70701C1.43094 8.75851 1.63325 8.78794 1.84661 8.78794C2.21813 8.78794 2.60806 8.70702 3.02005 8.54884C3.37318 8.41273 3.71896 8.23248 4.05371 8.00074C4.55398 7.63656 4.91447 7.33125 5.13151 7.08111C5.47729 6.69119 5.66857 6.29024 5.70535 5.87089L5.70167 5.87825ZM2.58598 5.70167C2.57495 5.77156 2.56391 5.83043 2.5492 5.87825C2.53816 5.92607 2.50138 5.92974 2.44252 5.89663C2.36527 5.83042 2.30274 5.81571 2.24756 5.85249C2.19974 5.94078 2.16664 6.06585 2.14089 6.22403C2.08939 6.62498 2.05628 6.83834 2.04525 6.86776C1.97903 6.81626 1.92018 6.72062 1.86132 6.58451C1.78039 6.38955 1.72889 6.27921 1.7105 6.24978C1.69211 6.31599 1.65165 6.34541 1.58543 6.34541C1.54865 6.34541 1.51922 6.33806 1.49715 6.32702C1.47508 6.31599 1.46036 6.30495 1.45301 6.30127C1.39415 6.25345 1.36472 6.19459 1.36472 6.1247C1.36472 6.08791 1.37576 6.0401 1.39415 5.97389C1.41622 5.90768 1.42358 5.86353 1.42358 5.83411C1.44565 5.81571 1.47508 5.79732 1.50451 5.7826C1.63325 5.82306 1.73993 5.92239 1.82086 6.08424C1.87971 6.22402 1.94225 6.36381 2.00478 6.49991C2.02317 6.34174 2.04157 6.17988 2.06732 6.01435C2.1041 5.84514 2.17399 5.70535 2.28067 5.59868C2.40574 5.58028 2.50506 5.61707 2.58231 5.70536L2.58598 5.70167ZM9.04911 5.91503C9.00129 5.74582 8.95715 5.61707 8.91668 5.53615C8.84679 5.40004 8.74747 5.32279 8.61504 5.29704C8.51573 5.32646 8.42376 5.39636 8.34284 5.5104C8.29134 5.58764 8.23616 5.69064 8.18466 5.81939C8.25455 5.97756 8.37226 6.11735 8.5378 6.23506C8.61872 6.21667 8.70701 6.1762 8.80265 6.11735C8.89829 6.05481 8.97922 5.9886 9.04911 5.9187V5.91503ZM4.92551 5.19037C4.8078 5.22715 4.68641 5.24186 4.56502 5.24186C4.44363 5.24186 4.32224 5.22715 4.21188 5.19404C4.10153 5.16093 4.00589 5.12048 3.92864 5.0653C3.91024 5.03587 3.87714 4.98437 3.82196 4.91448C3.80357 4.88505 3.79621 4.85562 3.79621 4.82619C3.79621 4.78573 3.81093 4.74895 3.84035 4.71952C3.90657 4.65331 3.98749 4.62388 4.08681 4.62388C4.19349 4.62388 4.29281 4.64595 4.38845 4.69377C4.49513 4.7232 4.59812 4.78941 4.69744 4.88873C4.77837 4.96966 4.85562 5.07266 4.92551 5.19037Z" fill="white"/>
</svg>
