<svg width="20" height="11" viewBox="0 0 20 11" fill="none" xmlns="http://www.w3.org/2000/svg">
<path fill-rule="evenodd" clip-rule="evenodd" d="M20 2.2032C19.9258 2.19749 19.8573 2.15183 19.7945 2.06622C19.7317 1.9806 19.6747 1.90069 19.6233 1.81507L19.5091 1.97489C19.5091 2.38014 19.5491 2.85959 19.629 3.42466C19.7089 3.98973 19.7888 4.52626 19.863 5.03425C19.8916 5.24544 19.9144 5.44521 19.9315 5.63357C19.9486 5.82192 19.9543 6.02169 19.9543 6.24429C19.9543 6.60388 19.9315 6.91211 19.8801 7.17466C19.8288 7.43722 19.7374 7.72261 19.6005 8.02512L19.5662 7.70548C19.6119 7.65411 19.6404 7.56279 19.6575 7.43151C19.6747 7.30023 19.6918 7.15754 19.7146 6.99772L19.0982 1.55251C19.0982 1.43265 19.081 1.26142 19.0411 1.05024C19.0011 0.839048 18.984 0.690647 18.984 0.60503C18.984 0.473752 19.0011 0.3653 19.0354 0.279684C19.0696 0.194067 19.1438 0.097032 19.258 0C19.3893 0.256849 19.5205 0.622148 19.6632 1.09018C19.8059 1.55822 19.9144 1.92922 20 2.2032ZM16.3584 1.0959C16.3584 1.27855 16.29 1.43265 16.153 1.56393C16.0788 1.58676 16.016 1.57535 15.9646 1.52398C15.9132 1.47261 15.8733 1.40982 15.8447 1.32421C15.8276 1.11873 15.8676 0.907535 15.9589 0.696348C15.9874 0.627855 16.0502 0.519406 16.1416 0.365296C16.1358 0.393835 16.0959 0.519408 16.0274 0.742011C15.9874 0.856166 15.9703 0.941784 15.9703 0.993154C15.9703 1.13014 16.0331 1.23288 16.153 1.30137C16.2043 1.30137 16.2443 1.26712 16.2728 1.20434C16.3014 1.14155 16.3299 1.10161 16.3584 1.0959ZM15.3196 2.42009C15.234 2.59704 15.1712 2.73402 15.1199 2.83105C15.0685 2.92809 15.0171 3.00799 14.9658 3.07078L14.3493 2.77397C14.3664 2.67694 14.395 2.58562 14.4406 2.51142C14.4463 2.4943 14.5434 2.36302 14.726 2.11188C14.863 2.15754 14.9772 2.1975 15.0628 2.23745C15.1484 2.27741 15.234 2.33448 15.3196 2.42009ZM16.0731 3.11644C16.0731 3.11644 15.9304 3.03654 15.7192 2.92238C15.6564 2.89384 15.5993 2.84818 15.5365 2.79681C15.4224 2.79681 15.3196 2.8653 15.2283 3.00229C15.1769 3.07649 15.1027 3.19635 15.0114 3.35617C14.9829 3.35046 14.8345 3.28197 14.5662 3.16211C14.4749 3.12215 14.3836 3.09932 14.2922 3.0822C14.1781 3.26485 14.0639 3.44749 13.9498 3.63014C13.9269 3.6758 13.9155 3.71005 13.9155 3.73288C13.9155 3.78425 13.984 3.82991 14.1153 3.85845C14.2466 3.88699 14.3265 3.92123 14.3493 3.96119C14.4235 4.00114 14.4806 4.01827 14.5205 4.01827C14.6119 4.01827 14.6975 3.92694 14.7831 3.75C14.8687 3.57306 14.9372 3.46461 14.9886 3.42466C15.2226 3.54452 15.4623 3.67009 15.6963 3.78995L16.0731 3.11644ZM13.4931 1.70092C13.5616 1.81507 13.5959 1.95206 13.5959 2.11188C13.5959 2.2717 13.5559 2.41439 13.4703 2.52284C13.3333 2.50001 13.1678 2.55137 12.9795 2.67124C12.8482 2.75685 12.7511 2.80251 12.6826 2.81964C12.54 2.81964 12.4429 2.75686 12.3973 2.63699C12.3973 2.44864 12.4087 2.28882 12.4258 2.16325C12.4429 2.03768 12.4886 1.90069 12.5571 1.74658H12.6027C12.6027 1.74658 12.6256 1.81507 12.6256 1.88356C12.6256 1.92352 12.6142 1.99772 12.5856 2.10617C12.5571 2.21461 12.5457 2.30023 12.5457 2.3516C12.5457 2.43722 12.5685 2.48858 12.6142 2.50571C12.6598 2.52283 12.7283 2.52854 12.8196 2.50571C12.9281 2.46005 12.9795 2.35161 12.9795 2.17466C12.9737 2.08334 12.968 2.01485 12.968 1.96919C12.968 1.92352 12.968 1.87215 12.9852 1.81507C12.9966 1.758 13.0365 1.71233 13.105 1.67238C13.1107 1.70092 13.1164 1.75799 13.1164 1.8322V1.96919C13.1164 2.06622 13.1221 2.14042 13.1336 2.18037C13.145 2.22032 13.1792 2.26027 13.242 2.30023C13.3048 2.30023 13.3505 2.30023 13.3904 2.29452C13.4304 2.29452 13.4532 2.27169 13.4703 2.23174C13.4703 2.19178 13.4532 2.13471 13.4247 2.04909C13.3961 1.96348 13.379 1.90069 13.379 1.85502C13.379 1.78082 13.4189 1.72375 13.4931 1.69521V1.70092ZM13.2192 0.936073C13.242 0.890411 13.2306 0.850461 13.1906 0.816215C13.1507 0.781968 13.0993 0.74772 13.0479 0.707766C13.0936 0.667811 13.1164 0.610738 13.1164 0.525122C13.1164 0.47946 13.1164 0.405256 13.105 0.308224C13.0765 0.239731 13.0479 0.194066 13.0251 0.171235C12.9795 0.125573 12.9281 0.119869 12.8653 0.148407C12.7683 0.165531 12.6769 0.216894 12.6027 0.302511C12.5285 0.388127 12.4829 0.485165 12.4658 0.593612C12.4486 0.684936 12.5 0.75914 12.6084 0.81051C12.7169 0.86188 12.7797 0.907534 12.7968 0.936073C12.5228 1.23858 12.1632 1.55822 11.7237 1.89498C11.4726 2.08334 11.0902 2.36872 10.5822 2.73973C10.8733 2.60845 11.1473 2.45434 11.4155 2.2717C11.6267 2.129 11.8893 1.92923 12.1918 1.67808C12.2774 1.64954 12.403 1.52397 12.5799 1.31279C12.734 1.13014 12.8482 1.03882 12.9338 1.03882C12.9966 1.03882 13.0537 1.06736 13.105 1.11873L13.2192 0.936073ZM10.9931 0.262561C10.879 0.422378 10.6735 0.559365 10.3767 0.673521C10.1541 0.759137 10.0171 0.81621 9.95434 0.856164C9.31507 1.17009 8.84132 1.3984 8.5274 1.55251C7.95662 1.83219 7.49429 2.09475 7.14612 2.32877C7.14612 2.14612 7.28881 1.9863 7.56849 1.84932C7.75685 1.75799 7.88242 1.68379 7.94521 1.63242C8.95548 1.1758 9.97146 0.719182 10.9931 0.262561ZM12.774 4.00685L12.7055 4.23517C12.6769 4.23517 12.6142 4.21804 12.5285 4.18379C12.4429 4.14954 12.3744 4.14384 12.3288 4.16667C12.2603 4.27512 12.2146 4.45206 12.1918 4.69749C12.1689 4.94293 12.129 5.11986 12.0662 5.2169C12.0205 5.18836 11.9235 5.03996 11.7808 4.78311C11.6667 4.57192 11.524 4.4806 11.347 4.52056C11.3014 4.47489 11.2785 4.42923 11.2785 4.38357C11.2785 4.35503 11.2957 4.30366 11.3242 4.23517C11.3527 4.16667 11.3699 4.1153 11.3699 4.07534L11.4612 3.99543C11.581 4.06963 11.6952 4.20092 11.7922 4.38357C11.9349 4.65183 12.0263 4.80594 12.0662 4.8516C12.0947 4.67466 12.1347 4.49201 12.1747 4.29794C12.2146 4.10388 12.3002 3.95549 12.4201 3.85845C12.4715 3.85275 12.54 3.86986 12.6142 3.91553C12.6884 3.96119 12.7454 3.98973 12.774 4.00685ZM7.24886 0.936073C7.22032 0.953196 7.19178 0.993151 7.16324 1.06164C7.1347 1.13014 7.09475 1.17009 7.04338 1.18722C6.97489 1.15868 6.92922 1.11301 6.90068 1.06164C6.87215 1.01027 6.86073 0.947493 6.86073 0.879C6.86073 0.856169 6.87215 0.781966 6.89498 0.662103C6.91781 0.54224 6.92351 0.450918 6.91781 0.388132C6.85502 0.525119 6.80936 0.644984 6.78082 0.747724C6.75228 0.850464 6.73516 0.953197 6.73516 1.06164C6.73516 1.17009 6.74087 1.25 6.75799 1.30137C6.79795 1.36415 6.8379 1.40412 6.88356 1.43265C6.92922 1.46119 6.98059 1.4669 7.04338 1.44978C7.22032 1.3185 7.28881 1.14726 7.24886 0.936073ZM16.3813 8.34476C16.3813 8.51028 16.3356 8.65868 16.2386 8.77854C16.1416 8.89841 16.0331 8.96119 15.9018 8.96119C15.8562 8.96119 15.8219 8.95548 15.7991 8.93836C15.7306 9.01256 15.6735 9.06393 15.6336 9.09247C15.5936 9.12101 15.5422 9.13242 15.4909 9.13242C15.4452 9.13242 15.4052 9.1153 15.3653 9.08677C15.3139 8.97832 15.2112 8.92694 15.0571 8.92694C15.0171 8.92694 14.9886 8.92694 14.96 8.92694C14.9315 8.92694 14.8916 8.94407 14.8288 8.9669C14.4178 9.258 14.0068 9.54339 13.5959 9.83448C13.339 10 13.1221 10.1256 12.9566 10.2112C12.734 10.3253 12.5057 10.411 12.2603 10.4737C12.5171 10.3368 12.7568 10.1941 12.9795 10.0514C13.2934 9.84018 13.5217 9.68037 13.6758 9.57192C14.0354 9.31507 14.2637 9.14955 14.3607 9.08105C14.6119 8.90411 14.8516 8.76713 15.0799 8.65868C15.1484 8.61873 15.2511 8.64156 15.3938 8.71576C15.5365 8.78996 15.6221 8.82991 15.6621 8.82991C15.7078 8.82991 15.742 8.81279 15.7648 8.78425C15.7877 8.75571 15.8048 8.68722 15.8219 8.59019L15.8904 8.4532L15.9589 8.69293C16.0674 8.69864 16.1473 8.66439 16.2043 8.58448C16.2614 8.50457 16.3185 8.42466 16.3813 8.33904V8.34476ZM17.9909 4.40639C17.8824 3.90411 17.7797 3.38471 17.6769 2.84247C17.5742 2.30023 17.5228 1.81508 17.5228 1.38129L17.968 1.79224C17.9281 1.50114 17.8482 1.20435 17.7283 0.890418C17.6427 0.679231 17.5171 0.393843 17.3402 0.0342539C17.2546 0.0627927 17.1861 0.1427 17.1347 0.273979C17.0605 0.456627 17.0091 0.565073 16.9863 0.593612C17.0605 1.15868 17.1575 1.82078 17.2717 2.57991C17.3174 2.85959 17.4258 3.53311 17.5913 4.58905C17.6998 5.25685 17.8025 5.93037 17.911 6.59818C17.8196 6.66667 17.7226 6.71234 17.6256 6.74088C17.5285 6.76941 17.4087 6.78083 17.2717 6.78083H17.1347C17.089 6.78083 17.0434 6.78082 16.9977 6.76941C16.9349 6.72374 16.8265 6.64955 16.6667 6.55252C16.5525 6.45549 16.5126 6.33562 16.5411 6.19863C16.5126 6.22717 16.4098 6.38699 16.2443 6.66667C16.1244 6.86644 15.9874 6.99772 15.8447 7.06621C15.7763 7.09475 15.6906 7.11188 15.5936 7.11188C15.4566 7.11188 15.3482 7.07763 15.2683 7.00913C15.1884 6.94064 15.1427 6.87215 15.1256 6.79795C15.1084 6.72375 15.1027 6.65526 15.1027 6.58676C15.1027 6.49544 15.1084 6.40412 15.1256 6.31279C14.96 6.49544 14.7945 6.67237 14.6347 6.84932C14.4292 7.05479 14.2295 7.15754 14.0297 7.15754C13.9212 7.16325 13.8299 7.14613 13.7443 7.10617C13.6587 7.06622 13.5845 7.00914 13.5103 6.93494C13.4361 6.86074 13.4018 6.79795 13.4018 6.73516C13.4018 6.68379 13.4418 6.59818 13.516 6.47831C13.5902 6.35845 13.6244 6.26142 13.6073 6.1758C13.4646 6.22147 13.1507 6.36416 12.6712 6.59818C12.2888 6.78654 11.9749 6.89498 11.7237 6.91781C11.7009 6.71804 11.621 6.5411 11.484 6.38128C11.3413 6.19293 11.1815 6.03881 11.0046 5.93037C10.8276 5.82192 10.645 5.76484 10.4452 5.76484C10.3596 5.76484 10.274 5.77626 10.1826 5.79909C9.93151 5.98174 9.74315 6.21005 9.61758 6.48402C9.49201 6.75799 9.42922 7.0605 9.42922 7.38585C9.54909 7.56279 9.69749 7.68265 9.87443 7.74544C10.0514 7.80822 10.2511 7.84247 10.4795 7.84247C10.6336 7.84247 10.7763 7.83106 10.9132 7.80822C11.0502 7.78539 11.1929 7.75685 11.347 7.72832C11.3984 7.80252 11.4212 7.89955 11.4155 8.0137C10.3824 8.90411 9.85731 9.35503 9.8516 9.36074C9.21804 9.82306 8.63584 10.0571 8.09361 10.0571C7.93379 10.0571 7.77968 10.04 7.63128 10.0114C7.48288 9.98288 7.32877 9.92581 7.16895 9.8516C6.96347 9.58334 6.86073 9.29795 6.86073 8.98402C6.86073 8.89841 6.87215 8.80708 6.89498 8.69863C7.21461 8.48745 7.53995 8.27055 7.8653 8.05937C8.25342 7.80252 8.5331 7.53996 8.71004 7.27169C8.77854 7.15754 8.8242 7.04338 8.85274 6.92352C8.88128 6.80366 8.89269 6.6838 8.89269 6.55252C8.89269 6.3927 8.86415 6.15868 8.80137 5.85617C8.73858 5.55366 8.71004 5.32534 8.71004 5.18265L8.99543 5.2968C8.94977 5.11415 8.86415 4.90297 8.73288 4.66895C8.66438 4.53768 8.55593 4.35503 8.40183 4.1096C8.30479 4.17238 8.23059 4.258 8.17922 4.36644C8.12785 4.47489 8.0879 4.61758 8.05936 4.78311C8.10502 5.03996 8.18493 5.38813 8.29909 5.82193C8.39041 6.16439 8.48744 6.50685 8.58447 6.84932C7.99087 7.31164 7.35731 7.73973 6.6895 8.12786C6.12443 8.4532 5.45662 8.79567 4.68037 9.15526C4.08676 9.42923 3.40753 9.72032 2.63699 10.0342C3.8242 9.84589 4.54338 9.72033 4.79452 9.65754C5.61073 9.46919 6.26142 9.18379 6.75799 8.81279C6.75228 8.8984 6.73516 9.02397 6.71233 9.19521C6.6895 9.36644 6.67808 9.52056 6.67808 9.65754C6.67808 9.86873 6.70662 10.0628 6.7637 10.2397C6.82078 10.4167 6.92352 10.5594 7.06621 10.6735C7.30023 10.7934 7.57991 10.8562 7.89954 10.8562C7.9395 10.8562 7.98516 10.8562 8.04794 10.8562C8.11073 10.8562 8.17922 10.8448 8.25342 10.839C8.96119 10.6107 9.62899 10.2397 10.2626 9.73174C10.5537 9.4863 10.839 9.16667 11.1301 8.76142C11.3984 8.39042 11.6153 8.02512 11.7922 7.67695C12.2032 7.51142 12.4486 7.40868 12.5228 7.38014C12.734 7.28311 12.9509 7.15183 13.1735 6.99201L13.1393 7.39156C13.1678 7.54567 13.2477 7.66553 13.3733 7.75686C13.4989 7.84818 13.6473 7.90525 13.8128 7.92808C14.0183 7.95091 14.2123 7.88242 14.395 7.7226C14.4635 7.67123 14.6062 7.50572 14.8288 7.23174L14.8973 7.5742C14.9429 7.68265 15.0171 7.75685 15.1142 7.80822C15.2112 7.85959 15.3196 7.88243 15.4338 7.88243C15.645 7.88243 15.8333 7.78539 15.9931 7.58562C16.0445 7.52284 16.153 7.34589 16.3128 7.04909C16.3527 7.13471 16.4041 7.2089 16.4783 7.2774C16.5525 7.34589 16.621 7.39726 16.6895 7.43721C16.8322 7.52283 16.992 7.56279 17.1689 7.56279C17.403 7.56279 17.6199 7.50571 17.8082 7.39156C17.9395 7.11759 18.0251 6.85502 18.0708 6.60959C18.1164 6.36416 18.1393 6.09019 18.1393 5.79338C18.1393 5.5822 18.1221 5.35388 18.0936 5.11986C18.0651 4.88585 18.0308 4.64613 17.9909 4.41211V4.40639ZM7.6484 3.42466L7.61415 3.65297C7.5742 3.65868 7.53995 3.65297 7.5 3.64156C7.40297 3.59589 7.33447 3.56735 7.29452 3.55023C7.24315 3.96119 7.2089 4.20663 7.19178 4.28654C7.17466 4.36644 7.1347 4.4806 7.06621 4.63471C7.02625 4.58334 6.98059 4.48631 6.91781 4.34932C6.79794 4.06964 6.71233 3.8927 6.66667 3.82421C6.62671 3.88699 6.58105 3.91553 6.52968 3.91553C6.48973 3.91553 6.45548 3.90411 6.42694 3.87558C6.3984 3.84704 6.38128 3.80708 6.38128 3.75571C6.38128 3.70434 6.40411 3.63014 6.44406 3.53311C6.48402 3.43607 6.50685 3.38471 6.50685 3.379C6.621 3.379 6.71804 3.44178 6.79224 3.56165C6.88356 3.77283 6.97488 3.98403 7.06621 4.1895C7.08904 4.02969 7.11758 3.86987 7.14612 3.70434C7.17466 3.53882 7.22603 3.39612 7.29452 3.26484C7.4258 3.26484 7.53995 3.31621 7.6484 3.42466ZM3.00228 2.04338C2.95662 2.17466 2.92237 2.26598 2.89954 2.32877C2.85388 2.44292 2.80251 2.53425 2.75114 2.60275C2.7968 2.47147 2.83676 2.31736 2.87671 2.129C2.91667 1.94065 2.93379 1.76941 2.93379 1.60959C2.93379 1.38128 2.90525 1.18151 2.84817 1.01028C2.7911 0.839044 2.68836 0.679231 2.54566 0.525122L2.65982 0.296806C2.80251 0.410961 2.91096 0.57078 2.97945 0.770551C3.04795 0.970323 3.08219 1.18151 3.08219 1.3927C3.08219 1.48402 3.08219 1.58676 3.06507 1.69521C3.05365 1.80365 3.03082 1.92352 3.00228 2.04338ZM6.10731 5.5137C6.10731 6.19863 5.74772 6.80936 5.03425 7.34018C4.51484 7.7226 3.84703 8.04795 3.02511 8.32192C2.72831 8.41324 2.40868 8.45891 2.06621 8.45891C1.72374 8.45891 1.42694 8.40754 1.15297 8.29909C0.878995 8.19064 0.644977 8.01941 0.445205 7.78539C0.291096 7.6484 0.182648 7.47717 0.108448 7.2774C0.0342466 7.07763 0 6.85503 0 6.62101C0 6.43265 0.0171232 6.23859 0.0456621 6.04453C0.0742009 5.85046 0.148402 5.61644 0.262557 5.34247C0.262557 5.24543 0.359589 5.05708 0.547945 4.78311C0.644977 4.64041 0.696347 4.53768 0.696347 4.47489C0.696347 4.35503 0.61073 4.25229 0.445205 4.16667C0.359589 3.93836 0.319635 3.69292 0.319635 3.43608C0.319635 3.04795 0.428082 2.63129 0.639269 2.19179C0.684931 2.09476 0.901826 1.71804 1.28995 1.07306C1.13014 1.44407 1.01027 1.73517 0.924657 1.94064C0.770548 2.31165 0.696347 2.63129 0.696347 2.88814C0.696347 3.06508 0.719178 3.21347 0.770548 3.33904C0.821918 3.46462 0.913242 3.59018 1.05023 3.71005C1.12443 3.72717 1.18151 3.68722 1.22146 3.59589C1.26142 3.50457 1.29566 3.44749 1.3242 3.42466C1.34132 3.49886 1.34703 3.55594 1.34703 3.59589C1.34703 3.72717 1.31279 3.86416 1.23858 4.01827C1.16438 4.17238 1.09589 4.31507 1.0274 4.45206C0.850456 4.45206 0.724886 4.54338 0.639269 4.73174C0.553653 4.9201 0.479452 5.09703 0.410959 5.26256C0.388128 5.35959 0.365297 5.48516 0.342466 5.63927C0.319635 5.79338 0.308219 5.91896 0.308219 6.0274C0.308219 6.22718 0.325342 6.3927 0.359589 6.52398C0.393835 6.65526 0.462329 6.78654 0.559361 6.91781C0.759132 7.19179 0.998859 7.39156 1.27854 7.52284C1.55822 7.65411 1.87785 7.7169 2.22603 7.7169C2.39155 7.7169 2.58562 7.69978 2.7968 7.65983C3.31621 7.55138 3.81279 7.36873 4.28653 7.10617C4.76027 6.84361 5.22831 6.51256 5.68493 6.10731C5.51941 6.03311 5.13128 5.97604 4.52055 5.9475C3.6016 5.89613 3.13927 5.56507 3.13927 4.95434C3.28196 4.35503 3.58447 3.77854 4.03539 3.22489C4.4863 2.67124 5 2.26598 5.57078 2.00914C5.66781 1.9863 5.77055 2.01484 5.86758 2.10046C5.91895 2.14612 5.99315 2.23174 6.08447 2.3516C6.06164 2.48288 6.04452 2.60845 6.0274 2.73973C5.99886 2.88242 5.94749 3.00799 5.87899 3.11644C5.85616 3.09932 5.80479 3.04224 5.72488 2.9395C5.64498 2.83676 5.57078 2.77398 5.50228 2.75115C5.09703 2.79681 4.7089 3.00799 4.3379 3.39041C4.13242 3.6016 3.85274 3.97261 3.49315 4.49772C3.4532 4.59475 3.47603 4.69178 3.56164 4.78311C3.60731 4.83448 3.69292 4.89727 3.81279 4.96576C3.90982 5.05138 4.03539 5.10845 4.18379 5.1427C4.33219 5.17695 4.49201 5.19407 4.66895 5.19407H4.90868C4.99429 5.19407 5.0742 5.19407 5.15982 5.18265C5.371 5.18265 5.55936 5.20548 5.71347 5.24544C5.86758 5.28539 5.99886 5.37671 6.10731 5.5137ZM2.14612 5.77626C2.12329 5.83905 2.09475 5.89612 2.06621 5.95891C2.03767 6.02169 1.9863 6.04453 1.91781 6.0274C1.80365 5.93608 1.74658 5.82763 1.74658 5.69635C1.74658 5.62786 1.77511 5.52512 1.82648 5.38813C1.92352 5.13699 1.97489 4.97146 1.97489 4.89726C1.85502 5.11986 1.7637 5.31964 1.71233 5.49658C1.66096 5.67352 1.63242 5.86758 1.63242 6.07306C1.67237 6.14726 1.72374 6.21005 1.78653 6.26142C1.84931 6.31279 1.92352 6.3185 1.99772 6.28996C2.07192 6.22717 2.12329 6.15297 2.14041 6.06735C2.15753 5.98174 2.16324 5.88471 2.14041 5.77626H2.14612ZM12.911 0.60503C12.8368 0.565076 12.7568 0.530822 12.6826 0.490868C12.6826 0.450914 12.7112 0.433796 12.774 0.433796C12.8881 0.433796 12.9338 0.473751 12.911 0.559367V0.60503ZM11.0616 7.04339C10.9304 7.06622 10.8048 7.07763 10.6735 7.07763C10.4909 7.07763 10.3253 7.04909 10.1769 6.99201C10.0285 6.93493 9.90297 6.84361 9.80594 6.71233C9.80023 6.64955 9.81735 6.60959 9.8573 6.58676C9.89726 6.56393 9.95434 6.5411 10.0228 6.51827C10.2283 6.51827 10.4167 6.56393 10.5936 6.66097C10.7705 6.758 10.9247 6.88357 11.0616 7.04339Z" fill="white"/>
</svg>
