<svg width="20" height="13" viewBox="0 0 20 13" fill="none" xmlns="http://www.w3.org/2000/svg">
<path fill-rule="evenodd" clip-rule="evenodd" d="M19.9711 2.93472C19.8902 2.8885 19.792 2.7903 19.6823 2.64587C19.4974 2.39746 19.3992 2.26459 19.3934 2.25881C19.3125 2.36858 19.2663 2.513 19.2663 2.68631C19.2663 2.73253 19.2779 2.7903 19.2952 2.8654C19.2952 3.45465 19.3992 4.28655 19.6129 5.34951C19.7689 6.13519 19.8614 6.63778 19.8902 6.86309C19.9653 7.40035 20 7.89717 20 8.35933C20 8.82149 19.9653 9.26632 19.896 9.63605C19.8267 10.0058 19.6996 10.3871 19.5147 10.7857C19.5321 10.5719 19.5494 10.4102 19.5552 10.3004C19.6014 9.83825 19.6245 9.53206 19.6245 9.38764C19.6245 9.24321 19.6245 9.1219 19.6129 9.04102C19.6014 8.96014 19.5841 8.82727 19.5552 8.65396L18.5962 1.88908C18.6135 1.82554 18.5962 1.7331 18.5557 1.61756C18.5095 1.50202 18.4864 1.42693 18.4864 1.38649C18.4864 1.31139 18.5211 1.24206 18.5962 1.17851C18.7002 1.0052 18.7753 0.866558 18.833 0.774126C18.8908 0.681694 18.9486 0.623916 19.0121 0.595031C19.3934 1.44425 19.6014 1.92374 19.6476 2.03928C19.7747 2.3628 19.8845 2.66321 19.9653 2.9405L19.9711 2.93472ZM14.6909 4.70827C14.662 4.86425 14.5696 5.04333 14.4136 5.25131C14.2577 5.4535 14.171 5.56327 14.1652 5.58637C14.1306 5.51127 13.9746 5.39573 13.7088 5.23975C13.5066 5.11843 13.4315 4.97978 13.4893 4.82381L14.0324 4.07279C14.2172 4.22877 14.3674 4.36165 14.483 4.46563C14.5985 4.56962 14.6678 4.6505 14.6967 4.70827H14.6909ZM12.6516 4.39053C12.5592 4.41941 12.3859 4.44253 12.1259 4.46563C11.866 4.48874 11.6522 4.56962 11.4905 4.70827C11.398 4.70827 11.3114 4.67938 11.2247 4.62739C11.1438 4.56962 11.0976 4.50029 11.0976 4.41942C11.0976 4.20567 11.1092 4.03235 11.1323 3.89948C11.1554 3.76661 11.2016 3.63952 11.2767 3.5182C11.2652 3.70307 11.2652 3.84749 11.2652 3.9457C11.2652 4.11323 11.3056 4.23455 11.3923 4.32121C11.6118 4.32121 11.7793 4.2461 11.8891 4.10168C11.918 4.0208 11.9295 3.93992 11.9295 3.86482C11.9295 3.83016 11.9295 3.76661 11.918 3.68573C11.9064 3.60486 11.9064 3.53553 11.9064 3.48932C11.9064 3.36222 11.9526 3.25246 12.0451 3.17158C12.0624 3.2178 12.0739 3.29868 12.0739 3.40844C12.0624 3.55864 12.0624 3.66263 12.0624 3.72618C12.0624 3.83016 12.0797 3.91104 12.1086 3.97458C12.1433 4.03813 12.2068 4.09012 12.3108 4.12478C12.3859 4.13634 12.4379 4.13634 12.4783 4.13634C12.5361 4.13634 12.5765 4.11323 12.6054 4.06702C12.6054 3.99192 12.5823 3.88793 12.5419 3.75506C12.5014 3.62218 12.4783 3.52975 12.4783 3.48354C12.4783 3.37955 12.5188 3.2929 12.6054 3.2178C12.6632 3.38533 12.7036 3.52398 12.7383 3.63952C12.773 3.75506 12.7845 3.87059 12.7845 3.98036C12.7845 4.11901 12.7441 4.25188 12.6574 4.38476L12.6516 4.39053ZM14.4252 0.826117C13.3622 1.10341 12.357 1.38648 11.4154 1.66955C10.6297 1.91219 9.6476 2.23571 8.47487 2.6401C7.67764 2.91739 6.70711 3.25824 5.5517 3.6684C5.44772 3.72617 5.36106 3.78394 5.28596 3.84749C5.21086 3.91104 5.16465 3.9977 5.14731 4.09591C6.23917 3.69729 7.23281 3.34489 8.12825 3.04449C9.52629 2.56499 10.5199 2.22993 11.1207 2.04507C12.0104 1.76777 13.0214 1.47314 14.1594 1.1554L14.4252 0.820343V0.826117ZM11.3865 6.37204C11.4211 6.43559 11.4154 6.51647 11.3576 6.61468C11.2998 6.71289 11.2536 6.80532 11.2074 6.89775C11.1323 6.9093 11.0687 6.8862 11.011 6.82843C10.9532 6.77066 10.907 6.70134 10.8666 6.61468C10.8261 6.52803 10.803 6.42404 10.803 6.30272C10.803 6.17562 10.8261 6.04853 10.8666 5.92722C10.907 5.8059 10.9763 5.69035 11.0687 5.58059C11.0341 5.73079 11.011 5.86366 11.011 5.98498C11.011 6.1063 11.0225 6.20451 11.0456 6.28539C11.0687 6.36627 11.1207 6.44136 11.2074 6.51646C11.2652 6.5338 11.2998 6.51647 11.3229 6.4587C11.346 6.40093 11.3692 6.37782 11.3865 6.37782V6.37204ZM17.4177 3.10226C17.4177 3.10226 17.1982 2.55922 16.7533 1.49625C16.5973 1.12652 16.4414 0.826111 16.2796 0.595031C16.1525 0.762564 16.0543 0.912775 15.9908 1.04565C15.9272 1.17852 15.881 1.33449 15.8521 1.5078C16.1583 2.98671 16.3258 3.81861 16.3663 4.00347C16.4934 4.66783 16.6436 5.47661 16.8111 6.42404C16.9786 7.37147 17.1173 8.23802 17.227 9.02369C16.8458 9.40497 16.4009 9.58984 15.881 9.58984C15.7423 9.58984 15.6037 9.57828 15.4651 9.54939C15.1993 9.47429 15.0607 9.32987 15.0607 9.1219C15.0607 9.04102 15.0953 8.89081 15.1646 8.68284C15.234 8.47487 15.2686 8.32467 15.2686 8.23224C15.2686 8.19757 15.2571 8.15136 15.2397 8.09359C13.3911 8.74062 12.3166 9.10457 12.022 9.19122C11.2709 9.41075 10.5893 9.5725 9.97112 9.67649C9.70537 9.7227 9.41652 9.75737 9.11612 9.78625C8.81571 9.81514 8.5442 9.8267 8.30734 9.8267C7.63143 9.8267 6.99596 9.74581 6.40093 9.57828C5.80589 9.41075 5.23397 9.14501 4.69093 8.77528C4.56384 8.86771 4.42519 9.02947 4.27499 9.26633C4.12478 9.50318 4.00347 9.65916 3.89948 9.74582C3.7435 9.82092 3.63374 9.86713 3.56441 9.88446C3.50087 9.90179 3.40843 9.91335 3.28712 9.91335C3.2409 9.91335 3.17158 9.90179 3.07915 9.88446C2.92317 9.80358 2.78452 9.68804 2.66898 9.54939C2.55344 9.41075 2.46678 9.25477 2.41479 9.07568C2.18371 6.36049 1.95841 3.63374 1.7331 0.906994C1.5829 1.04564 1.47891 1.2074 1.40959 1.39804C1.34027 1.58868 1.3056 1.79666 1.3056 2.02774C1.3056 2.25882 1.33449 2.47256 1.38648 2.69209L1.79087 8.76373C1.84864 9.21434 1.90064 9.53784 1.95841 9.73426C2.05084 10.0867 2.20104 10.3697 2.41479 10.595C2.50722 10.7048 2.60543 10.7799 2.70364 10.8261C2.80763 10.8666 2.92894 10.8897 3.07915 10.8897C3.16002 10.8897 3.28712 10.8781 3.45465 10.8608C3.65107 10.7972 3.84171 10.6181 4.03235 10.3351C4.22299 10.0462 4.35586 9.87291 4.44252 9.80937C4.82958 10.0867 5.22819 10.3004 5.64414 10.4448C6.0543 10.595 6.50491 10.6932 6.99596 10.751C7.31947 10.7799 7.6372 10.7915 7.95494 10.7915C8.46332 10.7915 8.97747 10.751 9.49162 10.6759C10.0116 10.595 10.5142 10.4853 11.0052 10.3351C11.346 10.2311 12.1317 9.96534 13.3622 9.53206C13.9457 9.32987 14.4079 9.17389 14.7487 9.07568C14.8122 9.15078 14.8469 9.24899 14.8469 9.36453C14.8469 9.39342 14.8354 9.46852 14.8122 9.60139C14.7891 9.72849 14.7776 9.83825 14.7776 9.91913C14.7776 10 14.7891 10.0867 14.818 10.1675C14.8758 10.26 14.9451 10.3408 15.0376 10.4044C15.0838 10.4391 15.1704 10.4853 15.3033 10.543C15.4419 10.5719 15.5864 10.5835 15.7308 10.5835C16.0428 10.5835 16.3374 10.5199 16.6089 10.3871C16.8804 10.26 17.1057 10.0635 17.279 9.80358C17.3888 9.46852 17.4639 9.17967 17.5101 8.92548C17.5505 8.6713 17.5737 8.37089 17.5737 8.01849C17.5737 7.45234 17.5101 6.86309 17.3772 6.24495C17.3426 6.0312 17.2155 5.44772 17.0017 4.48296C16.8458 3.75506 16.7418 3.16002 16.6956 2.70942L16.8458 2.513C16.9555 2.66898 17.0653 2.82496 17.1808 2.96938C17.2559 3.05026 17.331 3.09648 17.4177 3.09648V3.10226ZM8.39399 0.855004L8.18602 1.16118C7.29058 1.49625 6.62045 1.73888 6.17562 1.89486C4.75448 2.42057 3.64529 2.8654 2.84806 3.22357C2.99827 2.95783 3.29289 2.73253 3.73772 2.55922C4.0959 2.42057 4.46563 2.27614 4.83536 2.13172C6.01964 1.70422 7.20393 1.2825 8.39977 0.855004H8.39399ZM8.74061 5.78856C8.6944 5.78856 8.62507 5.76545 8.53264 5.71346C8.44021 5.66147 8.37088 5.64414 8.32467 5.64991C8.23224 5.80589 8.17447 6.06009 8.14558 6.40671C8.1167 6.75333 8.07626 6.99596 8.01849 7.13461C7.90872 7.04218 7.81051 6.92663 7.72964 6.78798C7.59099 6.56846 7.45234 6.33738 7.31369 6.1063C7.27903 6.16407 7.22126 6.16985 7.14616 6.13519C7.07106 6.10053 7.02484 6.07741 7.00751 6.07741C6.91508 6.01387 6.86886 5.92144 6.86886 5.80012C6.86886 5.76546 6.88042 5.71924 6.90352 5.66147C6.92663 5.6037 6.94974 5.54593 6.97863 5.48238C7.0364 5.40728 7.09417 5.39573 7.15771 5.44195C7.31369 5.59215 7.45812 5.75968 7.59677 5.95032C7.72964 6.14096 7.85095 6.34316 7.94916 6.55113C8.01271 6.21029 8.0647 5.95032 8.09937 5.77701C8.18024 5.4535 8.31889 5.29174 8.50376 5.29174C8.54997 5.29174 8.6193 5.31485 8.70595 5.35529C8.79261 5.39573 8.83882 5.44772 8.83882 5.51704C8.83882 5.56326 8.82727 5.60948 8.80416 5.6557C8.78105 5.70191 8.75794 5.74812 8.74061 5.79434V5.78856ZM13.2871 11.762C13.3044 11.866 13.2756 11.9815 13.1889 12.1086C13.1427 12.1722 13.1023 12.2299 13.0734 12.2761C13.0387 12.3224 12.9983 12.3455 12.9405 12.3455H12.8423C12.7383 12.1895 12.6921 12.022 12.6921 11.8486C12.6921 11.6638 12.7499 11.4443 12.8712 11.1843C12.9636 10.9821 13.0618 10.7799 13.16 10.5719C13.16 10.647 13.1023 10.855 12.9925 11.1958C12.9347 11.3692 12.9116 11.5078 12.9116 11.6002C12.9116 11.7678 12.9694 11.9006 13.0791 12.0046C13.1138 11.9873 13.1485 11.9469 13.1774 11.8775C13.2062 11.8082 13.2409 11.7735 13.2871 11.7678V11.762ZM1.69844 0.531492C1.63489 0.762573 1.40959 0.970537 1.03408 1.1554C0.583478 1.37493 0.28885 1.56558 0.161756 1.72155C0.132871 1.64645 0.150202 1.56557 0.202195 1.47314C0.294628 1.36338 0.358175 1.2825 0.398614 1.23628C0.369729 1.20739 0.300405 1.16696 0.184865 1.10919C0.0693245 1.05142 0.00577701 0.982099 0 0.901221C0.103986 0.699025 0.196419 0.543042 0.277297 0.427502C0.404391 0.242638 0.543039 0.0982091 0.693241 0C0.84922 0.034662 0.958983 0.0982165 1.02831 0.179095C0.993645 0.335074 0.930098 0.44483 0.84922 0.496823C0.699018 0.375506 0.606586 0.317737 0.56037 0.317737L0.27152 0.664361C0.32929 0.739462 0.398614 0.791455 0.491046 0.826117C0.583478 0.860779 0.687464 0.872334 0.808781 0.872334C0.912768 0.872334 0.999423 0.872331 1.07452 0.860777C1.14962 0.849223 1.24783 0.803004 1.38071 0.722126C1.55402 0.612363 1.66956 0.548818 1.71577 0.52571L1.69844 0.531492ZM4.5985 6.18718C4.63316 6.3836 4.57539 6.56847 4.41941 6.74178C4.35586 6.79955 4.30387 6.82843 4.27499 6.83998C4.24032 6.85154 4.20566 6.83998 4.171 6.79954C4.06701 6.64356 4.0208 6.47025 4.0208 6.28539C4.0208 6.13519 4.05546 5.97921 4.11901 5.80589C4.18255 5.63258 4.26921 5.45928 4.36742 5.28597C4.36742 5.34951 4.33853 5.47661 4.28654 5.66147C4.22877 5.84633 4.20566 5.99076 4.20566 6.08897C4.20566 6.24495 4.26343 6.37782 4.3732 6.47603C4.43674 6.46448 4.48296 6.41826 4.50607 6.33738C4.52917 6.2565 4.56384 6.20451 4.61005 6.18718H4.5985ZM5.64991 11.9122C5.56904 12.0508 5.4766 12.1837 5.37262 12.305C5.26863 12.4321 5.17042 12.5592 5.06644 12.6863L4.16522 12.2299C4.21144 12.074 4.29232 11.918 4.40208 11.7735C4.46563 11.6927 4.59272 11.5598 4.77759 11.3865C4.8238 11.4154 4.93356 11.4674 5.11265 11.5367C5.37262 11.6464 5.5517 11.7735 5.65569 11.9122H5.64991Z" fill="white"/>
</svg>
