<svg width="20" height="16" viewBox="0 0 20 16" fill="none" xmlns="http://www.w3.org/2000/svg">
<path fill-rule="evenodd" clip-rule="evenodd" d="M19.5791 0.101596C19.5356 0.370101 19.4485 0.624093 19.3179 0.856314C19.1872 1.09579 19.0203 1.34253 18.8099 1.59652C18.7954 1.48041 18.8534 1.30624 18.984 1.08128C19.1147 0.856312 19.1727 0.703918 19.1727 0.616835C19.1727 0.544266 19.1582 0.486212 19.1219 0.428157C17.9826 0.827286 17.1118 1.08853 16.5094 1.21916C15.9071 1.34978 15.3411 1.40784 14.8186 1.40784H14.1219C14.2235 1.56749 14.3033 1.71988 14.3541 1.85777C14.4049 1.99565 14.434 2.1553 14.434 2.32946C14.434 2.38752 14.4194 2.4746 14.3977 2.59071C14.3033 2.75036 14.209 2.91002 14.1219 3.06241C14.1582 2.96081 14.1727 2.83745 14.1727 2.69957C14.1727 2.40929 14.0784 2.14078 13.897 1.90131C13.8389 1.77068 13.6792 1.61829 13.418 1.43686C13.1567 1.25544 13.0261 1.09579 13.0261 0.95791C13.0261 0.885341 13.0697 0.783743 13.164 0.667633C13.8171 0.841798 14.4775 0.928882 15.1524 0.928882C15.5588 0.928882 15.9216 0.907112 16.2482 0.856314C17.2932 0.718433 18.2656 0.428157 19.1727 0C19.3687 0 19.5065 0.036284 19.5718 0.101596H19.5791ZM10.8345 1.64006C10.8708 1.69811 10.8781 1.76343 10.8636 1.84325C10.8491 1.91582 10.7837 2.08273 10.6821 2.33672C10.6386 2.41655 10.5515 2.46009 10.4354 2.46009C10.3411 2.46009 10.2612 2.43832 10.1887 2.38752C10.1089 2.19158 10.0653 1.96662 10.0653 1.72714C10.0653 1.1611 10.283 0.638605 10.7112 0.174164C10.7112 0.27576 10.6531 0.478956 10.5298 0.769232C10.4064 1.05951 10.3483 1.27721 10.3483 1.41509C10.3483 1.64732 10.4354 1.82148 10.6096 1.93759L10.8345 1.64006ZM12.939 5.76923C12.9826 5.92163 12.9681 6.08128 12.8955 6.24819C12.8229 6.41509 12.7141 6.56749 12.5762 6.69086C12.3295 6.69086 12.1916 6.60377 12.1553 6.42961C12.0972 6.27721 12.0682 6.10305 12.0682 5.90711C12.0682 5.57329 12.1916 5.15965 12.4311 4.67344C12.5472 4.44122 12.6705 4.209 12.7939 3.97678C12.6415 4.52104 12.4891 5.06531 12.344 5.61683V5.8418C12.3657 5.9434 12.4238 6.06676 12.5181 6.20464C12.6488 6.22641 12.7358 6.16836 12.7939 6.02322C12.852 5.87808 12.8955 5.791 12.9318 5.76923H12.939ZM19.9927 12.8084C19.9202 12.9753 19.8041 13.1422 19.6299 13.3019C19.3832 13.5486 19.238 13.7083 19.18 13.7808L18.0987 13.2075L17.3875 13.8897C17.3295 13.8462 17.1771 13.7736 16.9231 13.6792C16.6763 13.5849 16.5167 13.4978 16.4586 13.418C16.5747 13.1858 16.6909 12.9971 16.8142 12.8447C16.9376 12.6923 17.09 12.5689 17.2787 12.4601C17.6052 12.5327 17.9536 12.6778 18.3237 12.8955L19.0566 12.1843C19.3106 12.3367 19.5138 12.4601 19.6662 12.5544C19.8186 12.6488 19.9274 12.7358 20 12.8157L19.9927 12.8084ZM16.0015 11.6691C16.045 11.7126 16.074 11.7634 16.074 11.807C16.074 11.865 16.0595 11.9086 16.0377 11.9448C16.016 11.9811 15.9652 12.0464 15.8999 12.1335C15.6894 12.2932 15.537 12.402 15.4282 12.4456C15.254 12.5399 15.0726 12.5835 14.8911 12.5835C14.7968 12.5835 14.7242 12.5762 14.6662 12.5544C14.6081 12.5399 14.5501 12.5254 14.492 12.5109C14.434 12.4964 14.3759 12.4964 14.3179 12.4964C14.0276 12.4964 13.701 12.6488 13.3454 12.9463C12.8229 13.3745 12.5181 13.6139 12.4383 13.6575L10.7112 14.4049C11.016 14.2671 11.3062 14.1074 11.5965 13.926C11.8868 13.7446 12.1916 13.5341 12.5181 13.3019C12.8447 13.0624 13.164 12.8374 13.4833 12.6125C13.8026 12.3948 14.1147 12.1916 14.4122 12.0174C14.5065 12.0029 14.6372 12.0392 14.8113 12.1118C14.9855 12.1843 15.1306 12.1988 15.2467 12.1553C15.2903 12.0537 15.3411 11.9594 15.3919 11.8795C15.4427 11.7997 15.5007 11.7489 15.5588 11.7199L15.5951 11.9666C15.6894 12.0029 15.762 11.9811 15.82 11.894C15.8781 11.8142 15.9361 11.7344 15.9942 11.6473L16.0015 11.6691ZM6.89405 1.21916L6.7344 1.59652C6.58926 1.50218 6.45864 1.40784 6.32075 1.32075C6.27721 1.32075 6.24093 1.34978 6.20464 1.40784C6.1611 1.582 6.13933 1.7852 6.13933 2.01742V2.31495C6.13933 2.56168 6.13208 2.72859 6.1103 2.83019C6.09579 2.93179 6.03774 3.03338 5.9434 3.14949C5.9434 3.16401 6.09579 3.28012 6.39332 3.51234C6.61103 3.6865 6.72714 3.84615 6.72714 3.99855C6.72714 4.09289 6.6836 4.17997 6.60377 4.2598C6.23367 4.31785 5.86357 4.36865 5.50798 4.41945C5.29028 4.49202 5.11611 4.62264 5 4.81858C5.05805 5.13062 5.15965 5.51524 5.31205 5.96517C5.52975 6.61829 5.66038 7.01016 5.69666 7.1553C5.791 7.5254 5.83454 7.88099 5.83454 8.2148C5.83454 8.46154 5.81277 8.6865 5.76197 8.89695C5.71843 9.1074 5.62409 9.32511 5.48621 9.55733C5.54427 9.41945 5.58781 9.26705 5.60958 9.10015C5.63135 8.93324 5.64586 8.78084 5.64586 8.6357C5.64586 8.418 5.62409 8.20755 5.58781 8.00435C5.54427 7.80116 5.43541 7.4238 5.24673 6.87228C5.11611 6.50943 5.02177 6.20464 4.9492 5.9434C4.87663 5.68215 4.84761 5.41364 4.84761 5.13788C4.84761 4.86212 4.8984 4.58636 5.00726 4.28882C5.1016 4.18723 5.26851 4.10015 5.50073 4.03483C5.7402 3.96952 5.89985 3.91147 5.97968 3.85341C5.88534 3.75182 5.72569 3.70101 5.49347 3.70101C5.47895 3.71553 5.44267 3.75181 5.3701 3.82438C5.29753 3.8897 5.23948 3.92598 5.19594 3.92598C5.21771 3.75181 5.26125 3.61393 5.3193 3.50508C5.37736 3.39622 5.47895 3.30189 5.61684 3.2148C5.63135 3.23657 5.6894 3.25109 5.791 3.25109C5.65312 2.87373 5.54427 2.58346 5.45718 2.40203C5.29753 2.04645 5.08708 1.87954 4.83309 1.91582C4.73149 1.87954 4.64441 1.84325 4.5791 1.79245C4.51379 1.74891 4.4775 1.6836 4.46299 1.60377C4.49927 1.37155 4.5283 1.22642 4.54282 1.15385C4.55733 1.08853 4.62264 1.00871 4.7315 0.928882C5.01451 1.01596 5.26125 1.24093 5.46444 1.59652C5.61684 1.90131 5.78374 2.20609 5.9434 2.49637C6.00145 1.98839 6.03774 1.6836 6.05951 1.58926C6.13208 1.2627 6.2627 1.00871 6.43686 0.82003C6.51669 0.82003 6.58926 0.849055 6.65457 0.899853C6.71988 0.950652 6.79971 1.05951 6.88679 1.21916H6.89405ZM19.5718 7.68505C19.4993 7.46734 19.2598 6.94485 18.8389 6.11756C18.5123 5.47896 18.3527 4.94195 18.3527 4.49927L18.7518 4.79681C18.7736 4.75327 18.7881 4.68795 18.7881 4.60813C18.7881 4.41219 18.643 4.1582 18.3527 3.8389C18.0044 3.4688 17.8084 3.24383 17.7576 3.15675C17.4891 3.50508 17.3295 3.92598 17.2714 4.4267C17.4673 5.12337 17.7649 5.8926 18.1567 6.72714C18.3672 7.16981 18.7373 7.90276 19.2743 8.91872C19.18 9.01306 19.0203 9.1074 18.7881 9.19448C18.672 9.23802 18.5776 9.28157 18.5123 9.31785C18.418 9.31785 18.2801 9.31785 18.0842 9.33237C17.8955 9.34688 17.7504 9.34688 17.656 9.34688C17.3875 9.34688 17.1771 9.31059 17.0174 9.24528C16.8578 9.17271 16.7271 9.08563 16.6183 8.96952C16.5094 8.85341 16.4369 8.77359 16.4006 8.72279C16.328 8.62845 16.299 8.53411 16.299 8.42525C16.299 8.3672 16.3135 8.30189 16.3498 8.23657C16.27 8.30914 16.0813 8.59216 15.791 9.09289C15.5733 9.46299 15.312 9.6807 15.0218 9.73875C14.9274 9.77503 14.8331 9.78955 14.746 9.78955C14.4702 9.78955 14.2235 9.65893 14.0131 9.39042C13.955 9.33237 13.926 9.2598 13.926 9.17997C13.926 9.13643 13.955 9.04209 14.0058 8.91146C14.0566 8.78084 14.0856 8.67925 14.0856 8.60668C14.0856 8.56314 14.0711 8.50508 14.0493 8.43251C13.7155 8.78084 13.4325 9.02758 13.2148 9.17997C12.881 9.41219 12.5399 9.5283 12.2061 9.5283C12.1335 9.5283 12.0537 9.5283 11.9521 9.51379C11.8505 9.49928 11.7707 9.48476 11.6981 9.46299C11.4441 9.39042 11.2264 9.24528 11.0522 9.02758C10.8781 8.80987 10.762 8.55588 10.7039 8.28012L10.1451 9.15094C10.3048 9.88389 10.4717 10.6168 10.6313 11.3425C9.84035 11.9811 8.99129 12.5254 8.09144 12.9681C7.18432 13.418 6.25544 13.7518 5.30479 13.9695C4.76052 14.1219 4.209 14.1945 3.65022 14.1945C3.09144 14.1945 2.53266 14.0929 2.04644 13.897C1.56023 13.701 1.1611 13.389 0.86357 12.9753C0.65312 12.6415 0.551523 12.2351 0.551523 11.7562C0.551523 11.4877 0.587808 11.1901 0.667634 10.8563C0.740203 10.5225 0.834543 10.2395 0.936139 9.99274C1.01597 10.0073 1.12482 10.0218 1.24819 10.0435C1.26996 10.0435 1.32801 10.029 1.42235 10.0073C1.71263 9.81858 1.92308 9.52105 2.04644 9.10015C2.11901 8.75181 2.18432 8.39622 2.25689 8.04064C2.22061 8.08418 2.1553 8.20029 2.06821 8.38171C1.97387 8.56313 1.89405 8.67199 1.83599 8.70101C1.77068 8.7373 1.69811 8.75181 1.61829 8.75181C1.44412 8.75181 1.29173 8.67924 1.16836 8.52685C1.01596 8.17852 0.943396 7.80116 0.943396 7.39477C0.943396 6.98839 1.03774 6.50943 1.21916 5.98694C1.35704 5.59507 1.55297 5.16691 1.79245 4.71698C1.32801 5.33382 0.986937 5.92162 0.761973 6.47315C0.493468 7.14804 0.362845 7.82293 0.362845 8.51234C0.362845 8.75907 0.377358 8.99855 0.413643 9.24528C0.566038 9.46299 0.638606 9.69521 0.638606 9.92743C0.638606 10.1016 0.493469 10.5806 0.203193 11.3716C0.0725687 11.7199 0.0145134 12.0174 0.0145134 12.2569C-3.59553e-07 12.3512 0 12.4819 0 12.656C0 13.135 0.0870825 13.5559 0.261248 13.926C0.435413 14.2961 0.703919 14.5936 1.05951 14.8113C1.46589 15.0073 1.88679 15.1596 2.32221 15.254C2.75762 15.3556 3.19303 15.3991 3.62119 15.3991C4.76052 15.3991 5.97968 15.0871 7.27866 14.4557C8.28737 13.9695 9.36865 13.2801 10.5152 12.3803C10.6313 12.2787 10.7837 11.9448 10.9652 11.3861C11.1176 10.9579 11.328 10.7402 11.611 10.7402C11.6836 10.7402 11.7417 10.7402 11.7852 10.7547C12.5762 10.7547 13.164 10.4354 13.5631 9.79681C13.6212 10.1669 13.6647 10.3919 13.6865 10.4644C13.7083 10.537 13.7591 10.6241 13.8244 10.7184C14.1001 10.9071 14.3977 10.9942 14.7097 10.9942C15.0726 10.9579 15.3628 10.7765 15.5806 10.4572C15.7112 10.283 15.8491 9.97823 16.0015 9.53556L16.299 10.0435C16.4732 10.254 16.6691 10.3919 16.8941 10.4717C17.1118 10.5443 17.373 10.5878 17.6633 10.5878C17.91 10.5878 18.1713 10.5515 18.4543 10.4862C18.7373 10.4136 18.9768 10.3483 19.18 10.2758C19.3759 10.0871 19.5065 9.87663 19.5718 9.63715C19.6372 9.39768 19.6662 9.1074 19.6662 8.75907C19.6662 8.62845 19.6589 8.46154 19.6372 8.24383C19.6226 8.02612 19.6009 7.83745 19.5791 7.66328L19.5718 7.68505ZM8.28737 8.17126C8.28737 8.28737 8.25834 8.41074 8.20029 8.53411C8.14223 8.66473 8.09869 8.75907 8.06241 8.83164C7.98984 8.86792 7.93179 8.88244 7.87373 8.88244C7.83019 8.88244 7.75762 8.86792 7.66328 8.83164C7.56168 8.59942 7.50363 8.38171 7.50363 8.17126C7.50363 7.8955 7.56894 7.59797 7.70682 7.28592C7.83744 6.97388 7.97533 6.66183 8.11321 6.3643C7.98258 6.85051 7.85922 7.33672 7.72859 7.83019C7.72859 8.10595 7.83744 8.30914 8.06241 8.43977C8.10595 8.418 8.14223 8.3672 8.16401 8.28012C8.18578 8.20029 8.22932 8.16401 8.28737 8.17852V8.17126Z" fill="white"/>
</svg>
