<svg width="20" height="12" viewBox="0 0 20 12" fill="none" xmlns="http://www.w3.org/2000/svg">
<path fill-rule="evenodd" clip-rule="evenodd" d="M19.4905 0C19.4608 0.173139 19.2926 0.296815 18.9908 0.361123C18.6891 0.430379 18.511 0.479849 18.4566 0.50953C17.0022 1.03389 15.5429 1.55331 14.0885 2.07767C14.1578 1.81549 14.3557 1.64234 14.6822 1.5533C15.1472 1.41974 15.4143 1.3307 15.4786 1.29112C17.0121 0.766758 17.8432 0.489737 17.9718 0.450163C18.4863 0.281971 18.9908 0.133564 19.4905 0ZM17.1655 2.43384C17.1358 2.44374 17.1012 2.48331 17.0715 2.55256C17.0418 2.62182 17.0022 2.66634 16.9528 2.68118C16.8192 2.61193 16.7499 2.4932 16.7499 2.32501C16.7499 2.31017 16.7598 2.25081 16.7747 2.14693C16.7895 2.04304 16.8044 1.9441 16.8241 1.85011C16.6757 2.09746 16.5966 2.37448 16.5966 2.68118C16.6065 2.75044 16.6362 2.81474 16.6856 2.86916C16.7351 2.92357 16.7994 2.96315 16.8687 2.98788C16.9775 2.9582 17.0566 2.87906 17.1061 2.75044C17.1209 2.70097 17.1407 2.59708 17.1655 2.42889V2.43384ZM14.5634 0.0346314C12.8766 0.578782 11.1848 1.21197 9.48306 1.92431C9.45338 1.97873 9.41875 2.03315 9.38907 2.09251C9.35939 2.14693 9.34949 2.19639 9.36433 2.23597C10.1855 1.87979 10.8484 1.60278 11.348 1.4049C11.9515 1.16746 12.6193 0.920112 13.3564 0.667824C13.4356 0.618356 13.6631 0.539207 14.044 0.420483C14.3309 0.33144 14.5041 0.207767 14.5684 0.0395755L14.5634 0.0346314ZM20 9.65125C19.8021 9.85902 19.5845 10.0223 19.3421 10.1459C19.0997 10.2696 18.8474 10.329 18.5902 10.329C18.422 10.329 18.2835 10.3092 18.1647 10.2696C18.1004 10.2152 18.051 10.1558 18.0114 10.0965C17.9718 10.0371 17.952 9.9728 17.952 9.89859C17.952 9.85902 17.9619 9.81449 17.9866 9.76997L18.3428 9.30498C18.2785 9.30498 18.2142 9.2753 18.1548 9.21099C18.0856 9.117 18.0312 9.05269 18.0015 9.023C18.0806 8.88944 18.1697 8.77566 18.2637 8.69157C18.3923 8.58274 18.511 8.52338 18.6297 8.52338C18.699 8.52338 18.7732 8.54811 18.8424 8.59263C18.8721 8.6421 18.8721 8.69652 18.8326 8.76082C18.793 8.82513 18.7435 8.86965 18.6891 8.88944C18.6594 8.81029 18.6 8.77072 18.511 8.77072C18.4566 8.77072 18.3873 8.79545 18.3082 8.83997L18.2835 8.86471C18.323 8.93397 18.3873 8.98343 18.4714 9.01311C18.5605 9.04279 18.6446 9.06753 18.7336 9.09226C18.8029 9.06258 18.887 9.02795 18.981 8.99827C19.0749 8.96859 19.1491 8.94385 19.1937 8.92901C19.164 9.03784 18.9908 9.17636 18.6841 9.33466C18.3774 9.49296 18.2191 9.62157 18.2191 9.71556C18.2191 9.76503 18.2389 9.80955 18.2736 9.85902C18.3082 9.90849 18.3725 9.9629 18.4566 10.0272C18.5654 10.0519 18.6693 10.0618 18.7633 10.0618C18.9612 10.0618 19.1739 10.0173 19.4064 9.93322C19.5004 9.90354 19.6982 9.80955 20 9.66115V9.65125ZM8.15236 1.57804C8.08311 1.57804 8.0188 1.54836 7.96438 1.48405C7.95449 1.46921 7.91491 1.4049 7.84566 1.29607C7.83576 1.26639 7.83577 1.21198 7.83577 1.14272C7.83577 0.890434 7.91986 0.648037 8.08311 0.420483C8.06827 0.469951 8.04848 0.539208 8.02374 0.638144C7.99901 0.737081 7.98912 0.81623 7.98912 0.870645C7.98912 1.03884 8.04353 1.16251 8.15731 1.25155C8.22656 1.26639 8.28593 1.22682 8.3255 1.12788C8.36508 1.02895 8.38981 0.974527 8.39476 0.96958C8.41949 1.10314 8.4096 1.22681 8.37002 1.3307C8.33045 1.43953 8.26119 1.52362 8.15731 1.58793L8.15236 1.57804ZM10.8138 3.41826C10.7841 3.4974 10.7593 3.56172 10.7445 3.61613C10.7297 3.6656 10.695 3.67549 10.6357 3.63592C10.606 3.59634 10.5615 3.56666 10.512 3.55182C10.4625 3.53698 10.423 3.52214 10.3982 3.51719C10.2647 3.97724 10.1311 4.43236 10.0074 4.88252C9.92827 4.79348 9.83923 4.64507 9.74029 4.43236C9.64135 4.21964 9.55726 4.06629 9.48306 3.96735C9.45338 4.01682 9.40885 4.03166 9.35939 4.01682C9.30992 4.00198 9.26045 3.98714 9.21098 3.96735C9.18625 3.91788 9.17635 3.87337 9.17635 3.8239C9.17635 3.74475 9.20109 3.65571 9.24561 3.56172C9.2555 3.54688 9.28518 3.4974 9.3396 3.41826C9.4979 3.48751 9.62652 3.64581 9.7304 3.88326C9.8788 4.20975 9.97774 4.39772 10.0173 4.45214C10.0965 4.08113 10.1608 3.80906 10.2053 3.63097C10.2548 3.45783 10.329 3.30943 10.4328 3.19071C10.512 3.18081 10.5813 3.2006 10.6456 3.25007C10.6851 3.2748 10.7395 3.32921 10.8138 3.41826ZM19.8466 6.42098C19.2135 6.66832 18.5803 6.91071 17.9471 7.15805C17.1952 7.44497 16.5273 7.58348 15.9387 7.58348C15.5578 7.44991 15.2609 7.20752 15.0482 6.86619C14.8355 6.51991 14.7267 6.1489 14.7267 5.74326C15.0532 5.41677 15.4489 5.17438 15.9189 5.01113C16.3888 4.84789 16.8884 4.76874 17.4079 4.76874C17.7739 4.76874 18.1301 4.80336 18.4764 4.87757C18.3032 4.62528 18.0856 4.4472 17.8283 4.34332C17.5711 4.23943 17.2743 4.18996 16.933 4.18996C16.8786 4.18996 16.7994 4.18996 16.7005 4.19491C16.6015 4.19491 16.4482 4.2147 16.2454 4.24933C15.81 4.35321 15.4044 4.56097 15.0235 4.87262C14.6426 5.18427 14.3903 5.54539 14.2617 5.96092C14.2617 6.0005 14.2518 6.05986 14.237 6.13901V6.31709C14.237 6.64358 14.2963 6.96018 14.42 7.27183C14.5437 7.58348 14.7267 7.84566 14.974 8.06332C14.8701 8.10289 14.7613 8.12269 14.6426 8.12269H14.5041C14.4596 8.12269 14.415 8.12269 14.3656 8.11279C13.6829 7.92976 13.2426 7.43013 13.0349 6.61885C12.9162 5.90651 12.8024 5.19417 12.6886 4.48183C12.5402 4.61044 12.4314 4.744 12.372 4.88746C12.3126 5.03092 12.283 5.18922 12.283 5.36236C12.283 5.49098 12.2929 5.61959 12.3176 5.75316C12.3671 5.93619 12.4116 6.11922 12.461 6.29731C12.555 6.66337 12.6045 6.94534 12.6045 7.15311C12.5006 7.31141 12.3671 7.43508 12.2088 7.51917C12.0455 7.60822 11.8724 7.65768 11.6794 7.67252C11.4321 7.67252 11.2293 7.6379 11.0611 7.56369C10.8929 7.49444 10.7643 7.36582 10.6703 7.18279C10.6802 7.15805 10.695 7.12343 10.7198 7.06901C10.7445 7.01954 10.7445 6.97997 10.7198 6.95524C10.6901 6.97997 10.5516 7.13332 10.3141 7.42023C10.1459 7.628 9.97774 7.73684 9.8046 7.75168C9.73534 7.77641 9.66609 7.7863 9.60178 7.7863C9.38907 7.7863 9.21593 7.7022 9.07742 7.53896C9.023 7.47465 8.99332 7.41034 8.99332 7.35098C8.99332 7.30151 9.023 7.22731 9.08236 7.11848C9.14173 7.00965 9.16151 6.92061 9.14667 6.85135C9.1071 6.84146 9.06752 6.8563 9.0329 6.89093L8.89439 7.02944C8.66683 7.35593 8.33045 7.51422 7.88523 7.51422C7.7022 7.51422 7.53401 7.48454 7.37571 7.43013C7.20257 7.40045 7.06901 7.28667 6.97007 7.09869C6.9206 6.99481 6.86124 6.83651 6.78209 6.62379C6.60895 6.86124 6.48034 7.09869 6.40119 7.33614C6.44076 7.49444 6.51002 7.74178 6.60401 8.07322C6.66832 8.35024 6.698 8.60747 6.698 8.84492C6.12911 9.22582 5.57507 9.53748 5.03586 9.78482C4.42741 10.0618 3.82884 10.2548 3.24511 10.3685C3.1907 10.3685 3.1066 10.3784 2.99777 10.3933H2.73559C2.2607 10.3933 1.85506 10.329 1.52362 10.2053C1.11303 10.047 0.791491 9.78976 0.563937 9.43359C0.445214 9.25056 0.385852 9.04774 0.385852 8.81524C0.385852 8.60253 0.445214 8.35024 0.563937 8.06827C0.588671 8.0188 0.697502 7.79619 0.895374 7.39055C1.1724 7.36582 1.37027 7.20258 1.48899 6.89093C1.5533 6.62874 1.61761 6.36656 1.69181 6.09449C1.66708 6.10933 1.60277 6.21815 1.48899 6.41603C1.41974 6.54959 1.31091 6.59906 1.16745 6.55949C1.03389 6.3913 0.939896 6.233 0.890428 6.0747C0.840959 5.91641 0.811278 5.73337 0.811278 5.53055C0.811278 5.22385 0.900321 4.84294 1.07346 4.39278C1.22186 4.0465 1.37522 3.69528 1.52362 3.349C1.17734 3.87831 0.920109 4.32352 0.751917 4.6797C0.489735 5.23374 0.361118 5.72842 0.361118 6.16374C0.361118 6.37646 0.390798 6.59411 0.455107 6.81178C0.519416 7.02944 0.623299 7.22731 0.761811 7.41034L0.712342 7.44497C0.712342 7.44497 0.692555 7.42024 0.677715 7.3955C0.410586 7.88029 0.252288 8.15731 0.212713 8.23646C0.0692552 8.55306 0 8.85976 0 9.15162C0 9.53253 0.0742021 9.87386 0.21766 10.1855C0.366065 10.4922 0.593618 10.7247 0.910215 10.8731C1.14766 11.0166 1.38511 11.1155 1.62256 11.1699C1.86 11.2243 2.11724 11.254 2.39426 11.254C2.84442 11.254 3.33416 11.1749 3.85357 11.0166C4.26416 10.888 4.71432 10.7099 5.19911 10.4774C5.6839 10.2449 6.09943 9.95301 6.44076 9.60673C6.83651 9.20109 7.06901 8.76083 7.14321 8.27604C7.28667 8.33045 7.44002 8.36013 7.60821 8.36013C7.99406 8.36013 8.33045 8.21667 8.61736 7.93471C8.6421 8.06332 8.66683 8.16226 8.70146 8.24141C8.73114 8.32056 8.7905 8.38981 8.86965 8.45412C8.97848 8.57285 9.13678 8.63221 9.34455 8.63221C9.39896 8.63221 9.49295 8.62231 9.62157 8.59758C9.75019 8.57284 9.8788 8.50359 10.0025 8.38981C10.1261 8.27604 10.2201 8.13752 10.2943 7.97923C10.3883 8.16226 10.5268 8.29582 10.7049 8.37497C10.883 8.45907 11.1848 8.49864 11.6151 8.49864C11.8526 8.49864 12.0752 8.41455 12.2879 8.24141C12.4957 8.07321 12.6441 7.8704 12.7331 7.64285C12.7727 7.69726 12.8222 7.80114 12.8766 7.94955C12.931 8.09795 12.9805 8.20678 13.02 8.27109C13.2031 8.52337 13.4009 8.70146 13.6137 8.80534C13.8264 8.90923 14.0787 8.95869 14.3606 8.95869C15.2016 8.74598 16.0376 8.52832 16.8786 8.30572C16.9824 8.24141 17.5216 8.02869 18.4912 7.66263C18.8721 7.51917 19.164 7.36088 19.3718 7.18774L19.8368 6.42592L19.8466 6.42098ZM12.7232 10.0915C12.6738 10.1707 12.6144 10.2548 12.5451 10.3389C12.4264 10.4675 12.3126 10.5961 12.1989 10.7297C11.8922 10.6258 11.6003 10.4724 11.3332 10.2647L11.9515 9.70567L12.7232 10.0866V10.0915ZM5.45634 0.331444C5.46624 0.385859 5.42666 0.48974 5.34751 0.638144C5.2931 0.608463 5.23868 0.573837 5.18922 0.539209C5.13975 0.504582 5.08039 0.484794 5.01608 0.484794C4.92703 0.657933 4.85778 0.949795 4.80336 1.35049C4.74895 1.75613 4.69453 2.0282 4.63517 2.17165C4.72916 2.23596 4.82315 2.30523 4.91219 2.37943C5.00124 2.45363 5.08039 2.53772 5.14469 2.63666C5.08039 2.80485 4.89241 2.88894 4.58076 2.89884C4.26911 2.90873 4.06134 2.96315 3.95746 3.06704C3.8882 3.21049 3.84863 3.37374 3.84863 3.56666C3.84863 3.73485 3.87831 3.92778 3.93272 4.15038C4.06629 4.68959 4.13554 5.02103 4.13554 5.14964V5.35246C4.13554 5.6938 4.12565 5.93619 4.10091 6.08954C4.05145 6.36657 3.9624 6.58422 3.82884 6.74252C3.8981 6.59906 3.95251 6.4556 3.98219 6.3072C4.01187 6.15879 4.03166 6.01039 4.03166 5.86199C4.03166 5.69379 4.02177 5.54539 3.99703 5.41678C3.9723 5.28816 3.92778 5.09523 3.86841 4.84294C3.77442 4.4373 3.71506 4.18007 3.69528 4.06134C3.67549 3.94262 3.66559 3.79916 3.66559 3.63592C3.66559 3.40836 3.70517 3.19071 3.78432 2.98294C3.87336 2.85432 4.00198 2.76528 4.17512 2.71086C4.32352 2.68118 4.48182 2.64161 4.64012 2.60203C4.5857 2.55256 4.53129 2.51794 4.48677 2.48826C4.4373 2.45858 4.38288 2.44868 4.31857 2.44868C4.25427 2.44868 4.19985 2.46847 4.16028 2.50804C4.11576 2.54762 4.07618 2.58719 4.03661 2.62677C4.02177 2.57235 4.03661 2.5031 4.07123 2.42395C4.08113 2.40911 4.10092 2.36953 4.1306 2.31017C4.16028 2.25081 4.21469 2.21124 4.28889 2.1865C4.3631 2.16177 4.4274 2.14692 4.47193 2.13703C4.38288 1.83527 4.279 1.60277 4.15533 1.42963C4.03166 1.26144 3.82884 1.04873 3.54192 0.796439C3.55676 0.702449 3.57655 0.628251 3.59634 0.568889C3.61613 0.514474 3.65075 0.450163 3.69528 0.380907C3.90304 0.484791 4.08113 0.68761 4.22953 0.99926C4.44225 1.43458 4.57086 1.68192 4.61044 1.73634C4.65001 1.46921 4.68959 1.19713 4.72916 0.930005C4.79347 0.628249 4.90725 0.385859 5.07544 0.207773C5.2189 0.207773 5.34257 0.257238 5.45634 0.351228V0.331444ZM2.08261 0.994316C2.11229 1.08831 2.11229 1.1823 2.07767 1.28123C2.04304 1.37522 1.97873 1.47415 1.89463 1.57804C1.82538 1.5632 1.76602 1.53352 1.72149 1.489C1.67697 1.44448 1.6275 1.38016 1.57309 1.29112C1.5632 1.26144 1.5632 1.20703 1.5632 1.13777C1.5632 1.00421 1.59288 0.860748 1.64729 0.712343C1.67697 0.618354 1.74128 0.484793 1.83527 0.321548C1.81054 0.430378 1.79075 0.51942 1.77591 0.583729C1.73633 0.727187 1.71655 0.831067 1.71655 0.905269C1.71655 0.979472 1.72644 1.03884 1.75117 1.09325C1.77591 1.14767 1.82043 1.20208 1.89463 1.2466C1.94905 1.25649 1.99357 1.21692 2.02325 1.13283C2.05293 1.04873 2.07272 1.00421 2.08261 0.994316ZM5.79767 6.06481C5.79767 6.20827 5.77294 6.33193 5.72842 6.43087C5.71358 6.47044 5.66906 6.5397 5.5998 6.64359C5.4514 6.65843 5.35741 6.58422 5.32773 6.41603C5.32773 6.18847 5.34751 5.97082 5.39204 5.77295C5.43656 5.57507 5.50581 5.36731 5.5998 5.15459C5.54539 5.41678 5.49097 5.67895 5.44645 5.93619C5.44645 6.10932 5.50581 6.24289 5.62454 6.34183C5.64927 6.31709 5.674 6.26763 5.69379 6.18848C5.71853 6.10933 5.75315 6.0648 5.80262 6.05986L5.79767 6.06481Z" fill="white"/>
</svg>
