<svg width="20" height="11" viewBox="0 0 20 11" fill="none" xmlns="http://www.w3.org/2000/svg">
<path fill-rule="evenodd" clip-rule="evenodd" d="M20 2.93216C19.9398 2.98139 19.8906 3.00875 19.8468 3.00875C19.8031 3.00875 19.7429 2.95404 19.6718 2.84463C19.6007 2.73522 19.5241 2.6641 19.453 2.63675C19.453 2.97045 19.4912 3.50109 19.5733 4.2232C19.6554 4.9453 19.6937 5.49781 19.6937 5.87527V6.28008C19.6937 6.89824 19.6772 7.3687 19.639 7.68051C19.5788 8.17832 19.4639 8.61596 19.2888 8.99342C19.3381 8.5339 19.3654 8.03063 19.3654 7.48358C19.3654 6.96389 19.3381 6.36213 19.2834 5.67832C19.2287 4.99451 19.174 4.28336 19.1138 3.55032C19.0536 2.81728 19.0263 2.23741 19.0263 1.80524C18.9825 1.7396 18.9606 1.67395 18.9606 1.6083C18.9606 1.52077 18.988 1.43326 19.0372 1.34573C19.1247 1.21444 19.2177 1.07768 19.3107 0.94092C19.535 1.60285 19.7648 2.27023 20 2.93216ZM15.0219 0.820569C15.0656 0.864332 15.0875 0.92997 15.0875 1.0175C15.0875 1.06673 15.0821 1.12144 15.0656 1.17067C15.0492 1.2199 15.0274 1.29649 14.9891 1.38948C14.9508 1.41137 14.9179 1.42231 14.8796 1.42231C14.8523 1.42231 14.7976 1.4059 14.7265 1.37855C14.6444 1.51531 14.5241 1.57002 14.3654 1.53172C14.2998 1.49343 14.267 1.42777 14.267 1.33478C14.267 1.29648 14.2724 1.25273 14.2888 1.20349C14.3053 1.15426 14.3162 1.11597 14.3326 1.08862C14.349 1.06126 14.3654 1.03938 14.3873 1.0175C14.3928 1.02297 14.3982 1.05579 14.3873 1.10503C14.3873 1.15426 14.3928 1.18708 14.4147 1.20349C14.4365 1.24725 14.4694 1.26913 14.5131 1.26913C14.535 1.26913 14.5678 1.25819 14.6116 1.23631L14.7538 0.864325H14.7976C14.7921 0.929971 14.7867 0.97921 14.7867 1.00656C14.7867 1.0558 14.8031 1.09956 14.8414 1.12691C14.8906 1.12691 14.9344 1.08861 14.9617 1.0175C14.9781 0.951852 14.9945 0.886214 15.0164 0.820569H15.0219ZM15.2735 2.29758C15.2243 2.40152 15.1586 2.50546 15.0766 2.6094C14.9945 2.71334 14.9179 2.81727 14.8468 2.91027C14.8031 2.87198 14.7155 2.82822 14.5842 2.77899C14.3654 2.69146 14.2615 2.58752 14.2779 2.47264C14.3271 2.44529 14.4037 2.35229 14.5077 2.19912C14.6116 2.04595 14.6991 1.96935 14.7702 1.96935C14.8304 1.96935 14.8797 1.98577 14.9234 2.02406C15.0383 2.11706 15.1586 2.21006 15.2735 2.29758ZM15.5689 0C15.093 0.131291 14.2287 0.366509 12.9759 0.705677C11.7232 1.04485 10.8753 1.27462 10.4376 1.40044C9.49125 1.66849 8.64333 1.92012 7.89934 2.15535C7.82823 2.19364 7.76258 2.24288 7.70788 2.30306C7.65317 2.36323 7.62582 2.42888 7.62582 2.49453C8.32057 2.24836 9.06455 2.00219 9.86871 1.76149C10.4869 1.58096 11.2527 1.36213 12.1554 1.11596C13.6214 0.716618 14.3818 0.508749 14.442 0.492338C14.6554 0.443104 14.8742 0.388389 15.1039 0.328214C15.3337 0.268039 15.4869 0.158643 15.5689 0ZM12.9322 3.46827C12.8939 3.62144 12.861 3.72537 12.8337 3.78555C12.7845 3.89496 12.7133 3.97701 12.6258 4.03718C12.5602 4.06454 12.5055 4.04266 12.4617 3.97154C12.4179 3.90043 12.3906 3.8512 12.3851 3.82932C12.3851 3.65974 12.407 3.50655 12.4508 3.36979C12.4945 3.23303 12.5656 3.06893 12.6586 2.8884C12.6586 2.93764 12.6368 3.0361 12.593 3.17286C12.5492 3.30962 12.5274 3.41902 12.5274 3.49014C12.5274 3.60502 12.5602 3.69802 12.6258 3.76366C12.7079 3.76366 12.7626 3.71444 12.7954 3.62144C12.8282 3.52844 12.872 3.47374 12.9322 3.46827ZM10.6893 3.74179C10.7166 3.83479 10.7057 3.93326 10.651 4.03173C10.5963 4.13019 10.5416 4.22318 10.4923 4.31071C10.4431 4.37635 10.361 4.42559 10.2516 4.45294C10.1422 4.4803 10.0656 4.50218 10.0219 4.51859C9.97812 4.50218 9.93435 4.47482 9.89606 4.43106C9.85777 4.38729 9.81947 4.32166 9.79212 4.23413C9.814 3.94967 9.907 3.73632 10.0656 3.58862C10.0602 3.63238 10.0383 3.69803 10.0055 3.79102C9.97265 3.88402 9.95624 3.94966 9.95624 3.99343C9.95624 4.08643 10 4.16302 10.0875 4.2232C10.1915 4.2232 10.279 4.20677 10.3556 4.17395C10.4322 4.14112 10.4869 4.08642 10.5142 4.00436C10.5142 3.93872 10.4322 3.85666 10.2626 3.76366C10.1751 3.71443 10.1313 3.6652 10.1313 3.62144C10.1313 3.58315 10.1751 3.52844 10.2626 3.44638C10.3228 3.46826 10.3775 3.49014 10.4376 3.51203C10.5525 3.56126 10.64 3.63785 10.6893 3.74179ZM15.4595 9.54047C15.4212 9.56782 15.3282 9.69365 15.1751 9.91247C15.1094 10.0055 15.0383 10.082 14.9672 10.1313C14.7757 10.0219 14.6389 9.93982 14.5514 9.87965C14.3764 9.77024 14.2724 9.67177 14.2341 9.58424L14.7155 9.04813C14.8851 9.13018 15.0109 9.19584 15.0985 9.24507C15.2298 9.32713 15.3501 9.42558 15.4595 9.54047ZM6.47702 2.21005C6.49891 2.2757 6.48249 2.35777 6.43326 2.46171C6.38403 2.56565 6.34573 2.64222 6.32385 2.69146C6.19256 2.71334 6.09956 2.65316 6.05033 2.5164C6.02845 2.41246 6.01751 2.31947 6.01751 2.23194C6.01751 2.0733 6.05033 1.90919 6.1105 1.7396C6.17068 1.57002 6.25274 1.4059 6.34573 1.23631C6.30197 1.36213 6.25821 1.49343 6.20897 1.63566C6.15974 1.77789 6.13786 1.89823 6.13786 2.00217C6.13786 2.16082 6.18709 2.29759 6.29103 2.407L6.47702 2.21005ZM17.779 6.73959C16.9912 6.73959 16.2199 6.67942 15.4595 6.55907C14.6991 6.43872 13.9442 6.30744 13.1947 6.17068C13.4847 6.03392 13.8184 5.80963 14.1904 5.50328C14.3928 5.3337 14.7046 5.08204 15.1204 4.7374C15.1805 4.80852 15.2462 4.97264 15.3173 5.22428C15.3884 5.47592 15.4978 5.6455 15.6346 5.73303C15.7221 5.77132 15.8096 5.78774 15.8972 5.78774C16.0011 5.78774 16.0886 5.77132 16.1597 5.73303C16.4934 5.58533 16.7341 5.36652 16.8818 5.07659C17.0077 4.83041 17.0678 4.51313 17.0678 4.13567C17.0678 4.10831 17.0624 3.91137 17.0459 3.55032C17.0295 3.18927 17.0241 2.93762 17.0241 2.78992C17.0241 2.67504 17.0241 2.54923 17.035 2.42341C17.0405 2.29759 17.0514 2.19365 17.0678 2.11159C17.1171 2.17176 17.1718 2.2593 17.221 2.37418C17.3031 2.54923 17.3797 2.63129 17.4617 2.61488C17.4891 2.52735 17.4015 2.19365 17.1991 1.61925C17.1335 1.42779 17.0295 1.15425 16.8818 0.787731C16.8162 0.804142 16.756 0.853392 16.6958 0.94092C16.6685 0.984683 16.6193 1.06126 16.5536 1.17067C16.5372 1.27461 16.5317 1.36213 16.5317 1.43872V1.68489C16.5317 1.97483 16.5591 2.34682 16.6083 2.80087C16.7177 3.78008 16.7724 4.41466 16.7724 4.71553C16.6028 4.84135 16.4387 4.92887 16.2691 4.9781C16.1871 4.99999 16.1269 5.01093 16.0832 5.01093C15.8917 5.01093 15.7659 4.87417 15.7002 4.60612C15.6127 4.25054 15.547 4.04267 15.5033 3.98249C15.4103 3.98249 15.3337 4.00984 15.2735 4.05907C15.0492 4.3873 14.7155 4.68818 14.2779 4.96717C13.8676 5.22428 13.2659 5.60722 12.4726 6.11597C12.2538 6.31291 12.0733 6.55361 11.9365 6.83807C12.3468 6.83807 12.7626 6.86541 13.1838 6.92559C13.605 6.98576 14.07 7.06235 14.5733 7.16629C13.8348 7.43434 13.1893 7.65317 12.6368 7.81181C11.9147 8.01422 11.2199 8.16192 10.547 8.24944C10.3228 8.2768 10.1149 8.29867 9.92341 8.30961C9.73195 8.32055 9.55689 8.32604 9.38731 8.32604C8.84573 8.32604 8.33151 8.27133 7.84464 8.16739C7.35777 8.06345 6.89278 7.88839 6.45514 7.64769C6.42779 7.63128 6.25273 7.48357 5.94092 7.19911C5.83151 7.10611 5.73851 7.06235 5.6674 7.07876V7.14988C5.6674 7.1827 5.67287 7.20458 5.68928 7.221C5.22976 7.221 4.79212 7.33041 4.37637 7.54923C4.05361 7.71881 3.69256 7.98687 3.29322 8.35886C3.0361 8.60503 2.78446 8.85666 2.52735 9.10283C2.00766 9.60612 1.55908 9.95623 1.17068 10.1532C1.08315 10.1696 1.01751 10.175 0.973742 10.175C0.804158 10.175 0.661926 10.1313 0.536105 10.0438C0.404814 9.93435 0.311816 9.81399 0.257112 9.6827C0.202407 9.55141 0.175055 9.41465 0.175055 9.27789C0.175055 9.07549 0.246171 8.80744 0.382932 8.47921C0.454048 8.30416 0.563457 8.05798 0.700219 7.73522C0.563457 7.92669 0.432166 8.15645 0.317287 8.4245C0.273523 8.52844 0.180525 8.76914 0.0328227 9.15754C0.0109409 9.26148 0 9.35995 0 9.46389C0 9.66629 0.0328228 9.85777 0.103939 10.0328C0.175055 10.2079 0.278994 10.3556 0.426696 10.4704C0.557987 10.5525 0.661926 10.6017 0.738512 10.6181C0.815098 10.6346 0.897155 10.6455 0.984683 10.6455C1.02845 10.6455 1.08862 10.64 1.15974 10.6236C1.46061 10.4923 1.79978 10.2571 2.17724 9.9234C2.5 9.62253 2.81729 9.32713 3.14004 9.02626C3.50656 8.69803 3.84573 8.45184 4.15755 8.2932C4.54595 8.09626 4.93983 7.99781 5.35011 7.99781C5.35011 8.33151 5.44311 8.65426 5.63457 8.96607C5.82604 9.27789 6.06127 9.51312 6.34573 9.67177C6.41685 9.45842 6.49344 9.23961 6.57002 9.00985C6.64661 8.78009 6.6849 8.56673 6.6849 8.3698C7.12801 8.61597 7.56565 8.79103 7.98687 8.8895C8.4081 8.98796 8.85667 9.03719 9.3326 9.03719C9.75383 9.03719 10.1696 8.99889 10.5689 8.92778C10.9683 8.85666 11.4278 8.74726 11.9365 8.6105C12.0022 8.58862 12.3304 8.48468 12.9212 8.30415C13.605 8.09081 14.1521 7.93216 14.5624 7.82275C15.454 7.58752 16.3457 7.47263 17.2429 7.47263C17.3742 7.47263 17.4891 7.38512 17.5821 7.21006C17.6477 7.05689 17.7133 6.89824 17.779 6.73959ZM13.6105 9.87965C13.5503 10.0109 13.4464 10.1149 13.2932 10.186C13.0908 10.2571 12.9431 10.3118 12.8556 10.3501C12.6532 10.3501 12.4945 10.3392 12.3906 10.3173C12.2867 10.2954 12.1991 10.2243 12.1335 10.1094C12.1335 10.0055 12.1663 9.90699 12.2319 9.81399C12.2976 9.72099 12.4398 9.58972 12.6586 9.42013C12.5985 9.38184 12.5328 9.35995 12.4508 9.34901C12.3687 9.33807 12.2757 9.3326 12.1663 9.3326C12.1937 9.21772 12.2484 9.14659 12.3195 9.13018C12.3906 9.11377 12.4562 9.10283 12.5164 9.10283C12.6751 9.10283 12.8173 9.15207 12.9322 9.24507C12.9158 9.27242 12.779 9.42012 12.5164 9.6827C12.4125 9.78664 12.3632 9.87417 12.3632 9.95623C12.4289 10.0164 12.5 10.0547 12.5766 10.0766C12.6532 10.0985 12.7407 10.1094 12.8446 10.1094C12.9759 10.1094 13.1072 10.0875 13.233 10.0492C13.3589 10.0109 13.4847 9.95076 13.6105 9.87965ZM8.39168 5.01093C8.34792 5.12033 8.32057 5.20239 8.30416 5.25163C8.26586 5.25163 8.2221 5.22428 8.16193 5.17505C8.10175 5.12582 8.06346 5.09845 8.04157 5.09845C8.01422 5.09845 7.98687 5.12033 7.96499 5.1641C7.9267 5.42668 7.90481 5.59627 7.8884 5.66739C7.84464 5.84244 7.77899 6.00109 7.69147 6.13786C7.63129 6.07221 7.56565 5.93545 7.48906 5.72757C7.41247 5.51969 7.31947 5.37745 7.21007 5.30633C7.19365 5.36651 7.1663 5.39386 7.12254 5.39386C7.10066 5.39386 7.06783 5.37746 7.0186 5.35011C6.96937 5.32276 6.94748 5.27898 6.94748 5.21881C6.94748 5.17504 6.96389 5.12034 7.00219 5.04922C7.04048 4.97811 7.06236 4.92887 7.06783 4.89605C7.0733 4.86323 7.10066 4.84682 7.14442 4.84682C7.16083 4.84682 7.18271 4.85775 7.21007 4.87416C7.23742 4.89058 7.2593 4.90699 7.26477 4.91246C7.37418 5.00546 7.46718 5.14223 7.54923 5.31729C7.66411 5.57987 7.72976 5.7221 7.74617 5.74398C7.76805 5.69475 7.80088 5.54704 7.84464 5.30633C7.8884 5.06563 7.95952 4.89605 8.06346 4.79211C8.21116 4.79211 8.32057 4.86322 8.39168 5.01093ZM3.84026 1.61925L3.78556 1.72865C3.78556 1.72865 3.71991 1.71225 3.65974 1.68489C3.59956 1.65754 3.54486 1.6466 3.50109 1.66301C3.42998 1.76695 3.37527 1.90918 3.33698 2.0897C3.24398 2.56563 3.17834 2.82823 3.15098 2.8884C3.07987 2.80634 3.01422 2.7024 2.95405 2.57111C2.80635 2.221 2.71882 2.02407 2.68053 1.9803L2.58206 2.14441C2.5 2.08424 2.4453 2.04048 2.407 2.01312C2.33589 1.95295 2.29759 1.89824 2.29759 1.83807C2.31947 1.76695 2.34136 1.69036 2.36871 1.6083C2.39606 1.52624 2.43435 1.46607 2.48359 1.42231C2.65317 1.49342 2.78446 1.63565 2.8884 1.849C2.97046 2.04047 3.05252 2.22647 3.14004 2.407C3.2221 2.08424 3.28775 1.849 3.34792 1.69583C3.4081 1.54266 3.48468 1.42778 3.58862 1.35666C3.67068 1.37854 3.73632 1.40043 3.79103 1.42778C3.84573 1.45513 3.87309 1.48796 3.87309 1.53172C3.87309 1.5536 3.86214 1.58096 3.84026 1.61925ZM3.67615 3.35885C3.6488 3.53938 3.48468 3.64331 3.18381 3.65972C2.88293 3.67613 2.686 3.75272 2.593 3.88401C2.593 4.08095 2.62035 4.34901 2.68053 4.69365C2.76805 5.2024 2.81729 5.52516 2.82823 5.65645C2.83917 5.78774 2.85011 5.90262 2.85558 5.99562C2.86105 6.08862 2.86652 6.17613 2.86652 6.25819C2.86652 6.44966 2.85558 6.61378 2.8337 6.76148C2.81182 6.90918 2.76805 7.06235 2.70241 7.221C2.74617 7.02953 2.76805 6.84353 2.76805 6.65206C2.76805 6.4606 2.75164 6.2746 2.71882 6.10502C2.686 5.93543 2.63129 5.68927 2.56017 5.36104C2.52188 5.2024 2.48906 5.03281 2.46171 4.86323C2.43435 4.69365 2.41794 4.535 2.41794 4.39824C2.41794 4.11924 2.47265 3.87308 2.58206 3.65426C2.65317 3.56674 2.76805 3.49562 2.92123 3.44638C3.0744 3.39715 3.18928 3.35885 3.27133 3.33697C3.24398 3.25491 3.17287 3.21662 3.06346 3.21662C3.00328 3.21662 2.94858 3.22756 2.8884 3.24944C2.82823 3.30961 2.80088 3.34244 2.80088 3.35885C2.77899 3.31509 2.76805 3.27133 2.76805 3.22757C2.76805 3.14004 2.80635 3.07439 2.8884 3.03062C2.95405 2.96498 3.03611 2.93216 3.14004 2.93216C3.1674 2.93216 3.21663 2.9431 3.28228 2.96498C3.34792 2.98686 3.42998 3.05797 3.52298 3.18379C3.58862 3.26585 3.63786 3.32056 3.67615 3.35885ZM1.59737 6.40043C1.55908 6.6466 1.52626 6.89825 1.48796 7.14442C1.41685 7.42341 1.26368 7.6094 1.03939 7.71333C0.935449 7.73522 0.83151 7.69693 0.722101 7.60393C0.656455 7.54376 0.579869 7.45623 0.492341 7.33041C0.399344 7.0733 0.350109 6.82166 0.350109 6.57549C0.350109 6.43872 0.36105 6.30744 0.377462 6.18709C0.393873 6.06674 0.448578 5.89168 0.536105 5.65645C0.623632 5.42122 0.749453 5.16958 0.908096 4.90153C0.973742 4.79212 1.13239 4.54595 1.37856 4.16849C1.34026 4.31619 1.20897 4.62253 0.973742 5.09845C0.771335 5.51421 0.667396 5.84791 0.667396 6.09408C0.667396 6.24726 0.694748 6.38948 0.749453 6.5153C0.804157 6.64112 0.902626 6.77243 1.03939 6.90372C1.08862 6.93107 1.13786 6.93653 1.18709 6.91465C1.23632 6.89277 1.28556 6.85995 1.34573 6.81619C1.37309 6.77789 1.41138 6.70678 1.46061 6.59737C1.50985 6.48796 1.55361 6.42231 1.59737 6.40043ZM6.18162 8.38073V8.5339C6.18162 8.6269 6.15974 8.67614 6.11597 8.67614C6.06674 8.67614 6.01203 8.64332 5.9628 8.57768C5.91357 8.51203 5.88621 8.44638 5.88621 8.38073C5.88621 8.35338 5.87527 8.29321 5.85886 8.20021C5.84245 8.10721 5.84792 8.06345 5.88621 8.06345C5.93545 8.06345 6.00109 8.10173 6.07221 8.17285C6.14333 8.24397 6.18162 8.31508 6.18162 8.38073Z" fill="white"/>
</svg>
