<svg width="20" height="11" viewBox="0 0 20 11" fill="none" xmlns="http://www.w3.org/2000/svg">
<path fill-rule="evenodd" clip-rule="evenodd" d="M19.9586 2.519C19.8849 2.48215 19.8158 2.41768 19.7467 2.32098C19.6592 2.19664 19.5901 2.10914 19.5349 2.06769L19.3599 2.344C19.4105 2.83214 19.5165 3.49528 19.6684 4.34262C19.7928 5.01957 19.8618 5.41561 19.8803 5.52613C19.9263 5.84849 19.9539 6.10638 19.9724 6.29979C19.9908 6.49321 20 6.71425 20 6.96293C20 7.28529 19.9816 7.58462 19.9401 7.85172C19.8987 8.11881 19.8296 8.41814 19.7375 8.7405L19.6178 8.9155C19.6454 8.76813 19.6684 8.59314 19.6822 8.39512C19.6961 8.1971 19.7053 8.00368 19.7053 7.81948C19.7053 7.27608 19.6316 6.58992 19.4842 5.7656C19.2862 4.63274 19.1711 3.94658 19.1434 3.71172C18.9731 2.76767 18.8073 1.82362 18.6461 0.870366C18.706 0.672346 18.7566 0.524982 18.8027 0.428275C18.8764 0.267096 18.9639 0.142758 19.0698 0.0506556C19.3046 0.6309 19.5441 1.21114 19.7882 1.78678C19.7513 1.81441 19.7559 1.85125 19.7974 1.89731C19.8434 1.94336 19.8434 1.9802 19.8066 2.00783C19.8665 2.0677 19.9079 2.14138 19.9401 2.22887C19.9678 2.31637 19.977 2.41308 19.9632 2.51439L19.9586 2.519ZM12.0654 0C12.0516 0.0874971 12.0147 0.170389 11.9549 0.24407C11.895 0.317752 11.8213 0.354593 11.7338 0.354593C11.4483 0.4513 11.172 0.552613 10.9049 0.663135C10.0484 1.03154 9.59705 1.22496 9.5464 1.23877C9.70297 0.971678 9.97467 0.764448 10.3661 0.607875C10.7069 0.483537 11.0431 0.359199 11.3838 0.230256C11.4115 0.221045 11.5542 0.165784 11.8029 0.0644713C11.9042 0.0184202 11.9963 0 12.07 0H12.0654ZM15.7034 4.27815C15.7265 4.43472 15.6574 4.52222 15.5008 4.54524C15.3442 4.56827 15.2475 4.61893 15.2199 4.70182C15.2199 4.90905 15.2061 5.08865 15.1831 5.24983C15.1554 5.4064 15.1094 5.56297 15.0449 5.71955C14.9988 5.65508 14.9021 5.47087 14.7456 5.16693C14.6857 5.0472 14.6212 4.93668 14.5475 4.82616C14.5337 4.87681 14.5015 4.90444 14.4462 4.90444C14.4232 4.90444 14.3818 4.89523 14.3265 4.88142C14.2897 4.83537 14.2712 4.78471 14.2712 4.72484C14.2712 4.67879 14.2897 4.62353 14.3219 4.54985C14.3541 4.47617 14.3726 4.42551 14.3726 4.39328C14.566 4.34262 14.7225 4.47617 14.8469 4.78932C14.9344 5.01957 15.0035 5.15772 15.0449 5.20838C15.0817 5.01036 15.1186 4.80774 15.1554 4.60051C15.2199 4.35183 15.335 4.22289 15.4962 4.22289C15.5469 4.22289 15.6159 4.24131 15.708 4.27815H15.7034ZM13.4285 3.47225C13.3917 3.59199 13.364 3.68869 13.341 3.77159C13.318 3.85448 13.2673 3.90974 13.1844 3.93737C13.0509 3.89132 12.968 3.79001 12.9312 3.62883C12.9312 3.35713 13.0002 3.10384 13.143 2.86438C13.1338 2.90122 13.1246 2.95648 13.1061 3.03016C13.0877 3.10384 13.0785 3.17753 13.0785 3.25121C13.0785 3.39857 13.1246 3.5183 13.2213 3.6058C13.2719 3.62883 13.3134 3.6058 13.3364 3.55054C13.364 3.49067 13.3917 3.46765 13.4285 3.47225ZM6.69583 1.12825C6.74649 1.15588 6.77412 1.20654 6.77412 1.27101C6.77412 1.32167 6.73728 1.42298 6.6636 1.57034C6.61755 1.59797 6.57149 1.6256 6.52544 1.65324C6.47939 1.68087 6.43334 1.68087 6.38729 1.65784C6.31361 1.61179 6.26295 1.56113 6.23993 1.50127C6.2123 1.4414 6.20309 1.36311 6.20309 1.27101C6.20309 1.20654 6.2123 1.11444 6.22611 0.994704L6.56689 0.285516C6.5807 0.359198 6.55768 0.483536 6.4886 0.663135C6.42413 0.83813 6.38729 0.967073 6.38729 1.04075C6.38729 1.10523 6.40111 1.16509 6.42413 1.21114C6.45176 1.2572 6.49781 1.30325 6.56228 1.34009L6.69583 1.12825ZM9.60166 5.02878C9.55561 5.18996 9.4635 5.32351 9.32535 5.43403C9.1872 5.53995 9.02141 5.60442 8.828 5.62745C8.83721 5.55376 8.9201 5.48008 9.08128 5.4064C9.16878 5.36035 9.22864 5.30969 9.25628 5.24983C9.15496 5.23601 9.06286 5.2222 8.98457 5.21299C8.90629 5.20378 8.85563 5.19457 8.83721 5.19457C8.66222 5.19457 8.52867 5.24062 8.44117 5.33732C8.4642 5.24062 8.50104 5.15773 8.55169 5.08404C8.60235 5.01036 8.66682 4.9597 8.7405 4.93668C8.81418 4.90905 8.89708 4.89984 8.98457 4.89984C9.07207 4.89984 9.18259 4.91826 9.31154 4.9551C9.44048 4.99194 9.53719 5.01957 9.60626 5.03339L9.60166 5.02878ZM7.10569 2.82754C7.05503 2.98411 7.00438 3.13608 6.96293 3.29265C6.88004 3.48607 6.76951 3.57817 6.62215 3.57817C6.5761 3.5137 6.47479 3.43541 6.309 3.34792C6.14322 3.26042 6.06954 3.16832 6.09256 3.07161L6.52544 2.4315C6.62676 2.46834 6.75109 2.54202 6.88925 2.65254C6.98595 2.73544 7.05964 2.7907 7.11029 2.82754H7.10569ZM17.8172 6.52084C17.8172 6.23532 17.808 5.98204 17.7895 5.7656C17.7711 5.54916 17.7389 5.33732 17.6974 5.13009C17.6974 5.09325 17.5593 4.39788 17.2784 3.03937C17.1817 2.56965 17.1356 2.15059 17.1356 1.79139C17.2323 1.8927 17.329 1.99401 17.4211 2.09072C17.4672 2.13677 17.504 2.19203 17.5317 2.26571C17.504 1.9848 17.3935 1.63021 17.2093 1.20654C17.0896 0.934837 16.9238 0.589454 16.712 0.179599L16.4264 0.796684C16.4725 1.32167 16.5784 1.96638 16.7488 2.73083C16.8962 3.37094 17.0481 4.03408 17.2001 4.71563C17.3567 5.39719 17.4626 6.02809 17.5224 6.61294C17.5455 6.67741 17.5547 6.73267 17.5547 6.77872C17.5547 6.94911 17.3981 7.10569 17.0804 7.25305C16.8962 7.34055 16.7764 7.40962 16.7166 7.46489C16.5093 7.5662 16.2883 7.62146 16.0534 7.62146C15.9153 7.62146 15.7679 7.59843 15.6205 7.55699C15.4732 7.51094 15.3534 7.45568 15.2567 7.38199C14.6397 6.83859 14.018 6.28598 13.4009 5.73336C12.641 5.07023 12.0101 4.54064 11.499 4.13999C10.799 3.59659 10.1359 3.14529 9.50956 2.7907C10.2326 2.4315 11.1213 2.09533 12.1713 1.78678C13.0923 1.53811 14.0134 1.28483 14.9344 1.03615C14.9574 1.03615 15.0357 1.02694 15.1738 1.00852C15.312 0.990098 15.4133 0.980889 15.487 0.980889C15.5469 0.980889 15.6021 0.990099 15.6574 1.00391C15.7126 1.01773 15.7633 1.04536 15.8047 1.0822C15.7034 1.28943 15.3811 1.81441 14.8423 2.66175C14.437 3.30186 14.1791 3.83606 14.0686 4.26433C14.193 3.93276 14.4554 3.49989 14.8515 2.9703C15.3074 2.35782 15.6021 1.94336 15.7357 1.72231C16.0166 1.24338 16.1547 0.769053 16.1547 0.294727C16.1179 0.23486 16.0672 0.193414 15.9982 0.165783C15.9337 0.138153 15.8554 0.128943 15.7679 0.128943C15.7034 0.128943 15.6021 0.128943 15.4686 0.138153C14.7548 0.313147 14.041 0.488142 13.3226 0.658531C12.4614 0.870366 11.7568 1.07299 11.2134 1.2572C10.4536 1.51508 9.78586 1.8006 9.21483 2.11835C9.11812 2.31637 9.05365 2.50518 9.01681 2.68939C8.97997 2.86898 8.94313 3.11306 8.90629 3.41239C9.04444 3.55054 9.48653 3.965 10.2326 4.65116C10.8358 5.21299 11.2733 5.63666 11.5358 5.92217C11.9687 6.3919 12.3187 6.86622 12.5766 7.33594C12.245 7.52936 11.8904 7.67212 11.5082 7.76882C11.1306 7.86553 10.7161 7.93461 10.274 7.98066C10.3615 7.62606 10.4168 7.40041 10.4398 7.2945C10.4904 7.0274 10.5181 6.78793 10.5181 6.5761C10.5181 6.4011 10.4997 6.23532 10.4674 6.08335C10.4352 5.93138 10.3799 5.78862 10.3062 5.64587C10.0714 5.9498 9.83652 6.31361 9.59705 6.74188C9.38982 7.13332 9.18259 7.52015 8.97997 7.90237C8.85563 7.9254 8.66222 7.96684 8.39972 8.0221C8.13723 8.08197 7.9254 8.1096 7.76422 8.1096C7.60304 8.1096 7.46028 8.09118 7.33134 8.04974C7.207 8.00829 7.08727 7.94382 6.97674 7.85632C7.17476 7.71817 7.31752 7.60304 7.39581 7.51554C7.52936 7.37739 7.61685 7.23003 7.66291 7.07345C7.78264 6.82478 7.8379 6.56228 7.8379 6.29058C7.8379 5.8577 7.70896 5.4985 7.45107 5.21759C7.33134 5.09325 7.15634 5.02878 6.92148 5.02878C6.88464 5.02878 6.82938 5.02878 6.7557 5.03799C6.58531 5.18536 6.45176 5.35114 6.35045 5.53074C6.24914 5.71034 6.17085 5.91757 6.10638 6.14782C6.04191 6.37808 6.00967 6.60834 6.00507 6.83399C6.00507 7.05964 6.00046 7.28529 6.00046 7.51554C5.07944 7.87474 4.53604 8.08197 4.36565 8.13263C4.02487 8.24315 3.67488 8.33065 3.30647 8.39972C3.03937 8.44577 2.78149 8.4642 2.53281 8.4642C2.15519 8.4642 1.80981 8.41354 1.48745 8.30762C1.16509 8.20631 0.870366 8.04052 0.598665 7.81027C0.460511 7.64909 0.386829 7.45107 0.386829 7.21161C0.386829 7.09187 0.41446 6.94451 0.465116 6.7603C0.478932 6.71425 0.557219 6.4886 0.695372 6.07414C0.561824 6.24914 0.442091 6.46097 0.331568 6.70504C0.271702 6.82477 0.179599 7.04582 0.0552613 7.37739C0.0276306 7.51554 0.00921033 7.61225 0.00460522 7.6583C0.00460522 7.70435 0 7.75501 0 7.80567C0 8.26157 0.174994 8.63458 0.520378 8.9201C0.815105 9.07667 1.09602 9.18259 1.35851 9.24706C1.6256 9.31153 1.92033 9.33917 2.24269 9.33917C2.41768 9.33917 2.62491 9.32535 2.85517 9.29312C3.08542 9.26548 3.28344 9.22864 3.44462 9.1918C3.89592 9.09049 4.49919 8.89247 5.25904 8.60695C5.57679 8.48722 5.91296 8.36288 6.26295 8.22933C6.32282 8.32604 6.40111 8.43196 6.50242 8.54248C6.60373 8.65761 6.69583 8.74511 6.78333 8.81418C7.01819 8.93392 7.28529 8.98918 7.58001 8.98918C7.81487 8.98918 8.04513 8.96155 8.26618 8.91089C8.48722 8.86023 8.72208 8.79116 8.97536 8.69906C8.93852 8.86024 8.9201 9.0076 8.9201 9.14115C8.9201 9.59245 9.04444 9.97928 9.28851 10.3016C9.53719 10.624 9.84573 10.7898 10.2233 10.7898C10.2694 10.7898 10.3431 10.7806 10.4444 10.7668C10.6056 10.6056 10.7299 10.4076 10.8128 10.1681C10.8957 9.93323 10.9417 9.67994 10.9417 9.41745C10.9417 9.19641 10.9049 8.97536 10.8312 8.75432C11.2825 8.65761 11.6095 8.57472 11.8167 8.50104C12.1621 8.3813 12.4568 8.22012 12.7009 8.01289C12.7239 7.9254 12.7654 7.78264 12.8206 7.58001C12.8943 7.28529 12.9312 7.03661 12.9312 6.83859C12.9312 6.64057 12.8943 6.44255 12.8206 6.27677C12.9081 6.33663 13.4561 6.83399 14.4693 7.76882C14.8377 8.1096 15.1831 8.34446 15.51 8.47801C15.5837 8.50104 15.6528 8.51485 15.7219 8.52406C15.7863 8.53327 15.8508 8.53327 15.9107 8.53327C16.1778 8.53327 16.4541 8.45038 16.7488 8.2892C16.9929 8.14184 17.2369 7.98987 17.4764 7.8379C17.5777 7.63988 17.6606 7.42804 17.7205 7.20239C17.7803 6.97674 17.808 6.74649 17.808 6.51163L17.8172 6.52084ZM3.7808 0.893391C3.76698 0.976283 3.75317 1.04536 3.73475 1.10983C3.72093 1.1743 3.68869 1.20193 3.64725 1.20193C3.61962 1.20193 3.58738 1.18812 3.55975 1.16509C3.53212 1.13746 3.49528 1.12825 3.44923 1.12825H3.33871C3.25121 1.25259 3.18213 1.47364 3.13608 1.79139C3.09003 2.10914 3.02095 2.32558 2.93346 2.44531C2.74004 2.10453 2.55123 1.76376 2.35782 1.41837C2.36703 1.48285 2.33019 1.51969 2.2565 1.51969C2.20585 1.51969 2.17361 1.51048 2.15519 1.49666C2.01704 1.39995 1.96178 1.28022 1.99862 1.13286C2.02164 1.06839 2.04467 1.00391 2.06309 0.939443C2.08612 0.874972 2.11375 0.828919 2.15059 0.801288C2.36242 0.902601 2.55123 1.13286 2.71241 1.48745C2.84596 1.77297 2.92425 1.93875 2.94267 1.9848C2.98872 1.69929 3.02556 1.48285 3.05319 1.34469C3.11306 1.10062 3.22358 0.921021 3.38476 0.801288C3.48146 0.801288 3.55975 0.805894 3.61501 0.819709C3.67488 0.82892 3.72554 0.85655 3.77159 0.902601L3.7808 0.893391ZM4.72945 4.7709C4.72945 4.85839 4.71103 4.9505 4.67419 5.0426C4.63735 5.1347 4.58669 5.24062 4.51761 5.35575C4.45314 5.35575 4.39788 5.32811 4.36104 5.27746C4.3242 5.2268 4.29657 5.16693 4.27815 5.10246C4.25973 5.03799 4.25052 4.9597 4.25052 4.87221C4.25052 4.69721 4.27815 4.54064 4.3288 4.40709C4.37946 4.27354 4.46235 4.13079 4.57288 3.97421C4.53604 4.07092 4.49919 4.18144 4.45775 4.30578C4.4163 4.43012 4.39788 4.54064 4.39788 4.63735C4.39788 4.79392 4.44854 4.92286 4.55446 5.02418L4.72945 4.7709ZM3.49067 2.90122C3.46765 3.10845 3.27884 3.22818 2.91504 3.26042C2.55584 3.29265 2.33479 3.38936 2.2519 3.54133C2.27953 3.73935 2.33479 3.97882 2.41768 4.25973C2.52821 4.65577 2.59728 4.90905 2.62031 5.01497C2.64794 5.12088 2.66636 5.23601 2.68017 5.36495C2.69399 5.48929 2.7032 5.62745 2.7032 5.77481C2.7032 6.01888 2.66636 6.24914 2.59268 6.47018C2.6157 6.38729 2.62952 6.33203 2.63873 6.29519C2.64794 6.25835 2.64794 6.19387 2.64794 6.10638C2.64794 5.92217 2.6111 5.71034 2.53742 5.46627L2.1598 4.39328C2.08612 4.14921 2.04927 3.94197 2.04927 3.76238C2.04927 3.65185 2.0677 3.54593 2.10914 3.44002C2.15059 3.3387 2.23808 3.23739 2.36703 3.13608C2.50058 3.03477 2.68478 2.95648 2.91964 2.89662C2.87359 2.83214 2.79991 2.7953 2.68939 2.7953C2.66175 2.7953 2.6157 2.80451 2.55584 2.81833L2.45452 2.92885C2.41768 2.8828 2.42229 2.81833 2.46373 2.73544C2.50979 2.65254 2.52821 2.60649 2.52821 2.59728C2.57426 2.56044 2.6157 2.53281 2.66175 2.519C2.70781 2.50518 2.74465 2.49597 2.78149 2.49597C2.8828 2.49597 3.00714 2.54202 3.14529 2.63873C3.25581 2.72623 3.36634 2.81372 3.47686 2.89201L3.49067 2.90122ZM1.51048 4.58209C1.51048 4.8676 1.46903 5.13009 1.39074 5.36035C1.30785 5.59061 1.17891 5.78402 0.994704 5.94059C0.934838 5.96362 0.888787 5.97283 0.851946 5.97283C0.778264 5.97283 0.704582 5.9498 0.635505 5.89915C0.566429 5.8531 0.497352 5.80244 0.43288 5.75178C0.234861 5.4064 0.133548 5.03339 0.133548 4.63735C0.133548 4.24131 0.248676 3.75777 0.474326 3.19134C0.672346 2.74004 0.870366 2.28874 1.07299 1.83283C0.874971 2.56965 0.676951 3.30647 0.474326 4.04329C0.474326 4.25052 0.515773 4.43933 0.60327 4.61432C0.686162 4.78932 0.83813 4.94129 1.04997 5.07483C1.1697 5.07483 1.27101 4.98273 1.35851 4.79853C1.40916 4.688 1.45982 4.61893 1.51508 4.58669L1.51048 4.58209ZM10.1543 7.32213C10.0806 7.3866 9.9977 7.44186 9.9056 7.48791C9.81349 7.53396 9.66152 7.59383 9.44508 7.67672C9.54179 7.45568 9.6385 7.23003 9.74442 7.00437C9.8181 6.8478 9.89639 6.71886 9.97467 6.61755C10.0391 6.69123 10.0852 6.77412 10.1128 6.86622C10.1405 6.95832 10.1497 7.11029 10.1497 7.32673L10.1543 7.32213ZM10.6194 9.79968C10.5457 9.86415 10.4444 9.90099 10.3108 9.90099C10.228 9.90099 10.1359 9.88717 10.0345 9.85494C9.85033 9.77205 9.69376 9.66152 9.56482 9.51416C9.43587 9.3668 9.32075 9.1918 9.21483 8.99378C9.53719 9.05365 9.79968 9.13194 9.9977 9.23785C10.2556 9.3714 10.4628 9.56021 10.6148 9.79968H10.6194ZM7.35897 6.79254C7.25766 6.88004 7.13792 6.95832 7.00898 7.0228C6.88004 7.08727 6.73728 7.15174 6.58531 7.21161C6.53926 7.08727 6.50242 6.95372 6.47479 6.81557C6.44716 6.67741 6.42874 6.53926 6.42874 6.40571C6.42874 6.32282 6.43334 6.23993 6.44716 6.15243C6.45637 6.06493 6.484 5.97743 6.53005 5.88533C6.62676 5.86231 6.72346 5.87612 6.81557 5.93138C6.85241 5.95441 6.93069 6.00506 7.04582 6.08796C7.20239 6.309 7.30371 6.54386 7.35436 6.79714L7.35897 6.79254Z" fill="white"/>
</svg>
