<svg width="20" height="10" viewBox="0 0 20 10" fill="none" xmlns="http://www.w3.org/2000/svg">
<path fill-rule="evenodd" clip-rule="evenodd" d="M19.996 1.89825L19.9397 1.96661L19.6421 1.54031C19.5978 1.59662 19.5616 1.7052 19.5375 1.86204C19.5134 2.01889 19.4973 2.19184 19.4973 2.37684C19.4973 2.73879 19.5295 3.21335 19.5898 3.80454C19.6501 4.39573 19.7185 5.00703 19.7868 5.63844C19.7868 5.98431 19.7587 6.30605 19.7064 6.59561C19.6501 6.88518 19.5496 7.1667 19.4008 7.43615C19.4008 6.82485 19.3726 6.10496 19.3123 5.2805C19.252 4.45605 19.1997 3.62759 19.1434 2.80314C19.0871 1.97869 19.0629 1.2588 19.0629 0.639452L19.3807 0.108582C19.4852 0.357928 19.5938 0.655532 19.7104 0.997378C19.7627 1.1502 19.8592 1.45184 20 1.89423L19.996 1.89825ZM16.2799 1.51216C16.3 1.5765 16.296 1.64488 16.2638 1.72129C16.2317 1.79771 16.2075 1.86607 16.1834 1.93042C16.107 1.9827 16.0145 2.00683 15.9139 2.00683C15.8415 1.8902 15.8094 1.75347 15.8094 1.5926C15.8094 1.45184 15.8335 1.31912 15.8818 1.19846C15.93 1.07781 15.9944 0.949116 16.0788 0.820422C16.0788 0.892812 16.0668 0.969232 16.0386 1.05369C15.9662 1.2789 15.934 1.41966 15.934 1.47999C15.934 1.58455 15.9622 1.67302 16.0225 1.74944C16.0949 1.76955 16.1472 1.73738 16.1834 1.65695C16.2196 1.57651 16.2518 1.52825 16.2839 1.51618L16.2799 1.51216ZM15.4112 2.42911C15.3871 2.5015 15.3429 2.58194 15.2865 2.67041C15.1981 2.80715 15.1056 2.93585 15.0171 3.06455C14.9648 2.99216 14.8643 2.9077 14.7074 2.80314C14.5546 2.69857 14.45 2.62617 14.3977 2.58194C14.4742 2.46128 14.5466 2.3527 14.6149 2.2602C14.6833 2.1677 14.7637 2.08324 14.8602 2.00281C14.9889 2.08726 15.0855 2.1476 15.1498 2.18782C15.2584 2.26423 15.3469 2.34465 15.4112 2.42911ZM15.934 0.229229C15.2383 0.434336 14.5466 0.639448 13.8588 0.836512C12.9178 1.11401 12.23 1.32314 11.7917 1.4639C11.0718 1.69716 10.3921 1.92238 9.75669 2.1476C9.58777 2.22401 9.49125 2.34868 9.45908 2.51357C10.372 2.15162 11.3895 1.7977 12.5075 1.45183C13.5291 1.15021 14.5586 0.848573 15.5882 0.542922C15.6767 0.542922 15.7531 0.506735 15.8094 0.438366C15.8335 0.414235 15.8777 0.341845 15.934 0.225215V0.229229ZM11.9083 0.768149C11.9284 0.800323 11.9365 0.828463 11.9365 0.856615C11.9365 0.900854 11.9204 0.953139 11.8882 1.00944C11.8359 1.09792 11.8118 1.14619 11.8118 1.15423C11.7796 1.1864 11.7434 1.21857 11.7072 1.24672C11.667 1.27487 11.6308 1.27488 11.5906 1.24271C11.5504 1.18641 11.5262 1.1301 11.5182 1.07379C11.5102 1.01749 11.5021 0.965208 11.5021 0.912925C11.5021 0.792274 11.5262 0.667599 11.5745 0.546948C11.6228 0.426296 11.6871 0.305651 11.7635 0.189021C11.7635 0.241304 11.7394 0.329774 11.6952 0.458469C11.6509 0.587164 11.6268 0.683686 11.6268 0.748034C11.6268 0.852598 11.671 0.929018 11.7635 0.9813L11.9083 0.768149ZM10.7903 0.016078C10.738 0.0723821 10.6777 0.128692 10.6133 0.184996C10.5449 0.2413 10.4685 0.297597 10.376 0.353901C10.2071 0.450422 9.80897 0.603257 9.17756 0.816408C8.85582 0.924994 8.6105 1.02553 8.44561 1.11401C8.54213 0.99336 8.65071 0.8888 8.77539 0.804343C8.96039 0.675649 9.27408 0.55097 9.71245 0.43434C10.1508 0.313689 10.4524 0.209129 10.6214 0.112608L10.7943 0.016078H10.7903ZM12.5276 3.06455C12.5478 3.10879 12.5437 3.149 12.5236 3.18519C12.4995 3.22139 12.4754 3.25356 12.4512 3.28574C12.3949 3.26563 12.3266 3.24553 12.2502 3.21737C12.1737 3.19324 12.1134 3.17715 12.0652 3.17715C12.0008 3.28172 11.9485 3.47074 11.9043 3.75226C11.8641 4.03378 11.7877 4.22682 11.6791 4.33541C11.6147 4.27911 11.5464 4.15041 11.478 3.95737C11.3614 3.65574 11.1965 3.51498 10.9873 3.53107C10.9471 3.49085 10.931 3.44259 10.931 3.37824C10.931 3.32596 10.9511 3.25758 10.9954 3.1691C11.0356 3.08063 11.0637 3.03237 11.0718 3.01629C11.0798 3.0002 11.104 2.99215 11.1402 2.98813C11.1764 2.98813 11.2005 2.98411 11.2125 2.98411C11.301 3.06856 11.3815 3.18117 11.4458 3.32193C11.6187 3.68388 11.7233 3.88497 11.7555 3.92921C11.8198 3.61552 11.86 3.42247 11.8802 3.35812C11.9445 3.15302 12.033 2.99216 12.1496 2.87553C12.222 2.86346 12.2904 2.87552 12.3628 2.92378C12.3869 2.93585 12.4472 2.98009 12.5357 3.06052L12.5276 3.06455ZM13.1148 5.31269C13.1148 5.36899 13.1028 5.43736 13.0826 5.51377C13.0585 5.59018 13.0304 5.66659 12.9901 5.73496C12.9499 5.75507 12.9097 5.76312 12.8655 5.76312C12.8132 5.76312 12.777 5.74703 12.7488 5.71486C12.6765 5.60627 12.6443 5.48561 12.6443 5.35692C12.6443 5.27246 12.6644 5.17192 12.7006 5.05932C12.7126 5.01508 12.785 4.8542 12.9137 4.5767C12.9137 4.62899 12.8896 4.72551 12.8373 4.86627C12.785 5.00703 12.7609 5.11562 12.7609 5.19605C12.7609 5.25236 12.773 5.30866 12.7931 5.36094C12.8172 5.41323 12.8574 5.45746 12.9137 5.49768C12.97 5.51779 13.0103 5.49366 13.0304 5.42529C13.0505 5.35692 13.0625 5.32073 13.0706 5.31269H13.1188H13.1148ZM10.1428 5.13975C10.1629 5.21617 10.1589 5.29257 10.1387 5.36094C10.1146 5.43333 10.0704 5.5379 9.99799 5.67866C9.97788 5.69073 9.94973 5.69877 9.90951 5.69877C9.85321 5.69877 9.80093 5.67866 9.76071 5.63442C9.72049 5.5942 9.68832 5.54192 9.66821 5.48562C9.66821 5.31268 9.68832 5.13975 9.73256 4.97486C9.77277 4.80595 9.8331 4.64508 9.90951 4.49225C9.90951 4.54453 9.89745 4.6129 9.8693 4.7054C9.81299 4.91855 9.78082 5.05529 9.78082 5.11964C9.78082 5.24833 9.82103 5.35291 9.90549 5.42932C9.92962 5.44138 9.95375 5.43735 9.97788 5.42127C10.002 5.40116 10.0181 5.38909 10.0302 5.38105C10.0181 5.33681 10.0261 5.29257 10.0543 5.25638C10.0824 5.21616 10.1106 5.17997 10.1347 5.13975H10.1428ZM6.86909 2.60205C6.88116 2.67444 6.86909 2.76291 6.82083 2.8715C6.78061 2.94389 6.75649 2.99215 6.74442 3.02433C6.72431 3.04444 6.69616 3.0565 6.65192 3.0565C6.6117 3.0565 6.57551 3.06052 6.55138 3.06052C6.44681 2.93987 6.39855 2.79509 6.39855 2.63422C6.39855 2.47335 6.45486 2.28433 6.57149 2.04705C6.65594 1.88618 6.71225 1.77358 6.74442 1.70923C6.74442 1.78564 6.7042 1.91433 6.62779 2.09531C6.55138 2.27629 6.51116 2.40901 6.51116 2.50151C6.51116 2.56586 6.5192 2.62215 6.53529 2.66639C6.55138 2.71063 6.58355 2.75889 6.63583 2.81118C6.69214 2.82324 6.74442 2.79509 6.78464 2.71867C6.82485 2.64628 6.85301 2.60607 6.86507 2.59803L6.86909 2.60205ZM17.6795 5.37301C17.6795 4.95475 17.6191 4.28715 17.4945 3.36618C17.3738 2.4452 17.3095 1.7977 17.3095 1.41564C17.3819 1.43977 17.4462 1.50814 17.5106 1.6127C17.5749 1.71726 17.6191 1.78161 17.6473 1.80172C17.6473 1.56846 17.5508 1.26282 17.3537 0.876731C17.1566 0.490647 17.0481 0.209128 17.032 0.036194L17.0119 0.0562977L16.9435 0C16.8349 0.205108 16.7464 0.422274 16.6821 0.647491C16.7987 1.27086 16.9153 1.91836 17.04 2.58596C17.1607 3.25357 17.2572 3.88095 17.3296 4.4641C17.402 5.04725 17.4341 5.6505 17.4341 6.27387L17.3095 6.41062C17.1084 6.53127 16.8872 6.63181 16.6419 6.70822C16.3965 6.78463 16.1673 6.82485 15.9461 6.82485C15.6364 6.82485 15.367 6.74039 15.1337 6.5755L15.6083 6.27789C15.7772 6.07681 15.8576 5.80736 15.8576 5.46551C15.8576 5.2966 15.8415 5.14378 15.8134 5.00302C15.7852 4.86226 15.741 4.71345 15.6847 4.56063C15.6123 4.45606 15.548 4.37964 15.4917 4.32736C15.4072 4.25095 15.3227 4.21074 15.2302 4.21074C15.186 4.21074 15.1377 4.21877 15.0855 4.23888C14.8401 4.50834 14.6592 4.82605 14.5385 5.18399C14.4179 5.54594 14.3616 5.93203 14.3616 6.34224C13.7583 6.60768 13.147 6.80877 12.5357 6.94953C11.9244 7.09029 11.305 7.16268 10.6736 7.16268C10.3961 7.16268 10.1468 7.15061 9.92158 7.12246C9.4269 7.02594 9.04484 6.90528 8.78343 6.76452C8.3893 6.55137 8.15604 6.25779 8.07963 5.87572C8.01528 5.38507 7.97104 4.78583 7.94289 4.07399C7.91876 3.36215 7.89463 2.68248 7.87452 2.03096C7.83431 1.29097 7.76996 0.659552 7.68148 0.14075C7.593 0.213141 7.51257 0.309671 7.44822 0.438366C7.408 0.514778 7.36376 0.635423 7.31148 0.796292C7.45224 1.87009 7.54072 2.68248 7.57692 3.22944C7.61311 3.77639 7.6292 4.32736 7.6292 4.87833C7.58898 4.98692 7.5005 5.07942 7.35974 5.14779C7.13453 5.25638 7.0179 5.3167 7.01387 5.32072C6.93746 5.39312 6.86507 5.42529 6.80072 5.42529C6.73638 5.42529 6.68007 5.37301 6.62779 5.27247C6.49909 5.02714 6.41464 4.89442 6.37844 4.87833C6.25779 4.74159 6.12105 4.63703 5.96823 4.5566C5.8154 4.47617 5.66258 4.43595 5.50171 4.43595C5.4253 4.43595 5.34084 4.44399 5.25236 4.4641C5.00704 4.61692 4.8341 4.82606 4.72552 5.08747C4.62095 5.34888 4.56465 5.6304 4.56465 5.93203C4.67324 6.10094 4.80193 6.21355 4.94671 6.26986C5.09149 6.32616 5.27247 6.35833 5.49367 6.35833C5.6103 6.35833 5.79127 6.34225 6.03258 6.30605C6.2779 6.26985 6.41062 6.24974 6.43877 6.2417C6.45888 6.29801 6.49507 6.39453 6.54333 6.52323C6.56746 6.61975 6.57551 6.71627 6.56344 6.81279C6.06073 7.2954 5.52584 7.69354 4.9628 8.01125C4.39574 8.32495 3.79248 8.55821 3.149 8.70702C3.0002 8.73115 2.85944 8.75125 2.73075 8.76331C2.59803 8.77538 2.46531 8.78343 2.32857 8.78343C1.90227 8.78343 1.54434 8.71908 1.24673 8.59038C0.892821 8.43756 0.627388 8.19223 0.454454 7.85843C0.345868 7.64125 0.289564 7.41202 0.289564 7.17474C0.289564 6.91735 0.361955 6.59562 0.510758 6.20953C0.587171 6.00443 0.707822 5.69877 0.868691 5.29258C0.727931 5.59019 0.587171 5.88377 0.442389 6.18138C0.144782 6.81681 0 7.34366 0 7.75387C0 8.05148 0.0643475 8.32495 0.193042 8.58234C0.39815 8.94832 0.719887 9.19767 1.15825 9.32636C1.44782 9.41082 1.8701 9.45104 2.42107 9.45104H2.83531C3.59944 9.20571 4.19465 8.98854 4.62095 8.79549C5.32073 8.4818 5.85964 8.12788 6.23366 7.73375C6.69616 7.2431 6.92942 6.68007 6.92942 6.04464C7.09029 5.94812 7.21094 5.86768 7.29539 5.80334C7.42409 5.70681 7.5367 5.60628 7.63322 5.50573C7.64528 5.60225 7.67344 5.79529 7.70963 6.08083C7.74985 6.36638 7.80615 6.6117 7.88257 6.82083C8.16409 7.21496 8.53006 7.49647 8.97245 7.66941C9.35049 7.81821 9.80897 7.89061 10.3439 7.89061C10.738 7.89061 11.2005 7.84234 11.7354 7.74582C12.0893 7.68147 12.5156 7.593 13.0183 7.47637C13.0505 7.46431 13.3722 7.33963 13.9835 7.11039C14.1685 7.038 14.3455 6.98572 14.5144 6.9455C14.6029 6.95757 14.7356 7.08224 14.9085 7.32354C15.1739 7.48441 15.4756 7.56485 15.8174 7.56485C16.0748 7.56485 16.3322 7.52061 16.5856 7.42811C16.8389 7.33963 17.0641 7.223 17.2572 7.08224C17.4382 6.84898 17.5548 6.58355 17.6151 6.28192C17.6553 6.08083 17.6714 5.78322 17.6714 5.38507L17.6795 5.37301ZM5.7591 2.07118L5.37301 2.67041C5.16791 2.54172 4.9628 2.41303 4.75367 2.28433C4.70139 2.32455 4.64911 2.40499 4.60084 2.52564C4.51237 2.75085 4.41987 2.86346 4.33139 2.86346C4.29922 2.86346 4.259 2.85541 4.20672 2.83531L3.77237 2.60205C3.82868 2.47336 3.889 2.34064 3.9453 2.20792C4.03378 2.05509 4.14639 1.98672 4.27509 2.00683L4.76574 2.25618L5.15182 1.6851C5.26041 1.71727 5.36497 1.76955 5.46551 1.84597C5.56606 1.91836 5.66258 1.99477 5.7591 2.07118ZM3.88498 0.438366L3.83672 0.679671C3.79248 0.659563 3.7402 0.639449 3.68791 0.611297C3.63161 0.587166 3.58737 0.571077 3.54715 0.571077C3.50292 0.571077 3.4627 0.583145 3.43052 0.611297C3.32596 0.731948 3.26161 0.941081 3.23346 1.23064C3.20531 1.52021 3.16509 1.71727 3.11281 1.81781C3.06053 1.77357 2.96803 1.60064 2.83129 1.29499C2.72672 1.06978 2.58999 0.965209 2.41705 0.977274C2.3326 0.969231 2.29238 0.908909 2.29238 0.792279C2.29238 0.752062 2.30042 0.691727 2.31651 0.607271C2.3326 0.522815 2.37281 0.462493 2.43716 0.422275C2.57792 0.446406 2.72672 0.643466 2.87955 1.00944C2.95194 1.17835 3.01227 1.25879 3.06455 1.25879C3.08868 1.25879 3.12085 1.2427 3.15303 1.21053C3.19324 0.93303 3.22542 0.756084 3.24955 0.679671C3.31389 0.486629 3.4265 0.349886 3.58737 0.273474C3.63965 0.273474 3.68791 0.289563 3.73618 0.325758C3.78444 0.361954 3.8327 0.394127 3.88498 0.426301V0.438366ZM3.5552 2.28031C3.52302 2.40096 3.35813 2.46933 3.05651 2.48139C2.7589 2.49346 2.5739 2.58193 2.50955 2.7428C2.61814 3.49084 2.72672 4.23084 2.83933 4.97084C2.83933 5.22018 2.82325 5.4454 2.78705 5.63844C2.75085 5.83149 2.68249 6.02051 2.57792 6.20953C2.64227 6.06877 2.68651 5.93203 2.71466 5.79931C2.73879 5.66659 2.75488 5.52583 2.75488 5.38105C2.75488 5.2604 2.74683 5.13171 2.72672 5.00302C2.61814 4.3515 2.50955 3.704 2.39694 3.05248C2.39694 2.88357 2.41705 2.71465 2.45325 2.54172C2.50955 2.45726 2.59803 2.38488 2.71466 2.32455C2.83129 2.26423 2.94792 2.21998 3.06053 2.19585C3.00422 2.15564 2.95194 2.13954 2.9077 2.13954C2.83531 2.15161 2.77901 2.16368 2.73477 2.1677C2.68249 2.21998 2.64629 2.2401 2.6302 2.22401C2.64227 2.13955 2.6664 2.07118 2.70259 2.01086C2.73879 1.95455 2.79509 1.91032 2.87151 1.88619C3.01227 1.87412 3.14096 1.90227 3.25357 1.97466C3.36618 2.04706 3.46672 2.14759 3.55922 2.28433L3.5552 2.28031ZM1.64488 4.23084C1.64488 4.4641 1.61673 4.67323 1.5564 4.86627C1.5001 5.05931 1.39151 5.22018 1.23869 5.34888C1.18238 5.36899 1.1301 5.36899 1.08586 5.34888C1.04162 5.32877 0.969234 5.27649 0.872713 5.19605C0.808365 5.05931 0.764126 4.9266 0.735974 4.79388C0.711844 4.66116 0.695757 4.52443 0.695757 4.38367C0.695757 4.0378 0.792278 3.64368 0.985321 3.20531C1.06173 3.03238 1.25075 2.66639 1.5564 2.10335C1.52423 2.21998 1.4438 2.42509 1.3151 2.7227C1.10999 3.2053 1.00543 3.58334 1.00543 3.8528C1.00543 3.97345 1.02152 4.09009 1.04967 4.19867C1.07782 4.30726 1.12608 4.41584 1.19043 4.52845C1.23065 4.57268 1.27488 4.59682 1.32717 4.59682C1.37141 4.59682 1.41564 4.58073 1.45184 4.54454C1.49206 4.50834 1.52423 4.4641 1.55238 4.40377C1.58053 4.34345 1.61271 4.28715 1.64488 4.23084ZM3.16911 6.9254C3.149 6.97768 3.06455 7.00583 2.91977 7.01388C2.77096 7.02192 2.69053 7.08224 2.67846 7.19887C2.6664 7.3155 2.63825 7.44821 2.58999 7.59299C2.52564 7.76593 2.4814 7.89463 2.45325 7.97909C2.3889 7.93887 2.32455 7.81821 2.26423 7.60908C2.2039 7.39995 2.1114 7.29539 1.99075 7.29539C1.97064 7.29539 1.93042 7.30344 1.86608 7.3155C1.8339 7.28333 1.81782 7.24311 1.81782 7.19887C1.81782 7.1667 1.82586 7.11843 1.84195 7.05408C1.85803 6.98974 1.86608 6.95355 1.86608 6.94953C1.89825 6.86105 1.95858 6.81279 2.05108 6.81279C2.12347 6.88518 2.18781 6.99376 2.24814 7.14659C2.30847 7.29941 2.37683 7.46028 2.45727 7.63321C2.47738 7.59299 2.52966 7.43213 2.62216 7.14256C2.68651 6.92539 2.77901 6.78061 2.90368 6.70822C2.95998 6.72029 3.02433 6.73235 3.08868 6.73638C3.16509 6.75648 3.20531 6.78865 3.20531 6.83289C3.20531 6.85702 3.19727 6.88919 3.17716 6.92941L3.16911 6.9254ZM15.4675 5.6304C15.4675 5.77116 15.3469 5.88377 15.1096 5.96823C14.9568 6.02051 14.8562 6.06475 14.812 6.10496C14.7718 6.0004 14.7436 5.89583 14.7195 5.78322C14.6954 5.67061 14.6873 5.57008 14.6873 5.47758C14.6873 5.36899 14.7034 5.26844 14.7396 5.17996C14.7758 5.09148 14.8281 5.01105 14.9005 4.94671C15.0613 4.94671 15.19 5.02714 15.2865 5.18801C15.3268 5.25236 15.3871 5.40117 15.4715 5.6304H15.4675ZM6.0004 5.56203C5.92399 5.58616 5.82747 5.60225 5.71084 5.60225C5.59019 5.60225 5.46149 5.58214 5.32475 5.5379C5.18802 5.49768 5.08345 5.44138 5.00704 5.37703C4.99899 5.3328 5.00704 5.2966 5.02312 5.27649C5.03921 5.25236 5.08345 5.21617 5.15182 5.16388C5.17193 5.16388 5.2041 5.16388 5.24834 5.15583C5.39714 5.15583 5.53388 5.19605 5.66258 5.27247C5.74703 5.32475 5.85964 5.42127 6.0004 5.56203Z" fill="white"/>
</svg>
