<svg width="20" height="9" viewBox="0 0 20 9" fill="none" xmlns="http://www.w3.org/2000/svg">
<path fill-rule="evenodd" clip-rule="evenodd" d="M19.9544 4.38868C19.9863 4.69434 20 4.96806 20 5.20985C20 5.53831 19.9726 5.84853 19.9133 6.13594C19.854 6.42335 19.7582 6.71076 19.6168 6.98904C19.6396 6.84762 19.6578 6.68795 19.6715 6.50547C19.6852 6.32298 19.6898 6.14507 19.6898 5.96715C19.6898 5.51094 19.6487 4.98631 19.5666 4.3978C19.4845 3.8093 19.4024 3.20711 19.3157 2.59124C19.229 1.97536 19.188 1.45985 19.188 1.04015C19.1378 0.985401 19.115 0.921526 19.115 0.848533C19.115 0.770979 19.1469 0.670621 19.2153 0.55657C19.302 0.433395 19.3568 0.351265 19.3887 0.301083C19.4206 0.387761 19.4982 0.570244 19.6259 0.857653C19.8084 1.2728 19.8996 1.59671 19.8996 1.83394C19.8996 1.90237 19.8996 1.95255 19.8905 1.98904C19.8723 1.96623 19.8403 1.91149 19.7993 1.82937C19.7582 1.74725 19.7126 1.68795 19.6624 1.65146L19.6168 1.72445C19.6168 2.07573 19.6578 2.51367 19.7445 3.03831C19.8723 3.82298 19.9407 4.27463 19.9544 4.38868ZM16.8339 0C16.7792 0.0958029 16.7016 0.17791 16.5967 0.24634C16.5283 0.287399 16.4142 0.33758 16.2546 0.387763C16.0949 0.437945 15.958 0.483565 15.8485 0.515499C15.7391 0.547434 15.6387 0.588501 15.5474 0.638683C15.6159 0.533756 15.6934 0.456193 15.7892 0.401448C15.885 0.346704 15.9945 0.301089 16.1268 0.264592C16.2591 0.228096 16.3823 0.191604 16.5009 0.155108C16.6195 0.118611 16.729 0.0684307 16.8339 0ZM16.5328 0.80291C16.5511 0.853093 16.5693 0.912401 16.583 0.989956C16.5967 1.06751 16.6058 1.12682 16.6058 1.177C16.6058 1.30474 16.5648 1.40055 16.4781 1.46898C16.4462 1.48266 16.4142 1.47809 16.3823 1.45528C16.3504 1.43247 16.3184 1.40966 16.2865 1.38685C16.2637 1.4416 16.2318 1.49178 16.1953 1.53284C16.1588 1.5739 16.1131 1.59672 16.0584 1.59672C15.9854 1.57847 15.9307 1.55109 15.8987 1.51004C15.8668 1.46898 15.8485 1.42336 15.8485 1.36861C15.8485 1.32755 15.8622 1.26368 15.885 1.177C15.9398 0.989957 15.9672 0.87134 15.9672 0.830281C15.9854 0.862216 15.9945 0.898722 15.9945 0.93978C15.9945 0.971714 15.99 1.01732 15.9763 1.08575C15.9626 1.15419 15.958 1.19981 15.958 1.23174C15.958 1.3093 15.9991 1.35036 16.0766 1.35036C16.1131 1.35036 16.1405 1.35035 16.1588 1.34123C16.2135 1.29105 16.2409 1.23174 16.2409 1.15875C16.2272 1.06751 16.2226 0.999076 16.2226 0.958018C16.2226 0.889587 16.2409 0.839407 16.2774 0.80291C16.3002 0.82572 16.3139 0.866783 16.3139 0.921528C16.3093 0.999083 16.3047 1.05839 16.3047 1.09489C16.3047 1.14507 16.3139 1.18612 16.3276 1.21806C16.3412 1.24999 16.3914 1.25912 16.4781 1.24088C16.4964 1.22263 16.5055 1.19069 16.5055 1.14963C16.5055 1.11313 16.5055 1.08119 16.4964 1.05838C16.4735 0.967143 16.4599 0.916971 16.4599 0.912409C16.4599 0.862226 16.4827 0.82572 16.5328 0.80291ZM15.219 1.16788L14.9361 1.7062L14.3431 1.41422C14.3932 1.2728 14.4297 1.17243 14.4617 1.11313C14.5164 1.0082 14.5849 0.91696 14.6624 0.830281C14.8266 0.903274 14.9453 0.962583 15.0228 1.00364C15.1004 1.0447 15.1642 1.09945 15.219 1.16788ZM18.2117 4.68978C18.0839 4.1104 17.9608 3.53102 17.8376 2.94708C17.8239 2.85127 17.7965 2.70072 17.7464 2.49999C17.6688 2.16696 17.6277 1.91149 17.6277 1.74269C17.6277 1.69251 17.6323 1.61952 17.646 1.52372L18.0566 1.8978C18.0246 1.65601 17.9334 1.37316 17.7737 1.05838C17.687 0.880464 17.5593 0.620427 17.3814 0.273712C17.3768 0.287398 17.3175 0.378641 17.208 0.547437C17.135 0.661488 17.0985 0.757289 17.0985 0.830281C17.0985 0.898712 17.1214 0.953459 17.1624 1.00364C17.2172 1.45528 17.3038 1.99817 17.427 2.63686C17.4453 2.7281 17.5593 3.26186 17.7646 4.23358C17.8923 4.82208 17.9973 5.36039 18.0748 5.84853C17.9881 5.93521 17.9015 6.01277 17.8148 6.0812C17.7281 6.14963 17.6323 6.20437 17.5365 6.23631C17.4407 6.26824 17.3312 6.30018 17.2172 6.32755C17.1031 6.35492 16.9936 6.36861 16.8978 6.36861C16.6925 6.36861 16.5192 6.3093 16.3869 6.19525C16.1314 5.90328 15.917 5.52007 15.7482 5.04562C15.6204 4.63047 15.4927 4.21532 15.365 3.79561C15.2053 3.29835 15.0319 2.90602 14.8358 2.61861C14.781 2.66879 14.74 2.73722 14.7172 2.82846C14.6943 2.96988 14.6715 3.10675 14.6533 3.24817C14.8221 3.51733 14.9681 3.80474 15.0912 4.11496C15.1962 4.37043 15.2965 4.67609 15.3923 5.02737C15.3923 5.13229 15.3513 5.24178 15.2646 5.36495C15.2235 5.43338 15.146 5.52919 15.0365 5.65693C14.594 6.06295 14.229 6.35036 13.9507 6.5146C13.5265 6.77007 13.1022 6.89781 12.6825 6.89781C12.6141 6.8385 12.5684 6.77463 12.5411 6.7062C12.5137 6.63777 12.5 6.56477 12.5 6.47809C12.5 6.39142 12.5228 6.2728 12.5639 6.12225C12.6505 5.8166 12.6916 5.61586 12.6916 5.52006C12.5821 5.73448 12.4954 5.95802 12.4316 6.19068C12.3677 6.42335 12.3358 6.66514 12.3358 6.90693C12.3358 7.03466 12.3449 7.1624 12.3631 7.29014C12.3859 7.38138 12.4407 7.44981 12.5182 7.49543C12.5958 7.54106 12.7372 7.57754 12.938 7.60035C13.5036 7.44068 14.01 7.18521 14.4617 6.83393C14.9681 6.43704 15.3193 5.98996 15.5201 5.48357C15.7162 6.03102 15.885 6.40053 16.0265 6.58758C16.1679 6.77462 16.3549 6.91149 16.5876 6.98904C16.6925 7.00729 16.7838 7.01641 16.8704 7.01641C17.094 7.01641 17.3038 6.96624 17.4909 6.86587C17.6779 6.76551 17.8695 6.62864 18.0566 6.45072C18.2026 6.13594 18.2755 5.78467 18.2755 5.40146C18.2755 5.28741 18.271 5.16879 18.2573 5.04562C18.2436 4.92244 18.2299 4.80383 18.2117 4.68978ZM13.3303 1.8978L13.0109 1.62409C13.0109 1.8385 13.0338 2.10309 13.0839 2.427C13.1934 3.15692 13.2482 3.62225 13.2482 3.82298C13.2801 3.99178 13.3029 4.18338 13.3212 4.39324C13.3394 4.60309 13.3485 4.80383 13.3485 5C13.3485 5.31478 13.3303 5.58849 13.2892 5.82116C13.2482 6.05382 13.1752 6.28649 13.0657 6.52372C13.0885 6.23631 13.1022 6.03558 13.1068 5.91697C13.1068 5.79836 13.1068 5.70255 13.1068 5.62956C13.1068 5.01368 13.0429 4.29287 12.9106 3.46714C12.7783 2.64141 12.6551 1.85218 12.5319 1.10401C12.5 1.04926 12.4863 0.98083 12.4863 0.903276C12.4863 0.793787 12.5319 0.661494 12.6232 0.510947C12.6825 0.415144 12.7281 0.346712 12.7509 0.310216C12.7692 0.36496 12.8558 0.533754 13.0064 0.821162C13.0748 0.953462 13.1204 1.06751 13.1524 1.15875L13.1706 1.13138C13.1478 1.20893 13.1706 1.32298 13.2345 1.47353C13.3029 1.62408 13.3349 1.73357 13.3349 1.80657C13.3349 1.84762 13.3349 1.87955 13.3257 1.8978H13.3303ZM11.2318 1.95255C11.2318 2.00274 11.2089 2.06661 11.1588 2.15329C11.1086 2.11679 11.0584 2.09853 11.0036 2.09853C10.9717 2.09853 10.9443 2.11222 10.9215 2.13503C10.8622 2.22171 10.8166 2.36314 10.7938 2.56387C10.771 2.7646 10.7345 2.90601 10.6843 2.98357C10.6524 2.94251 10.5976 2.83303 10.5109 2.66423C10.3832 2.4042 10.2509 2.28101 10.1095 2.29926C10.1095 2.17152 10.1414 2.0666 10.2007 1.98904C10.3057 2.00273 10.3969 2.07572 10.4836 2.21715C10.552 2.34032 10.6159 2.45893 10.6843 2.57299C10.7026 2.54105 10.7345 2.44068 10.7847 2.27189C10.8577 2.01641 10.9489 1.88868 11.0584 1.88868C11.1086 1.88868 11.1633 1.9115 11.2318 1.95255ZM11.4142 0.492695C10.99 0.606746 10.5246 0.752732 10.0274 0.921528C9.58485 1.07208 9.12865 1.2363 8.65876 1.41422C8.4261 1.50546 8.19799 1.59671 7.96533 1.68795C7.68704 1.802 7.51369 1.95712 7.45438 2.15329C8.02464 1.86131 8.64507 1.59214 9.31569 1.34123C9.84945 1.1405 10.4973 0.926085 11.25 0.702545C11.2865 0.67061 11.323 0.638676 11.3641 0.602179C11.4051 0.565683 11.4188 0.529191 11.4142 0.492695ZM8.04745 4.04196C7.99726 4.17426 7.9562 4.27007 7.92427 4.32938C7.89234 4.38868 7.85128 4.42974 7.81022 4.45255C7.9927 4.16057 8.08394 3.84123 8.08394 3.49451C8.08394 3.34853 8.06569 3.21624 8.03376 3.10218C8.00183 2.98813 7.94252 2.86952 7.86496 2.75546C7.88321 2.68247 7.90146 2.63229 7.91515 2.60036C7.92883 2.56842 7.96077 2.5593 8.00183 2.56387C8.12956 2.79653 8.19343 3.06112 8.19343 3.35766C8.19343 3.61769 8.14325 3.8458 8.04745 4.04196ZM9.93613 5.84853C9.73084 6.16331 9.42062 6.40054 9.00548 6.56021C8.63595 6.70163 8.21624 6.77007 7.75547 6.77007C7.66423 6.77007 7.58212 6.77007 7.51369 6.77007C7.44526 6.77007 7.38139 6.76095 7.32664 6.75639C6.95712 6.56022 6.70164 6.25912 6.56022 5.84398C6.46442 5.55201 6.41423 5.12774 6.41423 4.57573V4.17427C6.41423 4.04197 6.41423 3.9051 6.42336 3.77281C6.42336 3.64051 6.42336 3.5082 6.41423 3.38046C6.40967 3.25273 6.39599 3.12956 6.37774 3.00639C6.30474 2.37226 6.23175 1.7427 6.15876 1.10857C6.19526 0.958026 6.23175 0.839404 6.26825 0.757287C6.30474 0.67517 6.36405 0.593059 6.44161 0.50638C6.53285 0.921526 6.58759 1.43704 6.60584 2.05292C6.62409 2.6688 6.64234 3.28923 6.66515 3.90511C6.68796 4.52098 6.74726 5.04106 6.84307 5.46077C6.91606 5.67975 7.06661 5.87134 7.29927 6.03557C7.51825 6.09488 7.74179 6.12682 7.97445 6.12682C8.28011 6.12682 8.58121 6.07664 8.8823 5.97171C9.18339 5.86679 9.46624 5.72991 9.72628 5.56112C9.70803 5.51094 9.67153 5.41514 9.61223 5.27372C9.55292 5.1323 9.52099 5.0228 9.5073 4.94981L9.66241 4.32938C9.78558 4.48905 9.88139 4.65328 9.95894 4.8312C10.0365 5.00912 10.073 5.18704 10.073 5.36952C10.073 5.552 10.0274 5.7208 9.93613 5.8531V5.84853ZM12.0712 4.29744C12.0712 4.14689 12.0301 3.98266 11.9434 3.80474C11.8568 3.62682 11.7518 3.4854 11.6241 3.37591C11.5511 3.42609 11.4918 3.50364 11.4462 3.61313C11.4005 3.72262 11.3595 3.82755 11.323 3.93248C11.4644 4.49361 11.6058 5.05018 11.7518 5.61131C11.3504 5.95802 10.8896 6.28193 10.365 6.57846C10 6.78375 9.50274 7.03467 8.87774 7.32664C8.01551 7.7281 7.52737 7.9562 7.41788 8.01095C7.86952 7.94252 8.32117 7.87865 8.77737 7.81022C9.30657 7.71898 9.72171 7.5593 10.0182 7.33576C10.4015 7.11222 10.7847 6.88412 11.1679 6.65145C11.6013 6.35948 11.8568 6.02189 11.9343 5.63868C11.9891 5.5155 12.0164 5.40145 12.0164 5.29196C12.0164 5.19616 11.9891 5.04105 11.9297 4.82664C11.8704 4.61222 11.8431 4.45255 11.8431 4.34306C11.8431 4.28375 11.8522 4.21988 11.8704 4.15145L12.0712 4.29744ZM11.6788 7.17153C11.6058 7.27646 11.5055 7.37226 11.3777 7.4635C11.2819 7.53193 11.1542 7.60493 10.9945 7.68248C10.812 7.76004 10.6752 7.8239 10.5839 7.86496C10.4243 7.93795 10.292 8.01095 10.1825 8.08394C10.2327 8.00639 10.3011 7.92426 10.3969 7.84671C10.4927 7.76915 10.6432 7.67335 10.8577 7.56386C11.0447 7.47718 11.1861 7.41788 11.2774 7.38138C11.437 7.31295 11.5693 7.24453 11.6788 7.17153ZM3.98723 0.76642L3.9781 0.930647C3.94161 0.930647 3.90511 0.916962 3.86405 0.88959C3.82299 0.862218 3.7865 0.834845 3.75 0.80291C3.69069 1.10857 3.62682 1.40967 3.56752 1.7062C3.51734 1.65602 3.4489 1.53284 3.36223 1.33668C3.27555 1.14051 3.19799 1.05383 3.12956 1.07664C3.03832 1.12682 2.96989 1.10857 2.91971 1.02189C2.91971 0.935215 2.92883 0.862226 2.94708 0.798358C2.96533 0.734489 3.00639 0.684299 3.06569 0.647802C3.19799 0.702547 3.30292 0.807475 3.37591 0.962585C3.4489 1.11769 3.51734 1.26824 3.58577 1.41422C3.59033 1.37773 3.60401 1.25456 3.62682 1.04926C3.64964 0.843973 3.69526 0.684297 3.76825 0.574808C3.87774 0.606742 3.95073 0.670617 3.98723 0.76642ZM4.36131 2.6551C4.3385 2.7509 4.29745 2.85127 4.2427 2.9562C4.16515 3.08849 4.10584 3.18887 4.06934 3.24817C3.86861 3.12044 3.67245 2.98813 3.47628 2.85583C3.46259 2.87408 3.40785 2.96989 3.31204 3.14781C3.27099 3.2208 3.22536 3.27098 3.18431 3.30292C3.11131 3.29835 3.0292 3.27098 2.93339 3.2208C2.83759 3.17062 2.75091 3.125 2.66423 3.07481C2.68248 2.8604 2.78741 2.66879 2.97445 2.49087L3.44891 2.6916L3.82299 2.354C3.90055 2.37681 3.99635 2.42701 4.1104 2.49544C4.22445 2.56387 4.30657 2.6186 4.36131 2.6551ZM7.49088 7.44524C7.49088 7.44524 7.43157 7.55474 7.32664 7.75547C7.25821 7.88321 7.17153 7.93339 7.06204 7.91058C6.91606 7.83759 6.77007 7.76915 6.62409 7.70072C6.55566 7.70072 6.51004 7.74178 6.4781 7.82845C6.45985 7.86039 6.43704 7.89232 6.40967 7.92882C6.3823 7.96532 6.35036 8.00182 6.31387 8.03832L5.7573 7.78285C5.77555 7.70985 5.80748 7.6323 5.8531 7.55474C5.89872 7.47719 5.98084 7.37225 6.10401 7.24451C6.22719 7.2947 6.32756 7.33576 6.41423 7.3677C6.50091 7.39963 6.57391 7.44524 6.64234 7.49999L7.02555 7.20802L7.49088 7.44524ZM3.47628 4.56204C3.47628 4.63047 3.46259 4.70346 3.43522 4.78101C3.40785 4.85857 3.36679 4.92244 3.31204 4.97262C3.25274 4.97262 3.19343 4.94981 3.13869 4.89963C3.08394 4.84945 3.05201 4.7947 3.04745 4.72627C3.04745 4.62134 3.05201 4.52554 3.06569 4.43886C3.07938 4.35218 3.11588 4.25638 3.18431 4.15145C3.18431 4.17426 3.17974 4.22444 3.16606 4.29744C3.15237 4.37043 3.14781 4.42974 3.14781 4.4708C3.14781 4.59853 3.20255 4.68521 3.31204 4.72627C3.34854 4.73083 3.38047 4.71259 3.41241 4.67153C3.41697 4.66697 3.43978 4.63047 3.47628 4.56204ZM5.76642 5.61131C5.75274 5.54288 5.71624 5.49726 5.64781 5.47445C5.54288 5.46077 5.44252 5.44708 5.34672 5.42883C5.01369 5.42883 4.59854 5.49726 4.10584 5.63868C3.40785 5.83941 2.98358 5.95346 2.83759 5.98083C2.69161 6.0082 2.55931 6.03102 2.43613 6.04471C2.31296 6.05839 2.18522 6.06751 2.0438 6.06751C1.77464 6.06751 1.51916 6.03102 1.27281 5.95346C1.02646 5.87591 0.78011 5.75273 0.538321 5.58394C0.387774 5.39689 0.310219 5.16423 0.310219 4.89051C0.310219 4.82208 0.310219 4.77646 0.319343 4.74452C0.392336 4.57573 0.465329 4.40236 0.538321 4.22444C0.634124 4.01915 0.761861 3.91423 0.921533 3.91423C1.05383 3.78649 1.15876 3.64507 1.22719 3.48996C1.29562 3.33485 1.32299 3.17974 1.30474 3.02007C1.28193 3.01551 1.26369 3.02006 1.25912 3.03831C1.25456 3.05656 1.24544 3.07482 1.23175 3.09307C1.18157 3.17974 1.13595 3.23904 1.09489 3.27098C1.05383 3.30291 0.999088 3.30747 0.930657 3.28466C0.857664 3.18886 0.807482 3.10218 0.78011 3.02919C0.752737 2.9562 0.739051 2.86952 0.739051 2.7646C0.971715 2.22171 1.19982 1.67882 1.43248 1.13138C1.26825 1.38229 1.10858 1.62865 0.948905 1.87956C0.615876 2.40876 0.44708 2.85584 0.44708 3.2208C0.44708 3.43522 0.488139 3.63594 0.574818 3.82298C0.44708 4.09214 0.319343 4.37043 0.191606 4.65784C0.0638686 4.94525 0 5.21441 0 5.4562C0 5.65693 0.0364964 5.8394 0.109489 6.00364C0.296533 6.24086 0.524635 6.40966 0.789234 6.50547C1.05383 6.60127 1.35036 6.65145 1.67883 6.65145C1.89781 6.65145 2.11679 6.63321 2.34033 6.60128C2.56387 6.56934 2.87409 6.49178 3.27555 6.37773C3.62683 6.28649 3.98266 6.19069 4.33394 6.09488C4.55748 6.04014 4.7719 6.01277 4.97263 6.01277C5.07755 6.01277 5.18248 6.02189 5.29197 6.04014C5.20073 6.20438 5 6.4416 4.69434 6.75639C4.38869 7.07117 4.19252 7.31751 4.10584 7.49999C4.42062 7.21258 4.73996 6.92974 5.05474 6.64233C5.43339 6.28193 5.67062 5.93978 5.76642 5.61131Z" fill="white"/>
</svg>
