<svg width="20" height="12" viewBox="0 0 20 12" fill="none" xmlns="http://www.w3.org/2000/svg">
<path fill-rule="evenodd" clip-rule="evenodd" d="M16.0219 1.04793C16.0616 1.27143 15.9921 1.45517 15.8083 1.60913C15.7288 1.63397 15.6643 1.61907 15.6096 1.56941C15.555 1.51974 15.5202 1.45518 15.4954 1.38565C15.4855 1.33102 15.4855 1.25651 15.4855 1.15718C15.4855 0.973423 15.5103 0.799607 15.555 0.64068C15.6047 0.476786 15.6742 0.293029 15.7686 0.0844368C15.7437 0.203632 15.7189 0.337716 15.6891 0.491676C15.6593 0.640671 15.6494 0.749945 15.6494 0.814509C15.6494 0.988336 15.6891 1.14228 15.7686 1.28134C15.8331 1.28134 15.8878 1.25155 15.9275 1.19195C15.9722 1.13235 16.002 1.08766 16.0169 1.05289L16.0219 1.04793ZM18.2965 1.83263C18.3511 1.778 18.3809 1.71343 18.3809 1.6439C18.3809 1.47008 18.2965 1.34592 18.1326 1.27639C18.1972 1.23666 18.227 1.16216 18.227 1.04793C18.227 0.98337 18.217 0.893965 18.2021 0.774769C18.1773 0.605909 18.0879 0.486713 17.929 0.417182C17.8197 0.446981 17.7204 0.506587 17.631 0.595983C17.5416 0.68538 17.477 0.784707 17.4274 0.903902C17.3876 0.968467 17.3678 1.0231 17.3678 1.07276C17.3678 1.16712 17.4423 1.26645 17.5962 1.36578C17.7452 1.46511 17.8346 1.52967 17.8594 1.56444C17.5714 1.93692 17.1741 2.32928 16.6675 2.73156C16.3894 2.95505 15.9821 3.26297 15.4408 3.66029C15.9424 3.41197 16.4043 3.12889 16.8215 2.8011C17.2833 2.44351 17.6757 2.05613 18.0035 1.63398L18.2766 1.8823L18.3015 1.83263H18.2965ZM13.5883 1.83263C13.5585 1.88726 13.5187 1.91707 13.479 1.91707C13.4542 1.91707 13.4194 1.90217 13.3698 1.8674C13.2655 1.79787 13.2009 1.75814 13.1661 1.75814C12.9377 2.11572 12.6397 2.44847 12.2722 2.76136C12.1679 2.85076 11.5719 3.26794 10.4842 4.02285C11.3335 3.25305 12.1877 2.48324 13.0469 1.70847C13.0221 1.64391 12.9327 1.55947 12.7738 1.46015C12.6149 1.35585 12.5553 1.24658 12.595 1.12738C12.6347 1.00819 12.7142 0.889004 12.8383 0.764842C12.9625 0.64068 13.0767 0.581084 13.1761 0.581084C13.2704 0.581084 13.3449 0.650602 13.4045 0.784697C13.4045 1.18201 13.4641 1.52968 13.5833 1.83263H13.5883ZM11.0256 0.27315C11.0554 0.243351 11.0752 0.2086 11.0752 0.178801C11.0752 0.084438 10.9858 0.034769 10.8021 0.034769C10.6581 0.1043 10.5587 0.278126 10.5041 0.546315C10.4495 0.814505 10.4048 0.973428 10.375 1.02309C10.2856 0.834367 10.1962 0.635717 10.1018 0.427125C10.0075 0.218533 9.87832 0.0794636 9.71939 0C9.64986 0.0645642 9.6002 0.139057 9.58033 0.228454C9.56047 0.31785 9.5406 0.40228 9.5257 0.491676C9.5257 0.561207 9.58033 0.620803 9.69456 0.660535C9.71939 0.670468 9.75913 0.68537 9.81376 0.710203L9.86342 0.64068C9.91805 0.720143 10.0223 0.913832 10.1713 1.22672C10.2409 1.37075 10.3104 1.48498 10.375 1.57438C10.4296 1.41545 10.4842 1.25155 10.5438 1.08766C10.5687 0.998263 10.5786 0.89893 10.5786 0.789668C10.5389 0.630741 10.6034 0.516515 10.7673 0.451951C10.9362 0.382421 11.0206 0.332752 11.0305 0.29302L11.0256 0.27315ZM20 9.93793L19.4984 10.7028C19.2103 10.5538 18.9272 10.3998 18.6392 10.2508C18.6094 10.2657 18.4852 10.4296 18.2717 10.7375C18.1823 10.8666 18.0978 10.9262 18.0084 10.9262C17.929 10.9262 17.8346 10.8766 17.7204 10.7723C17.6956 10.7326 17.6211 10.6879 17.487 10.6332C17.3578 10.5836 17.2883 10.524 17.2883 10.4594C17.2883 10.4197 17.3131 10.365 17.3578 10.2905C17.4671 10.1217 17.5515 10.0025 17.6062 9.92303C17.7105 9.77403 17.8247 9.71443 17.9538 9.74423L18.6342 10.1018L19.2054 9.53067L19.9901 9.93793H20ZM19.3544 4.12217C19.3146 4.1917 19.2451 4.2364 19.1458 4.24633C19.0464 4.25626 18.9769 4.27614 18.9372 4.30097C19.0713 4.56419 19.1756 4.83238 19.255 5.10554C19.3295 5.37869 19.3693 5.66178 19.3693 5.94487C19.3693 6.22796 19.3345 6.47132 19.2699 6.68985C19.2004 6.90837 19.0862 7.12193 18.9173 7.32555C18.7882 7.46958 18.6144 7.58382 18.3909 7.67321C18.1674 7.76261 17.9588 7.84207 17.7601 7.92154C17.626 8.42812 17.3827 8.90489 17.035 9.34194C16.7172 9.73926 16.3149 10.1068 15.8331 10.4395C15.3861 10.7475 14.9143 11.0107 14.4127 11.2242C13.9111 11.4378 13.3946 11.6067 12.8632 11.7259C12.595 11.7259 12.3417 11.6563 12.1083 11.5173C11.8748 11.3782 11.6911 11.1845 11.5669 10.9411C11.5272 10.812 11.4974 10.6829 11.4825 10.5488C11.4676 10.4147 11.4577 10.2756 11.4577 10.1316C11.4577 9.82865 11.4974 9.51576 11.5769 9.19791C11.6563 8.87509 11.7606 8.54233 11.8848 8.20461H11.9692C11.9195 8.40327 11.8798 8.60194 11.845 8.8006C11.8103 8.99926 11.7904 9.18798 11.7904 9.37174C11.7904 9.5704 11.8152 9.75913 11.8699 9.93295C11.9195 10.1068 12.0089 10.2607 12.1281 10.3849C12.4212 10.6332 12.7887 10.7524 13.2257 10.7524C14.7604 10.365 16.1361 9.55054 17.3479 8.30892C17.3082 8.17979 17.2088 8.12019 17.0499 8.12019C16.742 8.16986 16.4291 8.21456 16.1212 8.26423C15.7636 8.22449 15.5252 8.18475 15.406 8.14502C15.1527 8.05562 14.9988 7.8967 14.9392 7.66824C14.9888 7.20636 15.0534 6.86367 15.1428 6.63025C15.2868 6.26273 15.5153 6.00447 15.8331 5.84554C15.9275 5.83064 16.002 5.82071 16.0616 5.82071C16.3546 5.82071 16.6377 5.925 16.9059 6.12863C17.1443 6.31239 17.3529 6.55574 17.5366 6.85373C17.6161 6.90836 17.7154 6.93817 17.8346 6.93817C18.0035 6.93817 18.2021 6.87858 18.4405 6.75938C18.5895 6.68985 18.7882 6.57066 19.0266 6.4018C18.7882 5.64689 18.5548 4.89197 18.3213 4.13707C18.3213 3.97814 18.3462 3.82916 18.3909 3.68513C18.4405 3.5411 18.52 3.39707 18.6392 3.25801C18.7584 3.32754 18.8875 3.47654 19.0315 3.69506C19.1756 3.91358 19.2799 4.05762 19.3544 4.13211V4.12217ZM11.9642 5.0062C11.9245 5.01613 11.8848 5.06085 11.85 5.14528C11.8152 5.22971 11.7557 5.2595 11.6762 5.23467C11.5818 5.14527 11.5322 5.03601 11.5322 4.90191C11.5322 4.82245 11.5421 4.73802 11.5669 4.64366C11.5918 4.55426 11.6166 4.44499 11.6514 4.3258C11.5719 4.47479 11.5222 4.57908 11.4974 4.63372C11.4179 4.81748 11.3782 4.99628 11.3782 5.1701C11.3782 5.2595 11.3782 5.32903 11.3881 5.38366C11.3981 5.43829 11.4378 5.48796 11.5123 5.53266C11.5868 5.57736 11.6613 5.59721 11.7308 5.59721C11.8202 5.46312 11.8798 5.35386 11.9096 5.2744C11.9394 5.19493 11.9593 5.10554 11.9593 5.00125L11.9642 5.0062ZM7.93643 1.57438C7.88676 1.64391 7.82717 1.75317 7.75764 1.8972C7.62851 2.15049 7.51925 2.31934 7.42488 2.3988C7.40005 2.37397 7.26595 2.28458 7.01763 2.12565C6.8438 2.01639 6.77427 1.89719 6.81401 1.76806C6.9332 1.55451 7.0226 1.39558 7.08716 1.29129C7.15173 1.18699 7.21629 1.13733 7.29079 1.13733C7.34542 1.13733 7.40502 1.16712 7.46958 1.22175C7.60368 1.30121 7.68811 1.35088 7.71791 1.37571C7.8073 1.43034 7.87683 1.49987 7.93146 1.57934L7.93643 1.57438ZM4.63372 0.144032C4.64862 0.193697 4.64366 0.243365 4.62379 0.302963C4.59896 0.362561 4.57412 0.422156 4.55426 0.48672C4.51453 0.456921 4.4748 0.427121 4.43506 0.407255C4.39533 0.387389 4.35063 0.387384 4.30594 0.402283C4.2364 0.546311 4.17681 0.789664 4.13707 1.12738C4.09734 1.47007 4.04271 1.71344 3.96821 1.8525C3.90365 1.78297 3.83412 1.60914 3.75466 1.34095C3.62553 0.918804 3.42687 0.730066 3.15868 0.769798C3.11895 0.730066 3.09908 0.680402 3.09908 0.615838C3.09908 0.576106 3.11895 0.511555 3.15371 0.427125C3.18848 0.337728 3.20834 0.283084 3.20834 0.258251L3.41197 0.0794654C3.5411 0.208594 3.65036 0.392356 3.74472 0.64068C3.87882 0.998266 3.96325 1.20685 3.99305 1.27142C4.04271 0.943629 4.08244 0.705243 4.11224 0.546315C4.17681 0.24336 4.29104 0.0943643 4.4599 0.0943643C4.51453 0.0943643 4.57412 0.109267 4.63869 0.144032H4.63372ZM13.8366 5.45815L13.5634 6.13857L13.6479 6.87857C13.5187 6.95804 13.3896 6.99776 13.2555 6.99776C13.186 6.99776 13.0916 6.98287 12.9774 6.95804C12.8632 6.92824 12.7589 6.90341 12.6595 6.87857C12.4907 6.85374 12.4112 6.78918 12.4112 6.67495C12.4112 6.63521 12.4311 6.55576 12.4659 6.43159C12.5006 6.30743 12.5106 6.22299 12.4957 6.17333C12.1381 6.62031 11.9096 6.8885 11.8053 6.98287C11.4875 7.27092 11.1646 7.39508 10.8418 7.36528C10.7226 7.37521 10.6084 7.34542 10.5041 7.28086C10.3948 7.21629 10.3005 7.1269 10.2111 7.00771C10.1167 6.93818 10.067 6.83884 10.067 6.70971C10.067 6.68488 10.077 6.61534 10.0968 6.49615C10.1167 6.37695 10.1217 6.28755 10.1167 6.23292C9.70946 6.65507 9.39161 6.94313 9.16315 7.10206C8.78073 7.36528 8.39335 7.49441 7.99603 7.49441C7.8371 7.47951 7.68811 7.43979 7.55401 7.38019C7.41992 7.32059 7.30569 7.24112 7.20636 7.13682C7.49938 6.92327 7.7328 6.62528 7.9116 6.24287C8.05562 5.93494 8.15992 5.56743 8.21952 5.14528C8.18972 4.85722 8.11026 4.6089 7.99106 4.40031C7.87187 4.19171 7.703 4.02285 7.47951 3.90366C7.41495 3.87883 7.36032 3.86889 7.31065 3.86889C7.23119 3.86889 7.14676 3.88379 7.06233 3.91856C7.03253 3.92849 6.95307 3.96326 6.83387 4.02782C6.60541 4.39534 6.42662 4.73305 6.30743 5.04097C6.15843 5.42836 6.07897 5.79589 6.07897 6.13857C6.07897 6.36206 6.10877 6.57065 6.1634 6.76931C5.40849 7.06233 4.87211 7.25602 4.55426 7.34045C3.96821 7.50931 3.39707 7.58878 2.85076 7.58878C2.667 7.58878 2.47331 7.57884 2.26471 7.55401C1.8376 7.49938 1.45518 7.37025 1.12242 7.17159C0.749938 6.9481 0.496648 6.65508 0.357586 6.28756C0.342687 6.23293 0.332754 6.15844 0.332754 6.05911C0.332754 5.91508 0.372486 5.74622 0.451949 5.54756C0.491681 5.4383 0.561212 5.26943 0.655575 5.04594C0.908865 4.99131 1.09759 4.79762 1.21679 4.4748C1.28632 4.21158 1.36578 3.94835 1.44524 3.67519L1.17209 4.06755C1.11746 4.10728 1.06779 4.12714 1.02806 4.12714C0.963497 4.12714 0.903899 4.10232 0.849267 4.05762C0.794636 4.00795 0.740005 3.94835 0.695307 3.87882C0.645642 3.69506 0.625776 3.51627 0.625776 3.34244C0.625776 2.95506 0.754905 2.49318 1.01813 1.96176C1.40055 1.18203 1.60417 0.759873 1.62404 0.700275C1.07773 1.62404 0.740005 2.21504 0.610877 2.47827C0.412218 2.88552 0.26819 3.25801 0.18376 3.6007C0.158927 3.71989 0.144028 3.80928 0.134095 3.87385C0.124162 3.93841 0.124162 4.02284 0.124162 4.12217C0.124162 4.33076 0.153961 4.50459 0.213559 4.65359C0.273156 4.80258 0.372486 4.92178 0.516514 5.01614C0.461882 5.15024 0.382419 5.3489 0.278123 5.60716C0.173827 5.86541 0.0993295 6.074 0.0496647 6.23292C0.0397318 6.28259 0.0297988 6.34716 0.0198659 6.43159C0.00993293 6.51602 0 6.59548 0 6.67495C0 6.93817 0.0546313 7.18152 0.158927 7.41495C0.26819 7.6434 0.432084 7.83213 0.655575 7.97616C0.948597 8.16489 1.25652 8.30396 1.57437 8.38839C1.89223 8.47282 2.22498 8.51255 2.5776 8.51255C2.76136 8.51255 2.93022 8.50261 3.08915 8.48771C3.24808 8.47281 3.41197 8.44798 3.57586 8.41818C3.98311 8.34865 4.47976 8.21455 5.06581 8.02583C5.44822 7.8967 5.91011 7.7328 6.44649 7.52421C6.65508 7.80233 6.83387 8.01092 6.98287 8.14502C7.22126 8.35361 7.45965 8.45294 7.69804 8.45294C8.10529 8.45294 8.47281 8.35858 8.80556 8.17482C9.13832 7.98609 9.44127 7.72288 9.70946 7.38019L9.85349 7.83213C9.93295 7.98112 10.0372 8.10033 10.1614 8.18476C10.2905 8.26919 10.4395 8.32381 10.6134 8.34367C10.9411 8.30394 11.2093 8.23442 11.4229 8.13012C11.6911 8.00099 11.8997 7.81227 12.0437 7.55898C12.153 7.68811 12.3119 7.78246 12.5205 7.84703C12.5453 7.85696 12.7291 7.8967 13.0668 7.97616C13.2257 7.96126 13.3648 7.92152 13.484 7.86193C13.6032 7.80233 13.6975 7.70797 13.772 7.5838C13.9707 7.23615 14.07 6.84381 14.07 6.41669C14.07 6.04421 13.9906 5.72635 13.8316 5.46312L13.8366 5.45815ZM4.54929 2.07103C4.57412 2.12069 4.58406 2.16041 4.58406 2.20015C4.58406 2.27961 4.54929 2.35908 4.4748 2.44351C4.4003 2.52794 4.33573 2.60244 4.27117 2.67694C4.16191 2.7564 4.04768 2.816 3.93842 2.8607C3.82915 2.90539 3.70499 2.92526 3.5709 2.92526C3.6007 2.89546 3.75962 2.79613 4.03775 2.6372C4.16687 2.56767 4.26124 2.48821 4.3258 2.40874C4.23144 2.37895 4.14204 2.34914 4.06258 2.32928C3.98311 2.30941 3.89372 2.29948 3.79935 2.29948C3.65533 2.29948 3.54606 2.33425 3.4666 2.40874C3.44177 2.35908 3.4517 2.30941 3.4964 2.24981C3.5411 2.19022 3.5858 2.13062 3.63546 2.06606C3.71492 2.01639 3.81425 1.99652 3.93345 1.99652C4.00298 1.99652 4.11224 2.00645 4.25627 2.03129C4.4003 2.05612 4.49963 2.06606 4.55426 2.06606L4.54929 2.07103ZM3.66526 5.25453C3.66526 5.50782 3.57586 5.70152 3.40204 5.84058C3.27291 5.84058 3.17358 5.79092 3.10405 5.68662C3.07922 5.64689 3.05935 5.57736 3.04445 5.48299C3.04445 5.31413 3.07425 5.1552 3.12888 5.0062C3.18351 4.85721 3.26794 4.69829 3.3772 4.53937C3.36727 4.5791 3.34244 4.67346 3.29774 4.81749C3.25304 4.96648 3.23318 5.07575 3.23318 5.14528C3.23318 5.27937 3.28781 5.40353 3.40204 5.51279C3.45667 5.51279 3.50137 5.47307 3.53116 5.3936C3.56096 5.31414 3.5858 5.26447 3.6007 5.24957H3.66029L3.66526 5.25453ZM17.9935 1.13236C17.9042 1.08269 17.8247 1.03303 17.7452 0.978397C17.7055 0.953564 17.6707 0.928725 17.636 0.908859C17.7552 0.988322 17.8744 1.06283 17.9935 1.13733V1.13236ZM13.1761 1.30121V1.13236C13.191 1.00323 13.1363 0.943628 13.0072 0.943628C12.9426 0.943628 12.893 0.978393 12.8532 1.05289C12.9476 1.17209 13.0569 1.25652 13.1761 1.30121ZM16.6675 7.22622C16.598 7.14675 16.5036 7.07723 16.3943 7.01266C16.2851 6.9481 16.1808 6.88353 16.0864 6.82393C15.9772 6.80903 15.8778 6.79911 15.7984 6.79911C15.704 6.79911 15.6196 6.814 15.55 6.83883C15.4805 6.86863 15.4209 6.9183 15.3712 6.99776C15.4755 7.08716 15.6047 7.15172 15.7636 7.19642C15.9225 7.24112 16.0814 7.26099 16.2404 7.26099C16.3844 7.26099 16.5284 7.25105 16.6675 7.22622ZM7.66824 6.03427C7.52421 6.12863 7.37522 6.223 7.22126 6.32233C7.0673 6.41669 6.92824 6.48623 6.80904 6.52596C6.71468 6.37696 6.64515 6.21306 6.60541 6.03924C6.56568 5.86541 6.54582 5.67172 6.54582 5.4681C6.54582 5.37373 6.54582 5.2744 6.55575 5.1701C6.56568 5.06581 6.57562 4.97642 6.59051 4.89695C6.66998 4.84232 6.74447 4.81252 6.81897 4.81252C6.9481 4.81252 7.07723 4.87708 7.21132 5.00125C7.30072 5.09064 7.39508 5.20486 7.49938 5.34889C7.55401 5.46809 7.59374 5.57239 7.61361 5.65682C7.63347 5.74622 7.65334 5.87038 7.66824 6.03924V6.03427Z" fill="white"/>
</svg>
