<svg width="20" height="13" viewBox="0 0 20 13" fill="none" xmlns="http://www.w3.org/2000/svg">
<path fill-rule="evenodd" clip-rule="evenodd" d="M19.9939 3.65579C19.9756 3.57645 19.9329 3.48489 19.8596 3.37504C19.7437 3.19805 19.6765 3.1004 19.6704 3.08209C19.6399 3.491 19.6277 3.91212 19.6277 4.33933C19.6277 4.72994 19.6277 5.12664 19.6399 5.52335C19.6521 5.92615 19.6582 6.32286 19.6704 6.72567C19.6704 7.44584 19.6338 8.03784 19.5545 8.49557C19.4446 9.09978 19.2554 9.64297 18.9808 10.119C19.0967 9.64907 19.1822 9.14251 19.231 8.59323C19.2798 8.04394 19.3042 7.50687 19.3042 6.96979C19.3042 6.49985 19.2798 5.71254 19.2249 4.59567C19.17 3.48489 19.1456 2.75862 19.1456 2.42905C19.0784 2.36191 19.0418 2.28258 19.0418 2.19714C19.0418 2.13 19.0479 2.07507 19.0662 2.04456C19.0784 2.00794 19.115 1.953 19.1761 1.86756C19.2371 1.78212 19.2798 1.72108 19.3103 1.68446C19.3775 1.60512 19.4446 1.5502 19.5179 1.50748C19.5362 1.62344 19.6338 1.98352 19.8108 2.59384C19.939 3.04547 20 3.39334 20 3.64968L19.9939 3.65579ZM14.2508 0.12817C14.2142 0.207511 14.1898 0.286846 14.1898 0.360083C14.1898 0.433321 14.2142 0.530975 14.2691 0.640832C14.3241 0.750688 14.3485 0.823927 14.3485 0.860545C14.3485 0.939886 14.2997 1.02533 14.202 1.12298L14.025 0.93378C13.8908 1.11077 13.7321 1.26335 13.549 1.40372C13.3659 1.53799 13.1767 1.64785 12.9692 1.72719C13.195 1.5502 13.3598 1.41593 13.4696 1.31828C13.6832 1.13519 13.8236 0.964292 13.8785 0.80561C13.7992 0.756785 13.7199 0.70186 13.6344 0.646932C13.549 0.5859 13.5246 0.506557 13.5551 0.396701C13.6344 0.238019 13.7626 0.109857 13.9518 0C14.1471 0.0305157 14.2447 0.0732385 14.2447 0.13427L14.2508 0.12817ZM14.6048 1.72719C14.5255 1.76381 14.4889 1.83704 14.4889 1.9347C14.4889 1.97131 14.4889 2.03845 14.5011 2.12389C14.5011 2.18492 14.4889 2.22765 14.4706 2.25816C14.3241 2.25816 14.2447 2.20324 14.2386 2.09948C14.2264 1.98963 14.2264 1.89807 14.2264 1.81873C14.2264 1.73939 14.2264 1.68447 14.2142 1.66006C14.1288 1.7455 14.08 1.86756 14.08 2.01404V2.27647C14.0494 2.31309 14.0067 2.34971 13.9579 2.38633C13.903 2.42295 13.848 2.41684 13.787 2.38022C13.7199 2.31919 13.6832 2.25206 13.6832 2.17272C13.6955 2.09338 13.7077 2.02014 13.7199 1.9469C13.7321 1.87367 13.7443 1.81874 13.7443 1.77602C13.7443 1.70888 13.7321 1.65395 13.7138 1.61733C13.5551 1.89197 13.494 2.19103 13.5246 2.50839C13.5612 2.61825 13.6588 2.69149 13.8053 2.72811C13.8358 2.7159 13.9396 2.64877 14.1288 2.5206C14.1898 2.48398 14.2447 2.45957 14.3058 2.45957C14.3729 2.45957 14.4461 2.48398 14.5255 2.5328C14.5743 2.45346 14.617 2.37413 14.6475 2.30089C14.6842 2.22155 14.6964 2.1361 14.6964 2.03845C14.6964 1.9408 14.6659 1.83704 14.6109 1.73329L14.6048 1.72719ZM12.4931 2.49008L11.9805 3.08819C11.773 3.00274 11.6265 2.92951 11.5288 2.88068C11.3518 2.79524 11.2481 2.69149 11.2054 2.57553L11.7058 2.00183C11.8889 2.08727 12.0415 2.16661 12.1575 2.22764C12.2734 2.28867 12.3894 2.37412 12.4931 2.48397V2.49008ZM10.235 1.09857L10.0458 1.39152C9.44767 1.62344 9.00824 1.79432 8.71529 1.90418C7.7693 2.27647 7.03082 2.57553 6.50595 2.81355C6.54257 2.7159 6.61581 2.62435 6.71346 2.5328C6.76228 2.48398 6.85383 2.42295 6.9942 2.3436C8.08056 1.93469 9.16082 1.51968 10.2472 1.09857H10.235ZM17.4855 3.23467C17.4672 3.1004 17.4489 2.96003 17.4245 2.82576C17.2658 2.33751 17.1193 1.84925 16.9728 1.361C16.863 1.44034 16.7714 1.5502 16.6921 1.69667C16.6555 1.77601 16.5883 1.89808 16.5029 2.06287C16.5029 2.37413 16.5456 3.19194 16.6372 4.51022C16.6738 5.09612 16.6982 5.59658 16.6982 6.00549C16.3442 6.13976 16.0757 6.23741 15.8926 6.28624C15.5813 6.37168 15.2945 6.42051 15.0442 6.42051C15.3067 6.09094 15.4898 5.81019 15.5874 5.59048C15.6851 5.37077 15.7461 5.16326 15.7644 4.96796C15.679 4.78486 15.5325 4.62008 15.3372 4.4797C15.1419 4.33933 14.8367 4.21117 14.4278 4.10741C14.3912 4.09521 14.318 4.0769 14.2203 4.04639H13.9274C13.3781 4.04639 12.8105 4.29662 12.2124 4.79097C11.7424 5.2426 11.2725 5.68813 10.8087 6.13976C10.711 6.10924 10.6134 6.04821 10.5096 5.95666C10.4059 5.86512 10.3082 5.76137 10.2106 5.65762C10.1251 5.52335 10.058 5.39518 10.0153 5.28532C9.97254 5.17547 9.94812 5.05951 9.94812 4.94355C9.94812 4.87642 9.94812 4.81538 9.96033 4.76045C9.97254 4.70553 9.99084 4.6567 10.0214 4.60787C9.87488 4.60787 9.66738 4.72384 9.40494 4.96186C9.02655 5.30363 8.80684 5.49282 8.7458 5.53555C8.51999 5.71254 8.11108 5.92616 7.51297 6.18249C6.58529 6.58529 6.0177 7.06133 5.8163 7.61672C6.06042 7.61672 6.38389 7.64724 6.78059 7.70216C6.81721 7.71437 7.35429 7.80592 8.37962 7.98291C7.94019 8.08056 7.574 8.16601 7.28105 8.23314C6.82942 8.343 6.2191 8.50168 5.45011 8.71529C5.36466 8.83125 5.27312 8.94721 5.18767 9.06927C5.10223 9.18523 5.0412 9.30119 5.01068 9.42325C5.05951 9.45377 5.45621 9.58193 6.19469 9.81995C6.46933 9.9054 6.68294 10.0214 6.84162 10.1556C6.13976 10.6256 5.49893 10.9673 4.92524 11.181C4.21117 11.4556 3.4971 11.5899 2.78914 11.5899C2.47788 11.5899 2.14831 11.5594 1.80653 11.5044C1.50137 11.419 1.23283 11.2725 0.988709 11.065C0.714068 10.8331 0.537077 10.5767 0.463839 10.3021C0.463839 10.2655 0.451633 10.2045 0.433323 10.1251V9.96643C0.433323 9.73451 0.482148 9.49039 0.579798 9.23406C0.646933 9.05707 0.836131 8.69088 1.15349 8.13549C0.799512 8.58712 0.54318 8.95941 0.378395 9.26457C0.122063 9.73451 0 10.1617 0 10.5523C0 10.8148 0.048825 11.065 0.146475 11.2969C0.390601 11.6753 0.714068 11.9561 1.11077 12.1392C1.51358 12.3222 1.95301 12.4077 2.42905 12.4077C2.69149 12.4077 2.95392 12.3772 3.22246 12.3222C3.66189 12.2246 4.08911 12.1025 4.51022 11.9561C4.93134 11.8096 5.33415 11.6387 5.72475 11.4373C6.11535 11.2359 6.46933 10.9857 6.7867 10.6744C7.10406 10.3692 7.34818 10.0153 7.51297 9.61245C7.43363 9.46597 7.28715 9.34391 7.07354 9.24626C6.95758 9.19743 6.78059 9.1303 6.54867 9.03875C7.31767 8.84345 8.11108 8.69087 8.9228 8.58712C9.73451 8.47726 10.5584 8.42844 11.4007 8.42844L11.7547 7.7693C11.0833 7.7693 10.1312 7.61673 8.91059 7.31767C8.12939 7.12237 7.5801 6.9942 7.25664 6.93927C7.28715 6.92096 7.54349 6.7928 8.03174 6.56088C8.19042 6.48154 8.33689 6.39609 8.47116 6.29844C8.5505 6.26182 8.77632 6.06653 9.14251 5.72475C9.40494 5.49283 9.63076 5.40128 9.81386 5.46231C9.78334 5.54776 9.77113 5.6271 9.77113 5.69423C9.77113 5.8285 9.8932 6.10314 10.1373 6.51205C10.235 6.67684 10.2838 6.82942 10.2838 6.96369C10.2838 7.04913 10.2655 7.13457 10.2228 7.21391C10.3387 7.16509 10.4303 7.09186 10.4852 6.99421C10.9857 7.12848 11.48 7.20171 11.9805 7.20171C12.3894 7.20171 12.7983 7.15899 13.2133 7.06744C13.5673 7.16509 13.9335 7.21391 14.3241 7.21391C14.6292 7.21391 14.9344 7.1895 15.2457 7.13458C15.5569 7.07965 15.8804 7.01251 16.2099 6.92096C16.5883 6.74397 16.8569 6.46933 17.0034 6.10314C17.1193 5.81019 17.1803 5.4257 17.1803 4.94355C17.1803 4.74825 17.1681 4.4553 17.1376 4.0647C17.1071 3.67409 17.0949 3.39335 17.0949 3.21636V3.04547C17.0949 2.97223 17.0949 2.9051 17.1071 2.85017C17.1559 2.88679 17.217 2.96612 17.2963 3.07598C17.3756 3.18584 17.4428 3.24687 17.5038 3.25908L17.4855 3.23467ZM14.7757 9.91151C14.7757 10.0092 14.7513 10.1068 14.6964 10.1984C14.6414 10.2899 14.556 10.3876 14.44 10.4913C14.3241 10.5951 14.1593 10.6439 13.9396 10.6439C13.903 10.6439 13.8541 10.6378 13.7931 10.6195C13.7321 10.6073 13.6466 10.5645 13.5368 10.4974C13.4269 10.4303 13.3354 10.3937 13.2682 10.3937C13.2011 10.3937 13.1401 10.412 13.0912 10.4547C12.8471 10.6317 12.6457 10.7782 12.4931 10.8941C12.1819 11.1199 11.9683 11.2664 11.8645 11.3335C11.5899 11.5105 11.3579 11.6448 11.1688 11.7363C10.9796 11.8279 10.7537 11.9072 10.5035 11.9622C10.7293 11.8828 10.9796 11.7547 11.2481 11.5838C11.4617 11.4495 11.7058 11.2786 11.9744 11.0711C12.2429 10.8636 12.4687 10.6988 12.6579 10.5706C12.9204 10.3875 13.1645 10.2411 13.3903 10.1312C13.4513 10.1434 13.5124 10.1556 13.5795 10.1678C13.6466 10.18 13.7077 10.2167 13.7565 10.2655C13.8053 10.2472 13.9335 10.1556 14.1349 9.98474C14.2936 9.85658 14.4217 9.79555 14.5316 9.79555C14.5987 9.79555 14.6842 9.83217 14.7818 9.91151H14.7757ZM4.24168 4.09521C4.19286 4.19286 4.14403 4.29661 4.09521 4.41257C4.04638 4.52243 3.99146 4.61398 3.93653 4.68111C4.11352 4.30882 4.19896 3.90601 4.19896 3.46658C4.19896 3.23466 4.17455 3.02716 4.11962 2.84407C4.06469 2.66097 3.97315 2.49619 3.85108 2.3375C3.86939 2.30089 3.8938 2.24595 3.92432 2.17882C3.95484 2.11168 3.98535 2.06897 4.00977 2.06287C4.12573 2.22155 4.21727 2.40464 4.2722 2.62435C4.33323 2.84407 4.35764 3.06378 4.35764 3.28959C4.35764 3.56424 4.32103 3.83278 4.24168 4.09521ZM10.2045 11.0528C9.83216 11.4556 9.37443 11.6509 8.82514 11.6509C8.77632 11.6509 8.72139 11.6509 8.66646 11.6448C8.60543 11.6448 8.52609 11.6204 8.41623 11.596C8.30638 11.5655 8.25755 11.4983 8.25755 11.3885C8.25755 11.3274 8.28197 11.2542 8.33689 11.1688C8.39182 11.0833 8.46506 10.9979 8.55661 10.9124C8.64815 10.827 8.75801 10.7537 8.88618 10.6866C8.84956 10.6378 8.77632 10.6134 8.67867 10.6134C8.61764 10.6134 8.56271 10.6256 8.50168 10.6439C8.46506 10.5829 8.46506 10.534 8.51388 10.4852C8.56271 10.4364 8.62374 10.3937 8.70308 10.3509C8.88618 10.3204 9.05096 10.3692 9.18523 10.4974C9.15471 10.6561 9.05096 10.7843 8.88007 10.8941C8.64815 11.0406 8.50778 11.1443 8.47116 11.1993C8.61764 11.3335 8.80073 11.4068 9.01434 11.4068C9.19133 11.4068 9.44156 11.3457 9.75893 11.2176C9.98474 11.1321 10.1312 11.0772 10.1984 11.0589L10.2045 11.0528ZM5.13885 5.64541C5.12664 5.69423 5.12054 5.74306 5.10833 5.79189C5.09612 5.84071 5.07171 5.89564 5.03509 5.95056C4.83979 5.90174 4.72383 5.87733 4.68111 5.87733C4.56515 6.02381 4.48581 6.26793 4.45529 6.6158C4.41868 6.96368 4.37595 7.20171 4.31492 7.32377C4.24779 7.24443 4.18065 7.14068 4.12572 7.00031C3.97925 6.67074 3.89381 6.47543 3.86329 6.42661C3.84498 6.4144 3.76564 6.4022 3.63137 6.38389C3.4971 6.36558 3.40555 6.32286 3.36894 6.26793C3.36894 6.13366 3.38114 6.0177 3.40555 5.93226C3.42997 5.84681 3.4971 5.77968 3.60085 5.74306C3.78395 5.81019 3.93042 5.95667 4.02807 6.18249C4.12572 6.4083 4.22338 6.62191 4.32103 6.82942C4.35154 6.5975 4.38206 6.35337 4.42478 6.10924C4.49191 5.84681 4.62008 5.65761 4.80317 5.53555C4.852 5.52334 4.89472 5.53555 4.93744 5.54775C5.06561 5.60879 5.13274 5.6332 5.14495 5.6332L5.13885 5.64541ZM2.23985 4.02197C2.19103 4.18675 2.00793 4.57126 1.69667 5.16326C1.44034 5.65151 1.31828 6.04211 1.31828 6.33507C1.31828 6.62802 1.41593 6.89045 1.61123 7.15288C1.69667 7.1834 1.78212 7.1712 1.86756 7.11627C1.95301 7.06134 2.01404 6.98809 2.06286 6.89044C2.08117 6.8111 2.11779 6.75618 2.16662 6.71346C2.19713 6.7928 2.20934 6.87214 2.20934 6.94538C2.20934 7.07355 2.16662 7.22612 2.07507 7.41532C2.02624 7.52517 1.9408 7.67165 1.81263 7.86695C1.70278 7.95239 1.58071 8.00122 1.43424 8.00122C1.38541 8.00122 1.32438 7.98901 1.24504 7.9707C1.11688 7.87305 1.02533 7.751 0.976503 7.60452C0.921575 7.45805 0.897162 7.28715 0.897162 7.09185C0.897162 7.01251 0.897162 6.93317 0.909368 6.84773C0.921574 6.76228 0.927678 6.67684 0.939884 6.5914C1.08636 6.09094 1.26335 5.6332 1.47696 5.20598C1.68447 4.77876 1.9408 4.38205 2.24596 4.00976L2.23985 4.02197ZM14.0311 0.494353V0.433327C14.0189 0.396708 14.0067 0.366184 13.9884 0.347874C13.9396 0.28074 13.8908 0.268541 13.8419 0.317366C13.8419 0.366191 13.8724 0.402812 13.9396 0.433327C14.0006 0.463843 14.0372 0.482147 14.0372 0.494353H14.0311ZM15.2334 5.68202C14.7757 5.88953 14.2753 6.04822 13.7321 6.16418C13.1889 6.28014 12.6579 6.34117 12.1269 6.34117C11.7852 6.34117 11.48 6.32285 11.2054 6.28013C11.7791 5.72474 12.1392 5.39517 12.2734 5.29752C12.7006 4.97406 13.1218 4.81538 13.5307 4.81538C13.6955 4.81538 13.8969 4.852 14.141 4.91913C14.379 4.98627 14.5987 5.08392 14.8001 5.20598C15.0015 5.32804 15.1419 5.48672 15.2334 5.68202ZM14.5438 10.1617C14.495 10.2472 14.4095 10.3082 14.2936 10.3387L13.9579 10.3509C14.0677 10.1861 14.202 10.1007 14.3668 10.1007C14.4339 10.1007 14.495 10.119 14.5438 10.1617Z" fill="white"/>
</svg>
