<svg width="20" height="11" viewBox="0 0 20 11" fill="none" xmlns="http://www.w3.org/2000/svg">
<path fill-rule="evenodd" clip-rule="evenodd" d="M20 3.24471C19.9729 3.223 19.9078 3.12534 19.8155 2.95171C19.7504 2.82691 19.6744 2.79436 19.5876 2.84319C19.5876 3.20673 19.631 3.7656 19.7179 4.52523C19.8047 5.28486 19.8481 5.85459 19.8481 6.23983C19.8481 7.14596 19.8047 7.81335 19.7179 8.25285C19.631 8.69235 19.4954 9.09387 19.3055 9.46283C19.3977 9.28378 19.4574 9.07759 19.4845 8.85513C19.5117 8.63267 19.5225 8.36137 19.5225 8.05209V7.71568L19.197 3.16874C19.1807 3.09821 19.1644 2.90831 19.1481 2.59903C19.1319 2.28975 19.083 2.06728 19.0016 1.93163C19.083 1.758 19.1373 1.63864 19.1753 1.57353C19.2566 1.43788 19.3435 1.34021 19.4357 1.28052C19.6799 1.98047 19.8209 2.38199 19.8481 2.48508C19.9186 2.7401 19.9729 2.98969 20 3.24471ZM15.5616 1.63864C15.5399 1.69832 15.5128 1.74172 15.4856 1.77971C15.4585 1.81769 15.4151 1.82854 15.3663 1.82311C15.3011 1.79599 15.2143 1.80142 15.1058 1.84482C14.9973 1.88823 14.9322 1.90993 14.9105 1.90993C14.8508 1.90993 14.7965 1.8828 14.7477 1.82311C14.7477 1.72002 14.7477 1.64406 14.7585 1.58437C14.764 1.52469 14.7911 1.45958 14.8345 1.38904C14.8616 1.41074 14.8779 1.43787 14.8779 1.47586C14.8779 1.5681 14.8996 1.61693 14.943 1.61693C15.0515 1.6332 15.1221 1.5681 15.1546 1.43245C15.1872 1.2968 15.2143 1.21541 15.236 1.1937C15.2794 1.19913 15.3011 1.24254 15.3011 1.32393C15.3011 1.45415 15.3174 1.51926 15.3445 1.51926L15.4314 1.49756L15.5182 1.172C15.567 1.21541 15.5941 1.28595 15.5941 1.38904C15.5941 1.49213 15.5833 1.57352 15.5616 1.63864ZM15.1492 0.18448C15.1492 0.18448 15.1167 0.135653 15.0895 0.081394C15.0624 0.0271346 15.0353 0 14.9973 0C14.8888 0.0271297 14.7965 0.086816 14.7206 0.179057C14.6446 0.271298 14.5795 0.374395 14.5198 0.488339C14.5252 0.569728 14.5741 0.629412 14.6609 0.672819C14.7043 0.694523 14.7748 0.732503 14.8779 0.781336C14.7097 1.0255 14.4059 1.3185 13.9555 1.66034C13.6517 1.89365 13.4563 2.04558 13.3695 2.12697C13.6896 1.98047 13.9826 1.80684 14.2485 1.60608C14.5524 1.37277 14.802 1.11775 14.9973 0.835599C15.1112 0.808469 15.1709 0.754208 15.1709 0.672819C15.1709 0.651115 15.1601 0.602277 15.1384 0.531739C15.1167 0.461202 15.1058 0.401521 15.1058 0.358114C15.1058 0.293003 15.1221 0.233313 15.1492 0.18448ZM15.9631 2.74552C15.8492 2.94628 15.7895 3.0548 15.7895 3.06023C15.7244 3.16332 15.643 3.26099 15.5507 3.35323C15.3554 3.25014 15.2306 3.1796 15.1709 3.13619C15.0353 3.0331 14.9647 2.93543 14.9647 2.84319C15.0081 2.81606 15.0733 2.71839 15.1655 2.56104C15.2577 2.40369 15.3337 2.3223 15.3988 2.3223C15.4585 2.3223 15.5236 2.36028 15.5941 2.44167C15.7189 2.54476 15.8383 2.64243 15.9631 2.74552ZM11.8177 1.02008C11.7797 1.172 11.682 1.30765 11.5247 1.43245C11.3999 1.52469 11.248 1.60608 11.0689 1.67119C11.1177 1.5898 11.1991 1.51384 11.3077 1.4433C11.4813 1.32936 11.5789 1.25882 11.6007 1.23711C11.5138 1.19371 11.4216 1.172 11.3185 1.172C11.21 1.172 11.096 1.18828 10.9712 1.22626C11.0364 1.06891 11.1449 0.960393 11.2968 0.900707H11.5789C11.682 0.916985 11.758 0.954967 11.8177 1.02008ZM12.5448 2.5936C12.5014 2.63158 12.4308 2.73467 12.3386 2.91372C12.2463 3.09278 12.1595 3.1796 12.0781 3.1796C12.0347 3.1796 11.975 3.14705 11.8937 3.08194L11.5138 2.81064C11.541 2.70755 11.6224 2.57732 11.7526 2.41997C11.8448 2.30603 11.9045 2.23006 11.9262 2.19208C12.0293 2.21921 12.1107 2.25176 12.1758 2.28975C12.2897 2.35486 12.4145 2.45795 12.5448 2.5936ZM17.58 3.16874C17.6017 2.94628 17.5041 2.55562 17.287 1.99675C17.1622 1.68747 17.0754 1.4433 17.0266 1.26967C16.8909 1.40532 16.8041 1.50298 16.7661 1.55182C16.6793 1.67661 16.6359 1.78513 16.6359 1.88822C16.6359 1.93163 16.6468 1.98046 16.6685 2.04015C16.8421 3.4726 16.9452 4.31905 16.9723 4.57949C17.0754 5.55616 17.1243 6.41888 17.1243 7.16223C16.8692 7.35214 16.5383 7.51492 16.1259 7.66142C15.8926 7.74281 15.5453 7.85675 15.0841 8.00868C14.764 8.12262 14.4493 8.29625 14.14 8.51872C13.9012 8.69235 13.6191 8.92566 13.2935 9.22409C12.8432 9.63104 12.4905 9.90776 12.2355 10.0597C11.9805 10.2116 11.7309 10.3147 11.4921 10.3744C11.3782 10.3744 11.2751 10.3473 11.1829 10.2984C11.0906 10.2496 10.9984 10.1736 10.9061 10.0814C10.8681 9.95659 10.8519 9.84808 10.8519 9.74498C10.8519 9.54965 10.9116 9.30548 11.0364 9.00706C11.21 8.60011 11.3022 8.38307 11.3077 8.34509C11.1394 8.62181 11.0201 8.84427 10.9387 9.0179C10.8302 9.25664 10.7488 9.49539 10.6891 9.73413C10.6728 9.79382 10.6674 9.87521 10.6674 9.98373C10.6674 10.2279 10.7379 10.4286 10.8844 10.5806C11.1069 10.7162 11.3294 10.7868 11.5464 10.7868C11.7037 10.7868 11.8502 10.7596 11.9859 10.7054C12.1215 10.6511 12.2626 10.5752 12.4091 10.4721C12.5556 10.369 12.8486 10.1302 13.2827 9.74498C13.478 9.57135 13.6408 9.44113 13.771 9.35432C14.0369 9.17526 14.2919 9.02876 14.5307 8.91482C14.7694 8.80087 15.0515 8.68692 15.3771 8.57298C15.7732 8.42648 16.0553 8.31796 16.2235 8.24742C16.5274 8.1172 16.7878 7.97612 17.0049 7.8242C17.1731 7.54748 17.287 7.27076 17.3521 6.98861C17.4173 6.70646 17.4498 6.3809 17.4498 6.01194C17.4498 5.72979 17.3793 5.04612 17.2436 3.96093C17.1839 3.50516 17.1568 3.10906 17.1568 2.76723L17.2328 2.61531C17.3847 2.76723 17.4986 2.95171 17.58 3.16874ZM15.9414 9.63646C15.9577 9.69615 15.9414 9.76126 15.9143 9.83722C15.8817 9.91319 15.8383 9.98915 15.7895 10.0705C15.7461 10.0868 15.7081 10.0922 15.6701 10.0922C15.6267 10.0922 15.5833 10.076 15.5453 10.0434C15.5073 10.0108 15.4748 9.96744 15.4585 9.91861C15.4422 9.86978 15.4314 9.80467 15.4314 9.72328C15.4314 9.66359 15.4368 9.58763 15.4531 9.48453L15.7461 8.93109C15.6972 9.08302 15.6538 9.20782 15.6267 9.31091C15.5996 9.414 15.5833 9.48454 15.5833 9.52794C15.5833 9.65816 15.643 9.75584 15.7678 9.82095L15.9414 9.63646ZM8.25828 1.97504C8.25828 2.12154 8.22029 2.26261 8.1389 2.39826C8.07922 2.45795 8.02496 2.48508 7.96527 2.48508C7.92729 2.48508 7.90016 2.4688 7.87846 2.44167C7.79707 2.33315 7.75909 2.20836 7.75909 2.06186C7.75909 1.91536 7.79707 1.74715 7.87846 1.55182C7.92187 1.45958 7.96527 1.36191 8.00868 1.26967C8.01411 1.33478 7.99783 1.4433 7.95985 1.59523C7.92187 1.74715 7.90016 1.85024 7.90016 1.89908C7.90016 2.01302 7.94357 2.11069 8.03039 2.19208C8.07922 2.19751 8.12805 2.15953 8.17146 2.07271C8.19316 2.02388 8.22029 1.99132 8.25828 1.97504ZM10.0054 3.46175L9.91861 3.57027L9.70157 3.40749C9.48454 3.72762 9.18611 4.03147 8.80087 4.32989C8.32881 4.66088 7.98155 4.91047 7.75909 5.07868C8.38307 4.51438 9.00163 3.94466 9.62561 3.37493C9.59848 3.3478 9.51167 3.30439 9.37602 3.24471C9.24037 3.18502 9.16983 3.11992 9.16983 3.03853C9.16983 3.0114 9.18068 2.97342 9.20239 2.93001C9.25122 2.8432 9.31633 2.76181 9.39772 2.69127C9.47911 2.62073 9.5605 2.57732 9.64731 2.56104C9.75041 2.56104 9.81552 2.62073 9.8535 2.74552C9.86978 2.81606 9.8752 2.88118 9.8752 2.93001C9.8752 3.0114 9.85892 3.06565 9.8318 3.10364C9.8752 3.16332 9.91861 3.21758 9.96744 3.27727C10.0163 3.33696 10.0271 3.39664 10.0054 3.46175ZM12.7292 8.45361C12.7075 8.5567 12.6804 8.64352 12.6424 8.72491C12.6044 8.8063 12.5502 8.86598 12.4797 8.90939C12.3983 8.92566 12.3332 8.86598 12.2843 8.73576C12.268 8.66522 12.2626 8.61096 12.2626 8.57298C12.2626 8.44818 12.2897 8.32881 12.3494 8.20401C12.3657 8.17688 12.4308 8.06294 12.5448 7.86761C12.561 7.93272 12.5556 7.99783 12.5339 8.06294C12.4525 8.27455 12.4145 8.38307 12.4145 8.39935C12.4145 8.48074 12.4471 8.55128 12.5122 8.61639C12.5502 8.61639 12.5882 8.58925 12.6262 8.535C12.6641 8.48074 12.7021 8.45361 12.7292 8.45361ZM6.50027 2.96256L6.02279 3.57027C5.97396 3.52686 5.87629 3.46717 5.74064 3.39663C5.5019 3.27184 5.3771 3.16332 5.37168 3.06023L5.7949 2.52849L6.50027 2.96256ZM4.01519 1.45416L3.97179 1.68204C3.94466 1.68747 3.89582 1.66576 3.83071 1.61693C3.7656 1.56809 3.70591 1.54639 3.65708 1.55182C3.63538 1.75258 3.61367 1.95876 3.59197 2.15952C3.55399 2.37656 3.49973 2.56647 3.41834 2.72382C3.3478 2.65329 3.27727 2.52306 3.20673 2.33315C3.13619 2.14325 3.07108 2.01302 3.00597 1.93163C2.98969 1.99674 2.95714 2.0293 2.9083 2.0293C2.8866 2.0293 2.85947 2.01845 2.82149 1.99675C2.72925 1.92621 2.65871 1.85567 2.6153 1.79056C2.63158 1.72545 2.64786 1.65491 2.67499 1.57895C2.70212 1.50299 2.75095 1.43787 2.82149 1.38904C2.98969 1.47043 3.11991 1.6115 3.22301 1.82311C3.3044 2.01302 3.38036 2.19751 3.46175 2.37656C3.49973 2.04558 3.52686 1.79598 3.55399 1.62778C3.58112 1.45958 3.62995 1.32935 3.71134 1.23711C3.77645 1.24254 3.83071 1.26967 3.87954 1.30765C3.92838 1.34563 3.97179 1.39447 4.01519 1.45416ZM10.6457 9.63646C10.4883 9.79381 10.3039 9.92404 10.0977 10.0271C9.89148 10.1302 9.6853 10.1791 9.48454 10.1791C9.37059 10.1791 9.2675 10.1628 9.18069 10.1357C9.06674 10.076 9.00705 9.98915 9.00705 9.86436C9.00705 9.81552 9.02333 9.77211 9.05046 9.73413C9.16441 9.5822 9.25122 9.47911 9.30005 9.43028C9.40857 9.31633 9.51709 9.2458 9.62561 9.22409C9.57678 9.20781 9.52252 9.19696 9.46826 9.18068C9.414 9.1644 9.38144 9.15898 9.36516 9.15898C9.30548 9.15898 9.26207 9.18068 9.22409 9.22409C9.19696 9.19696 9.20781 9.15355 9.25665 9.10472C9.30548 9.05589 9.33261 9.01791 9.33261 8.9962C9.37059 8.93652 9.43028 8.90939 9.51709 8.90939C9.56593 8.90939 9.60933 8.90939 9.63646 8.92024C9.7287 8.95822 9.78839 8.97992 9.81009 8.98535C9.8318 8.99077 9.85893 9.01248 9.89691 9.05047C9.89691 9.14271 9.82637 9.24037 9.67987 9.34346C9.35974 9.56593 9.20239 9.69615 9.20239 9.72328C9.20239 9.78839 9.30548 9.85893 9.50624 9.92946C9.67987 9.92946 9.88063 9.89148 10.1031 9.81009C10.4015 9.707 10.5806 9.65274 10.6457 9.63646ZM15.3228 5.14378C15.3662 5.20347 15.388 5.25773 15.388 5.31742C15.388 5.38796 15.3391 5.49648 15.2469 5.64298C15.1546 5.78948 15.1004 5.90342 15.0841 5.99024C14.7748 6.10418 14.3245 6.2561 13.7385 6.43516C12.9788 6.6739 12.2409 6.90722 11.5301 7.13511C10.8193 7.363 10.217 7.60174 9.72328 7.84591C9.15898 8.12806 8.62181 8.46988 8.10635 8.86598C7.92729 9.00163 7.62344 9.30548 7.20564 9.77754C6.55996 10.4938 6.00651 10.8519 5.53445 10.8519C5.42594 10.8519 5.31742 10.841 5.2089 10.8193C5.01899 10.7162 4.88334 10.5697 4.7911 10.369C4.69886 10.1682 4.65545 9.94574 4.65545 9.70158C4.69343 9.45741 4.75855 9.22951 4.86164 9.0179C4.32447 9.15355 3.95551 9.24579 3.7439 9.2892C3.27184 9.39229 2.87032 9.44113 2.52849 9.44113C2.03473 9.44113 1.64406 9.40315 1.34563 9.32176C0.949539 9.21324 0.613131 9.01791 0.336408 8.73576C0.222464 8.62182 0.135648 8.48074 0.0813891 8.31796C0.0271297 8.15518 0 7.98155 0 7.79164C0 7.62344 0.016278 7.48236 0.0434077 7.35757C0.113945 7.14596 0.211612 6.91264 0.336408 6.65219C0.461205 6.39175 0.591427 6.14759 0.737927 5.91428C0.634835 6.11504 0.553446 6.32122 0.488334 6.53283C0.401519 6.7987 0.358112 7.03744 0.358112 7.24905C0.358112 7.40098 0.379816 7.53662 0.417797 7.66142C0.455779 7.78622 0.526316 7.90016 0.618557 8.00868C0.900706 8.29083 1.24254 8.48616 1.64948 8.59468C1.95334 8.67607 2.35486 8.71405 2.85404 8.71405C3.21758 8.71405 3.62995 8.65437 4.10201 8.54043C4.62832 8.3885 5.00814 8.28541 5.24145 8.22572C5.32827 8.03039 5.41508 7.82962 5.5019 7.62886C5.56158 7.49864 5.62127 7.3847 5.68638 7.29246C5.59957 7.59631 5.48562 7.88389 5.34997 8.16061C5.6701 8.06837 5.99566 7.94357 6.33207 7.79707C6.66848 7.65057 6.97775 7.48237 7.2599 7.29246C7.2599 7.15681 7.23277 7.04287 7.18394 6.95605C7.11883 6.91807 7.04287 6.89637 6.96148 6.88009C6.88009 6.86381 6.78785 6.85838 6.69561 6.85838C6.60879 6.85838 6.45686 6.86381 6.2344 6.88009C6.01194 6.89637 5.89799 6.90179 5.88172 6.90179C5.63755 6.90179 5.45307 6.86381 5.33912 6.79327C5.18177 6.69018 5.07868 6.51113 5.03527 6.25068C5.2306 5.70809 5.34997 5.39881 5.39338 5.32827C5.58329 4.98644 5.83288 4.7911 6.14216 4.74227C6.38633 4.74227 6.62507 4.82908 6.85838 5.00271C7.04829 5.14921 7.22192 5.34455 7.37927 5.59957C7.47151 5.72437 7.54205 5.86001 7.58546 6.00652C7.62887 6.15302 7.65057 6.29951 7.65057 6.44601C7.65057 6.70103 7.60716 6.9452 7.51492 7.18394C7.42268 7.42268 7.29246 7.67227 7.11883 7.93272C6.7987 8.14433 6.46229 8.33424 6.1096 8.50244C5.75692 8.67064 5.38795 8.81715 5.01356 8.93109C4.91047 9.11015 4.86164 9.30548 4.86164 9.5171C4.86164 9.75041 4.92132 9.93489 5.03527 10.0814C5.0841 10.1302 5.13836 10.1845 5.19805 10.2333C5.30657 10.3201 5.42051 10.3635 5.53445 10.3635C5.57786 10.3635 5.61042 10.3635 5.63212 10.3527C5.95768 10.2225 6.29951 10.0054 6.66305 9.70158C6.88009 9.52252 7.19479 9.22409 7.60716 8.81172C7.97613 8.43733 8.2854 8.14433 8.54042 7.94357C8.88226 7.66685 9.24037 7.44981 9.61476 7.28161C9.98915 7.1134 10.3798 6.9452 10.7759 6.77157C10.6945 6.65762 10.4341 6.48942 9.98372 6.27238C9.63646 6.09875 9.46283 5.87629 9.46283 5.61042C9.46283 5.5453 9.46283 5.49105 9.47368 5.44764C9.63104 5.05155 9.73956 4.80738 9.79924 4.72056C9.96745 4.46012 10.1845 4.31904 10.4504 4.29734C11.0146 4.29734 11.5572 4.33533 12.0781 4.41129C12.599 4.48725 13.1525 4.59577 13.7385 4.73142C13.809 4.74769 14.3407 4.88334 15.3228 5.14378ZM3.57027 6.03364C3.52686 6.03906 3.48888 6.0879 3.46175 6.17472C3.43462 6.26153 3.39664 6.31037 3.35323 6.32664C3.26641 6.2344 3.22301 6.12046 3.22301 5.99024C3.22301 5.96853 3.25556 5.81118 3.32067 5.52361C3.34238 5.43679 3.3478 5.34997 3.33152 5.26316C3.17417 5.61584 3.09278 5.98481 3.09278 6.37005C3.09821 6.41346 3.12534 6.46229 3.16332 6.51655C3.2013 6.57081 3.26099 6.59794 3.33152 6.59794C3.41834 6.51655 3.47802 6.42974 3.50515 6.3375C3.50515 6.33207 3.52686 6.22897 3.57027 6.03364ZM1.80141 4.65545C1.76343 4.67716 1.72002 4.73684 1.66576 4.83993C1.6115 4.94303 1.56267 5.00271 1.51926 5.02441C1.47585 5.04612 1.43787 5.05698 1.39989 5.05698C1.36191 5.05698 1.32393 5.04069 1.28052 5.00814C1.23711 4.97558 1.18828 4.9376 1.13945 4.8942C1.07434 4.70429 1.04178 4.52523 1.04178 4.3516C1.04178 4.04232 1.15572 3.65166 1.37819 3.1796C1.48671 2.96256 1.59523 2.74553 1.70374 2.52849C1.37276 3.02225 1.14487 3.39121 1.02008 3.63538C0.797613 4.08573 0.683668 4.4981 0.683668 4.87249C0.683668 5.15464 0.737927 5.41508 0.846446 5.65382C0.949539 5.72436 1.0255 5.7732 1.07434 5.80033C1.12317 5.82746 1.18285 5.82745 1.24797 5.80575C1.4433 5.69723 1.57895 5.52361 1.66034 5.28486C1.70374 5.07325 1.75258 4.86707 1.80141 4.65545ZM14.943 0.423222C14.943 0.423222 14.8616 0.423223 14.7585 0.34726C14.7857 0.287574 14.8237 0.276721 14.8671 0.303851C14.905 0.325555 14.9268 0.363537 14.943 0.423222ZM9.65817 3.02767C9.65817 2.96799 9.63104 2.92458 9.57135 2.8866C9.50624 2.84862 9.44655 2.85947 9.39772 2.9083L9.65817 3.02767ZM14.2377 5.63212L11.2642 6.58709C11.2208 6.49484 11.1557 6.39176 11.0689 6.27781C10.9821 6.16387 10.9116 6.07163 10.8627 5.99024C10.7922 5.9197 10.6131 5.78947 10.331 5.61042C10.1085 5.46392 9.96202 5.32284 9.89691 5.18719C10.0868 5.13836 10.2659 5.10038 10.4449 5.07868C10.624 5.05697 10.7976 5.04612 10.9712 5.04612C11.4053 5.04612 11.9533 5.11666 12.6207 5.26316C12.9843 5.34455 13.5214 5.46392 14.2377 5.63212ZM6.80412 6.07705C6.6956 5.9631 6.61964 5.88171 6.57623 5.8383C6.44059 5.70808 6.28866 5.60499 6.13131 5.53445C6.02821 5.50732 5.94683 5.49104 5.88172 5.49104C5.72979 5.49104 5.6267 5.54531 5.56701 5.65382C5.53988 5.68095 5.5236 5.72436 5.5236 5.7732C5.5236 5.83288 5.54531 5.87629 5.58871 5.91428C5.6484 6.00109 5.72436 6.0662 5.82746 6.10418C5.93055 6.14216 6.03907 6.16386 6.15301 6.16386C6.23983 6.16386 6.33207 6.15844 6.42973 6.14216C6.5274 6.12589 6.6522 6.10418 6.80412 6.07705Z" fill="white"/>
</svg>
