<svg width="20" height="13" viewBox="0 0 20 13" fill="none" xmlns="http://www.w3.org/2000/svg">
<path fill-rule="evenodd" clip-rule="evenodd" d="M13.4851 1.74257C13.4521 1.84818 13.4125 1.9538 13.3795 2.05941C13.3465 2.16502 13.2805 2.23762 13.1947 2.28383C13.1155 2.31023 13.0495 2.30363 12.9901 2.26403C12.9307 2.22442 12.8779 2.16502 12.8251 2.08581C12.8251 1.81518 12.8647 1.55116 12.9439 1.30033C13.0231 1.04951 13.1419 0.79868 13.3003 0.541254C13.2937 0.627063 13.2409 0.785479 13.1551 1.0165C13.0693 1.24753 13.0231 1.41914 13.0231 1.54456C13.0231 1.64357 13.0363 1.72278 13.0561 1.78218C13.0759 1.84159 13.1221 1.90759 13.1947 1.9802C13.2541 1.9802 13.3201 1.934 13.3795 1.84819C13.4125 1.79538 13.4521 1.76238 13.4851 1.74257ZM10.6469 1.0561C10.6469 1.23432 10.5809 1.40594 10.4422 1.57096C10.3036 1.73598 10.1452 1.86139 9.9604 1.9406C9.72277 1.9868 9.57096 1.90759 9.49835 1.70297C9.49835 1.49835 9.55116 1.27393 9.65677 1.02971C9.70957 0.904294 9.82178 0.70627 9.9868 0.422442C9.9868 0.495049 9.92739 0.673267 9.81518 0.963696C9.76238 1.09571 9.73597 1.20792 9.73597 1.29373C9.73597 1.43234 9.80858 1.54455 9.9472 1.62376C10.0528 1.60396 10.1452 1.58416 10.2178 1.55115C10.2904 1.51815 10.363 1.45875 10.4224 1.37294C10.4158 1.29373 10.33 1.19472 10.1782 1.07591C10.0264 0.957099 9.9472 0.871286 9.9472 0.81848C9.9472 0.759075 10.0132 0.679869 10.1452 0.59406C10.2442 0.640265 10.3366 0.699672 10.4356 0.78548C10.5347 0.871289 10.6007 0.957095 10.6469 1.0561ZM11.3069 3.36634L10.7657 4.10561C10.6403 4.05941 10.5149 4.0066 10.3894 3.9406C10.264 3.87459 10.1386 3.80858 10.0264 3.73598C10.099 3.60396 10.1716 3.47195 10.2574 3.33334C10.3432 3.19472 10.4422 3.07591 10.5677 2.9703C10.7723 3.0297 10.8977 3.07591 10.9505 3.10231C11.0891 3.16172 11.2079 3.25412 11.3069 3.36634ZM12.165 4.27723L11.3993 3.93399L10.7657 4.48845L9.89439 4.05281C9.75578 4.15181 9.63696 4.27063 9.53795 4.40924C9.48515 4.48845 9.40594 4.64026 9.30033 4.85809C9.43894 4.93729 9.59076 5.0165 9.74918 5.09571C9.90759 5.17492 10.0528 5.21452 10.1848 5.21452C10.2838 5.13531 10.3762 5.0363 10.4752 4.92409C10.6139 4.75908 10.7063 4.65347 10.7393 4.60726C10.8251 4.70627 10.9769 4.79208 11.1881 4.87129C11.3993 4.9505 11.538 5.0099 11.5974 5.05611L12.165 4.27723ZM17.8152 11.3399C17.7162 11.505 17.5908 11.6568 17.4323 11.7888C17.2739 11.9208 17.0891 12.0264 16.8779 12.1056C16.6667 12.1848 16.4092 12.2244 16.099 12.2244C15.934 12.2244 15.8086 12.2178 15.7294 12.198C15.5974 12.1386 15.5314 12.0396 15.5314 11.9076C15.5314 11.8548 15.5578 11.7888 15.6172 11.703C15.6766 11.6172 15.7558 11.538 15.868 11.4521C15.9802 11.3663 16.1056 11.2871 16.2442 11.2079C16.1848 11.0957 16.0726 11.0363 15.9142 11.0363C15.8416 11.0363 15.7822 11.0495 15.7294 11.0759L15.6766 11.1419L15.6106 11.0759C15.7426 10.9175 15.835 10.8185 15.8944 10.7855C15.9538 10.7525 16.0198 10.7327 16.099 10.7327C16.1848 10.7327 16.264 10.7525 16.3366 10.7855C16.4092 10.8185 16.4951 10.8845 16.6007 10.9703C16.5677 11.1287 16.4554 11.2739 16.2706 11.4059C16.1122 11.505 15.9538 11.604 15.7954 11.7096C15.9208 11.8614 16.0924 11.934 16.3102 11.934C16.462 11.934 16.6403 11.901 16.8515 11.8284C17.1683 11.7228 17.3465 11.6634 17.3927 11.6568L17.8152 11.3399ZM19.9934 2.50825C19.8878 2.17162 19.7888 1.86139 19.6898 1.57096C19.4785 0.930696 19.2871 0.422443 19.1221 0.0528065C19.0891 0.112212 19.0165 0.217822 18.9109 0.356436C18.7723 0.567657 18.6997 0.745875 18.6997 0.89769C18.6997 0.930694 18.7063 0.996699 18.7261 1.08251L19.2673 6.67987L19.3069 7.61716C18.6007 7.53135 18.0462 7.43894 17.6304 7.35314C17.0561 7.24092 16.5281 7.08911 16.0462 6.90429C16.1782 6.60726 16.2442 6.25743 16.2442 5.86139C16.2442 5.76238 16.2442 5.67657 16.2442 5.60396C16.2442 5.53135 16.2244 5.39934 16.198 5.22113C16.1716 5.04291 16.1122 4.72608 16.0198 4.27723C15.9274 3.82839 15.8812 3.49835 15.8812 3.28713C16.0132 3.21452 16.3102 3.08911 16.7789 2.90429C17.4323 2.64687 17.868 2.36304 18.0858 2.0462C17.6964 2.22442 17.3003 2.40264 16.8845 2.59406C16.4686 2.78548 16.1122 2.92409 15.802 3.0231C15.769 2.87129 15.736 2.71287 15.703 2.54786C15.67 2.38284 15.6568 2.23102 15.6568 2.09901C15.6568 1.92079 15.6832 1.78218 15.736 1.67657C15.7822 1.70957 15.8548 1.80858 15.9604 1.967C16.0396 2.09241 16.1254 2.16502 16.2244 2.19142C16.2244 1.88119 16.1122 1.51155 15.8812 1.06931C15.5578 0.442246 15.3729 0.0858086 15.3399 0C15.2079 0.112211 15.1023 0.257425 15.0165 0.422442C14.9307 0.587458 14.8911 0.759075 14.8911 0.937293C15.0165 1.70957 15.1353 2.48845 15.2607 3.26073C15.2079 3.29373 14.9175 3.42574 14.3894 3.65677C14.0396 3.80858 13.8218 4.0066 13.7426 4.25083C13.9868 4.11221 14.2442 3.9868 14.5149 3.88119C14.7855 3.77558 15.0429 3.66997 15.3003 3.56436C15.3861 4.04621 15.4851 4.54786 15.5842 5.06931C15.6832 5.59076 15.736 6.04621 15.736 6.44225C15.5314 6.44225 15.0363 6.46205 14.2442 6.50825C13.9274 6.52805 13.637 6.53466 13.3729 6.53466L13.0297 7.39274C13.3795 7.45215 13.8944 7.55116 14.5743 7.67657C15.2541 7.80198 15.802 7.94059 16.2244 8.07921C15.6964 8.29043 15.1749 8.49505 14.6535 8.69967C13.9934 8.9571 13.4389 9.08251 12.9901 9.08251C12.7261 9.08251 12.4686 9.0429 12.2178 8.9571C11.967 8.87129 11.7294 8.74588 11.5115 8.56766C11.4917 8.51485 11.505 8.43565 11.538 8.33004C11.571 8.22443 11.5842 8.15182 11.5644 8.10561C11.4851 8.15842 11.4257 8.22443 11.3927 8.31023C11.3597 8.39604 11.3135 8.49505 11.2607 8.62047C11.1815 8.77888 11.0693 8.89109 10.9307 8.9571C10.7921 9.0231 10.6271 9.05611 10.4422 9.05611C10.3432 9.05611 10.264 9.05611 10.198 9.03631C10.132 9.0231 10.066 8.9835 10 8.9241C9.93399 8.86469 9.87459 8.78548 9.82178 8.68647C9.85479 8.52806 9.87459 8.42244 9.87459 8.36304C9.87459 8.30363 9.86139 8.27723 9.83498 8.27723C9.59736 8.50825 9.36634 8.73268 9.13531 8.9637C8.89769 9.17492 8.68647 9.28053 8.50165 9.28053C8.38944 9.28053 8.28383 9.24752 8.19802 9.18812C8.09241 9.15512 7.9868 9.07591 7.88779 8.9571C7.78878 8.83828 7.71617 8.72608 7.68317 8.62047C7.59736 8.46865 7.48515 8.34984 7.34653 8.26403C7.20792 8.17822 7.06931 8.13201 6.91749 8.13201C6.40924 8.17822 5.90759 8.34983 5.41254 8.64686C5.06931 8.85809 4.64686 9.20132 4.14521 9.67657C3.87459 9.934 3.46535 10.3234 2.93069 10.8515C2.44884 11.3003 2.0264 11.637 1.66337 11.8548C1.55116 11.8878 1.41254 11.9076 1.25413 11.9076C1.09571 11.9076 0.943895 11.8812 0.805281 11.8218C0.666667 11.7624 0.547855 11.6832 0.462046 11.5776C0.330033 11.3465 0.264027 11.1023 0.264027 10.8383C0.264027 10.6271 0.316832 10.3894 0.415842 10.1188C0.514852 9.84819 0.706271 9.50495 0.976898 9.08251C0.686469 9.44555 0.468647 9.76898 0.316832 10.0594C0.105611 10.462 0 10.8515 0 11.2211C0 11.4059 0.0264026 11.5974 0.0792078 11.802C0.151815 11.9934 0.283828 12.1716 0.488449 12.3234C0.693069 12.4752 0.89769 12.5743 1.10891 12.6205C1.47855 12.5479 1.83498 12.4092 2.17162 12.1914C2.50825 11.9736 2.9901 11.5512 3.61716 10.9175C4.14522 10.3696 4.53465 10 4.77888 9.80858C5.22112 9.45875 5.66337 9.23433 6.11221 9.13532C6.24422 9.07591 6.36964 9.04291 6.49505 9.04291C6.70627 9.04291 6.95049 9.21452 7.22112 9.55776C7.49175 9.90099 7.72937 10.1056 7.92079 10.165C8.0198 10.1914 8.09901 10.2046 8.17162 10.2046C8.40924 10.2046 8.64026 10.0924 8.87129 9.87459C9.0495 9.68317 9.22112 9.48515 9.39934 9.28053C9.41914 9.44555 9.45215 9.58416 9.50495 9.68317C9.55776 9.78218 9.64356 9.86799 9.76898 9.9406C9.88119 9.9736 10.0132 9.9934 10.1518 9.9934C10.1848 9.9934 10.2442 9.9934 10.3234 9.9868C10.4026 9.9868 10.4752 9.9736 10.5347 9.967C10.7393 9.93399 10.8977 9.80198 11.0099 9.57096C11.0693 9.44555 11.1617 9.25413 11.2871 8.9901C11.5248 9.28713 11.7426 9.51155 11.934 9.65017C12.2178 9.85479 12.5083 9.9538 12.8185 9.9538H12.8977C12.9307 9.9538 12.9703 9.9538 13.0033 9.9406C13.4455 9.86799 13.934 9.73598 14.4752 9.53796C15.0165 9.33994 15.5314 9.14852 16.0264 8.9637C16.7591 8.69307 17.5446 8.55446 18.3894 8.55446C18.6733 8.55446 18.9637 8.56766 19.2739 8.59406C19.3333 8.75248 19.3663 8.9307 19.3663 9.13532C19.3663 9.31353 19.3399 9.50495 19.2937 9.70957C19.2475 9.91419 19.1881 10.1188 19.1155 10.3102C19.3201 9.9868 19.5182 9.44555 19.7096 8.68647C19.8482 8.13862 19.9406 7.80858 19.9736 7.68317H19.8284L19.4059 2.13861L19.5116 1.9934C19.5644 2.05281 19.637 2.14522 19.736 2.26403C19.835 2.38284 19.9208 2.46205 20 2.50825H19.9934ZM5.61716 1.08251C5.61056 1.16832 5.59076 1.24753 5.57096 1.30693C5.55116 1.36634 5.50495 1.40594 5.44555 1.42575C5.38614 1.27393 5.26073 1.18152 5.07591 1.13531C5.0495 1.24092 5.0165 1.52475 4.9835 1.9802C4.9505 2.43564 4.84488 2.74588 4.67987 2.90429C4.54785 2.66007 4.42244 2.40924 4.29703 2.16502C4.11881 1.89439 3.88779 1.76898 3.59736 1.79538C3.56436 1.73597 3.54455 1.66997 3.54455 1.59736C3.54455 1.51815 3.56436 1.43895 3.59736 1.35314C3.63036 1.26733 3.68317 1.18152 3.74257 1.08251C4 1.15512 4.21122 1.34654 4.38944 1.66337C4.52145 1.934 4.65347 2.21122 4.78548 2.48185C4.79208 2.44885 4.81848 2.19802 4.85148 1.72937C4.88449 1.26073 4.9769 0.943897 5.12871 0.765679C5.35974 0.811884 5.51815 0.917491 5.61716 1.08251ZM7.65016 5.34653C7.61716 5.47195 7.58416 5.59076 7.55776 5.70297C7.50495 5.86139 7.41914 5.9604 7.30693 5.9934C7.22772 6 7.16172 5.9736 7.10891 5.91419C7.05611 5.85479 7.0165 5.80198 6.9901 5.76898C6.9901 5.37954 7.06271 4.93069 7.21452 4.40924C7.29373 4.15182 7.37294 3.89439 7.45215 3.63036C7.47195 3.79538 7.42574 4.05941 7.32013 4.40924C7.21452 4.75908 7.16172 4.9967 7.16172 5.12211C7.16172 5.24753 7.18152 5.34654 7.22112 5.42574C7.26073 5.50495 7.33993 5.57756 7.45215 5.65017C7.48515 5.57096 7.51815 5.50495 7.54455 5.45215C7.57096 5.39934 7.60396 5.36634 7.65016 5.34653ZM5.39274 3.48515C5.32013 3.67657 5.07591 3.80198 4.65347 3.84819C4.23102 3.89439 3.94719 4.0132 3.80858 4.19802C3.9604 4.80528 4.11221 5.41254 4.27063 6.0198C4.31683 6.28383 4.33663 6.52805 4.33663 6.74588C4.33663 6.9505 4.31683 7.14191 4.28383 7.32673C4.25083 7.51155 4.18482 7.69637 4.09901 7.88119C4.13201 7.76898 4.15842 7.66337 4.16502 7.56436C4.17162 7.46535 4.17822 7.34653 4.17822 7.20792C4.17822 7.0165 4.16502 6.81848 4.13201 6.62706C4.09901 6.43564 4.05281 6.22442 3.9934 6.0066C3.89439 5.63696 3.82838 5.33333 3.78218 5.09571C3.70957 4.73267 3.67657 4.42904 3.67657 4.17162C3.73597 3.93399 3.94059 3.75578 4.28383 3.63036C4.44885 3.57756 4.62046 3.51815 4.78548 3.45874C4.71287 3.42574 4.64686 3.38614 4.57426 3.35314C4.50165 3.32013 4.42904 3.30033 4.34983 3.30033C4.29703 3.30033 4.24422 3.31353 4.19142 3.33994C4.17162 3.36634 4.15182 3.39274 4.11881 3.41254C4.08581 3.43234 4.0462 3.45875 3.9934 3.48515C3.9934 3.38614 4.0264 3.28713 4.09901 3.18812C4.17162 3.08911 4.23762 3.02971 4.31023 3.0099C4.38284 2.9901 4.44884 2.9835 4.52145 2.9835C4.67327 2.9835 4.82508 3.0429 4.9835 3.15511C5.11551 3.26733 5.25413 3.37954 5.39274 3.48515ZM11.2805 10.7063C11.2805 10.9769 11.1551 11.1947 10.8977 11.3531C10.8713 11.3465 10.8251 11.3399 10.7657 11.3399C10.7063 11.3399 10.5479 11.3993 10.3036 11.5116C10.1914 11.5644 10.099 11.5908 10.0264 11.5908C9.967 11.5908 9.92739 11.5908 9.90759 11.5776C9.83498 11.5446 9.76898 11.4654 9.69637 11.3531C9.50495 11.3861 9.30033 11.4587 9.08911 11.5644C9.0363 11.5908 8.72607 11.7822 8.15181 12.1452C7.88119 12.33 7.65677 12.462 7.47855 12.5413C7.22112 12.6535 6.9703 12.7129 6.71287 12.7129C6.63366 12.7063 6.57426 12.6997 6.54125 12.6997C6.80528 12.6271 7.06931 12.5281 7.33333 12.396C7.51815 12.297 7.76238 12.1518 8.06601 11.9538C8.36964 11.7558 8.64026 11.5908 8.87129 11.4521C9.10231 11.3135 9.35974 11.1881 9.64356 11.0627C9.67657 11.0429 9.72277 11.0363 9.77558 11.0363C9.84819 11.0363 9.94719 11.0957 10.0792 11.2079C10.1518 11.2673 10.2112 11.3003 10.264 11.3003C10.3234 11.3003 10.3894 11.2673 10.462 11.2079C10.5083 11.1221 10.5479 11.0429 10.5875 10.9769C10.6271 10.9109 10.6799 10.8581 10.7393 10.8251L10.7657 11.0627C10.8713 11.1155 10.9703 11.0957 11.0561 10.9967C11.1287 10.8977 11.2013 10.8053 11.2805 10.7063ZM2.0264 7.53795C1.967 7.80198 1.90759 8.06601 1.85479 8.33004C1.76898 8.62707 1.63036 8.86469 1.44554 9.0297C1.33993 9.04951 1.24092 9.04291 1.14191 9.0099C1.0429 8.9769 0.950495 8.9175 0.851485 8.83169C0.712871 8.51486 0.640264 8.17822 0.640264 7.81519C0.640264 7.37294 0.739274 6.90429 0.943895 6.40264C1.04951 6.13202 1.26733 5.70957 1.59076 5.14852C1.46535 5.46535 1.33993 5.80198 1.20792 6.15842C1.07591 6.51485 1.0099 6.83829 1.0099 7.12872C1.0099 7.35974 1.05611 7.58416 1.14191 7.81519C1.24753 7.9274 1.32013 8 1.35974 8.02641C1.39934 8.05281 1.45215 8.06601 1.52475 8.06601C1.57096 8.06601 1.61716 8.04621 1.66997 8.0066C1.72277 7.967 1.78878 7.88779 1.86139 7.76238C1.93399 7.63697 1.9934 7.56436 2.0264 7.53795Z" fill="white"/>
</svg>
