<svg width="20" height="11" viewBox="0 0 20 11" fill="none" xmlns="http://www.w3.org/2000/svg">
<path fill-rule="evenodd" clip-rule="evenodd" d="M20 2.2183C19.9383 2.16979 19.8721 2.09923 19.806 2.01102C19.7398 1.92282 19.6781 1.83462 19.6207 1.75083L19.559 1.90077L19.9824 6.16538C19.9824 6.60198 19.9471 7.02095 19.8765 7.42668C19.806 7.828 19.6913 8.19405 19.5369 8.51599C19.581 8.15435 19.6075 7.83242 19.6251 7.54135C19.6428 7.25028 19.6516 6.94157 19.6516 6.61081L19.1003 1.39361C19.043 1.33186 19.0165 1.25248 19.0165 1.15987C19.0165 1.06726 19.0606 0.952589 19.1533 0.811465C19.2723 0.621829 19.3385 0.507163 19.3561 0.471882C19.6957 0.979048 19.9118 1.56119 20 2.2183ZM15.387 0.502756C15.409 0.657111 15.3605 0.785006 15.2503 0.882029C15.3429 0.961411 15.387 1.03197 15.387 1.09371C15.387 1.13782 15.3694 1.1731 15.3341 1.20838C15.2415 1.1731 15.1444 1.19956 15.0386 1.29217C14.871 1.45534 14.7034 1.61411 14.5402 1.76847C14.3638 1.88313 14.1477 2.01102 13.8964 2.16097C13.8258 2.20507 13.6891 2.27563 13.4818 2.38147C13.9978 1.96692 14.5138 1.54355 15.0254 1.12017C15.0121 1.09812 14.9504 1.04961 14.8401 0.979052C14.7299 0.90408 14.6637 0.829106 14.6329 0.749723C14.6417 0.635059 14.6946 0.533627 14.7916 0.441014C14.8534 0.379272 14.9592 0.313117 15.1003 0.251375C15.1709 0.238144 15.2282 0.255787 15.2767 0.308709C15.3208 0.36163 15.3605 0.423372 15.387 0.493934V0.502756ZM16.1808 3.17089C16.194 3.28556 16.1852 3.39581 16.1544 3.50606C16.1235 3.61632 16.0662 3.70011 15.978 3.76626C15.8368 3.76626 15.753 3.71775 15.731 3.62514C15.7045 3.52812 15.6957 3.42227 15.6957 3.3032C15.6957 3.17531 15.7178 3.043 15.7574 2.90188C15.7971 2.76075 15.8501 2.62845 15.9074 2.50937C15.9162 2.5667 15.903 2.67255 15.8721 2.8269C15.8412 2.98126 15.8236 3.0871 15.8236 3.14443C15.8236 3.31202 15.8942 3.42668 16.0353 3.48401C16.0573 3.41345 16.0794 3.35171 16.097 3.3032C16.1191 3.25469 16.1455 3.21058 16.1808 3.1753V3.17089ZM15.2062 2.68578C15.1444 2.59316 15.0562 2.51819 14.9416 2.45204C14.8357 2.40794 14.7343 2.36384 14.6329 2.31533C14.527 2.39912 14.4344 2.50055 14.3506 2.62403C14.2712 2.74311 14.2227 2.85777 14.2095 2.96362C14.28 2.98567 14.3771 3.03418 14.505 3.11356C14.5623 3.14884 14.6549 3.21058 14.7784 3.29438C14.8357 3.22382 14.8975 3.14002 14.968 3.04741C15.0386 2.95039 15.118 2.83572 15.2018 2.6946L15.2062 2.68578ZM12.9614 1.77729C12.9261 1.95369 12.9041 2.0463 12.8997 2.05071C12.8644 2.14774 12.7982 2.22271 12.6968 2.27122C12.5998 2.31532 12.5072 2.2624 12.4234 2.12128C12.4234 1.92282 12.4498 1.72877 12.5028 1.53473C12.5557 1.34068 12.6262 1.14222 12.7189 0.934948C12.7189 1.01874 12.6924 1.15104 12.6395 1.32745C12.5865 1.50386 12.5601 1.63175 12.5601 1.70672C12.5601 1.82139 12.5865 1.91841 12.6439 2.0022C12.7233 2.01543 12.7894 1.98456 12.8467 1.90077C12.9041 1.82139 12.9438 1.77729 12.9614 1.76847V1.77729ZM12.8776 0C12.2558 0.189636 11.6604 0.392505 11.0959 0.608602C10.527 0.824699 9.98456 1.06726 9.45976 1.33187C9.41125 1.38038 9.37155 1.4333 9.34509 1.49063C9.31863 1.54796 9.31422 1.60088 9.33627 1.6494C9.60529 1.44653 9.98015 1.24807 10.4697 1.05843C11.2547 0.754132 11.6516 0.599778 11.6648 0.590958C11.7266 0.555676 11.9515 0.480704 12.3308 0.37045C12.6042 0.291068 12.7894 0.167585 12.882 0H12.8776ZM13.6097 4.13672C13.548 4.50276 13.3539 4.72767 13.0364 4.81588C12.9791 4.80706 12.9217 4.79823 12.86 4.78059C12.7982 4.76295 12.763 4.72767 12.7497 4.67034C12.7497 4.4807 12.7894 4.29107 12.8644 4.09702C12.9129 3.97795 13.0055 3.81037 13.1378 3.59868C13.0584 3.83242 12.9879 4.06615 12.9173 4.29548C12.9173 4.39251 12.957 4.4807 13.032 4.55126C13.1863 4.55126 13.3186 4.48953 13.4245 4.36163C13.4157 4.3043 13.3627 4.23374 13.2613 4.14995C13.1599 4.06615 13.1069 4 13.1069 3.94708C13.1069 3.90298 13.151 3.85005 13.2348 3.78831C13.3275 3.83241 13.4024 3.87652 13.4642 3.92944C13.5259 3.98236 13.57 4.05292 13.6053 4.13672H13.6097ZM11.6428 2.55788C11.5987 2.59317 11.5369 2.6946 11.4531 2.86659C11.3693 3.03418 11.2856 3.12238 11.2106 3.12238C11.1841 3.12238 11.1488 3.11356 11.1047 3.09151L10.5226 2.75193C10.4653 2.79603 10.4079 2.87982 10.3462 3.00771C10.2845 3.13561 10.2271 3.22381 10.1698 3.27233C9.99339 3.20176 9.88754 3.15766 9.85226 3.14443C9.60529 3.02977 9.49504 2.91069 9.52591 2.7828C9.64498 2.61521 9.76406 2.44322 9.88754 2.27564C9.99338 2.31092 10.1036 2.36384 10.2139 2.4344C10.3286 2.50496 10.4388 2.57552 10.5535 2.64609L11.0209 2.11687L11.6472 2.56229L11.6428 2.55788ZM17.6979 4.77177C17.6891 4.72326 17.57 4.14112 17.3363 3.02536C17.2569 2.65932 17.1996 2.31973 17.1555 2.01102L17.2701 1.79934C17.2701 1.79934 17.3627 1.89636 17.5039 2.0419C17.5391 2.086 17.5832 2.12128 17.6318 2.15656C17.4068 1.5656 17.1819 0.970232 16.9658 0.379273C16.8864 0.476296 16.8115 0.58214 16.7321 0.696803C16.6527 0.811467 16.6174 0.917311 16.6174 1.01433C16.6174 1.07608 16.6395 1.14223 16.6792 1.20397C16.6792 1.72436 16.7541 2.32856 16.8997 3.01213C17.0496 3.6957 17.1951 4.37045 17.3407 5.03197C17.4862 5.6935 17.5568 6.30209 17.5568 6.85336C17.3804 7.05623 17.1599 7.23264 16.8909 7.37376C16.688 7.4796 16.4322 7.57662 16.1279 7.66042C16.0838 7.66924 16.0265 7.66924 15.9471 7.66924C15.7707 7.66924 15.6163 7.64277 15.4796 7.58985C15.3473 7.53693 15.2282 7.45314 15.1312 7.34289C15.3561 7.25909 15.5369 7.09592 15.6692 6.85777C15.753 6.70342 15.8324 6.4785 15.903 6.19184C15.9471 6.08599 15.9647 5.98015 15.9647 5.87431C15.9647 5.71113 15.9206 5.54355 15.828 5.36714C15.7663 5.25248 15.6648 5.10254 15.5325 4.9129C15.4531 4.83352 15.3958 4.78059 15.3517 4.75413C15.2723 4.70562 15.2018 4.67916 15.1312 4.67916C15.0739 4.67916 15.0342 4.68798 15.0033 4.70121C14.7652 4.93495 14.5755 5.20397 14.4388 5.51268C14.3021 5.82139 14.2315 6.13892 14.2315 6.46968C14.2315 6.65491 14.2536 6.83572 14.2933 7.02095C13.7993 7.2194 13.3848 7.40022 13.0452 7.57222C12.5865 7.80595 12.194 8.0441 11.8721 8.29107C11.7795 8.35281 11.4399 8.67475 10.8578 9.25248C10.4564 9.6538 10.0816 9.88313 9.7376 9.94046C9.51268 9.91841 9.33186 9.83462 9.19956 9.68467C9.16428 9.58765 9.14664 9.47299 9.14664 9.34509C9.14664 9.15987 9.19074 8.96582 9.27453 8.75414C9.29658 8.69681 9.38038 8.51599 9.53032 8.2161C9.86108 8.2161 10.2271 8.07938 10.6329 7.80154C10.8313 7.66042 11.0298 7.51929 11.2238 7.37817C11.2459 7.29437 11.3297 7.05182 11.4796 6.64608C11.5943 6.34178 11.6472 6.09482 11.6472 5.90518C11.6472 5.82139 11.6384 5.72878 11.6163 5.63175C11.5943 5.53473 11.559 5.44653 11.5105 5.36714C11.3605 5.09371 11.2106 4.88203 11.0562 4.73208C10.8357 4.52039 10.6064 4.42337 10.3594 4.44543C10.1257 4.51599 9.93605 4.68357 9.78611 4.95259C9.68026 5.18633 9.57442 5.42006 9.46858 5.64939C9.46858 5.67144 9.46858 5.70231 9.45976 5.74642C9.45094 5.79052 9.45094 5.8258 9.45094 5.85226C9.45094 6.20507 9.72878 6.39912 10.28 6.42999C10.8357 6.46086 11.1621 6.55347 11.2679 6.71224C10.8666 6.98126 10.6108 7.14443 10.505 7.19735C10.2007 7.36053 9.92282 7.43991 9.66703 7.43991C9.49063 7.43991 9.32304 7.40463 9.15987 7.33407C8.97023 7.20177 8.83352 7.02095 8.74531 6.79603C8.71003 6.71224 8.66152 6.50496 8.59537 6.16979C8.59537 5.14664 8.56009 4.16317 8.49394 3.21499C8.42778 2.27122 8.31753 1.36714 8.15877 0.507164H8.08379C7.99118 0.69239 7.93385 0.807057 7.91621 0.855569C7.87211 0.952592 7.83682 1.07166 7.80154 1.20397C7.90739 1.62734 7.98677 2.09041 8.03528 2.58875C8.08379 3.09151 8.13231 3.58544 8.18523 4.07056C8.23374 4.31753 8.2602 4.5204 8.26461 4.67475C8.26461 4.82911 8.26902 4.97023 8.26902 5.09812V5.67144C8.26902 6.37707 8.31753 6.89746 8.41896 7.22822C8.51599 7.55899 8.66593 7.83682 8.86439 8.05292C9.04079 8.07938 9.16428 8.12348 9.23043 8.1764C9.29658 8.22932 9.33186 8.3043 9.33186 8.40573C9.33186 8.49834 9.2613 8.68357 9.12459 8.96582C8.98787 9.24807 8.91731 9.46416 8.91731 9.6097C8.91731 9.69349 8.93054 9.76846 8.96141 9.83021C8.98346 9.914 9.02756 9.99779 9.09813 10.086C9.12018 10.108 9.24366 10.2139 9.46858 10.4035C9.52591 10.4476 9.60088 10.4653 9.68909 10.4653C9.77288 10.4653 9.85667 10.4476 9.93605 10.4168C10.0154 10.3859 10.0816 10.3594 10.1301 10.3374C10.6681 9.8699 11.1268 9.49504 11.5061 9.20397C12.0441 8.79382 12.5204 8.47629 12.9438 8.25137C13.4598 7.97795 13.9846 7.77067 14.5226 7.63836C14.6637 7.83682 14.8049 7.99559 14.946 8.11466C15.1224 8.26902 15.3076 8.37045 15.4972 8.41014C15.6119 8.42337 15.7001 8.43219 15.7619 8.43219C16.1058 8.43219 16.4234 8.35722 16.7144 8.20287C17.0055 8.05292 17.2878 7.83682 17.5612 7.56339C17.7288 7.08269 17.817 6.57111 17.817 6.02867C17.817 5.81698 17.8082 5.62734 17.7905 5.46417C17.7729 5.29658 17.742 5.06725 17.7023 4.77177H17.6979ZM14.2271 9.05843C14.2271 9.15545 14.2095 9.25248 14.1742 9.3495C14.1389 9.44653 14.0772 9.53032 13.9934 9.6097C13.9361 9.60088 13.892 9.5656 13.8567 9.50386C13.8302 9.42448 13.8082 9.37156 13.7949 9.34509C13.7949 9.17751 13.8346 8.99669 13.9096 8.80706C13.9537 8.70121 13.9978 8.59978 14.0463 8.49835C14.0463 8.53363 14.0287 8.62183 13.989 8.76737C13.9493 8.9129 13.9316 9.00551 13.9316 9.04962C13.9316 9.16428 13.9669 9.25248 14.0375 9.32304C14.086 9.30981 14.1257 9.26571 14.1477 9.19515C14.1742 9.12459 14.2007 9.08048 14.2271 9.05843ZM9.3495 4.41014C9.29217 4.59537 9.25248 4.72767 9.23484 4.81147C9.18633 4.97464 9.11136 5.08489 9.01433 5.13781C9.15546 4.93495 9.22602 4.68798 9.22602 4.39691C9.22602 4.28225 9.20838 4.17199 9.1731 4.05733C9.13782 3.94267 9.11136 3.86769 9.08931 3.82359C9.04079 3.73098 9.01433 3.66042 9.01433 3.61191C9.01433 3.55017 9.04961 3.48842 9.12018 3.43109C9.20397 3.51488 9.26571 3.62073 9.3054 3.74862C9.34509 3.87652 9.36273 4.02205 9.36273 4.18081C9.36273 4.27784 9.36273 4.35281 9.35391 4.40132L9.3495 4.41014ZM5.56119 2.90628C5.54796 2.9989 5.53473 3.09151 5.51709 3.17971C5.49063 3.27673 5.42889 3.3473 5.33627 3.3914C5.28776 3.40022 5.23925 3.38258 5.19956 3.34289C5.15546 3.3032 5.12018 3.25468 5.09372 3.18853C5.09372 2.9989 5.14223 2.80485 5.24366 2.6064C5.27894 2.52701 5.38479 2.36384 5.56119 2.10805C5.56119 2.16538 5.48622 2.31532 5.34068 2.56229C5.2613 2.69019 5.22602 2.78721 5.22602 2.85777C5.22602 2.95479 5.28776 3.03859 5.41566 3.10033C5.43771 3.043 5.45976 2.9989 5.4774 2.96362C5.49945 2.92834 5.52591 2.90629 5.56119 2.90188V2.90628ZM4.54686 0.820287C4.56009 0.890849 4.56891 0.930538 4.56891 0.934948C4.56891 1.01433 4.52481 1.04962 4.44101 1.04962C4.36163 1.0408 4.30871 1.04079 4.27343 1.04079C4.15877 1.04079 4.09261 1.12018 4.07056 1.27453C4.04851 1.42889 4.02646 1.58765 4.00882 1.75083C3.98677 1.914 3.94708 2.05072 3.88093 2.16538C3.84565 2.12128 3.76185 1.94928 3.62514 1.64498C3.52811 1.42447 3.40463 1.31864 3.25469 1.31864C3.21058 1.31864 3.1753 1.31863 3.14884 1.32745C3.12679 1.29217 3.11797 1.25248 3.11797 1.21279C3.11797 1.1731 3.12679 1.12018 3.14884 1.06285C3.17089 1.00551 3.18412 0.965819 3.19294 0.934948L3.32966 0.820287C3.44432 0.92613 3.54135 1.04962 3.62514 1.18633C3.70893 1.32304 3.7839 1.4774 3.84565 1.64498C3.90739 1.40683 3.96031 1.22161 3.99559 1.09371C4.06615 0.859976 4.172 0.745315 4.31312 0.745315C4.37486 0.745315 4.45425 0.771775 4.54686 0.820287ZM4.10143 3.52811C4.10143 3.52811 4.03087 3.66042 3.96031 3.86328C3.88534 4.06615 3.80154 4.16318 3.70011 4.16318L3.61632 4.14112C3.61632 4.14112 3.50165 4.07056 3.32084 3.97354C3.19294 3.90297 3.13561 3.82359 3.15325 3.7398C3.17971 3.69129 3.23263 3.59868 3.30761 3.45755C3.38258 3.32084 3.44873 3.22381 3.50165 3.16648C3.6075 3.22381 3.71334 3.27674 3.81918 3.32966C3.92503 3.38258 4.02205 3.44873 4.10584 3.52371L4.10143 3.52811ZM7.49724 9.02315C7.51047 9.10253 7.50606 9.18192 7.47519 9.27012C7.44873 9.35833 7.39581 9.43329 7.32525 9.49945C7.26351 9.50827 7.21058 9.48622 7.16648 9.44212C7.12238 9.39802 7.09151 9.34068 7.06946 9.27894C7.06946 9.0893 7.09592 8.92172 7.14443 8.77618C7.19294 8.63065 7.27674 8.45865 7.38699 8.25137C7.31643 8.47188 7.25028 8.69239 7.18412 8.91731C7.18412 9.00992 7.19294 9.07166 7.21058 9.10694C7.22822 9.14222 7.26351 9.18633 7.32084 9.23484C7.35612 9.22602 7.3914 9.19514 7.42227 9.1334C7.45314 9.07166 7.47519 9.03638 7.49283 9.02315H7.49724ZM1.61411 2.27122C1.5656 2.36824 1.44653 2.59758 1.25248 2.95039C0.970231 3.46637 0.829107 3.87652 0.829107 4.18964C0.829107 4.33958 0.846747 4.47188 0.886439 4.58655C0.92613 4.70121 0.996692 4.82469 1.10254 4.95259C1.18633 4.93936 1.26571 4.8688 1.33627 4.74531C1.40684 4.62183 1.45976 4.55127 1.49504 4.52922C1.43771 4.77619 1.38037 5.02315 1.32745 5.27012C1.23043 5.56119 1.05843 5.70231 0.820287 5.70231C0.705623 5.56119 0.62183 5.40684 0.564498 5.24366C0.507166 5.07607 0.480705 4.90849 0.480705 4.7409C0.480705 4.43219 0.573319 4.07056 0.754135 3.66042C0.824697 3.49724 0.996692 3.17089 1.27453 2.67695C1.34509 2.57111 1.39361 2.49173 1.42448 2.44322C1.48181 2.35942 1.54355 2.3021 1.61411 2.27564V2.27122ZM7.02095 6.76075C7.02095 6.58434 6.95039 6.32415 6.81367 5.97575C6.67696 5.63175 6.6064 5.36715 6.6064 5.19074C6.66373 5.16869 6.72988 5.18192 6.80926 5.23484C6.88864 5.28335 6.95039 5.30981 6.9989 5.30981C6.9989 5.12458 6.91951 4.9129 6.75634 4.66593C6.70783 4.58655 6.55347 4.39251 6.30209 4.07497C6.29327 4.10144 6.24035 4.20728 6.13451 4.38368C6.06395 4.50276 6.02867 4.60419 6.02867 4.69239C6.02867 4.75413 6.05072 4.82028 6.09041 4.88203C6.28886 5.68026 6.48732 6.47409 6.6946 7.26351C6.39912 7.54576 6.05072 7.80595 5.65821 8.04851C5.43771 8.18082 5.06726 8.37486 4.54686 8.63065C4.172 8.79823 3.81477 8.93054 3.47078 9.01874C3.12679 9.10694 2.77398 9.15105 2.40794 9.15105C2.06395 9.15105 1.7376 9.09371 1.4333 8.98346C1.129 8.8688 0.864388 8.69239 0.639471 8.45424C0.511577 8.3043 0.427784 8.15876 0.379272 8.01323C0.335171 7.86769 0.30871 7.6957 0.30871 7.50165C0.423374 6.9151 0.538037 6.32856 0.657111 5.73319C0.551268 6.01544 0.449835 6.29327 0.348401 6.57111C0.220507 6.9151 0.127894 7.19735 0.0749721 7.41786C0.0485112 7.5678 0.0264608 7.68688 0.0176406 7.77949C0.00882027 7.87211 0 7.96031 0 8.0441C0 8.32635 0.0529215 8.59096 0.154355 8.83352C0.255788 9.07607 0.423374 9.28335 0.657111 9.45976C0.890849 9.63175 1.13782 9.75965 1.40243 9.83903C1.66703 9.91841 1.94928 9.96251 2.25358 9.96251C2.45204 9.96251 2.6505 9.94487 2.85777 9.90959C3.06064 9.87431 3.26351 9.83021 3.46196 9.77288C3.88534 9.6538 4.34399 9.46417 4.83793 9.19956C5.23925 8.98787 5.64939 8.7365 6.06395 8.44984C6.36825 8.28666 6.59757 8.0441 6.75193 7.71775C6.86659 7.48401 6.9548 7.17089 7.01654 6.77398L7.02095 6.76075ZM3.49724 6.61081C3.45314 6.61963 3.40022 6.61521 3.32966 6.60639C3.2591 6.59757 3.21499 6.58876 3.19294 6.58876C3.12238 6.68137 3.06064 6.84454 3.01213 7.08269C2.96362 7.32084 2.90628 7.4796 2.84454 7.56339C2.82249 7.52811 2.76075 7.38258 2.65491 7.1312C2.57552 6.94597 2.49614 6.80485 2.41235 6.70782C2.3903 6.74311 2.37266 6.77398 2.35502 6.79603C2.33738 6.82249 2.31533 6.83131 2.28445 6.83131C2.17861 6.83131 2.12569 6.77398 2.12569 6.66373C2.12569 6.61963 2.13451 6.58435 2.15656 6.54907C2.16979 6.49173 2.18743 6.43881 2.20507 6.38589C2.22271 6.33296 2.25799 6.29327 2.3065 6.2624C2.44763 6.33296 2.5667 6.46527 2.66814 6.6549C2.76516 6.88864 2.83572 7.05623 2.87982 7.16208C2.9151 7.10033 2.95921 6.96803 3.00772 6.76957C3.0871 6.46086 3.22381 6.30209 3.42227 6.30209C3.51488 6.30209 3.55899 6.33296 3.55899 6.39912C3.53252 6.49614 3.51488 6.56671 3.50606 6.61081H3.49724ZM15.1929 0.798235V0.736493C15.1577 0.617419 15.0959 0.555676 15.0121 0.555676C14.9768 0.555676 14.9504 0.582138 14.9283 0.639469C14.9857 0.687981 15.0342 0.727672 15.0783 0.762953C15.1224 0.793824 15.1577 0.807055 15.1929 0.798235ZM15.5413 6.41676C15.4223 6.49614 15.2944 6.57553 15.1665 6.65932C15.0342 6.74311 14.9107 6.80044 14.7916 6.8269C14.6417 6.55347 14.5711 6.2624 14.5711 5.9581C14.5711 5.83903 14.5888 5.70672 14.624 5.5656C14.6858 5.48181 14.7696 5.43771 14.8666 5.43771C14.9372 5.43771 14.9945 5.45535 15.0342 5.49063C15.1885 5.62293 15.312 5.76846 15.4046 5.92282C15.4972 6.07717 15.5413 6.24035 15.5413 6.40794V6.41676ZM10.8225 5.63175C10.7387 5.64057 10.6593 5.64498 10.5888 5.64939C10.5182 5.64939 10.4564 5.6538 10.4079 5.6538C10.3109 5.6538 10.2271 5.64498 10.161 5.62734C10.0948 5.6097 10.0331 5.57883 9.97574 5.53914C9.93164 5.4774 9.90077 5.42448 9.87872 5.3892C9.85667 5.35391 9.86108 5.31422 9.88754 5.27453C9.94487 5.21279 10.0287 5.17751 10.1433 5.17751C10.2271 5.17751 10.3065 5.19515 10.3771 5.23043C10.4829 5.30099 10.5711 5.36715 10.6417 5.42448C10.7122 5.48622 10.774 5.55237 10.8225 5.63175Z" fill="white"/>
</svg>
