<svg width="20" height="11" viewBox="0 0 20 11" fill="none" xmlns="http://www.w3.org/2000/svg">
<path fill-rule="evenodd" clip-rule="evenodd" d="M19.9958 2.27215C19.9534 2.20432 19.8983 2.12802 19.822 2.04324C19.7457 1.95846 19.6778 1.87367 19.61 1.79313L19.5167 1.97541C19.5167 2.40356 19.5337 2.86138 19.5676 3.34888C19.6015 3.83637 19.6354 4.3493 19.6736 4.8919C19.7117 5.43027 19.7287 5.86689 19.7287 6.19754C19.7287 6.57058 19.6863 7.00297 19.6058 7.49046C19.504 8.11361 19.3684 8.50784 19.1988 8.66893C19.2751 8.43154 19.326 8.16872 19.3557 7.87622C19.3853 7.58372 19.4023 7.28275 19.4023 6.96905C19.4023 6.82492 19.4023 6.61721 19.3938 6.33743C19.3853 6.05765 19.3853 5.85418 19.3853 5.71853L19.0504 0.979229C19.0038 0.924121 18.9784 0.860533 18.9784 0.78423C18.9784 0.695209 19.0208 0.589233 19.1013 0.457822C19.2242 0.267063 19.2878 0.161085 19.2963 0.144129C19.4532 0.529886 19.5888 0.890208 19.7033 1.22934C19.8177 1.56422 19.9152 1.91183 20 2.27215H19.9958ZM16.3247 3.92963C16.312 4.01017 16.2993 4.09072 16.295 4.1755C16.2738 4.26876 16.2442 4.34506 16.2018 4.40017C16.134 4.4256 16.0704 4.41713 16.0153 4.37473C15.9559 4.33234 15.9135 4.273 15.8881 4.19669C15.8796 4.1543 15.8796 4.0992 15.8796 4.02289C15.8796 3.85333 15.922 3.67105 16.011 3.47181C16.0577 3.37007 16.1509 3.20475 16.2866 2.9716C16.2781 3.0479 16.2357 3.17931 16.1509 3.37007C16.0661 3.56083 16.0237 3.70072 16.0237 3.7855C16.0237 3.91267 16.0831 4.02713 16.206 4.12039C16.2272 4.0992 16.2399 4.06952 16.2526 4.03561C16.2611 3.99746 16.2738 3.96354 16.2866 3.92963H16.329H16.3247ZM16.3162 0.296736L16.1552 0.551081C15.9093 0.627384 15.3285 0.792709 14.4044 1.05129C13.5905 1.2802 13.0055 1.45401 12.6537 1.56846C12.0432 1.77194 11.4752 1.99237 10.9453 2.22976C11.0725 1.99237 11.3268 1.80161 11.7084 1.66172C12.1619 1.52607 12.4926 1.42009 12.6961 1.34803C13.2259 1.17847 13.9763 0.958033 14.9428 0.686731C15.6337 0.495972 16.0916 0.3688 16.3162 0.300975V0.296736ZM15.3497 2.65791L15.248 2.88258C15.2056 2.88258 15.142 2.85714 15.0487 2.80627C14.9555 2.7554 14.8792 2.73845 14.8198 2.75117C14.7054 3.06486 14.6164 3.30225 14.5613 3.46757C14.5019 3.6329 14.4298 3.76431 14.3408 3.85757C14.2857 3.79822 14.2306 3.66257 14.1797 3.45061C14.0907 3.11149 13.9212 2.95888 13.671 2.99279C13.6499 2.95888 13.6414 2.92921 13.6414 2.89953C13.6414 2.85714 13.6541 2.81051 13.6838 2.75117C13.7092 2.69182 13.7304 2.64943 13.7431 2.62399C13.7855 2.5816 13.8279 2.56465 13.8745 2.56465C13.9 2.56465 13.9339 2.57736 13.972 2.60704C14.0102 2.63247 14.0441 2.66638 14.078 2.70877C14.1585 2.80203 14.2264 2.93769 14.2815 3.10725C14.362 3.35312 14.4129 3.49724 14.4341 3.54387C14.5146 3.28529 14.5782 3.09453 14.6164 2.97584C14.6927 2.74693 14.7986 2.57736 14.9428 2.47563C15.0106 2.46715 15.0784 2.48834 15.1462 2.53073C15.2141 2.57312 15.2819 2.61551 15.3497 2.65791ZM10.5892 1.27597C10.5638 1.46672 10.479 1.62357 10.3434 1.75498C10.284 1.75498 10.2247 1.73803 10.1653 1.69987C10.106 1.66172 10.0805 1.61509 10.0805 1.5515C10.0678 1.45824 10.0593 1.38618 10.0593 1.33955C10.0593 1.2039 10.0848 1.06401 10.1399 0.92412C10.195 0.779992 10.2671 0.635863 10.3646 0.487495C10.3179 0.657059 10.2798 0.796948 10.2543 0.902925C10.2289 1.01314 10.212 1.08944 10.212 1.13607C10.212 1.2039 10.2204 1.26325 10.2374 1.30988C10.2543 1.35651 10.2883 1.40738 10.3434 1.46248C10.3985 1.4752 10.4493 1.44977 10.496 1.38618C10.5426 1.32259 10.5723 1.28444 10.5892 1.2802V1.27597ZM12.1238 3.67529C12.145 3.74311 12.1365 3.82789 12.1026 3.92539C12.0687 4.02289 12.0178 4.10767 11.95 4.1755C11.8949 4.18821 11.844 4.1755 11.7931 4.12463C11.7423 4.078 11.6956 4.01865 11.6575 3.95083C11.649 3.91691 11.649 3.8618 11.649 3.78974C11.649 3.62866 11.6787 3.45909 11.7423 3.28953C11.7677 3.2217 11.8101 3.12844 11.8652 3.01399C11.8652 3.06062 11.8525 3.1454 11.8228 3.26833C11.7974 3.39127 11.7804 3.48453 11.7804 3.55235C11.7804 3.6329 11.7974 3.70072 11.827 3.75583C11.8567 3.81094 11.9118 3.84909 11.9966 3.87876L12.128 3.67529H12.1238ZM8.97838 1.3777C8.75371 1.80585 8.50784 2.11954 8.23654 2.32302C8.01187 2.49258 7.77872 2.57736 7.53285 2.57736H7.16829C7.23612 2.53497 7.43959 2.44171 7.77872 2.29334C8.02459 2.18313 8.21535 2.07291 8.35947 1.95846C8.2323 1.95846 8.10937 1.94998 7.99491 1.93726C7.60068 1.89063 7.39296 1.8652 7.36329 1.8652C7.15981 1.8652 6.97753 1.91183 6.81221 2.00933C6.8546 1.87368 6.93938 1.72955 7.07079 1.58118C7.2022 1.43281 7.34209 1.32259 7.48198 1.25477C7.99067 1.25477 8.49089 1.29716 8.97838 1.3777ZM6.07885 1.38618C6.04493 1.58118 6.02374 1.68292 6.0195 1.6914C5.99406 1.7465 5.9432 1.79313 5.87537 1.83552C5.80755 1.84824 5.7482 1.83128 5.70157 1.78042C5.65494 1.72955 5.61679 1.6702 5.59135 1.60237C5.59135 1.36498 5.60831 1.15303 5.64646 0.966511C5.68461 0.779991 5.7482 0.559559 5.83298 0.300975C5.83298 0.377278 5.81602 0.508691 5.78211 0.69945C5.7482 0.890208 5.73124 1.03858 5.73124 1.14879C5.73124 1.22933 5.73972 1.3014 5.75244 1.36922C5.76515 1.43281 5.79483 1.4964 5.83298 1.55574C5.92624 1.58118 5.99407 1.53879 6.03646 1.42433L6.07885 1.39466V1.38618ZM8.69436 3.9593C8.66045 4.07376 8.63078 4.18822 8.6011 4.29419C8.55447 4.42137 8.47393 4.48919 8.35524 4.48919C8.24502 4.46799 8.19415 4.40441 8.19415 4.29419C8.18567 4.22637 8.18567 4.1755 8.18567 4.14159C8.18567 3.96354 8.21535 3.78974 8.27893 3.61594C8.33828 3.44214 8.41882 3.28105 8.51208 3.13268C8.46545 3.26833 8.4273 3.38279 8.40187 3.48029C8.35524 3.63713 8.3298 3.76007 8.3298 3.84485C8.3298 3.9593 8.35947 4.07376 8.42306 4.19245C8.49089 4.20517 8.54599 4.1755 8.58415 4.09495C8.62654 4.01865 8.66045 3.97202 8.69436 3.9593ZM14.5952 8.94447C14.4044 9.16066 14.1755 9.33022 13.9084 9.44892C13.6414 9.56761 13.3531 9.62696 13.0479 9.62696C12.8359 9.62696 12.6198 9.58881 12.3951 9.51674C12.3357 9.46164 12.3018 9.40229 12.3018 9.33446C12.3018 9.26664 12.3315 9.18609 12.3951 9.0886C12.4205 9.04197 12.4714 8.97838 12.5477 8.90632C12.624 8.83001 12.6706 8.77914 12.6918 8.74523C12.5774 8.7198 12.4714 8.63501 12.3781 8.49936C12.4205 8.37643 12.4968 8.26198 12.607 8.16024C12.7173 8.05426 12.8317 8.00339 12.9462 8.00339C13.0394 8.00339 13.1157 8.04154 13.1708 8.11361C13.1708 8.16871 13.1454 8.21534 13.0945 8.24926C13.0437 8.28741 12.9928 8.32132 12.9462 8.35523C12.9334 8.26197 12.8995 8.20687 12.8444 8.19415C12.7639 8.18567 12.6833 8.21958 12.6113 8.29589C12.624 8.34252 12.6579 8.38491 12.713 8.41882C12.7681 8.45273 12.8232 8.48241 12.8868 8.51208C12.9504 8.54176 12.997 8.55447 13.0309 8.55447C13.0988 8.55447 13.192 8.5248 13.3065 8.46969C13.4209 8.41034 13.5057 8.38491 13.5608 8.38491C13.5142 8.47817 13.2811 8.63078 12.8571 8.84273C12.6791 8.93175 12.5943 9.02077 12.5943 9.10555C12.5943 9.1649 12.6282 9.2412 12.6961 9.33022C12.8741 9.37262 13.0437 9.38957 13.2047 9.38957C13.4549 9.38957 13.6965 9.35142 13.9339 9.27936C14.167 9.20305 14.3917 9.09707 14.5994 8.95294L14.5952 8.94447ZM17.7914 1.95422C17.749 1.69139 17.6431 1.35651 17.465 0.958034C17.376 0.74608 17.2361 0.428147 17.0369 0L16.7317 0.568037C16.8673 1.64476 16.9903 2.66215 17.0962 3.6117C17.2064 4.56125 17.3082 5.53624 17.4014 6.54091C17.1852 6.73167 16.986 6.88427 16.8122 6.99873C16.596 7.14286 16.3798 7.24459 16.1721 7.31242C15.9813 7.38872 15.7736 7.42264 15.5405 7.42264C15.2565 7.42264 14.9809 7.36329 14.7223 7.24883C14.4595 7.13438 14.2306 6.97329 14.0271 6.76982C14.3111 6.64688 14.5443 6.5621 14.7181 6.51547C14.9809 6.43917 15.2268 6.40526 15.4515 6.40526C15.4854 6.40526 15.5278 6.40526 15.5786 6.40949C15.6295 6.40949 15.6889 6.41797 15.7567 6.42645C15.7906 6.34591 15.8372 6.23145 15.9008 6.07885C15.9644 5.92624 16.0025 5.79483 16.0237 5.6719C15.638 5.4769 15.2098 5.32429 14.7435 5.21407C14.2772 5.10386 13.8109 5.05299 13.3489 5.05299C12.8529 5.05299 12.412 5.10386 12.0263 5.2056C11.8101 5.22679 11.6872 5.36668 11.6617 5.63374C11.6363 5.89657 11.6024 6.05765 11.5685 6.11276L11.9033 6.00254C12.0729 6.05765 12.234 6.13819 12.3908 6.25265C12.5477 6.36287 12.6706 6.4858 12.7681 6.61297C12.2679 6.85884 11.7211 7.03688 11.1318 7.15133C11.1403 7.06231 11.1912 6.92666 11.2844 6.74438C11.3777 6.5621 11.4286 6.4095 11.4286 6.28656C11.4286 6.05765 11.3311 5.8457 11.1318 5.65494C11.0089 5.54048 10.8139 5.40907 10.5468 5.25646C10.2798 5.1081 10.0127 5.03179 9.74989 5.03179C9.50403 5.03179 9.24968 5.09538 8.97838 5.22679C8.76219 5.32853 8.5248 5.48114 8.26621 5.68461C8.08817 5.82026 7.81263 6.06613 7.43112 6.42645C7.10471 6.73167 6.85036 6.94786 6.66808 7.07927C6.55786 7.03688 6.46036 6.96482 6.36711 6.8546C6.27385 6.74438 6.18906 6.64264 6.10852 6.54091C6.04917 6.48156 5.96863 6.43493 5.87537 6.40526C5.78211 6.37558 5.68037 6.35863 5.57864 6.35863C5.4769 6.35863 5.3794 6.3671 5.2819 6.3883C4.95549 6.47732 4.65028 6.61297 4.36626 6.79525C4.15006 6.9309 3.87876 7.14286 3.55235 7.42688C3.36159 7.58796 3.10301 7.82535 2.78084 8.13904C2.25095 8.65621 1.90335 8.98686 1.73379 9.13523C1.50911 9.32598 1.28444 9.49555 1.06401 9.64392C0.983468 9.66511 0.902925 9.67359 0.818143 9.67359C0.614667 9.67359 0.457821 9.60153 0.351844 9.45316C0.241628 9.30903 0.190759 9.13099 0.190759 8.92751C0.190759 8.67741 0.250106 8.45273 0.373039 8.25774C0.466299 8.03306 0.568037 7.82535 0.669775 7.63883C0.771513 7.44807 0.88173 7.25731 0.996185 7.07079C1.22086 7.04536 1.41585 6.89699 1.58542 6.63417C1.73379 6.40526 1.81009 6.16363 1.81009 5.91352C1.72955 6.02374 1.649 6.12548 1.56422 6.22721C1.50487 6.28656 1.43281 6.32047 1.35227 6.32047C1.23781 6.17635 1.15727 6.04493 1.11488 5.91776C1.07249 5.79059 1.04705 5.64646 1.04705 5.48537C1.04705 5.20559 1.15303 4.83679 1.36075 4.37473C1.62357 3.79822 1.77618 3.45061 1.81009 3.32768C1.72107 3.42942 1.64476 3.53963 1.57694 3.65409C1.54303 3.71344 1.50487 3.78126 1.46672 3.85757C1.22086 4.31963 1.04281 4.69267 0.928359 4.97669C0.750318 5.42603 0.665536 5.81602 0.665536 6.14667C0.665536 6.23569 0.674014 6.34591 0.686732 6.48156C0.699449 6.61721 0.771513 6.7783 0.898686 6.96058C0.614667 7.38872 0.41543 7.72361 0.296736 7.96948C0.101738 8.37643 0 8.74947 0 9.0886C0 9.42772 0.105977 9.74989 0.313692 10.0339C0.339127 10.0424 0.389996 10.0551 0.457821 10.0763H0.661297C1.09368 10.0763 1.56846 9.83044 2.07715 9.33446C2.82323 8.60958 3.25562 8.20687 3.37007 8.1348C3.78974 7.7872 4.078 7.56677 4.23485 7.47351C4.58669 7.24883 4.90886 7.13862 5.20136 7.13862C5.39212 7.13862 5.57016 7.18101 5.73548 7.26155C5.90081 7.34209 6.01102 7.43112 6.06613 7.52014C6.12124 7.6134 6.13819 7.70666 6.117 7.79992C5.95591 8.00339 5.79483 8.20687 5.63798 8.41034C5.4557 8.65621 5.36244 8.86393 5.36244 9.04197C5.40907 8.99534 5.62527 8.75371 6.01526 8.32132C6.15091 8.16448 6.2908 8.02459 6.43069 7.89317C6.81645 8.08393 7.27851 8.17719 7.81263 8.17719C8.09241 8.17719 8.37219 8.156 8.66045 8.10937C8.94871 8.06698 9.29631 8.00763 9.70326 7.93133C9.76261 7.9398 9.85587 7.95252 9.9788 7.97372H10.2331C10.7334 7.97372 11.3777 7.81687 12.1662 7.50742C12.7003 7.29546 13.0733 7.15981 13.2768 7.09199C13.5481 7.35057 13.7728 7.54557 13.9466 7.68122C14.1925 7.87198 14.4298 8.01611 14.6672 8.11785C14.8792 8.19415 15.0911 8.22806 15.3073 8.22806C15.5362 8.22806 15.7736 8.19415 16.011 8.12209C16.2484 8.05002 16.4688 7.95676 16.6723 7.84231C17.0326 7.67274 17.2955 7.42688 17.465 7.10894C17.6346 6.79101 17.7194 6.43069 17.7194 6.03222L17.3039 1.60661L17.3633 1.48368C17.5074 1.64476 17.6515 1.80585 17.7999 1.9627L17.7914 1.95422ZM6.18482 3.24714C6.20602 3.32344 6.17635 3.39551 6.10428 3.47181C6.00254 3.45909 5.922 3.45061 5.85841 3.45061C5.80331 3.45061 5.76092 3.46333 5.727 3.49301C5.66766 3.58627 5.62103 3.75159 5.59559 3.98474C5.57016 4.21789 5.53201 4.38745 5.48538 4.48919C5.37516 4.43408 5.28614 4.31539 5.20983 4.12887C5.13353 3.94235 5.06571 3.82365 5.00636 3.76855C4.98092 3.87028 4.93006 3.89148 4.85375 3.82789C4.75201 3.7855 4.68419 3.73039 4.65028 3.65409C4.65028 3.57355 4.65875 3.49725 4.67995 3.42518C4.70114 3.35312 4.7393 3.29377 4.80288 3.24714C4.98516 3.30225 5.14201 3.46333 5.26918 3.73463C5.37092 3.95083 5.43451 4.08224 5.46418 4.12039C5.49809 3.94235 5.532 3.76855 5.56592 3.5905C5.62103 3.39551 5.71852 3.25562 5.86265 3.17507C5.9983 3.17507 6.10852 3.20051 6.18906 3.24714H6.18482ZM4.00593 0.682493C4.01441 0.707927 4.00593 0.750318 3.98898 0.801187C3.97202 0.852056 3.95507 0.898685 3.93387 0.936837C3.89996 0.936837 3.84909 0.911403 3.7855 0.860534C3.72192 0.809665 3.66681 0.792709 3.61594 0.805427C3.57355 0.907165 3.53964 1.05977 3.50572 1.26325C3.42942 1.71683 3.37855 1.98389 3.35312 2.06867C3.62442 2.17041 3.83213 2.34421 3.97202 2.58584C3.93811 2.74693 3.75583 2.84019 3.42942 2.86138C3.09877 2.88258 2.89529 2.9716 2.81475 3.13692C2.91649 3.87028 3.02247 4.60365 3.12844 5.33277C3.12844 5.51081 3.11573 5.68037 3.08605 5.84146C3.06062 6.00254 3.00975 6.16363 2.94192 6.32047C2.97584 6.19754 2.99279 6.05765 2.99279 5.90504C2.99279 5.8457 2.99279 5.7482 2.98432 5.62103C2.97584 5.49385 2.97584 5.39212 2.97584 5.32429C2.97584 5.1081 2.92073 4.77745 2.81475 4.33658C2.70454 3.89572 2.65367 3.57355 2.65367 3.37007C2.65367 3.21323 2.6791 3.09029 2.72573 2.99279C2.77236 2.89953 2.87834 2.79356 3.03942 2.6791C3.11997 2.64519 3.20899 2.61551 3.29801 2.58584C3.38703 2.55617 3.48453 2.54345 3.57779 2.54345C3.47605 2.429 3.35735 2.36965 3.2217 2.36965C3.20051 2.36965 3.17084 2.37813 3.12844 2.39084L3.03518 2.52226C3.00127 2.49682 2.98432 2.46715 2.98432 2.44171C3.00975 2.37389 3.04366 2.30182 3.07758 2.22976L3.28105 2.08563C3.12421 1.80161 2.9716 1.51759 2.82323 1.22934L2.77236 1.28868C2.70454 1.26325 2.63671 1.22933 2.57312 1.19118C2.50954 1.15303 2.45867 1.09792 2.42476 1.02162C2.42476 0.83086 2.47986 0.678254 2.58584 0.563799C2.74269 0.665537 2.88258 0.835099 3.00127 1.07249C3.19203 1.43705 3.29801 1.64053 3.32768 1.67444C3.37007 1.39466 3.40822 1.16575 3.44638 0.987707C3.48453 0.809666 3.55659 0.65282 3.66681 0.525647C3.73463 0.504452 3.79398 0.508691 3.84061 0.534126C3.88724 0.55956 3.94235 0.610427 4.0017 0.678253L4.00593 0.682493ZM14.3239 5.98135C14.2348 6.02374 14.0992 6.09156 13.9169 6.18482C13.7685 6.24417 13.6244 6.27808 13.4888 6.27808L13.1412 5.87113C13.2429 5.84994 13.3362 5.84146 13.4252 5.84146C13.5015 5.84146 13.6075 5.85418 13.7474 5.87537C13.8872 5.90081 14.078 5.93472 14.3239 5.98135ZM10.9241 6.77406C10.2713 7.08775 9.55066 7.28275 8.75795 7.36329C8.54175 7.36329 8.27469 7.36329 7.95252 7.35905C7.63459 7.35905 7.33786 7.32514 7.06655 7.26155C7.42688 6.94786 7.7872 6.63417 8.14328 6.31624C8.59686 5.95167 9.01653 5.76515 9.39381 5.76515C9.53794 5.76515 9.67783 5.79059 9.82196 5.83722C10.1017 5.93048 10.3264 6.0407 10.5045 6.16363C10.7503 6.33319 10.886 6.53667 10.9199 6.77406H10.9241Z" fill="white"/>
</svg>
