<svg width="20" height="18" viewBox="0 0 20 18" fill="none" xmlns="http://www.w3.org/2000/svg">
<path fill-rule="evenodd" clip-rule="evenodd" d="M19.5504 3.68703C19.5414 3.78595 19.5324 3.88487 19.5324 3.99278V4.24461C19.5324 4.6313 19.5773 5.21582 19.6763 6.00719C19.7752 6.79855 19.8201 7.39206 19.8201 7.78775C19.9281 8.54314 19.982 9.33452 19.982 10.1619C19.982 10.8093 19.9371 11.4118 19.8471 11.9784C19.7572 12.5449 19.6043 13.0665 19.3885 13.5611C19.4604 13.3093 19.5054 13.0486 19.5324 12.7788C19.5594 12.509 19.5683 12.2212 19.5683 11.9065C19.5683 11.5018 19.4964 10.6025 19.3525 9.20862C19.2806 8.51618 19.2446 7.96761 19.2446 7.57193C19.1817 7.11329 19.1097 6.38489 19.0198 5.36871C18.9299 4.35252 18.8399 3.28235 18.741 2.14026L19.2086 1.29494C19.2536 1.4658 19.3795 1.83453 19.5863 2.41007C19.8651 3.20143 20 3.83992 20 4.31654L19.5504 3.68703ZM12.8597 5.55755C12.8237 5.4946 12.7158 5.41365 12.527 5.29675C12.3381 5.17984 12.2662 5.05395 12.3022 4.91006L12.9676 4.13667L13.723 4.7482C13.5522 5 13.4263 5.17983 13.3453 5.28775C13.1745 5.50357 13.0126 5.59352 12.8597 5.55755ZM14.4964 1.58272L14.5683 1.43883C14.4964 1.46581 13.768 1.7266 12.3741 2.2302C10.7914 2.79674 9.57734 3.24639 8.74101 3.57912C8.45324 3.68703 8.16547 3.80394 7.86871 3.92085C7.57194 4.03776 7.42806 4.24458 7.42806 4.53235C7.95863 4.25358 8.54317 3.99278 9.19065 3.74098C9.69424 3.55213 10.2698 3.33631 10.9263 3.1025C11.5827 2.86869 12.2122 2.64387 12.8237 2.42804C13.5072 2.16725 14.0558 1.86149 14.4604 1.52876L14.4964 1.58272ZM5.01799 0.971211C5.01799 0.863297 5.09892 0.773362 5.26978 0.710412C5.44065 0.647462 5.54856 0.575537 5.59352 0.503595C5.40468 0.42266 5.20683 0.377682 5 0.377682C4.84712 0.377682 4.70324 0.42266 4.58633 0.503595C4.55036 0.42266 4.56835 0.341707 4.64928 0.260772C4.73022 0.179836 4.82914 0.107894 4.96403 0.0359515C5.13489 0.00897305 5.2518 0 5.32374 0C5.54856 0 5.78237 0.0449399 6.00719 0.143861C5.94424 0.323717 5.81835 0.494605 5.6205 0.647483C5.42266 0.800361 5.22482 0.908261 5.01799 0.971211ZM6.33093 2.482C6.11511 2.38307 5.96223 2.31114 5.86331 2.26618C5.67446 2.16726 5.53057 2.07732 5.43165 1.9784C5.35971 2.02336 5.26978 2.16724 5.16187 2.39206C5.05396 2.61688 4.93705 2.73379 4.80216 2.73379C4.73022 2.73379 4.66727 2.72482 4.6223 2.69784C4.59532 2.66187 4.47842 2.6079 4.27158 2.54495C4.06475 2.482 3.96583 2.38309 3.99281 2.2482C4.06475 2.13129 4.15468 1.99639 4.26259 1.84351C4.3705 1.69064 4.47842 1.54676 4.58633 1.40288L5.44964 1.69062L6.13309 1.07912C6.30396 1.14207 6.45683 1.214 6.60072 1.29494C6.80755 1.43882 6.95144 1.53777 7.05036 1.60072C7.0054 1.64568 6.93345 1.78058 6.83453 1.9964C6.69065 2.32014 6.51978 2.482 6.33093 2.482ZM10.8813 5.91725C10.8183 5.92625 10.7464 5.89027 10.6655 5.80034C10.5845 5.71041 10.5126 5.66546 10.4496 5.66546C10.4496 5.9892 10.4227 6.30394 10.3597 6.61869C10.2968 6.93344 10.1978 7.21222 10.054 7.46402C9.97302 7.32913 9.86511 7.12229 9.73022 6.84351C9.59532 6.56473 9.5054 6.3759 9.44245 6.29496C9.40648 6.39388 9.33453 6.43882 9.22662 6.43882L9.08273 6.40287C9.01978 6.33992 8.99281 6.26796 8.99281 6.18703C8.99281 6.12408 9.01079 6.03416 9.03777 5.91725C9.06475 5.80035 9.08273 5.7284 9.08273 5.71941C9.11871 5.67445 9.15468 5.6205 9.19065 5.55755C9.2536 5.4946 9.30755 5.4946 9.3705 5.55755C9.51439 5.70143 9.66727 5.94423 9.82014 6.27696C9.97302 6.60969 10.0899 6.84352 10.1619 6.96042C10.1978 6.59172 10.2248 6.25898 10.2518 5.97121C10.2788 5.68344 10.3507 5.42264 10.4856 5.17984C10.5486 5.20682 10.6205 5.25178 10.7014 5.32373C10.7824 5.39567 10.8723 5.45862 10.9532 5.52157L10.8813 5.91725ZM15.8633 12.9316C16.304 12.7877 16.6007 12.464 16.7446 11.9604C16.8076 11.5198 16.8705 11.0701 16.9424 10.6115C16.9424 9.99999 16.7806 8.57012 16.4568 6.33092C16.313 5.33271 16.241 4.4694 16.241 3.74098C16.241 3.52516 16.268 3.41726 16.313 3.41726C16.3219 3.41726 16.4119 3.53417 16.5827 3.75899C16.7176 3.94783 16.8255 4.0018 16.9065 3.90287C16.6817 2.9946 16.3309 2.1133 15.8633 1.25899C15.7914 1.39388 15.7194 1.51976 15.6475 1.63667C15.5036 1.87948 15.4227 2.0953 15.4137 2.28415C15.5486 3.15646 15.6745 4.13669 15.7914 5.22482C15.9083 6.31295 16.0342 7.41007 16.1601 8.51619C16.286 9.6223 16.4029 10.6025 16.5108 11.4388C16.196 11.6457 15.8723 11.7985 15.5396 11.8975C15.2068 11.9964 14.8651 12.0504 14.5144 12.0504C14.1637 12.0504 13.8489 11.9964 13.5252 11.8885C13.5342 11.8165 13.6241 11.4658 13.777 10.8453C13.8849 10.4137 13.9388 10.0629 13.9388 9.78415C13.9388 9.66724 13.9209 9.51437 13.8849 9.33451C13.8489 9.15465 13.804 9.00179 13.75 8.87589C13.696 8.75 13.6241 8.65106 13.5252 8.57912C13.4263 8.50717 13.3183 8.47121 13.2014 8.47121H13.1205C13.1205 8.47121 13.0396 8.48021 13.0036 8.50719C12.464 8.90287 12.0594 9.3705 11.7896 9.91906C11.5198 10.4676 11.3849 11.0521 11.3849 11.6726C10.1259 12.2392 8.75899 12.518 7.28417 12.518C6.57374 12.518 5.95324 12.455 5.41367 12.3381C4.8741 12.2212 4.39748 11.9694 3.98381 11.5827C3.57014 11.196 3.31835 10.7824 3.21942 10.3417C3.19245 10.4586 3.17446 10.6025 3.14748 10.7734C3.1205 10.9442 3.11151 11.0881 3.11151 11.205C3.11151 11.7356 3.23741 12.1673 3.48921 12.5C3.98381 12.9227 4.51439 13.2194 5.08993 13.3993C5.66547 13.5791 6.30396 13.669 7.01439 13.669C7.83273 13.669 8.72302 13.5521 9.69425 13.3093C10.3777 13.1385 11.196 12.8867 12.1583 12.5539C12.7608 12.9946 13.4892 13.2194 14.3525 13.2194C14.8561 13.2194 15.3597 13.1205 15.8633 12.9316ZM8.50719 10.7374C8.42626 10.7734 8.34532 10.7644 8.26439 10.7104C8.18345 10.6565 8.14748 10.5845 8.14748 10.4856C8.14748 10.1978 8.21043 9.87409 8.34532 9.51438C8.40827 9.3615 8.53417 9.05575 8.74101 8.59712C8.74101 8.73201 8.67806 8.94784 8.56115 9.2446C8.44425 9.54137 8.3813 9.75719 8.3813 9.89209C8.3813 10.0809 8.46223 10.2248 8.61511 10.3237C8.65108 10.2967 8.68705 10.2428 8.71403 10.1439C8.74101 10.045 8.79496 9.99098 8.86691 9.98199C8.83094 10.1259 8.78597 10.2698 8.74101 10.4227C8.69604 10.5755 8.61511 10.6744 8.50719 10.7374ZM13.0935 15.1079C12.9946 15.1079 12.9227 15.0809 12.8597 15.018C12.7968 14.955 12.7428 14.8741 12.6978 14.7662C12.6709 14.5503 12.6978 14.3435 12.7518 14.1457C12.8147 13.9478 12.9137 13.714 13.0576 13.4532C13.0216 13.6241 12.9946 13.75 12.9676 13.8309C12.9047 14.0198 12.8777 14.1637 12.8777 14.2626C12.8777 14.4334 12.9586 14.5593 13.1295 14.6583C13.2284 14.6942 13.3004 14.6583 13.3453 14.5504C13.3903 14.4424 13.4442 14.3885 13.4892 14.3885C13.4442 14.6493 13.3903 14.8291 13.3363 14.9101C13.2824 14.991 13.2014 15.0629 13.0935 15.1079ZM1.96043 2.55395C1.91547 2.54496 1.84353 2.49998 1.76259 2.42804C1.68165 2.3561 1.60971 2.32013 1.56475 2.32013C1.51978 2.63488 1.47482 2.94063 1.43885 3.23739C1.3759 3.57012 1.28597 3.86689 1.16906 4.11869C1.09712 4.05574 0.989209 3.82193 0.854316 3.41726C0.719424 3.01258 0.494604 2.83272 0.197841 2.87768C0.116906 2.83272 0.0719424 2.73379 0.0719424 2.58991C0.0719424 2.51796 0.0809352 2.43703 0.107914 2.33811C0.152878 2.23919 0.197842 2.15826 0.233813 2.09531C0.269784 2.03236 0.314748 1.9874 0.377698 1.96043C0.638489 2.10431 0.845323 2.37409 0.989208 2.76977C1.06115 2.97661 1.13309 3.17444 1.20504 3.38128C1.23201 3.30034 1.26799 3.05755 1.31295 2.67086C1.35791 2.28417 1.46583 2.00538 1.61871 1.83451C1.78957 1.83451 1.93345 1.93344 2.06835 2.12229C2.09532 2.16725 2.09532 2.2212 2.06835 2.28415C2.05036 2.3471 2.01439 2.43705 1.95144 2.55395H1.96043ZM5.70144 17.9137C5.36871 17.9586 4.99101 17.9856 4.56835 17.9856C3.92986 17.9856 3.34532 17.9137 2.79676 17.7788C2.2482 17.6439 1.73561 17.4191 1.24101 17.1043C0.701439 16.7536 0.341726 16.25 0.16187 15.5755C0.0539563 15.1529 0 14.4964 0 13.5971C0.116906 13.0845 0.242806 12.6349 0.377698 12.2662C0.51259 11.8975 0.701439 11.5018 0.944245 11.0791C1.18705 10.6565 1.45683 10.2967 1.7536 9.98199C2.05036 9.66724 2.41007 9.38846 2.84173 9.13667H2.09532C1.83453 9.13667 1.57374 9.13668 1.31295 9.11869H0.728417C0.539568 9.11869 0.350719 9.13667 0.143885 9.17265C0.260791 8.64207 0.503597 8.19244 0.863309 7.80575C0.980216 7.67086 1.77158 7.13127 3.23741 6.18703C3.83993 5.79134 4.27158 5.39568 4.55036 5C4.64928 4.92806 4.86511 4.64927 5.21583 4.17265C5.45863 3.83991 5.70144 3.68704 5.95324 3.72301C6.01619 3.87589 6.07014 4.07373 6.13309 4.31654C6.19604 4.55934 6.22302 4.76619 6.22302 4.94604C6.22302 5.35072 6.10612 5.67445 5.86331 5.91725C5.82734 5.83632 5.77338 5.65646 5.69245 5.37768C5.61151 5.0989 5.53057 4.91007 5.43165 4.80216C4.92806 5.3687 4.3795 5.92624 3.77698 6.4748C3.10252 7.08631 2.48201 7.57192 1.90647 7.93163C2.36511 7.93163 2.82374 7.93164 3.30036 7.94064C3.77698 7.94064 4.2536 7.94064 4.73022 7.94064H5.08993C5.94424 7.94064 6.76259 7.90467 7.55396 7.83273L6.9964 8.94783C6.16907 9.06473 5.51259 9.18164 5.03597 9.28956C4.30755 9.46042 3.66007 9.66726 3.09353 9.91906C2.44604 10.2338 1.91547 10.6025 1.49281 11.0342C1.01619 11.5378 0.692446 12.1313 0.539568 12.8147C0.503597 12.9317 0.476618 13.0665 0.467625 13.2104C0.458633 13.3543 0.44964 13.5072 0.44964 13.678C0.44964 14.3255 0.602518 14.8741 0.917266 15.3327C1.44784 15.9083 2.10432 16.3219 2.89568 16.5737C3.57014 16.7896 4.36151 16.8975 5.28777 16.8975C5.81834 16.8975 6.42986 16.8615 7.14029 16.7896C8.79496 16.6187 9.77518 16.5378 10.0899 16.5378C9.3795 16.8885 8.66907 17.1762 7.95863 17.4101C7.2482 17.6439 6.49281 17.8057 5.70144 17.9047V17.9137ZM3.11151 15.6295C3.25539 15.6565 3.3723 15.6655 3.45324 15.6655C4.13669 15.6655 4.64928 15.4226 5 14.928C4.68525 15.0629 4.43345 15.1529 4.2446 15.2068C4.05576 15.2608 3.84892 15.2878 3.63309 15.2878C3.4982 15.2878 3.40827 15.2878 3.34532 15.2698C3.05755 15.1708 2.91367 15.0719 2.91367 14.964C2.91367 14.8921 3.01259 14.7842 3.21942 14.6403C3.60612 14.3795 3.78597 14.1637 3.75899 13.9928C3.68705 13.8849 3.57914 13.8219 3.44424 13.8039C3.30935 13.7859 3.17446 13.768 3.05755 13.759C2.94964 13.786 2.8687 13.8399 2.82374 13.9208C2.77878 14.0018 2.74281 14.1097 2.71583 14.2266L2.94964 14.1367C3.02158 14.1457 3.10252 14.1637 3.18345 14.1816C3.26439 14.1996 3.31834 14.2356 3.34532 14.2986C3.16547 14.3975 3.0036 14.5324 2.85971 14.7122C2.71583 14.8921 2.63489 15.0809 2.6259 15.2698C2.67086 15.3687 2.74281 15.4406 2.83273 15.4856C2.92266 15.5306 3.01259 15.5845 3.11151 15.6295ZM13.3633 10.1079C13.4083 10.2248 13.4353 10.3417 13.4442 10.4586C13.4532 10.5755 13.4622 10.7194 13.4892 10.8993C13.3813 11.0072 13.2104 11.0971 12.9856 11.169C12.8777 11.205 12.7068 11.259 12.464 11.3309C12.3651 11.2949 12.2572 11.214 12.1403 11.0791C12.0773 11.0162 11.9964 10.9172 11.8885 10.7734C11.9514 10.5485 12.0594 10.3327 12.2212 10.1439C12.3831 9.95503 12.5719 9.79315 12.7878 9.67624C12.9317 9.66725 13.0486 9.70323 13.1475 9.80215C13.1835 9.83812 13.2554 9.93704 13.3633 10.1079Z" fill="white"/>
</svg>
