<svg width="20" height="9" viewBox="0 0 20 9" fill="none" xmlns="http://www.w3.org/2000/svg">
<path fill-rule="evenodd" clip-rule="evenodd" d="M19.9958 2.09346C19.8837 1.93562 19.7715 1.77362 19.6677 1.61578L19.5888 1.7944L19.7674 5.95223C19.7674 6.41745 19.7175 6.86604 19.6137 7.30218C19.5099 7.73832 19.3603 8.14538 19.161 8.52337C19.2482 8.18276 19.3105 7.80478 19.352 7.3811C19.3936 6.95743 19.4102 6.55036 19.4102 6.15161C19.4102 5.67393 19.3853 5.13396 19.3396 4.53167C19.2939 3.92939 19.2482 3.30634 19.1983 2.65836C19.1526 2.01039 19.1277 1.49533 19.1277 1.10903C19.0945 1.04257 19.0779 0.984428 19.0779 0.938737C19.0779 0.847356 19.1236 0.735203 19.2191 0.610592C19.3603 0.419523 19.4309 0.315678 19.4393 0.303217C19.5722 0.577361 19.6885 0.859817 19.784 1.15888C19.8795 1.45795 19.9502 1.76947 20 2.09761L19.9958 2.09346ZM16.4486 0.12046C16.4154 0.286608 16.2908 0.40291 16.0706 0.469369C15.7383 0.577364 15.5556 0.639666 15.5223 0.660435L13.7196 1.35826C13.7196 1.30011 13.7487 1.23365 13.811 1.15888C13.8692 1.08412 13.9356 1.04673 14.0021 1.03842L16.4528 0.12046H16.4486ZM15.6303 2.37176C15.6096 2.42991 15.5597 2.46314 15.4808 2.46314C15.4351 2.46314 15.3894 2.45483 15.352 2.43406L15.244 2.3053C15.2025 2.40499 15.1734 2.47144 15.1526 2.50467C15.107 2.57944 15.0447 2.62928 14.974 2.65421C14.8868 2.67497 14.8162 2.65421 14.7539 2.59605C14.7207 2.56282 14.6791 2.50052 14.6334 2.40499C14.6417 2.3593 14.6459 2.22638 14.6542 2.00623C14.6625 1.78609 14.7124 1.6324 14.8037 1.53686C14.8245 1.5784 14.8328 1.62824 14.8328 1.6864C14.8328 1.74455 14.8328 1.79855 14.8245 1.84424C14.7996 2.01869 14.783 2.11007 14.783 2.12253C14.783 2.26791 14.8577 2.34268 15.0114 2.34268C15.0363 2.33437 15.0613 2.33438 15.082 2.33438C15.1485 2.27622 15.1817 2.18899 15.1817 2.07684C15.1693 1.95223 15.161 1.85255 15.161 1.78609C15.161 1.6864 15.1942 1.61163 15.2606 1.55763C15.2814 1.58255 15.2897 1.64071 15.2897 1.72793C15.2814 1.84008 15.2814 1.91901 15.2814 1.96885C15.2814 2.04362 15.2939 2.09761 15.3229 2.13499C15.3479 2.17238 15.4019 2.18899 15.4808 2.18899C15.5265 2.18899 15.5639 2.17238 15.5888 2.13915C15.5639 2.027 15.5348 1.91069 15.5099 1.79024C15.5099 1.71547 15.5306 1.66148 15.568 1.61994C15.6594 1.69471 15.7092 1.81101 15.7092 1.96885C15.7092 2.04777 15.7051 2.11423 15.6926 2.16407C15.6843 2.21392 15.6594 2.28453 15.6262 2.38006L15.6303 2.37176ZM16.1288 3.60955C16.0831 3.70094 16.054 3.77155 16.0374 3.81724L15.7799 3.71755C15.7259 3.97508 15.6885 4.1703 15.6594 4.29491C15.6137 4.53582 15.5389 4.69367 15.4393 4.77259C15.4309 4.76428 15.3603 4.60228 15.2191 4.28245C15.1319 4.08307 15.0156 3.98338 14.8702 3.98338C14.8245 3.94185 14.7996 3.90447 14.7996 3.86293C14.7996 3.82139 14.8204 3.77155 14.866 3.70509C14.9076 3.63863 14.9325 3.58878 14.9408 3.55555C15.082 3.58878 15.1983 3.70509 15.2897 3.90447C15.3645 4.07892 15.4393 4.24922 15.5182 4.42368C15.5639 4.13292 15.5971 3.95016 15.6179 3.8837C15.6719 3.68432 15.7549 3.53063 15.8671 3.42679C15.9128 3.44756 15.9668 3.46833 16.0208 3.4974C16.0789 3.52233 16.1121 3.55971 16.1246 3.6054L16.1288 3.60955ZM11.7217 2.52129C11.7217 2.60852 11.7051 2.69989 11.6677 2.79543C11.6303 2.89096 11.5763 2.96158 11.5016 2.99896C11.46 3.00727 11.4226 2.9865 11.3853 2.94496C11.3479 2.90343 11.3188 2.85774 11.3022 2.81205C11.2814 2.76636 11.2731 2.6999 11.2731 2.61267C11.2731 2.48806 11.3063 2.34268 11.3728 2.18484C11.406 2.10592 11.4434 2.027 11.4808 1.94393C11.4683 1.98547 11.4476 2.05607 11.4268 2.15992C11.4019 2.26376 11.3936 2.34268 11.3936 2.39253C11.3936 2.45068 11.4019 2.51298 11.4143 2.57113C11.4268 2.62928 11.4642 2.68744 11.5223 2.74144C11.5639 2.73313 11.5929 2.7082 11.6179 2.66251C11.6428 2.61682 11.6636 2.57113 11.6843 2.52129H11.7259H11.7217ZM10.6459 0C10.6002 0.178609 10.4133 0.307374 10.0893 0.390448C9.87747 0.444445 9.73209 0.49429 9.64901 0.53998C9.38318 0.664591 9.00519 0.81828 8.5109 0.996888C8.14538 1.12981 7.91277 1.21703 7.81308 1.25442C8.16615 0.988579 8.68951 0.718588 9.38733 0.448599C9.72793 0.323988 10.0644 0.191069 10.405 0.0581514L10.6459 0ZM17.8525 2.22222C17.8775 2.13084 17.7861 1.8027 17.5784 1.24195C17.3707 0.681207 17.2378 0.353065 17.1838 0.261684C17.1506 0.307375 17.0883 0.3946 16.9927 0.519211C16.8598 0.71028 16.7934 0.876427 16.7934 1.01765C16.7934 1.07165 16.8017 1.12565 16.8224 1.18795L17.3292 5.86501V6.78297C17.0301 6.91589 16.7061 7.01558 16.3614 7.08204C16.2077 7.11527 15.8795 7.16095 15.3728 7.22326C15.4808 7.03634 15.5888 6.84112 15.7051 6.63344C15.8214 6.42575 15.8795 6.23468 15.8795 6.05608C15.7882 5.8027 15.5971 5.59917 15.3105 5.44964C15.2233 5.40395 14.9699 5.30426 14.5421 5.15057C14.4008 5.10904 14.2679 5.09242 14.1433 5.09242C13.8899 5.09242 13.6366 5.15888 13.3749 5.2918C13.1963 5.38318 12.9803 5.53271 12.7269 5.73209C12.785 5.51194 12.8266 5.32918 12.8432 5.17965C12.8598 5.03011 12.8681 4.82243 12.8681 4.55659C12.8681 4.29076 12.8141 3.67601 12.7103 2.69159C12.6646 2.2596 12.6397 1.89823 12.6397 1.60332C12.6812 1.63655 12.7394 1.70717 12.8183 1.81101C12.8972 1.919 12.9595 1.98962 13.0093 2.03115C13.0093 2.00623 13.0093 1.9647 13.0177 1.9107C13.0177 1.71132 12.9429 1.45379 12.7975 1.13395C12.6231 0.755969 12.5234 0.498444 12.4901 0.365526C12.3032 0.510905 12.1828 0.731052 12.1205 1.02181C12.2783 1.97716 12.3946 2.77466 12.4611 3.41433C12.5524 4.2783 12.6023 5.08827 12.6023 5.84839C12.5483 5.90239 12.2908 6.18899 11.8255 6.71651C11.6594 6.90343 11.5057 7.05711 11.3686 7.17342C11.215 7.10696 11.0779 7.00727 10.9616 6.87435C10.8411 6.74143 10.7497 6.59606 10.6833 6.43406C10.6085 5.92316 10.5587 5.32503 10.5254 4.64382C10.4922 3.96262 10.459 3.28141 10.4258 2.59605C10.3925 1.9107 10.3385 1.31257 10.2679 0.801665C10.1225 0.913814 10.0228 1.05088 9.96885 1.20872C9.91485 1.36656 9.88993 1.55763 9.88993 1.77778C9.88993 1.88993 9.89823 2.06438 9.919 2.29699C9.93977 2.52959 9.94808 2.6999 9.94808 2.80374C9.94808 2.94496 9.96469 3.26065 10.0021 3.75494C10.0395 4.24922 10.0561 4.60644 10.0561 4.82659C10.0561 5.12565 10.0395 5.39149 10.0021 5.62409C9.96469 5.8567 9.89408 6.081 9.78608 6.29284C9.78608 5.93977 9.76532 5.60748 9.72793 5.29595C9.55348 4.91796 9.27518 4.49014 8.88889 4.00831C8.54413 3.60956 8.19938 3.20665 7.86293 2.80374C7.44341 2.3136 7.14019 1.90239 6.95742 1.5784C6.96989 1.5784 7.01558 1.59501 7.09865 1.62824C7.17757 1.66147 7.23987 1.66978 7.27726 1.65732C7.22326 1.56594 7.13603 1.44133 7.01142 1.2918C6.88681 1.14226 6.6999 0.926271 6.44652 0.647974C6.3676 0.735201 6.3136 0.818275 6.28868 0.901349C6.26376 0.984423 6.24714 1.07165 6.24714 1.16718C6.24714 1.36656 6.33022 1.60748 6.49637 1.89408C6.58359 2.04777 6.72066 2.27622 6.91173 2.58774C7.1028 2.89512 7.44341 3.31464 7.93354 3.83801C8.47767 4.41537 8.83904 4.83074 9.02181 5.08411C9.36656 5.56179 9.57009 6.03946 9.62824 6.52129C9.28349 6.95327 8.80166 7.34372 8.18276 7.68848C7.8297 7.87955 7.29803 8.15368 6.58775 8.50675C6.68743 8.48598 6.99481 8.41122 7.51402 8.2783C7.88785 8.18692 8.20353 8.12045 8.46937 8.07892C8.85981 7.97092 9.22534 7.7217 9.55763 7.32295C9.81101 7.01558 10.0353 6.63759 10.2347 6.18484C10.2596 6.38422 10.2928 6.5919 10.3302 6.81205C10.3676 7.03219 10.4299 7.20664 10.513 7.33956C10.6874 7.6054 10.9159 7.79647 11.2025 7.90862C11.4351 8 11.7259 8.04985 12.0706 8.04985C12.7809 7.95846 13.4912 7.85878 14.2056 7.75909C14.3842 7.80063 14.5421 7.8297 14.675 7.85047C14.8079 7.87124 14.9574 7.87954 15.1236 7.87954C16.2658 7.70509 16.8681 7.6054 16.9263 7.58048C17.271 7.4351 17.5036 7.19003 17.6241 6.84112C17.6656 6.56698 17.6822 6.30114 17.6822 6.03531V5.92731C17.6822 5.50779 17.6199 4.85981 17.4995 3.97923C17.3749 3.09865 17.3167 2.42991 17.3167 1.96885L17.4455 1.81101C17.5036 1.9107 17.5659 2.01038 17.6282 2.11007C17.6905 2.20976 17.7653 2.2513 17.8525 2.23053V2.22222ZM8.83074 1.37487C8.98442 1.66147 9.05919 1.95223 9.05919 2.2513C9.05919 2.57113 8.96781 2.83282 8.7892 3.0405C8.88889 2.91589 8.93873 2.74974 8.93873 2.54206C8.93873 2.40083 8.92212 2.26376 8.88473 2.12669C8.84735 1.98962 8.79751 1.81932 8.73105 1.61163L8.83074 1.37072V1.37487ZM5.33333 2.30115C5.33333 2.30115 5.26272 2.42575 5.14226 2.62928C5.06334 2.77051 4.97196 2.85358 4.87227 2.88681C4.80581 2.80789 4.72274 2.73728 4.62305 2.67913C4.57736 2.6542 4.48183 2.60021 4.33229 2.52129C4.25753 2.6459 4.20353 2.74144 4.16199 2.79959C4.08723 2.92004 4.00415 2.96573 3.90446 2.94081L3.39772 2.65005C3.4891 2.42991 3.62201 2.22638 3.79647 2.04361C3.87124 2.06438 4 2.12669 4.18692 2.23469C4.2866 2.28868 4.36552 2.32606 4.42783 2.35514C4.47352 2.33437 4.54413 2.25545 4.64382 2.11422C4.73936 1.973 4.81828 1.90654 4.87643 1.90654C4.93458 1.90654 5.00104 1.95224 5.0758 2.04777C5.08411 2.04777 5.13396 2.0893 5.22534 2.16822C5.28349 2.21392 5.32087 2.2596 5.33333 2.30945V2.30115ZM3.23157 0.726895C3.2648 0.760125 3.26895 0.801665 3.24818 0.847356C3.22326 0.893046 3.20665 0.93458 3.19418 0.96781C3.14849 0.955349 3.1028 0.942887 3.06542 0.934579C3.02388 0.926272 2.99481 0.930429 2.97404 0.951198C2.90758 1.05919 2.86189 1.2378 2.83281 1.49117C2.80789 1.74455 2.75805 1.91485 2.69159 2.01038C2.61267 1.81101 2.55036 1.66563 2.51298 1.57009C2.42575 1.39148 2.3053 1.30011 2.15576 1.30011C2.10177 1.26688 2.06438 1.24195 2.04777 1.22949C2.00208 1.19626 1.97715 1.15888 1.97715 1.12149C1.97715 1.0135 1.98962 0.926271 2.01869 0.855658C2.04361 0.785046 2.10177 0.73105 2.18899 0.689513C2.3136 0.780895 2.41745 0.913811 2.49637 1.08411C2.57529 1.25441 2.65421 1.41641 2.72482 1.5784C2.75805 1.33333 2.78712 1.15057 2.8162 1.03011C2.8702 0.805813 2.95742 0.689513 3.08619 0.689513C3.13188 0.689513 3.18172 0.701977 3.23572 0.731053L3.23157 0.726895ZM3.13188 2.46314C3.13188 2.5836 3.10696 2.66252 3.06127 2.70405C3.01558 2.74559 2.94496 2.76221 2.85358 2.76221C2.72897 2.74974 2.63344 2.74144 2.57529 2.74144C2.46314 2.74144 2.38422 2.75805 2.33437 2.79128C2.28868 2.82451 2.2513 2.87851 2.22638 2.94912C2.23884 3.10696 2.27622 3.30218 2.33437 3.52648C2.39252 3.75078 2.45068 3.96677 2.50467 4.16615C2.52959 4.26584 2.55036 4.35722 2.56282 4.44444C2.57529 4.53167 2.58359 4.63136 2.58359 4.74351C2.58359 4.97612 2.5379 5.19626 2.44237 5.39979C2.4756 5.24611 2.49221 5.11319 2.49221 5.00104C2.49221 4.84736 2.47144 4.68536 2.43406 4.5109C2.4216 4.44444 2.37591 4.28661 2.3053 4.03323C2.25961 3.87955 2.21807 3.72586 2.18069 3.56386C2.1433 3.40602 2.12669 3.25649 2.12669 3.12357C2.12669 2.99066 2.14746 2.85359 2.18484 2.71651C2.24299 2.62929 2.32606 2.56698 2.42991 2.52544C2.53375 2.48391 2.65836 2.45067 2.80374 2.42575C2.7622 2.35929 2.68328 2.32607 2.56282 2.32607C2.52959 2.32607 2.47975 2.33438 2.41329 2.34684C2.38006 2.22638 2.43406 2.13499 2.57113 2.06853C2.68328 2.05607 2.79128 2.0893 2.89097 2.16822C2.99065 2.24714 3.06957 2.34268 3.13188 2.45898V2.46314ZM6.89927 5.58256C6.89927 6.135 6.64174 6.66667 6.12253 7.17757C5.95639 7.34372 5.66563 7.58463 5.25441 7.90446C4.69782 8.2243 4.19938 8.46521 3.76739 8.63136C3.18172 8.85566 2.64174 8.97196 2.1433 8.97196C1.919 8.97196 1.72378 8.9595 1.56594 8.93043C1.4081 8.9055 1.21703 8.84735 0.996885 8.76012C0.718588 8.61474 0.490135 8.42783 0.307373 8.20353C0.0996884 7.946 0 7.67601 0 7.39771C0 6.92419 0.0456906 6.49221 0.132918 6.09346C0.220145 5.6947 0.373832 5.32087 0.58567 4.96781C0.407061 4.68121 0.31568 4.37798 0.31568 4.0623C0.31568 3.74662 0.407061 3.36448 0.593977 2.94496C0.635514 2.85773 0.818276 2.51714 1.14226 1.91901C1.16303 1.90655 1.1838 1.87331 1.21288 1.81932C1.2378 1.76532 1.27518 1.74455 1.32087 1.7487C1.18795 2.03531 1.05504 2.32191 0.922118 2.60436C0.768432 2.96158 0.693666 3.26895 0.693666 3.52232C0.693666 3.80062 0.776739 4.04569 0.942887 4.26169C1.05504 4.28661 1.14226 4.23676 1.20042 4.108C1.25857 3.97923 1.31256 3.90447 1.35826 3.8837C1.31672 4.14954 1.26272 4.36968 1.18795 4.53998C1.07996 4.7809 0.934579 4.94289 0.747663 5.03011C0.623053 5.38733 0.527518 5.66563 0.469367 5.8567C0.357217 6.20976 0.299065 6.50052 0.299065 6.73313C0.299065 6.88681 0.319834 7.02804 0.365524 7.16096C0.407061 7.29388 0.481828 7.42264 0.581516 7.5514C0.7892 7.79232 1.03011 7.97092 1.31256 8.09138C1.59502 8.21184 1.89408 8.26999 2.21391 8.26999C2.39252 8.26999 2.57944 8.24922 2.77051 8.21184C3.50986 8.05815 4.18276 7.82139 4.79335 7.50571C5.44964 7.16096 6.03115 6.71651 6.5379 6.16823C6.51298 6.03531 6.4839 5.92731 6.45898 5.84424C6.43406 5.76117 6.38422 5.71132 6.3136 5.69886C6.24299 5.6864 6.16407 5.67809 6.06853 5.67809C5.96054 5.67809 5.81101 5.68639 5.61994 5.70301C5.42887 5.71962 5.31256 5.72794 5.27103 5.72794C5.05919 5.72794 4.89304 5.70301 4.77259 5.64902C4.61475 5.57425 4.49429 5.44548 4.41537 5.25857C4.4486 4.93458 4.52752 4.63967 4.64797 4.37799C4.77259 4.11631 4.95119 3.90031 5.19211 3.73417C5.2378 3.72171 5.30841 3.7134 5.39979 3.7134C5.5784 3.7134 5.7487 3.75909 5.91485 3.85462C6.07684 3.946 6.23468 4.07892 6.38837 4.24507C6.55452 4.44444 6.67913 4.65213 6.7622 4.87227C6.84527 5.09242 6.88681 5.32918 6.88681 5.59086L6.89927 5.58256ZM3.86708 6.52129C3.81308 6.60021 3.7757 6.65421 3.75909 6.67913C3.70509 6.73728 3.65109 6.76636 3.58878 6.75805C3.53063 6.67082 3.4974 6.56282 3.4974 6.4299C3.4974 6.34268 3.51402 6.23468 3.54725 6.10177C3.55971 6.03531 3.58878 5.93146 3.62617 5.79439C3.61786 5.82762 3.56802 5.96885 3.47664 6.21392C3.41018 6.39253 3.37695 6.5379 3.37695 6.64175C3.37695 6.78297 3.41848 6.90343 3.50571 7.01142C3.53894 7.03219 3.57217 7.03219 3.60955 7.01558C3.64694 6.99896 3.68847 6.96989 3.73416 6.9325C3.75909 6.87851 3.78816 6.82451 3.81308 6.77466C3.86708 6.66667 3.8837 6.5836 3.86293 6.52544L3.86708 6.52129ZM1.99377 6.61267C1.96054 6.62098 1.92316 6.66251 1.88577 6.73728C1.84424 6.81205 1.79024 6.84112 1.71547 6.82035C1.62409 6.77882 1.57425 6.70405 1.57425 6.5919C1.57425 6.53791 1.58671 6.46729 1.60748 6.37175C1.6324 6.28037 1.64071 6.23053 1.64071 6.22222C1.58255 6.33022 1.53686 6.42576 1.50779 6.51298C1.47871 6.60021 1.4621 6.69159 1.4621 6.79128C1.4621 6.84528 1.4621 6.88266 1.4704 6.91173C1.50363 7.03634 1.59502 7.10281 1.7487 7.10281C1.82347 7.06127 1.87747 6.99066 1.919 6.88266C1.93977 6.79543 1.96054 6.7082 1.98962 6.61267H1.99377ZM15.4102 6.65421C14.92 6.89512 14.3385 7.06127 13.6656 7.15265C13.1755 7.21911 12.5441 7.25234 11.7715 7.25234C12.2118 6.77882 12.5275 6.46314 12.7186 6.3053C13.109 5.98547 13.4912 5.82762 13.865 5.82762C13.9439 5.82762 14.0312 5.83593 14.1184 5.84839C14.2098 5.86085 14.2887 5.88162 14.3634 5.90654C14.6957 6.04777 14.8993 6.135 14.9699 6.17654C15.1817 6.30115 15.3271 6.46314 15.4102 6.65421ZM5.98131 4.90966C5.8567 4.77674 5.73624 4.6729 5.62409 4.60228C5.4704 4.5026 5.32918 4.45275 5.19626 4.45275C5.09657 4.45275 4.98858 4.49013 4.87643 4.56075C4.86397 4.60228 4.85566 4.63551 4.85566 4.66044C4.85566 4.70613 4.87227 4.73936 4.9055 4.76013C4.98027 4.83905 5.0675 4.8972 5.17134 4.93043C5.27518 4.96366 5.37902 4.98027 5.48702 4.98027C5.57425 4.98027 5.66563 4.97196 5.76532 4.95119C5.865 4.93042 5.93977 4.91797 5.98546 4.90966H5.98131Z" fill="white"/>
</svg>
