<svg width="20" height="9" viewBox="0 0 20 9" fill="none" xmlns="http://www.w3.org/2000/svg">
<path fill-rule="evenodd" clip-rule="evenodd" d="M20 2.06816C19.9766 2.04868 19.8987 1.95521 19.7741 1.78773C19.6806 1.6631 19.6066 1.61247 19.5482 1.63973L19.7157 5.74489C19.7157 6.09542 19.6728 6.43038 19.591 6.74976C19.5054 7.06913 19.3885 7.37293 19.2327 7.66115C19.2872 7.43525 19.3262 7.18209 19.3496 6.89776C19.3729 6.61344 19.3807 6.30575 19.3807 5.9669V5.37877L19.1548 1.26582C19.112 1.14119 19.0886 1.01656 19.0886 0.891922C19.0886 0.619283 19.1938 0.37001 19.408 0.151899C19.7196 0.743914 19.9143 1.38267 19.9961 2.06816H20ZM15.4742 0.3778C15.4742 0.416748 15.4625 0.455696 15.4352 0.498539C15.3924 0.568646 15.369 0.603703 15.369 0.611493C15.3379 0.580334 15.2989 0.564751 15.2561 0.564751C15.2327 0.564751 15.2016 0.572543 15.1704 0.592017C15.0691 0.693283 15.0068 0.876338 14.9796 1.14898C14.9523 1.42162 14.9056 1.60468 14.8432 1.70594C14.7887 1.64362 14.7069 1.48004 14.6018 1.2113C14.5511 1.07887 14.5005 0.981498 14.4421 0.911391C14.4343 0.962024 14.3992 0.985394 14.3291 0.985394C14.2785 0.985394 14.2356 0.973713 14.1967 0.946449C14.1577 0.907501 14.1422 0.860761 14.1422 0.798443C14.1422 0.767285 14.15 0.724438 14.1655 0.673806C14.1811 0.619278 14.1928 0.580333 14.1967 0.549174C14.2201 0.498541 14.2629 0.475171 14.3174 0.475171C14.3564 0.475171 14.3875 0.486858 14.4109 0.514122C14.4927 0.576439 14.5667 0.673808 14.629 0.810127C14.6952 0.942552 14.7653 1.09056 14.8393 1.25414C14.9133 0.934762 14.964 0.747809 14.9873 0.693281C15.073 0.47517 15.1977 0.366116 15.3535 0.366116C15.3768 0.366116 15.4158 0.373907 15.4664 0.385591L15.4742 0.3778ZM14.9873 2.62123C14.964 2.69133 14.925 2.76144 14.8783 2.83155C14.8315 2.90166 14.7381 3.03408 14.594 3.22883C14.3875 3.06135 14.1811 2.89387 13.9786 2.7225C13.9163 2.77702 13.8539 2.8705 13.7916 2.99903C13.7293 3.12755 13.6631 3.21714 13.5969 3.26388C13.3671 3.1704 13.223 3.10809 13.1685 3.07693C13.075 3.0224 13.0166 2.96008 12.9893 2.88997C13.0127 2.8705 13.0828 2.77313 13.1957 2.60176C13.2814 2.46933 13.3671 2.40701 13.4489 2.40701C13.4917 2.40701 13.5424 2.42259 13.6047 2.45764C13.6631 2.4927 13.7332 2.53164 13.815 2.57838C13.8968 2.62512 13.9591 2.67965 14.0019 2.74197L14.5161 2.20059L14.9912 2.62123H14.9873ZM12.2687 2.3408C12.2181 2.39143 12.1558 2.4148 12.0818 2.4148C12.0273 2.4148 11.9766 2.39922 11.9377 2.36417C11.8987 2.32912 11.8676 2.31743 11.8481 2.32133C11.8169 2.37585 11.7702 2.43817 11.7079 2.50049C11.6689 2.53943 11.6339 2.5628 11.5949 2.57449C11.5093 2.59786 11.4275 2.58228 11.3535 2.52775C11.3145 2.49659 11.2833 2.45765 11.26 2.40701C11.2522 2.36807 11.2522 2.31353 11.2522 2.23953C11.2522 1.98247 11.3106 1.75657 11.4314 1.55794C11.443 1.5813 11.4508 1.62026 11.4508 1.67089C11.4508 1.72542 11.4391 1.80331 11.4197 1.90458C11.3963 2.00584 11.3885 2.06816 11.3885 2.09153C11.3885 2.20837 11.443 2.28627 11.556 2.32522C11.5988 2.31743 11.6378 2.30185 11.6728 2.27848C11.7079 2.25511 11.7507 2.21227 11.8092 2.15774C11.8169 2.13438 11.8169 2.09542 11.8169 2.04479C11.8169 1.99416 11.8169 1.94742 11.8092 1.90068C11.8014 1.85395 11.7975 1.8072 11.7897 1.75657C11.7897 1.71373 11.7975 1.67478 11.8092 1.64362C11.8208 1.61246 11.8481 1.5852 11.8948 1.55794C11.9143 1.60857 11.9221 1.6592 11.9221 1.71763C11.9143 1.8111 11.9143 1.88121 11.9143 1.92405C11.9143 1.97468 11.9221 2.02142 11.9338 2.06427C11.9455 2.10711 11.9883 2.13827 12.0662 2.15774H12.187C12.2181 2.14606 12.2337 2.12269 12.2337 2.09153C12.2337 2.04868 12.2181 1.97858 12.1908 1.8851C12.1636 1.79162 12.148 1.72931 12.148 1.69815C12.148 1.62804 12.1753 1.56962 12.2337 1.51899C12.2649 1.59299 12.2921 1.67089 12.3116 1.74879C12.335 1.82668 12.3427 1.92016 12.3427 2.03311C12.3427 2.14606 12.3194 2.24732 12.2765 2.3408H12.2687ZM13.6436 5.00487C13.6436 5.10614 13.628 5.19182 13.593 5.26972C13.5579 5.34761 13.4995 5.40604 13.4099 5.44109C13.3554 5.44109 13.3087 5.41772 13.2775 5.37488C13.2463 5.33204 13.2191 5.27751 13.1918 5.21519C13.1918 5.01655 13.2191 4.82571 13.2775 4.64655C13.3165 4.5336 13.3866 4.36222 13.4917 4.13242C13.4372 4.37391 13.3788 4.61928 13.3242 4.86076C13.3242 4.93476 13.3281 4.98929 13.3398 5.02435C13.3476 5.0594 13.371 5.10614 13.4099 5.16845C13.4606 5.19961 13.5034 5.18793 13.5424 5.1295C13.6047 5.04771 13.6397 5.00487 13.6436 4.99708V5.00487ZM9.18403 0.930866C9.19572 0.981499 9.19182 1.03213 9.16845 1.09056C9.14508 1.14508 9.11782 1.2113 9.07887 1.2853C9.00487 1.33593 8.93087 1.3554 8.86465 1.35151C8.77897 1.22687 8.73223 1.09056 8.73223 0.938658C8.73223 0.837392 8.74391 0.751706 8.76339 0.677704C8.78676 0.603702 8.82571 0.514122 8.88023 0.405067L9.04771 0.151899C9.03992 0.190847 9.01266 0.284321 8.95813 0.43622C8.9036 0.588119 8.88023 0.712758 8.88023 0.806235C8.88023 0.849078 8.88413 0.895816 8.89581 0.946449C8.9036 0.997082 8.93476 1.05161 8.98539 1.11392C9.03603 1.11392 9.07498 1.09445 9.10224 1.05161C9.1295 1.01266 9.15677 0.969817 9.18014 0.926974L9.18403 0.930866ZM12.5492 3.14703C12.4674 3.20156 12.3817 3.25998 12.2921 3.31451C12.2025 3.36903 12.1091 3.41967 12.0156 3.46251C11.8481 3.5443 11.6339 3.6261 11.369 3.71568C10.7264 3.926 10.3564 4.05453 10.2551 4.09737C10.4031 3.98053 10.555 3.87926 10.703 3.79747C10.9406 3.67283 11.2444 3.55209 11.6183 3.43135C11.9221 3.33788 12.2337 3.24051 12.5453 3.14314L12.5492 3.14703ZM14.8004 7.79357C14.8004 7.99221 14.7381 8.17916 14.6173 8.35054C14.4966 8.52191 14.3369 8.66602 14.1461 8.78676C14.1694 8.73613 14.2629 8.62707 14.4265 8.45959C14.5628 8.31548 14.6329 8.19474 14.6329 8.09348C14.6329 8.01168 14.6056 7.94158 14.5472 7.87926C14.4732 7.88705 14.4031 7.926 14.3408 8C14.3174 7.94937 14.3291 7.89095 14.3797 7.82863C14.4304 7.76242 14.4576 7.72347 14.4654 7.71178C14.5278 7.67284 14.5862 7.65726 14.6446 7.65726C14.7303 7.65726 14.7848 7.70399 14.8043 7.79747L14.8004 7.79357ZM11.0886 5.17625C11.0497 5.30088 11.0263 5.37488 11.0146 5.40214C10.9757 5.49562 10.9289 5.56183 10.8666 5.59688C10.8277 5.58909 10.7965 5.56962 10.7653 5.53067C10.7342 5.49172 10.7069 5.44499 10.6797 5.38267C10.6797 5.21519 10.7108 5.0555 10.7731 4.9075C10.8121 4.82181 10.89 4.6777 11.0068 4.47907C10.999 4.51801 10.9523 4.64265 10.8666 4.85297C10.8238 4.95813 10.8004 5.03603 10.8004 5.08666C10.8004 5.19182 10.851 5.27362 10.9484 5.32814C10.9718 5.31646 10.9951 5.28919 11.0107 5.25414C11.0263 5.21519 11.038 5.19182 11.0419 5.18014H11.0886V5.17625ZM17.519 1.87732C17.4645 1.55404 17.3437 1.16845 17.1607 0.72444C16.9776 0.280429 16.8802 0.0389484 16.8647 0C16.8023 0.101266 16.7361 0.206429 16.6699 0.31938C16.5998 0.43233 16.5686 0.525807 16.5686 0.599809C16.5686 0.630967 16.5764 0.673809 16.5959 0.732232C16.5959 1.2113 16.6465 1.84226 16.7439 2.62123C16.8257 3.2444 16.9114 3.89095 17.001 4.56086C17.0906 5.23077 17.1373 5.82278 17.1373 6.3408C16.888 6.60954 16.5959 6.74197 16.2571 6.74197C16.1246 6.74197 16 6.7225 15.8832 6.67965C15.7663 6.64071 15.6845 6.58228 15.6417 6.51217C15.5988 6.44207 15.5755 6.35638 15.5755 6.25511C15.5755 6.23174 15.5833 6.16164 15.5988 6.04479C15.6144 5.92795 15.6222 5.84226 15.6222 5.77994C15.6222 5.69815 15.6144 5.63973 15.5949 5.60078C15.2833 5.71763 14.7965 5.90458 14.1383 6.15385C13.554 6.36417 13.0399 6.52386 12.6037 6.62902C11.926 6.80429 11.295 6.88997 10.7147 6.88997C10.4148 6.88997 10.1149 6.8666 9.81889 6.81597C9.51899 6.76534 9.22298 6.68355 8.93087 6.57449C8.6816 6.4187 8.49854 6.22395 8.3778 5.98637C8.23369 5.69815 8.16358 5.26972 8.16358 4.69718C8.16358 4.58423 8.16358 4.47127 8.16748 4.36222C8.16748 4.24927 8.17137 4.13632 8.17137 4.02726C8.17137 3.89094 8.17137 3.74684 8.16358 3.60273C8.15579 3.45472 8.14411 3.33788 8.12464 3.2444C8.08179 3.28725 8.03895 3.34956 8 3.43135C7.96105 3.51314 7.90652 3.63389 7.83642 3.79747C7.71178 3.96105 7.55209 4.0779 7.36125 4.14801C7.1665 4.21811 6.95618 4.25706 6.72639 4.25706H6.5628C6.50828 4.25706 6.44596 4.24927 6.36806 4.23759C6.29017 4.2259 6.22785 4.148 6.18501 4.00389C6.16553 3.92989 6.13827 3.81694 6.09932 3.66894L5.76436 4.24927C5.75268 4.3817 5.78384 4.56086 5.85784 4.79065C6.02532 5.30088 6.111 5.61636 6.111 5.7332C6.111 5.75657 6.111 5.79552 6.10321 5.84615C5.79942 6.10711 5.47225 6.33301 5.1295 6.51996C4.82571 6.68744 4.47128 6.84323 4.074 6.98734C3.83642 7.0925 3.58325 7.1743 3.30672 7.22493C3.03408 7.27946 2.75365 7.30282 2.46543 7.30282C2.06816 7.30282 1.69815 7.2483 1.36319 7.13535C1.02824 7.0224 0.743914 6.84713 0.514119 6.60175C0.440117 6.50828 0.389484 6.4148 0.358325 6.31743C0.331061 6.22006 0.315482 6.10711 0.315482 5.97468C0.315482 5.81889 0.334956 5.6631 0.377799 5.50341C0.416748 5.34372 0.471276 5.19572 0.533593 5.0594C0.627069 4.85297 0.72444 4.64654 0.821811 4.44401C0.946446 4.20643 1.08277 4.06232 1.23466 4.01558C1.39825 3.93379 1.51899 3.78968 1.60078 3.57547C1.63194 3.50146 1.67868 3.31841 1.74099 3.03408C1.69036 3.04577 1.65141 3.08471 1.62415 3.14703C1.59688 3.20935 1.56962 3.2483 1.54625 3.26777C1.52288 3.28724 1.49172 3.29504 1.46056 3.29504C1.36709 3.29504 1.29309 3.25219 1.23466 3.16261C1.16066 2.9445 1.12171 2.73418 1.12171 2.53554C1.12171 2.15384 1.26972 1.67089 1.56962 1.08666C1.78773 0.658231 1.92016 0.385588 1.97079 0.272638C1.76047 0.521907 1.56962 0.825706 1.40214 1.18014C1.25803 1.49172 1.11782 1.80331 0.9815 2.1149C0.817916 2.50049 0.74002 2.83544 0.74002 3.11587C0.74002 3.3963 0.817916 3.65726 0.97371 3.90263C0.669912 4.3778 0.444012 4.77118 0.299903 5.09056C0.186952 5.34762 0.105161 5.59688 0.0467381 5.84615C0.0389484 5.90847 0.0311587 5.99027 0.0194742 6.08764C0.00778968 6.1889 0 6.29796 0 6.42259C0 6.66407 0.0350536 6.88218 0.101266 7.07303C0.171373 7.26388 0.292113 7.42357 0.467381 7.55599C0.736125 7.71179 1.01266 7.82473 1.30477 7.89873C1.59299 7.96884 1.89679 8.00779 2.21616 8.00779C2.74586 8.00779 3.28724 7.91431 3.84421 7.72347C4.39727 7.53262 4.89971 7.28724 5.34761 6.99124C5.74099 6.82376 6.037 6.54722 6.23564 6.15774C6.4148 5.8072 6.50828 5.40993 6.50828 4.96203C6.76534 4.96203 7.00292 4.89971 7.22882 4.77507C7.40798 4.67381 7.59883 4.5258 7.79747 4.32717C7.80915 4.74002 7.82863 5.25803 7.85979 5.8851C7.88705 6.51217 8.14021 6.97177 8.62317 7.26388C8.95424 7.38851 9.26972 7.47809 9.56573 7.52873C9.86563 7.58325 10.1928 7.60662 10.5472 7.60662C11.0263 7.60662 11.5248 7.55209 12.0389 7.44304C12.5531 7.33398 13.0672 7.18598 13.5852 6.99903C13.9903 6.85492 14.4537 6.66796 14.9796 6.43817C15.0107 6.42649 15.0458 6.4148 15.0808 6.39922C15.1198 6.38754 15.1509 6.37975 15.1821 6.37975C15.2639 6.37975 15.3301 6.40312 15.3768 6.45375C15.3963 6.47323 15.4002 6.49659 15.3924 6.52775C15.3846 6.55891 15.369 6.59397 15.3496 6.62902C15.3379 6.73028 15.3301 6.80818 15.3301 6.86271C15.3301 6.95618 15.3379 7.03408 15.3574 7.0964C15.3768 7.15872 15.4197 7.21714 15.4898 7.26777C15.5599 7.3223 15.6378 7.36125 15.7235 7.3924C15.8092 7.42356 15.9455 7.43915 16.1246 7.43915C16.1636 7.43915 16.2064 7.43914 16.261 7.43525C16.3155 7.43525 16.3778 7.42746 16.4518 7.41967C16.7829 7.33788 17.0321 7.12756 17.1996 6.78481C17.2931 6.59007 17.3788 6.27069 17.4606 5.82278L17.0594 1.68257L17.1723 1.48783C17.1723 1.48783 17.2463 1.58131 17.3398 1.71373C17.3944 1.79552 17.4567 1.85394 17.5268 1.89289L17.519 1.87732ZM5.87342 0.44791C5.85005 0.518017 5.82668 0.572544 5.80721 0.611493C5.78773 0.650441 5.75268 0.654334 5.69426 0.615385C5.63194 0.560858 5.54625 0.537489 5.44109 0.549174C5.37098 0.65044 5.30867 0.821811 5.25414 1.07108C5.19961 1.32035 5.12561 1.49951 5.03992 1.60467C4.98539 1.56183 4.91529 1.41772 4.83739 1.18014C4.75949 0.938656 4.64265 0.821811 4.48686 0.821811C4.44401 0.821811 4.40896 0.821813 4.38559 0.829603C4.3739 0.810129 4.36612 0.775071 4.36612 0.728333C4.36612 0.666016 4.38169 0.607596 4.40896 0.549174C4.43622 0.490751 4.47907 0.43622 4.53359 0.381693C4.65823 0.412851 4.7517 0.486854 4.81402 0.607594C4.89581 0.806231 4.9776 1.00487 5.06719 1.2074C5.15287 0.946448 5.22298 0.751704 5.27361 0.627069C5.36709 0.389484 5.51509 0.288221 5.71373 0.31938L5.87342 0.451803V0.44791ZM4.13632 2.51217C4.05063 2.7186 3.92989 2.92502 3.78189 3.12756C3.65725 3.06524 3.53262 3.00292 3.40798 2.94061C3.26388 2.85492 3.17819 2.76144 3.14703 2.66018L3.52872 2.15385C3.61441 2.185 3.71568 2.23564 3.82473 2.30964C3.93379 2.37975 4.03895 2.44985 4.13632 2.51217ZM4.77118 4.92308C4.72055 5.09056 4.69328 5.18014 4.68549 5.18403C4.64654 5.27751 4.59202 5.35151 4.51801 5.40993C4.46349 5.40993 4.41675 5.39046 4.38169 5.34761C4.34664 5.30866 4.32327 5.26582 4.31159 5.22298C4.2999 5.18014 4.29211 5.14509 4.29211 5.12172V5.06718C4.29211 4.95423 4.30769 4.84908 4.33885 4.74781C4.37001 4.64654 4.4518 4.44401 4.58033 4.14022C4.5258 4.36612 4.47128 4.58812 4.42064 4.81402C4.42064 4.95813 4.47517 5.06329 4.58812 5.1334C4.61149 5.11393 4.63875 5.07887 4.66602 5.02045C4.69328 4.96203 4.72834 4.93477 4.76339 4.92698L4.77118 4.92308ZM7.83642 7.7741L7.40799 8.32717L6.7147 7.89873L6.30185 8.36611L5.65531 8L6.07595 7.43135L6.74976 7.81305L7.22493 7.36514L7.83252 7.778L7.83642 7.7741ZM3.06134 4.87634C3.06134 4.91918 3.04966 4.96203 3.0224 5.00876C2.99903 5.05161 2.97566 5.09445 2.95618 5.1295C2.85492 5.11003 2.78092 5.10224 2.73028 5.10224C2.68744 5.10224 2.65239 5.11003 2.62902 5.12172C2.55891 5.21519 2.51217 5.33983 2.48101 5.49562C2.39922 5.90068 2.34859 6.12658 2.32132 6.17722C2.25901 6.13437 2.16164 5.96689 2.03311 5.68257C1.93184 5.45667 1.78384 5.34761 1.5852 5.34761C1.54236 5.30477 1.51899 5.25414 1.51899 5.19961C1.51899 5.14898 1.52678 5.10224 1.54236 5.0594C1.55794 5.01656 1.57352 4.9776 1.5852 4.94644C1.60857 4.92308 1.63973 4.9075 1.67868 4.9075C1.70983 4.9075 1.75657 4.92697 1.81889 4.96203C1.90458 5.04382 1.98247 5.14508 2.04479 5.26972C2.12658 5.45667 2.20837 5.64362 2.29796 5.83058C2.37196 5.56183 2.43038 5.3554 2.46543 5.21519C2.53944 4.94645 2.66018 4.81402 2.81986 4.81402C2.89387 4.81402 2.97566 4.83739 3.06134 4.88023V4.87634Z" fill="white"/>
</svg>
