<svg width="20" height="9" viewBox="0 0 20 9" fill="none" xmlns="http://www.w3.org/2000/svg">
<path fill-rule="evenodd" clip-rule="evenodd" d="M20 2.11066C19.953 2.09784 19.8932 2.03803 19.8248 1.93548C19.7565 1.83294 19.7052 1.76886 19.671 1.73895L19.5898 1.84149C19.5898 2.15766 19.6283 2.64474 19.7009 3.30699C19.7778 3.96925 19.812 4.46486 19.812 4.79385V5.1613C19.812 5.75519 19.7992 6.17817 19.7693 6.43452C19.7223 6.86605 19.624 7.2634 19.4702 7.63512C19.4958 7.43858 19.5172 7.19933 19.53 6.92588C19.5428 6.65243 19.5514 6.38753 19.5514 6.13545C19.5514 5.4732 19.5001 4.68276 19.3976 3.76843C19.295 2.85409 19.201 1.98249 19.1113 1.1536C19.0558 1.09379 19.0301 1.02542 19.0301 0.948516C19.0301 0.871609 19.0558 0.794708 19.1028 0.713528C19.2523 0.465718 19.3292 0.341807 19.3292 0.333262C19.5599 0.751976 19.7095 1.02542 19.7693 1.16215C19.9188 1.50395 19.9957 1.82012 19.9957 2.10638L20 2.11066ZM16.6161 1.67913C16.5691 1.79449 16.4666 1.90131 16.3085 1.99531C16.0607 2.14485 15.8171 2.29439 15.5693 2.4482C15.5437 2.39266 15.5522 2.33284 15.5992 2.26448C15.6676 2.18757 15.7402 2.11066 15.8129 2.02948C15.8129 1.98675 15.736 1.96967 15.5779 1.96967C15.5223 1.94404 15.4967 1.90131 15.4967 1.84576C15.4967 1.81158 15.5095 1.76886 15.5309 1.71759C15.5565 1.66632 15.5821 1.61932 15.6163 1.58086C15.6847 1.52532 15.7573 1.4655 15.8385 1.40141C15.9154 1.33732 15.988 1.30315 16.0479 1.30315C16.1077 1.30315 16.1589 1.33306 16.2017 1.39715C16.2102 1.45696 16.1931 1.51677 16.1504 1.57659C16.1077 1.6364 16.0863 1.67058 16.0778 1.6834L15.9752 1.52959C15.9197 1.52959 15.8684 1.5424 15.8214 1.57231C15.7744 1.59795 15.7274 1.63214 15.6761 1.67486C15.7701 1.80304 15.9239 1.8714 16.129 1.8714C16.176 1.8714 16.2401 1.86286 16.3256 1.85004L16.6118 1.68768L16.6161 1.67913ZM16.7614 2.11066C16.5563 2.2132 16.3512 2.31148 16.1461 2.40975C16.0179 2.46956 15.9111 2.53365 15.83 2.59774C15.7488 2.66183 15.6847 2.74301 15.6462 2.83701C15.7231 2.79001 15.8214 2.73446 15.9453 2.67465C16.0137 2.64901 16.1077 2.60629 16.2273 2.54647C16.3469 2.48666 16.4537 2.42256 16.5435 2.34993C16.6332 2.27729 16.7101 2.19611 16.7656 2.11066H16.7614ZM17.0476 3.51635C17.0605 3.59753 17.0562 3.67016 17.0305 3.72998C17.0049 3.78979 16.9793 3.85816 16.9451 3.93507C16.8767 3.96925 16.8169 3.94361 16.7614 3.85389C16.7486 3.82825 16.7315 3.7898 16.7144 3.74707C16.6973 3.70434 16.6887 3.65307 16.6887 3.59753C16.6887 3.5078 16.7058 3.4138 16.74 3.31553C16.7742 3.21727 16.8169 3.119 16.8639 3.025C16.8554 3.08055 16.8468 3.14464 16.834 3.213C16.8212 3.28563 16.8126 3.34117 16.8126 3.3839C16.8126 3.5078 16.8511 3.61035 16.9237 3.69152L17.0476 3.51635ZM18.2482 2.03803C18.1884 1.69623 18.103 1.39714 18.0004 1.13651C17.8765 0.820339 17.7184 0.56398 17.5176 0.358896C17.5048 0.41444 17.4493 0.508443 17.3595 0.645165C17.2655 0.781888 17.2228 0.892971 17.2228 0.97415C17.2228 1.04251 17.2399 1.10234 17.2741 1.15788L17.8381 5.30229C17.8381 5.30229 17.8466 5.39629 17.8594 5.55865C17.8722 5.721 17.8808 5.84064 17.8808 5.909C17.8808 6.04572 17.8637 6.16108 17.8338 6.2508C17.8039 6.34053 17.7441 6.42598 17.6543 6.50288C17.6543 6.3918 17.6415 6.27217 17.6116 6.14399C17.586 6.01581 17.5518 5.90473 17.5176 5.815C16.5136 4.46914 15.5095 3.11899 14.514 1.76458C14.4713 1.71758 14.4328 1.66631 14.3944 1.61504C14.3559 1.56377 14.3388 1.51249 14.3388 1.4655C14.3388 1.43986 14.3474 1.40569 14.3687 1.37151C14.4157 1.40569 14.4713 1.43987 14.5311 1.47833C14.5909 1.51678 14.6422 1.54241 14.6849 1.55523C14.6165 1.39287 14.4798 1.19633 14.2747 0.969887C14.0013 0.66226 13.8432 0.482803 13.8047 0.427259C13.7107 0.504166 13.6424 0.615257 13.5997 0.764797C13.574 0.910066 13.5484 1.04679 13.527 1.18352C13.8432 1.67059 14.1679 2.14484 14.5097 2.61482C14.8515 3.08481 15.1933 3.55052 15.5351 4.01623C15.9026 4.45204 16.2786 4.88785 16.6546 5.31938C17.0989 5.84064 17.3766 6.31489 17.4834 6.74643C17.1203 7.08823 16.7058 7.37877 16.2316 7.61804C15.8342 7.81458 15.3685 7.99403 14.8387 8.15211C15.2019 8.15211 15.5992 8.10938 16.0265 8.0282C16.458 7.94702 16.8212 7.82311 17.1245 7.66075C17.492 7.3104 17.7483 6.88315 17.8936 6.37044C18.0047 5.98163 18.056 5.4732 18.056 4.85367C18.056 4.56741 17.9748 3.90515 17.8082 2.86264C17.7398 2.43111 17.7056 2.05512 17.7056 1.73467L17.8082 1.60222C17.8765 1.69195 17.9406 1.76458 18.0047 1.82867C18.0688 1.89276 18.1457 1.96112 18.2397 2.0423L18.2482 2.03803ZM12.2794 1.32878C12.3136 1.37578 12.3093 1.43987 12.2709 1.5125C12.2111 1.62786 12.1769 1.69195 12.1769 1.69622C12.1427 1.75176 12.0957 1.7774 12.0316 1.7774C11.9974 1.7774 11.9718 1.76458 11.9504 1.73467C11.8949 1.65349 11.8693 1.56377 11.8693 1.46977C11.8693 1.38859 11.8821 1.30742 11.912 1.23479C11.9376 1.15788 12.0017 1.03825 12.0957 0.875889C12.1085 0.918615 12.0957 0.995512 12.053 1.1066C12.0103 1.21769 11.9932 1.29887 11.9932 1.34586C11.9932 1.43559 12.0487 1.49113 12.1555 1.52104L12.2794 1.32451V1.32878ZM13.6424 2.9609C13.5997 3.07626 13.5484 3.18309 13.48 3.27708C13.3775 3.40099 13.3006 3.49071 13.2536 3.5548C13.1938 3.52062 13.0955 3.44798 12.9673 3.34117C12.8776 3.26426 12.8178 3.21727 12.7836 3.1959C12.8263 3.08054 12.8776 2.978 12.9374 2.88828C12.9972 2.79855 13.0784 2.70883 13.1724 2.62338C13.2493 2.64474 13.3305 2.68746 13.4202 2.75583C13.48 2.80282 13.5569 2.87118 13.6467 2.9609H13.6424ZM11.6129 0.21363C11.6129 0.303354 11.5702 0.367443 11.4847 0.414442C11.3993 0.457168 11.3181 0.499893 11.2455 0.534074C10.8438 0.670797 10.4849 0.798981 10.1773 0.914341C9.86969 1.0297 9.53215 1.17069 9.16044 1.33305C9.16044 1.27323 9.19034 1.20487 9.25443 1.13651C9.31425 1.06815 9.38261 1.02542 9.45097 1.0126C9.8056 0.875879 10.173 0.739156 10.549 0.59816C10.925 0.457165 11.2796 0.32899 11.6172 0.21363H11.6129ZM11.9803 3.28135C11.9376 3.31553 11.8821 3.4138 11.8052 3.58043C11.7283 3.74279 11.6471 3.82825 11.5574 3.82825C11.5317 3.82825 11.4975 3.8197 11.4548 3.79834C11.4292 3.73852 11.3523 3.67871 11.2284 3.62316C11.1045 3.56762 11.0446 3.52062 11.0446 3.4779C11.0446 3.44371 11.0617 3.40526 11.0959 3.3668L11.4975 2.98655L11.9803 3.28562V3.28135ZM10.3397 2.59347L10.2799 2.82845L9.98077 2.63192C9.95941 2.82418 9.92523 3.00363 9.87823 3.17453C9.83123 3.34544 9.76287 3.5078 9.67315 3.65734C9.62615 3.59752 9.55779 3.44371 9.46806 3.1959C9.42106 3.06773 9.37406 2.96518 9.32279 2.89682C9.30998 2.93954 9.28434 2.95664 9.25016 2.95664C9.2288 2.95664 9.19889 2.94809 9.16471 2.92673C9.12625 2.90536 9.09635 2.89254 9.07926 2.884C9.05362 2.85836 9.03653 2.82418 9.03653 2.79C9.03653 2.76437 9.04935 2.72165 9.07071 2.66183C9.09635 2.60201 9.10489 2.56356 9.10489 2.5422C9.16044 2.50802 9.21598 2.47384 9.26725 2.43966C9.30143 2.43966 9.32707 2.46528 9.34843 2.52083C9.43815 2.62337 9.51079 2.75155 9.56206 2.90109C9.6176 3.05063 9.67315 3.19591 9.72442 3.33263C9.76714 3.10191 9.80132 2.90537 9.83123 2.74301C9.86114 2.58065 9.92523 2.4482 10.0192 2.33711C10.079 2.37129 10.1389 2.40975 10.1944 2.4482C10.2499 2.49093 10.2927 2.53365 10.3269 2.58065L10.3397 2.59347ZM14.279 5.5971C14.3004 5.68682 14.3175 5.77228 14.3303 5.85773C14.3431 5.94318 14.3516 6.02863 14.3516 6.10981C14.3516 6.30208 14.3175 6.47725 14.2534 6.63961C14.1893 6.80197 14.0825 6.95151 13.9286 7.09678C13.7577 7.19078 13.5697 7.26768 13.3647 7.31895C13.1596 7.37022 12.9417 7.39585 12.7067 7.39585C12.4888 7.39585 12.2752 7.37023 12.0658 7.32323C11.8564 7.27623 11.6684 7.19932 11.4975 7.09678C11.2796 7.19932 11.0532 7.26768 10.8225 7.30613C10.5918 7.34459 10.3354 7.36168 10.0534 7.36168C9.86114 7.36168 9.56633 7.34886 9.16044 7.31895C8.75881 7.29332 8.45119 7.27622 8.2461 7.27622C8.08801 7.27622 7.94275 7.28478 7.80602 7.29759C7.31895 7.34459 7.04978 7.37022 6.99423 7.37022C6.70797 7.37022 6.48152 7.33604 6.31916 7.26768C6.10126 7.17796 5.92608 7.01987 5.79791 6.78488C5.66118 6.34053 5.56719 5.85346 5.51591 5.32366C5.46464 4.79386 5.43901 4.22987 5.43901 3.62744C5.43901 3.41381 5.43901 3.08909 5.44755 2.65329C5.4561 2.21748 5.4561 1.88849 5.4561 1.67058C5.4561 1.54668 5.44755 1.43559 5.43474 1.33305C5.38774 0.965604 5.3621 0.764799 5.3621 0.739163C5.3621 0.589622 5.38347 0.461438 5.42192 0.358896C5.46464 0.256354 5.53728 0.162364 5.64837 0.0726398C5.70818 0.43581 5.75091 0.790435 5.768 1.14079C5.78509 1.49114 5.79363 1.9184 5.79363 2.42256C5.79363 2.63619 5.79363 2.84554 5.78936 3.0549C5.78936 3.26426 5.78509 3.47362 5.78509 3.68725C5.78509 4.15296 5.79363 4.51613 5.81072 4.78531C5.82781 5.05021 5.86627 5.38775 5.93036 5.78937C5.99872 5.95173 6.07562 6.09699 6.1568 6.22089C6.26789 6.37898 6.39607 6.49434 6.54561 6.57125C6.84042 6.2978 7.04978 6.09272 7.18223 5.95599C7.42149 5.70391 7.54112 5.44756 7.54112 5.18693C7.54112 5.13139 7.54112 5.08866 7.53258 5.05448C7.53258 4.36232 7.49412 3.65306 7.42149 2.92245C7.34458 2.19184 7.24204 1.42277 7.11386 0.615254C7.14805 0.491349 7.19932 0.375986 7.26768 0.264899C7.33604 0.153811 7.41295 0.0683615 7.50267 0C7.80175 0.499893 8.03247 0.999786 8.19056 1.50822C8.10083 1.49541 8.01965 1.44841 7.93847 1.36296C7.86157 1.28178 7.78466 1.2006 7.7163 1.11515C7.70775 1.20488 7.70348 1.28177 7.69921 1.34586C7.69921 1.40995 7.69494 1.46551 7.69494 1.51678C7.69494 1.7475 7.72484 2.19184 7.78893 2.84127C7.82311 3.20444 7.84021 3.47789 7.84021 3.66161C7.84021 4.32387 7.74621 4.96903 7.55394 5.60137C7.64794 5.54583 7.8103 5.42192 8.03674 5.23392C8.39991 4.93484 8.71181 4.78103 8.96817 4.78103C9.01517 4.78958 9.05362 4.78958 9.07926 4.78958C9.41252 4.84513 9.67742 4.91776 9.86969 5.00321C10.1303 5.11857 10.3439 5.2852 10.5148 5.50738C10.4465 5.78937 10.3696 6.00726 10.2799 6.16535C10.1645 6.38325 10.0021 6.54989 9.79705 6.66952C9.66033 6.7507 9.49797 6.82761 9.30998 6.89597C9.12198 6.96433 8.97671 7.01559 8.87417 7.04978C9.24162 7.04978 9.60906 7.01133 9.9765 6.9387C10.3439 6.86179 10.7413 6.75497 11.1728 6.6097C11.1728 6.19953 11.2497 5.83208 11.3993 5.51164C11.5787 5.13565 11.8351 4.87076 12.1769 4.72122C12.2581 4.7084 12.335 4.73404 12.4033 4.8024C12.4717 4.87076 12.523 4.94766 12.5571 5.03311C12.5913 5.11856 12.6127 5.1912 12.617 5.24674C12.6255 5.30656 12.6255 5.3792 12.6255 5.46892C12.6255 5.65265 12.5999 5.84491 12.5443 6.04999C12.4888 6.2508 12.4332 6.44734 12.382 6.63961C12.5443 6.68234 12.7067 6.69942 12.8648 6.69942C13.0827 6.69942 13.292 6.66524 13.4971 6.59688C13.6979 6.52852 13.8902 6.43453 14.0782 6.31063C14.044 6.14827 13.9799 5.96881 13.8902 5.78082C13.7962 5.59282 13.7065 5.4091 13.6167 5.23392C13.5612 5.11002 13.527 5.00749 13.5099 4.92203C13.4928 4.83658 13.4843 4.75112 13.4843 4.66994C13.4843 4.58021 13.4971 4.4905 13.527 4.3965C13.5527 4.3025 13.6039 4.2085 13.6723 4.11451C13.8176 4.43068 13.9244 4.66994 14.0013 4.8323C14.138 5.13138 14.232 5.39201 14.2875 5.60991L14.279 5.5971ZM6.43452 0.499899C6.40034 0.508444 6.37471 0.525528 6.35334 0.559708C6.33198 0.593889 6.31062 0.636619 6.28071 0.683617C6.40889 0.9357 6.47725 1.23478 6.47725 1.57659C6.47725 1.75604 6.45589 1.92266 6.41743 2.08075C6.54134 1.8543 6.60115 1.58086 6.60115 1.26042C6.60115 0.965611 6.54561 0.713528 6.43879 0.499899H6.43452ZM4.80239 1.39287C4.78957 1.49541 4.76821 1.58087 4.74258 1.64923C4.69558 1.76031 4.63149 1.8244 4.55885 1.84576C4.51186 1.86713 4.46486 1.85431 4.4264 1.80303C4.38368 1.75604 4.35804 1.72186 4.34523 1.7005C4.33668 1.65777 4.33668 1.60222 4.33668 1.52532C4.33668 1.3886 4.36232 1.23478 4.41359 1.06815C4.46486 0.901517 4.50331 0.769074 4.53322 0.675077C4.54604 0.73062 4.55458 0.769065 4.55458 0.786155C4.55458 0.854517 4.53749 0.952791 4.50758 1.08524C4.47768 1.21342 4.46059 1.29887 4.46059 1.33305C4.46059 1.40141 4.4734 1.45695 4.49477 1.49541C4.5204 1.53813 4.5674 1.57232 4.64431 1.59796C4.66567 1.58514 4.68703 1.54669 4.71267 1.49114C4.7383 1.43133 4.76821 1.40141 4.81094 1.39287H4.80239ZM6.96432 3.99915C6.93869 4.0077 6.90878 4.04188 6.88314 4.10597C6.85751 4.17006 6.82333 4.20423 6.7806 4.20423C6.72506 4.15723 6.69088 4.10169 6.67379 4.04614C6.6567 3.98633 6.64815 3.90942 6.64815 3.81542C6.64815 3.74706 6.6567 3.66161 6.67806 3.5548C6.69942 3.44798 6.71224 3.38389 6.72079 3.3668C6.65242 3.48216 6.60115 3.58898 6.57124 3.69152C6.54134 3.78979 6.52425 3.8966 6.52425 4.01623C6.52425 4.09314 6.53279 4.16577 6.54988 4.24268C6.56697 4.31959 6.59261 4.37941 6.63106 4.42641C6.66952 4.47341 6.71651 4.4905 6.7806 4.47768C6.90451 4.36232 6.96432 4.20423 6.96432 4.00769V3.99915ZM11.8265 7.92566C11.6813 8.04102 11.5146 8.14783 11.3224 8.24183C11.1301 8.33583 10.9336 8.42128 10.7285 8.49391C10.5234 8.56655 10.3183 8.64346 10.109 8.72464C9.89959 8.80582 9.71587 8.89127 9.56206 8.981C9.53642 8.92545 9.54497 8.86991 9.59197 8.80582C9.6176 8.77164 9.66887 8.72891 9.73724 8.68191C10.4337 8.42983 11.1301 8.17774 11.8308 7.92139L11.8265 7.92566ZM3.46934 0.841701L3.41807 1.02542C3.37107 1.03396 3.31126 1.00833 3.23862 0.948516C3.16599 0.888699 3.11045 0.867335 3.06772 0.880153C3.02072 0.982695 2.97372 1.1536 2.92245 1.38859C2.87545 1.62358 2.84555 1.76886 2.82846 1.8244C2.86264 1.85859 2.95663 1.92267 3.11472 2.02094C3.2429 2.09785 3.31126 2.17475 3.31126 2.25593C3.31126 2.27729 3.30699 2.29866 3.29417 2.32429C3.28562 2.34993 3.11472 2.39266 2.78573 2.46102C2.5721 2.50802 2.4311 2.60201 2.3542 2.73873C2.44392 3.17454 2.53365 3.61035 2.6191 4.04188C2.64473 4.2256 2.66182 4.35378 2.6661 4.42641C2.6661 4.49905 2.67037 4.57167 2.67037 4.64858C2.67037 4.90066 2.63619 5.13993 2.56783 5.36637C2.60201 5.20829 2.6191 5.07157 2.6191 4.95621C2.6191 4.81094 2.61055 4.68276 2.58919 4.5674C2.56783 4.45204 2.51228 4.23413 2.41401 3.92224C2.35847 3.73851 2.31147 3.56335 2.27729 3.40099C2.23884 3.23863 2.22175 3.08481 2.22175 2.93954C2.22175 2.77719 2.23884 2.64047 2.27302 2.52938C2.33283 2.4482 2.41401 2.37983 2.51228 2.32429C2.61055 2.26875 2.72164 2.22602 2.84555 2.19184C2.80282 2.12348 2.743 2.0893 2.66182 2.0893C2.64046 2.0893 2.61483 2.09785 2.58065 2.11921C2.53792 2.11067 2.50801 2.13203 2.48665 2.17902C2.46529 2.22602 2.44819 2.25593 2.43538 2.2602C2.41401 2.21748 2.41401 2.16194 2.43538 2.0893C2.45674 2.01667 2.48238 1.95685 2.51656 1.90985C2.56355 1.87567 2.60201 1.85004 2.63619 1.83722C2.6661 1.8244 2.70455 1.82012 2.743 1.82867C2.70028 1.71331 2.65755 1.59368 2.61483 1.47405C2.5721 1.35442 2.51228 1.23905 2.43538 1.13223C2.42683 1.18778 2.40974 1.21341 2.37556 1.21341C2.3542 1.21341 2.32429 1.2006 2.28156 1.17924C2.23884 1.1536 2.19611 1.12797 2.15339 1.10234C2.11066 1.0767 2.08502 1.0297 2.08502 0.969887C2.08502 0.922888 2.09357 0.875886 2.10639 0.833161C2.11921 0.790435 2.1363 0.743433 2.15339 0.696434C2.17048 0.649436 2.19611 0.623808 2.23029 0.623808C2.25593 0.623808 2.28584 0.63662 2.31147 0.657983C2.33711 0.683618 2.36702 0.704983 2.39265 0.726346C2.47383 0.81607 2.55501 0.931433 2.62764 1.0767C2.64046 1.10234 2.70028 1.23478 2.80282 1.4655C2.837 1.40995 2.87118 1.28179 2.90963 1.0767C2.94809 0.871617 3.01218 0.726345 3.09763 0.645165C3.24717 0.645165 3.3668 0.713532 3.45653 0.850255L3.46934 0.841701ZM6.95578 8.78872C6.90023 8.81436 6.85324 8.81008 6.81906 8.77163C6.7806 8.73318 6.75924 8.69473 6.75069 8.66055C6.74215 8.6221 6.74215 8.5751 6.74215 8.51101C6.74215 8.38283 6.76778 8.26319 6.81478 8.15637C6.86178 8.04956 6.93441 7.92567 7.02841 7.7804C6.97287 7.96412 6.91733 8.14784 6.86605 8.33583C6.86605 8.41274 6.88742 8.4811 6.92587 8.54092C6.97287 8.54092 7.01132 8.50673 7.03696 8.44264C7.06259 8.37856 7.07968 8.3401 7.08823 8.33583C7.10105 8.39137 7.10959 8.42983 7.10959 8.44692C7.10959 8.50674 7.09677 8.56227 7.07541 8.60927C7.04978 8.65627 7.01132 8.71608 6.95578 8.78445V8.78872ZM4.84512 5.15702C4.84512 5.01175 4.78957 4.84084 4.68276 4.6443C4.62722 4.54176 4.53749 4.38795 4.40504 4.18287C4.34522 4.28541 4.28114 4.38796 4.21705 4.49477C4.15296 4.60159 4.11878 4.69986 4.11878 4.78531C4.11878 4.86221 4.14441 4.9263 4.19141 4.98184C4.19141 5.01602 4.19141 5.06302 4.18287 5.12711C4.27259 5.58428 4.36232 6.04144 4.46059 6.50288C4.05896 6.80197 3.58043 7.08824 3.02499 7.35314C2.64901 7.53259 2.14484 7.74194 1.50822 7.98975C0.747704 8.28456 0.24781 8.48109 0 8.58363C0.683615 8.52382 1.3715 8.45973 2.05939 8.39992C2.58492 8.16065 3.11045 7.91712 3.64025 7.67358C4.24696 7.34459 4.59304 6.91305 4.67421 6.38325C4.74258 6.26789 4.77676 6.15253 4.77676 6.0329C4.77676 5.95172 4.75539 5.83637 4.71694 5.69537C4.64003 5.43474 4.60585 5.26383 4.60585 5.18266C4.60585 5.09293 4.61867 5.0203 4.64858 4.95621L4.85366 5.1613L4.84512 5.15702ZM12.3606 6.18244C12.3478 6.0799 12.335 5.97309 12.3307 5.86627C12.3179 5.80646 12.2922 5.7381 12.2581 5.66974C12.1897 5.5202 12.1042 5.44329 12.0017 5.44329C11.912 5.44329 11.8094 5.50309 11.6941 5.61845C11.6044 5.70818 11.5274 5.80645 11.4591 5.91754C11.4249 6.02008 11.4591 6.12263 11.5531 6.22517C11.63 6.30207 11.6813 6.35334 11.7069 6.37898C11.7283 6.38752 11.7667 6.38753 11.818 6.38753C11.8949 6.38753 11.9889 6.36189 12.1043 6.30635C12.2196 6.2508 12.3051 6.21235 12.3606 6.18244ZM10.0021 6.02008C9.87823 5.87481 9.68169 5.75519 9.40825 5.65264C9.26298 5.60564 9.12625 5.55437 8.98953 5.49882C8.86563 5.46464 8.75881 5.44755 8.67336 5.44755C8.37428 5.44755 8.05383 5.59709 7.72057 5.90045C7.43858 6.15253 7.16513 6.40461 6.89169 6.66097C6.98141 6.66951 7.05832 6.67379 7.12241 6.67806C7.1865 6.67806 7.24204 6.68234 7.29331 6.68234C7.72912 6.68234 8.1991 6.61397 8.69899 6.47725C8.99808 6.39607 9.43815 6.24653 10.0107 6.02436L10.0021 6.02008Z" fill="white"/>
</svg>
