<svg width="20" height="11" viewBox="0 0 20 11" fill="none" xmlns="http://www.w3.org/2000/svg">
<path fill-rule="evenodd" clip-rule="evenodd" d="M20 2.3778C19.9031 2.35138 19.8195 2.27212 19.7578 2.14443C19.6962 2.01673 19.6301 1.90664 19.5685 1.81857L19.4848 1.93306C19.4848 2.29414 19.5068 2.71686 19.5465 3.21003C19.6433 4.36371 19.6962 5.09466 19.6962 5.39849C19.6962 6.10303 19.6653 6.67107 19.5993 7.09819C19.5156 7.67063 19.3571 8.19022 19.1237 8.66138C19.203 8.24746 19.2558 7.84235 19.2823 7.44605C19.3087 7.04975 19.3263 6.60941 19.3263 6.12504C19.3263 5.52619 19.2999 4.86129 19.2426 4.12593C19.2206 3.85293 19.1105 2.7609 18.9036 0.849843C18.9036 0.744162 18.9256 0.647283 18.9652 0.554812C19.0092 0.462342 19.1193 0.303828 19.3043 0.079257C19.4672 0.493172 19.5993 0.871863 19.705 1.21092C19.8371 1.62483 19.9384 2.01232 20 2.3734V2.3778ZM15.5923 2.2413C15.3457 2.33377 15.1915 2.39541 15.1255 2.42623C15.0594 2.45706 14.9802 2.5143 14.8833 2.60237C14.8217 2.60237 14.76 2.58476 14.6984 2.54513C14.6367 2.5055 14.5795 2.46587 14.5222 2.42184C14.487 2.35139 14.4694 2.2545 14.4694 2.13561C14.4694 1.93746 14.5266 1.73931 14.6367 1.54557C14.6499 1.58079 14.6499 1.64685 14.6323 1.74813C14.6147 1.845 14.6059 1.90664 14.6059 1.92865C14.6059 2.03433 14.6499 2.11359 14.7336 2.16203C14.7908 2.17524 14.8437 2.16204 14.8965 2.1136C14.9494 2.06957 14.9846 2.04315 15.0066 2.03434C15.0198 1.87142 15.033 1.73492 15.0418 1.62043C15.0506 1.50594 15.0947 1.43108 15.1739 1.38705V1.5896C15.1739 1.69528 15.1871 1.78335 15.2092 1.8494C15.2356 1.91545 15.2884 1.96389 15.3721 1.99031C15.469 1.95508 15.5218 1.91105 15.5218 1.85381C15.5086 1.81858 15.4954 1.79656 15.491 1.79215C15.4557 1.7217 15.4381 1.66005 15.4381 1.61161C15.4381 1.53235 15.4646 1.4575 15.5218 1.37824C15.6187 1.49713 15.6715 1.66005 15.6715 1.86261C15.6715 2.00351 15.6451 2.13122 15.5878 2.2413H15.5923ZM15.8653 0.0440227C15.3721 0.193736 14.8701 0.347857 14.3549 0.515184C13.8397 0.682511 13.3686 0.832229 12.937 0.973136C12.6684 1.06561 12.1841 1.22853 11.4795 1.47072C11.3474 1.52796 11.2285 1.61603 11.1273 1.73492C11.026 1.85381 10.9731 1.96829 10.9731 2.07397C11.4399 1.8406 11.9375 1.62483 12.4747 1.43109C12.8005 1.3122 13.3113 1.13606 14.0159 0.902681C14.8613 0.620866 15.3809 0.449139 15.5702 0.383089L15.8653 0.0440227ZM15.6979 3.90136C15.7111 3.9498 15.7067 4.00704 15.6891 4.06869C15.6407 4.18318 15.5923 4.29325 15.5526 4.40774C15.5174 4.42095 15.469 4.41655 15.4117 4.39894C15.3501 4.37692 15.306 4.32849 15.2752 4.24923C15.2444 4.16997 15.2268 4.09951 15.2268 4.02906C15.2268 3.93659 15.2532 3.83091 15.306 3.71202C15.3589 3.59313 15.3985 3.50506 15.4293 3.44781C15.3941 3.54028 15.3765 3.63716 15.3765 3.74284C15.3765 3.90577 15.4293 4.02465 15.535 4.10391C15.5702 4.0951 15.6055 4.06428 15.6363 4.00703C15.6671 3.94979 15.6891 3.91457 15.7067 3.90136H15.6979ZM10.6341 1.13165C10.5856 1.29457 10.5548 1.38706 10.5504 1.40467C10.5064 1.50154 10.4447 1.5808 10.3611 1.63805C10.2906 1.65126 10.229 1.64244 10.1761 1.61161C10.1233 1.58079 10.0881 1.54116 10.0705 1.50153C10.0528 1.4575 10.0396 1.41347 10.0352 1.36943C10.0264 1.3254 10.0264 1.28137 10.0264 1.24614C10.0264 1.14046 10.0528 1.02597 10.1013 0.898273C10.1101 0.876256 10.2026 0.695719 10.3875 0.361064C10.3875 0.418308 10.3567 0.5284 10.2906 0.686921C10.229 0.849845 10.1937 0.973137 10.1937 1.0568C10.1937 1.17129 10.2334 1.26376 10.3082 1.34302C10.3787 1.36503 10.4403 1.3342 10.4932 1.25494C10.546 1.17568 10.5945 1.13165 10.6341 1.13165ZM17.2391 2.1048C17.107 1.66887 16.9705 1.22853 16.8384 0.783795C16.7459 0.479964 16.6358 0.220167 16.5126 0C16.4069 0.114487 16.3276 0.228964 16.2748 0.347855C16.2219 0.466745 16.1779 0.607662 16.1427 0.770586C16.1867 1.10964 16.288 1.73932 16.4509 2.66402C16.583 3.44781 16.6843 4.06869 16.7459 4.53544C16.8384 5.23117 16.8824 5.86526 16.8824 6.43769C16.6931 6.60502 16.4421 6.75472 16.1383 6.88242C15.83 7.01012 15.3765 7.19065 14.7688 7.41963C14.4386 7.5121 14.1039 7.68384 13.7649 7.93923C13.5667 8.08895 13.2717 8.34874 12.8754 8.72303C12.391 9.17217 12.0123 9.4804 11.7393 9.64333C11.4663 9.80625 11.2065 9.91633 10.9511 9.96917C10.8102 9.96917 10.6869 9.93835 10.5768 9.88111C10.4668 9.81946 10.3655 9.73579 10.2642 9.6213C10.1805 9.43636 10.1365 9.26463 10.1365 9.10171C10.1365 8.98282 10.1585 8.85512 10.207 8.71421C10.251 8.57771 10.3038 8.45002 10.3655 8.33553C10.4271 8.22104 10.5768 7.97005 10.8234 7.59136C10.9379 7.42404 11.0172 7.28313 11.0656 7.17745C10.9819 7.29194 10.8542 7.45926 10.6869 7.68383C10.5196 7.9084 10.3919 8.08894 10.3082 8.22104C10.2026 8.38837 10.1233 8.52927 10.0749 8.64376C9.95597 8.91236 9.89432 9.17216 9.89432 9.42755C9.89432 9.56846 9.93835 9.71378 10.022 9.85909C10.1057 10.0088 10.2686 10.1673 10.5064 10.3347C10.6913 10.4183 10.8807 10.4623 11.0788 10.4623C11.4883 10.4623 11.8362 10.3258 12.1268 10.0484C12.4923 9.70497 12.8225 9.41434 13.122 9.18097C13.4522 8.92557 13.7957 8.70101 14.1524 8.50286C14.509 8.30471 14.8789 8.12417 15.2664 7.96565C15.6539 7.80273 16.0458 7.65302 16.4377 7.51211C16.7107 7.26552 16.9044 6.97049 17.0189 6.62262C17.1114 6.34081 17.1554 5.99294 17.1554 5.57463C17.1554 5.30602 17.085 4.67195 16.9441 3.67239C16.8824 3.22325 16.8472 2.86217 16.8472 2.59356C16.8472 2.52311 16.8384 2.43504 16.8164 2.32936C16.7723 2.118 16.7547 1.9815 16.7547 1.91544C16.7547 1.79655 16.7856 1.69529 16.8516 1.60722C16.8956 1.7129 16.9441 1.83178 17.0057 1.95948C17.0674 2.09158 17.1202 2.15323 17.1686 2.15323C17.1951 2.15323 17.2215 2.13122 17.2435 2.09159L17.2391 2.1048ZM8.09775 0.933507C8.11977 0.977541 8.12858 1.02157 8.12858 1.07001C8.12858 1.14046 8.11096 1.21091 8.07574 1.28136C8.04051 1.35182 8.00528 1.42227 7.97006 1.49273C7.86438 1.66005 7.71907 1.74813 7.53853 1.74813C7.48129 1.74813 7.42404 1.73932 7.35799 1.7173C7.24351 1.66006 7.19067 1.54997 7.19067 1.37824C7.19067 1.28136 7.20828 1.18889 7.24351 1.10523L7.51651 0.568022C7.51651 0.616459 7.5033 0.682519 7.47248 0.770586C7.40203 0.990753 7.3668 1.12726 7.3668 1.1845C7.3668 1.3166 7.42845 1.40466 7.55614 1.44869C7.6354 1.4619 7.70145 1.4575 7.7587 1.42668C7.81594 1.40026 7.87759 1.34742 7.94804 1.27697C7.94804 1.20651 7.88639 1.12725 7.7587 1.04359C7.631 0.959927 7.56935 0.889469 7.56935 0.832226C7.56935 0.774982 7.60898 0.713338 7.68384 0.642885C7.78071 0.669305 7.86438 0.704527 7.92602 0.748561C7.98767 0.792594 8.04492 0.854238 8.09335 0.937901L8.09775 0.933507ZM5.62307 1.30339C5.62307 1.40026 5.60986 1.48833 5.58785 1.56759C5.56143 1.64685 5.51739 1.73051 5.45575 1.82298C5.3985 1.8494 5.34126 1.86701 5.28842 1.86701C5.25319 1.86701 5.21797 1.8582 5.18274 1.83619C5.08587 1.74372 5.03303 1.61603 5.03303 1.4443C5.03303 1.40026 5.04183 1.35183 5.05504 1.29458C5.06825 1.23734 5.08146 1.18449 5.09908 1.13606L5.31044 0.691315C5.30163 0.752962 5.27961 0.849837 5.23998 0.981938C5.20035 1.11404 5.18274 1.20211 5.18274 1.25055C5.18274 1.36944 5.22677 1.47071 5.31044 1.54557C5.3941 1.55878 5.46015 1.53676 5.49978 1.47511C5.54381 1.41346 5.58344 1.35622 5.62748 1.29898L5.62307 1.30339ZM8.15059 3.33332L8.07574 3.54469C8.04051 3.54469 7.98767 3.53588 7.91722 3.51827C7.84676 3.50066 7.80273 3.49185 7.78952 3.49185C7.73228 3.49185 7.67944 3.51827 7.631 3.57552C7.56935 3.69441 7.50771 3.91457 7.44606 4.23602C7.38441 4.55746 7.30956 4.77763 7.21708 4.89652L6.77235 4.0731C6.74593 4.09952 6.7107 4.11712 6.66667 4.11712C6.64025 4.11712 6.61383 4.11712 6.59181 4.10832C6.53016 4.0819 6.48613 4.06428 6.46411 4.05548C6.38485 3.99823 6.34963 3.92338 6.34963 3.83531C6.34963 3.77366 6.35843 3.71642 6.37164 3.66798C6.38485 3.61954 6.40247 3.5711 6.42448 3.52707C6.4465 3.48304 6.48173 3.45662 6.53016 3.45662C6.5786 3.45662 6.62263 3.47424 6.65786 3.50947C6.75033 3.60194 6.8384 3.72082 6.92206 3.87053C7.04095 4.0951 7.15984 4.31968 7.28314 4.54865C7.34038 4.19638 7.38882 3.92778 7.43285 3.74724C7.51211 3.40818 7.64421 3.24086 7.83355 3.24086C7.92602 3.24086 8.0317 3.27608 8.15059 3.34653V3.33332ZM7.93043 5.77278C7.8952 5.91369 7.86878 6.01497 7.85557 6.08102C7.82034 6.19991 7.7631 6.28797 7.68824 6.34521C7.60898 6.37163 7.54293 6.36283 7.48569 6.3144C7.47688 6.30559 7.43725 6.25274 7.35799 6.15587C7.35799 5.98854 7.38001 5.83443 7.42845 5.70233C7.47248 5.57023 7.55174 5.43813 7.66623 5.31043C7.66623 5.35887 7.63981 5.44253 7.58256 5.55261C7.52532 5.6671 7.4989 5.75517 7.4989 5.81682C7.4989 5.91369 7.55614 5.99295 7.66623 6.05019C7.74549 6.059 7.79833 6.01496 7.82915 5.92249C7.85997 5.83002 7.8952 5.78159 7.93043 5.77278ZM14.5354 4.77762C14.3857 4.82606 13.8926 5.05063 13.0559 5.45574C12.4571 5.74636 11.9463 5.88727 11.5236 5.88727C11.2506 5.88727 10.9687 5.83003 10.6781 5.71994C10.4227 5.56583 10.2158 5.36768 10.0528 5.1299C9.88992 4.89212 9.79745 4.63232 9.76662 4.35931C10.4712 3.86614 11.2902 3.61955 12.2193 3.61955C12.642 3.61955 13.0339 3.67678 13.3906 3.78687C13.188 3.54028 12.9414 3.35974 12.6508 3.24966C12.3602 3.13517 12.0432 3.08234 11.6909 3.08234C11.4179 3.08234 11.1185 3.12637 10.8014 3.21003C10.4403 3.32892 10.1145 3.55349 9.82387 3.88815C9.53325 4.2184 9.33069 4.56627 9.22501 4.92294L9.24703 4.90091C9.31748 5.24437 9.44078 5.56583 9.62131 5.86085C9.80185 6.15588 10.0308 6.39365 10.3126 6.56979C9.84148 6.80757 9.35271 6.99692 8.84192 7.12902C8.33554 7.26112 7.82475 7.33157 7.30956 7.33157C7.28314 7.33157 7.2303 7.34037 7.15103 7.35358H6.90885C6.27477 7.35358 5.77279 7.16864 5.40731 6.80316C5.1255 6.52135 4.88771 6.08101 4.69837 5.48216C4.58388 5.10787 4.42536 4.52224 4.22281 3.72964C4.01145 3.05152 3.73404 2.55834 3.38617 2.2501L3.21885 3.06473C3.72523 3.79128 4.0731 4.58388 4.26684 5.44253C4.28886 5.52619 4.29767 5.60545 4.29767 5.67591C4.29767 5.86085 4.23602 6.04138 4.10832 6.22633C4.08631 6.26155 3.96301 6.41127 3.73844 6.67107C3.21004 7.09379 2.72127 7.40642 2.26772 7.61338C1.71731 7.86877 1.15808 7.99207 0.585645 7.99207C0.457948 7.93483 0.374284 7.87318 0.325848 7.80273C0.281814 7.73228 0.255394 7.64861 0.255394 7.54733C0.255394 7.44605 0.308234 7.26992 0.413915 7.01012C0.519595 6.75032 0.563628 6.55657 0.541612 6.42887C0.378688 6.7195 0.259797 6.96168 0.180537 7.15983C0.0616468 7.46807 0 7.74548 0 7.98326C0 8.22104 0.0572435 8.45442 0.167327 8.66138C0.246587 8.75825 0.356671 8.82871 0.506385 8.87274C0.634082 8.89476 0.761779 8.91677 0.885073 8.94759C1.73932 8.74944 2.46147 8.46322 3.05152 8.08013C3.80009 7.59576 4.27125 6.99691 4.4694 6.28357C4.55306 6.62263 4.68956 6.92646 4.88331 7.20387C5.20916 7.56935 5.57023 7.83354 5.97094 7.99647C6.32321 8.13737 6.72831 8.20783 7.18626 8.20783C7.64421 8.20783 8.19023 8.11976 8.78027 7.94363C9.203 7.81593 9.72699 7.62219 10.3567 7.3624C11.1801 7.01893 11.6601 6.82077 11.7922 6.77234C12.0035 6.60941 12.3866 6.42887 12.9458 6.22192C13.5007 6.01936 13.8838 5.82562 14.0863 5.64949L14.5178 4.79524L14.5354 4.77762ZM2.22369 0.383089C2.2325 0.427122 2.22369 0.471155 2.21488 0.519592C2.20167 0.568028 2.18846 0.616464 2.17085 0.656094C2.1092 0.642884 2.04315 0.625273 1.98151 0.603256C1.95509 0.603256 1.91986 0.620868 1.88463 0.656094C1.79216 0.783791 1.72171 1.01277 1.67327 1.34742C1.62483 1.68208 1.55878 1.91105 1.48393 2.02994C1.42668 1.95068 1.36063 1.81417 1.29018 1.61161C1.21532 1.40906 1.14487 1.26375 1.07442 1.17128C1.0524 1.20651 1.02158 1.22413 0.977543 1.22413C0.942316 1.22413 0.898283 1.21532 0.849846 1.1933C0.801409 1.17129 0.752972 1.14926 0.713342 1.13165C0.634082 1.08321 0.598855 1.01717 0.598855 0.9291C0.598855 0.871856 0.612065 0.80581 0.634082 0.72655C0.660502 0.647289 0.669309 0.598854 0.669309 0.576837C0.761779 0.497577 0.832233 0.466753 0.880669 0.479963C1.03479 0.62087 1.17569 0.832232 1.30339 1.11405C1.36504 1.25495 1.42668 1.39586 1.48393 1.53676C1.51035 1.47512 1.55878 1.29018 1.62043 0.986345C1.7129 0.563624 1.88023 0.330239 2.12682 0.290609L2.22369 0.374274V0.383089ZM9.51563 9.68295C9.31308 9.91633 9.04888 10.0969 8.73184 10.2202C8.63937 10.2554 8.5469 10.2862 8.45883 10.3082C8.36636 10.3346 8.24747 10.3435 8.09775 10.3435C8.00088 10.3435 7.88639 10.3258 7.7587 10.2906C7.69705 10.2466 7.64861 10.2202 7.62219 10.207C7.56495 10.1717 7.53413 10.1365 7.52092 10.1057C7.50771 10.0748 7.5033 10.044 7.5033 10.022V9.97358C7.5033 9.85469 7.54293 9.7402 7.61779 9.63012C7.69705 9.52003 7.79833 9.41875 7.92602 9.31747C7.85557 9.27344 7.80713 9.24263 7.77631 9.22061C7.71907 9.17657 7.67944 9.13253 7.66182 9.08409C7.73228 8.9652 7.81154 8.86393 7.8952 8.77587C8.00969 8.66138 8.11537 8.60854 8.22105 8.60854C8.27829 8.60854 8.33554 8.62615 8.38838 8.66138C8.37517 8.78907 8.30912 8.87714 8.19903 8.92558C8.16381 8.86833 8.08455 8.84631 7.96565 8.86392L7.92162 8.91678C7.98327 8.97402 8.05372 9.02245 8.13298 9.05767C8.21224 9.0973 8.2871 9.10611 8.36636 9.08409C8.40159 9.04887 8.45002 9.02245 8.50727 9.00924C8.56891 8.99603 8.63937 8.97842 8.72303 8.9564C8.70101 8.99163 8.46764 9.15456 8.01409 9.44078C7.84676 9.55526 7.74108 9.68735 7.69705 9.84147C7.86438 10.0044 8.06693 10.0837 8.30031 10.0837C8.48525 10.0837 8.69661 10.0352 8.93439 9.93395C9.203 9.80625 9.39234 9.71818 9.50683 9.66975L9.51563 9.68295ZM2.07398 2.68603C2.09599 2.76529 2.09159 2.84016 2.05636 2.91501C2.02554 2.98987 1.9683 3.07793 1.89344 3.18361C1.77455 3.28929 1.65126 3.37295 1.52796 3.4302C1.40467 3.49184 1.27697 3.51827 1.14047 3.51827C1.1889 3.43901 1.30339 3.35535 1.48393 3.25847C1.66447 3.1616 1.78336 3.07353 1.84941 2.98986C1.73052 2.95464 1.61162 2.93702 1.48833 2.93702C1.38265 2.93702 1.29899 2.95024 1.23294 2.97226C1.17129 2.99868 1.11405 3.04271 1.06561 3.10435H1.02158C1.03479 3.00748 1.06561 2.91941 1.10964 2.84015C1.15368 2.76089 1.21973 2.70806 1.29899 2.68164C1.37825 2.65522 1.46631 2.6376 1.55878 2.6376C1.61603 2.6376 1.7129 2.6464 1.84941 2.65961C1.98591 2.67282 2.06077 2.68164 2.06517 2.68164L2.07398 2.68603ZM2.41303 5.80361C2.42624 5.86085 2.43505 5.90049 2.43505 5.9181C2.43505 5.99736 2.40423 6.10303 2.33818 6.23513C2.30295 6.29677 2.27213 6.35842 2.2413 6.41567C2.22809 6.41567 2.18846 6.42448 2.11801 6.44649C2.05196 6.46851 1.99912 6.46411 1.96389 6.43769C1.8362 6.34082 1.77455 6.1999 1.77455 6.01496C1.77455 5.97093 1.78336 5.9181 1.79657 5.84764C1.85821 5.68472 1.90665 5.56583 1.93307 5.48657C1.99031 5.35887 2.05196 5.24438 2.12241 5.1387C2.12241 5.16512 2.07838 5.30602 1.98591 5.56142C1.94188 5.6759 1.92426 5.76838 1.92426 5.84764C1.92426 5.97534 1.98151 6.07661 2.09159 6.15587C2.18406 6.16908 2.25011 6.13386 2.29414 6.05019C2.33818 5.96653 2.3734 5.88287 2.40863 5.80801L2.41303 5.80361Z" fill="white"/>
</svg>
