<svg width="20" height="11" viewBox="0 0 20 11" fill="none" xmlns="http://www.w3.org/2000/svg">
<path fill-rule="evenodd" clip-rule="evenodd" d="M20 2.72274L19.9447 2.80022L19.5683 2.34643C19.5683 2.78362 19.6015 3.32595 19.6735 3.97343C19.7454 4.62091 19.8008 5.14112 19.8395 5.52296C19.8783 5.90481 19.9004 6.3088 19.9004 6.72939C19.9004 7.07803 19.8838 7.399 19.845 7.6923C19.8063 7.98561 19.7399 8.28445 19.6348 8.58882H19.5794C19.6015 8.35086 19.6126 8.11843 19.6126 7.89153C19.6126 7.37686 19.5739 6.81239 19.5019 6.19812C19.3193 4.66519 19.2252 3.7244 19.2252 3.38683C19.1976 3.25401 19.1588 2.93857 19.1146 2.43497C19.0703 1.93137 18.9928 1.56613 18.8821 1.33924C18.9264 1.22302 18.9762 1.09574 19.0371 0.957386C19.098 0.819035 19.1754 0.724959 19.2695 0.675153C19.513 1.36137 19.7565 2.04206 20 2.72274ZM15.8937 2.08079C15.855 2.11953 15.8163 2.13614 15.772 2.13614C15.7333 2.13614 15.689 2.11953 15.6281 2.09186L15.5838 2.05866C15.534 2.1306 15.4898 2.18594 15.4566 2.21914C15.4234 2.25235 15.3901 2.27449 15.3514 2.28002C15.1799 2.30769 15.0747 2.25788 15.0304 2.12507C15.0304 1.84283 15.0636 1.57167 15.1301 1.30603C15.1467 1.3503 15.1522 1.42225 15.1522 1.51633C15.1522 1.60487 15.1522 1.69342 15.1522 1.78196C15.1522 1.8705 15.1854 1.94245 15.2352 1.99226C15.368 1.99226 15.451 1.96458 15.4898 1.90371C15.4953 1.88157 15.5008 1.85943 15.5008 1.83176V1.78196C15.4953 1.66575 15.4898 1.5772 15.4898 1.51633C15.4898 1.44439 15.5064 1.37244 15.534 1.30603H15.5783C15.5783 1.30603 15.6004 1.37797 15.6004 1.44991C15.5949 1.55506 15.5894 1.63254 15.5894 1.68234C15.5894 1.83176 15.6724 1.8871 15.8329 1.84837C15.8495 1.80963 15.8495 1.74876 15.8329 1.65468C15.8163 1.5606 15.8107 1.50525 15.8107 1.48312C15.8107 1.40011 15.8329 1.33923 15.8771 1.29496C15.938 1.38904 15.9657 1.51079 15.9657 1.66021C15.9657 1.81516 15.938 1.95351 15.8882 2.08079H15.8937ZM15.5617 0.221358C15.534 0.127279 15.4953 0.066404 15.4566 0.0387339C15.4178 0.0110637 15.368 0.00553032 15.3182 0.0221324C15.2131 0.0221324 15.1245 0.0774745 15.0415 0.188155C14.9917 0.254564 14.9474 0.348642 14.9087 0.464857C14.9308 0.547867 14.9806 0.60874 15.0526 0.653012C15.1245 0.697284 15.202 0.736023 15.2739 0.774761C14.6486 1.32263 14.0232 1.86497 13.4034 2.41284C13.9347 2.07526 14.2833 1.84283 14.4438 1.72662C14.8257 1.44438 15.13 1.15108 15.3514 0.841176C15.3791 0.863312 15.4289 0.902048 15.4953 0.951855C15.523 0.902048 15.5506 0.852245 15.5728 0.807973C15.5949 0.7637 15.606 0.724962 15.606 0.686223C15.606 0.625349 15.5672 0.581074 15.4953 0.553403C15.5396 0.481461 15.5617 0.370777 15.5617 0.221358ZM16.6464 4.44936C16.6408 4.5213 16.6298 4.59878 16.6242 4.67073C16.5966 4.84228 16.5246 4.95296 16.4139 5.00276C16.3531 5.00276 16.3088 4.98617 16.2701 4.9585C16.2037 4.90869 16.1649 4.83121 16.1483 4.72606C16.1483 4.32761 16.2203 3.9679 16.3586 3.6414C16.3752 3.71334 16.3641 3.84062 16.3309 4.01771C16.2977 4.1948 16.2811 4.31102 16.2811 4.36082C16.2811 4.44937 16.2922 4.51577 16.3143 4.56558C16.3365 4.61538 16.3863 4.65966 16.4693 4.70393C16.497 4.68179 16.5302 4.63752 16.5578 4.56558C16.5855 4.49364 16.6187 4.45489 16.6464 4.44936ZM12.6397 0L12.518 0.221358C11.4112 0.708353 10.3099 1.18982 9.20863 1.67128C9.20863 1.47759 9.33038 1.32817 9.57388 1.21749C9.69009 1.16768 9.81184 1.11234 9.92806 1.06253C10.8301 0.708355 11.7322 0.354178 12.6397 0ZM18.052 5.16879C17.9413 4.66519 17.8251 4.14499 17.7089 3.60265C17.5927 3.06032 17.5318 2.58439 17.5318 2.16934C17.5982 2.1306 17.6702 2.18041 17.7532 2.31322C17.8639 2.49031 17.9303 2.58439 17.9524 2.60099L17.9745 2.56779C17.9303 2.25235 17.8362 1.92031 17.6868 1.58273C17.5761 1.32263 17.4211 1.0238 17.2219 0.675153C17.1334 0.769231 17.0614 0.885443 17.0006 1.01826C16.9784 1.06253 16.9341 1.18428 16.8677 1.38351L17.0338 1.60487C17.0614 1.80409 17.2717 3.01052 17.6646 5.22413C17.8141 6.05977 17.9247 6.79026 18.0077 7.4156C17.8528 7.60929 17.6868 7.75872 17.5042 7.86387C17.3215 7.96901 17.1278 8.02435 16.9231 8.02435C16.7958 8.02435 16.6906 7.99668 16.5966 7.94134C16.5025 7.886 16.4084 7.80852 16.3033 7.70337C16.1704 7.48201 15.8107 6.53016 15.2186 4.84781C14.9806 4.17819 14.7039 3.63586 14.3885 3.23187C14.2833 3.27061 14.2169 3.37022 14.1782 3.54178C14.1561 3.6912 14.1395 3.83508 14.1229 3.9845C14.4051 4.40509 14.6265 4.80354 14.7869 5.17986C14.9806 5.61705 15.1079 6.0487 15.1743 6.48589C14.9364 6.77366 14.715 7.01715 14.4992 7.21638C14.2501 7.45434 13.99 7.66463 13.7244 7.84726C13.4311 8.06308 13.1433 8.22911 12.8666 8.35086C12.5899 8.4726 12.2856 8.56115 11.9535 8.62203C11.8152 8.58329 11.71 8.55009 11.6436 8.51135C11.5385 8.45047 11.4555 8.373 11.389 8.26785C11.3392 8.1627 11.3116 8.06309 11.3116 7.95794C11.4056 7.63144 11.5053 7.31046 11.5993 6.98395C11.4444 7.22191 11.3282 7.44327 11.2562 7.64803C11.1621 7.91366 11.1123 8.16823 11.1123 8.41173C11.1123 8.6829 11.1788 8.9264 11.3116 9.13116C11.3946 9.2363 11.4831 9.30271 11.5883 9.33038C11.6934 9.35805 11.8373 9.37466 12.0199 9.37466C12.7117 9.21417 13.3647 8.89319 13.9679 8.41173C14.2778 8.17377 14.549 7.91367 14.7759 7.6259C15.0028 7.33813 15.1909 7.02823 15.3293 6.69619C15.4898 7.09464 15.6558 7.49308 15.8163 7.89153C15.9103 8.11289 16.021 8.29552 16.1372 8.43387C16.2867 8.60543 16.4638 8.72717 16.6685 8.79911C16.6962 8.79911 16.7405 8.79911 16.8013 8.81018C17.0227 8.81018 17.2385 8.75484 17.4433 8.63863C17.648 8.52241 17.8251 8.37299 17.9745 8.1793C18.1295 7.71444 18.207 7.21085 18.207 6.67404C18.207 6.43608 18.1959 6.19812 18.1682 5.96016C18.1406 5.72219 18.1018 5.45656 18.052 5.16879ZM12.5844 3.35362C12.5844 3.53625 12.5291 3.7078 12.4184 3.86275C12.2856 3.88489 12.2081 3.82955 12.1859 3.70227C12.1638 3.57499 12.1527 3.4809 12.1527 3.42003C12.1527 3.27061 12.1749 3.11566 12.2247 2.94964C12.2745 2.78362 12.3298 2.6176 12.3962 2.44604C12.3962 2.51245 12.3852 2.60099 12.363 2.71167C12.3132 2.97177 12.2856 3.13226 12.2856 3.19867C12.2856 3.28722 12.2966 3.35916 12.3132 3.4145C12.3298 3.46984 12.3741 3.52518 12.4405 3.57499C12.4682 3.51412 12.4958 3.46984 12.5125 3.4311C12.5291 3.39236 12.5567 3.37023 12.5844 3.35362ZM11.4665 2.14721C11.3946 2.39071 11.2839 2.62313 11.1345 2.84449C11.0847 2.80022 10.9906 2.73934 10.8578 2.6674C10.6309 2.54012 10.5091 2.42944 10.5036 2.33536L10.8356 1.75982C11.0183 1.82623 11.1621 1.89264 11.2562 1.95904C11.3226 2.00332 11.3946 2.0642 11.4665 2.14721ZM14.2778 5.09131L13.979 5.85501C13.5529 5.85501 13.1101 5.94355 12.6619 6.12064C12.3796 6.23132 11.9812 6.43608 11.4665 6.72939C10.8854 7.06143 10.4925 7.27172 10.2933 7.36027C9.83398 7.55949 9.40232 7.6591 8.99834 7.6591C8.78251 7.6591 8.58329 7.60376 8.3896 7.49308C8.1959 7.3824 8.06309 7.22745 7.98008 7.02822C7.83066 6.52462 7.73658 5.75539 7.69784 4.70946C7.6591 3.66353 7.62037 2.99391 7.58163 2.68954C7.58163 2.52905 7.55949 2.3243 7.50968 2.08633C7.45988 1.84837 7.41561 1.61594 7.37133 1.39458C7.35473 1.32817 7.34366 1.26729 7.33813 1.20642C7.3326 1.14554 7.32706 1.07913 7.32706 1.00719C7.32706 0.852237 7.3492 0.713889 7.399 0.586606C7.44881 0.459323 7.53182 0.337573 7.64804 0.221358C7.73658 0.724955 7.80852 1.33924 7.8694 2.06973C7.89707 2.39624 7.93581 2.97178 7.97454 3.80742C8.01328 4.64306 8.05756 5.32374 8.10183 5.85501C8.14056 6.0321 8.1793 6.17599 8.22911 6.28113C8.27892 6.38628 8.35639 6.49696 8.46707 6.60764C8.41727 6.48036 8.3896 6.342 8.3896 6.18705C8.3896 5.99336 8.42833 5.78306 8.50028 5.55617C8.55008 5.39568 8.63863 5.19093 8.75484 4.94743C8.99834 4.7316 9.24737 4.58218 9.4964 4.4881C9.74543 4.39402 10.0111 4.34975 10.2822 4.34975C10.4593 4.34975 10.6364 4.36635 10.8135 4.39956C10.9906 4.43276 11.2009 4.48257 11.4444 4.54898C11.5385 4.57111 11.8428 4.66519 12.352 4.82568C12.9939 5.0249 13.5086 5.12451 13.8904 5.12451C14.0177 5.12451 14.145 5.11345 14.2778 5.09131ZM9.23077 3.20974C9.23077 3.09353 9.2197 2.93303 9.19757 2.72827C9.17543 2.52352 9.10349 2.36857 8.98727 2.25789L8.84339 2.53459C8.90426 2.55119 8.94853 2.60653 8.98727 2.71167C9.05921 2.85002 9.09795 3.00498 9.09795 3.16547C9.09795 3.32596 9.06475 3.50857 8.99281 3.68013C8.92086 3.85168 8.83785 4.01218 8.73271 4.15053C8.86552 4.01771 8.97067 3.87936 9.04261 3.72994C9.11455 3.58052 9.18096 3.40897 9.23077 3.20974ZM15.3293 9.42999C15.3071 9.513 15.285 9.59602 15.2629 9.68456C15.2241 9.77864 15.1688 9.84505 15.0858 9.88379C15.0249 9.88932 14.9751 9.87272 14.9253 9.83398C14.8755 9.79524 14.8478 9.75097 14.8423 9.70116C14.8367 9.65135 14.8312 9.59048 14.8312 9.51854C14.8312 9.32485 14.8644 9.14222 14.9308 8.96513C14.9972 8.78804 15.0913 8.59436 15.2186 8.3896C15.1522 8.56115 15.1024 8.68843 15.0747 8.77698C15.0083 8.9596 14.9751 9.10902 14.9751 9.2197C14.9751 9.35252 15.0138 9.4798 15.0858 9.59601C15.13 9.61815 15.1688 9.60155 15.2075 9.55174C15.2463 9.50193 15.2684 9.4632 15.285 9.44106L15.3293 9.42999ZM6.19812 2.55672C6.17045 2.71721 6.14831 2.81682 6.13171 2.84449C6.08744 2.97178 6.02103 3.05479 5.93249 3.09906C5.86608 3.1046 5.81074 3.08799 5.772 3.04372C5.73326 2.99945 5.70006 2.93857 5.67792 2.86663C5.67792 2.66187 5.69452 2.47372 5.72773 2.30216C5.76093 2.13061 5.81627 1.97565 5.89928 1.82623C5.87714 1.92031 5.85501 2.01992 5.83841 2.12507C5.82181 2.23021 5.81074 2.32429 5.81074 2.41284C5.81074 2.58439 5.84947 2.72274 5.93249 2.83342C6.00443 2.85002 6.05977 2.81129 6.09851 2.71721C6.13724 2.62313 6.17045 2.57332 6.19812 2.55672ZM4.11732 0.996128L4.07305 1.21749C4.03431 1.22302 3.9845 1.20642 3.9181 1.16768C3.85169 1.12894 3.81295 1.10681 3.79635 1.10681C3.75761 1.10681 3.72994 1.13448 3.7078 1.19535V1.33924C3.7078 1.56613 3.69673 1.75428 3.68013 1.89817C3.66353 2.04205 3.61372 2.17488 3.54178 2.30216C3.45877 2.23022 3.3813 2.08633 3.29828 1.87051C3.21527 1.65468 3.1378 1.51079 3.05479 1.42778C3.05479 1.47759 3.02712 1.49419 2.96624 1.47206C2.90537 1.44992 2.87216 1.44438 2.85556 1.44991C2.80576 1.40564 2.77809 1.3503 2.77809 1.28389C2.77809 1.25622 2.78362 1.21195 2.80022 1.15108C2.81682 1.09021 2.82236 1.04593 2.82236 1.00719L2.92197 0.951855C3.06032 1.03487 3.18207 1.17875 3.28722 1.39458C3.37023 1.5772 3.45324 1.75982 3.54178 1.93691C3.56392 1.88711 3.58605 1.68788 3.60819 1.34477C3.63033 1.00166 3.70227 0.830105 3.82955 0.830105C3.91256 0.830105 4.00664 0.885447 4.11732 0.996128ZM10.7471 9.44106C10.4095 9.86165 9.97233 10.0719 9.44106 10.0719C9.26951 10.0719 9.10902 10.0443 8.9596 9.98893C8.81018 9.93359 8.72717 9.83951 8.71057 9.70669C8.75484 9.54621 8.83232 9.40786 8.94853 9.29164C9.06475 9.17543 9.20863 9.07028 9.38572 8.9762C9.27504 8.91533 9.20863 8.88212 9.18096 8.87106C9.15329 8.85999 9.11456 8.85445 9.06475 8.85445C9.02048 8.85445 8.9762 8.86552 8.93193 8.88766L8.87659 8.93193C8.87659 8.89319 8.88766 8.85999 8.9098 8.82125C8.93193 8.78251 8.98174 8.72717 9.06475 8.64416C9.12562 8.62202 9.17543 8.61096 9.2197 8.61096C9.28611 8.61096 9.35805 8.62756 9.43553 8.6663C9.51301 8.70504 9.59048 8.73824 9.66242 8.77698C9.68456 8.9098 9.56281 9.05368 9.30271 9.21416C9.04261 9.37465 8.9098 9.4798 8.9098 9.54068C8.9098 9.62369 9.03154 9.70669 9.27504 9.79524C9.39126 9.81184 9.4798 9.81738 9.52961 9.81738C9.72883 9.81738 9.92252 9.78417 10.1107 9.72329C10.2988 9.66242 10.5091 9.56834 10.7471 9.44106ZM4.18373 4.07305C4.14499 4.10072 4.09519 4.18926 4.02878 4.33868C3.96237 4.4881 3.87936 4.56005 3.78528 4.56005C3.77975 4.55451 3.65246 4.48257 3.40897 4.34975C3.25401 4.26674 3.1876 4.15606 3.20974 4.01771L3.57499 3.50858C3.75761 3.60265 3.89596 3.68014 3.9845 3.72994C4.14499 3.82402 4.2114 3.94023 4.18373 4.07305ZM5.25733 6.35307C5.26287 6.38074 5.2684 6.42501 5.2684 6.48589C5.2684 6.70172 5.18539 6.86773 5.0249 6.98395C4.88655 7.00608 4.79801 6.93968 4.75927 6.78472C4.75374 6.74599 4.7482 6.69618 4.7482 6.62977C4.7482 6.49142 4.78694 6.3254 4.86995 6.13171C4.90869 6.04317 4.94743 5.94909 4.9917 5.85501C5.0083 5.91588 5.00277 5.9823 4.98063 6.06531C4.91422 6.3088 4.88102 6.43608 4.88102 6.45269C4.88102 6.57997 4.94189 6.66851 5.06918 6.71832L5.25733 6.35307ZM6.98395 9.37466C6.98395 9.48534 6.97288 9.57942 6.94521 9.65136C6.91754 9.7233 6.86774 9.78971 6.79579 9.83951C6.72385 9.84505 6.65744 9.83951 6.6021 9.82291C6.54676 9.80631 6.51909 9.76757 6.51909 9.70669C6.51909 9.50747 6.54676 9.31378 6.60764 9.12009C6.62977 9.04814 6.70172 8.87106 6.81793 8.58882C6.82346 8.6497 6.81793 8.7327 6.78473 8.84338C6.70172 9.11455 6.66298 9.2695 6.66298 9.30824C6.66298 9.41892 6.71832 9.49087 6.829 9.52961C6.85667 9.52407 6.88434 9.4964 6.90648 9.44659C6.92861 9.39679 6.95628 9.37466 6.98395 9.37466ZM1.47205 4.4715C1.47205 4.6984 1.43332 4.91975 1.36137 5.12451C1.28943 5.32927 1.17322 5.50636 1.01826 5.64471C0.907581 5.66685 0.813503 5.65025 0.730493 5.59491C0.647482 5.53957 0.570006 5.45102 0.498063 5.33481C0.448257 5.13005 0.420587 4.90869 0.420587 4.67073C0.420587 4.26674 0.503597 3.85169 0.675152 3.4311C0.802435 3.11566 1.00719 2.73935 1.29496 2.30216C1.11234 2.69508 0.990592 2.96071 0.940786 3.11012C0.813503 3.4477 0.752629 3.75207 0.752629 4.01771C0.752629 4.1948 0.774765 4.34975 0.824571 4.48257C0.874378 4.61539 0.957388 4.7482 1.08467 4.88101C1.19535 4.89762 1.27836 4.83675 1.32817 4.70393C1.37797 4.57111 1.42778 4.49364 1.47205 4.4715ZM7.21638 5.42336C6.99502 5.04704 6.77919 4.67072 6.56336 4.29441C6.45268 4.33315 6.36967 4.41063 6.31433 4.53238C6.25899 4.65412 6.21472 4.79801 6.17598 4.96956C6.19812 5.08578 6.342 5.5617 6.60764 6.39734C6.71278 6.72938 6.77919 7.01715 6.81793 7.26065C6.51356 7.54289 6.12618 7.81959 5.64472 8.09076C5.24073 8.30658 4.83121 8.52241 4.42723 8.74378C4.11179 8.87659 3.79081 8.98174 3.47537 9.05368C3.15993 9.12562 2.83896 9.16436 2.51245 9.16436C2.14167 9.16436 1.8041 9.10349 1.48866 8.98728C1.17322 8.87106 0.907582 8.6829 0.68622 8.43387C0.558938 8.27338 0.470393 8.09629 0.415053 7.9026C0.359712 7.70891 0.332042 7.50415 0.332042 7.28279C0.332042 7.03376 0.359712 6.77919 0.415053 6.52462C0.470393 6.27006 0.536801 6.01549 0.619812 5.75539C0.437189 6.19812 0.326508 6.46929 0.28777 6.57444C0.0940786 7.1057 0 7.58716 0 8.02435C0 8.37853 0.0940786 8.70503 0.276702 8.99834C0.459325 9.29164 0.708356 9.51301 1.01826 9.65136C1.26176 9.7565 1.49972 9.82845 1.72662 9.87825C1.95351 9.92806 2.19148 9.95019 2.43498 9.95019C2.70061 9.95019 2.98284 9.91699 3.28722 9.85058C3.59159 9.78417 3.86829 9.70116 4.12839 9.59601C4.56558 9.42446 5.03044 9.18096 5.53403 8.85445C5.91588 8.60542 6.34754 8.29551 6.81793 7.92473C6.92861 7.77531 7.00609 7.6093 7.05036 7.42667C7.09463 7.24405 7.11677 7.05036 7.11677 6.85114C7.11677 6.60764 7.08356 6.34754 7.01162 6.06531C6.93968 5.78307 6.85667 5.5285 6.76259 5.29054C6.80686 5.26287 6.87881 5.285 6.97842 5.35694C7.07803 5.42888 7.15551 5.45103 7.21638 5.42336ZM3.60819 6.50802C3.60819 6.50802 3.57499 6.53016 3.57499 6.54676V6.60764C3.46431 6.5855 3.38129 6.57444 3.33149 6.57444C3.25955 6.57444 3.21527 6.61317 3.19867 6.69619C3.14887 7.03376 3.09353 7.37133 3.04372 7.70337C2.98284 7.6591 2.90537 7.51522 2.81129 7.27725C2.71721 7.03929 2.60653 6.91754 2.49032 6.91754C2.46265 6.91754 2.4073 6.93415 2.33536 6.96182C2.28556 6.91201 2.25789 6.85113 2.25789 6.78472C2.25789 6.73492 2.26895 6.67405 2.29662 6.60764C2.32429 6.54123 2.35196 6.48036 2.37963 6.41948C2.38517 6.39181 2.41284 6.37521 2.45711 6.38074C2.50138 6.38074 2.52905 6.39181 2.53459 6.39734C2.62867 6.50802 2.71721 6.64638 2.78915 6.80686C2.8611 6.96735 2.93857 7.1223 3.01051 7.27172C3.05479 7.04483 3.10459 6.8124 3.1544 6.57444C3.19867 6.43608 3.27061 6.3254 3.37576 6.24239C3.42557 6.25899 3.48644 6.2756 3.55838 6.29773C3.63033 6.31987 3.66353 6.35861 3.66353 6.40841C3.66353 6.42501 3.64693 6.45822 3.60819 6.50802ZM15.3514 0.453786L15.2518 0.398451L15.1522 0.332045C15.2684 0.271171 15.3348 0.293305 15.3514 0.398451V0.453786ZM12.1306 5.60044C11.5993 5.91035 11.0681 6.22026 10.5368 6.53016C10.3154 6.64638 10.1162 6.73492 9.93359 6.78472C9.75097 6.83453 9.55728 6.8622 9.35252 6.8622C9.14776 6.8622 8.94853 6.829 8.73271 6.76259C8.73271 6.72385 8.72164 6.61871 8.69397 6.43608C8.6663 6.25346 8.65523 6.11511 8.65523 6.00996C8.65523 5.87714 8.67737 5.76093 8.7161 5.66685C8.75484 5.57278 8.82679 5.48976 8.93193 5.42336C9.10902 5.29607 9.28058 5.21306 9.4466 5.16879C9.61262 5.12451 9.80077 5.10238 10.0055 5.10238C10.321 5.10238 10.7748 5.19646 11.3669 5.37908C11.6768 5.47316 11.9314 5.55063 12.1306 5.60044Z" fill="white"/>
</svg>
