<svg width="20" height="12" viewBox="0 0 20 12" fill="none" xmlns="http://www.w3.org/2000/svg">
<path fill-rule="evenodd" clip-rule="evenodd" d="M19.9954 2.67161C19.9351 2.64379 19.884 2.58813 19.8377 2.50464C19.7124 2.26809 19.6336 2.13822 19.6058 2.11503L19.5176 2.38404C19.5176 2.74582 19.5501 3.18182 19.6197 3.68739C19.7774 4.86549 19.8516 5.61688 19.8516 5.93692C19.8516 6.75325 19.833 7.33766 19.7959 7.69481C19.731 8.3256 19.5872 8.87291 19.3738 9.34137C19.462 8.69666 19.5083 8.04731 19.5083 7.39332C19.5083 6.57699 19.4434 5.62152 19.3089 4.5269C19.1744 3.43228 19.0445 2.38868 18.9193 1.39147C18.9657 1.15492 19.0167 0.983303 19.077 0.881262C19.1373 0.779221 19.2115 0.695734 19.2996 0.635437C19.3089 0.681819 19.4759 1.09926 19.8098 1.89239C19.9351 2.19852 20 2.45826 20 2.67161H19.9954ZM15.7746 0C15.7653 0.111317 15.7096 0.194807 15.5983 0.255103C15.5612 0.278295 15.4592 0.320038 15.2876 0.375696C14.1744 0.737477 13.4694 0.978665 13.1679 1.08998C12.8664 1.2013 12.4443 1.37755 11.8924 1.62338C11.9759 1.36364 12.1985 1.17811 12.5696 1.06679C13.1122 0.895178 13.4137 0.793136 13.4833 0.75603C14.2486 0.505566 15.0139 0.250464 15.7746 0ZM14.6289 1.98052C14.5408 1.7718 14.3785 1.63265 14.1512 1.55844C14.0399 1.50742 13.9378 1.55844 13.8404 1.70223C13.7894 1.77644 13.7106 1.89703 13.6085 2.05937C13.5946 2.17996 13.6827 2.29128 13.8822 2.39332C14.077 2.49536 14.1976 2.58349 14.2347 2.64842C14.3089 2.58813 14.3785 2.47681 14.4481 2.31447C14.513 2.15213 14.5779 2.04082 14.6382 1.98052H14.6289ZM11.7904 4.46197C11.7904 4.57328 11.7718 4.67996 11.7347 4.78664C11.6976 4.88868 11.6327 4.96289 11.5352 5C11.4378 5 11.359 4.94434 11.3033 4.83302C11.2801 4.6243 11.3544 4.3692 11.526 4.06308C11.628 3.86827 11.6976 3.72449 11.7254 3.62709C11.7254 3.69202 11.679 3.82189 11.5909 4.0167C11.5028 4.2115 11.4564 4.34601 11.4564 4.4295C11.4564 4.54082 11.5213 4.6243 11.6466 4.67532L11.7904 4.46197ZM10.5891 2.33766C10.3942 2.68553 10.1531 2.97774 9.86549 3.20501C9.53154 3.47403 9.19295 3.6039 8.85436 3.6039C8.9564 3.52041 9.13265 3.41373 9.38312 3.27458C9.63358 3.13544 9.81447 3.02412 9.93506 2.93599C9.81447 2.92208 9.68924 2.90352 9.55473 2.88033C9.42022 2.85714 9.30427 2.84787 9.19759 2.84787C8.91466 2.84787 8.68738 2.91744 8.52041 3.06122C8.62245 2.82467 8.76623 2.62523 8.94248 2.47217C9.15584 2.28664 9.38312 2.19388 9.61967 2.19388C9.782 2.20779 9.95825 2.22171 10.1484 2.23099C10.3386 2.24026 10.4824 2.27737 10.5891 2.33766ZM7.4397 1.79035C7.4397 1.79035 7.46289 1.84601 7.46289 1.89239C7.46289 1.9295 7.45362 1.98052 7.43043 2.04082C7.40724 2.10575 7.38868 2.15213 7.37477 2.18924C7.31447 2.25417 7.25417 2.29128 7.19852 2.29128C7.16141 2.29128 7.1243 2.282 7.0872 2.25881C6.97588 2.1475 6.92022 2.01299 6.92022 1.85993C6.92022 1.73933 6.94805 1.60482 7.00835 1.44713C7.09647 1.2616 7.15677 1.12709 7.1846 1.04824C7.17532 1.10854 7.16141 1.17811 7.13822 1.2616C7.0872 1.4564 7.05937 1.59091 7.05937 1.6744C7.05937 1.8321 7.11503 1.94341 7.22634 2.00835C7.32375 1.98052 7.37941 1.94342 7.39332 1.89703C7.40724 1.85065 7.42115 1.81818 7.4397 1.79499V1.79035ZM13.8961 9.90723C13.859 10.0186 13.8033 10.1345 13.7338 10.2597C13.6642 10.3803 13.5807 10.5102 13.4833 10.6447C13.4601 10.6215 13.3395 10.5427 13.1169 10.4128C12.9592 10.3154 12.8664 10.2226 12.8386 10.1345C12.9128 10.0139 12.987 9.9026 13.0612 9.79128C13.1725 9.65213 13.2931 9.57792 13.4276 9.57792C13.525 9.63822 13.6224 9.69851 13.7152 9.75417C13.7987 9.82838 13.8544 9.87941 13.8915 9.91187L13.8961 9.90723ZM17.2681 2.38404C17.231 2.18924 17.1846 2.00371 17.1336 1.82282C17.0826 1.64193 17.0223 1.48887 16.9573 1.37291L16.9249 1.3961C16.8785 1.25696 16.8228 1.09926 16.7486 0.927644C16.6744 0.75603 16.6002 0.589055 16.526 0.426717C16.475 0.473099 16.4239 0.538034 16.3822 0.626161C16.3358 0.714287 16.2755 0.848795 16.192 1.02505C16.192 1.38219 16.308 2.23562 16.5352 3.58534C16.6373 4.19295 16.6929 4.71243 16.6929 5.14379C16.5677 5.2551 16.4147 5.33395 16.243 5.38497C16.0668 5.43135 15.8813 5.45919 15.6818 5.45919C15.4221 5.45919 15.1531 5.42208 14.8794 5.34787C14.9629 5.15306 15.0232 4.97217 15.0696 4.80056C15.116 4.62894 15.1345 4.45733 15.1345 4.29035C15.1345 4.13265 15.116 3.99351 15.0742 3.86828C15.0325 3.74304 14.9675 3.62709 14.8794 3.52505C14.7774 3.46011 14.7032 3.41837 14.6568 3.40445C14.6104 3.39054 14.5547 3.39054 14.4805 3.40445C14.1327 3.61317 13.8636 3.91466 13.6781 4.31818C13.5436 4.60111 13.4462 4.97681 13.3766 5.45455C12.5 5.72356 11.6234 5.9833 10.7514 6.24304C10.6633 6.36364 10.5751 6.48423 10.4824 6.60482C10.3942 6.72542 10.3479 6.84137 10.3479 6.94341C10.6586 6.94341 10.9601 6.97124 11.2477 7.02226C11.3358 7.03618 11.8135 7.15213 12.6855 7.36549C12.3748 7.44898 11.8785 7.58813 11.2059 7.78757C10.6354 7.94527 10.116 8.05659 9.64749 8.12152C9.44805 8.14935 9.26716 8.17254 9.10018 8.18182C8.93785 8.19109 8.78479 8.20037 8.64564 8.20037C8.26067 8.20037 7.89889 8.16326 7.5603 8.08441C7.22171 8.00556 6.89703 7.88033 6.58627 7.69944C6.11317 7.41651 5.83488 7.00371 5.76067 6.46568C5.64935 6.54917 5.5705 6.64193 5.51948 6.74861C5.4731 6.85529 5.44527 6.97124 5.44527 7.0872C5.53339 7.50927 5.62616 7.93135 5.72356 8.34415C4.98145 8.92393 4.0538 9.45733 2.94063 9.94898C1.96197 10.3432 0.983302 10.7375 0 11.141C0.282931 11.0946 0.737477 11.0297 1.36827 10.9416C2.30983 10.8071 3.03339 10.6215 3.53896 10.385C4.01206 10.1252 4.49443 9.86549 4.97681 9.60575C5.52412 9.28107 5.87662 8.88219 6.03432 8.41373C6.09926 8.37662 6.18274 8.3859 6.28015 8.44619C6.33117 8.47402 6.41002 8.52505 6.51206 8.58998C6.88312 8.75232 7.2449 8.859 7.60204 8.90074C7.95918 8.94712 8.37662 8.96568 8.859 8.96568C9.13265 8.96568 9.39703 8.94248 9.65677 8.89146C9.91187 8.84508 10.4128 8.71521 11.1549 8.50649C11.8089 8.33024 12.1892 8.22356 12.3006 8.19573C12.7458 8.08441 13.1447 8.00093 13.4972 7.94527C13.8497 7.88961 14.1929 7.86178 14.5269 7.86178C14.7217 7.86178 14.9443 7.8757 15.2041 7.90816C15.4638 7.93599 15.6957 7.97774 15.8952 8.02876L16.3312 7.25881C16.0065 7.25881 15.6633 7.22634 15.3015 7.15677C14.9397 7.09184 14.5779 7.00835 14.2069 6.91095C13.5297 6.73469 12.8571 6.5538 12.18 6.37755C12.4258 6.29406 12.6855 6.21058 12.9638 6.11781C13.2421 6.02505 13.4879 5.97866 13.7059 5.97866C13.8404 5.97866 13.975 6.00185 14.1048 6.0436C14.3414 6.12709 14.564 6.18738 14.7681 6.22913C14.9722 6.27087 15.1902 6.28943 15.4174 6.28943C15.6772 6.28943 15.923 6.25232 16.1596 6.17347C16.3915 6.09462 16.5863 5.97402 16.744 5.81169C16.8321 5.61224 16.8924 5.41744 16.9295 5.23191C16.9666 5.04638 16.9805 4.82839 16.9805 4.57328C16.9805 4.33673 16.9573 4.02597 16.9156 3.65028C16.8182 2.82468 16.7718 2.32375 16.7718 2.1475L16.8599 1.95733C16.897 1.99443 16.962 2.07792 17.0594 2.20315C17.1336 2.30056 17.2032 2.36086 17.2727 2.37941L17.2681 2.38404ZM8.87291 4.83302L8.79406 5.08813C8.75696 5.0974 8.71057 5.08813 8.65028 5.06957C8.58998 5.05102 8.55287 5.04174 8.53896 5.04174C8.49258 5.04174 8.45547 5.06494 8.41837 5.10668C8.32096 5.46846 8.2282 5.83024 8.14007 6.18739C7.98237 5.86735 7.82931 5.54731 7.67161 5.23191L7.61595 5.3757C7.53247 5.36178 7.46753 5.34323 7.42115 5.32004C7.37477 5.29685 7.33766 5.2551 7.31447 5.19944C7.32839 5.07885 7.35158 4.98609 7.37941 4.91187C7.40724 4.83766 7.46289 4.77273 7.53711 4.72171C7.6948 4.79592 7.8154 4.9397 7.90352 5.14842C7.99165 5.36178 8.07978 5.56123 8.15863 5.75603C8.21892 5.49629 8.26531 5.30149 8.30241 5.17625C8.36735 4.94434 8.47866 4.79592 8.63636 4.72171L8.86827 4.83302H8.87291ZM12.0362 10.2087C11.897 10.385 11.7069 10.5288 11.475 10.6354C11.243 10.7421 10.9926 10.7978 10.7236 10.7978C10.5891 10.7978 10.4685 10.7839 10.3571 10.7514C10.2737 10.705 10.218 10.6725 10.1809 10.6493C10.1067 10.603 10.0649 10.5519 10.0603 10.4917C10.0742 10.3525 10.1391 10.218 10.2505 10.0928C10.3896 9.93506 10.603 9.79592 10.8859 9.67068C10.7839 9.5872 10.6401 9.55009 10.4638 9.55009C10.3757 9.55009 10.3108 9.55937 10.2737 9.57328C10.2737 9.52226 10.3015 9.47124 10.3525 9.41558C10.4035 9.36456 10.4638 9.32282 10.5288 9.29499C10.7375 9.31818 10.872 9.3321 10.9276 9.34601C10.9879 9.35529 11.0575 9.39703 11.141 9.46197C11.1688 9.59647 11.09 9.72634 10.8998 9.85621C10.7096 9.98608 10.5102 10.1206 10.3061 10.2644C10.3061 10.3479 10.4221 10.4314 10.6493 10.5195C10.7514 10.5334 10.8256 10.5427 10.872 10.5427C11.0436 10.5427 11.2338 10.5056 11.4378 10.4267C11.6466 10.3479 11.846 10.2783 12.0408 10.2087H12.0362ZM4.54545 1.12709C4.51762 1.21058 4.48516 1.28942 4.45733 1.37291C4.37384 1.2987 4.28571 1.27087 4.18831 1.29406C4.08627 1.77644 3.97959 2.25417 3.87755 2.73191C3.99814 2.76902 4.10482 2.84323 4.20223 2.95919C4.29963 3.07514 4.39239 3.18646 4.48052 3.29777C4.40631 3.42301 4.20686 3.50649 3.87755 3.5436C3.55288 3.5807 3.33024 3.67347 3.20965 3.82189C3.20965 4.07235 3.23748 4.35993 3.29777 4.67996C3.3859 5.07885 3.4462 5.36178 3.4833 5.51948C3.51577 5.67718 3.53896 5.82096 3.55751 5.9462C3.57143 6.07143 3.5807 6.20594 3.5807 6.34508C3.5807 6.52134 3.56215 6.68831 3.52968 6.84137C3.49722 6.99443 3.43692 7.15213 3.35807 7.31447C3.43228 7.10111 3.46939 6.87848 3.46939 6.64657C3.46939 6.47032 3.45547 6.31725 3.43228 6.19202C3.40445 6.06679 3.35343 5.84879 3.26994 5.54731C3.1679 5.16697 3.10761 4.95362 3.09369 4.9026C3.04267 4.67996 3.01484 4.46197 3.01484 4.24397V4.07236C3.01484 4.02597 3.0334 3.92393 3.0705 3.77551C3.10761 3.62709 3.23284 3.50649 3.45083 3.40909C3.72449 3.31169 3.92393 3.24675 4.03989 3.20965C3.9564 3.09833 3.84508 3.04267 3.70594 3.04267C3.63173 3.04267 3.56679 3.05659 3.51577 3.08906L3.33952 3.25603C3.31633 3.20501 3.32096 3.14471 3.34879 3.07978C3.35807 3.06586 3.38126 3.01948 3.42764 2.94527C3.47403 2.87106 3.53896 2.82468 3.62245 2.80148C3.70594 2.77829 3.78942 2.7551 3.87291 2.73655C3.80798 2.66234 3.73377 2.52319 3.65955 2.32375C3.53896 1.99907 3.37199 1.8321 3.14935 1.8321C3.06586 1.78572 3.01484 1.74861 2.98701 1.72078C2.95918 1.69295 2.94527 1.65584 2.93599 1.60946C2.93599 1.48887 2.94991 1.38683 2.98237 1.30334C3.0102 1.21985 3.06586 1.15028 3.14935 1.09926C3.29777 1.19666 3.41837 1.32653 3.51577 1.48887C3.65028 1.74861 3.78479 2.00835 3.91466 2.26809C3.94249 1.98052 3.97959 1.68831 4.0167 1.40074C4.06308 1.22449 4.14657 1.08534 4.2718 0.987941C4.33673 0.997217 4.39703 1.00649 4.44341 1.02505C4.4898 1.0436 4.5269 1.08071 4.55009 1.13173L4.54545 1.12709ZM6.96197 10.0325C6.96197 10.1948 6.87848 10.3525 6.71614 10.5009C6.59555 10.538 6.52134 10.4731 6.48423 10.3015C6.50742 10.102 6.56308 9.89796 6.65121 9.68924C6.78571 9.4295 6.88312 9.23469 6.93877 9.10946C6.93877 9.18367 6.91095 9.28571 6.85992 9.41094C6.73469 9.70779 6.66976 9.88868 6.66976 9.95825C6.66976 10.0696 6.71614 10.1531 6.81354 10.2134C6.85993 10.1531 6.90631 10.0928 6.95733 10.0371L6.96197 10.0325ZM14.7542 5.04638C14.6892 5.08349 14.6336 5.10668 14.5918 5.12059C14.5501 5.12987 14.4898 5.13915 14.4063 5.13915C14.1744 5.13915 13.9981 5.05566 13.8729 4.88404C13.8126 4.80983 13.7848 4.74954 13.7848 4.70779C13.7848 4.66605 13.7987 4.62894 13.8312 4.60575C13.8915 4.50835 13.9471 4.43878 13.9981 4.39239C14.0492 4.34601 14.128 4.29499 14.2301 4.2347C14.4388 4.2115 14.5826 4.30427 14.666 4.51299C14.6892 4.60111 14.7124 4.69388 14.7449 4.78664C14.7727 4.87941 14.7774 4.96753 14.7542 5.04638Z" fill="white"/>
</svg>
