<svg width="20" height="10" viewBox="0 0 20 10" fill="none" xmlns="http://www.w3.org/2000/svg">
<path fill-rule="evenodd" clip-rule="evenodd" d="M17.1968 0.615907C17.2753 0.646098 17.3175 0.706479 17.3175 0.784976C17.3175 0.809129 17.2994 0.839316 17.2692 0.875545C17.239 0.911774 17.2088 0.948005 17.1847 0.990272C17.1666 0.972158 17.1485 0.960077 17.1243 0.948001C17.1002 0.935924 17.076 0.929887 17.0519 0.929887C16.9794 0.929887 16.8707 1.00839 16.7258 1.15934C16.5809 1.3103 16.4722 1.39483 16.3997 1.40086C16.2367 1.49144 16.122 1.55182 16.0495 1.59409C15.7838 1.73901 15.5846 1.83563 15.4457 1.88393C15.9348 1.53975 16.4299 1.18953 16.9311 0.833273C16.8345 0.742701 16.762 0.682333 16.7137 0.640065C16.6231 0.561569 16.5809 0.483069 16.5809 0.410611C16.5809 0.386458 16.599 0.350228 16.6352 0.295884C16.6714 0.24154 16.7439 0.18116 16.8466 0.108701C16.9492 0.0362432 17.0337 0 17.1002 0C17.2028 0 17.2692 0.0785112 17.2934 0.241542C17.2934 0.307963 17.2934 0.374375 17.2934 0.440795C17.2934 0.507215 17.2572 0.567602 17.2028 0.615907H17.1968ZM15.2645 0.688363C15.3189 0.688363 15.3732 0.658175 15.4276 0.597794C15.4819 0.537412 15.5 0.483056 15.4819 0.434751C14.7392 0.646087 14.0026 0.851398 13.2719 1.05066L8.61046 2.52398C8.51989 2.57832 8.45347 2.6387 8.4112 2.69305C8.36893 2.74739 8.33874 2.81985 8.33271 2.89834L8.38101 2.87419C9.51015 2.46359 10.6453 2.07715 11.7986 1.71486C12.813 1.39484 13.9663 1.05065 15.2645 0.688363ZM16.7499 9.3592C16.6473 9.30485 16.593 9.22033 16.593 9.1056C16.593 9.07541 16.6171 9.02106 16.6594 8.9486C16.7016 8.87615 16.7983 8.79161 16.9432 8.70104C17.0881 8.61046 17.1968 8.53802 17.2692 8.48971C17.1666 8.41726 17.0458 8.38101 16.919 8.38101C16.8526 8.38101 16.8043 8.38706 16.7741 8.40517L16.7016 8.42933C16.7077 8.36291 16.7439 8.30253 16.8103 8.24215C16.8767 8.18176 16.9371 8.14553 17.0035 8.13949C17.1002 8.13345 17.1907 8.13949 17.2813 8.16365C17.3598 8.20591 17.4443 8.24214 17.5349 8.27233C17.5772 8.41725 17.4745 8.55613 17.239 8.68897C17.0035 8.82181 16.8828 8.91239 16.8828 8.96069C16.8828 9.01504 16.9371 9.07541 17.0398 9.14183C17.0881 9.14787 17.1545 9.1539 17.233 9.1539C17.4081 9.1539 17.5953 9.12371 17.7825 9.05729C17.9697 8.99087 18.1568 8.93049 18.332 8.87615C18.2112 9.02107 18.0361 9.14787 17.8127 9.25051C17.5893 9.35316 17.3598 9.40751 17.1243 9.40751C16.9794 9.40751 16.8526 9.38939 16.7499 9.3592ZM12.6561 3.34516C12.6259 3.3512 12.5594 3.33913 12.4628 3.29687C12.3662 3.2546 12.2938 3.2546 12.2455 3.29687C12.179 3.39952 12.1005 3.62896 12.0039 3.97314C11.9556 4.14221 11.9013 4.28108 11.8469 4.38373C11.8167 4.34147 11.7322 4.15428 11.6054 3.81614C11.5148 3.57461 11.3578 3.45385 11.1344 3.45385C11.0801 3.42969 11.0499 3.39347 11.0499 3.34516C11.0499 3.31497 11.062 3.26667 11.0801 3.21232C11.0982 3.15798 11.1163 3.12175 11.1223 3.10364C11.2129 2.98891 11.2914 2.94061 11.3639 2.95873C11.4907 3.07949 11.5994 3.23648 11.6779 3.42971C11.7564 3.62293 11.8349 3.81011 11.9073 3.9973C11.9556 3.81011 12.0039 3.62896 12.0522 3.44178C12.1247 3.24252 12.2273 3.09157 12.3662 2.99496C12.4326 2.99496 12.4991 2.99496 12.5655 2.99496C12.6319 2.99496 12.6862 3.03723 12.7285 3.10968L12.6561 3.33912V3.34516ZM9.90263 0.72459L5.78459 2.22207C5.73628 2.26434 5.69402 2.30055 5.65175 2.34282C5.65779 2.26432 5.70005 2.17979 5.76647 2.1013C5.83289 2.0228 5.91139 1.96243 5.98989 1.92016C7.37263 1.43107 8.76142 0.935932 10.1562 0.446839C10.1502 0.501182 10.12 0.555514 10.0717 0.603819C10.0234 0.652125 9.96905 0.694399 9.90263 0.72459ZM10.2649 5.84498C10.2227 5.85102 10.1864 5.84498 10.1442 5.82083C10.0657 5.77252 10.0174 5.71215 10.0113 5.63969C10.0113 5.44647 10.0777 5.22304 10.2045 4.96339C10.271 4.83659 10.3374 4.70377 10.4098 4.56489C10.4098 4.63131 10.3857 4.71583 10.3374 4.81848C10.2227 5.06605 10.1683 5.22304 10.1683 5.28946C10.1683 5.39211 10.2227 5.47665 10.3253 5.54307L10.5065 5.31362C10.5306 5.38608 10.5185 5.4706 10.4642 5.56721C10.4098 5.66382 10.3434 5.75441 10.2649 5.84498ZM19.7932 6.60578C19.9079 6.46087 19.9683 6.36426 19.9864 6.30992C20.0045 6.25557 20.0045 6.21331 19.9864 6.18312C19.0746 6.18312 18.0844 6.06839 17.0156 5.83894C15.9469 5.60949 14.9143 5.38003 13.9241 5.15662C14.8177 4.69168 15.7235 4.28712 16.6413 3.94898C16.6896 3.99125 16.762 4.09994 16.8586 4.28712C16.8888 4.35354 16.9311 4.40185 16.9794 4.44412C16.9734 4.26901 16.9613 4.08787 16.9552 3.90069C17.1002 3.87653 17.2511 3.85238 17.4081 3.82823C17.5651 3.80408 17.71 3.79198 17.8489 3.79198C17.9214 3.79198 18.0119 3.79803 18.1267 3.81614L18.4406 3.11571C18.2716 2.77153 18.0482 2.46963 17.7644 2.22207C17.4443 1.93827 17.1122 1.78127 16.7741 1.739C16.6956 1.78127 16.6292 1.81751 16.5748 1.8477C16.5205 1.87789 16.4782 1.92015 16.436 1.96846C16.3212 2.15564 16.2367 2.31868 16.1824 2.46359C16.1039 2.66285 16.0616 2.844 16.0616 3.00703C16.0616 3.08552 16.0737 3.17609 16.0978 3.26666C16.122 3.35724 16.1522 3.43574 16.1944 3.50216L14.4071 4.33544C14.1596 4.49847 13.906 4.65546 13.6584 4.80641C13.127 5.14455 12.8432 5.51287 12.801 5.90535C12.8191 5.89931 12.8432 5.88121 12.8734 5.8631C12.9036 5.84498 12.9278 5.82686 12.9338 5.82083C13.4712 5.87517 14.0811 5.97179 14.7513 6.11067C15.4215 6.24954 16.0676 6.38237 16.6896 6.50917L15.494 6.94392C14.8902 7.18545 14.2864 7.3666 13.6765 7.4934C13.0666 7.6202 12.4326 7.68058 11.7745 7.68058C11.219 7.68058 10.6816 7.62624 10.1562 7.51756C9.63092 7.40887 9.1539 7.24584 8.71915 7.02846C8.50781 6.93789 8.35082 6.77486 8.24817 6.53333C8.24213 6.50918 8.17571 6.29784 8.05495 5.89328C7.93418 5.98989 7.66247 6.35823 7.23375 6.99224C6.91977 7.46925 6.55748 7.70474 6.14688 7.70474C6.00196 7.72889 5.86308 7.70475 5.73628 7.62021C5.70609 7.6021 5.5974 7.51756 5.4223 7.35453C5.23511 7.08281 5.09623 6.799 4.99359 6.50917C4.89094 6.21934 4.76413 5.66384 4.6011 4.84264C4.48638 4.29317 4.37165 3.86445 4.25089 3.55046C4.08182 3.10967 3.85237 2.73531 3.56253 2.43943C3.49007 2.51793 3.44177 2.59643 3.41158 2.66889C3.38139 2.74135 3.36931 2.81985 3.36931 2.89834C3.36931 3.06137 3.44177 3.26667 3.58669 3.51423C3.77387 3.82822 3.87652 4.02144 3.90067 4.09389C3.97917 4.30523 4.0637 4.51054 4.1422 4.7098C4.30523 5.13851 4.38373 5.5008 4.38373 5.79667C4.38373 5.81478 4.38373 5.87517 4.37165 5.98989C4.36561 6.10462 4.3475 6.19519 4.32335 6.26765C4.08182 6.58163 3.82821 6.86544 3.55649 7.12508C3.28478 7.38472 3.00098 7.61416 2.69303 7.81342C2.04695 8.23006 1.36463 8.4414 0.640048 8.4414C0.416635 8.25422 0.301909 8.02477 0.301909 7.75305C0.301909 7.61418 0.344177 7.40887 0.43475 7.13715C0.603819 6.6239 0.688354 6.28576 0.688354 6.13481C0.621934 6.15896 0.585705 6.20124 0.56759 6.26162C0.549475 6.322 0.531361 6.38842 0.507208 6.46692C0.483055 6.54541 0.380406 6.85335 0.193222 7.40283C0.0664202 7.77116 0 8.0791 0 8.32063C0 8.64065 0.0905726 8.91842 0.277757 9.14183C0.39852 9.23844 0.549475 9.28674 0.736659 9.28674C0.827232 9.28674 0.929882 9.27467 1.05065 9.25051C1.17141 9.22636 1.28613 9.20824 1.38878 9.19013C1.76919 9.04521 2.09525 8.9003 2.37905 8.75538C2.7353 8.56819 3.0674 8.35083 3.37535 8.10326C3.6833 7.8557 3.94294 7.57189 4.1422 7.26394C4.34146 6.956 4.46222 6.61184 4.50449 6.24351C4.55883 6.43673 4.64337 6.73259 4.74602 7.12508C4.84867 7.45718 4.96943 7.72286 5.10831 7.93419C5.25323 8.12138 5.39211 8.25421 5.51891 8.34479C5.68798 8.46555 5.86308 8.52594 6.03819 8.52594C6.11065 8.52594 6.18915 8.51387 6.27972 8.48971C6.59974 8.41726 6.88958 8.19384 7.13714 7.82551C7.32433 7.50549 7.51151 7.17942 7.70473 6.8594C7.68662 6.97412 7.68058 7.05261 7.68058 7.10092C7.68058 7.46925 7.80738 7.83155 8.06703 8.18781C8.18175 8.33876 8.45347 8.62858 8.88822 9.05729C9.03917 9.00898 9.14786 8.87012 9.21428 8.63463C9.22032 8.60443 9.25051 8.39912 9.29882 8.01872C9.66714 8.16967 10.0355 8.28441 10.3917 8.35083C10.748 8.41725 11.1163 8.45347 11.4967 8.45347C12.167 8.45347 12.9097 8.33271 13.7308 8.09722C14.552 7.86173 15.343 7.6202 16.1099 7.37867C17.0217 7.09488 17.7946 6.92582 18.4406 6.8594C18.5433 6.83524 18.7788 6.81108 19.135 6.79297C19.4913 6.77485 19.7147 6.70843 19.7932 6.60578ZM5.24115 1.65448C5.16869 1.63636 5.10831 1.6122 5.06001 1.56993C5.0117 1.52767 4.98755 1.47332 4.98755 1.40086C4.98755 1.16538 5.02981 0.95404 5.12039 0.760818C5.21096 0.567596 5.34984 0.40456 5.54306 0.265682C5.41626 0.537401 5.28946 0.815167 5.16869 1.08689C5.16869 1.16538 5.19888 1.26199 5.2653 1.36464C5.38003 1.38879 5.45249 1.34652 5.48268 1.2318L5.54306 1.20764C5.51287 1.29821 5.47664 1.38275 5.44645 1.47332C5.39814 1.56993 5.33172 1.63032 5.24115 1.65448ZM7.92211 4.51657L7.77719 4.43205C7.73492 4.48639 7.69266 4.54073 7.64435 4.59507C7.59605 4.64942 7.5417 4.6796 7.48736 4.69771C7.39678 4.69167 7.32433 4.67356 7.26395 4.64337C7.20356 4.61318 7.16733 4.56487 7.14922 4.49242C7.14922 4.23277 7.15526 4.04559 7.17337 3.93087C7.19149 3.81614 7.23979 3.70142 7.33036 3.59878C7.34848 3.6652 7.35452 3.7135 7.35452 3.74369C7.35452 3.79803 7.34244 3.87654 7.32433 3.97918C7.30621 4.08183 7.29414 4.13616 7.29414 4.15428C7.29414 4.269 7.34848 4.35355 7.45113 4.40789C7.56585 4.40789 7.65039 4.3475 7.71681 4.22673C7.72285 4.17239 7.72889 4.10597 7.71681 4.03955C7.71681 3.97313 7.71681 3.90672 7.71681 3.8403C7.71681 3.72557 7.75304 3.64708 7.8255 3.59878C7.84965 3.64708 7.86173 3.69538 7.86173 3.74369C7.86173 3.79199 7.86173 3.84634 7.84965 3.90069C7.84361 3.95503 7.83154 4.00936 7.8255 4.05767C7.8255 4.17239 7.88588 4.23278 8.00664 4.23882L8.13948 4.22673C8.13948 4.19654 8.13344 4.13616 8.11533 4.05767C8.09722 3.97917 8.09118 3.91276 8.09118 3.86446C8.09118 3.77388 8.12137 3.70142 8.18779 3.635C8.23005 3.73765 8.26025 3.82823 8.27836 3.90069C8.29648 3.97314 8.30855 4.05767 8.30855 4.15428C8.30855 4.20862 8.29044 4.28712 8.26025 4.38373C8.2059 4.48638 8.12137 4.54073 8.01872 4.54073L7.92211 4.51657ZM2.39112 0.941975C2.34282 0.899708 2.30659 0.875546 2.28244 0.857431C2.20998 0.803088 2.14356 0.791006 2.07714 0.833273C2.02279 0.947999 1.97449 1.105 1.93222 1.31634C1.84165 1.75109 1.76919 2.0228 1.71485 2.13753C1.64843 2.05903 1.59408 1.95638 1.54578 1.83562C1.41898 1.53974 1.32236 1.35257 1.26802 1.28011L1.19556 1.40086C1.19556 1.40086 1.11103 1.37671 1.01442 1.34652C0.917805 1.31633 0.851385 1.2801 0.821194 1.2318C0.821194 1.10499 0.83327 0.990264 0.863461 0.887615C0.893652 0.784966 0.947996 0.71856 1.03857 0.676293C1.23783 0.766866 1.4069 0.966126 1.54578 1.28011C1.6122 1.43107 1.67258 1.58202 1.739 1.72693C1.74504 1.70882 1.79938 1.50351 1.89599 1.09896C1.96241 0.851389 2.04695 0.658172 2.16167 0.519294C2.30659 0.50118 2.40924 0.561561 2.47566 0.688363L2.39112 0.941975ZM2.07714 2.89834C2.02883 2.8923 1.96241 2.88626 1.87184 2.88626C1.56389 2.88626 1.31029 2.97684 1.11103 3.16403C1.11103 3.37536 1.12914 3.59273 1.17141 3.82219C1.21368 4.05164 1.24991 4.26297 1.29217 4.45619C1.33444 4.64941 1.35255 4.77622 1.35859 4.8366C1.35859 4.89698 1.35859 4.95736 1.35859 5.02378C1.35859 5.28946 1.29217 5.5491 1.16537 5.79667C1.23179 5.64571 1.26198 5.48872 1.26198 5.32569C1.26198 5.15058 1.22575 4.93322 1.15933 4.67357C1.09291 4.41393 1.03253 4.17843 0.984225 3.9671C0.93592 3.75576 0.911767 3.58065 0.911767 3.45385C0.911767 3.23647 0.978187 3.05534 1.11103 2.90439C1.24387 2.75343 1.46728 2.65078 1.78127 2.59643C1.70881 2.49378 1.61824 2.43943 1.51559 2.43943C1.47332 2.43943 1.43105 2.45756 1.38275 2.48775C1.33444 2.51794 1.28613 2.55417 1.23783 2.59643C1.21971 2.56624 1.21971 2.52397 1.23783 2.47566C1.25594 2.42736 1.27406 2.37301 1.29821 2.30659C1.37067 2.21602 1.47936 2.17375 1.62427 2.17375C1.64843 2.17375 1.69069 2.1798 1.75711 2.19791C1.92618 2.31264 2.05902 2.44548 2.15563 2.59643C2.17979 2.65078 2.15563 2.75343 2.0711 2.89834H2.07714ZM2.76549 6.23142C2.69907 6.24953 2.64473 6.23141 2.59642 6.17103C2.54812 6.09254 2.51793 6.03216 2.49981 6.00196C2.49981 5.77855 2.51189 5.59741 2.53 5.45853C2.54812 5.31965 2.60246 5.18078 2.68096 5.03587C2.6568 5.20494 2.63869 5.36795 2.62058 5.53099C2.62058 5.70609 2.67492 5.85102 2.78964 5.95367C2.84399 5.95367 2.89229 5.91744 2.92852 5.83894C2.96475 5.76044 2.99494 5.71818 3.0191 5.71214C2.9889 5.83894 2.96475 5.92952 2.94664 5.97782C2.90437 6.09255 2.84399 6.17707 2.76549 6.23142ZM17.0398 0.374383C17.0217 0.326078 16.9975 0.295885 16.9613 0.27777C16.9251 0.259656 16.8888 0.277769 16.8466 0.313998L17.076 0.531364L17.0398 0.374383ZM16.593 2.53605C16.762 2.5602 16.9251 2.62058 17.076 2.71719C17.227 2.8138 17.384 2.93457 17.5349 3.07948C17.4323 3.10363 17.3175 3.1278 17.2028 3.14591C17.0881 3.16403 16.9915 3.17609 16.919 3.17609C16.8043 3.17609 16.7077 3.1459 16.6171 3.07948C16.5265 3.01306 16.4601 2.91042 16.4118 2.7655C16.3937 2.7172 16.4058 2.67493 16.436 2.63266C16.4843 2.60247 16.5386 2.56624 16.593 2.53605Z" fill="white"/>
</svg>
