<svg width="20" height="12" viewBox="0 0 20 12" fill="none" xmlns="http://www.w3.org/2000/svg">
<path fill-rule="evenodd" clip-rule="evenodd" d="M19.9048 5.81663C19.9699 6.31263 20 6.78858 20 7.23447C20 7.64529 19.9749 8.01603 19.9198 8.34669C19.8697 8.67735 19.7745 9.02806 19.6393 9.3988C19.6393 8.60722 19.5892 7.77054 19.489 6.89379C19.3888 6.01704 19.2635 5.07014 19.1082 4.0481C18.8928 2.66032 18.7625 1.78357 18.7224 1.41283C18.7725 1.22745 18.7976 1.12224 18.8076 1.08717C18.8627 0.911823 18.9479 0.741481 19.0581 0.58116C19.4739 1.43286 19.6944 1.88878 19.7194 1.95391C19.8297 2.26453 19.8898 2.56513 19.8898 2.85571L19.479 2.22946C19.479 2.68537 19.5291 3.24649 19.6242 3.91282C19.7194 4.57916 19.8146 5.21042 19.8998 5.81162L19.9048 5.81663ZM15.9269 0.766532C15.9419 0.831663 15.9269 0.891784 15.8768 0.951905C15.8267 1.01202 15.7665 1.0521 15.6964 1.07716L10.4058 2.67535C10.0952 2.78056 9.86473 2.85571 9.71944 2.90581C9.43888 3.001 9.22846 3.10621 9.08317 3.21643C9.08317 3.13627 9.10822 3.0511 9.16333 2.95591C9.21343 2.86573 9.28357 2.8006 9.36373 2.77054C10.5361 2.37976 11.6182 2.02906 12.6102 1.71844C13.6022 1.40782 14.7094 1.09218 15.9269 0.761521V0.766532ZM15.2305 5.28557C15.2154 5.39078 15.1954 5.49599 15.1753 5.60621C15.1553 5.71643 15.1102 5.80661 15.0351 5.87675C14.9649 5.89178 14.8948 5.87675 14.8297 5.82665C14.7645 5.77655 14.7345 5.71643 14.7345 5.64629C14.7345 5.45591 14.7495 5.28056 14.7846 5.12525C14.8146 4.96994 14.8948 4.74449 15.025 4.45892C15.025 4.52405 15.01 4.60922 14.9749 4.72445C14.9048 4.97996 14.8647 5.14028 14.8647 5.20541C14.8647 5.3507 14.9148 5.47094 15.02 5.56613C15.0501 5.55611 15.0852 5.51603 15.1152 5.43587C15.1453 5.35571 15.1854 5.30561 15.2254 5.29058L15.2305 5.28557ZM13.4018 3.86774L13.3517 4.14328C13.3016 4.12825 13.2415 4.10321 13.1713 4.07314C13.1012 4.04309 13.0461 4.02305 13.016 4.02305C13.001 4.02305 12.9609 4.03307 12.8958 4.0481C12.8407 4.15832 12.7755 4.38878 12.7104 4.73948C12.6403 5.09018 12.5601 5.33066 12.4649 5.46593C12.4248 5.4008 12.3447 5.25551 12.2194 5.02505C12.0942 4.79459 11.994 4.62425 11.9138 4.51403C11.8737 4.56413 11.8186 4.58417 11.7435 4.58417C11.6232 4.58417 11.513 4.5491 11.4078 4.47395C11.3778 4.43387 11.3577 4.38377 11.3577 4.31864C11.3577 4.26854 11.3677 4.21343 11.3878 4.1483C11.4078 4.08317 11.4228 4.03807 11.4279 4.01803C11.518 3.92785 11.6082 3.88778 11.7034 3.88778C11.7535 3.88778 11.7936 3.90281 11.8236 3.93788C11.9439 4.06814 12.0641 4.23848 12.1844 4.45391C12.3597 4.76453 12.4649 4.94489 12.495 4.99499C12.525 4.92986 12.5751 4.6994 12.6453 4.30361C12.7154 3.90781 12.9008 3.70742 13.2064 3.70742C13.2715 3.76253 13.3367 3.81763 13.3968 3.86273L13.4018 3.86774ZM9.26353 1.57315C9.26353 1.57315 9.22846 1.62325 9.20842 1.6984C9.18838 1.77355 9.1483 1.80361 9.08317 1.78858C8.97796 1.70842 8.92785 1.59319 8.92785 1.43788C8.92785 1.3978 8.93787 1.32264 8.96292 1.20741C8.98798 1.09719 9.01804 0.961925 9.05812 0.811625C8.98798 0.941885 8.92786 1.08717 8.87776 1.25251C8.82765 1.41784 8.80762 1.56312 8.80762 1.69339C8.80762 1.74349 8.81262 1.79359 8.82765 1.8487C8.83767 1.90381 8.87274 1.95892 8.92785 2.00902C8.98296 2.05912 9.04309 2.08918 9.10822 2.0992C9.21844 2.03407 9.27856 1.90882 9.27856 1.71343C9.27856 1.6483 9.27856 1.60321 9.26854 1.56813L9.26353 1.57315ZM7.24449 0C7.24449 0.0701403 7.22445 0.14028 7.18938 0.21042C7.15431 0.28056 7.09419 0.315632 7.01403 0.325652C6.06713 0.751504 5.12024 1.17736 4.17836 1.5982C4.25852 1.26253 4.58918 0.996994 5.17535 0.806614C5.57615 0.671343 5.84168 0.561122 5.96693 0.480961C6.39279 0.320641 6.81864 0.160321 7.23948 0H7.24449ZM10.1403 5.67635C10.1653 5.74148 10.1653 5.80661 10.1453 5.88176C10.1252 5.9519 10.0852 6.05711 10.0301 6.19239C9.97996 6.28257 9.8998 6.32265 9.78958 6.32265C9.75952 6.32265 9.70942 6.31263 9.64429 6.2976C9.55411 6.2024 9.51403 6.07716 9.51403 5.92685C9.51403 5.81663 9.53908 5.69639 9.58417 5.56613C9.63427 5.43587 9.67936 5.31062 9.72946 5.18036C9.70441 5.27555 9.68437 5.36573 9.66934 5.44589C9.65431 5.52605 9.64429 5.60621 9.64429 5.68637C9.64429 5.82164 9.68938 5.93186 9.77455 6.01202C9.87976 6.04208 9.95491 6.01703 10.005 5.93186C10.0551 5.84669 10.0952 5.76152 10.1353 5.67134L10.1403 5.67635ZM17.7655 7.92585C17.7655 7.40481 17.7004 6.80361 17.5651 6.12725C17.4349 5.4509 17.3046 4.78457 17.1794 4.13327C17.0541 3.48196 16.994 2.88577 16.994 2.3497C17.0992 2.37976 17.1994 2.47996 17.2946 2.64028C17.3447 2.73046 17.4148 2.85571 17.51 3.02605C17.4399 2.73547 17.3347 2.35972 17.2044 1.88878C17.0741 1.41783 16.8988 1.01703 16.6834 0.681363C16.5782 0.771543 16.498 0.886772 16.4379 1.03206C16.3778 1.17735 16.3226 1.32264 16.2776 1.46292L17.515 8.08617C17.2996 8.28657 17.0842 8.44188 16.8788 8.54709C16.6683 8.65731 16.4379 8.70741 16.1824 8.70741C16.022 8.72244 15.8768 8.69739 15.7415 8.62224C15.6112 8.5521 15.486 8.4519 15.3758 8.33166C15.3607 8.29158 15.3507 8.23146 15.3507 8.1513C15.3507 8.09619 15.3607 8.01102 15.3858 7.9008C15.4108 7.79058 15.4208 7.70541 15.4208 7.6503C15.4208 7.58016 15.4108 7.52004 15.3958 7.47996C13.8477 8.13627 13.021 8.48196 12.9208 8.51202C12.3697 8.7024 11.8487 8.83267 11.3577 8.8978C11.0471 8.92786 10.8267 8.9479 10.7064 8.95291C10.5862 8.95291 10.4659 8.95791 10.3457 8.95791C9.79459 8.95791 9.33868 8.88777 8.98797 8.74248C8.54709 8.56713 8.22645 8.27154 8.02605 7.8507C7.83567 7.1994 7.67535 6.41783 7.55511 5.50601C7.51503 5.21543 7.43487 4.48397 7.30962 3.31162C7.18437 2.13928 7.06914 1.27255 6.96894 0.721444C6.86373 0.761524 6.78858 0.851701 6.7485 0.991982C6.70341 1.13226 6.65832 1.31263 6.60822 1.52806C6.6984 1.78357 6.75852 2.00401 6.79359 2.18938C6.82866 2.37475 6.86874 2.68036 6.90882 3.11623C7.01403 3.92786 7.11924 4.73447 7.23447 5.54609C7.26453 5.78657 7.32465 6.26753 7.40481 6.98898C7.40481 7.03908 7.41483 7.10922 7.42986 7.20441V7.39479C7.42986 7.71543 7.37976 8.00601 7.27455 8.27154C7.16934 8.53708 6.999 8.76252 6.75852 8.95791C6.63828 9.00801 6.50802 9.02805 6.37275 9.02805C6.07715 9.02805 5.83667 8.92285 5.6513 8.71744C5.47595 8.39679 5.33066 8.09118 5.22545 7.79559C5.11523 7.50501 4.94489 6.91383 4.70441 6.03206C4.55411 5.49599 4.3988 5.04008 4.2485 4.67435C4.0481 4.18337 3.81764 3.76754 3.5521 3.42184C3.47194 3.41182 3.42184 3.4519 3.39679 3.53707C3.37174 3.62224 3.34669 3.73247 3.31162 3.86774C3.27154 3.93788 3.2515 4.01303 3.2515 4.08317C3.2515 4.17335 3.28156 4.26353 3.33667 4.35872C3.42685 4.48898 3.51202 4.60922 3.6022 4.72946C4.01303 5.55611 4.23347 6.03207 4.27355 6.16233C4.37876 6.47295 4.42886 6.78357 4.42886 7.08918C4.42886 7.19439 4.42886 7.27455 4.41884 7.32966C3.93788 7.93086 3.38176 8.42685 2.74549 8.82265C2.41483 9.02305 2.07916 9.18337 1.73347 9.2986C1.38778 9.41383 1.04208 9.47395 0.701403 9.47395C0.531062 9.39379 0.415832 9.28357 0.350701 9.13828C0.285571 8.99298 0.255511 8.81764 0.255511 8.60721C0.255511 8.51202 0.275551 8.34168 0.310621 8.1012C0.345691 7.86072 0.370741 7.68036 0.375751 7.56012C0.270541 7.83066 0.185371 8.10621 0.11022 8.38176C0.0400801 8.65731 0 8.92285 0 9.16834C0 9.37876 0.02505 9.56914 0.0701402 9.7495C0.11523 9.92986 0.200401 10.0902 0.310621 10.2355C0.405812 10.2856 0.506012 10.3257 0.606212 10.3557C0.706413 10.3858 0.806613 10.4058 0.901804 10.4058C0.991984 10.4058 1.07715 10.3958 1.16733 10.3707C1.55311 10.2605 1.91884 10.1202 2.26954 9.9499C2.62024 9.77956 2.9509 9.57916 3.27154 9.3487C3.62224 9.09318 3.90781 8.81763 4.12325 8.53206C4.37375 8.2014 4.53407 7.8507 4.61423 7.47495C4.71944 7.80561 4.82465 8.14629 4.93988 8.502C5.0501 8.85772 5.18036 9.15832 5.32565 9.3988C5.56613 9.76954 5.93687 9.9499 6.44288 9.9499C6.66834 9.9499 6.88377 9.85972 7.09419 9.67435C7.33467 9.45892 7.5501 9.13327 7.74549 8.70241L8.09619 9.19339C8.45691 9.43387 8.82264 9.60421 9.18838 9.70441C9.55912 9.80461 9.95491 9.85471 10.3808 9.85471C10.8066 9.85471 11.2224 9.80962 11.6383 9.71443C12.0491 9.62425 12.52 9.47896 13.0411 9.28858C13.5621 9.0982 14.2535 8.79759 15.1102 8.38677C15.1403 8.39679 15.1603 8.42184 15.1603 8.47194C15.1603 8.48196 15.1503 8.51703 15.1303 8.58216C15.1102 8.64729 15.1052 8.70241 15.1102 8.75251C15.1102 8.91283 15.1603 9.05812 15.2605 9.18337C15.3607 9.31363 15.481 9.41383 15.6263 9.49399C15.7866 9.54409 15.9419 9.56413 16.0972 9.56413C16.2826 9.56413 16.4679 9.53407 16.6583 9.47395C16.8487 9.41383 17.009 9.33367 17.1443 9.23848C17.3747 9.12826 17.5351 8.92786 17.6252 8.6473C17.6753 8.40681 17.7255 8.16132 17.7806 7.91583L17.7655 7.92585ZM14.6293 10.6563C14.479 10.9068 14.3036 11.1323 14.1132 11.3427C14.0581 11.2625 13.9078 11.1824 13.6623 11.0972C13.4168 11.012 13.2966 10.9218 13.2966 10.8267C13.2966 10.7766 13.3166 10.7214 13.3567 10.6563C13.3868 10.6313 13.4669 10.5411 13.5972 10.3808C13.7024 10.2505 13.7926 10.1904 13.8727 10.1904C13.9429 10.1904 14.018 10.2254 14.0882 10.3006C14.1784 10.3307 14.2735 10.3858 14.3788 10.4559C14.4289 10.486 14.509 10.5561 14.6293 10.6613V10.6563ZM5.9018 4.25852C5.91683 4.32365 5.92685 4.36874 5.92685 4.40381C5.92685 4.46894 5.90681 4.54409 5.86673 4.63427C5.82665 4.72445 5.79659 4.78958 5.78156 4.83968C5.73146 4.86473 5.69138 4.87475 5.66132 4.87475C5.58116 4.87475 5.51102 4.82465 5.44589 4.71944C5.41583 4.66433 5.39078 4.60421 5.37575 4.53908C5.37575 4.21844 5.38577 3.98798 5.4008 3.85271C5.41583 3.71744 5.47595 3.57715 5.58116 3.43186C5.52605 3.61723 5.49599 3.8026 5.49599 3.98296C5.49599 4.11322 5.50601 4.21343 5.52605 4.28858C5.54609 4.36373 5.58617 4.44389 5.64128 4.52405C5.68136 4.56413 5.72144 4.56413 5.76653 4.52405C5.81162 4.48397 5.83667 4.43888 5.84669 4.39379C5.83166 4.35371 5.83166 4.32365 5.8517 4.30361C5.87174 4.28357 5.89178 4.26854 5.90681 4.26353L5.9018 4.25852ZM12.3096 10.2104C12.3096 10.491 12.2495 10.7415 12.1242 10.9569C11.999 11.1723 11.8236 11.3677 11.5882 11.5481C11.6132 11.498 11.7184 11.3627 11.8988 11.1373C12.0491 10.9519 12.1293 10.7916 12.1293 10.6563C12.1293 10.5762 12.1042 10.491 12.0591 10.4058C12.0291 10.4058 11.984 10.4208 11.9339 10.4559C11.8838 10.486 11.8537 10.506 11.8437 10.506C11.8437 10.4409 11.8737 10.3657 11.9289 10.2856C11.984 10.2004 12.0491 10.1403 12.1192 10.1002C12.1994 10.0701 12.2645 10.1102 12.3096 10.2204V10.2104ZM2.81062 1.13227C2.71543 1.48297 2.51002 1.79359 2.20441 2.06413C1.89379 2.33467 1.55812 2.49499 1.18737 2.5501C1.14729 2.52505 1.10721 2.5 1.06713 2.47996C1.11723 2.40982 1.29258 2.28958 1.5982 2.12926C1.8487 1.999 1.96894 1.87876 1.96894 1.75852C1.65832 1.77355 1.39279 1.78858 1.17735 1.79359C0.961924 1.80361 0.776553 1.85872 0.626252 1.96393C0.736473 1.70842 0.851703 1.51303 0.961924 1.37274C1.14729 1.14729 1.34269 1.03707 1.55311 1.03707C1.63327 1.03707 1.7485 1.03708 1.90381 1.02706C2.05411 1.01704 2.16433 1.01703 2.22946 1.01703C2.33968 1.01703 2.44489 1.02706 2.54008 1.04209C2.63527 1.05712 2.73046 1.09218 2.81563 1.13727L2.81062 1.13227ZM1.78858 4.64429C1.81864 4.78958 1.77355 4.87475 1.6483 4.90982C1.52305 4.93988 1.4479 5 1.41283 5.09018C1.41283 5.14529 1.41283 5.2505 1.42285 5.39579C1.43287 5.54609 1.43287 5.65631 1.43287 5.73647C1.43287 5.93687 1.40281 6.11723 1.34769 6.27755C1.24248 6.19739 1.12725 6.03708 1.00701 5.8016C0.881764 5.56613 0.771543 5.4008 0.676353 5.31563C0.666333 5.31563 0.661323 5.32565 0.651303 5.34569C0.641283 5.36573 0.641282 5.38076 0.641282 5.38577C0.586172 5.4008 0.526052 5.39579 0.465932 5.36072C0.405811 5.33066 0.350701 5.29058 0.305611 5.24048C0.305611 5.12024 0.315631 5.02004 0.335671 4.93988C0.355711 4.85972 0.395792 4.78457 0.460922 4.70942C0.646293 4.82966 0.826653 5.04008 1.002 5.33567C1.1523 5.6012 1.24248 5.74649 1.26753 5.78156C1.27755 5.46092 1.29259 5.19038 1.32265 4.96493C1.35271 4.73948 1.46293 4.62926 1.65331 4.62926C1.70842 4.62926 1.75351 4.62926 1.78357 4.63928L1.78858 4.64429ZM4.6493 9.94489C4.6493 10.2104 4.60421 10.4509 4.50902 10.6663C4.41884 10.8818 4.27355 11.0972 4.08317 11.3176C4.0982 11.2375 4.16834 11.0872 4.29359 10.8717C4.41884 10.6563 4.47896 10.481 4.47896 10.3557C4.47896 10.2505 4.43888 10.1453 4.35872 10.0451L4.17836 10.2004C4.17836 10.01 4.25351 9.85471 4.40882 9.74449C4.45892 9.73447 4.499 9.74449 4.53908 9.77455C4.57916 9.80461 4.61423 9.85972 4.6493 9.9499V9.94489Z" fill="white"/>
</svg>
