<svg width="20" height="12" viewBox="0 0 20 12" fill="none" xmlns="http://www.w3.org/2000/svg">
<path fill-rule="evenodd" clip-rule="evenodd" d="M19.9941 2.68071L19.5961 2.21247C19.5903 2.2827 19.5844 2.35878 19.5844 2.43487V2.62217C19.5844 2.93238 19.6254 3.4299 19.7132 4.10886C19.801 4.78782 19.842 5.30288 19.842 5.65407V6.08721C19.842 6.91249 19.7951 7.51536 19.7073 7.88411C19.6196 8.25285 19.4732 8.59819 19.2684 8.9084C19.362 8.68013 19.4264 8.44015 19.4674 8.17676C19.5083 7.91337 19.5259 7.63242 19.5259 7.32806C19.5259 7.211 19.5259 7.09393 19.5259 6.97687C19.5259 6.85981 19.5025 6.6491 19.4732 6.34474L19.0518 1.62716C19.0752 1.55107 19.0694 1.46326 19.0284 1.37546C18.9874 1.28766 18.9523 1.19988 18.923 1.11208C18.964 1.03599 19.0167 0.918927 19.0928 0.760894C19.1689 0.602861 19.2332 0.49166 19.2976 0.421423C19.444 0.790167 19.5961 1.15305 19.7542 1.51009C19.9181 1.94907 20 2.33537 20 2.68071H19.9941ZM15.101 2.14221L14.9839 2.2944L14.8317 2.16563C14.7147 2.40561 14.5157 2.65143 14.2347 2.89141C14.1235 2.98506 13.866 3.17822 13.4621 3.46502C13.5557 3.35381 13.7723 3.14311 14.1176 2.83289C14.4162 2.5695 14.6093 2.33537 14.703 2.14221C14.6795 2.11295 14.6093 2.05443 14.4864 1.97249C14.3635 1.89054 14.2932 1.81445 14.2698 1.74421C14.3401 1.58618 14.3927 1.48082 14.4337 1.41644C14.5098 1.30523 14.6152 1.235 14.7381 1.20573C14.8025 1.22915 14.8551 1.27597 14.902 1.3462C14.9488 1.41644 14.9781 1.48667 14.9839 1.55691C14.9605 1.62129 14.9488 1.66812 14.9488 1.70909C14.9488 1.76177 14.9781 1.832 15.0424 1.90809C15.1068 1.98418 15.1244 2.06612 15.101 2.14221ZM12.7012 0.491657C12.6251 0.632131 12.508 0.755037 12.35 0.866245C12.2388 0.942336 12.0866 1.03013 11.8935 1.12378C11.7003 1.21743 11.5013 1.31108 11.3082 1.39888C11.115 1.48667 10.9628 1.58032 10.8516 1.67397C10.9219 1.51594 11.0214 1.38717 11.156 1.28181C11.2906 1.17645 11.4603 1.07696 11.6711 0.983314C12.0164 0.819428 12.3559 0.655544 12.7012 0.491657ZM13.2748 2.37635C13.1753 2.32367 13.1226 2.25929 13.1226 2.18905C13.1226 2.16564 13.1577 2.08955 13.228 1.95493C13.2572 1.89054 13.2748 1.84371 13.2748 1.80274C13.2748 1.75592 13.2572 1.70323 13.228 1.65056C13.1987 1.59788 13.1694 1.53935 13.146 1.48667C13.0992 1.39887 13.0231 1.36961 12.9236 1.39302C12.8124 1.42229 12.7129 1.48667 12.6193 1.58032C12.5256 1.67397 12.4671 1.77349 12.4437 1.88469C12.4671 1.97834 12.5256 2.06614 12.6193 2.15393C12.6719 2.20076 12.7539 2.27098 12.8651 2.36463C12.7422 2.52267 12.5549 2.69241 12.3149 2.87971C11.8232 3.26016 11.5247 3.5177 11.4252 3.65232C11.7471 3.44746 12.0164 3.26602 12.233 3.10213C12.5315 2.88556 12.7831 2.67485 12.9939 2.4817C13.0348 2.48756 13.0582 2.51682 13.0758 2.5695C13.0934 2.62217 13.1168 2.64559 13.146 2.64559C13.2631 2.57535 13.3041 2.48756 13.2748 2.37635ZM19.2684 9.28299C19.0518 9.48785 18.8177 9.64003 18.5777 9.74539C18.3377 9.85074 18.0685 9.90341 17.7817 9.90341C17.5651 9.82732 17.4539 9.75709 17.4539 9.69271C17.4539 9.64589 17.571 9.55808 17.8109 9.42346C18.0509 9.28883 18.1621 9.16007 18.1446 9.02545C18.0509 8.96107 17.969 8.91425 17.8987 8.88498C17.8285 8.85572 17.7524 8.83815 17.6646 8.83815C17.5944 8.86156 17.53 8.90839 17.4773 8.97277C17.4246 9.03716 17.4071 9.09569 17.4305 9.14252C17.4715 9.09569 17.5066 9.07228 17.5358 9.07228C17.5827 9.07228 17.6354 9.08983 17.6997 9.1308C17.729 9.14836 17.7758 9.17178 17.8285 9.21275C17.6471 9.3064 17.5183 9.40006 17.4305 9.49371C17.3076 9.62833 17.2432 9.76294 17.2432 9.90341C17.2608 9.9678 17.2959 10.0205 17.3544 10.0673C17.4129 10.1141 17.4715 10.1434 17.5358 10.1609C17.5768 10.1609 17.6295 10.1609 17.6997 10.1726C18.01 10.1726 18.3143 10.0907 18.6011 9.92097C18.8879 9.75123 19.1103 9.54052 19.2684 9.28299ZM12.549 4.74099L12.4437 4.97512C12.4437 4.97512 12.3734 4.9634 12.3032 4.93999C12.233 4.91658 12.1803 4.90487 12.1393 4.90487C12.0398 4.90487 11.9813 4.95755 11.9754 5.06876C11.9462 5.37897 11.8759 5.69504 11.7764 6.00525C11.712 5.95843 11.6359 5.81797 11.5364 5.57799C11.4369 5.33801 11.314 5.23265 11.156 5.25606C11.1092 5.21509 11.0857 5.16828 11.0857 5.10389C11.0857 5.06292 11.0975 5.0161 11.115 4.95757C11.1326 4.89903 11.1618 4.82879 11.1911 4.7527C11.3316 4.7527 11.4545 4.85221 11.554 5.04536C11.6652 5.29704 11.7413 5.46678 11.7881 5.56043C11.8584 5.20339 11.8993 5.01024 11.9052 4.98682C11.9754 4.78197 12.0983 4.6532 12.2798 4.60052C12.3266 4.60052 12.3734 4.61807 12.4144 4.64733C12.4554 4.6766 12.5022 4.71172 12.549 4.74099ZM7.30465 1.36962C7.32221 1.56277 7.28709 1.69739 7.211 1.76763C7.16418 1.79104 7.1115 1.78518 7.05882 1.74421C7.00615 1.70324 6.96517 1.65642 6.94176 1.60374C6.91835 1.55106 6.90664 1.48082 6.90664 1.39302C6.90664 1.27596 6.9242 1.17647 6.95347 1.09452C6.98273 1.01258 7.04126 0.89551 7.11735 0.737477C7.12321 0.790155 7.1115 0.883817 7.07638 1.00673C7.04126 1.12965 7.0237 1.21158 7.0237 1.25255C7.0237 1.36961 7.08809 1.4457 7.211 1.48667C7.22856 1.43399 7.24027 1.39303 7.25783 1.36962H7.30465ZM9.99707 2.37635C9.92098 2.35294 9.84489 2.28855 9.77466 2.18905C9.67515 2.04857 9.60492 1.96078 9.56394 1.93151L9.50541 2.04858C9.50541 2.44074 9.55809 2.9558 9.65759 3.59379C9.79807 4.4776 9.88001 5.02779 9.89757 5.25606C9.91513 5.48433 9.92684 5.73017 9.92684 5.99356C9.92684 6.43254 9.89172 6.81884 9.81563 7.16417C9.73954 7.5095 9.60492 7.84898 9.40006 8.1826C9.46444 7.98945 9.51127 7.76118 9.54053 7.50364C9.5698 7.24611 9.58736 7.00613 9.58736 6.78957C9.58736 6.35058 9.54639 5.84723 9.45859 5.26778C9.25373 3.90986 9.15423 3.06701 9.15423 2.73924C9.08984 2.43488 9.04302 2.15392 9.0079 1.89054C8.97278 1.62715 8.95522 1.36962 8.95522 1.11208V0.877963C8.97278 0.807726 8.97864 0.760889 8.97864 0.737477C8.99619 0.719918 9.03131 0.65553 9.0957 0.532615C9.16008 0.4097 9.21861 0.345331 9.27129 0.327771C9.31811 0.450686 9.42932 0.696504 9.61077 1.06525C9.8683 1.59788 9.99707 2.03102 9.99707 2.37635ZM14.703 10.1375C14.6269 10.3073 14.5625 10.4302 14.5157 10.5004C14.4279 10.6233 14.3284 10.7228 14.2113 10.7931C14.1703 10.7521 14.0767 10.6936 13.9303 10.6175C13.6904 10.4946 13.5967 10.3658 13.6494 10.2312C13.6787 10.2078 13.7489 10.1141 13.8601 9.95025C13.9362 9.82733 14.0181 9.76294 14.1059 9.76294C14.1528 9.76294 14.1879 9.7688 14.2113 9.78636L14.703 10.1375ZM19.1981 5.82967C18.6596 5.77699 18.127 5.69504 17.6061 5.58383C17.0852 5.47262 16.5701 5.34386 16.0726 5.18583C16.1955 4.99267 16.2833 4.78781 16.336 4.5771C16.3886 4.36639 16.4121 4.13812 16.4121 3.88644C16.4121 3.68158 16.3418 3.1548 16.2013 2.3061C16.1487 1.97833 16.1194 1.67983 16.1194 1.41644C16.1662 1.46326 16.2365 1.53935 16.3243 1.65056C16.4121 1.76177 16.4881 1.83201 16.5408 1.86128C16.5408 1.56277 16.4179 1.1706 16.1662 0.678942C16.0258 0.397994 15.9204 0.16974 15.8502 0L15.5224 0.538474C15.5224 0.942337 15.5751 1.45741 15.6863 2.07198C15.9204 3.40063 16.0375 4.24934 16.0375 4.62393C15.7741 4.71173 15.4873 4.7644 15.1888 4.79366C14.8903 4.82293 14.5391 4.83464 14.1411 4.83464H13.8601C13.7255 5.07461 13.6318 5.32046 13.5792 5.56043C13.9303 5.5897 14.3049 5.64822 14.6971 5.73016C15.0893 5.8121 15.458 5.90575 15.7916 6.00525C15.3936 6.10476 14.9663 6.21011 14.5098 6.31547C14.0533 6.42082 13.5733 6.53204 13.0641 6.6491C12.4729 6.80713 12.0983 7.09978 11.952 7.53876C12.3559 7.53876 12.789 7.59144 13.2514 7.70265C13.6084 7.79044 14.0123 7.90752 14.4571 8.06555C13.1929 8.247 12.3617 8.38161 11.9637 8.47526C11.4428 8.59817 10.9804 8.76206 10.5824 8.95522C10.559 8.96107 9.87416 9.49955 8.5221 10.559C8.05385 10.9277 7.59145 11.1091 7.14077 11.1091C7.0237 11.0682 6.91835 11.0155 6.81885 10.9394C6.71934 10.8633 6.64911 10.7755 6.60228 10.676C6.59643 10.6233 6.59058 10.5414 6.59058 10.4302C6.59058 10.0263 6.70764 9.61076 6.94176 9.18934C7.1115 8.87912 7.36904 8.52794 7.71437 8.13579C7.72022 8.11823 7.87826 7.95433 8.18262 7.63241C8.38747 7.41585 8.48698 7.22855 8.48698 7.07052C8.48698 6.99443 8.46942 6.9242 8.44015 6.85982C8.28212 6.81885 8.09482 6.80128 7.87826 6.80128C7.56804 6.80128 7.19344 6.86565 6.75446 6.98857C5.5897 7.3222 4.98098 7.49779 4.9283 7.50364C4.6415 7.55632 4.3547 7.61485 4.07375 7.66753C3.44747 7.78459 2.94996 7.84313 2.57536 7.84313C2.15394 7.84313 1.78519 7.78459 1.47498 7.66753C1.10623 7.52706 0.807726 7.31051 0.573602 7.0237C0.485806 6.80714 0.444835 6.57301 0.444835 6.32133C0.444835 5.90576 0.544337 5.51945 0.749195 5.16241C0.801873 5.18582 0.860404 5.20338 0.913081 5.22094C0.965759 5.2385 1.02429 5.2385 1.08867 5.23264C1.3228 5.12143 1.49254 4.95755 1.59204 4.74099C1.69154 4.52442 1.74422 4.27274 1.74422 3.99179H1.6974C1.6974 3.99179 1.65642 4.03277 1.64472 4.06788C1.63301 4.103 1.62131 4.13227 1.60375 4.15568C1.55107 4.31956 1.43401 4.41322 1.25256 4.43663C1.11209 4.31372 1.01844 4.1908 0.965759 4.06788C0.913081 3.94497 0.889669 3.80451 0.889669 3.64062C0.889669 3.38894 0.989171 3.06702 1.18232 2.66901C1.43986 2.14808 1.58033 1.84372 1.60375 1.76763C1.3228 2.17149 1.12965 2.45829 1.03014 2.62217C0.678958 3.21333 0.503365 3.75767 0.503365 4.24933C0.503365 4.53613 0.55019 4.79367 0.643839 5.02194C0.316066 5.67163 0.0995025 6.3623 0 7.09394C0 7.34562 0.0526776 7.57389 0.163886 7.79046C0.275095 8.00702 0.433128 8.15919 0.643839 8.25284C0.924787 8.37575 1.18818 8.46355 1.43986 8.51038C1.69154 8.5572 1.96664 8.58061 2.271 8.58061C2.54609 8.58061 2.80363 8.56305 3.04361 8.52793C3.28358 8.49282 3.57038 8.44014 3.89816 8.36991C4.94586 8.0714 5.99356 7.77289 7.04712 7.46853C7.09979 7.46853 7.18759 7.46269 7.30465 7.44513C7.42171 7.42757 7.50951 7.42171 7.56219 7.42171C7.65584 7.42171 7.73193 7.43342 7.79631 7.46269C7.8607 7.49195 7.90752 7.54462 7.94849 7.62071C7.82558 7.75533 7.50366 7.97775 6.98859 8.29967C6.57302 8.55721 6.31548 8.82059 6.20427 9.09568C6.59643 8.86741 6.98273 8.64499 7.37489 8.41672L6.81299 9.18934C6.74861 9.32981 6.6374 9.56978 6.47352 9.91511C6.3506 10.2136 6.28622 10.4712 6.28622 10.6877C6.28622 10.8458 6.30963 10.9804 6.36231 11.0974C6.41498 11.2145 6.50278 11.3257 6.6257 11.4252C6.84226 11.6125 7.07638 11.7062 7.32806 11.7062C7.47439 11.7062 7.63243 11.671 7.79046 11.6008C7.94849 11.5306 8.11238 11.4311 8.27627 11.3082C8.34065 11.2613 8.64501 10.9862 9.20105 10.4887C9.39421 10.3073 9.57565 10.1668 9.73954 10.0673C10.237 9.75708 10.7638 9.51125 11.314 9.3298C11.8642 9.14836 12.4612 9.01375 13.0992 8.9201C13.7372 8.82645 14.381 8.75622 15.019 8.70354C15.657 8.65086 16.2657 8.62744 16.8452 8.62744C16.9154 8.53965 16.9857 8.45186 17.0559 8.35821C17.1905 8.17091 17.2549 8.00701 17.2549 7.86653C16.7398 7.86653 16.0433 7.72021 15.1595 7.43341C14.6152 7.25196 14.2113 7.1349 13.9538 7.07052C14.779 6.86566 15.3526 6.7369 15.6746 6.67252C16.3126 6.55545 16.9096 6.49691 17.4539 6.49691C17.8578 6.49691 18.2675 6.53204 18.6831 6.60228L19.1981 5.82967ZM4.62394 0.760894C4.62979 0.825278 4.62394 0.883808 4.60638 0.942338C4.58882 1.00087 4.5537 1.02429 4.50688 1.00673C4.46005 0.959907 4.43079 0.930639 4.41323 0.91308C4.37226 0.872109 4.33714 0.848681 4.29617 0.842828C4.27861 1.04769 4.2669 1.2467 4.26105 1.43985C4.23764 1.66812 4.1791 1.84371 4.08545 1.97833C4.02107 1.93736 3.93913 1.79688 3.83377 1.55691C3.72842 1.31693 3.59965 1.21158 3.44162 1.25255C3.36553 1.21158 3.32455 1.15304 3.32455 1.06525C3.32455 1.01842 3.33626 0.965752 3.35967 0.907221C3.38308 0.84869 3.40064 0.796007 3.4182 0.755035C3.43576 0.714064 3.45917 0.696507 3.50015 0.70236C3.54112 0.708213 3.57624 0.714077 3.6055 0.714077C3.69915 0.81358 3.79865 0.971612 3.89816 1.18818C3.99766 1.40474 4.0796 1.55107 4.13228 1.62716V1.19402C4.13228 1.05354 4.13813 0.924778 4.15569 0.81357C4.17325 0.702361 4.20837 0.59116 4.26105 0.491657C4.33714 0.491657 4.40737 0.520913 4.47176 0.573591C4.50102 0.597003 4.5537 0.661392 4.62394 0.760894ZM7.49195 4.83464C7.42757 5.06876 7.3983 5.19167 7.3983 5.19753C7.35148 5.28532 7.28709 5.34386 7.211 5.37313C7.16418 5.37898 7.12321 5.35557 7.09394 5.3029C7.06468 5.25022 7.04126 5.2151 7.0237 5.20924C7.01785 5.16827 7.012 5.10974 7.012 5.02194C7.012 4.88147 7.04126 4.72929 7.09394 4.5654C7.17003 4.37225 7.22856 4.22593 7.25783 4.13228C7.26368 4.19666 7.24612 4.30202 7.20515 4.46005C7.16418 4.61808 7.14077 4.72928 7.14077 4.79952C7.14077 4.93414 7.19344 5.02193 7.30465 5.06876C7.36904 4.99267 7.42757 4.91073 7.49195 4.83464ZM6.04039 3.39478C6.04039 3.39478 5.94088 3.55281 5.81797 3.79279C5.73017 3.95668 5.63067 4.03863 5.51361 4.03863L4.85806 3.65232C4.78783 3.69915 4.72929 3.78694 4.67662 3.92156C4.62394 4.05618 4.57126 4.14983 4.50688 4.20251C4.27275 4.15569 4.12057 4.11471 4.05034 4.08544C3.88645 4.01521 3.79865 3.92741 3.78109 3.81621C3.85718 3.67573 3.91572 3.57624 3.95669 3.51185C4.02692 3.38894 4.10301 3.29528 4.1791 3.2309C4.41908 3.3304 4.66491 3.43575 4.90489 3.53525L5.45508 3.02018C5.45508 3.02018 5.5897 3.09628 5.84138 3.2309C5.93503 3.28358 5.99941 3.34211 6.04039 3.39478ZM2.94996 2.85629C2.97337 2.94409 2.96752 3.03189 2.9324 3.11969C2.89728 3.20748 2.83875 3.29528 2.76266 3.37137C2.69242 3.37722 2.63389 3.35382 2.58706 3.28943C2.54024 3.20164 2.50512 3.14309 2.48171 3.11383C2.48171 2.92653 2.50512 2.75094 2.54609 2.58705C2.58706 2.42317 2.65145 2.25344 2.73924 2.0837C2.73924 2.13638 2.72169 2.24172 2.68071 2.38805C2.63974 2.53438 2.62218 2.65143 2.62218 2.72752C2.62218 2.88556 2.68657 2.99677 2.80948 3.06701L2.94996 2.85629ZM4.02692 5.7126C4.02107 5.8004 4.00936 5.87064 3.99181 5.93502C3.97425 5.9994 3.92742 5.9994 3.85133 5.94672C3.72842 5.90575 3.65818 5.8882 3.65233 5.8882C3.56453 6.22183 3.48259 6.55545 3.39479 6.88322C3.30699 6.84225 3.20164 6.69592 3.07287 6.44424C2.9441 6.19255 2.79192 6.08134 2.62218 6.11061C2.57536 6.06378 2.55195 6.01696 2.55195 5.97014C2.55195 5.94087 2.5695 5.88819 2.59877 5.81795C2.62804 5.74771 2.6456 5.69504 2.6456 5.65407C2.68657 5.61309 2.72754 5.59555 2.77436 5.59555C2.80363 5.59555 2.8446 5.61311 2.89142 5.64823C2.93825 5.68334 3.03775 5.86479 3.18408 6.19256C3.24846 6.32718 3.29529 6.39156 3.33626 6.39156C3.37723 6.39156 3.41235 6.36229 3.44162 6.29791C3.46503 6.06379 3.48259 5.92918 3.48844 5.8882C3.52941 5.73017 3.61135 5.63652 3.73427 5.59555C3.85718 5.59555 3.95669 5.63651 4.02692 5.7126ZM14.7849 1.74421C14.7673 1.67397 14.7439 1.6213 14.7088 1.58618C14.6737 1.55106 14.6386 1.53351 14.5976 1.53351C14.5683 1.53351 14.5332 1.55106 14.504 1.58032C14.5976 1.69153 14.6913 1.74421 14.7849 1.74421ZM13.029 2.04858C12.9997 2.03102 12.947 1.9959 12.8768 1.93151C12.8475 1.90225 12.7948 1.85543 12.7246 1.79104C12.7656 1.72081 12.8007 1.68567 12.83 1.68567C12.8592 1.68567 12.9002 1.71494 12.947 1.77933C12.9939 1.84371 13.0231 1.90809 13.029 1.97833V2.04858Z" fill="white"/>
</svg>
