<svg width="20" height="11" viewBox="0 0 20 11" fill="none" xmlns="http://www.w3.org/2000/svg">
<path fill-rule="evenodd" clip-rule="evenodd" d="M19.925 5.36715C19.9471 5.57002 19.9647 5.77289 19.978 5.97575C19.9912 6.17862 20 6.38147 20 6.58434C20 7.02977 19.9647 7.43992 19.8897 7.8236C19.8148 8.20288 19.6869 8.58214 19.5017 8.957C19.559 8.47629 19.6163 7.9956 19.6692 7.5193C19.6692 7.37818 19.6604 7.23264 19.6384 7.0871L19.0254 2.29328C19.0342 2.258 19.0342 2.20949 19.0342 2.14334C19.0342 1.99339 18.9945 1.7817 18.9195 1.49945C18.8401 1.2172 18.8049 1.01434 18.8049 0.886443C18.8049 0.767369 18.8181 0.665939 18.849 0.586557C18.8754 0.507174 18.9372 0.418973 19.0298 0.32636C19.0518 0.304309 19.0783 0.269028 19.1092 0.216106C19.14 0.163184 19.1753 0.132308 19.2106 0.127898C19.4135 0.736498 19.6251 1.33628 19.8368 1.93606C19.8368 1.98016 19.828 2.05071 19.8148 2.14774C19.7001 1.99779 19.5899 1.85227 19.4752 1.70232C19.4752 2.24036 19.5546 2.99891 19.7178 3.97796C19.8368 4.69681 19.9074 5.16428 19.9294 5.37597L19.925 5.36715ZM14.8975 3.2591L14.3594 3.90298C14.2889 3.8236 14.183 3.73539 14.0419 3.63837C13.9493 3.57663 13.8831 3.52812 13.839 3.50165C13.839 3.38699 13.892 3.27233 13.9978 3.15766C14.1036 3.043 14.2051 2.92833 14.3065 2.82249C14.4212 2.84454 14.5447 2.91951 14.6858 3.05623C14.7563 3.12679 14.8269 3.19295 14.8975 3.2591ZM15.7001 0.286657C14.9724 0.476293 14.2359 0.692395 13.4818 0.926133C12.7321 1.16428 11.9868 1.39802 11.2547 1.63176C10.8181 1.78611 10.3815 1.94047 9.94046 2.09923C9.42448 2.28887 9.05402 2.54024 8.82911 2.84895C9.42889 2.54024 10.0728 2.25799 10.7652 2.01102C11.1665 1.8699 11.8368 1.66263 12.7762 1.38479C13.7861 1.08931 14.4564 0.886447 14.7872 0.780604C14.9548 0.723272 15.1312 0.661524 15.312 0.595372C15.4928 0.52922 15.6207 0.42338 15.7001 0.282256V0.286657ZM13.7508 3.40905C13.5877 3.62955 13.4245 3.84565 13.2657 4.06615L12.6836 3.62072L13.1819 2.93274L13.7552 3.40905H13.7508ZM9.56119 1.19515C9.56119 1.19515 9.58324 1.25689 9.58324 1.30981C9.58324 1.38038 9.5656 1.45536 9.53032 1.53915C9.49504 1.61853 9.46858 1.68908 9.44653 1.74641C9.36714 1.76846 9.3054 1.74642 9.25689 1.69349C9.20838 1.63616 9.16428 1.56561 9.129 1.48182C9.129 1.34951 9.14664 1.21279 9.17751 1.07608C9.20838 0.939362 9.28335 0.75855 9.39361 0.529223C9.34509 0.732089 9.29658 0.934954 9.25689 1.13341C9.25689 1.22602 9.28335 1.30981 9.33186 1.38919L9.43771 1.46417L9.5656 1.19956L9.56119 1.19515ZM12.4939 6.66813C12.4366 6.70342 12.3793 6.70342 12.3264 6.67255C12.269 6.64168 12.2205 6.58875 12.1764 6.51819C12.1544 6.41235 12.1455 6.3021 12.1455 6.19184C12.1455 6.01544 12.172 5.84345 12.2249 5.67145C12.2778 5.50387 12.3528 5.33628 12.4542 5.1731C12.4057 5.32746 12.3616 5.46417 12.3264 5.58766C12.2911 5.70673 12.2734 5.82581 12.2734 5.94929C12.2734 6.1257 12.3219 6.27563 12.4234 6.39471C12.4719 6.39471 12.516 6.3506 12.5513 6.26681C12.5865 6.18302 12.6086 6.13451 12.613 6.1301C12.6351 6.1742 12.6439 6.21389 12.6439 6.25799C12.6439 6.31533 12.6262 6.38147 12.591 6.46086C12.5336 6.57993 12.5028 6.6505 12.4939 6.67255V6.66813ZM11.4884 4.14995C11.5237 4.17641 11.5325 4.2161 11.5105 4.26461C11.4884 4.31313 11.4664 4.36164 11.4487 4.40133C11.4223 4.41015 11.3738 4.40132 11.312 4.37927C11.2503 4.35722 11.2018 4.34841 11.1753 4.34841C11.0959 4.34841 11.043 4.3925 11.0077 4.47629C10.9636 4.75854 10.9283 4.98346 10.9019 5.15546C10.8754 5.32304 10.8269 5.51268 10.7652 5.71554C10.7166 5.62293 10.6196 5.39802 10.4785 5.03639C10.4212 4.88203 10.3594 4.74532 10.2889 4.62183C10.2668 4.65712 10.2359 4.67475 10.1918 4.67475C10.1566 4.67475 10.0728 4.64829 9.93605 4.59096C9.87431 4.55568 9.83903 4.50276 9.83903 4.4322C9.83903 4.39692 9.86108 4.32635 9.90077 4.22051C9.92282 4.16318 9.93164 4.12348 9.93164 4.09261C9.95369 4.01323 10.0287 3.97796 10.1522 3.97796C10.2845 4.1279 10.4079 4.32636 10.5138 4.58215C10.6196 4.87762 10.699 5.09372 10.7563 5.22602C10.8181 4.93495 10.8666 4.72327 10.8931 4.59096C10.9504 4.34399 11.043 4.15877 11.1665 4.03088C11.2282 4.01765 11.29 4.02205 11.3473 4.05292C11.409 4.10143 11.4576 4.13231 11.484 4.14995H11.4884ZM14.0904 9.7376C14.0904 9.93606 14.011 10.1036 13.8567 10.2448C13.7288 10.2227 13.6362 10.1389 13.5832 9.98897C13.57 9.90518 13.5612 9.84345 13.5612 9.80817C13.5612 9.65381 13.5921 9.49944 13.6582 9.35391C13.7023 9.2613 13.7729 9.129 13.8787 8.9526C13.8699 8.96583 13.8434 9.05402 13.7905 9.2172C13.7376 9.38037 13.7111 9.50387 13.7111 9.58766C13.7111 9.71996 13.7596 9.83462 13.8611 9.92724C13.9228 9.94929 13.9713 9.92723 14.0022 9.85226C14.0331 9.7817 14.0639 9.74201 14.0904 9.7376ZM17.3627 2.11688C17.2701 1.7773 17.151 1.42889 17.0011 1.06285C16.8512 0.701214 16.71 0.343991 16.5689 0C16.4542 0.061742 16.366 0.167586 16.3043 0.317531C16.2558 0.458655 16.2073 0.595371 16.1544 0.732085C16.2161 1.24807 16.3175 1.97134 16.4498 2.90188C16.5557 3.62956 16.6615 4.37486 16.7718 5.14223C16.882 5.90959 16.9658 6.61963 17.032 7.27674C16.8644 7.41786 16.6792 7.51929 16.4763 7.57662C16.2734 7.63836 16.0529 7.66483 15.806 7.66483C15.7266 7.66483 15.656 7.66483 15.5899 7.66042C15.5237 7.66042 15.3958 7.64278 15.215 7.61191C15.3076 7.32084 15.3738 7.08269 15.4223 6.89306C15.4708 6.70342 15.4928 6.50056 15.4928 6.28887C15.4928 6.07718 15.462 5.88754 15.4046 5.71554C15.3429 5.54796 15.2459 5.3936 15.1136 5.2613C15.0518 5.2172 14.9813 5.19956 14.9019 5.19956C14.8181 5.19956 14.7255 5.22602 14.6284 5.27453C14.3021 5.54355 14.0507 5.84786 13.8699 6.19626C13.6891 6.54025 13.6009 6.9107 13.6009 7.2988C13.6009 7.32526 13.6009 7.36936 13.6053 7.42228C13.6053 7.4752 13.6141 7.53693 13.6229 7.6075C12.9526 7.79272 12.4807 7.9118 12.2029 7.96913C11.6295 8.08821 11.118 8.14995 10.6681 8.14995C10.0948 8.14995 9.60529 8.07938 9.19515 7.93826C8.71003 7.77067 8.3043 7.49284 7.98677 7.11356C7.75303 6.50055 7.58545 5.75524 7.4796 4.88203C7.46637 4.77619 7.40022 3.98677 7.28997 2.50937C7.21941 1.57001 7.11356 0.802642 6.97244 0.202863C6.80926 0.485112 6.72106 0.64829 6.70783 0.687981C6.66373 0.793825 6.64609 0.895263 6.64609 0.996697C6.64609 1.0408 6.65491 1.08931 6.66814 1.15105C6.68137 1.2128 6.70342 1.2613 6.72988 1.3054L7.33407 6.77839C7.29879 6.86218 7.23705 6.93716 7.14884 7.00772C7.06064 7.07388 6.96803 7.13561 6.86659 7.19294C6.76075 7.23704 6.65932 7.25469 6.55788 7.25469C6.37266 7.25469 6.17861 7.19295 5.97574 7.06506C5.84785 6.98568 5.68468 6.86218 5.4774 6.68578C5.44212 6.75634 5.41566 6.8269 5.39802 6.89306C5.38037 6.95921 5.35832 7.05183 5.32745 7.17531C4.96582 7.2591 4.59978 7.41786 4.22492 7.6516C3.94267 7.82801 3.61632 8.0838 3.24146 8.41456C3.21499 8.43661 2.97244 8.6483 2.5226 9.04962C2.01985 9.49505 1.61411 9.81257 1.29658 10.0022C1.20397 10.0375 1.11577 10.0551 1.03197 10.0551C0.776185 10.0551 0.560088 9.94487 0.374862 9.72878C0.330761 9.6097 0.3043 9.50827 0.291069 9.42889C0.277839 9.34951 0.269019 9.25249 0.269019 9.14665C0.269019 8.74532 0.480706 8.24257 0.904079 7.64279C1.21279 7.19736 1.40243 6.92392 1.46417 6.81808L1.68467 6.86218C1.8699 6.74311 2.00221 6.54024 2.086 6.25799C2.10805 6.18743 2.15215 5.94929 2.22271 5.54797C2.17861 5.60971 2.14333 5.67586 2.10805 5.7376C2.086 5.81698 2.04631 5.88754 1.98456 5.95369C1.92282 6.01985 1.85667 6.0419 1.77729 6.02426C1.62293 5.8699 1.51268 5.70673 1.45535 5.54355C1.39361 5.37597 1.36714 5.19074 1.36714 4.97906C1.36714 4.64829 1.48181 4.172 1.71555 3.55017C1.86549 3.15326 1.95369 2.89747 1.98897 2.7784C1.53914 3.75304 1.28335 4.32635 1.22602 4.50275C1.09813 4.89084 1.03638 5.25689 1.03638 5.60529C1.03638 5.79492 1.06284 5.99339 1.11136 6.19184C1.15987 6.39471 1.23484 6.57994 1.33186 6.75634C0.674752 7.71775 0.31753 8.2558 0.264609 8.37487C0.0882028 8.74091 0 9.10694 0 9.46416C0 9.66262 0.0308711 9.87431 0.0970233 10.0992C0.29548 10.4035 0.586549 10.5535 0.974642 10.5535C1.02315 10.5535 1.09813 10.5447 1.19515 10.5314C1.49063 10.3903 1.82139 10.1742 2.19184 9.88755C2.50937 9.62735 2.8269 9.36715 3.14443 9.11577C3.51047 8.82029 3.83682 8.59097 4.11907 8.42779C4.48512 8.2161 4.85116 8.08379 5.20838 8.03528C5.35832 8.62183 5.71555 9.07167 6.28886 9.3892C6.36825 9.15105 6.44322 8.9129 6.5226 8.67916C6.54906 8.63506 6.5667 8.58656 6.57111 8.52481C6.57111 8.46307 6.57552 8.40573 6.57552 8.3484C6.57552 8.19845 6.59757 8.10585 6.64609 8.06616C6.69019 8.02646 6.76075 8.01323 6.85336 8.03087C7.00331 7.96912 7.12679 7.85006 7.22381 7.68248C7.27233 7.59868 7.33848 7.44873 7.42668 7.23705C7.51047 7.43991 7.59427 7.6472 7.68247 7.85006C7.78831 8.07498 7.92503 8.24697 8.09702 8.37046C8.42337 8.58214 8.77178 8.73209 9.14664 8.8247C9.5215 8.91731 9.91841 8.96141 10.3418 8.96141C10.4961 8.96141 10.6329 8.957 10.7475 8.94377C10.8622 8.93495 10.9857 8.92613 11.1136 8.91731C11.5281 8.87321 11.9294 8.81147 12.3087 8.72768C12.7674 8.62183 13.3804 8.44542 14.1521 8.19845C14.3771 8.3043 14.6108 8.38369 14.849 8.44102C15.0871 8.49835 15.3429 8.52481 15.6119 8.52481C15.8809 8.52481 16.1323 8.48953 16.3705 8.41456C16.6086 8.33959 16.8159 8.22493 17.0011 8.07057C17.1202 7.83242 17.2084 7.57663 17.2613 7.31203C17.3142 7.04742 17.3407 6.76958 17.3407 6.48292C17.3407 6.19626 17.3186 5.88314 17.2789 5.57443C17.1996 5.15105 17.1246 4.70562 17.0452 4.24256C16.9658 3.77508 16.9305 3.37376 16.9305 3.03418C16.9217 2.97685 16.8997 2.84896 16.86 2.65491C16.8203 2.45646 16.8026 2.28445 16.8026 2.13451C16.8026 2.12128 16.8026 2.06837 16.8115 1.98016C16.8203 1.89196 16.8335 1.82139 16.8556 1.76406C16.9261 1.86108 17.0011 1.96252 17.0849 2.05954C17.1643 2.15657 17.2437 2.22712 17.323 2.27122L17.376 2.13451L17.3627 2.11688ZM9.23484 5.91842C9.24807 5.9978 9.24807 6.06835 9.23484 6.1301C9.22161 6.19184 9.16428 6.32415 9.06726 6.52261C8.99669 6.53143 8.93495 6.51379 8.88203 6.46969C8.82911 6.42558 8.78942 6.37266 8.75854 6.31091C8.73649 6.21389 8.72767 6.12569 8.72767 6.0463C8.72767 5.88313 8.75413 5.71996 8.81147 5.5612C8.84675 5.44653 8.9129 5.3054 9.01433 5.13781C8.97023 5.24366 8.93495 5.34951 8.90408 5.45976C8.87321 5.57001 8.85557 5.67144 8.85557 5.77288C8.85557 5.9581 8.91731 6.11246 9.03638 6.24035C9.09813 6.23153 9.13782 6.18303 9.15105 6.08601C9.16428 5.98898 9.19515 5.93605 9.23484 5.92282V5.91842ZM5.90077 4.23374C5.87872 4.3484 5.85667 4.45865 5.83903 4.57332C5.80375 4.70121 5.73319 4.78501 5.62734 4.82911C5.5656 4.80265 5.51709 4.77618 5.48622 4.75413C5.45535 4.73208 5.42889 4.69681 5.40684 4.64829C5.39802 4.60419 5.39802 4.53804 5.39802 4.44543C5.39802 4.26021 5.42448 4.07497 5.47299 3.88533C5.49945 3.77949 5.56119 3.60309 5.6538 3.35613C5.6538 3.42669 5.64057 3.5193 5.6097 3.62955C5.54796 3.88975 5.51268 4.06174 5.51268 4.13672C5.51268 4.26902 5.55237 4.39251 5.62734 4.49835C5.71996 4.5204 5.77288 4.48071 5.79052 4.38368C5.80816 4.28666 5.84344 4.23374 5.90077 4.23374ZM4.55568 0.573327L4.53363 0.846753C4.49835 0.855574 4.44983 0.846745 4.3925 0.824695C4.33076 0.802644 4.29107 0.793834 4.26902 0.793834C4.24256 0.793834 4.20728 0.802644 4.172 0.824695C4.10143 1.14222 4.03528 1.45976 3.96913 1.77729C3.96913 1.87431 3.98677 1.96252 4.01764 2.03308C4.04851 2.10365 4.10584 2.16539 4.19405 2.2139C4.3925 2.34179 4.48953 2.4785 4.48953 2.62844C4.48953 2.70782 4.46307 2.77839 4.41455 2.84895C4.11907 2.84895 3.9118 2.86659 3.78831 2.90628C3.66924 2.94597 3.55899 3.01213 3.46196 3.11356C3.48401 3.26792 3.55017 3.59428 3.66483 4.08821C3.72216 4.34841 3.76626 4.57773 3.80154 4.77178C3.83682 4.96582 3.85447 5.18193 3.85447 5.42448C3.85447 5.74201 3.80595 6.03749 3.70452 6.31533C3.74862 6.12569 3.76626 5.93606 3.76626 5.75524C3.76626 5.58766 3.75303 5.41565 3.72216 5.24807C3.6957 5.08048 3.6516 4.88645 3.59427 4.66594C3.53693 4.44543 3.4796 4.19846 3.41786 3.91621C3.35612 3.63396 3.32966 3.37817 3.32966 3.14443C3.37817 3.00331 3.42227 2.90628 3.45755 2.84895C3.52811 2.74311 3.61632 2.68138 3.72216 2.66814L4.09261 2.56229C3.99559 2.46527 3.88534 2.41235 3.76626 2.41235C3.70893 2.41235 3.6516 2.42999 3.59868 2.46527C3.5634 2.50937 3.53253 2.54906 3.50165 2.59317C3.47519 2.55789 3.45755 2.52261 3.45755 2.48733C3.45755 2.45205 3.46637 2.41676 3.48842 2.37707C3.51047 2.33738 3.53253 2.29769 3.55017 2.25359C3.6075 2.17421 3.70011 2.12128 3.82359 2.09482C3.76185 1.94487 3.6957 1.79493 3.63396 1.64057C3.55017 1.46417 3.45314 1.30981 3.3473 1.1731C3.32525 1.23484 3.29438 1.27012 3.25028 1.27012C3.22822 1.27012 3.18412 1.25249 3.11797 1.22162C3.05182 1.19075 2.9989 1.1731 2.96362 1.1731C2.9151 1.12459 2.88864 1.05844 2.88864 0.970237C2.88864 0.912905 2.89746 0.859985 2.91069 0.807064C2.92393 0.754142 2.93716 0.710037 2.94598 0.679166C2.9548 0.648295 2.97244 0.621837 2.9989 0.599786C3.02536 0.577736 3.05182 0.555679 3.07828 0.524808C3.25469 0.608601 3.40904 0.767374 3.54576 1.00111C3.6516 1.19957 3.75744 1.3936 3.86329 1.58324C3.9118 1.31422 3.94708 1.11577 3.96913 0.992282C4.01764 0.754134 4.10584 0.577737 4.23374 0.463073C4.29107 0.454253 4.33517 0.454253 4.36604 0.463073C4.39691 0.471893 4.45425 0.507165 4.54245 0.577728L4.55568 0.573327ZM2.95921 7.36935C2.92393 7.49724 2.89746 7.60308 2.87541 7.68688C2.85336 7.77067 2.80926 7.83683 2.7387 7.88975C2.65932 7.90298 2.60639 7.88093 2.57111 7.828C2.53583 7.74421 2.50937 7.68247 2.49614 7.64719C2.48291 7.55016 2.47409 7.47519 2.47409 7.42668C2.47409 7.25027 2.50937 7.06506 2.57993 6.87101C2.6505 6.67696 2.6946 6.54465 2.71665 6.47409C2.67255 6.72106 2.63286 6.96361 2.58875 7.20617C2.58875 7.3032 2.60198 7.38258 2.62404 7.44432C2.6505 7.50607 2.68578 7.55899 2.73429 7.6075C2.77839 7.58545 2.81367 7.55458 2.84013 7.50607C2.86659 7.46197 2.88864 7.41786 2.90187 7.37376H2.9548L2.95921 7.36935ZM15.0254 6.39471C15.0254 6.42117 15.0562 6.52702 15.1224 6.70342C15.1488 6.78281 15.1665 6.84454 15.1665 6.89306C15.1665 6.99008 15.1047 7.05623 14.9768 7.08269C14.8622 7.1312 14.7519 7.17531 14.6417 7.21059C14.5314 7.24587 14.4212 7.27233 14.3065 7.29438C14.1742 7.16208 14.086 7.07387 14.0507 7.02977C13.9581 6.91511 13.9008 6.81368 13.8831 6.72107C13.9802 6.55789 14.0948 6.41235 14.2227 6.28887C14.3859 6.13451 14.5314 6.05513 14.6549 6.05513C14.8093 6.05513 14.9327 6.16979 15.0254 6.39471Z" fill="white"/>
</svg>
