<svg width="20" height="12" viewBox="0 0 20 12" fill="none" xmlns="http://www.w3.org/2000/svg">
<path fill-rule="evenodd" clip-rule="evenodd" d="M19.9583 5.39236C19.9722 5.51748 19.9861 5.6704 19.9907 5.85576C19.9954 6.04111 20 6.20793 20 6.36085C20 6.82888 19.9629 7.25056 19.8934 7.62128C19.8239 7.99663 19.6942 8.37197 19.5088 8.75196C19.5459 8.5527 19.5737 8.3349 19.5876 8.10783C19.6015 7.88077 19.6108 7.65371 19.6108 7.44055C19.6108 6.83814 19.5459 6.15232 19.4161 5.38309C19.2864 4.61386 19.1566 3.84463 19.0269 3.0754C18.8971 2.30617 18.8323 1.62499 18.8323 1.02258C18.8323 0.874295 18.8693 0.721371 18.9481 0.568451C19.0269 0.410898 19.1288 0.295055 19.2539 0.211644C19.291 0.313591 19.3976 0.573087 19.5783 0.99014C19.8146 1.54621 19.9351 1.99107 19.9351 2.32471L19.5551 1.80108L19.4532 1.96789C19.6154 3.10783 19.7822 4.25242 19.9537 5.39236H19.9583ZM15.241 2.65835C15.2132 2.67226 15.0788 2.71395 14.8424 2.77883C14.7173 2.8159 14.5922 2.88078 14.4625 2.9781C14.291 2.95493 14.1844 2.87151 14.1381 2.72322C14.1381 2.67225 14.1381 2.59347 14.1288 2.49153C14.1196 2.38958 14.1196 2.3108 14.1196 2.25983C14.1196 2.15788 14.1288 2.06058 14.152 1.97717C14.1752 1.89376 14.2169 1.81497 14.2864 1.7501C14.3095 1.79643 14.3188 1.86595 14.3188 1.96327C14.3188 2.02351 14.3188 2.08375 14.3095 2.15326C14.3003 2.21813 14.2956 2.283 14.2864 2.34324C14.2864 2.47762 14.3373 2.57494 14.4439 2.63055C14.5088 2.65372 14.5644 2.64908 14.6061 2.62591C14.6478 2.59811 14.6803 2.55176 14.7127 2.48689C14.7127 2.42665 14.7034 2.34324 14.6849 2.23203C14.6664 2.12081 14.6571 2.05131 14.6571 2.01887C14.6571 1.92156 14.6849 1.83351 14.7359 1.7501C14.7729 1.78717 14.8007 1.91691 14.8146 2.13934C14.8285 2.36177 14.9351 2.4591 15.1251 2.42666C15.1483 2.36642 15.1437 2.27837 15.1158 2.15326C15.088 2.03278 15.0695 1.95863 15.0695 1.93546C15.0695 1.85205 15.0973 1.78253 15.1483 1.72229C15.2085 1.91692 15.2456 2.04667 15.2641 2.11618C15.2827 2.18569 15.2919 2.27373 15.2919 2.37568C15.2919 2.47762 15.278 2.5703 15.2456 2.65372L15.241 2.65835ZM14.9073 0.999402C14.9351 0.962331 14.9537 0.920635 14.9537 0.87893C14.9537 0.841859 14.9166 0.78624 14.8471 0.707463C14.7776 0.628687 14.7405 0.56382 14.7405 0.512846C14.7405 0.452606 14.7683 0.392362 14.8285 0.336755C14.8146 0.299684 14.7915 0.220907 14.7637 0.105059C14.7359 0.0216486 14.6756 -0.0107894 14.5876 0.0031124C14.3883 0.0911569 14.2447 0.23481 14.1659 0.424801C14.1427 0.47114 14.1335 0.508207 14.1335 0.53601C14.1335 0.600885 14.1798 0.675024 14.2771 0.749167C14.4115 0.851113 14.481 0.906727 14.4903 0.915995C13.7581 1.59718 13.026 2.27836 12.2984 2.95028C12.8823 2.5703 13.2947 2.28764 13.531 2.09301C13.9759 1.7362 14.3188 1.36548 14.5644 0.980863C14.6108 0.953059 14.6571 0.966964 14.7081 1.0272C14.759 1.08745 14.7915 1.11988 14.81 1.12915C14.8702 1.08281 14.9027 1.04575 14.912 1.00868L14.9073 0.999402ZM15.1946 4.92433C15.2178 5.02165 15.1854 5.15139 15.1066 5.31358C15.0602 5.39699 15.0232 5.47113 14.9861 5.54528C14.9259 5.53601 14.8842 5.50821 14.8563 5.46187C14.8285 5.41553 14.8007 5.35065 14.7729 5.26724C14.7637 5.2209 14.7637 5.16067 14.7637 5.07726C14.7637 4.8919 14.7915 4.70654 14.8517 4.52118C14.8749 4.44704 14.949 4.27558 15.0741 4.01145C15.0278 4.13193 14.9907 4.25705 14.9583 4.39144C14.9259 4.52582 14.9073 4.65094 14.9073 4.77142C14.9073 4.93361 14.9444 5.07726 15.0185 5.20701L15.1946 4.92897V4.92433ZM11.1446 0.730641L11.0565 0.999402C11.0287 0.999402 10.9685 0.976231 10.8804 0.925258C10.7924 0.878919 10.7275 0.851114 10.6905 0.851114C10.607 0.851114 10.5653 0.91599 10.5561 1.04111C10.5283 1.29134 10.5005 1.5045 10.4773 1.68059C10.4541 1.85668 10.3985 2.00034 10.3105 2.12082C10.2271 2.0235 10.1437 1.86132 10.051 1.62962C9.95829 1.39793 9.87952 1.24037 9.81001 1.15233C9.78684 1.2172 9.74513 1.25428 9.68953 1.25428C9.66172 1.25428 9.61539 1.23574 9.55051 1.19403C9.48563 1.15233 9.45783 1.09209 9.45783 1.00868C9.45783 0.971608 9.4671 0.925256 9.48563 0.865015C9.50417 0.804774 9.52271 0.749174 9.54587 0.6982L9.61075 0.577714C9.78684 0.637955 9.93513 0.786251 10.0556 1.02258C10.1529 1.22184 10.2502 1.42109 10.3429 1.62498C10.38 1.38865 10.4217 1.19403 10.4634 1.04574C10.5375 0.823316 10.6348 0.651858 10.7507 0.53601C10.8156 0.55918 10.8851 0.582351 10.9546 0.610155C11.0241 0.637958 11.0843 0.679663 11.1399 0.739904L11.1446 0.730641ZM7.44208 1.4767C7.46525 1.55084 7.44208 1.64352 7.38647 1.75937C7.32623 1.87522 7.28452 1.94009 7.26599 1.95399C7.24745 1.96789 7.21501 1.97717 7.17794 1.97717C7.06673 1.97717 6.98332 1.91692 6.93234 1.80108C6.91844 1.74083 6.90917 1.66206 6.90917 1.55548C6.90917 1.41646 6.92308 1.29598 6.95551 1.19403C6.98332 1.09209 7.076 0.897458 7.22428 0.610155C7.17331 0.78161 7.1316 0.916 7.10843 1.02258C7.08063 1.12453 7.07136 1.2172 7.07136 1.29134C7.07136 1.4628 7.1455 1.58792 7.29379 1.67133L7.45134 1.48133L7.44208 1.4767ZM17.0528 2.24593C17.0158 1.94009 16.9184 1.60645 16.7655 1.24038C16.608 0.874296 16.4597 0.51748 16.3114 0.179204C16.1909 0.253346 16.0982 0.364561 16.0241 0.512846C15.987 0.577721 15.9361 0.716732 15.8665 0.925258C16.0426 1.91228 16.228 2.94566 16.4226 4.02073C16.6172 5.10043 16.7099 6.05964 16.7099 6.90765C16.4736 7.08374 16.1817 7.23666 15.8295 7.35714C15.4819 7.47762 14.9583 7.65371 14.2632 7.87614C13.9203 8.02442 13.582 8.21441 13.2391 8.44148C12.9518 8.64074 12.6413 8.88634 12.317 9.17364C11.9555 9.49802 11.645 9.75752 11.3948 9.94288C11.038 10.2116 10.7044 10.4016 10.3939 10.5221C10.2827 10.5082 10.1807 10.4804 10.0927 10.4433C10.0046 10.4063 9.93049 10.3507 9.87025 10.2765C9.67562 10.0912 9.58295 9.87336 9.58295 9.6185C9.58295 9.47948 9.61075 9.30339 9.66172 9.09486C10.3151 8.74732 10.7878 8.47856 11.0843 8.2932C11.5941 7.97346 12.0343 7.63982 12.3957 7.29227C12.7062 6.81961 12.8638 6.26354 12.8638 5.63332C12.8638 5.43406 12.8452 5.23481 12.8082 5.04482C12.7711 4.8502 12.7155 4.67874 12.6413 4.52118C12.4791 4.29876 12.317 4.1273 12.164 4.01145C11.9555 3.84926 11.747 3.76585 11.5431 3.76585C11.4782 3.76585 11.4041 3.77512 11.3207 3.79829C11.0751 3.99755 10.8712 4.24314 10.709 4.53045C10.5746 4.77605 10.4588 5.06799 10.3661 5.4109C10.4124 5.78162 10.7183 5.99477 11.2929 6.05037C11.8675 6.10598 12.2011 6.17086 12.2984 6.245C12.3077 6.28207 12.3494 6.36085 12.4328 6.4767C12.4838 6.55084 12.4977 6.63888 12.4652 6.74546C12.0806 7.02813 11.696 7.283 11.3207 7.51469C10.9778 7.71395 10.5885 7.92711 10.1437 8.14954C10.1807 8.0893 10.2363 8.00125 10.3151 7.89004C10.3939 7.77419 10.4356 7.67689 10.4449 7.59348L9.94439 8.32563C9.46246 8.59903 8.94347 8.87243 8.38739 9.15047C8.20204 9.23851 7.66914 9.48875 6.78406 9.89653C6.10751 10.207 5.57924 10.4572 5.19462 10.6426C6.01946 10.5221 6.75626 10.3692 7.40964 10.1746C8.21594 9.93824 8.90176 9.63704 9.4671 9.27559C9.42076 9.44705 9.40222 9.6185 9.40222 9.79923C9.40222 10.0217 9.43929 10.2255 9.51344 10.4109C9.58758 10.5962 9.70806 10.7538 9.87952 10.8789C10.0556 10.9809 10.2363 11.0365 10.4124 11.0365C10.6997 11.0365 11.089 10.8233 11.5709 10.4016C11.8675 10.1421 12.0853 9.96604 12.2289 9.87799C12.7386 9.42387 13.4059 9.02536 14.2215 8.67781C14.9351 8.40441 15.6441 8.13101 16.3577 7.85297C16.6404 7.62128 16.835 7.35251 16.9462 7.0374C17.0575 6.72229 17.1131 6.35159 17.1131 5.9299C17.1131 5.6982 17.0992 5.46651 17.0667 5.23481C17.0389 5.00312 16.9323 4.42387 16.7563 3.50636C16.6311 2.86224 16.5663 2.34325 16.5663 1.94936L16.6775 1.80571L17.0667 2.25057L17.0528 2.24593ZM9.06858 7.39422C9.04541 7.53324 9.01761 7.64908 8.98054 7.73713C8.94347 7.82517 8.87859 7.90395 8.78128 7.96882C8.73494 7.97809 8.69787 7.95491 8.6608 7.90394C8.63299 7.83907 8.60982 7.79274 8.59592 7.76957C8.59592 7.55641 8.63299 7.33861 8.70714 7.12545C8.73494 7.0374 8.82298 6.84278 8.962 6.54621C8.95273 6.57401 8.90176 6.74083 8.80445 7.0374C8.75811 7.17178 8.73957 7.26909 8.73957 7.3386C8.73957 7.45908 8.78128 7.55641 8.86005 7.63982C8.90639 7.55641 8.93883 7.49615 8.96663 7.45445C8.99444 7.41274 9.02688 7.39422 9.07321 7.39422H9.06858ZM4.72196 2.89931C4.67563 3.0754 4.49954 3.18198 4.18443 3.21442C3.86932 3.24685 3.66543 3.31636 3.57739 3.41831C3.57739 3.66391 3.61909 3.97439 3.69787 4.35437C3.73494 4.549 3.77664 4.73434 3.81835 4.91969C3.84615 5.11895 3.86469 5.25334 3.86932 5.32748C3.86932 5.39699 3.87396 5.47578 3.87396 5.55455C3.87396 5.72601 3.86006 5.8743 3.83689 6.00405C3.80908 6.13379 3.76274 6.27281 3.69787 6.42109C3.73494 6.24964 3.75348 6.09672 3.75348 5.95306C3.75348 5.72137 3.7164 5.46188 3.64226 5.16531C3.57739 4.95678 3.52641 4.79459 3.49861 4.66947C3.47081 4.54899 3.43837 4.40997 3.41057 4.25705C3.38276 4.10413 3.36423 3.96511 3.36423 3.84C3.36423 3.70098 3.37349 3.5805 3.39666 3.48319C3.41983 3.38588 3.46617 3.28393 3.54032 3.17271C3.61446 3.0615 3.74884 2.98735 3.9481 2.95028C4.14272 2.91321 4.25857 2.88541 4.28638 2.87151C4.2215 2.76956 4.11955 2.71396 3.98517 2.71396C3.92493 2.71396 3.86932 2.72786 3.81835 2.7603L3.6608 2.89467C3.6469 2.8437 3.65153 2.78811 3.68397 2.7325C3.71177 2.67689 3.74421 2.62128 3.77201 2.57031L4.01761 2.39422C3.9203 2.18569 3.85079 2.03277 3.80445 1.92619C3.7164 1.73156 3.61909 1.62962 3.51715 1.61572C3.50788 1.60645 3.443 1.58791 3.32252 1.5601C3.20204 1.5323 3.14643 1.46279 3.16033 1.36085C3.16033 1.19866 3.20667 1.05038 3.29472 0.915995C3.50324 0.966968 3.67933 1.14306 3.82762 1.43963C3.89249 1.58792 3.96664 1.73157 4.04078 1.87522C4.07785 1.64352 4.11492 1.41645 4.15199 1.18476C4.21687 0.915989 4.34198 0.739903 4.51807 0.651858C4.63855 0.68893 4.70343 0.716734 4.71733 0.739904L4.63855 1.04111C4.58758 1.01794 4.53661 0.999398 4.49027 0.980863C4.44393 0.962327 4.39759 0.966965 4.35125 0.999402C4.30491 1.11988 4.26784 1.28671 4.24004 1.49987C4.16589 2.05594 4.12419 2.34325 4.11955 2.36641C4.36515 2.4869 4.56441 2.66298 4.72196 2.89931ZM8.9481 4.70191C8.90176 5.04482 8.77664 5.33213 8.56812 5.56846C8.23448 5.6287 7.90083 5.72601 7.56719 5.86966C7.56719 5.95307 7.56719 6.03647 7.57646 6.12452C7.58573 6.21256 7.59036 6.30061 7.59963 6.39329C7.59963 6.56938 7.55329 6.6806 7.46525 6.72694C7.38183 6.57865 7.32623 6.46743 7.28916 6.39329C7.21501 6.25891 7.14087 6.15696 7.06673 6.08281C6.53383 6.22183 6.01019 6.47207 5.50046 6.82888C5.08341 7.11619 4.63392 7.51469 4.14272 8.01979C3.31789 8.9095 2.49768 9.80385 1.67285 10.6982C1.62187 10.7445 1.56163 10.7723 1.48749 10.7909C1.41798 10.8094 1.33457 10.8187 1.23726 10.8187H1.07044C0.996293 10.8048 0.945319 10.7955 0.912882 10.7955C0.690454 10.6704 0.500463 10.5221 0.347544 10.3506C0.171455 10.1514 0.0602406 9.93823 0.0231692 9.71581C0.0139014 9.64166 0.0092675 9.5768 0.00463358 9.52119C0.00463358 9.46558 0 9.4146 0 9.3729C0 8.80293 0.21316 8.18661 0.644115 7.52859C0.783132 7.31543 1.0241 6.98179 1.36701 6.52767C1.18165 6.35158 1.04727 6.15232 0.959221 5.93916C0.875811 5.726 0.829472 5.48503 0.829472 5.22554C0.829472 4.96604 0.875811 4.67874 0.963855 4.35899C1.0519 4.03925 1.19092 3.67317 1.37627 3.25612C1.6126 2.77419 1.77479 2.43129 1.86747 2.23203C1.8443 2.32934 1.72845 2.70005 1.51066 3.34417C1.34847 3.82609 1.26506 4.21998 1.26506 4.52118C1.26506 4.73434 1.2975 4.92897 1.35774 5.09579C1.42261 5.26261 1.53383 5.42943 1.69601 5.59162C1.79796 5.61942 1.89991 5.56845 1.99722 5.43407C2.1316 5.23944 2.21038 5.13749 2.22892 5.12359C2.27525 5.22553 2.29379 5.32749 2.29379 5.4248C2.29379 5.54529 2.27525 5.6565 2.23818 5.75845C2.20111 5.86039 2.10843 6.05038 1.96015 6.32379C1.90917 6.38866 1.83503 6.43499 1.74235 6.4628C1.64968 6.4906 1.5431 6.50914 1.42725 6.52304C1.16775 6.90766 0.912882 7.29227 0.658017 7.66762C0.370714 8.15882 0.222428 8.58513 0.222428 8.94657C0.222428 9.09486 0.240964 9.23388 0.278035 9.36826C0.315106 9.50264 0.379981 9.64166 0.477294 9.78995C0.542169 9.86409 0.644115 9.92434 0.773865 9.96604C0.903614 10.0124 1.03336 10.0309 1.15848 10.0309C1.26043 10.0309 1.35774 10.0217 1.44578 9.99848C1.71455 9.84093 1.96942 9.65094 2.21501 9.41924C2.3772 9.26169 2.73401 8.8539 3.28082 8.18662C3.66543 7.72786 3.962 7.38959 4.17053 7.17643C4.51344 6.82888 4.85635 6.5323 5.20389 6.28671C5.63948 5.99014 6.07044 5.726 6.49212 5.49894C6.40408 5.41552 6.3392 5.32748 6.30213 5.22554C6.26506 5.12359 6.24652 5.02164 6.24652 4.91969C6.24652 4.74824 6.29286 4.53972 6.39018 4.29875C6.53846 3.91414 6.61724 3.71025 6.62187 3.68708C6.71918 3.58514 6.82113 3.49709 6.92771 3.43221C7.03429 3.36734 7.15014 3.33026 7.27989 3.33026C7.3633 3.33026 7.43744 3.34417 7.50232 3.37661C7.76182 3.51099 8.02595 3.70098 8.29008 3.95585C8.52641 4.17827 8.73957 4.42851 8.92493 4.70191H8.9481ZM14.6108 0.531386C14.6108 0.531386 14.5505 0.508214 14.4995 0.485044C14.4486 0.461874 14.4115 0.43407 14.3883 0.396998C14.4347 0.332124 14.481 0.322847 14.532 0.37382C14.569 0.401624 14.5968 0.457243 14.6108 0.531386ZM12.0436 5.20237H11.7192C11.5246 5.20237 11.367 5.18383 11.2373 5.15139C11.1075 5.11895 10.9963 5.04946 10.899 4.94751C10.899 4.85947 10.9314 4.78532 10.9917 4.72972C11.0565 4.67411 11.1307 4.63703 11.2187 4.62313C11.3948 4.65094 11.5616 4.71582 11.7099 4.81776C11.8582 4.91971 11.9694 5.04482 12.0436 5.20237ZM8.01668 4.87799C7.94254 4.9058 7.82206 4.95214 7.6506 5.01702C7.47915 5.08189 7.34013 5.1236 7.22892 5.14677C7.20575 5.08189 7.10843 4.95677 6.92771 4.78068C6.78869 4.6324 6.72845 4.49802 6.75162 4.38217C6.84893 4.28486 6.94625 4.23387 7.03892 4.22461C7.21501 4.24778 7.39574 4.32657 7.57183 4.47022C7.72011 4.60924 7.8684 4.74825 8.01668 4.88263V4.87799Z" fill="white"/>
</svg>
