<svg width="16" height="20" viewBox="0 0 16 20" fill="none" xmlns="http://www.w3.org/2000/svg">
<path fill-rule="evenodd" clip-rule="evenodd" d="M13.5832 2.92092C13.408 3.29638 13.2411 3.66347 13.0826 4.02224L11.8978 3.66347C11.9645 3.26299 12.1481 2.87086 12.4568 2.47872C12.899 2.52043 13.2745 2.66227 13.5748 2.92092H13.5832ZM12.365 1.76116C12.4485 1.6527 12.4818 1.56092 12.4818 1.47749C12.4818 1.32731 12.4151 1.20216 12.2816 1.0937C12.3316 1.02695 12.365 0.918481 12.365 0.776642C12.365 0.659833 12.34 0.543022 12.2983 0.434556C12.2482 0.326091 12.2065 0.217622 12.1648 0.117501C12.098 0.00903545 11.9979 -0.0243343 11.8644 0.017383C11.7142 0.0340699 11.5807 0.117503 11.4472 0.276028C11.3638 0.367807 11.2804 0.501311 11.1886 0.676524L11.1469 0.860081C11.1469 0.993577 11.2553 1.12707 11.4806 1.25223C11.6975 1.37738 11.8144 1.45247 11.831 1.46081C11.6475 1.8613 11.222 2.32853 10.5712 2.86251C10.154 3.19625 9.87032 3.44654 9.7118 3.60506C9.97879 3.42151 10.4043 3.12949 10.9967 2.74569C11.4639 2.38692 11.7977 1.99479 11.9979 1.58596L12.3817 1.76952L12.365 1.76116ZM9.01929 1.67772C9.06935 1.78619 9.04432 1.92803 8.93585 2.0949C8.88579 2.17833 8.82739 2.25343 8.77733 2.33687C8.62715 2.38693 8.48531 2.437 8.33512 2.47872C8.20163 2.3035 8.13488 2.12827 8.13488 1.9614C8.13488 1.76116 8.19328 1.54424 8.31844 1.31896C8.43525 1.09369 8.55205 0.868408 8.66052 0.659821C8.56874 0.99356 8.47696 1.32731 8.37684 1.66105C8.37684 1.81957 8.43525 1.96141 8.5604 2.07822C8.65218 2.07822 8.73561 2.0365 8.8107 1.94472C8.88579 1.86129 8.95254 1.7695 9.01929 1.67772ZM5.63184 0.93517C5.61515 1.06867 5.59847 1.17713 5.56509 1.25223C5.53172 1.33566 5.46497 1.35233 5.37319 1.31061C5.33148 1.1938 5.20632 1.14376 4.98939 1.16879C4.96436 1.23553 4.90596 1.54424 4.83087 2.10325C4.74743 2.65392 4.61394 3.03771 4.41369 3.23795C4.37198 3.18789 4.23014 2.8625 3.97149 2.27846C3.86303 2.02815 3.75456 1.82791 3.62941 1.67772C3.58769 1.67772 3.56266 1.7111 3.56266 1.78619C3.56266 1.86129 3.54597 1.91134 3.52929 1.93637C3.44585 1.89465 3.39579 1.86964 3.37076 1.85296C3.2623 1.78621 3.19555 1.71111 3.17052 1.63602C3.17052 1.43577 3.23726 1.21885 3.37076 0.99358C3.68781 1.07701 3.92143 1.29394 4.07161 1.64437C4.22179 1.9948 4.36363 2.33687 4.51382 2.65392C4.55553 2.56214 4.61394 2.26177 4.68069 1.76116C4.75578 1.26056 4.88093 0.893446 5.07283 0.668173C5.20632 0.693203 5.31479 0.718222 5.40657 0.734909C5.49 0.751596 5.57344 0.818353 5.64018 0.926818L5.63184 0.93517ZM0.884407 1.93637C0.901094 2.05318 0.884408 2.15331 0.851034 2.23675C0.81766 2.32018 0.750913 2.45368 0.642447 2.65392C0.483922 2.73736 0.350425 2.74569 0.24196 2.69563C0.0834339 2.5371 0 2.34522 0 2.1116C0 1.92805 0.0667476 1.70276 0.200243 1.45246C0.333739 1.20216 0.458891 0.960183 0.584043 0.734909C0.625761 0.668161 0.667478 0.643151 0.725882 0.651495C0.700852 0.734929 0.609074 0.901787 0.442204 1.16043C0.283679 1.41908 0.200243 1.62768 0.200243 1.76952C0.200243 1.94473 0.258647 2.08657 0.383799 2.21172C0.43386 2.32018 0.525639 2.32852 0.642447 2.25343C0.725882 2.14496 0.800973 2.03649 0.884407 1.93637ZM15.06 6.42516C15.0349 6.47522 14.9598 6.52529 14.8263 6.55866C14.7012 6.59203 14.6094 6.64209 14.5594 6.70884C14.8097 7.28453 14.9765 7.73509 15.0516 8.06882C15.1267 8.40256 15.1601 8.73631 15.1601 9.07005C15.1601 9.60403 15.0182 10.0796 14.7429 10.4884C14.3591 10.7971 14.1088 10.989 14.0003 11.0725C13.7083 11.2894 13.433 11.4396 13.1827 11.5314C12.9324 12.7829 12.1648 13.9677 10.8966 15.0773C9.91204 15.9451 8.69389 16.696 7.25047 17.3384C7.07526 17.3885 6.87502 17.4218 6.64974 17.4218C6.20754 17.4218 5.82374 17.3051 5.49 17.0798C5.22301 16.8545 5.02277 16.6626 4.88927 16.4957C4.68903 16.2538 4.57222 16.0118 4.54719 15.7782C4.54719 15.0022 4.65566 14.2764 4.86424 13.6089C5.08117 12.9331 5.39822 12.3741 5.82374 11.9152C5.78202 12.0737 5.61515 12.4992 5.32313 13.175C5.09786 13.709 4.98105 14.1512 4.98105 14.4933C4.98105 14.6685 5.01442 14.8688 5.08117 15.094C5.26473 15.336 5.46497 15.5446 5.67356 15.7114C5.88214 15.8867 6.10742 15.9951 6.36607 16.0535C7.15035 16.0535 7.92629 15.8616 8.68555 15.4695C9.28628 15.1608 9.95376 14.6852 10.688 14.0511C10.8632 13.9009 11.4806 13.3252 12.5486 12.3073L12.4651 11.8651C12.0813 11.9736 11.7643 12.057 11.514 12.1154C11.2637 12.1738 11.0134 12.2072 10.7631 12.2072C10.5211 12.2072 10.2958 12.1738 10.0789 12.0987C9.86198 12.0236 9.67008 11.9068 9.49487 11.7483C9.37806 11.5481 9.31131 11.3395 9.31131 11.1309C9.31131 10.8806 9.37806 10.5969 9.51155 10.2798C9.64505 9.96279 9.77854 9.66243 9.91204 9.3704C10.0873 9.17016 10.2124 9.04502 10.2958 8.98661C10.4711 8.85312 10.6463 8.79471 10.8131 8.80305C11.2553 8.85312 11.6725 9.03667 12.0647 9.35373C12.4568 9.67078 12.7488 10.0295 12.9324 10.4467C13.3162 10.2632 13.6082 10.1297 13.7918 10.0462C14.1255 9.8877 14.3925 9.70415 14.5927 9.5039C14.259 8.51937 13.9252 7.52651 13.5915 6.54198C13.5915 6.34174 13.6249 6.14982 13.6916 5.97461C13.7584 5.79105 13.8585 5.59082 13.992 5.36555C14.1672 5.48236 14.3508 5.64922 14.551 5.84946C14.7513 6.0497 14.9098 6.24161 15.0349 6.43351L15.06 6.42516ZM9.09438 12.8163C8.76064 13.125 8.44359 13.3586 8.13488 13.5255C7.82617 13.6923 7.50078 13.7758 7.15035 13.7758C7.0836 13.7758 6.9668 13.7591 6.80827 13.734C6.51625 13.6006 6.36607 13.4754 6.36607 13.3503C6.36607 13.2585 6.54962 13.0916 6.90839 12.8496C7.26716 12.6077 7.45072 12.4074 7.45072 12.2489C7.34225 12.1822 7.24213 12.1154 7.15035 12.0487C6.93342 11.9319 6.73318 11.8985 6.54962 11.9485C6.33269 12.0153 6.19085 12.1655 6.10742 12.3907C6.26594 12.3407 6.38275 12.3073 6.4495 12.3073C6.63306 12.3073 6.79993 12.3741 6.93342 12.5076C6.7749 12.591 6.62471 12.6911 6.48288 12.8163C6.34104 12.9414 6.24926 13.0749 6.19085 13.2084C6.10742 13.3252 6.07405 13.4504 6.07405 13.5672C6.07405 13.684 6.1241 13.8091 6.22423 13.9343C6.32435 14.0594 6.43281 14.1345 6.55797 14.1679C6.68312 14.2013 6.88336 14.2096 7.17538 14.2096C7.59256 14.1012 7.97636 13.9259 8.34347 13.6673C8.71058 13.417 8.96089 13.125 9.09438 12.8079V12.8163ZM11.6141 18.4064C10.9883 18.4064 10.179 18.4481 9.1945 18.5232C7.05857 18.6984 5.71528 18.7818 5.17295 18.7818C4.15505 18.6317 3.30401 18.373 2.6115 17.9975C1.74378 17.5303 1.16809 16.8795 0.892751 16.0535C0.809316 15.7365 0.775943 15.4111 0.775943 15.094C0.775943 14.5183 0.892751 13.9677 1.11802 13.4337C1.3433 12.8997 1.66035 12.3824 2.06084 11.8734C2.19433 11.6982 2.34451 11.5147 2.50304 11.3144C2.66157 11.1142 2.82009 11.0141 2.98696 11.0141C3.05371 11.0141 3.1288 11.0308 3.20389 11.0725L3.2623 10.7721C4.33026 10.0212 5.19798 9.45383 5.86546 9.05335C6.82496 8.47765 7.75108 8.02712 8.62715 7.69338C8.80236 7.58492 8.93585 7.44308 9.02763 7.25118C9.06935 7.18443 9.15278 6.88405 9.28628 6.35007L9.10272 6.19154C8.20997 6.08308 7.50912 6.00798 7.00017 5.97461C6.49122 5.93289 5.91552 5.91622 5.28142 5.91622C4.49713 5.91622 3.74622 5.96628 3.04537 6.0664C2.34451 6.16652 1.68538 6.33339 1.07631 6.55866C0.759255 6.77559 0.525639 7.0843 0.375457 7.50147C0.350426 7.59325 0.258647 7.97705 0.116808 8.64453C0.233617 9.09507 0.567356 9.48723 1.10134 9.80428C1.39336 9.97949 1.83556 10.2381 2.41961 10.5886C1.75213 11.4313 1.24318 12.2572 0.901094 13.0749C0.483921 14.0344 0.283678 14.9689 0.283678 15.8783C0.283678 16.2955 0.333739 16.746 0.442204 17.2383C0.684165 18.0393 1.21815 18.6817 2.04415 19.1573C2.66157 19.5161 3.4542 19.7998 4.43038 20C5.78202 20 7.06692 19.8748 8.30175 19.6162C9.53658 19.3659 10.6463 18.9654 11.6391 18.4147L11.6141 18.4064ZM11.9979 1.00191L11.4973 0.659821C11.514 0.543012 11.564 0.476264 11.6558 0.476264C11.7476 0.476264 11.831 0.517993 11.8978 0.593084C11.9645 0.676519 11.9979 0.751617 11.9979 0.835052V0.99358V1.00191ZM11.7559 10.7721C11.514 10.5719 11.3721 10.4551 11.3137 10.4133C11.0217 10.2131 10.7297 10.113 10.4293 10.113C10.3376 10.113 10.2708 10.113 10.2291 10.1297C10.0789 10.2381 9.99548 10.3049 9.97045 10.3299C9.94541 10.3549 9.94541 10.4133 9.97045 10.4884C10.0873 10.6219 10.2458 10.7221 10.4377 10.7888C10.6296 10.8556 10.8298 10.8889 11.0301 10.8889C11.2804 10.8889 11.5223 10.8472 11.7476 10.7721H11.7559ZM7.26716 7.25118C7.01686 7.25118 6.60803 7.25116 6.04901 7.23448C5.49 7.21779 5.06448 7.2178 4.76412 7.2178C3.96315 7.2178 3.22892 7.26785 2.56979 7.35962C1.91065 7.4514 1.30158 7.62664 0.759255 7.87694C0.917781 8.12724 1.41005 8.51937 2.21936 9.03667C2.59482 9.27863 2.8785 9.52894 3.07874 9.79593C3.37076 9.59569 3.88806 9.2703 4.62228 8.81141C5.47331 8.27742 6.35772 7.76013 7.26716 7.25118Z" fill="white"/>
</svg>
