<svg width="20" height="9" viewBox="0 0 20 9" fill="none" xmlns="http://www.w3.org/2000/svg">
<path fill-rule="evenodd" clip-rule="evenodd" d="M19.9886 1.92999C19.947 1.88837 19.8978 1.82403 19.8448 1.74078C19.7919 1.65752 19.7389 1.57048 19.6897 1.48723L19.5799 1.60454L19.9357 5.59319C19.9357 6.10028 19.9205 6.48249 19.8903 6.73604C19.8373 7.16745 19.7313 7.51183 19.5724 7.77295L19.6443 6.28193L19.2621 2.15704C19.2318 2.03594 19.2053 1.80132 19.1788 1.45317C19.1561 1.10501 19.1069 0.847681 19.035 0.684956L19.3605 0.0946074C19.4286 0.196783 19.5005 0.359503 19.5799 0.586561C19.7502 1.0596 19.8675 1.351 19.9357 1.46831C19.9773 1.59697 20 1.72185 20 1.85051C19.9924 1.88836 19.9924 1.91485 19.9924 1.93377L19.9886 1.92999ZM16.3027 0.0416217L16.2044 0.215708C15.7389 0.386001 15.2734 0.552501 14.8042 0.715226C14.1608 0.946068 13.6954 1.11637 13.404 1.23368C12.9574 1.41533 12.5033 1.61968 12.0416 1.84295C12.2649 1.58183 12.6093 1.36234 13.0785 1.1807C13.4721 1.0369 13.8694 0.885526 14.2668 0.734154C14.9442 0.503312 15.6216 0.272467 16.3027 0.0454097V0.0416217ZM16.4844 3.22044C16.4428 3.37181 16.4087 3.48155 16.386 3.54588C16.333 3.67833 16.2384 3.73131 16.106 3.70104C16.0227 3.59886 15.9773 3.46641 15.9773 3.31126C15.9773 3.19773 15.9924 3.09177 16.0265 2.99338C16.0605 2.89499 16.106 2.79659 16.1665 2.69442C16.1476 2.81551 16.1362 2.9139 16.1249 2.98959C16.1173 3.06528 16.1097 3.11447 16.1097 3.14096C16.1097 3.22421 16.1173 3.29233 16.1325 3.34153C16.1476 3.39072 16.1779 3.43992 16.2271 3.49668C16.2876 3.49668 16.3368 3.45127 16.3709 3.36423C16.4087 3.27719 16.4428 3.228 16.4806 3.22422L16.4844 3.22044ZM15.4475 2.22138L14.8761 1.75969L14.4484 2.28572C14.3955 2.21382 14.3008 2.1457 14.1684 2.08515C14.0359 2.0246 13.9489 1.97918 13.9149 1.94891C13.8354 2.02838 13.7597 2.12298 13.6878 2.22894C13.6575 2.27814 13.6008 2.37275 13.5137 2.52034C13.6272 2.59224 13.7219 2.649 13.7938 2.69442C13.9376 2.77767 14.036 2.83822 14.0851 2.87607C14.1268 2.83444 14.1835 2.75118 14.2479 2.6263C14.316 2.50142 14.3803 2.41437 14.4484 2.35761L15.0577 2.77388C15.088 2.73604 15.1561 2.64522 15.2583 2.49385C15.3188 2.40303 15.3832 2.3122 15.4475 2.22138ZM12.9574 0.715226C12.9196 0.722794 12.8931 0.745505 12.8742 0.790916C12.8553 0.836328 12.8363 0.862822 12.8098 0.866607C12.7304 0.82498 12.6925 0.753071 12.6925 0.647111C12.6925 0.609268 12.7077 0.526012 12.7417 0.397346C12.7758 0.26868 12.7909 0.185424 12.7909 0.147582C12.719 0.249757 12.6585 0.367072 12.6131 0.503306C12.5676 0.635756 12.5449 0.768206 12.5449 0.893088C12.5525 0.946068 12.5676 0.999058 12.5941 1.04447C12.6206 1.08988 12.6585 1.11636 12.7077 1.12015C12.7871 1.10123 12.8477 1.04447 12.8893 0.946074C12.9082 0.904446 12.9272 0.824978 12.9536 0.711449L12.9574 0.715226ZM17.771 1.75213C17.5478 1.16935 17.3245 0.586566 17.0974 0C17.0369 0.0908231 16.9763 0.185434 16.912 0.28761C16.8477 0.386002 16.8174 0.480602 16.8174 0.563856C16.8174 0.616836 16.8288 0.669818 16.8553 0.719014C16.8553 1.22611 16.9007 1.83917 16.9915 2.5544C17.0331 2.89877 17.1239 3.50047 17.264 4.36329C17.3775 5.07095 17.4607 5.67644 17.5099 6.17975C17.3888 6.31977 17.2488 6.42952 17.0861 6.51656C16.9272 6.59981 16.6623 6.69063 16.299 6.78145C16.2763 6.78145 16.2308 6.78903 16.1627 6.80038H15.9432C15.7313 6.80038 15.5459 6.77389 15.3832 6.71712C15.2242 6.66414 15.088 6.56574 14.9782 6.42573C15.1788 6.32733 15.334 6.1911 15.4513 6.01324C15.5648 5.83538 15.6518 5.62725 15.7048 5.39262C15.7275 5.29044 15.7427 5.16935 15.7427 5.02933C15.7427 4.80984 15.7048 4.60927 15.6254 4.42384C15.5459 4.23841 15.421 4.07947 15.2545 3.94702C15.2053 3.93566 15.1599 3.92053 15.1183 3.9054C15.0766 3.89026 15.0274 3.88269 14.9745 3.88269C14.9026 3.88269 14.842 3.90539 14.7928 3.94702C14.5695 4.16651 14.4068 4.42005 14.3084 4.71523C14.21 5.0104 14.157 5.32828 14.157 5.67265C14.157 5.79375 14.1608 5.91107 14.1722 6.02081C14.1798 6.13434 14.1911 6.2176 14.2025 6.27058C13.8921 6.42952 13.5818 6.54683 13.264 6.63008C12.9461 6.71334 12.6168 6.75118 12.28 6.75118C11.9659 6.75118 11.667 6.71334 11.3907 6.63387C10.9858 6.4333 10.7247 6.11163 10.6112 5.67265C10.5506 5.20719 10.5052 4.63197 10.4749 3.94702C10.4447 3.26206 10.4182 2.60738 10.3917 1.98675C10.35 1.24882 10.2895 0.639543 10.21 0.162722C10.1381 0.272466 10.0889 0.348155 10.0662 0.389782C10.0246 0.469252 9.96783 0.594138 9.9035 0.760647C9.9754 1.61968 10.0473 2.47871 10.123 3.33017C10.1608 3.99621 10.1987 4.69252 10.2441 5.41533C10.2895 6.13813 10.4863 6.70199 10.8382 7.11069C11.0426 7.23936 11.2469 7.3264 11.4437 7.37938C11.6405 7.43236 11.8638 7.45505 12.1097 7.45505C12.4957 7.45505 12.9082 7.38694 13.3434 7.24692C13.6878 7.13718 14.0587 6.98202 14.4522 6.78524L14.9593 7.31126C15.0993 7.38316 15.228 7.43235 15.3491 7.45505C15.4702 7.47776 15.6102 7.4929 15.7654 7.4929C16.0265 7.4929 16.2914 7.44749 16.5639 7.35288C16.8363 7.25828 17.0747 7.13718 17.2829 6.98581C17.4645 6.72469 17.5894 6.45601 17.6613 6.17597C17.7294 5.89593 17.7673 5.59697 17.7673 5.27531C17.7673 4.99149 17.6727 4.29896 17.4872 3.2053C17.404 2.70956 17.3586 2.29328 17.3586 1.96026C17.3586 1.73699 17.3699 1.54021 17.3964 1.36991C17.4267 1.39262 17.4834 1.46831 17.5705 1.59697C17.631 1.6878 17.6991 1.74077 17.7786 1.75969L17.771 1.75213ZM11.3037 1.93377C11.2545 2.0473 11.2204 2.13056 11.1977 2.17976C11.175 2.22895 11.141 2.27814 11.0918 2.32355C11.2431 2.07379 11.3188 1.79754 11.3188 1.48723C11.3188 1.11258 11.2167 0.794703 11.0085 0.533587L11.0918 0.298963C11.2129 0.401139 11.2999 0.529797 11.3491 0.681168C11.4021 0.83254 11.4248 1.00283 11.4248 1.18826C11.4248 1.31693 11.4134 1.44181 11.3945 1.56669C11.3718 1.69157 11.3415 1.81267 11.2999 1.93377H11.3037ZM13.1202 3.22422L13.0558 3.45128C12.9726 3.42857 12.8855 3.40208 12.8023 3.37937C12.7493 3.37937 12.7114 3.41721 12.6925 3.49668C12.6206 3.81078 12.5487 4.12488 12.4844 4.44276C12.4163 4.38978 12.333 4.23841 12.2308 3.98865C12.1816 3.86755 12.1249 3.76915 12.0568 3.69725C12.0492 3.73888 12.0303 3.76159 11.9924 3.76159C11.9622 3.76159 11.9319 3.75402 11.9016 3.7351C11.8713 3.71618 11.8486 3.70482 11.8373 3.69725C11.7956 3.65562 11.7729 3.614 11.7729 3.56859C11.7729 3.53074 11.7919 3.47777 11.8335 3.40965C11.8713 3.34154 11.894 3.28855 11.894 3.25827C12.0378 3.28098 12.1589 3.38694 12.2573 3.57615C12.3254 3.73888 12.3936 3.90161 12.4655 4.05676C12.526 3.82592 12.5676 3.65563 12.5941 3.54967C12.6471 3.3491 12.7379 3.20908 12.859 3.12204C12.9082 3.11069 12.9574 3.12205 13.0104 3.14854C13.0634 3.17881 13.1012 3.20152 13.1239 3.22044L13.1202 3.22422ZM9.05203 1.60833C9.05203 1.73699 9.03311 1.83538 8.99905 1.9035C8.96121 1.97162 8.9158 2.02081 8.85525 2.04352C8.74172 2.02081 8.66982 1.95269 8.64711 1.84295C8.67739 1.52885 8.76443 1.26017 8.91201 1.04447C8.86282 1.21476 8.81741 1.38505 8.77578 1.55156C8.77578 1.64995 8.81362 1.7332 8.88552 1.8051C8.92337 1.8051 8.95364 1.79375 8.97635 1.76726C8.99905 1.74455 9.02933 1.68779 9.0596 1.60454L9.05203 1.60833ZM12.7758 5.4683C12.7985 5.52128 12.7871 5.59319 12.7379 5.68023C12.6887 5.76727 12.6623 5.82781 12.6547 5.85808C12.6433 5.85808 12.6055 5.86566 12.5449 5.8808C12.4844 5.89594 12.439 5.89215 12.4087 5.86566C12.3254 5.74456 12.28 5.61589 12.28 5.47588C12.28 5.34721 12.3141 5.2034 12.386 5.04446C12.4541 4.88552 12.5222 4.73037 12.5904 4.58656C12.5487 4.70009 12.5071 4.82119 12.4693 4.94608C12.4314 5.07096 12.4087 5.18826 12.4087 5.29423C12.4087 5.42668 12.4428 5.54399 12.5071 5.64995C12.5601 5.66887 12.6017 5.66887 12.6282 5.65374C12.6547 5.6386 12.6925 5.58184 12.7417 5.48723L12.7682 5.4683H12.7758ZM14.5279 8.03027C14.5355 8.10218 14.509 8.18543 14.4522 8.28004C14.3955 8.37465 14.3614 8.43519 14.3463 8.46547C14.3046 8.49574 14.2554 8.48439 14.2062 8.4352C14.1533 8.38222 14.1268 8.33301 14.1192 8.28382C14.1192 8.13244 14.1381 7.98865 14.1798 7.85241C14.2176 7.71618 14.2744 7.57237 14.3463 7.421C14.3576 7.48911 14.3463 7.58751 14.3046 7.71617C14.2668 7.84484 14.2441 7.93567 14.2441 7.98486C14.2441 8.08704 14.2819 8.17407 14.3614 8.24976L14.5241 8.03027H14.5279ZM8.81362 0.083255C8.04541 0.32545 7.2772 0.563858 6.5052 0.802269C6.13434 0.934719 5.76727 1.06717 5.3964 1.19205C4.96121 1.35478 4.6509 1.57805 4.46925 1.8543C4.80227 1.67266 5.12015 1.5175 5.42289 1.39262C5.79754 1.23368 6.35005 1.0369 7.07663 0.802269C7.17502 0.760641 7.47777 0.662254 7.99243 0.510882C8.36708 0.401138 8.63955 0.261117 8.80984 0.083255H8.81362ZM7.67077 1.47208C7.65941 1.54399 7.64806 1.60454 7.63292 1.65374C7.62157 1.70293 7.58373 1.70671 7.52318 1.67265C7.4929 1.64238 7.43614 1.62724 7.3491 1.62724C7.28098 1.71807 7.22422 1.86945 7.17502 2.08515C7.12583 2.30086 7.08798 2.44465 7.05771 2.51655L6.73226 1.91864C6.70199 1.92999 6.66793 1.94134 6.6263 1.94891C6.58846 1.95648 6.5544 1.95269 6.53169 1.93377C6.47871 1.90349 6.44844 1.86566 6.44844 1.82403C6.44844 1.80133 6.45979 1.7597 6.47871 1.70672C6.50142 1.65374 6.50899 1.6121 6.50142 1.5894C6.53169 1.53642 6.58089 1.50614 6.64522 1.50614C6.68307 1.50614 6.70956 1.5175 6.72848 1.54399C6.78903 1.61589 6.85336 1.71807 6.91769 1.84295C6.96689 1.95269 7.01608 2.05865 7.07285 2.16083C7.11069 1.95648 7.14096 1.81267 7.17124 1.7332C7.22422 1.58183 7.30369 1.45696 7.40587 1.36235C7.45885 1.351 7.51183 1.36234 7.56102 1.40018C7.61022 1.43803 7.64428 1.46073 7.65941 1.47208H7.67077ZM9.36992 6.2403C9.26774 6.74361 8.87417 7.1788 8.18921 7.54966C7.86377 7.71995 7.53832 7.89026 7.21665 8.05677C6.86093 8.24977 6.41438 8.39735 5.8808 8.50331C5.55913 8.56386 5.07096 8.62819 4.4087 8.69253C5.20341 8.34816 5.99811 8.00379 6.79659 7.66699C7.71618 7.23558 8.49196 6.77767 9.12015 6.28571C9.09745 6.18732 9.00662 5.92999 8.84768 5.50614C8.72658 5.18448 8.66604 4.91958 8.66604 4.70766C8.58278 4.66604 8.53737 4.60926 8.53737 4.53358C8.53737 4.49195 8.55629 4.42762 8.59792 4.34815C8.63576 4.2649 8.65847 4.21192 8.66604 4.18164C8.67739 4.17029 8.70009 4.13245 8.73415 4.06812C8.76821 4.00378 8.79849 3.97351 8.82876 3.97351C8.85147 3.97351 8.87796 3.98865 8.90066 4.01892C8.99905 4.24219 9.13529 4.46169 9.31693 4.67361L9.23368 4.75686L9.14286 4.67361C9.14286 4.80227 9.16935 4.94986 9.22611 5.12015C9.35856 5.53264 9.42668 5.79375 9.42668 5.89971C9.42668 6.02081 9.40397 6.13434 9.36235 6.24409L9.36992 6.2403ZM9.71428 7.64806C9.66131 7.6367 9.59319 7.65563 9.50993 7.70104C9.42668 7.75024 9.38127 7.77673 9.36992 7.7843C8.93851 7.96594 8.51466 8.15137 8.09082 8.3368C8.02271 8.37464 7.95837 8.42006 7.89026 8.48061C7.82214 8.54115 7.77294 8.60549 7.7351 8.66982C8.07947 8.52602 8.42763 8.37843 8.77956 8.23463C9.18448 8.05298 9.49858 7.85619 9.71428 7.64427V7.64806ZM3.72753 2.05487C3.614 2.21381 3.49669 2.36897 3.38316 2.52791C3.32261 2.52034 3.17881 2.45978 2.94797 2.34626C2.83822 2.29328 2.75118 2.263 2.68307 2.263C2.58467 2.263 2.50899 2.3122 2.45601 2.40681C2.43709 2.44843 2.4106 2.49385 2.36897 2.54305C2.33113 2.59224 2.30085 2.6263 2.28193 2.65279C2.17975 2.65279 2.05487 2.62251 1.91107 2.56196C1.69158 2.47114 1.5667 2.41816 1.52886 2.40681C1.57048 2.30463 1.62346 2.20624 1.68401 2.11542C1.72185 2.06244 1.79376 1.97162 1.9035 1.84295C1.98676 1.84295 2.07758 1.86188 2.17597 1.89594C2.32734 1.95648 2.4825 2.01703 2.63765 2.07757C2.6982 2.05487 2.7701 1.96784 2.84957 1.82403C2.93283 1.68023 3.00473 1.60454 3.07285 1.60454C3.12583 1.60454 3.19016 1.64238 3.26206 1.71429C3.26963 1.72185 3.36424 1.76726 3.55345 1.85051C3.66698 1.90349 3.72753 1.97161 3.72753 2.05108V2.05487ZM2.90255 0.783352C2.86093 0.654686 2.78903 0.53358 2.69442 0.420051C2.59603 0.306522 2.49007 0.200563 2.36897 0.102172C2.30842 0.0718974 2.25544 0.0567621 2.20624 0.0567621C2.12677 0.0567621 2.08136 0.147582 2.07001 0.325444C2.05866 0.503306 2.01703 0.613052 1.9527 0.658464C1.93377 0.696307 1.92621 0.734149 1.92621 0.775776C1.92621 0.927148 1.99432 1.02555 2.13434 1.06717C1.93377 1.36235 1.64238 1.66509 1.2526 1.9754C0.938505 2.21003 0.624409 2.44466 0.317881 2.6755C0.741722 2.47493 1.09745 2.263 1.38884 2.03973C1.76348 1.75591 2.05487 1.44181 2.25922 1.10501C2.2895 1.08609 2.31599 1.07853 2.34248 1.07853C2.36897 1.07853 2.41816 1.09745 2.49385 1.13908C2.56954 1.17692 2.63008 1.19962 2.67928 1.20719C2.78146 1.19962 2.84957 1.1542 2.88363 1.07095C2.91769 0.987696 2.92526 0.893092 2.90634 0.790916L2.90255 0.783352ZM3.61022 3.7086C3.62914 3.73888 3.63671 3.76537 3.63671 3.79186C3.63671 3.8297 3.62914 3.86754 3.61022 3.90917C3.57237 3.98864 3.55724 4.03027 3.55724 4.03784C3.51561 4.12109 3.45885 4.16651 3.38316 4.16651C3.35289 4.16651 3.33018 4.15516 3.31126 4.12867C3.25828 4.03784 3.228 3.92431 3.228 3.79186C3.228 3.67833 3.24693 3.56858 3.28098 3.47019C3.31883 3.3718 3.37181 3.25827 3.44371 3.12961C3.40208 3.30369 3.36045 3.47776 3.3264 3.64805C3.3264 3.7578 3.36424 3.84106 3.44371 3.90161C3.48534 3.90161 3.51939 3.87512 3.53832 3.81835C3.56102 3.76537 3.58373 3.72753 3.60643 3.7086H3.61022ZM8.2422 4.61683C7.93945 4.80605 7.64049 4.9877 7.34153 5.16935C6.71712 5.54021 6.17597 5.72185 5.71429 5.72185C5.62346 5.72185 5.52886 5.71429 5.42668 5.70294C5.32829 5.69158 5.23746 5.67266 5.15799 5.64995C4.88552 5.52885 4.67739 5.32451 4.5298 5.04068C4.41627 4.81741 4.34059 4.54115 4.30274 4.2157C4.75686 3.96594 5.12772 3.78808 5.41911 3.67834C5.84295 3.51939 6.24409 3.44371 6.6263 3.44371C6.80795 3.44371 6.99716 3.46263 7.19016 3.49668C7.06149 3.35667 6.90634 3.25449 6.71712 3.19395C6.52791 3.12961 6.32734 3.09934 6.10785 3.09934C5.87701 3.09934 5.64238 3.12961 5.40019 3.19016C5.05582 3.23179 4.73415 3.39451 4.44276 3.67455C4.14759 3.95459 3.95837 4.26869 3.86755 4.61306C3.98865 5.11637 4.11731 5.47966 4.24976 5.70294C4.38221 5.92621 4.54872 6.10406 4.74929 6.2403C4.63955 6.263 4.56008 6.28193 4.50331 6.2895C4.45033 6.29707 4.39357 6.30464 4.34059 6.30464C4.31031 6.30464 4.24598 6.29706 4.15137 6.28571C3.92053 6.23651 3.69726 6.11164 3.47777 5.91486C3.29612 5.74456 3.13718 5.54399 2.99716 5.30558C2.58467 5.35856 2.2895 5.72563 2.10785 6.40302C1.99432 6.83443 1.88836 7.11448 1.79376 7.25071C1.69915 7.38695 1.60454 7.4929 1.50615 7.5648C1.38505 7.66319 1.26017 7.70861 1.13529 7.70861C0.802271 7.56859 0.571429 7.32639 0.446547 6.98202C0.355724 6.73225 0.310312 6.38411 0.310312 5.93756C0.317881 5.73321 0.321665 5.54777 0.329234 5.38883C0.336802 5.22989 0.336802 5.08987 0.336802 4.97635C0.234626 5.12772 0.15894 5.28666 0.113529 5.45317C0.0681173 5.61968 0.0302744 5.8316 0 6.09272C0 6.6263 0.0681173 7.07663 0.208136 7.44749C0.382214 7.91296 0.66982 8.24219 1.06339 8.42762C1.52886 8.38599 1.85809 8.06433 2.04352 7.46641C2.29328 6.6717 2.49007 6.20246 2.63387 6.05866C2.68307 6.04731 2.71712 6.03973 2.74361 6.03973C2.85714 6.03973 2.97824 6.14948 3.10691 6.36519C3.23557 6.58468 3.35667 6.70955 3.47777 6.74739C3.62914 6.84578 3.77294 6.91391 3.91296 6.95175C4.05298 6.98959 4.20435 7.0123 4.36708 7.0123C4.73794 7.0123 5.2299 6.86092 5.84674 6.55818C6.3122 6.32734 6.59224 6.19489 6.68306 6.15704C6.97824 5.98675 7.28098 5.81646 7.58373 5.64995C7.78808 5.53642 7.94702 5.41533 8.05676 5.28666L8.23841 4.61306L8.2422 4.61683ZM1.72942 4.24598C1.74834 4.32923 1.72942 4.43519 1.68401 4.56386C1.66131 4.63198 1.63103 4.69252 1.59319 4.75307C1.54021 4.75307 1.49101 4.72658 1.44938 4.66982C1.40019 4.59035 1.36613 4.53737 1.35099 4.5071C1.32072 4.41627 1.30558 4.33681 1.30558 4.27247C1.30558 4.16273 1.3245 4.05676 1.36613 3.95458C1.40397 3.85241 1.45695 3.75402 1.5175 3.66319C1.4948 3.72374 1.46831 3.79186 1.4456 3.87133C1.42289 3.9508 1.40776 4.02648 1.40776 4.09839C1.40776 4.23084 1.4456 4.33302 1.5175 4.4087L1.60076 4.4806L1.73699 4.24598H1.72942ZM15.3794 5.5175C15.228 5.63859 15.1145 5.72564 15.035 5.7824C14.9026 5.87323 14.7777 5.94134 14.6641 5.98297C14.6112 5.83917 14.5658 5.69536 14.5317 5.55155C14.4976 5.40775 14.4825 5.26773 14.4825 5.12772C14.4825 5.01419 14.4938 4.90823 14.5203 4.81362C14.543 4.71902 14.5885 4.63954 14.649 4.57142C14.6679 4.56385 14.6944 4.56386 14.7323 4.56386C14.8231 4.56386 14.9101 4.60171 14.9972 4.67361C15.0653 4.72659 15.1258 4.80227 15.1864 4.89309C15.2242 4.99527 15.2621 5.10123 15.3037 5.21097C15.3453 5.32071 15.3718 5.42289 15.3869 5.52129L15.3794 5.5175ZM2.73605 0.904441C2.69442 0.923362 2.63765 0.912018 2.56197 0.866607C2.49007 0.82498 2.4333 0.802269 2.39924 0.802269L2.46358 0.556292C2.53169 0.597919 2.58467 0.647117 2.6263 0.700097C2.66793 0.753077 2.70577 0.821194 2.73605 0.900664V0.904441ZM2.28193 0.741719C2.28193 0.741719 2.2403 0.756859 2.21381 0.756859C2.18732 0.756859 2.14948 0.741715 2.10028 0.726578C2.08136 0.715225 2.07758 0.692522 2.09272 0.658464C2.10407 0.624405 2.12299 0.597922 2.1457 0.582785C2.1684 0.571432 2.19489 0.578999 2.2176 0.605489C2.2403 0.63198 2.26301 0.658463 2.28193 0.681168V0.745507V0.741719Z" fill="white"/>
</svg>
