<svg width="20" height="15" viewBox="0 0 20 15" fill="none" xmlns="http://www.w3.org/2000/svg">
<path fill-rule="evenodd" clip-rule="evenodd" d="M20 4.02352C19.971 3.91459 19.9056 3.79839 19.8112 3.66767C19.7168 3.53695 19.6224 3.40624 19.5352 3.28278L19.3464 3.61684C19.3464 4.08888 19.3827 4.62628 19.4626 5.21451C19.6587 6.69599 19.7531 7.61103 19.7531 7.95961V8.51154C19.7531 9.31764 19.7313 9.93492 19.6805 10.3706C19.6006 11.046 19.4481 11.6415 19.2157 12.1571C19.2738 11.5834 19.3028 11.017 19.3028 10.4578C19.3028 9.66623 19.2447 8.74392 19.1358 7.70543C19.0269 6.66695 18.9107 5.59941 18.7945 4.51008C18.6783 3.42076 18.6202 2.52025 18.6202 1.81582L19.114 1.01698C19.3246 1.45997 19.5134 1.96106 19.6805 2.52025C19.8475 3.07944 19.9492 3.58053 20 4.02352ZM13.4786 1.35104L13.2317 1.17675C12.9121 1.61974 12.5345 2.0119 12.0988 2.3387C11.7139 2.62918 11.2636 2.88336 10.748 3.09396C11.329 2.68728 11.7284 2.3968 11.9535 2.2225C12.4256 1.84487 12.8177 1.4745 13.1155 1.10413C13.0864 1.06782 13.0065 1.00246 12.8831 0.922577C12.7596 0.842693 12.6943 0.748285 12.6943 0.639353C12.716 0.523158 12.7741 0.3997 12.8758 0.268981C12.9775 0.138262 13.0864 0.0511169 13.2026 0.0148061C13.268 -0.0142426 13.3333 0.000278426 13.3842 0.0511136C13.435 0.101949 13.4713 0.167308 13.4786 0.232668C13.4495 0.319814 13.435 0.399697 13.435 0.465057C13.435 0.552203 13.4641 0.661137 13.5221 0.784594C13.5802 0.90805 13.6093 1.00972 13.6093 1.07508C13.6093 1.16949 13.5657 1.2639 13.4786 1.35104ZM13.9434 2.97776C14.0015 2.83978 14.0378 2.74538 14.0523 2.68002C14.0668 2.61466 14.0741 2.52751 14.0741 2.41132C14.0741 2.21524 14.0232 2.04095 13.9288 1.88844C13.8707 1.94654 13.8417 2.01916 13.8417 2.10631C13.8417 2.13536 13.8562 2.20072 13.878 2.29513C13.8998 2.38953 13.9143 2.46942 13.9143 2.52751C13.9143 2.58561 13.8998 2.63645 13.8707 2.68728C13.6747 2.70907 13.5657 2.58561 13.5439 2.32417C13.5222 2.06274 13.5004 1.91749 13.4786 1.88844C13.3914 1.97559 13.3479 2.09905 13.3479 2.26608C13.3479 2.41858 13.3696 2.57109 13.4205 2.71633C13.3551 2.86158 13.2534 2.93419 13.1155 2.93419C12.9702 2.88336 12.8976 2.80348 12.8976 2.68728C12.8976 2.68002 12.9194 2.57835 12.9557 2.39679C12.963 2.34596 12.9702 2.28786 12.9702 2.2225C12.9702 2.14262 12.9484 2.07 12.9121 2.00464C12.7887 2.22976 12.7233 2.47668 12.7233 2.7599C12.7233 2.97051 12.7669 3.1448 12.854 3.28278C12.9121 3.31183 12.9702 3.32635 13.0283 3.32635C13.1227 3.32635 13.2171 3.2973 13.3043 3.23195C13.3914 3.16659 13.4568 3.10123 13.5076 3.02134L13.5802 3.06491C13.5802 3.06491 13.6529 3.09396 13.711 3.09396C13.8272 3.09396 13.907 3.05765 13.9434 2.97776ZM14.2629 4.77878C14.1467 5.01117 14.0595 5.1782 14.0015 5.28713C13.8853 5.49047 13.7618 5.61393 13.6383 5.65024C13.602 5.59941 13.4423 5.49774 13.159 5.33071C12.9557 5.21452 12.854 5.0838 12.854 4.93855C12.9121 4.80057 12.9775 4.66259 13.0574 4.51008C13.1373 4.35758 13.2389 4.24138 13.3624 4.15424C13.5585 4.23412 13.7255 4.32127 13.8707 4.41568C14.016 4.51008 14.1467 4.63354 14.2629 4.77878ZM11.1111 0.900791C10.1162 1.31473 9.12128 1.72868 8.13362 2.13536C8.01017 2.20072 7.9085 2.2806 7.83587 2.36775C7.76325 2.45489 7.72694 2.55656 7.72694 2.67276C8.06826 2.46941 8.46768 2.27334 8.93246 2.07726C9.20116 1.96833 9.62237 1.8013 10.1816 1.56891C10.3631 1.48902 10.5592 1.40914 10.7553 1.31473C10.9513 1.22033 11.0748 1.08235 11.1111 0.900791ZM14.3791 7.14625C14.4081 7.26971 14.3718 7.41495 14.2629 7.58198C14.1975 7.45852 14.1176 7.43673 14.0305 7.52388C14.0232 7.54567 13.9361 7.85068 13.7691 8.43891C13.711 8.63499 13.6383 8.79476 13.5512 8.93274C13.5294 8.91096 13.4641 8.75845 13.3479 8.46796C13.268 8.27189 13.1663 8.18474 13.0428 8.192L12.9847 8.2501C12.8976 8.19926 12.825 8.1339 12.7669 8.04676C12.7088 7.9233 12.6652 7.82889 12.6362 7.7708C12.6362 7.68365 12.6652 7.58924 12.7233 7.48031C12.7814 7.37138 12.825 7.29149 12.854 7.23339C13.0356 7.32054 13.1881 7.48757 13.3043 7.72722C13.4205 7.96687 13.5294 8.19926 13.6383 8.40987C13.7182 8.09033 13.7981 7.76354 13.8853 7.43674C13.9797 7.24066 14.1467 7.14625 14.3791 7.14625ZM9.1939 4.34306C9.1939 4.52461 9.17937 4.68438 9.15033 4.8151C9.12128 4.94582 9.04139 5.03296 8.91794 5.08379C8.79448 5.09106 8.70734 5.04022 8.6565 4.92403C8.60567 4.80783 8.57662 4.72795 8.56935 4.67711C8.56209 4.62628 8.55483 4.54639 8.55483 4.4302C8.55483 4.22686 8.59114 4.01626 8.66376 3.80566C8.73638 3.59505 8.83079 3.40623 8.94699 3.2392C8.8671 3.55874 8.79448 3.87827 8.7146 4.19781C8.7146 4.40115 8.79448 4.56818 8.94699 4.69164C8.9833 4.66985 9.02687 4.61175 9.06318 4.51735C9.09949 4.42294 9.14306 4.36484 9.1939 4.34306ZM16.703 9.23775C16.703 8.33724 16.5723 7.06637 16.3108 5.43238C16.1583 4.47377 16.0421 3.72577 15.9768 3.19563L16.0349 3.02134L16.6594 3.67494C16.6013 3.32635 16.4561 2.8761 16.2237 2.32417C16.0276 1.88844 15.8388 1.44545 15.6572 1.00246C15.5338 1.08961 15.4248 1.23485 15.3377 1.43819C15.2869 1.54712 15.2215 1.70689 15.1343 1.93202C15.5047 4.00173 15.7226 5.25083 15.7879 5.66477C15.9913 6.91386 16.1728 8.18474 16.3253 9.47015C16.0058 9.70254 15.5556 9.9204 14.9746 10.1237C14.6623 10.2327 14.1903 10.3924 13.5512 10.6176C13.1155 10.7846 12.687 11.0025 12.2585 11.2857C11.9172 11.5108 11.5251 11.8013 11.0821 12.1571C10.4139 12.7163 10.029 13.0359 9.93464 13.1157C9.49891 13.4425 9.08497 13.704 8.68555 13.8855C8.56935 13.9073 8.47495 13.9146 8.40959 13.9146C8.14815 13.9146 7.93755 13.8347 7.78504 13.6677C7.61801 13.4353 7.53813 13.1884 7.53813 12.9269C7.53813 12.6292 7.64706 12.2661 7.87219 11.8376C7.98838 11.6052 8.1772 11.2639 8.43863 10.8209C8.08279 11.2494 7.80683 11.6706 7.61075 12.0918C7.41467 12.513 7.29847 12.9778 7.24764 13.4789C7.21133 13.704 7.29121 13.9146 7.49455 14.1179C7.60349 14.2269 7.7923 14.3576 8.061 14.5246C8.52578 14.5246 8.9833 14.4084 9.44081 14.176C9.78214 14.0017 10.1816 13.7258 10.6463 13.3481C11.3217 12.789 11.7139 12.4694 11.8228 12.3895C12.2803 12.0627 12.7088 11.8449 13.1155 11.7505C13.8635 11.4818 14.6115 11.2058 15.3667 10.9226C16.26 10.5813 16.703 10.0221 16.703 9.23775ZM10.3268 10.6611C10.3631 10.7265 10.3849 10.7991 10.3849 10.8645C10.3849 10.9153 10.3704 10.9734 10.3413 11.0388C10.2614 11.2203 10.2179 11.322 10.2106 11.3438C10.1598 11.3801 10.0871 11.4019 9.97821 11.4019C9.91285 11.4019 9.81845 11.3946 9.70225 11.3728L9.64415 11.3002C9.49165 11.5834 9.23021 11.8158 8.85984 12.0119C8.42411 12.208 8.10458 12.346 7.90123 12.4331C7.98838 12.3242 8.31518 12.1063 8.87436 11.7795C9.28831 11.5253 9.5207 11.2203 9.57153 10.8645C9.65142 10.741 9.72404 10.6393 9.7894 10.574C9.90559 10.4651 10.0073 10.4142 10.0944 10.4142C10.1888 10.4142 10.2687 10.4941 10.3268 10.6611ZM4.28468 1.71415L4.18301 2.06274C4.05955 2.02643 3.93609 1.98285 3.8199 1.93202C3.79085 1.93202 3.75454 1.94654 3.7037 1.97559C3.64561 2.11357 3.58751 2.36049 3.52215 2.71633C3.45679 3.07218 3.38417 3.34088 3.29702 3.51517C3.47858 3.66041 3.59477 3.75482 3.63108 3.79113C3.74001 3.88554 3.82716 4.00899 3.90704 4.15424C3.92883 4.2196 3.91431 4.29222 3.878 4.36484C3.84168 4.43746 3.80537 4.50282 3.77633 4.56092C3.37691 4.56092 3.08642 4.57544 2.90487 4.61175C2.72331 4.64806 2.56354 4.757 2.42556 4.93855C2.42556 5.2944 2.46914 5.70834 2.54902 6.18038C2.6289 6.65242 2.70879 7.09541 2.78867 7.52388C2.81772 7.70543 2.83951 7.89425 2.86129 8.09033C2.88308 8.28641 2.89034 8.46796 2.89034 8.64225C2.89034 8.90369 2.86855 9.15061 2.82498 9.37573C2.78141 9.60086 2.70879 9.83325 2.61438 10.0656C2.66521 9.89135 2.69426 9.70979 2.71605 9.52098C2.73784 9.33216 2.7451 9.14334 2.7451 8.94726C2.7451 8.54058 2.69426 8.05402 2.59985 7.49483C2.37473 6.1949 2.26579 5.37428 2.26579 5.02569C2.30211 4.85866 2.3602 4.71343 2.43283 4.58271C2.50545 4.45199 2.61438 4.35758 2.75962 4.29948L3.39869 4.12519C3.31881 4.00899 3.21714 3.9509 3.07916 3.9509C2.99927 3.9509 2.93391 3.97268 2.87582 4.02352C2.81772 4.07435 2.78141 4.08888 2.75962 4.08162C2.73784 4.02352 2.7451 3.95816 2.78141 3.88554C2.81772 3.81291 2.85403 3.7403 2.89034 3.67494L3.18083 3.55874C3.06463 3.13027 2.90487 2.75264 2.70153 2.41132C2.67248 2.4912 2.62164 2.52751 2.55628 2.52751C2.51997 2.52751 2.4183 2.48394 2.26579 2.39679C2.17865 2.34596 2.11329 2.31691 2.07698 2.30965C2.07698 2.04095 2.1496 1.82308 2.29484 1.67058C2.57807 1.67058 2.78867 1.82308 2.93391 2.13536C3.05011 2.40406 3.17357 2.67276 3.29702 2.93419C3.37691 2.58561 3.435 2.33144 3.48584 2.16441C3.57298 1.85213 3.71097 1.64153 3.90704 1.52533C4.05955 1.52533 4.19027 1.59069 4.28468 1.71415ZM5.11256 8.88917C5.13435 8.97632 5.11256 9.07072 5.06899 9.17239C5.01816 9.27407 4.96006 9.39752 4.88017 9.54276C4.85113 9.55002 4.81482 9.57181 4.76398 9.60812C4.71314 9.64443 4.66957 9.65169 4.61874 9.6299C4.45171 9.4774 4.37182 9.28132 4.37182 9.04893C4.37182 8.8819 4.40813 8.70035 4.48802 8.48975C4.5679 8.27915 4.64052 8.08307 4.72041 7.90152C4.74219 7.98866 4.72041 8.14117 4.65505 8.36629C4.58969 8.59142 4.56064 8.74393 4.56064 8.83107C4.56064 9.02715 4.65505 9.15787 4.85113 9.23775L5.11256 8.88917ZM11.024 6.20217C11.1983 6.38372 11.2854 6.60885 11.2854 6.87028C11.2854 7.04458 11.2418 7.24792 11.1619 7.48031C11.0821 7.7127 11.0022 7.93782 10.9223 8.14843C10.5955 8.54785 10.1743 8.83833 9.6732 9.01988C9.23747 9.17239 8.70733 9.25228 8.09005 9.25228C7.8504 10.3198 7.12418 11.1985 5.9114 11.8957C4.84386 12.4186 3.78359 12.9487 2.73057 13.4789C2.28758 13.566 1.81554 13.6386 1.32171 13.704C0.827887 13.7693 0.384895 13.7984 0 13.7984C1.04575 13.3699 1.90269 13.0068 2.57081 12.7091C3.53667 12.2733 4.37909 11.8594 5.08352 11.46C5.91866 10.9952 6.7175 10.4796 7.49455 9.9204C7.34931 9.36121 7.21133 8.79476 7.07335 8.23557C7.07335 8.06855 7.1024 7.90877 7.16776 7.74901C7.23312 7.58924 7.29121 7.45852 7.34205 7.36411C7.39288 7.2697 7.47277 7.20435 7.56718 7.1753C7.60349 7.47305 7.66158 7.69091 7.72694 7.81437C7.84314 8.0395 8.01743 8.14843 8.24982 8.14843C8.33696 8.14843 8.42411 8.14843 8.51126 8.16295C8.5984 8.17022 8.69281 8.18474 8.78722 8.192C8.87436 8.192 8.94699 8.18474 9.01235 8.16295C9.07771 8.14117 9.12854 8.0976 9.17938 8.03224C9.29557 7.444 9.39724 7.03005 9.48439 6.79766C9.65142 6.3692 9.89107 6.03514 10.2106 5.79549C10.4139 5.81727 10.5737 5.84632 10.6899 5.89716C10.8061 5.94799 10.915 6.04966 11.024 6.20217ZM13.2317 0.639353C13.2099 0.581255 13.1954 0.530419 13.1736 0.479584C13.1518 0.428749 13.1227 0.399698 13.0719 0.392436L12.9847 0.465057C13.0356 0.523154 13.0719 0.566729 13.1082 0.60304C13.1445 0.63935 13.1808 0.646615 13.2317 0.639353ZM10.7044 7.42221C10.5229 7.58924 10.3123 7.72722 10.0799 7.83615C9.84749 7.94509 9.62237 8.01045 9.39724 8.03224C9.43355 7.87973 9.47712 7.71996 9.52796 7.56745C9.6151 7.27697 9.73856 7.0591 9.89107 6.91386C10.2614 6.91386 10.5301 7.08089 10.7044 7.42221ZM10.0508 10.9662C9.99274 11.0315 9.91285 11.017 9.80392 10.9081C9.79666 10.8282 9.82571 10.7991 9.90559 10.8209C9.99274 10.8427 10.0436 10.8863 10.0508 10.9662Z" fill="white"/>
</svg>
